<?xml version="1.0" encoding="UTF-8"?>
<svg id="_Слой_1" data-name="Слой 1" xmlns="http://www.w3.org/2000/svg" viewBox="0 0 324 325.8">
  <defs>
    <style>
      .cls-1 {
        fill: #ffb919;
      }

      .cls-1, .cls-2, .cls-3, .cls-4, .cls-5 {
        stroke-width: 0px;
      }

      .cls-1, .cls-2, .cls-4, .cls-5 {
        fill-rule: evenodd;
      }

      .cls-2 {
        fill: #fff;
      }

      .cls-3 {
        fill: #19aa1e;
      }

      .cls-4 {
        fill: #82d714;
      }

      .cls-5 {
        fill: #0073fa;
      }
    </style>
  </defs>
  <path class="cls-3" d="M0,0h323.9v325.8H0V0Z"/>
  <path class="cls-1" d="M0,0h323.9v106.9L0,56V0Z"/>
  <path class="cls-4" d="M0,290.1l323.9-50.9v86.5H0v-35.6Z"/>
  <path class="cls-2" d="M0,49.6l113.1,17.8c14.1-9,30.8-13.9,48.9-13.9,25,0,47.5,9.4,63.9,26,2.1,2.1,4,4.3,5.8,6.5l92.2,14.5v12.9l-82.9-13c6.2,11.9,9.5,25.2,9.5,38.6,0,17.5-3.9,34.9-11.9,52.3l-.2.5-3.4,7.3h-8.1c-16.6,0-27.7,5-34.9,13.9-5.7,7-8.9,16.4-10,26.6v.3l-.2,1.6-.1.7-.1,1.4c-.4,4.6-.7,8.4-.8,11.6l143.2-22.5v12.9L0,296.6v-12.9l143.4-22.5-.1-2.9v-1.8c-.2-4.5-.5-9-1-13.5l-.1-1-.2-1.8c-1-10.3-4.3-19.8-9.9-26.9-7.1-8.9-18.1-14-34.6-14.1h-8.5l-3.4-7.3c-8.2-17.7-12.2-35.2-12.2-52.9,0-22.2,8.9-43.6,24.7-59.5l1.4-1.4L0,62.4v-12.8Z"/>
  <path class="cls-5" d="M162,66.2c45.2,0,75.9,35,75.9,72.8,0,15.2-3.3,30.9-11,47.5-44.5,0-55.5,32.1-57.6,52.2l-.1,1.3c-.7,7.2-1.1,13-1.2,17.3l-12.1,1.9v-.4c0-4.6-.5-11-1.3-19.2v-.4c-1.9-20.1-12.7-52.8-57.6-52.8-7.7-16.5-11-32.3-11-47.5,0-37.7,30.7-72.7,76-72.7"/>
</svg>