<?xml version="1.0" encoding="UTF-8"?>
<svg id="Laptop" xmlns="http://www.w3.org/2000/svg" viewBox="0 0 380.44 288.44">
  <defs>
    <style>
      .cls-1 {
        fill: none;
        stroke: #59abff;
        stroke-linecap: round;
        stroke-miterlimit: 10;
        stroke-width: 2px;
      }
    </style>
  </defs>
  <g id="sidelines">
    <line class="cls-1" x1="65.02" y1="102.54" x2="95.95" y2="93.47"/>
    <line class="cls-1" x1="65.02" y1="110.38" x2="95.95" y2="101.31"/>
    <line class="cls-1" x1="65.02" y1="117.91" x2="95.95" y2="108.85"/>
    <line class="cls-1" x1="65.02" y1="125.49" x2="83.95" y2="119.8"/>
    <line class="cls-1" x1="65.02" y1="157.22" x2="83.95" y2="151.53"/>
    <line class="cls-1" x1="65.02" y1="163.92" x2="83.95" y2="158.22"/>
    <line class="cls-1" x1="65.02" y1="133.34" x2="90.25" y2="125.87"/>
    <line class="cls-1" x1="65.02" y1="140.87" x2="80.49" y2="136.15"/>
  </g>
  <g id="sidelines-2" data-name="sidelines">
    <line class="cls-1" x1="65.02" y1="180.4" x2="95.95" y2="171.34"/>
    <line class="cls-1" x1="65.02" y1="188.25" x2="95.95" y2="179.18"/>
    <line class="cls-1" x1="65.02" y1="195.78" x2="95.95" y2="186.71"/>
    <line class="cls-1" x1="65.02" y1="203.36" x2="83.95" y2="197.66"/>
    <line class="cls-1" x1="65.02" y1="235.09" x2="83.95" y2="229.39"/>
    <line class="cls-1" x1="65.02" y1="241.78" x2="83.95" y2="236.09"/>
    <line class="cls-1" x1="65.02" y1="211.2" x2="90.25" y2="203.74"/>
    <line class="cls-1" x1="65.02" y1="218.74" x2="80.49" y2="214.02"/>
  </g>
</svg>