<?xml version="1.0" encoding="utf-8"?>
<!-- Generator: Adobe Illustrator 28.1.0, SVG Export Plug-In . SVG Version: 6.00 Build 0)  -->
<svg version="1.1" xmlns="http://www.w3.org/2000/svg" xmlns:xlink="http://www.w3.org/1999/xlink" x="0px" y="0px"
	 viewBox="0 0 380.4 288.4" style="enable-background:new 0 0 380.4 288.4;" xml:space="preserve">
<style type="text/css">
	.st0{fill:#59ABFF;stroke:#0032B8;stroke-width:2;stroke-miterlimit:10;}
	.st1{fill:#0099FF;stroke:#0032B8;stroke-width:2;stroke-miterlimit:10;}
	.st2{fill:#FFFFFF;stroke:#0032B8;stroke-width:2;stroke-miterlimit:10;}
	.st3{fill:#FFFFFF;stroke:#0032B8;stroke-width:2;stroke-miterlimit:10;stroke-dasharray:5,4,4,4,4,4;}
	.st4{fill:none;stroke:#0032B8;stroke-width:2;stroke-linecap:round;stroke-linejoin:round;stroke-miterlimit:10;}
	.st5{fill:#C0DFFF;}
	.st6{fill:#3FC6FF;stroke:#0032B8;stroke-width:2;stroke-miterlimit:10;}
	.st7{fill:#96E1FE;stroke:#0032B8;stroke-width:2;stroke-linecap:round;stroke-linejoin:round;stroke-miterlimit:10;}
	.st8{fill:#0362E1;stroke:#0032B8;stroke-width:2;stroke-linecap:round;stroke-linejoin:round;stroke-miterlimit:10;}
	.st9{fill:#139BFF;stroke:#0032B8;stroke-width:2;stroke-miterlimit:10;}
	.st10{fill:#60D7FF;}
	.st11{fill:#0387FF;stroke:#0032B8;stroke-width:2;stroke-miterlimit:10;}
	.st12{fill:none;stroke:#0032B8;stroke-width:2;stroke-linecap:round;stroke-miterlimit:10;}
	.st13{fill:#59ABFF;stroke:#0032B8;stroke-width:2;stroke-linejoin:round;stroke-miterlimit:10;}
	.st14{fill:#FFFFFF;stroke:#0032B8;stroke-width:2;stroke-linejoin:round;stroke-miterlimit:10;}
	.st15{fill:#139BFF;stroke:#0032B8;stroke-width:2;stroke-linecap:round;stroke-linejoin:round;stroke-miterlimit:10;}
	.st16{fill:#0387FF;stroke:#0032B8;stroke-width:2;stroke-linecap:round;stroke-linejoin:round;stroke-miterlimit:10;}
	.st17{fill:none;stroke:#59ABFF;stroke-width:2;stroke-linecap:round;stroke-miterlimit:10;}
	.st18{fill:none;stroke:#0362E1;stroke-width:2;stroke-linecap:round;stroke-linejoin:round;stroke-miterlimit:10;}
</style>
<g id="Main_Parts">
	<g>
		<g>
			<path class="st0" d="M-315.3,214.1l-5.3,7.7c-0.7,1-2.1,0.9-2.8-0.1l-52.3-65.5c0,0,0,0,0,0c-1.5-2.5-1.9-5.5-0.9-8.2l1.5-4.1
				c0,0,0,0,0.1-0.1c-0.2,1.2,0.1,2.9,1.4,5.1l0.3,0.6c0.3,0.6,0.7,1.2,1.1,1.7l47.8,59c1.8,2.2,4.5,3.5,7.3,3.5
				c0.4,0,0.8,0,1.2-0.1L-315.3,214.1z"/>
			<path class="st0" d="M-114.4,224.5v7.2c0,0.1-0.1,0.3-0.2,0.3l-119.7,40.2c-3.6,1.2-7.6,0.8-10.9-1.2l-74.4-45.5c0,0,0,0-0.1-0.1
				c-0.8-0.7-1.2-1.7-1.1-2.8l0.6-6.1c0.2-0.5,0.3,0.1,0.3,0c0,0.3-0.1,0.6,0.3,0.8l76.8,47.3c2,1.2,4.4,1.5,6.6,0.8l121-40.6
				c0.3-0.1,0.6-0.4,0.7-0.7C-114.4,224.2-114.4,224.3-114.4,224.5z"/>
			<path class="st1" d="M-240.4,253.8"/>
			<path class="st2" d="M-114.5,224.1c-0.1,0.3-0.4,0.5-0.7,0.7l-121,40.6c-2.2,0.8-4.6,0.5-6.6-0.8l-76.8-47.3
				c-0.3-0.2-0.5-0.5-0.5-0.9c0-0.5,0.2-1,0.8-1.2l120.4-36c0.6-0.2,1.2-0.1,1.7,0.2l82.2,43.2
				C-114.5,222.9-114.3,223.5-114.5,224.1z"/>
			<path class="st3" d="M-151.9,229.2l-83.4,28.2c-0.5,0.2-1.1,0.1-1.6-0.2l-40.3-23.1c-0.5-0.3-0.4-1,0.1-1.1l84.1-24.4
				c0.5-0.1,1-0.1,1.4,0.1l39.7,18.8C-151,227.9-151.1,229-151.9,229.2z"/>
			<path class="st2" d="M-205.2,181.1l-109.1,32.2c-0.5,0.1,0,0-1.5,0.5c-1.4,0.5-1,0.3-1.4,0.5c-3.5,1.2-3.5-0.2-7.1-4l-47.8-59
				c-0.4-0.5-0.8-1.1-1.1-1.7l-0.3-0.6c-1.3-2.2-1.6-3.9-1.4-5.1c0.4-1.9,2.1-2.8,4-3.4l110.5-30.1c2.6-0.6,5.4,0.3,7,2.5l51.6,61.6
				C-197.3,179.7-198.7,179.2-205.2,181.1z"/>
			<line class="st4" x1="-277.5" y1="184.3" x2="-220.6" y2="168.1"/>
			<path class="st4" d="M-244.6,200.5"/>
			<path class="st4" d="M-301.1,217.3"/>
			<line class="st4" x1="-295.2" y1="221.6" x2="-239" y2="204.9"/>
			<line class="st4" x1="-287.6" y1="225.9" x2="-230.6" y2="209.7"/>
			<line class="st4" x1="-281.4" y1="178.7" x2="-225.5" y2="162.8"/>
			<line class="st4" x1="-286" y1="172.5" x2="-230.8" y2="156.8"/>
			<line class="st4" x1="-289.9" y1="167.3" x2="-264.8" y2="160.2"/>
			<path class="st4" d="M-220.2,167.8"/>
			<path class="st4" d="M-277.1,183.7"/>
			<path class="st4" d="M-225.2,161.8"/>
			<path class="st4" d="M-281.8,177.7"/>
			<path class="st4" d="M-231.1,151.8"/>
			<path class="st4" d="M-267.5,162"/>
			<path class="st4" d="M-234.7,145.6"/>
			<path class="st4" d="M-271.1,155.9"/>
			<path class="st0" d="M-331.8,175.8c7.5-2.2,23.3-6.3,30-8.3c2-0.6,4.2,0.1,5.4,1.9l11.4,14.5c1,1.4,0.3,3.4-1.4,4.5l-29.9,8.7
				c-1.9,0-4.1-0.8-5.3-2.5l-11.5-14.9C-334.2,178.3-333.5,176.3-331.8,175.8z"/>
			<path class="st0" d="M-354.2,147.8c7.5-2.2,85.7-22.9,92.4-24.9c2-0.6,4.2,0.1,5.4,1.9l11.4,14.5c1,1.4,0.3,3.4-1.4,4.5
				l-92.3,25.2c-1.9,0-4.1-0.8-5.3-2.5l-11.5-14.9C-356.5,150.3-355.8,148.3-354.2,147.8z"/>
			<path class="st5" d="M-322.2,210c0,0,0.9,0.3,5.6-0.7c15-3.2,114.4-33.9,114.4-33.9l0.7,0.8c1.8,2.3,2.2,2-0.1,2.9L-313.4,212
				c-7.9,2.7-5.6,2.5-10-2.3L-322.2,210z"/>
		</g>
		<g>
			<path class="st6" d="M-49.2,182.3l-34-16.3c-1.2-0.7-2.6-0.8-3.9-0.4l-69.9,21.3c-1.9,0.7-3.9-0.7-3.9-2.7v-46l4.6-2v39.7
				l63.4-19.9c2-0.6,3.3-2.4,3.3-4.5v-20l18.3-5.4v7.6c0,0.6-0.3,1.2-0.8,1.6c-1.1,0.8-2.9,3-2.9,8.7c0,6.4,3.2,10.3,4.4,11.5
				c0.3,0.3,0.5,0.7,0.5,1.1l0,5.6c0,0.3,0.2,0.7,0.5,0.8l3.4,1.9c0.4,0.2,0.9-0.1,0.9-0.6v-6.1c0-0.3,0.2-0.6,0.5-0.6
				c1.2-0.1,3.8-2.5,3.8-7.7c0-5.4-0.8-8.9-1.9-11.2c-1.2-2.4-2.4-6.4-2.4-9.1v-3.3l-2.5-1.4l13.2-3.9l2.3,1.9l1.7,5.8v45.3l2.8,6.8
				C-47.1,181.9-48.2,182.9-49.2,182.3z"/>
			<path class="st7" d="M-160.7,139.5v46c0,6.7,0.6,6.9,1.7,7.6l31.7,16.9v-51.9L-160.7,139.5z M-143.1,182.2
				c-0.2,0.1-0.4,0.4-0.4,0.7v5.5c0,1-1.1,1.6-1.9,1l-2.1-1.4c-0.5-0.3-0.7-0.8-0.7-1.4v-5.3c0-0.5-0.2-0.9-0.5-1.2
				c-1.3-1.3-4.4-5.1-4.4-11.5c0-6.3,2.3-8.3,3.3-8.9c0.2-0.1,0.4-0.4,0.4-0.7v-11.3l5.6,3.2c0.3,0.1,0.4,0.4,0.4,0.7v9.5
				c0,0.2,0.1,0.4,0.2,0.6c0.9,0.9,4.1,4.6,4.1,12.6C-139.2,179.5-142,181.6-143.1,182.2z"/>
			<path class="st2" d="M-127,111.8l-0.3,98.2c0,0,1.3,0.9,3,0.5c1.6-0.4,63.3-21.4,75.9-25.7c1.3-0.5,2.2-1.7,2.2-3.1V92.3
				L-127,111.8z M-53.7,172.1c0,2.3-1.5,4.3-3.6,5.1l-53.1,18c-3.5,1.2-7.1-1.4-7.1-5.1v-36.5c0-2.4,1.5-4.4,3.8-5.1l56.7-17
				c1.7-0.5,3.4,0.8,3.4,2.5V172.1z"/>
			<path class="st8" d="M-117.5,129.5v9c0,0.6,0.4,1.1,0.9,0.9l62.3-18.3c0.4-0.2,0.6-0.6,0.6-1.2v-8.8c0-0.7-0.5-1.2-1-1.1
				l-62,17.8C-117.2,128.2-117.5,128.8-117.5,129.5z"/>
		</g>
		<g>
			<path class="st9" d="M-39.6,48.1c-0.1-1.1-0.7-2.1-1.5-2.9c-0.9-0.9-2.1-1.4-3.5-1.3c-6.5,0.2-18.8,1.9-35.5,6.3
				c-29.5,7.8-39.7,12.4-47.2,15.3c-1.9,0.7-3.1,3.4-3.1,5.4l-0.1,0c-0.2-2.1-1.4-7.5-7.5-12.9c-1.1-1-2.4-2-3.8-2.9
				c-11.7-7.8-19-9.6-21.6-8.8c-1.7,0.5-3.4,1.4-4.4,3.6v0c0,0,2.8-11.3,15.3-15.7c12.6-4.4,22-6.6,35.7-10.1
				c9.9-2.5,24.6-4.9,24.6-4.9s5.1-1.4,10.8,0.4c5.8,1.8,16.8,5.7,20.9,7.8c4.1,2,14.8,6.8,17.2,9.6C-41,39.3-39.8,40.5-39.6,48.1z"
				/>
			<path class="st10" d="M-41.1,45.2c-0.9-0.9-2.1-1.4-3.5-1.3c-6.5,0.2-18.8,1.9-35.5,6.3c-29.5,7.8-39.7,12.4-47.2,15.3
				c-1.9,0.7-3.1,3.4-3.1,5.4v0.5h0c-0.1-1.7-1-7.6-7.5-13.4c0,0,0,0,0,0s4.6,2.2,14.2,0c9.6-2.2,28.1-8.1,38.7-10.7
				c10.6-2.6,30.3-6.3,34.5-6.9c5.5-0.8,5.7-3.5,6.3-2.8c0.3,0.4,0.7,0.7,1,1c1.2,1.4,1.9,3.2,2,5.1v0.2L-41.1,45.2z"/>
			<path class="st11" d="M-130.3,71.8v85.3c0,3-1.5,2.1-1.5,2.1s-30.1-17-33.9-19.2c-2.8-1.7-2.7-6.3-2.7-6.3s-0.2-73-0.2-78.9
				c0-2.2,0.4-3.8,0.9-5.1c1-2.1,2.7-3.1,4.4-3.6c2.7-0.8,10,1,21.6,8.8c1.4,1,2.7,2,3.8,2.9c6,5.4,7.2,10.8,7.5,12.9
				c0,0.2,0,0.3,0,0.5C-130.3,71.6-130.3,71.7-130.3,71.8z"/>
			<path class="st9" d="M-39.6,51.2v80.8c0,3.8-1.3,3.7-1.3,3.7s-4.6,2.1-6.1,2.6c-1.5,0.5-1.1-2.6-1.1-2.6s0-30.1,0-33.7
				c0-3.6-1.8-2.6-1.8-2.6s-67.6,19.2-70.5,20.1c-2.9,0.9-2.6,3.4-2.6,3.4s0,28.6,0,31.5s-1.7,3.3-1.7,3.3l-5.6,1.7
				c-0.5,0.2,0,0,0-0.5V70.9c0-2,1.2-4.7,3.1-5.4c7.5-2.9,17.7-7.6,47.2-15.3c16.7-4.4,29-6.1,35.5-6.3c1.4-0.1,2.6,0.5,3.5,1.3
				c0.8,0.8,1.3,1.8,1.5,2.9C-39.6,49.1-39.6,50.1-39.6,51.2z"/>
			<path class="st2" d="M-151.5,33.9c-0.6,0.2-0.6,1,0.1,1.1c3.7,0.7,13.2,4.8,18.7,7.7c6.4,3.4,10,5,11.5,6.1
				c0.4,0.3,1.2,0.3,1.2,0.3c10.2-3.2,20.1-5.8,31.9-8.4c8.5-1.9,16.8-3.5,24.6-4.8c0.2-0.1,0.6-0.2,0.8-0.5
				c0.1-0.2,0.2-0.4,0.2-0.7c0-1.8-13.4-7.1-18.4-8.9c-4.8-1.8-14-4.1-17.7-4.6c-1.1-0.1-3.5,0.2-4.6,0.4c-3.3,0.5-6.3,1.5-16.1,3.8
				C-129.4,27.7-146.2,32.5-151.5,33.9z"/>
			<line class="st12" x1="-162.3" y1="67" x2="-141.6" y2="76.7"/>
			<line class="st12" x1="-162.3" y1="75.4" x2="-141.6" y2="85.1"/>
			<path class="st8" d="M-159.4,134l17.4,9c0.9,0.4,1.6-0.3,1.6-1.3c0-4.7-3.3-14.3-9.2-17.4c-6.6-3.4-10.4,4.3-10.3,8.4
				C-159.9,133.2-159.9,133.7-159.4,134z"/>
		</g>
	</g>
</g>
<g id="Laptop">
	<g id="Paper">
		<g>
			<polygon class="st13" points="298.3,190.3 222.9,148.7 222.9,76.9 298.3,118.5 			"/>
			<polygon class="st14" points="298.3,118.9 222.9,76.9 293.8,55.5 369.2,97 			"/>
			<polygon class="st7" points="298.3,190.3 369.2,168.7 369.2,97 298.3,118.5 			"/>
		</g>
		<polygon class="st15" points="321,78.3 268.5,92.7 242.7,79.3 294,64 		"/>
		<g>
			<g>
				<line class="st4" x1="278.6" y1="98.1" x2="320.4" y2="86.2"/>
				<line class="st4" x1="290.5" y1="104.9" x2="322.3" y2="95.8"/>
				<line class="st4" x1="297" y1="108.6" x2="328.8" y2="99.5"/>
				<line class="st4" x1="284.5" y1="101.2" x2="335.4" y2="86.9"/>
			</g>
			<g>
				<line class="st4" x1="299" y1="127.1" x2="349.9" y2="111.6"/>
				<line class="st4" x1="299" y1="182.2" x2="349.9" y2="166.6"/>
				<line class="st4" x1="299" y1="149.9" x2="334.7" y2="138.9"/>
				<line class="st4" x1="299" y1="172.2" x2="334.7" y2="161.3"/>
				<line class="st4" x1="299" y1="153.8" x2="322.5" y2="146.6"/>
				<line class="st4" x1="345.7" y1="161.5" x2="369.2" y2="154.3"/>
				<line class="st4" x1="334.7" y1="127.5" x2="369.2" y2="116.9"/>
			</g>
			<g>
				<line class="st4" x1="222.9" y1="82.2" x2="265.8" y2="106.1"/>
				<line class="st4" x1="222.9" y1="88.6" x2="248" y2="102.6"/>
				<line class="st4" x1="222.9" y1="116.2" x2="244.3" y2="128.1"/>
				<line class="st4" x1="222.9" y1="133.7" x2="244.3" y2="145.6"/>
				<line class="st4" x1="273.2" y1="135.7" x2="298.3" y2="149.7"/>
				<line class="st4" x1="251.5" y1="156.3" x2="298.3" y2="182.4"/>
				<line class="st4" x1="255.4" y1="119.7" x2="298.3" y2="143.6"/>
				<line class="st4" x1="222.9" y1="129.1" x2="265.8" y2="153"/>
			</g>
		</g>
	</g>
	<g id="Laptop_00000052064212469144277710000012799439776567156864_">
		<g>
			<path class="st16" d="M207.9,34.5c-0.3,0-5.5,6.2-2.3,4.2l-2.4,0L62,80.6c-1,0.3-1.7,1.2-1.7,2.2v97.8c0,0.5,0.1,2,0.4,2.3
				l-8.7-5.5l-1.3-1c-0.3-0.4-0.4-0.8-0.4-1.3V76.5c0-1,0.7-2.7,1.7-3l148.2-44c0.4-0.1,0.9-0.1,1.2,0l1.5,1.1L207.9,34.5z"/>
			<path class="st15" d="M198.5,35.9v90.8c0,1-0.7,2-1.7,2.2L55.6,170.8V80c0-1,0.7-2,1.7-2.2L198.5,35.9z"/>
			<path class="st15" d="M208.5,36v97.8c0,1-0.7,2-1.7,2.3l-148.2,44c-0.4,0.1-0.8,0.1-1.2,0c-0.6-0.1-1.1-0.5-1.4-1
				c-0.2-0.4-0.4-0.8-0.4-1.3V80c0-1,0.7-2,1.7-2.2l141.2-41.9l7-2.1c0.3-0.1,0.5-0.1,0.8-0.1c0.9,0,1.8,0.7,2.1,1.6
				C208.4,35.5,208.5,35.8,208.5,36z"/>
		</g>
		<path class="st14" d="M201.7,46.9v79.9c0,0.9-0.6,1.6-1.5,1.9l-135,40c-0.4,0.1-0.8,0.1-1.1,0.1c-0.5-0.1-1-0.4-1.3-0.8
			c-0.2-0.3-0.3-0.6-0.3-1V87.1c0-0.8,0.6-1.6,1.5-1.9l128.6-38.1l6.4-1.9c0.2-0.1,0.5-0.1,0.7-0.1c0.9,0,1.6,0.5,1.9,1.2
			C201.6,46.5,201.7,46.7,201.7,46.9z"/>
		<g>
			<path class="st15" d="M267.5,179.9l-135.7,42.8c-3,1-6.3,0.5-9-1.1l-55-34.1l140.8-41.7L267.5,179.9z"/>
			<path class="st6" d="M275.9,177.2c-0.2,0.2-0.4,0.3-0.7,0.4l-7.7,2.4l-135.7,42.8c-3,1-6.3,0.5-9-1.1l-55-34.1l-8.9-5.5
				c-0.1-0.1-0.2-0.1-0.3-0.2c-0.8-0.8-0.5-2.2,0.6-2.5L208.5,135l67.1,38.8C276.9,174.6,276.9,176.3,275.9,177.2z"/>
			<path class="st8" d="M276.5,176.9v10.8c-0.2,0.2-0.4,0.3-0.7,0.4l-144,45.5c-3,1-6.3,0.5-9-1.1l-64-39.6
				c-0.1-0.1-0.2-0.1-0.3-0.2v-10.8c0.1,0.1,0.2,0.2,0.3,0.2l8.9,5.5l55,34.1c2.7,1.7,6,2.1,9,1.1l135.7-42.8l8.4-2.7
				C276.1,177.1,276.3,177,276.5,176.9z"/>
		</g>
		<g>
			<polygon class="st13" points="129.5,135.4 115.9,139.5 115.9,107.6 129.5,103.6 			"/>
			<polygon class="st13" points="190.1,117.8 176.5,121.9 176.5,79.8 190.1,75.7 			"/>
			<polygon class="st13" points="169,124 155.3,128.1 155.3,98.2 169,94.1 			"/>
			<polygon class="st13" points="149.5,129.4 135.9,133.5 135.9,109.5 149.5,105.4 			"/>
		</g>
		<g>
			<line class="st17" x1="70.3" y1="92.7" x2="101.2" y2="84"/>
			<line class="st17" x1="70.3" y1="100.5" x2="101.2" y2="91.8"/>
			<line class="st17" x1="70.3" y1="108" x2="101.2" y2="99.4"/>
			<line class="st17" x1="70.3" y1="115.6" x2="89.2" y2="110.3"/>
			<line class="st17" x1="70.3" y1="147.4" x2="89.2" y2="142"/>
			<line class="st17" x1="70.3" y1="154" x2="89.2" y2="148.7"/>
			<line class="st17" x1="70.3" y1="123.5" x2="95.5" y2="116.4"/>
			<line class="st17" x1="70.3" y1="131" x2="85.7" y2="126.7"/>
		</g>
		<g>
			
				<ellipse transform="matrix(0.651 -0.7591 0.7591 0.651 -31.6706 127.5083)" class="st17" cx="122.8" cy="98.2" rx="2.3" ry="1.7"/>
			
				<ellipse transform="matrix(0.651 -0.7591 0.7591 0.651 -27.026 143.5113)" class="st17" cx="142.6" cy="101.1" rx="2.2" ry="1.6"/>
			
				<ellipse transform="matrix(0.651 -0.7591 0.7591 0.651 11.8533 163.2082)" class="st17" cx="183.4" cy="68.7" rx="2.2" ry="1.6"/>
			<line class="st18" x1="128.3" y1="98.2" x2="137" y2="100.1"/>
			<line class="st18" x1="147.4" y1="97.3" x2="177.6" y2="72.5"/>
		</g>
		<g>
			<path class="st7" d="M247.8,175.4c-0.1,0.1-0.3,0.2-0.5,0.3l-5.7,1.8l-100.3,31.6c-2.2,0.7-4.7,0.4-6.7-0.8L94,183.1l-6.6-4.1
				c-0.1,0-0.1-0.1-0.2-0.2c-0.6-0.6-0.4-1.6,0.5-1.8L198,144.3l49.6,28.7C248.6,173.5,248.6,174.8,247.8,175.4z"/>
			<path class="st7" d="M160.9,191.4l46.8-14.4l11.4,6.6c0.2,0.1,0.2,0.4,0,0.6c0,0-0.1,0-0.1,0.1l-1.3,0.4l-44.4,14.2
				c-0.5,0.2-1.1,0.1-1.5-0.2l-9.4-5.8l-1.5-0.9"/>
			<g>
				<line class="st4" x1="103.7" y1="172.2" x2="156.9" y2="204.2"/>
				<line class="st4" x1="182.6" y1="149" x2="234" y2="179.9"/>
				<line class="st4" x1="119.9" y1="167.4" x2="172.6" y2="198.9"/>
				<line class="st4" x1="137.3" y1="162.3" x2="177.3" y2="186.4"/>
				<line class="st4" x1="154.4" y1="157.4" x2="193.4" y2="181"/>
				<line class="st4" x1="168.2" y1="153.3" x2="207.4" y2="176.9"/>
			</g>
			<line class="st4" x1="99.7" y1="186.6" x2="210.9" y2="152"/>
			<line class="st4" x1="112.9" y1="194.8" x2="225.6" y2="160.2"/>
			<line class="st4" x1="125.6" y1="202.6" x2="238.1" y2="167.4"/>
		</g>
	</g>
	<g>
		<g>
			<path class="st15" d="M121.2,231.3c0,0.6-0.4,1.2-1.1,1.4l-7.3,2.2l-33.4,10c-1.6,0.5-3.3,0.2-4.7-0.6l-44.5-27.4l-7.7-4.7
				c-0.5-0.3-0.7-0.8-0.7-1.3c0-0.6,0.4-1.2,1.1-1.4l41.3-12.3c1.2-0.4,2.5-0.2,3.6,0.5l52.8,32.4
				C121,230.4,121.2,230.8,121.2,231.3z"/>
			<path class="st8" d="M121.2,231.3v9.6c0,0.6-0.4,1.2-1.1,1.4l-40.8,12.2c-1.6,0.5-3.3,0.2-4.7-0.6l-52.2-32.1
				c-0.5-0.3-0.7-0.8-0.7-1.3v-9.6c0,0.5,0.2,1,0.7,1.3l7.7,4.7l44.5,27.4c1.4,0.9,3.1,1.1,4.7,0.6l33.4-10l7.3-2.2
				C120.9,232.6,121.2,231.9,121.2,231.3z"/>
		</g>
		<path class="st7" d="M76.8,209c0,0.5-0.3,0.9-0.8,1.1l-5.4,1.6L46.1,219c-1.2,0.3-2.4,0.2-3.5-0.5l-2.1-1.3l-5.7-3.5
			c-0.4-0.2-0.5-0.6-0.5-0.9c0-0.5,0.3-0.9,0.8-1.1l30.4-9.2c0.9-0.3,1.9-0.1,2.6,0.3l8.2,5C76.7,208.2,76.8,208.6,76.8,209z"/>
		<g>
			<path class="st2" d="M61,222.7l-5.4,1.6c-0.6,0.2-1.3,0.1-2-0.2l-2.8-1.5c-0.6-0.3-0.5-1.1,0.1-1.3l5.4-1.7
				c0.7-0.2,1.4-0.1,2,0.2l2.9,1.5C61.7,221.7,61.6,222.5,61,222.7z"/>
			<path class="st2" d="M73.3,218.9l-5.4,1.6c-0.6,0.2-1.3,0.1-2-0.2l-2.8-1.5c-0.6-0.3-0.5-1.1,0.1-1.3l5.4-1.7
				c0.7-0.2,1.4-0.1,2,0.2l2.9,1.5C74,217.9,74,218.7,73.3,218.9z"/>
			<path class="st2" d="M84.9,215.1l-5.4,1.6c-0.6,0.2-1.3,0.1-2-0.2l-2.8-1.5c-0.6-0.3-0.5-1.1,0.1-1.3l5.4-1.7
				c0.7-0.2,1.4-0.1,2,0.2l2.9,1.5C85.6,214,85.5,214.9,84.9,215.1z"/>
			<path class="st2" d="M69.5,227.7l-5.4,1.6c-0.6,0.2-1.3,0.1-2-0.2l-2.8-1.5c-0.6-0.3-0.5-1.1,0.1-1.3l5.4-1.7
				c0.7-0.2,1.4-0.1,2,0.2l2.9,1.5C70.2,226.7,70.1,227.5,69.5,227.7z"/>
			<path class="st2" d="M81.9,223.9l-5.4,1.6c-0.6,0.2-1.3,0.1-2-0.2l-2.8-1.5c-0.6-0.3-0.5-1.1,0.1-1.3l5.4-1.7
				c0.7-0.2,1.4-0.1,2,0.2l2.9,1.5C82.6,222.9,82.5,223.7,81.9,223.9z"/>
			<path class="st2" d="M94.5,220l-5.4,1.6c-0.6,0.2-1.3,0.1-2-0.2l-2.8-1.5c-0.6-0.3-0.5-1.1,0.1-1.3l5.4-1.7
				c0.7-0.2,1.4-0.1,2,0.2l2.9,1.5C95.1,219,95.1,219.8,94.5,220z"/>
			<path class="st2" d="M78.3,232.7l-5.4,1.6c-0.6,0.2-1.3,0.1-2-0.2l-2.8-1.5c-0.6-0.3-0.5-1.1,0.1-1.3l5.4-1.7
				c0.7-0.2,1.4-0.1,2,0.2l2.9,1.5C79,231.7,79,232.5,78.3,232.7z"/>
			<path class="st6" d="M112.3,231l-30.8,9c-0.6,0.2-1.3,0.1-2-0.2l-2.8-1.5c-0.6-0.3-0.5-1.1,0.1-1.3l30.7-9.1
				c0.7-0.2,1.4-0.1,2,0.2l2.9,1.5C113,230,112.9,230.8,112.3,231z"/>
			<path class="st2" d="M90.5,228.9l-5.4,1.6c-0.6,0.2-1.3,0.1-2-0.2l-2.8-1.5c-0.6-0.3-0.5-1.1,0.1-1.3l5.4-1.7
				c0.7-0.2,1.4-0.1,2,0.2l2.9,1.5C91.2,227.9,91.1,228.7,90.5,228.9z"/>
			<path class="st2" d="M103.3,225.1l-5.4,1.6c-0.6,0.2-1.3,0.1-2-0.2l-2.8-1.5c-0.6-0.3-0.5-1.1,0.1-1.3l5.4-1.7
				c0.7-0.2,1.4-0.1,2,0.2l2.9,1.5C104,224.1,104,224.9,103.3,225.1z"/>
		</g>
	</g>
</g>
</svg>
