<?xml version="1.0" encoding="UTF-8"?>
<svg id="Laptop" xmlns="http://www.w3.org/2000/svg" viewBox="0 0 380.44 288.44">
  <defs>
    <style>
      .cls-1 {
        fill: #3fc6ff;
      }

      .cls-1, .cls-2, .cls-3, .cls-4, .cls-5, .cls-6, .cls-7, .cls-8, .cls-9 {
        stroke: #0032b8;
        stroke-width: 2px;
      }

      .cls-1, .cls-7 {
        stroke-miterlimit: 10;
      }

      .cls-2 {
        fill: #0362e1;
      }

      .cls-2, .cls-3, .cls-4, .cls-5, .cls-6, .cls-8, .cls-9 {
        stroke-linejoin: round;
      }

      .cls-2, .cls-3, .cls-5, .cls-6, .cls-8 {
        stroke-linecap: round;
      }

      .cls-3 {
        fill: #0387ff;
      }

      .cls-4, .cls-7 {
        fill: #fff;
      }

      .cls-5 {
        fill: none;
      }

      .cls-6 {
        fill: #96e1fe;
      }

      .cls-8 {
        fill: #139bff;
      }

      .cls-9 {
        fill: #59abff;
      }
    </style>
  </defs>
  <g id="Paper">
    <g>
      <polygon class="cls-9" points="293.09 198.42 217.6 156.85 217.6 85.08 293.09 126.65 293.09 198.42"/>
      <polygon class="cls-4" points="293.09 127.04 217.6 85.08 288.6 63.66 363.94 105.1 293.09 127.04"/>
      <polygon class="cls-6" points="293.09 198.42 363.94 176.87 363.94 105.1 293.09 126.65 293.09 198.42"/>
    </g>
    <polygon class="cls-8" points="315.79 86.48 263.29 100.82 237.46 87.4 288.7 72.14 315.79 86.48"/>
    <g>
      <g>
        <line class="cls-5" x1="273.33" y1="106.28" x2="315.14" y2="94.33"/>
        <line class="cls-5" x1="285.21" y1="113" x2="317" y2="103.91"/>
        <line class="cls-5" x1="291.74" y1="116.71" x2="323.54" y2="107.62"/>
        <line class="cls-5" x1="279.21" y1="109.39" x2="330.16" y2="95.09"/>
      </g>
      <g>
        <line class="cls-5" x1="293.71" y1="135.28" x2="344.65" y2="119.71"/>
        <line class="cls-5" x1="293.71" y1="190.35" x2="344.65" y2="174.77"/>
        <line class="cls-5" x1="293.71" y1="158" x2="329.5" y2="147.06"/>
        <line class="cls-5" x1="293.71" y1="180.37" x2="329.5" y2="169.43"/>
        <line class="cls-5" x1="293.71" y1="161.97" x2="317.21" y2="154.78"/>
        <line class="cls-5" x1="340.44" y1="169.65" x2="363.94" y2="162.47"/>
        <line class="cls-5" x1="329.42" y1="135.63" x2="363.94" y2="125.08"/>
      </g>
      <g>
        <line class="cls-5" x1="217.6" y1="90.37" x2="260.51" y2="114.29"/>
        <line class="cls-5" x1="217.6" y1="96.7" x2="242.72" y2="110.7"/>
        <line class="cls-5" x1="217.6" y1="124.32" x2="239.06" y2="136.28"/>
        <line class="cls-5" x1="217.6" y1="141.81" x2="239.06" y2="153.76"/>
        <line class="cls-5" x1="267.98" y1="143.83" x2="293.09" y2="157.83"/>
        <line class="cls-5" x1="246.25" y1="164.42" x2="293.09" y2="190.53"/>
        <line class="cls-5" x1="250.19" y1="127.84" x2="293.09" y2="151.76"/>
        <line class="cls-5" x1="217.6" y1="137.22" x2="260.51" y2="161.14"/>
      </g>
    </g>
  </g>
  <g id="Laptop-2" data-name="Laptop">
    <g>
      <path class="cls-3" d="M202.63,42.6c-.26,0-5.54,6.22-2.33,4.23h-2.38S56.74,88.76,56.74,88.76c-1,.29-1.69,1.21-1.69,2.25v97.78c0,.47.14,1.99.37,2.34l-8.67-5.49-1.33-.96c-.26-.36-.4-.8-.4-1.3v-98.79c0-1.05.69-2.72,1.69-3.03l148.18-44.01c.42-.13.86-.13,1.24-.03l1.47,1.09,5.03,3.98Z"/>
      <path class="cls-8" d="M193.22,44.01v90.76c0,1.03-.69,1.95-1.69,2.25l-141.18,41.93v-90.76c0-1.03.69-1.95,1.69-2.25l141.18-41.93Z"/>
      <path class="cls-8" d="M203.24,44.18v97.77c0,1.05-.69,1.97-1.69,2.26l-148.19,44.01c-.41.13-.83.13-1.21.04-.59-.14-1.11-.51-1.43-1.03-.23-.36-.37-.78-.37-1.25v-97.78c0-1.03.69-1.95,1.69-2.25l141.18-41.93,7.01-2.08c.26-.08.52-.1.78-.1.95.04,1.78.66,2.09,1.56.09.24.14.51.14.79Z"/>
    </g>
    <path class="cls-4" d="M196.43,55.09v79.86c0,.86-.63,1.63-1.54,1.89l-134.98,39.98c-.37.12-.76.13-1.11.06-.54-.1-1.01-.39-1.3-.81-.21-.29-.34-.63-.34-1.01v-79.87c0-.84.63-1.61,1.54-1.88l128.6-38.09,6.39-1.89c.23-.07.48-.1.71-.1.86,0,1.62.49,1.91,1.22.08.2.13.41.13.64Z"/>
    <g>
      <path class="cls-8" d="M262.25,188.09l-135.69,42.76c-3.03.96-6.33.54-9.04-1.14l-55.03-34.1,140.76-41.69,59.01,34.16Z"/>
      <path class="cls-1" d="M270.6,185.32c-.19.15-.42.27-.68.36l-7.68,2.41-135.69,42.76c-3.03.96-6.33.54-9.04-1.14l-55.03-34.1-8.93-5.53c-.1-.06-.19-.14-.27-.22-.78-.77-.49-2.17.64-2.49l149.32-44.23,67.09,38.84c1.28.74,1.3,2.48.27,3.33Z"/>
      <path class="cls-2" d="M271.28,185.01v10.78c-.19.15-.42.27-.68.36l-144.04,45.48c-3.03.96-6.33.55-9.04-1.14l-63.96-39.63c-.1-.06-.19-.13-.27-.22v-10.78c.08.08.17.15.27.22l8.93,5.53,55.03,34.1c2.71,1.67,6.02,2.09,9.04,1.14l135.69-42.76,8.35-2.72c.26-.09.49-.2.68-.36Z"/>
    </g>
    <polyline class="cls-9" points="184.84 108.15 184.84 125.97 171.22 130.04 171.22 108.15"/>
    <polyline class="cls-9" points="163.71 121.22 163.71 132.19 150.09 136.26 150.09 121.59"/>
    <polyline class="cls-9" points="144.27 126.65 144.27 137.58 130.64 141.65 130.64 126.67"/>
    <polyline class="cls-9" points="124.26 130.94 124.26 143.57 110.64 147.64 110.64 130.94"/>
    <g>
      <path class="cls-6" d="M242.59,183.59c-.14.11-.31.2-.5.26l-5.67,1.78-100.32,31.61c-2.24.71-4.68.4-6.69-.84l-40.69-25.21-6.6-4.09c-.08-.05-.14-.1-.2-.16-.58-.57-.36-1.61.47-1.84l110.39-32.7,49.6,28.71c.94.55.96,1.83.2,2.46Z"/>
      <path class="cls-6" d="M155.66,199.59l46.79-14.44,11.4,6.6c.22.13.22.42.05.57-.03.03-.07.05-.12.06l-1.3.41-44.41,14.17c-.51.16-1.08.09-1.54-.19l-9.35-5.8-1.52-.94"/>
      <g>
        <line class="cls-5" x1="98.49" y1="180.34" x2="151.64" y2="212.35"/>
        <line class="cls-5" x1="177.39" y1="157.11" x2="228.75" y2="188.05"/>
        <line class="cls-5" x1="114.68" y1="175.54" x2="167.3" y2="207.05"/>
        <line class="cls-5" x1="132.01" y1="170.41" x2="172.06" y2="194.53"/>
        <line class="cls-5" x1="149.17" y1="165.56" x2="188.17" y2="189.16"/>
        <line class="cls-5" x1="162.97" y1="161.42" x2="202.14" y2="185.01"/>
      </g>
      <line class="cls-5" x1="94.44" y1="194.74" x2="205.64" y2="160.12"/>
      <line class="cls-5" x1="107.7" y1="202.95" x2="220.31" y2="168.34"/>
      <line class="cls-5" x1="120.36" y1="210.76" x2="232.9" y2="175.56"/>
    </g>
  </g>
  <g id="calc">
    <g>
      <path class="cls-8" d="M115.98,239.48c0,.61-.38,1.22-1.07,1.43l-7.34,2.19-33.41,9.97c-1.59.47-3.31.25-4.73-.62l-44.52-27.37-7.7-4.73c-.48-.3-.71-.78-.71-1.27,0-.62.37-1.23,1.07-1.44l41.34-12.33c1.21-.37,2.52-.19,3.6.47l52.75,32.42c.48.3.72.79.72,1.28Z"/>
      <path class="cls-2" d="M115.98,239.48v9.63c0,.61-.38,1.22-1.07,1.43l-40.75,12.16c-1.59.47-3.31.25-4.73-.62l-52.22-32.1c-.48-.3-.71-.78-.71-1.27v-9.63c0,.49.23.97.71,1.27l7.7,4.73,44.52,27.37c1.42.87,3.14,1.09,4.73.62l33.41-9.97,7.34-2.19c.69-.21,1.07-.82,1.07-1.43Z"/>
    </g>
    <path class="cls-6" d="M71.59,217.1c0,.45-.28.91-.79,1.06l-5.39,1.63-24.53,7.4c-1.17.35-2.43.19-3.47-.46l-2.12-1.26-5.65-3.51c-.35-.22-.52-.58-.52-.94,0-.46.27-.91.79-1.07l30.36-9.15c.89-.27,1.85-.14,2.64.35l8.16,5.01c.35.22.53.59.53.95Z"/>
    <g>
      <path class="cls-7" d="M55.76,230.85l-5.43,1.64c-.65.2-1.35.13-1.95-.18l-2.85-1.47c-.57-.29-.5-1.13.12-1.32l5.38-1.67c.66-.2,1.37-.14,1.98.18l2.87,1.5c.57.3.49,1.14-.12,1.32Z"/>
      <path class="cls-7" d="M68.1,227.05l-5.43,1.64c-.65.2-1.35.13-1.95-.18l-2.85-1.47c-.57-.29-.5-1.13.12-1.32l5.38-1.67c.66-.2,1.37-.14,1.98.18l2.87,1.5c.57.3.49,1.14-.12,1.32Z"/>
      <path class="cls-7" d="M79.65,223.21l-5.43,1.64c-.65.2-1.35.13-1.95-.18l-2.85-1.47c-.57-.29-.5-1.13.12-1.32l5.38-1.67c.66-.2,1.37-.14,1.98.18l2.87,1.5c.57.3.49,1.14-.12,1.32Z"/>
      <path class="cls-7" d="M64.28,235.86l-5.43,1.64c-.65.2-1.35.13-1.95-.18l-2.85-1.47c-.57-.29-.5-1.13.12-1.32l5.38-1.67c.66-.2,1.37-.14,1.98.18l2.87,1.5c.57.3.49,1.14-.12,1.32Z"/>
      <path class="cls-7" d="M76.61,232.05l-5.43,1.64c-.65.2-1.35.13-1.95-.18l-2.85-1.47c-.57-.29-.5-1.13.12-1.32l5.38-1.67c.66-.2,1.37-.14,1.98.18l2.87,1.5c.57.3.49,1.14-.12,1.32Z"/>
      <path class="cls-7" d="M89.21,228.17l-5.43,1.64c-.65.2-1.35.13-1.95-.18l-2.85-1.47c-.57-.29-.5-1.13.12-1.32l5.38-1.67c.66-.2,1.37-.14,1.98.18l2.87,1.5c.57.3.49,1.14-.12,1.32Z"/>
      <path class="cls-7" d="M73.09,240.87l-5.43,1.64c-.65.2-1.35.13-1.95-.18l-2.85-1.47c-.57-.29-.5-1.13.12-1.32l5.38-1.67c.66-.2,1.37-.14,1.98.18l2.87,1.5c.57.3.49,1.14-.12,1.32Z"/>
      <path class="cls-1" d="M107.06,239.17l-30.76,9.04c-.65.2-1.35.13-1.95-.18l-2.85-1.47c-.57-.29-.5-1.13.12-1.32l30.71-9.07c.66-.2,1.37-.14,1.98.18l2.87,1.5c.57.3.49,1.14-.12,1.32Z"/>
      <path class="cls-7" d="M85.21,237.06l-5.43,1.64c-.65.2-1.35.13-1.95-.18l-2.85-1.47c-.57-.29-.5-1.13.12-1.32l5.38-1.67c.66-.2,1.37-.14,1.98.18l2.87,1.5c.57.3.49,1.14-.12,1.32Z"/>
      <path class="cls-7" d="M98.09,233.23l-5.43,1.64c-.65.2-1.35.13-1.95-.18l-2.85-1.47c-.57-.29-.5-1.13.12-1.32l5.38-1.67c.66-.2,1.37-.14,1.98.18l2.87,1.5c.57.3.49,1.14-.12,1.32Z"/>
    </g>
  </g>
</svg>