<?xml version="1.0" encoding="utf-8"?>
<!-- Generator: Adobe Illustrator 28.1.0, SVG Export Plug-In . SVG Version: 6.00 Build 0)  -->
<svg version="1.1" xmlns="http://www.w3.org/2000/svg" xmlns:xlink="http://www.w3.org/1999/xlink" x="0px" y="0px"
	 viewBox="0 0 500 250" style="enable-background:new 0 0 500 250;" xml:space="preserve">
<style type="text/css">
	.st0{display:none;}
	.st1{display:inline;fill:#FFFFFF;}
	.st2{display:inline;}
	.st3{fill:#FFFFFF;}
	.st4{opacity:0.79;fill:#FFFFFF;}
	.st5{display:inline;opacity:0.71;}
	.st6{display:inline;opacity:0.69;}
	.st7{display:inline;opacity:0.61;}
	.st8{display:inline;opacity:0.64;}
	.st9{display:inline;opacity:0.75;}
	.st10{display:inline;opacity:0.5;}
	.st11{display:inline;opacity:0.74;}
	.st12{display:inline;stroke:#FFFFFF;stroke-miterlimit:10;}
	.st13{fill:#FFFFFF;stroke:#FFFFFF;stroke-miterlimit:10;}
	.st14{fill:none;stroke:#FFFFFF;stroke-width:7;stroke-miterlimit:10;}
</style>
<g id="visa" class="st0">
	<path class="st1" d="M11-313c0,0,64.1,0,71.6,0S94-311,97-295s15,70,15,70l37-88h40l-59,132H90L59-293C59-293,27-311,11-313z"/>
	<polygon class="st1" points="202.2,-313 238.3,-313 216.1,-181 177.9,-181 	"/>
	<path class="st1" d="M342-283l6-29c0,0-82-26-96,35c-4,21,21,35,21,35s40.8,21.6,25,29s-27,8-56-4c-5,27-5,31-5,31s81,28,103-27
		c17-43-51-53-50-63C292-295,321-293,342-283z"/>
	<path class="st1" d="M438-313c0,0-15,0-30.5,0c-15.5,0-16.5,9-16.5,9l-55.5,123h40.9l7.6-22h45l4.9,22H469L438-313z M394-226l19-50
		l10.4,50H394z"/>
</g>
<g id="mastercard-l" class="st0">
	<g class="st2">
		<path class="st3" d="M147,143c12,5,12.4-9,12.4-9S142,136,147,143z M147,143c12,5,12.4-9,12.4-9S142,136,147,143z M147,143
			c12,5,12.4-9,12.4-9S142,136,147,143z M147,143c12,5,12.4-9,12.4-9S142,136,147,143z M147,143c12,5,12.4-9,12.4-9S142,136,147,143
			z M147,143c12,5,12.4-9,12.4-9S142,136,147,143z M147,143c12,5,12.4-9,12.4-9S142,136,147,143z M238.5,121.2
			c-7.5,0-6.5,7.8-6.5,7.8h13C245,129,246,121.2,238.5,121.2z M238.5,121.2c-7.5,0-6.5,7.8-6.5,7.8h13
			C245,129,246,121.2,238.5,121.2z M147,143c12,5,12.4-9,12.4-9S142,136,147,143z M284.4,113.4c-2.9-26.5-15.6-50.1-34.4-67.1
			c-18.8-17-43.7-27.3-71-27.3C120.5,19,73,66.5,73,125c0,58.5,47.5,106,106,106c27.3,0,52.2-10.3,71-27.3
			c16.8-15.2,28.8-35.8,33.2-59c-4.8-6.2-6.5-16.1,0.8-30.7L284.4,113.4z M120.9,152l4.1-31l-12.7,31h-10.7l-4.1-33l-5.3,33H83l8-47
			h17.2l1.8,28l11.2-28H139l-8.6,47H120.9z M158,152v-2.5c0,0-26,10.5-22-9.5c3-16,25-12,25-12s3-10-18-5c0-5,2-9,2-9s27-4,26,7
			s-4.2,31-4.2,31H158z M200,141c-2,8-9,15-30,10c1-8,1-8,1-8s21,4,16-3s-16-6-13-17s13.4-9.7,13.4-9.7h13.6L200,122c0,0-14-3-14,2
			C186,132,203,128,200,141z M210,153c-8,1-8.9-7.2-8.9-7.2L208,106h10.4l-1.3,7.3h5L221,122h-6c0,0-0.8,6-3,16
			c-1.3,6,2.3,6.7,4.8,6.4c1.2-0.1,2.2-0.4,2.2-0.4l-1,6c0,0,0,0,0,0v0C217.9,150.4,217.2,152.1,210,153z M253,135c-14,0-22,0-22,0
			s-2.7,10.2,10.7,9.1c7.6-0.6,9.9-1.2,10.5-1.6c0.4,1.9,1.1,8.7-9.1,9.5c-11.9,1-23.3-1.4-22.7-19.2C221,115,234.8,112.2,239,112
			S260,118,253,135z M278,124c0,0-10-3-12,12s-2,16.7-2,16.7h-10.4L259,114h11v5c0,0,5-7,11-6C280.7,115.7,278,124,278,124z
			 M238.5,121.2c-7.5,0-6.5,7.8-6.5,7.8h13C245,129,246,121.2,238.5,121.2z M147,143c12,5,12.4-9,12.4-9S142,136,147,143z M147,143
			c12,5,12.4-9,12.4-9S142,136,147,143z M238.5,121.2c-7.5,0-6.5,7.8-6.5,7.8h13C245,129,246,121.2,238.5,121.2z M238.5,121.2
			c-7.5,0-6.5,7.8-6.5,7.8h13C245,129,246,121.2,238.5,121.2z M147,143c12,5,12.4-9,12.4-9S142,136,147,143z M147,143
			c12,5,12.4-9,12.4-9S142,136,147,143z M147,143c12,5,12.4-9,12.4-9S142,136,147,143z M147,143c12,5,12.4-9,12.4-9S142,136,147,143
			z M147,143c12,5,12.4-9,12.4-9S142,136,147,143z"/>
		<path class="st4" d="M232,129c0,0-1-7.8,6.5-7.8s6.5,7.8,6.5,7.8H232z"/>
		<path class="st3" d="M324,143c12,5,12.4-9,12.4-9S319,136,324,143z M324,143c12,5,12.4-9,12.4-9S319,136,324,143z M321,19
			c-27.3,0-52.2,10.3-71,27.3c-17,15.4-29,36.2-33.3,59.7h1.7l-1.3,7.3h5L221,122h-6c0,1,0,2,0,3c0,6.6,0.6,13.1,1.8,19.4
			c1.2-0.1,2.2-0.4,2.2-0.4l-1,6c0,0,0,0,0,0v0c5.1,21,16.5,39.6,32,53.6c18.8,17,43.7,27.3,71,27.3c58.5,0,106-47.5,106-106
			C427,66.5,379.5,19,321,19z M266,136c-2,15-2,16.7-2,16.7h-10.4L259,114h11v5c0,0,5-7,11-6c-0.3,2.7-3,11-3,11S268,121,266,136z
			 M243,152c-11.9,1-23.3-1.4-22.7-19.2C221,115,234.8,112.2,239,112s21,6,14,23c-14,0-22,0-22,0s-2.7,10.2,10.7,9.1
			c7.6-0.6,9.9-1.2,10.5-1.6C252.5,144.4,253.2,151.1,243,152z M299.6,152.7c-5.1,0.1-12.1-2.3-16.4-7.9c-4.8-6.2-6.5-16.1,0.8-30.7
			l0.4-0.6c10.2-16.2,32.9-7.4,32.9-7.4l-2.2,9c0,0-21-7-24,12c-4,22,20,14,20,14S313,154,299.6,152.7z M335,152v-2.5
			c0,0-26,10.5-22-9.5c3-16,25-12,25-12s3-10-18-5c0-5,2-9,2-9s27-4,26,7s-4.1,31-4.1,31H335z M360,136c-2,15-2,16.7-2,16.7h-10.4
			L353,114h11v5c0,0,5-7,11-6c-0.3,2.7-3,11-3,11S362,121,360,136z M395.9,152l-3.9-2c0,0-26,11-21-16c9-34,28.9-15,28.9-15l3.1-14
			h9.1l-7.3,47.3L395.9,152z M393,122.7c-3.8-1.3-8.5,2.6-10.5,8.5c-1.9,6-0.4,11.8,3.4,13.1c3.8,1.3,8.5-2.5,10.5-8.5
			C398.4,129.8,396.9,124,393,122.7z M324,143c12,5,12.4-9,12.4-9S319,136,324,143z M324,143c12,5,12.4-9,12.4-9S319,136,324,143z
			 M324,143c12,5,12.4-9,12.4-9S319,136,324,143z"/>
	</g>
</g>
<g id="mastercard-text" class="st0">
	<polygon class="st5" points="-294,96 -302.6,143 -312.1,143 -308,112 -320.7,143 -331.3,143 -335.5,110 -340.8,143 -350,143 
		-342,96 -324.8,96 -323,124 -311.8,96 	"/>
	<path class="st6" d="M-288,105c0,0-2,4-2,9c21-5,18,5,18,5s-22-4-25,12c-4,20,22,9.5,22,9.5v2.5h8.8c0,0,3.2-20,4.2-31
		S-288,105-288,105z M-286,134c-5-7,12.4-9,12.4-9S-274,139-286,134z"/>
	<path class="st6" d="M-111,105c0,0-2,4-2,9c21-5,18,5,18,5s-22-4-25,12c-4,20,22,9.5,22,9.5v2.5h8.8c0,0,3.1-20,4.1-31
		S-111,105-111,105z M-109,134c-5-7,12.4-9,12.4-9S-97,139-109,134z"/>
	<path class="st7" d="M-233,132c-2,8-9,15-30,10c1-8,1-8,1-8s21,4,16-3s-16-6-13-17s13.4-9.7,13.4-9.7h13.6l-1.1,8.7c0,0-14-3-14,2
		C-247,123-230,119-233,132z"/>
	<path class="st8" d="M-215,141L-215,141c-0.1,0.3-0.8,2-8,3c-8,1-8.9-7.2-8.9-7.2L-225,97h8.7c-1,5.2-1.5,10.5-1.7,16h0
		c0,0-0.8,6-3,16c-1.3,6,2.3,6.7,4.8,6.4C-215.9,137.3-215.5,139.2-215,141z"/>
	<path class="st8" d="M-214,135l-1,6c0,0,0,0,0,0c-0.5-1.8-0.9-3.7-1.2-5.6C-215,135.3-214,135-214,135z"/>
	<path class="st8" d="M-210.9,104.3l-1.1,8.7h-6c0.2-5.5,0.7-10.8,1.7-16h1.7l-1.3,7.3H-210.9z"/>
	<path class="st9" d="M-180.9,133.5c-0.1-0.3-0.1-0.5-0.1-0.5S-180.5,133.2-180.9,133.5z"/>
	<path class="st9" d="M-180,126c7-17-9.8-23.2-14-23s-18,3-18.7,20.8c-0.7,17.8,10.8,20.2,22.7,19.2c10.2-0.9,9.5-7.6,9.1-9.5
		c-0.6,0.4-2.8,1-10.5,1.6c-13.3,1.1-10.7-9.1-10.7-9.1S-194,126-180,126z M-194.5,112.2c7.5,0,6.5,7.8,6.5,7.8h-13
		C-201,120-202,112.2-194.5,112.2z"/>
	<path class="st10" d="M-152,104c-0.3,2.7-3,11-3,11s-10-3-12,12s-2,16.7-2,16.7h-10.4l5.4-38.7h11v5C-163,110-158,103-152,104z"/>
	<path class="st10" d="M-58,104c-0.3,2.7-3,11-3,11s-10-3-12,12s-2,16.7-2,16.7h-10.4L-80,105h11v5C-69,110-64,103-58,104z"/>
	<path class="st10" d="M-148,116c0,6.8-0.6,13.3-1.8,19.7c-4.8-6.2-6.5-16.1,0.8-30.7l0.4-0.6C-148.2,108.2-148,112.1-148,116z"/>
	<path class="st10" d="M-142,118c-4,22,20,14,20,14s2,13-11.4,11.7c-5.1,0.1-12.1-2.3-16.4-7.9c1.2-6.4,1.8-13,1.8-19.7
		c0-3.9-0.2-7.8-0.6-11.6c10.2-16.2,32.9-7.4,32.9-7.4l-2.2,9C-118,106-139,99-142,118z"/>
	<path class="st11" d="M-30,96l-3.1,14c0,0-19.9-19-28.9,15c-5,27,21,16,21,16l3.9,2l8.9,0.3l7.3-47.3H-30z M-36.5,126.8
		c-2,6-6.7,9.8-10.5,8.5c-3.9-1.3-5.4-7.1-3.4-13.1c2-5.9,6.7-9.8,10.5-8.5C-36.1,115-34.6,120.8-36.5,126.8z"/>
</g>
<g id="amio_bank" class="st0">
	<g class="st2">
		<path class="st3" d="M94,74H59.6L14,172h28.1l8.9-19h52l9,19h27.9L94,74z M61,131l15.9-33.6l16,33.6H61z"/>
		<polygon class="st3" points="149,74 149,172 178.3,172 178.3,102.7 212,172 236.3,172 269,102 269,172 299,172 299,74 254.6,74 
			224,139.3 193.4,74 		"/>
		<rect x="312.9" y="74" class="st3" width="29" height="98"/>
		<path class="st3" d="M361.2,172L345,191c0,0,66.1,54,141.6,0c0.4,0-16-19-16-19S420.4,215,361.2,172z"/>
		<path class="st3" d="M416,71c-35.3,0-64,23.3-64,52c0,28.7,28.7,52,64,52s64-23.3,64-52C480,94.3,451.3,71,416,71z M416,151
			c-19.3,0-35-12.5-35-28c0-15.5,15.7-28,35-28s35,12.5,35,28C451,138.5,435.3,151,416,151z"/>
	</g>
	<g class="st2">
		<path class="st3" d="M399.9,30h-6.8L384,53.4h5.6l1.8-4.5h10.3l1.8,4.5h5.5L399.9,30z M393.3,43.6l3.2-8l3.2,8H393.3z"/>
		<path class="st3" d="M371,42c5,0,8-12-2.9-12H357v24c0,0,5.9,0,12.4,0C380,54,380,42,371,42z M369.8,48.8c-2.8,0-7.8,0-7.8,0V44
			c0,0,5.6,0,7.8,0C373,44,373,48.8,369.8,48.8z M368.8,39.8c-2.8,0-6.8,0-6.8,0V35c0,0,4.6,0,6.8,0C371,35,371.6,39.8,368.8,39.8z"
			/>
		<polygon class="st3" points="417.7,30 417.7,53.4 422.6,53.4 422.6,39.6 433.7,53.4 438.4,53.4 438.4,30 433.2,30 433.2,44 
			423,30 		"/>
		<polygon class="st3" points="448.9,30 448.9,53.4 454.1,53.4 454.1,46.7 456.9,43.6 464,53.4 470.3,53.4 460.5,39.6 470.3,30 
			463.4,30 454,40 454,30 		"/>
	</g>
</g>
<g id="Слой_7" class="st0">
	<rect x="-0.5" y="-0.5" class="st12" width="500" height="250"/>
</g>
<g id="ardshinbank">
	<path class="st13" d="M8,52.9v145.1h145.1V52.9H8z M146.1,190H15V58.8h131.2V190z"/>
	<polyline class="st14" points="42.4,141.1 95.1,87.3 117.6,87.3 117.6,160.9 57.9,160.9 	"/>
	<polyline class="st14" points="43.5,157.8 101.3,100 104.9,100 104.9,148.1 72,148.1 	"/>
	<g>
		<path class="st13" d="M208.8,143.5h-8.5l-3.4-8.7h-15.4l-3.2,8.7h-8.2l15-38.5h8.2L208.8,143.5z M194.5,128.3l-5.3-14.3l-5.2,14.3
			H194.5z"/>
		<path class="st13" d="M219.6,143.5h-7.4v-27.9h6.9v4c1.2-1.9,2.2-3.1,3.2-3.7c0.9-0.6,2-0.9,3.2-0.9c1.7,0,3.3,0.5,4.9,1.4
			l-2.3,6.4c-1.2-0.8-2.4-1.2-3.5-1.2c-1,0-1.9,0.3-2.6,0.9c-0.7,0.6-1.3,1.6-1.7,3.1s-0.6,4.6-0.6,9.3V143.5z"/>
		<path class="st13" d="M258.6,143.5h-6.9v-4.1c-1.1,1.6-2.5,2.8-4,3.6c-1.5,0.8-3.1,1.2-4.7,1.2c-3.2,0-5.9-1.3-8.2-3.9
			c-2.3-2.6-3.4-6.2-3.4-10.8c0-4.7,1.1-8.3,3.3-10.8c2.2-2.5,5-3.7,8.4-3.7c3.1,0,5.8,1.3,8.1,3.9V105h7.4V143.5z M238.9,128.9
			c0,3,0.4,5.1,1.2,6.5c1.2,1.9,2.9,2.9,5,2.9c1.7,0,3.1-0.7,4.3-2.2c1.2-1.4,1.8-3.6,1.8-6.5c0-3.2-0.6-5.5-1.7-6.9
			s-2.6-2.1-4.4-2.1c-1.8,0-3.2,0.7-4.4,2.1S238.9,126.2,238.9,128.9z"/>
		<path class="st13" d="M262.9,135.5l7.4-1.1c0.3,1.4,1,2.5,1.9,3.3c1,0.7,2.3,1.1,4,1.1c1.9,0,3.3-0.4,4.3-1c0.6-0.5,1-1.1,1-2
			c0-0.6-0.2-1-0.5-1.4c-0.4-0.3-1.2-0.7-2.5-1c-6-1.3-9.7-2.5-11.3-3.6c-2.2-1.5-3.3-3.6-3.3-6.3c0-2.4,1-4.4,2.9-6.1
			s4.9-2.5,8.9-2.5c3.8,0,6.6,0.6,8.5,1.9c1.9,1.2,3.1,3.1,3.8,5.5l-7,1.3c-0.3-1.1-0.9-1.9-1.7-2.5c-0.8-0.6-2-0.9-3.6-0.9
			c-1.9,0-3.3,0.3-4.2,0.8c-0.6,0.4-0.8,0.9-0.8,1.5c0,0.5,0.2,1,0.7,1.3c0.7,0.5,3,1.2,6.9,2.1s6.7,2,8.2,3.3
			c1.5,1.3,2.3,3.1,2.3,5.5c0,2.6-1.1,4.8-3.2,6.6c-2.1,1.8-5.3,2.8-9.5,2.8c-3.8,0-6.8-0.8-9-2.3
			C265,140.3,263.6,138.2,262.9,135.5z"/>
		<path class="st13" d="M302.4,105v14.1c2.4-2.8,5.2-4.2,8.5-4.2c1.7,0,3.2,0.3,4.6,0.9c1.4,0.6,2.4,1.4,3.1,2.4
			c0.7,1,1.2,2.1,1.4,3.3c0.3,1.2,0.4,3,0.4,5.5v16.4H313v-14.7c0-2.9-0.1-4.8-0.4-5.6c-0.3-0.8-0.8-1.4-1.5-1.9
			c-0.7-0.5-1.6-0.7-2.7-0.7c-1.2,0-2.3,0.3-3.3,0.9c-1,0.6-1.7,1.5-2.1,2.7c-0.4,1.2-0.7,3-0.7,5.3v14H295V105H302.4z"/>
		<path class="st13" d="M327.5,111.8V105h7.4v6.8H327.5z M327.5,143.5v-27.9h7.4v27.9H327.5z"/>
		<path class="st13" d="M367.4,143.5H360v-14.2c0-3-0.2-5-0.5-5.8c-0.3-0.9-0.8-1.6-1.5-2.1c-0.7-0.5-1.6-0.7-2.6-0.7
			c-1.3,0-2.4,0.4-3.4,1.1s-1.7,1.6-2.1,2.8s-0.6,3.3-0.6,6.4v12.6H342v-27.9h6.9v4.1c2.4-3.1,5.5-4.7,9.2-4.7
			c1.6,0,3.1,0.3,4.5,0.9c1.3,0.6,2.4,1.3,3.1,2.2s1.2,1.9,1.4,3.1s0.4,2.8,0.4,5V143.5z"/>
		<path class="st13" d="M374.2,143.5V105h7.4v13.9c2.3-2.6,5-3.9,8.1-3.9c3.4,0,6.2,1.2,8.4,3.7c2.2,2.5,3.3,6,3.3,10.6
			c0,4.8-1.1,8.4-3.4,11c-2.3,2.6-5,3.9-8.3,3.9c-1.6,0-3.2-0.4-4.7-1.2s-2.9-2-4-3.5v4.1H374.2z M381.5,128.9c0,2.9,0.5,5,1.4,6.4
			c1.3,2,3,2.9,5.1,2.9c1.6,0,3-0.7,4.2-2.1c1.1-1.4,1.7-3.6,1.7-6.6c0-3.2-0.6-5.5-1.7-6.9c-1.2-1.4-2.6-2.1-4.4-2.1
			c-1.8,0-3.2,0.7-4.4,2.1C382.1,124.1,381.5,126.1,381.5,128.9z"/>
		<path class="st13" d="M412.5,124.1l-6.7-1.2c0.8-2.7,2-4.7,3.9-6c1.8-1.3,4.6-1.9,8.2-1.9c3.3,0,5.7,0.4,7.3,1.2
			c1.6,0.8,2.7,1.8,3.4,3c0.7,1.2,1,3.4,1,6.6l-0.1,8.6c0,2.5,0.1,4.3,0.4,5.4s0.7,2.4,1.3,3.7h-7.3c-0.2-0.5-0.4-1.2-0.7-2.2
			c-0.1-0.4-0.2-0.7-0.3-0.9c-1.3,1.2-2.6,2.1-4,2.8s-3,0.9-4.6,0.9c-2.9,0-5.1-0.8-6.8-2.3c-1.7-1.6-2.5-3.5-2.5-5.9
			c0-1.6,0.4-3,1.1-4.2c0.8-1.2,1.8-2.2,3.2-2.8c1.4-0.7,3.3-1.2,5.9-1.7c3.4-0.6,5.8-1.3,7.2-1.8v-0.7c0-1.4-0.4-2.4-1-3
			c-0.7-0.6-2-0.9-4-0.9c-1.3,0-2.3,0.3-3.1,0.8C413.5,121.9,412.9,122.8,412.5,124.1z M422.4,130.1c-0.9,0.3-2.4,0.7-4.5,1.1
			c-2,0.4-3.4,0.9-4,1.3c-1,0.7-1.4,1.5-1.4,2.6c0,1,0.4,1.9,1.2,2.7c0.8,0.8,1.7,1.1,2.9,1.1c1.3,0,2.6-0.4,3.8-1.3
			c0.9-0.7,1.5-1.5,1.8-2.4c0.2-0.6,0.3-1.8,0.3-3.6V130.1z"/>
		<path class="st13" d="M461.9,143.5h-7.4v-14.2c0-3-0.2-5-0.5-5.8c-0.3-0.9-0.8-1.6-1.5-2.1c-0.7-0.5-1.6-0.7-2.6-0.7
			c-1.3,0-2.4,0.4-3.4,1.1s-1.7,1.6-2.1,2.8s-0.6,3.3-0.6,6.4v12.6h-7.4v-27.9h6.9v4.1c2.4-3.1,5.5-4.7,9.2-4.7
			c1.6,0,3.1,0.3,4.5,0.9c1.3,0.6,2.4,1.3,3.1,2.2s1.2,1.9,1.4,3.1s0.4,2.8,0.4,5V143.5z"/>
		<path class="st13" d="M468.7,143.5V105h7.4v20.4l8.6-9.8h9.1l-9.5,10.2l10.2,17.7h-8l-7-12.5l-3.4,3.6v8.9H468.7z"/>
	</g>
	<g>
	</g>
	<g>
	</g>
	<g>
	</g>
	<g>
	</g>
	<g>
	</g>
	<g>
	</g>
	<g>
	</g>
	<g>
	</g>
	<g>
	</g>
	<g>
	</g>
	<g>
	</g>
	<g>
	</g>
	<g>
	</g>
	<g>
	</g>
	<g>
	</g>
</g>
</svg>
