<?xml version="1.0" encoding="UTF-8"?>
<svg id="Bank_Card" data-name="Bank Card" xmlns="http://www.w3.org/2000/svg" xmlns:xlink="http://www.w3.org/1999/xlink" viewBox="0 0 380.44 288.44">
  <defs>
    <style>
      .cls-1 {
        fill: #135aff;
      }

      .cls-1, .cls-2 {
        stroke: #0032b8;
        stroke-linecap: round;
        stroke-linejoin: round;
        stroke-width: 2px;
      }

      .cls-3 {
        filter: url(#drop-shadow-1);
      }

      .cls-2 {
        fill: #139bff;
      }
    </style>
    <filter id="drop-shadow-1" filterUnits="userSpaceOnUse">
      <feOffset dx="5" dy="5"/>
      <feGaussianBlur result="blur" stdDeviation="10"/>
      <feFlood flood-color="#3668cc" flood-opacity=".7"/>
      <feComposite in2="blur" operator="in"/>
      <feComposite in="SourceGraphic"/>
    </filter>
  </defs>
  <g id="Earth" class="cls-3">
    <path class="cls-1" d="M204.05,43.38c1.55-.67,3.12-1.3,4.71-1.88,0,0-.65,3.77-1.98,4.66-1.34.88-4.67,3.55-7.34,3.55s-1.11-1.55-1.11-1.55c0,0,2-1.56,3.78-1.56.75,0,1.42-1.49,1.94-3.22Z"/>
    <path class="cls-1" d="M208.76,41.5c3.26-1.19,6.6-2.21,10.02-3.02,0,0,.89,3.01,0,4.34-.89,1.34-2,1.34-4.22,1.34s0,0-1.78-1.56l-1.34.44-2.68-1.54Z"/>
    <path class="cls-1" d="M325.8,97.71c-.76-2.25-1.6-4.47-2.54-6.64-1.94.48-3.58.85-3.58.85,0,0-3.11-1.11-5.56-1.33-2.44-.22,0,2,.22,6.22.23,4.22,2.67,5.34,4.89,8.67,2.22,3.33,2.22,5.33,2.67,7.33.44,2-1.11,2.22-2.89,5-1.78,2.77-5.11,1.22-19.11,3.67-14,2.44-13.56-.45-23.33-.44-9.78,0-5.12-1.34-11.34-1.78-6.22-.45-7.55-.89-16.89-2.45-9.33-1.55-8-1.55-9.77-2.89-1.78-1.33-2.67-3.33-4.23-7.33-1.55-4,2.45-2.89,4.67-3.56,2.22-.66,3.33-1.11,6.22-1.87,2.89-.76,2.67-2.13,5.34-3.46,2.67-1.33,4-.67,5.77-.67s1.56.67,1.91,2.97c.34,2.3,2.54.59,5.87,0s3.11-.74,5.78-1.41c2.67-.67,3.55-.22,7.11-1.56,3.56-1.33,4-1.11,5.78-2,1.78-.88,2-1.33,3.55-2.66,1.56-1.34.23-1.34-.22-2.89-.44-1.56-1.78-2-3.33-2.89-1.56-.89-1.11.22-4.22,1.4-3.12,1.18-2,.38-2.45-1.4-.44-1.78.45-2.44,1.56-4s.22-1.33,1.55-3.78c1.34-2.44,1.78-.66,4.45-1.11,2.66-.44,2.89-.22,6-1.11,3.11-.89,1.55-1.56,1.33-3.11-.22-1.56-2.67-2.67-6.89-3.33-4.22-.67-6.67.44-10.67,2-4,1.55-1.33,2.44-.88,5.33.44,2.89.88,2.89,1.77,6.67.89,3.77,0,1.77,0,3.84s-2.66-.29-4.44-1.18c-1.78-.89-1.11-1.55-2.46-4-1.36-2.44-2.87-2.44-5.54-3.11-2.67-.67,3.11,2.67,4,4.45.89,1.77,2,4.66,1.33,5.11-.66.44-1.78-.23-2.44-2.23-.67-2-4.45-2-6.67-3.33-2.22-1.33-4.22-.44-5.55.22-1.34.67-3.34,1.56-5.78,2.89-2.45,1.34-1.11,3.34-1.78,4.89-.67,1.56-1.11,4.22-1.91,6.89-.8,2.67-3.65.89-6.76,0-3.11-.89-1.55-4.67-1.55-7.33s1.11-3.11,2-5.34c.89-2.22,2,0,3.13,0s1.76-.22,3.18-1.77c1.42-1.56.8-1.34,0-2.23-.8-.89-1.42,0-3.18,0s-3.58-.22-4.24-2c-.67-1.77-2-1.33-2-1.33,0,0-.67,1.11-.89,3.11-.22,2-1.56.22-2.67,0-1.11-.22,0-1.55.67-3.55.66-2,0,0-2.09-.45-2.08-.44-3.02-1.78-3.69-3.78-.67-2,1.78-.22,3.56-1.11,1.77-.89,0,0,1.55-1.55s2-1.56,2.68-2.45c.67-.89,3.54,1.34,3.54,1.34h-1.77s.44,2.44,2,3.77c1.55,1.34,1.11,1.34,3.35,1.56,2.24.22.65-1.11,0-2.67-.09-.22,3.09.22,5.98-.89,2.89-1.11,1.11-1.11,1.15-1.77.04-.67,1.52,0,2.4,0s2-.45,3.34-1.78c1.33-1.34,0,0-2.22-2.6-2.22-2.6.88-1.18,2-2.51,1.11-1.34-.23-1.56-.23-1.56,0,0-1.33.89-2.66,2-1.34,1.11-1.78-.44-2.63-1.78-.85-1.33,1.29-2.44,0-3.55-1.3-1.11-1.37.66-3.82,2-2.44,1.33.22,1.78,1.56,2.89,1.33,1.11.89,1.55,2.26,2.51,1.37.96.85,1.04-.48,3.26-1.34,2.23-2.89-.44-2.89-.44l-.45-.63c-.44-.63-1.33-.7-3.31-1.37-1.98-.67-2.02-.22-3.58-1.78s-.44-1.78,0-2.66c.45-.89.89-1.34,1.11-2.89.23-1.56,0-1.78.67-3.11.67-1.34,1.56-.67,2.67-1.21s2.22.54,4,0c1.78-.54,1.33-.79,2.26-1.91.93-1.11.63-1.55,1.74-2.66s1.78-.22,1.78-.22c0,0,.44,2.66,1.55,4.22,1.11,1.55,3.78-.45,4.45-1.56.66-1.11-1.34-.66-2.89-2-1.56-1.33-.67-2.89-.67-2.89,0,0,2.22.67,6.44,0,4.23-.66,0,0-.88-.83-.89-.83-2-.28-3.34-.15-1.33.13-2.22.32-3.78-.13-1.55-.44-1.77.45-3.55,0-1.78-.44-1.33-1.33-1.33-1.33,0,0,2-1.11,3.11-1.78s0,0-.89-.44c-.89-.45-2.89,0-2.89,0,0,0-.45-2.23-1.11-3.56-.67-1.33-1.56,0-1.56,0,0,0-5.11-1.55-5.78-1.55s-4.46-1.88-4.65-1.88c-4.79.37-9.47,1.11-14.01,2.2l4,2.12s.66.44,0,1.11c-.67.67.66,1.11,2,1.33,1.33.23,2.44.89,2.44.89,0,0,2-.66,1.34,1.11-.67,1.78-2.89,2.45-3.56,2.23-.67-.23-2-1.11-2-1.11,0,0-.89-.89-1.78,0-.89.88,1.56.66-.89.88-2.44.23-2-.88-3.55-.88s-6,1.33-6,1.33c0,0-.45,2.44,1.33,2.22,1.78-.22,2.45-.64,3.11.02.67.65,1.34.65,1.56,2.65.22,2-.67,3.11-1.11,5.11-.45,2-.67,5.55-.67,5.55,0,0-9.56,2.23-9.56,4.67s-4,3.78-4.88,4.22c-.89.45-2.91,3.34-2.68,0,.23-3.33.9-8.89,1.34-10,.45-1.11,3.11-2.89,3.78-4,.67-1.11,2.22-2.89,1.11-3.33s-3.55-.64-4.67,1.24c-1.11,1.87-2.22,2.98-3.55,3.87-1.33.89-2.45,1.78-4,2.45-1.56.66-2.45,1.11-4.22,1.77-1.78.67-4,.89-4.67.67-.67-.22.67-1.56-.67-.22-1.33,1.33-.89,1.11-2.66,3.55-1.78,2.45-2,1.56-4,4.67-2,3.11-2.45,4-2.23,4.67.23.66,1.12,2,1.12,2,0,0,4-1.34,5.55-4,1.56-2.67,1.11-4.45,2.45-5.34,1.33-.89,3.33-1.77,4-1.77s2.22-2.98,2.88-2.38c.67.6,4.23,1.71,2.45,4.38-1.78,2.66-2.89,3.55-2.89,5.55s-.67,2.67.67,4.89c1.33,2.22,2.66,1.11,2.22,3.78-.45,2.66,0,4.44-1.56,4.66-1.55.23-2.44-1.11-3.55-3.11s-.22-3.11-2.45-3.11-3.77.45-5.11,1.34c-1.33.88-4.44.44-1.33,2.88,3.11,2.45,5.33.89,4.44,3.12-.89,2.22,2.89,2.44-4.44,3.55-7.33,1.11-10,1.11-10.89,1.33-.89.23-1.11.23-1.11,2s2.67,1.34,0,4c-2.67,2.67-2.67,2.89-4.45,3.78-1.77.89-2.44-.22-3.77,1.56-1.34,1.78-.89.44-1.34,1.78-.14.41-.19.54-.22.58-.02.04-.07.2-.22.75-.45,1.55-2.22,3.33-2.22,3.33l-3.26-.25c-.09.57-.17,1.15-.25,1.72-.55,4.02-.83,8.12-.83,12.29,0,2.67.12,5.32.35,7.94,1.51-1.55,3.45-3.3,6.43-4.81.82-.41,4.14-2.04,5.33-.89.62.59.19,1.46.89,2.08,1.02.88,3.33.32,4.74-.89,1.26-1.07.9-1.87,1.78-2.67,2.63-2.38,9.51,1.21,9.78.59.17-.39-2.58-1.72-2.37-2.37.26-.8,4.72.29,5.04-.59.3-.84-3.58-2.22-3.56-4.15.02-1.34,1.94-2.29,3.85-3.26,1.18-.59,2.56-1.3,3.19-.74.46.42.47,1.51,0,2-.37.39-.88.26-1.11.67-.24.43.06,1.02.11,1.11.52.97,1.92,1.16,3.22,1.33.71.1,1.08.14,1.44,0,1.04-.39,1.46-1.67,1.56-2,.15-.45.06-.44.22-1.11.2-.79.4-1.6.89-2.11.54-.56,1.28-.59,2.78-.67.84-.04,2.02-.08,3.44.34,1.32.39,1.76.85,2.89,1.44,2.25,1.18,2.84.54,6.11,1.56,1.78.55,1.76.78,5,2.11,3.32,1.35,3.72,1.76,4.78,1.78,2.12.04,2.78-1.15,4.67-1.67,4.24-1.16,10.1,2.3,10.11,5,0,1.96-3.09,3.51-6.33,4.89-12.77,5.42-24.02,6.54-30.67,7.55-11.19,1.7-19.75,3-28.11,8-4.95,2.96-8.52,6.44-11.27,9.78,2.81,7.93,6.68,15.35,11.46,22.09.99-1.71,2.1-3.28,3.21-4.09,3.26-2.37,4.44-5.31,6.52-3.4,2.07,1.92,6.22,3.7,7.4,5.47,1.19,1.78,2.08,2.2,2.37,5.1.3,2.9.89,5.87,1.78,6.46.89.59,4.45,2.67,5.93,2.67s4.59,1.18,6.29,0c1.71-1.19,3.85-2.37,3.85-2.37l5.44-.3s3.09.3,3.97.89c.89.59,7.41,3.13,8.6,2.3,1.18-.82,5.84.26,7.36.17,1.53-.1,7.16,0,7.16,0,0,0-.89.79,0,2.27.88,1.48-4.96,4.15-4.96,4.15,0,0-2.24-.3-2.2,1.48l.04,1.78s1.35,1.79,2.16,1.78,6.14-.8,6.14-.8l2.88-3.35s2.45,0,1.27,1.18-2.67,2.17-2.67,2.17c0,0,1.54,2.87,2.99,2.28,1.46-.6,2.94-.28,3.23-1.48.3-1.19,1.78-2.97,1.78-2.97,0,0-1.48-1.78-1.48-3.26s1.48-3.26,1.48-3.26c0,0,2.2,1.19,2.58,2.08.38.89,1.27,2.66,1.27,2.66l3.86,1.19c-.6,1.48-1.19,3.56-1.19,3.56l-.59,1.56c.59-1.56,2.96.43,2.96.43l2.67,1.56v1.48s-.6,1.48-1.78,1.48h-11.26l-2.37,1.78h-6.22l-5.55-1.48-2.2,1.48v1.71l2.2,2.14-.56,1.25c3.15.33,6.34.5,9.58.5,25.87,0,49.22-10.85,65.73-28.25-.95-1.66-3.42-2.68-4.09-2.68-.89,0-.45-1.78.22-3.56.67-1.78,0,0,.45-.68.44-.68.44-2.43.44-2.43,0,0-2-2.67-2.67-3.33-.66-.67-5.55,0-5.55,0,0,0-2,2.66-2,3.55s2.66,2,2.66,2l1.12,1.34s-1.12,3.77-1.34,4.89c-.22,1.11-4.66,6.22-4.66,6.22,0,0-10.89,3.78-12.23,4.66-1.33.89-4.22,3.34-7.11,3.56-2.89.22-6-1.11-7.11-2.22-1.11-1.11.67-5.78.67-5.78h1.55s7.78-.44,8.67-1.11c.89-.67,5.78-5.78,8-8.89s-1.33-6.89-2.67-7.78c-1.33-.89-6.66.89-8.22,2.67-1.55,1.78-15.33,3.33-26.22,3.78-10.89.44-14.22-.89-14.66-1.13-.44-.23-14.67-3.54-22.9-3.98-8.22-.45-6.22-5.12-7.77-7.78-1.56-2.67-.23-1.56,0-5.07.22-3.51,2.66-3.6,5.11-6.71,2.44-3.11,10.22-2.44,15.33-1.63,5.11.82,16.44,3.63,19.25,5.24,2.8,1.61,12.08,1.5,17.86,1.5s12.67.67,17.78.89,6.22.89,7.33.67c1.11-.23,8.22-2.89,12.22-7.11,4-4.23.23-3.78-.66-5.42-.89-1.64-5.34-2.14-5.78-2.81-.44-.66-2-5.55-1.56-9.22.45-3.68,5.56-7.89,7.56-9.47,2-1.59,13.33-.42,19.33-.42s6.89.67,14,2.22c.79.17,1.54.37,2.24.59.17-2.28.26-4.58.26-6.9,0-10.09-1.65-19.79-4.7-28.86ZM218.57,65.77l-3.34.97v2.29h3.34l3.77,1.12,1.11-2.45-4.88-1.93Z"/>
    <path class="cls-2" d="M330.24,133.47c-1.61,21.41-10.67,40.75-24.59,55.43-.95-1.66-3.42-2.68-4.09-2.68-.89,0-.45-1.78.22-3.56.67-1.78,0,0,.45-.68.44-.68.44-2.43.44-2.43,0,0-2-2.67-2.67-3.33-.66-.67-5.55,0-5.55,0,0,0-2,2.66-2,3.55s2.66,2,2.66,2l1.12,1.34s-1.12,3.77-1.34,4.89c-.22,1.11-4.66,6.22-4.66,6.22,0,0-10.89,3.78-12.23,4.66-1.33.89-4.22,3.34-7.11,3.56-2.89.22-6-1.11-7.11-2.22-1.11-1.11.67-5.78.67-5.78h1.55s7.78-.44,8.67-1.11c.89-.67,5.78-5.78,8-8.89s-1.33-6.89-2.67-7.78c-1.33-.89-6.66.89-8.22,2.67-1.55,1.78-15.33,3.33-26.22,3.78-10.89.44-14.22-.89-14.66-1.13-.44-.23-14.67-3.54-22.9-3.98-8.22-.45-6.22-5.12-7.77-7.78-1.56-2.67-.23-1.56,0-5.07.22-3.51,2.66-3.6,5.11-6.71,2.44-3.11,10.22-2.44,15.33-1.63,5.11.82,16.44,3.63,19.25,5.24,2.8,1.61,12.08,1.5,17.86,1.5s12.67.67,17.78.89,6.22.89,7.33.67c1.11-.23,8.22-2.89,12.22-7.11,4-4.23.23-3.78-.66-5.42-.89-1.64-5.34-2.14-5.78-2.81-.44-.66-2-5.55-1.56-9.22.45-3.68,5.56-7.89,7.56-9.47,2-1.59,13.33-.42,19.33-.42s6.89.67,14,2.22c.79.17,1.54.37,2.24.59Z"/>
    <path class="cls-2" d="M258.08,206.81v1.48s-.6,1.48-1.78,1.48h-11.26l-2.37,1.78h-6.22l-5.55-1.48-2.2,1.48v1.71l2.2,2.14-.56,1.25c-26.56-2.79-49.69-17.06-64.36-37.75.99-1.71,2.1-3.28,3.21-4.09,3.26-2.37,4.44-5.31,6.52-3.4,2.07,1.92,6.22,3.7,7.4,5.47,1.19,1.78,2.08,2.2,2.37,5.1.3,2.9.89,5.87,1.78,6.46.89.59,4.45,2.67,5.93,2.67s4.59,1.18,6.29,0c1.71-1.19,3.85-2.37,3.85-2.37l5.44-.3s3.09.3,3.97.89c.89.59,7.41,3.13,8.6,2.3,1.18-.82,5.84.26,7.36.17,1.53-.1,7.16,0,7.16,0,0,0-.89.79,0,2.27.88,1.48-4.96,4.15-4.96,4.15,0,0-2.24-.3-2.2,1.48l.04,1.78s1.35,1.79,2.16,1.78,6.14-.8,6.14-.8l2.88-3.35s2.45,0,1.27,1.18-2.67,2.17-2.67,2.17c0,0,1.54,2.87,2.99,2.28,1.46-.6,2.94-.28,3.23-1.48.3-1.19,1.78-2.97,1.78-2.97,0,0-1.48-1.78-1.48-3.26s1.48-3.26,1.48-3.26c0,0,2.2,1.19,2.58,2.08.38.89,1.27,2.66,1.27,2.66l3.86,1.19c-.6,1.48-1.19,3.56-1.19,3.56l-.59,1.56c.59-1.56,2.96.43,2.96.43l2.67,1.56Z"/>
    <g id="Land">
      <path class="cls-2" d="M228.56,45.04c-.67,1.78-2.89,2.45-3.56,2.23-.67-.23-2-1.11-2-1.11,0,0-.89-.89-1.78,0-.89.88,1.56.66-.89.88-2.44.23-2-.88-3.55-.88s-6,1.33-6,1.33c0,0-.45,2.44,1.33,2.22,1.78-.22,2.45-.64,3.11.02.67.65,1.34.65,1.56,2.65.22,2-.67,3.11-1.11,5.11-.45,2-.67,5.55-.67,5.55,0,0-9.56,2.23-9.56,4.67s-4,3.78-4.88,4.22c-.89.45-2.91,3.34-2.68,0,.23-3.33.9-8.89,1.34-10,.45-1.11,3.11-2.89,3.78-4,.67-1.11,2.22-2.89,1.11-3.33s-3.55-.64-4.67,1.24c-1.11,1.87-2.22,2.98-3.55,3.87-1.33.89-2.45,1.78-4,2.45-1.56.66-2.45,1.11-4.22,1.77-1.78.67-4,.89-4.67.67s.67-1.56-.67-.22c-1.33,1.33-.89,1.11-2.66,3.55-1.78,2.45-2,1.56-4,4.67s-2.45,4-2.23,4.67c.23.66,1.12,2,1.12,2,0,0,4-1.34,5.55-4,1.56-2.67,1.11-4.45,2.45-5.34,1.33-.89,3.33-1.77,4-1.77s2.22-2.98,2.88-2.38c.67.6,4.23,1.71,2.45,4.38-1.78,2.66-2.89,3.55-2.89,5.55s-.67,2.67.67,4.89c1.33,2.22,2.66,1.11,2.22,3.78-.45,2.66,0,4.44-1.56,4.66-1.55.23-2.44-1.11-3.55-3.11-1.11-2-.22-3.11-2.45-3.11s-3.77.45-5.11,1.34c-1.33.88-4.44.44-1.33,2.88,3.11,2.45,5.33.89,4.44,3.12-.89,2.22,2.89,2.44-4.44,3.55-7.33,1.11-10,1.11-10.89,1.33-.89.23-1.11.23-1.11,2s2.67,1.34,0,4c-2.67,2.67-2.67,2.89-4.45,3.78-1.77.89-2.44-.22-3.77,1.56-1.34,1.78-.89.44-1.34,1.78-.14.41-.19.54-.22.58-.02.04-.07.2-.22.75-.45,1.55-2.22,3.33-2.22,3.33l-3.26-.25c4.83-31.17,25.56-57.08,53.64-69.19-.52,1.73-1.19,3.22-1.94,3.22-1.78,0-3.78,1.56-3.78,1.56,0,0-1.55,1.55,1.11,1.55s6-2.67,7.34-3.55c1.33-.89,1.98-4.66,1.98-4.66l2.68,1.54,1.34-.44c1.78,1.56-.45,1.56,1.78,1.56s3.33,0,4.22-1.34c.89-1.33,0-4.34,0-4.34l4,2.12s.66.44,0,1.11c-.67.67.66,1.11,2,1.33,1.33.23,2.44.89,2.44.89,0,0,2-.66,1.34,1.11Z"/>
      <polygon class="cls-2" points="223.44 67.71 222.33 70.16 218.56 69.04 215.22 69.04 215.22 66.75 218.56 65.78 223.44 67.71"/>
      <path class="cls-2" d="M321.89,112.82c.44,2-1.11,2.22-2.89,5-1.78,2.77-5.11,1.22-19.11,3.67-14,2.44-13.56-.45-23.33-.44-9.78,0-5.12-1.34-11.34-1.78-6.22-.45-7.55-.89-16.89-2.45-9.33-1.55-8-1.55-9.77-2.89-1.78-1.33-2.67-3.33-4.23-7.33-1.55-4,2.45-2.89,4.67-3.56,2.22-.66,3.33-1.11,6.22-1.87,2.89-.76,2.67-2.13,5.34-3.46,2.67-1.33,4-.67,5.77-.67s1.56.67,1.91,2.97c.34,2.3,2.54.59,5.87,0,3.33-.59,3.11-.74,5.78-1.41,2.67-.67,3.55-.22,7.11-1.56,3.56-1.33,4-1.11,5.78-2,1.78-.88,2-1.33,3.55-2.66,1.56-1.34.23-1.34-.22-2.89-.44-1.56-1.78-2-3.33-2.89-1.56-.89-1.11.22-4.22,1.4-3.12,1.18-2,.38-2.45-1.4-.44-1.78.45-2.44,1.56-4,1.11-1.56.22-1.33,1.55-3.78,1.34-2.44,1.78-.66,4.45-1.11,2.66-.44,2.89-.22,6-1.11,3.11-.89,1.55-1.56,1.33-3.11-.22-1.56-2.67-2.67-6.89-3.33-4.22-.67-6.67.44-10.67,2-4,1.55-1.33,2.44-.88,5.33.44,2.89.88,2.89,1.77,6.67.89,3.77,0,1.77,0,3.84s-2.66-.29-4.44-1.18c-1.78-.89-1.11-1.55-2.46-4-1.36-2.44-2.87-2.44-5.54-3.11-2.67-.67,3.11,2.67,4,4.45.89,1.77,2,4.66,1.33,5.11-.66.44-1.78-.23-2.44-2.23-.67-2-4.45-2-6.67-3.33-2.22-1.33-4.22-.44-5.55.22-1.34.67-3.34,1.56-5.78,2.89-2.45,1.34-1.11,3.34-1.78,4.89-.67,1.56-1.11,4.22-1.91,6.89-.8,2.67-3.65.89-6.76,0-3.11-.89-1.55-4.67-1.55-7.33s1.11-3.11,2-5.34c.89-2.22,2,0,3.13,0s1.76-.22,3.18-1.77c1.42-1.56.8-1.34,0-2.23-.8-.89-1.42,0-3.18,0s-3.58-.22-4.24-2c-.67-1.77-2-1.33-2-1.33,0,0-.67,1.11-.89,3.11-.22,2-1.56.22-2.67,0-1.11-.22,0-1.55.67-3.55.66-2,0,0-2.09-.45-2.08-.44-3.02-1.78-3.69-3.78s1.78-.22,3.56-1.11c1.77-.89,0,0,1.55-1.55s2-1.56,2.68-2.45c.67-.89,3.54,1.34,3.54,1.34h-1.77s.44,2.44,2,3.77c1.55,1.34,1.11,1.34,3.35,1.56,2.24.22.65-1.11,0-2.67-.09-.22,3.09.22,5.98-.89,2.89-1.11,1.11-1.11,1.15-1.77.04-.67,1.52,0,2.4,0s2-.45,3.34-1.78c1.33-1.34,0,0-2.22-2.6-2.22-2.6.88-1.18,2-2.51,1.11-1.34-.23-1.56-.23-1.56,0,0-1.33.89-2.66,2-1.34,1.11-1.78-.44-2.63-1.78-.85-1.33,1.29-2.44,0-3.55-1.3-1.11-1.37.66-3.82,2-2.44,1.33.22,1.78,1.56,2.89,1.33,1.11.89,1.55,2.26,2.51s.85,1.04-.48,3.26c-1.34,2.23-2.89-.44-2.89-.44l-.45-.63c-.44-.63-1.33-.7-3.31-1.37-1.98-.67-2.02-.22-3.58-1.78-1.55-1.55-.44-1.78,0-2.66.45-.89.89-1.34,1.11-2.89.23-1.56,0-1.78.67-3.11.67-1.34,1.56-.67,2.67-1.21,1.11-.54,2.22.54,4,0,1.78-.54,1.33-.79,2.26-1.91.93-1.11.63-1.55,1.74-2.66,1.11-1.11,1.78-.22,1.78-.22,0,0,.44,2.66,1.55,4.22,1.11,1.55,3.78-.45,4.45-1.56.66-1.11-1.34-.66-2.89-2-1.56-1.33-.67-2.89-.67-2.89,0,0,2.22.67,6.44,0,4.23-.66,0,0-.88-.83-.89-.83-2-.28-3.34-.15-1.33.13-2.22.32-3.78-.13-1.55-.44-1.77.45-3.55,0-1.78-.44-1.33-1.33-1.33-1.33,0,0,2-1.11,3.11-1.78,1.11-.67,0,0-.89-.44-.89-.45-2.89,0-2.89,0,0,0-.45-2.23-1.11-3.56-.67-1.33-1.56,0-1.56,0,0,0-5.11-1.55-5.78-1.55s-4.46-1.88-4.65-1.88c2.35-.19,4.72-.28,7.12-.28.9,0,1.8,0,2.7.04,10.83.32,21.19,2.54,30.75,6.35,16.24,6.44,30.16,17.46,40.19,31.45,3.83,5.34,7.1,11.12,9.7,17.24-1.94.48-3.58.85-3.58.85,0,0-3.11-1.11-5.56-1.33-2.44-.22,0,2,.22,6.22.23,4.22,2.67,5.34,4.89,8.67,2.22,3.33,2.22,5.33,2.67,7.33Z"/>
      <path class="cls-2" d="M230.89,126.6c0,1.96-3.09,3.51-6.33,4.89-12.77,5.42-30.49,15.94-35.01,15.94-2.89-3.2-9.64,3.13-18,8.13-4.95,2.96-14.29-2.08-17.04,1.26-2.14-6.02-3.65-12.34-4.47-18.87-.14-1.14-.27-2.28-.36-3.43,1.51-1.55,3.45-3.3,6.43-4.81.82-.41,4.14-2.04,5.33-.89.62.59.19,1.46.89,2.08,1.02.88,3.33.32,4.74-.89,1.26-1.07.9-1.87,1.78-2.67,2.63-2.38,9.51,1.21,9.78.59.17-.39-2.58-1.72-2.37-2.37.26-.8,4.72.29,5.04-.59.3-.84-3.58-2.22-3.56-4.15.02-1.34,1.94-2.29,3.85-3.26,1.18-.59,2.56-1.3,3.19-.74.46.42.47,1.51,0,2-.37.39-.88.26-1.11.67-.24.43.06,1.02.11,1.11.52.97,1.92,1.16,3.22,1.33.71.1,1.08.14,1.44,0,1.04-.39,1.46-1.67,1.56-2,.15-.45.06-.44.22-1.11.2-.79.4-1.6.89-2.11.54-.56,1.28-.59,2.78-.67.84-.04,2.02-.08,3.44.34,1.32.39,1.76.85,2.89,1.44,2.25,1.18,2.84.54,6.11,1.56,1.78.55,1.76.78,5,2.11,3.32,1.35,3.72,1.76,4.78,1.78,2.12.04,2.78-1.15,4.67-1.67,4.24-1.16,10.1,2.3,10.11,5Z"/>
    </g>
  </g>
</svg>