<?xml version="1.0" encoding="UTF-8"?>
<svg id="Bank_Card" data-name="Bank Card" xmlns="http://www.w3.org/2000/svg" xmlns:xlink="http://www.w3.org/1999/xlink" viewBox="0 0 380.44 288.44">
  <defs>
    <style>
      .cls-1 {
        fill: #96e1fe;
      }

      .cls-1, .cls-2 {
        stroke-width: 0px;
      }

      .cls-3 {
        fill: #0362e1;
      }

      .cls-3, .cls-4 {
        stroke: #0032b8;
        stroke-linecap: round;
        stroke-linejoin: round;
        stroke-width: 2px;
      }

      .cls-5 {
        filter: url(#drop-shadow-1);
      }

      .cls-2 {
        fill: #fff;
      }

      .cls-4 {
        fill: #139bff;
      }
    </style>
    <filter id="drop-shadow-1" filterUnits="userSpaceOnUse">
      <feOffset dx="5" dy="5"/>
      <feGaussianBlur result="blur" stdDeviation="10"/>
      <feFlood flood-color="#3668cc" flood-opacity=".6"/>
      <feComposite in2="blur" operator="in"/>
      <feComposite in="SourceGraphic"/>
    </filter>
  </defs>
  <g id="Card" class="cls-5">
    <g id="Card-2" data-name="Card">
      <path class="cls-3" d="M354,226.05l-24.03,3.87-154,24.83c-2.63.43-5.19-1.08-6.12-3.58l-20.13-54.6-17.63-47.79c-1.22-3.3,2.6-12.64,6.06-13.21-2.74,1.09-4.23,4.21-3.16,7.12l17.63,47.79,20.13,54.6c.93,2.5,3.5,4.01,6.12,3.58l154-24.83,24.03-3.87c2.85-.46,4.78-2.97,4.68-5.7h.01c1.22,3.31-4.13,11.23-7.59,11.79Z"/>
      <path class="cls-4" d="M361.58,214.26c.1,2.73-1.83,5.24-4.68,5.7l-24.03,3.87-154,24.83c-2.63.43-5.19-1.08-6.12-3.58l-20.13-54.6-8.37-22.7-9.26-25.09c-1.07-2.91.43-6.03,3.16-7.12.37-.15.77-.27,1.19-.33l178.02-28.69c2.64-.43,5.21,1.07,6.12,3.58l10.02,27.15,8.29,22.5,14.8,40.17,4.64,12.57c.21.58.33,1.18.34,1.74Z"/>
      <g>
        <path class="cls-2" d="M168.93,158.67c.27.75.3,1.4.1,1.94s-.58.99-1.13,1.33c-.55.35-1.22.58-2.01.7l-6.05.94-4.6-12.87,6.91-1.07c.58-.09,1.15,0,1.69.25.54.25,1.02.62,1.43,1.09.41.47.71.98.91,1.52.21.59.27,1.19.17,1.8-.1.61-.4,1.09-.9,1.45.79.11,1.49.41,2.11.9.61.49,1.07,1.17,1.38,2.02ZM159.02,152.81l.95,2.67,2.81-.44c.22-.03.41-.11.56-.24.15-.13.25-.29.29-.5s0-.47-.1-.77c-.11-.3-.25-.54-.41-.72-.17-.18-.35-.31-.55-.38-.2-.08-.41-.1-.63-.06l-2.91.45ZM165.81,158.54c-.1-.27-.23-.5-.42-.7-.18-.2-.38-.35-.6-.45s-.44-.13-.69-.09l-3.3.51,1,2.81,3.17-.49c.26-.04.46-.13.62-.29.16-.15.25-.34.29-.56.04-.22,0-.47-.09-.73Z"/>
        <path class="cls-2" d="M170.09,148.41l3.09-.48,8.92,12.2-2.95.46-1.88-2.75-4.11.64.18,3.01-2.95.46-.31-13.54ZM175.95,155.9l-3.23-4.74.31,5.2,2.92-.45Z"/>
        <path class="cls-2" d="M183.54,152.12l2.64,7.38-2.88.45-4.6-12.87,2.28-.35,8.48,6.68-2.71-7.58,2.86-.44,4.6,12.87-2.33.36-8.34-6.49Z"/>
        <path class="cls-2" d="M196.61,157.87l-4.6-12.87,2.88-.45,1.98,5.55,2.58-6.26,3.23-.5-2.61,6.47,7.53,6.35-3.3.51-5.35-4.62-.8,1.58,1.35,3.79-2.88.45Z"/>
        <path class="cls-2" d="M209.33,148.97c-.28-.77-.41-1.56-.41-2.36,0-.8.17-1.55.49-2.26.32-.71.8-1.3,1.44-1.79.64-.49,1.44-.81,2.42-.96,1.17-.18,2.28-.08,3.32.31,1.05.39,1.93.96,2.66,1.73l-1.65,1.96c-.34-.43-.71-.75-1.11-.97-.4-.21-.81-.34-1.21-.39-.4-.04-.78-.04-1.13.01-.54.08-.97.27-1.3.55-.33.29-.56.64-.7,1.06-.13.42-.19.87-.16,1.35.03.48.12.94.28,1.39.19.52.44,1,.77,1.45.33.45.7.83,1.11,1.15.42.32.86.55,1.34.7.48.15.97.18,1.47.11.35-.05.69-.17,1.01-.34.32-.17.59-.41.8-.73.21-.31.33-.7.33-1.16l2.89,1.08c-.03.67-.25,1.27-.65,1.8-.4.54-.91.97-1.53,1.32-.62.34-1.28.57-1.98.68-.9.14-1.79.08-2.68-.19-.88-.26-1.71-.67-2.49-1.22-.78-.55-1.46-1.2-2.04-1.94-.58-.75-1.02-1.53-1.31-2.35Z"/>
        <path class="cls-2" d="M222.8,140.22l3.09-.48,8.92,12.2-2.95.46-1.87-2.75-4.11.64.18,3.02-2.95.46-.31-13.54ZM228.66,147.71l-3.23-4.74.31,5.19,2.92-.45Z"/>
        <path class="cls-2" d="M236.01,151.75l-4.6-12.87,5.59-.87c.6-.09,1.19-.05,1.78.12.59.18,1.14.44,1.65.8.5.35.95.78,1.34,1.27.39.49.68,1,.88,1.55.19.52.28,1.03.28,1.54s-.08.98-.25,1.4c-.17.42-.42.79-.74,1.09l4.45,4.36-3.17.49-3.87-3.78-1.95.3,1.49,4.15-2.88.45ZM236.47,144.54l2.65-.41c.22-.03.4-.14.53-.31.13-.17.21-.4.23-.69.02-.28-.03-.59-.15-.93-.13-.36-.31-.66-.54-.9-.23-.24-.47-.42-.73-.53-.26-.11-.49-.15-.7-.12l-2.54.4,1.25,3.5Z"/>
        <path class="cls-2" d="M247.76,149.93l-4.6-12.87,4.65-.72c1.37-.21,2.62-.1,3.74.33,1.13.43,2.1,1.1,2.91,2,.81.9,1.43,1.94,1.85,3.13.47,1.31.62,2.48.45,3.53-.17,1.05-.62,1.91-1.36,2.58-.74.68-1.73,1.11-2.98,1.31l-4.65.72ZM253.38,142.24c-.27-.75-.63-1.39-1.1-1.93-.46-.53-1-.92-1.6-1.17-.61-.24-1.25-.31-1.94-.21l-1.77.28,2.74,7.65,1.77-.28c.7-.11,1.23-.37,1.6-.78.37-.41.57-.92.62-1.55.05-.63-.06-1.3-.32-2.03Z"/>
      </g>
    </g>
    <g id="Chip">
      <path class="cls-2" d="M175.95,173.41l1.32,3.39c.22.56-.13,1.17-.72,1.28l-10.97,1.91-.49-1.26c-.85-2.17.72-4.32,3.49-4.8l6.32-1.1c.44-.08.88.17,1.04.59Z"/>
      <path class="cls-2" d="M178.69,180.42l1.21,3.11c.34.88-.2,1.84-1.13,2.01l-9.12,1.59c-.7.12-1.38-.27-1.64-.92l-1.21-3.11c-.34-.88.2-1.84,1.13-2.01l9.12-1.59c.7-.12,1.38.27,1.64.92Z"/>
      <path class="cls-2" d="M181.39,187.35l1.55,3.98c.22.56-.13,1.17-.72,1.28l-5.94,1.03c-2.78.48-5.71-.88-6.56-3.05l-.3-.78c-.22-.56.13-1.17.72-1.28l10.21-1.78c.44-.08.88.17,1.04.59Z"/>
      <path class="cls-2" d="M186.31,171.74l6.87,17.62c.25.65-.15,1.37-.84,1.49l-6.28,1.09c-.52.09-1.03-.2-1.22-.69l-6.87-17.62c-.25-.65.15-1.37.84-1.49l6.28-1.09c.52-.09,1.03.2,1.22.69Z"/>
      <path class="cls-2" d="M201.17,172.44l.49,1.26-10.99,1.91c-.5.09-1-.19-1.18-.67l-1.23-3.15c-.25-.63.15-1.33.81-1.45l5.54-.96c2.78-.48,5.71.88,6.56,3.05Z"/>
      <path class="cls-2" d="M202.42,175.65l1.79,4.59c.16.42-.1.88-.54.96l-10.43,1.82c-.33.06-.66-.13-.78-.44l-1.79-4.59c-.16-.42.1-.88.54-.96l10.43-1.82c.33-.06.66.13.78.44Z"/>
      <path class="cls-2" d="M204.47,182.56c.35-.06.7.13.83.47l.5,1.28c.85,2.17-.72,4.32-3.49,4.8l-6.22,1.08c-.35.06-.7-.13-.83-.47l-1.7-4.35c-.17-.44.1-.93.57-1.01l10.34-1.8Z"/>
    </g>
    <g id="Info">
      <path class="cls-1" d="M212.87,205.5l-34.83,5.31c-1.02.16-2.15-.66-2.51-1.83l-1.4-4.51c-.36-1.16.17-2.23,1.2-2.39l34.83-5.31c1.02-.16,2.15.66,2.51,1.83l1.4,4.51c.36,1.16-.17,2.23-1.2,2.39Z"/>
      <path class="cls-1" d="M255.83,199.13l-34.83,5.31c-1.02.16-2.15-.66-2.51-1.83l-1.4-4.51c-.36-1.16.17-2.23,1.2-2.39l34.83-5.31c1.02-.16,2.15.66,2.51,1.83l1.4,4.51c.36,1.16-.17,2.23-1.2,2.39Z"/>
      <path class="cls-1" d="M297.63,192.85l-34.83,5.31c-1.02.16-2.15-.66-2.51-1.83l-1.4-4.51c-.36-1.16.17-2.23,1.2-2.39l34.83-5.31c1.02-.16,2.15.66,2.51,1.83l1.4,4.51c.36,1.16-.17,2.23-1.2,2.39Z"/>
      <path class="cls-1" d="M339.91,186.83l-34.83,5.31c-1.02.16-2.15-.66-2.51-1.83l-1.4-4.51c-.36-1.16.17-2.23,1.2-2.39l34.83-5.31c1.02-.16,2.15.66,2.51,1.83l1.4,4.51c.36,1.16-.17,2.23-1.2,2.39Z"/>
      <path class="cls-1" d="M303.26,202.28l-120.88,17.89c-1,.15-1.55,1.53-1.12,2.82l1.58,4.78c.31.93,1.03,1.5,1.75,1.4l120.88-17.89c1-.15,1.55-1.53,1.12-2.82l-1.58-4.78c-.31-.93-1.03-1.5-1.75-1.4Z"/>
    </g>
  </g>
</svg>