<?xml version="1.0" encoding="utf-8"?>
<!-- Generator: Adobe Illustrator 28.1.0, SVG Export Plug-In . SVG Version: 6.00 Build 0)  -->
<svg version="1.1" xmlns="http://www.w3.org/2000/svg" xmlns:xlink="http://www.w3.org/1999/xlink" x="0px" y="0px"
	 viewBox="0 0 200 200" style="enable-background:new 0 0 200 200;" xml:space="preserve">
<style type="text/css">
	.st0{fill:#66ACFF;stroke:#00288A;stroke-linejoin:round;stroke-miterlimit:10;}
	.st1{fill:#9CDCFF;stroke:#00288A;stroke-linejoin:round;stroke-miterlimit:10;}
	.st2{fill:#FFFFFF;stroke:#00288A;stroke-linecap:round;stroke-linejoin:round;stroke-miterlimit:10;}
	.st3{fill:none;stroke:#00288A;stroke-linecap:round;stroke-linejoin:round;stroke-miterlimit:10;}
	.st4{fill:#00ABFF;stroke:#00288A;stroke-linejoin:round;stroke-miterlimit:10;}
	.st5{fill:#00ABFF;stroke:#00288A;stroke-miterlimit:10;}
	.st6{fill:#006DF0;stroke:#00288A;stroke-miterlimit:10;}
	.st7{fill:#D4DCFF;stroke:#00288A;stroke-miterlimit:10;}
	.st8{fill:#FFFFFF;stroke:#00288A;stroke-miterlimit:10;}
	.st9{fill:none;stroke:#00288A;stroke-linejoin:round;stroke-miterlimit:10;}
	.st10{fill:#C9DDFF;stroke:#00288A;stroke-miterlimit:10;}
	.st11{fill:none;stroke:#00288A;stroke-miterlimit:10;}
	.st12{fill:#00288A;}
	.st13{display:none;}
	.st14{fill:#FFFFFF;stroke:#00288A;stroke-linejoin:round;stroke-miterlimit:10;}
</style>
<g id="docpile">
	<g>
		<polygon class="st0" points="-74.5,137.5 -139.5,116.5 -139.5,68.5 -74.5,89.5 		"/>
		<polygon class="st1" points="-29.5,123.5 -74.5,137.5 -74.5,89.5 -29.5,75.5 		"/>
		<polygon class="st2" points="-93.5,54.5 -139.5,68.5 -74.5,89.5 -29.5,75.5 		"/>
	</g>
	<g id="paperinfo_00000050622426486951671920000008964967433862240920_">
		<line class="st3" x1="-76" y1="85.4" x2="-41.5" y2="74.5"/>
		<line class="st3" x1="-82.5" y1="82.2" x2="-49.6" y2="71.7"/>
		<line class="st3" x1="-113.5" y1="72.2" x2="-79.5" y2="62.5"/>
		<line class="st3" x1="-118.5" y1="71.2" x2="-84.5" y2="61.5"/>
		<line class="st3" x1="-122.5" y1="69.2" x2="-88.5" y2="59.5"/>
		<line class="st3" x1="-79" y1="83.8" x2="-62.5" y2="78.5"/>
		<polygon class="st4" points="-55.5,70.5 -87.5,80.5 -108.5,74.5 -73.5,64.5 		"/>
	</g>
	<g id="paperfolds">
		<line class="st3" x1="-139.5" y1="108.5" x2="-125.5" y2="112.5"/>
		<line class="st3" x1="-139.5" y1="113.5" x2="-111.5" y2="122.5"/>
		<line class="st3" x1="-139.5" y1="88.5" x2="-119.5" y2="94.5"/>
		<line class="st3" x1="-74.5" y1="98.5" x2="-41.5" y2="88.5"/>
		<line class="st3" x1="-74.5" y1="100.5" x2="-108.5" y2="89.5"/>
		<line class="st3" x1="-74.5" y1="113.5" x2="-57.5" y2="108.5"/>
		<line class="st3" x1="-74.5" y1="134.5" x2="-41.5" y2="124.5"/>
		<line class="st3" x1="-29.5" y1="115.5" x2="-60.5" y2="125.5"/>
		<line class="st3" x1="-74.5" y1="127.5" x2="-103.5" y2="119.5"/>
		<line class="st3" x1="-139.5" y1="71.5" x2="-106.5" y2="82.5"/>
		<line class="st3" x1="-29.5" y1="80.5" x2="-55.5" y2="88.5"/>
		<line class="st3" x1="-74.5" y1="116.5" x2="-37.5" y2="105.5"/>
	</g>
</g>
<g id="document">
	
		<image style="display:none;overflow:visible;" width="970" height="786" xlink:href="../../../../../Работа/Сайты материалы/ArmbizConsulting/Complex animations/LLC &amp; IE Documents/1_Full-image.png"  transform="matrix(0.1913 -7.953645e-02 7.953645e-02 0.1913 -251.5598 84.813)">
	</image>
	<g id="base_00000096738691478761943560000018083607807482164886_">
		<g id="Base_00000088819734640268163430000000997200771731128762_">
			<path class="st5" d="M-108.5,127.8c-7.8-6.7-9.6-14.4-9.6-14.4s-12.4-44.9-14.4-49.8c-1.3-3.1-4.3-2.9-4.3-2.9l-13.4,2.3
				l-1.2-4.6c0.8-0.1,1.2-0.2,1.2-0.2l15.2-2.9c0,0,3.9-1.3,6.1,4.5C-127.3,64.5-114,109.7-108.5,127.8z"/>
			<path class="st6" d="M-104.4,141.4c-0.7,1.9-2.8,3.9-7.7,4.8c-10,1.9-45.8,10.3-54.9,12.5c-1.6,0.4-3.4,0.2-4.9-0.5
				c-1.9-0.9-4.3-2.4-5.2-4.8c-1.3-3.8-18.5-63.1-22.8-78.1c-0.8-2.9,0-6.1,2.4-8c0.7-0.6,1.5-1,2.4-1.2c0.4-0.1,1.1-0.2,2.2-0.4
				c-1,0.2-5.3,1.4-4,6.5c1.4,5.8,22.9,80.1,22.9,80.1s1.6,5,8.8,2.9c8.7-2.2,14.2-3.6,14.2-3.6c0.6,0.4,1,0.7,1,0.7L-104.4,141.4z"
				/>
			<path class="st5" d="M-150.6,152.2c0,0-5.5,1.4-14.2,3.6c-2.8,0.8-4.8,0.4-6.3-0.5c0,0,0,0,0,0c-0.6-0.4-1.2-0.8-1.6-1.2
				c-0.3-0.3-0.6-0.7-0.9-1.1c0,0,0,0,0,0c-0.5-0.8-0.9-1.6-1.1-2.5c-2.7-9.1-21.4-73.3-22.7-78.7c-0.6-2.6,0.1-4.2,1.2-5.1
				c0,0,0,0,0,0c1-1,2.3-1.3,2.8-1.4c0.1,0,0.2,0,0.2,0l0.2,0l1-0.2l3.1-0.5l11.9-1.9l3-0.5l0,0.1l0.5,4.3h0l-0.1,0l-0.1,0
				c-0.3,0.1-0.9,0.2-1.7,0.3l-0.3,0c-2.5,0.5-6.7,1.2-10.4,1.8c-0.4,0.1-0.9,0.1-1.3,0.2h0c-0.8,0.1-1.5,0.2-2,0.3
				c-0.2,0-0.4,0.1-0.5,0.1c-1.7,0.5-1.7,1.1-1.9,1.5c-0.1,0.3,0,0.4,0,0.4c3.8,11.1,8.5,24.9,12.6,45.3c0.2,0.9,0.4,1.8,0.6,2.8
				c3.4,12.9,9.2,29.7,10.6,31.8c0.7,0.2,6.9-1.2,10.4-2.1c0.4-0.1,0.8-0.2,1.1-0.3c0.8-0.2,1.3-0.3,1.3-0.3s-0.8-0.9-0.5-0.6
				c0,0,1,1,1,1c0.7,0.5,1.8,1.2,2.7,1.9c0.4,0.3,0.8,0.7,1.1,0.9C-150.8,151.9-150.7,152.1-150.6,152.2z"/>
		</g>
	</g>
	<path class="st7" d="M-156.7,148.8c-0.3,0.1-0.7,0.2-1.1,0.3c-3.5,0.8-9.8,2.3-10.4,2.1c-1.4-2.1-7.1-18.8-10.6-31.8
		c-0.2-0.9-0.4-1.9-0.6-2.8c0.3,0.9,0.6,1.9,0.8,2.8c3.5,11.6,8.7,20.2,15.8,25.9c0,0,4.2,2.8,4.2,2.8c0,0,0,0,0,0
		C-157.8,148.4-157.2,148.6-156.7,148.8z"/>
	<path class="st8" d="M-93.4,138.1l-11.5,2.8l-45.5,11l0,0c-0.1-0.1-0.3-0.4-0.9-0.7c-0.3-0.1-0.5-0.2-0.8-0.3
		c-1.5-0.6-2.7-1.2-4.6-2c-0.5-0.2-1.1-0.5-1.8-0.7c0,0,0,0,0,0c0,0-4.2-2.8-4.2-2.8c-7.1-5.7-12.3-14.4-15.8-25.9
		c-0.3-0.9-0.5-1.8-0.8-2.8c-5.1-17-12.9-44.1-12.9-44.1s-0.2-0.5-0.2-1.2c0-0.1,0-0.3,0-0.4c0.1-0.5,0.3-1,0.9-1.3l1.4-0.2l0.8-0.1
		l2.1-0.3h0l1-0.2l10.4-1.8l0.3,0l2-0.3l0.1,0l0.1,0h0l23-3.9l1-0.2l0.6-0.1l12.8-2.2c0,0,2.9-0.7,4.3,3.6c0.1,0.3,0.2,0.8,0.4,1.3
		c2.4,8.1,10.8,40,10.8,40s1.1,3.6,3.1,8c0,0,0,0,0,0c2,4.5,4.9,10,8.4,13.6c0.3,0.3,0.6,0.6,0.8,0.8c0.1,0.1,0.3,0.3,0.5,0.4
		c0.9,0.8,2,1.6,3.1,2.4C-94.1,137.4-93.4,138.1-93.4,138.1z"/>
	<path id="clip_00000153702436422883969680000014997282137928508845_" class="st4" d="M-147.1,65.5l-27,4c-0.1-1.6-0.7-6.5-2.1-7.2
		c-0.1-0.1-0.7,0-1.4,0c4.1-0.5,22.8-3.4,25.7-4c2.9-0.6,3.5,2.6,3.5,2.6C-147.9,62.5-147.5,63.9-147.1,65.5z"/>
	<g id="Paperinfo_00000121262337514105288880000015878635717988200638_">
		<g>
			
				<ellipse id="paperinfo_00000043444621572755255000000005470617887052460417_" transform="matrix(0.943 -0.3329 0.3329 0.943 -37.6772 -53.8736)" class="st9" cx="-176.1" cy="83" rx="6.4" ry="6.9"/>
			<line class="st3" x1="-178.2" y1="84.2" x2="-175.5" y2="86.2"/>
			<line class="st3" x1="-174.1" y1="80" x2="-175.5" y2="86.2"/>
		</g>
		<g>
			
				<ellipse id="paperinfo_00000144329167033349511050000002041961387127063741_" transform="matrix(0.943 -0.3329 0.3329 0.943 -43.1711 -51.2691)" class="st9" cx="-171.2" cy="100.4" rx="6.4" ry="6.9"/>
			<line class="st3" x1="-173.4" y1="101.5" x2="-170.6" y2="103.6"/>
			<line class="st3" x1="-169.2" y1="97.3" x2="-170.6" y2="103.6"/>
		</g>
		<g>
			<line class="st3" x1="-166.5" y1="80" x2="-140.1" y2="75.1"/>
			<line class="st3" x1="-165.8" y1="82.8" x2="-150.5" y2="80"/>
		</g>
		<g>
			<line class="st3" x1="-151.1" y1="143.8" x2="-126.2" y2="138.2"/>
		</g>
		<g>
			<line class="st3" x1="-162.1" y1="95" x2="-135.8" y2="90.1"/>
			<line class="st3" x1="-160.5" y1="100.6" x2="-145.3" y2="97.9"/>
			<line class="st3" x1="-161.2" y1="97.9" x2="-146" y2="95.1"/>
		</g>
		<g>
			<line class="st3" x1="-172.7" y1="112.6" x2="-128.3" y2="104.3"/>
			<line class="st3" x1="-170.3" y1="118.7" x2="-130.4" y2="111.2"/>
			<line class="st3" x1="-171.6" y1="115.4" x2="-138.3" y2="109.1"/>
			<line class="st3" x1="-168.1" y1="125.8" x2="-138.7" y2="120.2"/>
		</g>
	</g>
</g>
<g id="pen_00000014600332371907941750000003938879510741040313_">
	<g>
		<path class="st10" d="M-118.3,129.4c-3.3,1.4-6.7,5.2-7.9,6.7c-0.1,0.1-0.3,0-0.3-0.1c0.5-1.9,1.7-6.8,0.9-10.3
			c3.4-2.5,5.6-6.2,6.4-7.6l3.4,1.8C-116.6,121.3-118.2,125.3-118.3,129.4z"/>
		<g>
			<g>
				<line class="st11" x1="-126.1" y1="135.5" x2="-122.2" y2="127.8"/>
				<g>
					<path class="st12" d="M-121.2,128.4c0.3-0.6,0.1-1.2-0.5-1.5s-1.2-0.1-1.5,0.5c-0.3,0.6-0.1,1.2,0.5,1.5
						C-122.1,129.2-121.5,128.9-121.2,128.4z"/>
				</g>
			</g>
		</g>
		
			<rect x="-125.1" y="106.5" transform="matrix(0.4576 -0.8892 0.8892 0.4576 -159.0898 -40.7584)" class="st6" width="24.3" height="7"/>
		
			<rect x="-114.6" y="82.7" transform="matrix(0.4576 -0.8892 0.8892 0.4576 -131.9764 -42.7603)" class="st6" width="27" height="8.3"/>
		<path class="st6" d="M-89.3,82.8c0,0-9.1,17.3-9.4,17.9c-0.3,0.6-1,0.2-1.8-0.2c-0.7-0.4-0.4-1-0.6-1.5c-0.2-0.5,2.6-2.3,2.6-2.3
			s3.8-7.1,5.1-9.6c1.3-2.5-0.2-5.8-0.2-5.8l1.9-3.7c0,0,0.4,1.9,1.8,2.7C-88.4,81-89.3,82.8-89.3,82.8z"/>
		<path class="st6" d="M-91,76.4c-0.1,0.1-0.1,0.2-0.2,0.3l-7.3-3.8c0-0.1,0.1-0.2,0.1-0.3c1.2-2.4,3.9-3.5,5.9-2.4
			C-90.4,71.2-89.8,74-91,76.4z"/>
	</g>
</g>
<g id="sign">
	<path class="st3" d="M-141.1,135.8c-1.4,3.5-9.5,7-11,5.9s0.7-4.5,2.7-5.3c3.5-1.4,10.4-0.8,4.2,4.4s-8.3,9.4-2.1,3.9
		c6.2-5.5,6.2-6.2,6.2-6.2s0,1.9,2.1,1s2.8-2.4,2.8-2.4s-4.9,0,0,1.4c2.7,0.8,2.8-1.4,2.8-1.4s-0.7,1.4,1.4,0.7
		c2.1-0.7,2.1-2.1,2.1-2.1v5.5"/>
</g>
<g id="Слой_5" class="st13">
	
		<image style="display:inline;overflow:visible;" width="1024" height="1024" xlink:href="../../../../../../Downloads/b671d418-fb6d-44eb-a890-d52498917fd9.png"  transform="matrix(0.1615 0 0 0.1615 23 8)">
	</image>
</g>
<g id="money">
	<g>
		
			<rect x="33.1" y="65.3" transform="matrix(0.9558 -0.2941 0.2941 0.9558 -26.7054 18.9162)" class="st14" width="32.9" height="65.9"/>
		<path class="st14" d="M55.1,72.2l13.7,44.5c-2.3,1.8-3.6,4.6-3.6,7.6l-13.3,4.1c-1.8-2.7-4.9-4.3-8-4.3l-13.6-44
			c2.6-1.7,4.2-4.8,4.2-8l13.3-4.1C49.6,70.4,52.3,72,55.1,72.2z"/>
		<circle class="st4" cx="49.9" cy="98.1" r="10.7"/>
		<g>
			<path class="st12" d="M42.1,81.5l0.3,0.9l3.8-1.2l0.3,0.9l-3.8,1.2l0.8,2.4l-1.2,0.4l-0.8-2.4L40.8,84l-0.3-0.9l0.6-0.2l-0.3-0.9
				l-0.6,0.2l-0.3-1.1l0.6-0.2l-1.3-4.2l3-1c0.8-0.3,1.5-0.4,2-0.4c0.5,0,0.9,0.2,1.3,0.6c0.4,0.3,0.7,0.8,0.9,1.3
				c0.2,0.5,0.2,1,0.1,1.4c-0.1,0.4-0.2,0.8-0.5,1.1c-0.3,0.3-0.6,0.6-1,0.8c-0.4,0.2-0.8,0.4-1.2,0.5L42.1,81.5z M43.4,79.9
				c0.3-0.1,0.6-0.2,0.8-0.3c0.2-0.1,0.4-0.3,0.6-0.5c0.2-0.2,0.3-0.4,0.3-0.6c0.1-0.2,0-0.5-0.1-0.8c-0.1-0.3-0.2-0.5-0.4-0.7
				c-0.2-0.2-0.4-0.3-0.6-0.3c-0.2-0.1-0.5-0.1-0.7-0.1c-0.3,0-0.5,0.1-0.8,0.2l-1.8,0.6l1,3.1L43.4,79.9z"/>
		</g>
		<g>
			<path class="st12" d="M57.4,117.8l-0.3-0.9l-3.8,1.2l-0.3-0.9l3.8-1.2l-0.8-2.4l1.2-0.4l0.8,2.4l0.6-0.2l0.3,0.9l-0.6,0.2
				l0.3,0.9l0.6-0.2l0.3,1.1l-0.6,0.2l1.3,4.2l-3,1c-0.8,0.3-1.5,0.4-2,0.4c-0.5,0-0.9-0.2-1.3-0.6c-0.4-0.3-0.7-0.8-0.9-1.3
				c-0.2-0.5-0.2-1-0.1-1.4c0.1-0.4,0.2-0.8,0.5-1.1c0.3-0.3,0.6-0.6,1-0.8c0.4-0.2,0.8-0.4,1.2-0.5L57.4,117.8z M56.1,119.4
				c-0.3,0.1-0.6,0.2-0.8,0.3c-0.2,0.1-0.4,0.3-0.6,0.5c-0.2,0.2-0.3,0.4-0.3,0.6c-0.1,0.2,0,0.5,0.1,0.8c0.1,0.3,0.2,0.5,0.4,0.7
				c0.2,0.2,0.4,0.3,0.6,0.3c0.2,0.1,0.5,0.1,0.7,0.1c0.3,0,0.5-0.1,0.8-0.2l1.8-0.6l-1-3.1L56.1,119.4z"/>
		</g>
	</g>
	<g>
		
			<rect x="50.6" y="55.2" transform="matrix(0.9979 -6.444599e-02 6.444599e-02 0.9979 -5.5382 4.5071)" class="st14" width="32.9" height="65.9"/>
		<path class="st14" d="M78.6,64l3,46.5c-2.6,1.2-4.6,3.6-5.3,6.6l-13.9,0.9c-1.2-3.1-3.7-5.3-6.8-6l-3-46c3-1.1,5.2-3.7,6-6.8
			l13.9-0.9C73.6,61,75.8,63.2,78.6,64z"/>
		<circle class="st4" cx="67.5" cy="88.1" r="10.7"/>
		<g>
			<path class="st12" d="M61.8,67.2c0.3-1.2,0.9-2.2,1.8-2.9c0.9-0.7,2-1.2,3.3-1.2c0.3,0,0.7,0,1.1,0l-0.2,1c-0.3,0-0.6,0-0.9,0
				c-0.9,0.1-1.8,0.4-2.5,0.9c-0.7,0.5-1.3,1.3-1.5,2.2l4.5-0.3l-0.2,1l-4.5,0.3c0,0.2,0,0.4,0,0.7c0,0.1,0,0.3,0.1,0.5l4.2-0.3
				l-0.2,1l-3.7,0.2c0.4,0.9,1,1.6,1.8,2.1c0.8,0.5,1.7,0.7,2.7,0.6c0.3,0,0.6-0.1,1-0.2l0.1,1c-0.3,0.1-0.6,0.1-1.1,0.2
				c-1.3,0.1-2.5-0.2-3.5-0.8c-1-0.6-1.7-1.5-2.1-2.7l-1,0.1l0.2-1l0.6,0c0-0.3-0.1-0.5-0.1-0.6c0-0.2,0-0.3,0-0.6l-0.9,0.1l0.2-1
				L61.8,67.2z"/>
		</g>
	</g>
	<g id="EUR">
		
			<rect x="65.6" y="53.2" transform="matrix(0.9431 0.3325 -0.3325 0.9431 33.3102 -22.3847)" class="st14" width="32.9" height="65.9"/>
		<path class="st14" d="M102.1,68.5l-15.5,43.9c-2.9,0.1-5.6,1.5-7.4,4L66,111.7c0.1-3.3-1.3-6.4-3.9-8.2l15.3-43.5
			c3.2,0.2,6.2-1.3,8.2-3.9l13.1,4.6C98.7,63.8,99.9,66.6,102.1,68.5z"/>
		<circle class="st4" cx="82.4" cy="86.3" r="10.7"/>
		<g>
			<path class="st12" d="M91.7,61l0.9,0.3l-0.3,0.7c0.4,0.2,0.7,0.5,1,0.8c0.2,0.3,0.4,0.7,0.6,1.2L93,64.5c-0.2-0.7-0.5-1.1-1-1.4
				l-1.2,3.4c1,1,1.5,1.8,1.7,2.3c0.2,0.6,0.2,1.3,0,1.9c-0.2,0.5-0.5,0.9-0.9,1.2c-0.4,0.3-0.9,0.5-1.5,0.6c-0.4,0-0.8,0-1.4-0.1
				L88,74.5l-0.9-0.3l0.8-2.1c-0.5-0.2-1-0.5-1.3-0.7c-0.3-0.3-0.5-0.6-0.8-0.9c-0.2-0.4-0.4-0.8-0.5-1.2l0.9-0.3
				c0.3,1.1,1,1.8,1.9,2.2l1.5-4.2c-0.6-0.6-1-1-1.1-1.2c-0.3-0.4-0.5-0.8-0.6-1.2c-0.1-0.4,0-0.8,0.1-1.2c0.1-0.4,0.4-0.8,0.7-1
				c0.3-0.3,0.7-0.5,1.1-0.6c0.4-0.1,0.9-0.1,1.5,0.1L91.7,61z M91.2,62.7c-0.4-0.1-0.7-0.1-0.9-0.1c-0.3,0.1-0.5,0.2-0.7,0.3
				c-0.2,0.2-0.3,0.4-0.4,0.6c-0.1,0.3-0.1,0.6,0,0.9c0.1,0.4,0.5,0.8,0.9,1.3L91.2,62.7z M89.1,71.4c0.6,0.1,1.1,0.1,1.5-0.1
				c0.4-0.2,0.7-0.5,0.9-0.9c0.1-0.4,0.1-0.8,0-1.2c-0.1-0.4-0.5-0.9-1.1-1.6L89.1,71.4z"/>
		</g>
		<g>
			<path class="st12" d="M76.9,99.2l0.9,0.3l-0.3,0.7c0.4,0.2,0.7,0.5,1,0.8c0.2,0.3,0.4,0.7,0.6,1.2l-0.9,0.3
				c-0.2-0.6-0.5-1.1-0.9-1.4l-1.2,3.3c0.9,1,1.5,1.8,1.6,2.2c0.2,0.6,0.2,1.2,0,1.8c-0.2,0.5-0.5,0.9-0.9,1.2
				c-0.4,0.3-0.9,0.5-1.4,0.6c-0.3,0-0.8,0-1.3-0.1l-0.7,2.1l-0.9-0.3l0.7-2.1c-0.5-0.2-0.9-0.5-1.2-0.7c-0.3-0.2-0.5-0.5-0.7-0.9
				c-0.2-0.4-0.4-0.8-0.5-1.2l0.9-0.3c0.3,1,0.9,1.7,1.8,2.2l1.4-4.1c-0.6-0.6-0.9-1-1.1-1.2c-0.3-0.4-0.5-0.8-0.5-1.1
				c-0.1-0.4,0-0.8,0.1-1.2c0.1-0.4,0.4-0.7,0.7-1s0.7-0.4,1.1-0.5s0.9-0.1,1.4,0.1L76.9,99.2z M76.3,100.7
				c-0.3-0.1-0.6-0.1-0.9-0.1c-0.2,0-0.5,0.2-0.7,0.3c-0.2,0.2-0.3,0.4-0.4,0.6c-0.1,0.3-0.1,0.6,0,0.9c0.1,0.4,0.4,0.8,0.9,1.2
				L76.3,100.7z M74.3,109.1c0.6,0.1,1,0.1,1.5-0.1c0.4-0.2,0.7-0.5,0.8-0.9c0.1-0.4,0.1-0.8,0-1.2c-0.1-0.4-0.5-0.9-1-1.5
				L74.3,109.1z"/>
		</g>
	</g>
</g>
<g id="letter">
	<path class="st6" d="M172.7,83.1l-30.5,27.5l-1.4-0.7c-2.1-1-4.5-0.8-6.5,0.4l-2.3,1.5L94.9,90.7v-0.4c0,0,28.5-20.6,35.1-25.4
		c4-2.9,7-0.9,7-0.9L172.7,83.1z"/>
	<g id="Card">
		<path class="st2" d="M162.6,109.2l-56.4,7.9c-3.1,0.4-5.6-1.6-5.6-4.5V80.8c0-2.9,2.5-5.6,5.6-6l56.4-7.9c3.1-0.4,5.6,1.6,5.6,4.5
			v31.8C168.2,106.1,165.7,108.8,162.6,109.2z"/>
		<g>
			<path class="st1" d="M115,83.8v2.8l-4.4,0.6v-1.6c0-0.7,0.7-1.3,1.5-1.5L115,83.8z"/>
			<polygon class="st1" points="115,86.6 115,89.3 110.6,90 110.6,87.2 			"/>
			<path class="st1" d="M115,89.3v2.8l-2.8,0.4c-0.9,0.1-1.5-0.3-1.5-1V90L115,89.3z"/>
			<path class="st1" d="M122,84v5.9c0,0.7-0.7,1.3-1.5,1.5l-5.5,0.8v-8.3l5.5-0.8C121.3,82.8,122,83.3,122,84z"/>
		</g>
		<path class="st5" d="M119.1,99.3l-10.7,1.6c-0.4,0.1-0.8-0.2-0.8-0.7v-1c0-0.4,0.4-0.9,0.8-0.9l10.7-1.6c0.4-0.1,0.8,0.2,0.8,0.7
			v1C119.9,98.8,119.6,99.2,119.1,99.3z"/>
		<path class="st5" d="M133.1,97.2l-10.7,1.6c-0.4,0.1-0.8-0.2-0.8-0.7v-1c0-0.4,0.4-0.9,0.8-0.9l10.7-1.6c0.4-0.1,0.8,0.2,0.8,0.7
			v1C134,96.7,133.6,97.1,133.1,97.2z"/>
		<path class="st5" d="M147.2,95.1l-10.7,1.6c-0.4,0.1-0.8-0.2-0.8-0.7v-1c0-0.4,0.4-0.9,0.8-0.9l10.7-1.6c0.4-0.1,0.8,0.2,0.8,0.7
			v1C148,94.6,147.6,95.1,147.2,95.1z"/>
		<path class="st5" d="M161.2,93.1l-10.7,1.6c-0.4,0.1-0.8-0.2-0.8-0.7v-1c0-0.4,0.4-0.9,0.8-0.9l10.7-1.6c0.4-0.1,0.8,0.2,0.8,0.7
			v1C162,92.6,161.7,93,161.2,93.1z"/>
		<path class="st0" d="M146.4,98.8l-38,5.6c-0.4,0.1-0.8,0.4-0.8,0.9v2c0,0.4,0.3,0.7,0.8,0.6l38-5.6c0.4-0.1,0.8-0.4,0.8-0.9v-2
			C147.1,99,146.8,98.7,146.4,98.8z"/>
	</g>
	<path class="st4" d="M173,125.3v1l-78,10.1l37.2-24.5l2.3-1.5c1.9-1.2,4.4-1.4,6.5-0.4l1.4,0.7L173,125.3z"/>
	<polygon class="st4" points="173,83.3 173,125.3 142.3,110.6 172.7,83.1 	"/>
	<polygon class="st4" points="132.2,111.8 95,136.3 94.9,136.3 94.9,90.7 	"/>
	<g>
		<g>
			<path class="st12" d="M137.3,79.2c0,0.2,0,0.4-0.2,0.6c-0.1,0.2-0.3,0.3-0.5,0.4c-0.2,0.1-0.4,0.2-0.7,0.2l-1.8,0.2l-0.1-3.9
				l2.1-0.3c0.2,0,0.3,0,0.5,0.1c0.1,0.1,0.2,0.2,0.3,0.3c0.1,0.1,0.1,0.3,0.1,0.5c0,0.2,0,0.4-0.1,0.5c-0.1,0.2-0.2,0.3-0.4,0.4
				c0.2,0,0.4,0.1,0.5,0.3C137.2,78.7,137.3,79,137.3,79.2z M135.1,77.5l0,0.6l0.7-0.1c0,0,0.1,0,0.1,0c0,0,0.1-0.1,0.1-0.1
				c0,0,0-0.1,0-0.2c0-0.1,0-0.1,0-0.2s-0.1-0.1-0.1-0.1c0,0-0.1,0-0.1,0L135.1,77.5z M136.3,79.1c0-0.1,0-0.1,0-0.2
				c0,0-0.1-0.1-0.1-0.1c0,0-0.1,0-0.1,0l-0.8,0.1l0,0.7l0.8-0.1c0.1,0,0.1,0,0.1-0.1c0,0,0.1-0.1,0.1-0.1
				C136.3,79.3,136.3,79.2,136.3,79.1z"/>
			<path class="st12" d="M138.5,76.2l1.1-0.1l1.3,3.7l-1,0.1l-0.2-0.7l-1,0.1l-0.2,0.8l-1,0.1L138.5,76.2z M139.5,78.5l-0.4-1.3
				l-0.3,1.4L139.5,78.5z"/>
			<path class="st12" d="M142.2,77.7l0,1.9l-1,0.1l-0.1-3.9l0.8-0.1l1.5,1.8l-0.1-2l1-0.1l0.1,3.9l-0.8,0.1L142.2,77.7z"/>
			<path class="st12" d="M145.1,79.2l-0.1-3.9l1-0.1l0,1.5l1.1-1.6l1.1-0.2l-1.3,1.9l1.5,2l-1.2,0.2l-0.9-1.3l-0.3,0.3l0,1.1
				L145.1,79.2z"/>
			<path class="st12" d="M149.6,76.6c0-0.2,0-0.5,0.1-0.7c0.1-0.2,0.2-0.5,0.4-0.7c0.2-0.2,0.4-0.4,0.6-0.5c0.2-0.1,0.5-0.2,0.8-0.3
				c0.4,0,0.7,0,0.9,0.1c0.3,0.1,0.5,0.3,0.6,0.5l-0.8,0.7c0-0.1-0.1-0.2-0.2-0.3s-0.2-0.1-0.3-0.1c-0.1,0-0.2,0-0.3,0
				c-0.1,0-0.3,0.1-0.4,0.1c-0.1,0.1-0.2,0.2-0.3,0.3c-0.1,0.1-0.1,0.2-0.1,0.3s0,0.2,0,0.4c0,0.1,0,0.3,0.1,0.4
				c0,0.1,0.1,0.2,0.2,0.3c0.1,0.1,0.2,0.2,0.3,0.2c0.1,0,0.2,0.1,0.4,0c0.1,0,0.2,0,0.3-0.1c0.1,0,0.2-0.1,0.3-0.2
				c0.1-0.1,0.1-0.2,0.2-0.3l0.8,0.4c-0.1,0.2-0.2,0.4-0.3,0.5c-0.2,0.2-0.4,0.3-0.6,0.4s-0.4,0.2-0.6,0.2c-0.3,0-0.5,0-0.8-0.1
				c-0.2-0.1-0.4-0.2-0.6-0.4c-0.2-0.2-0.3-0.4-0.4-0.6C149.6,77.1,149.6,76.8,149.6,76.6z"/>
			<path class="st12" d="M154.2,74.1l1.1-0.1l1.3,3.7l-1,0.1l-0.2-0.7l-1,0.1l-0.2,0.8l-1,0.1L154.2,74.1z M155.1,76.4l-0.4-1.3
				l-0.3,1.4L155.1,76.4z"/>
			<path class="st12" d="M156.9,77.6l-0.1-3.9l1.7-0.2c0.2,0,0.3,0,0.5,0c0.2,0.1,0.3,0.1,0.4,0.3c0.1,0.1,0.2,0.2,0.3,0.4
				c0.1,0.2,0.1,0.3,0.1,0.5c0,0.1,0,0.3-0.1,0.4c0,0.1-0.1,0.3-0.2,0.4c-0.1,0.1-0.2,0.2-0.3,0.3l0.8,1.3l-1.1,0.1l-0.7-1.1
				l-0.4,0.1l0,1.2L156.9,77.6z M157.8,75.4l0.6-0.1c0,0,0.1,0,0.1-0.1c0,0,0.1-0.1,0.1-0.2c0-0.1,0-0.1,0-0.2c0-0.1,0-0.2,0-0.2
				c0-0.1-0.1-0.1-0.1-0.1s-0.1,0-0.1,0l-0.6,0.1L157.8,75.4z"/>
			<path class="st12" d="M160.4,77.2l-0.1-3.9l1.4-0.2c0.4-0.1,0.7,0,1,0.1c0.3,0.1,0.5,0.3,0.6,0.6c0.1,0.3,0.2,0.6,0.2,0.9
				c0,0.4-0.1,0.7-0.2,1.1c-0.1,0.3-0.4,0.6-0.6,0.8c-0.3,0.2-0.6,0.3-1,0.4L160.4,77.2z M162.5,74.9c0-0.2,0-0.4-0.1-0.5
				c-0.1-0.1-0.2-0.2-0.3-0.3c-0.1-0.1-0.3-0.1-0.4-0.1l-0.4,0.1l0.1,2l0.4-0.1c0.2,0,0.3-0.1,0.4-0.2c0.1-0.1,0.2-0.2,0.3-0.4
				C162.5,75.3,162.5,75.1,162.5,74.9z"/>
		</g>
	</g>
</g>
<g id="coind">
	<path class="st6" d="M64.2,142.4v3.5c0,3-5.3,5.5-11.9,5.5s-11.9-2.5-11.9-5.5v-3.5c0,0.6,0.2,1.2,0.6,1.7c1.6,2.2,6,3.8,11.3,3.8
		s9.7-1.6,11.3-3.8C63.9,143.5,64.2,143,64.2,142.4z"/>
	<path class="st12" d="M63.5,144.1c-1.6,2.2-6,3.8-11.3,3.8s-9.7-1.6-11.3-3.8c1.6-2.2,6-3.8,11.3-3.8S62,141.9,63.5,144.1z"/>
	<path class="st14" d="M64.2,142.4c0,0.6-0.2,1.2-0.6,1.7c-1.6,2.2-6,3.8-11.3,3.8s-9.7-1.6-11.3-3.8c-0.4-0.5-0.6-1.1-0.6-1.7
		c0-3,5.3-5.5,11.9-5.5S64.2,139.3,64.2,142.4z"/>
	<path class="st6" d="M67.3,135v3.5c0,3-5.3,5.5-11.9,5.5s-11.9-2.5-11.9-5.5V135c0,0.6,0.2,1.2,0.6,1.7c1.6,2.2,6,3.8,11.3,3.8
		s9.7-1.6,11.3-3.8C67.1,136.1,67.3,135.6,67.3,135z"/>
	<path class="st12" d="M66.7,136.7c-1.6,2.2-6,3.8-11.3,3.8s-9.7-1.6-11.3-3.8c1.6-2.2,6-3.8,11.3-3.8S65.1,134.5,66.7,136.7z"/>
	<path class="st14" d="M67.3,135c0,0.6-0.2,1.2-0.6,1.7c-1.6,2.2-6,3.8-11.3,3.8s-9.7-1.6-11.3-3.8c-0.4-0.5-0.6-1.1-0.6-1.7
		c0-3,5.3-5.5,11.9-5.5S67.3,131.9,67.3,135z"/>
	<path class="st6" d="M59.9,129.7v3.5c0,3-5.3,5.5-11.9,5.5s-11.9-2.5-11.9-5.5v-3.5c0,0.6,0.2,1.2,0.6,1.7c1.6,2.2,6,3.8,11.3,3.8
		s9.7-1.6,11.3-3.8C59.7,130.9,59.9,130.3,59.9,129.7z"/>
	<path class="st12" d="M59.3,131.4c-1.6,2.2-6,3.8-11.3,3.8s-9.7-1.6-11.3-3.8c1.6-2.2,6-3.8,11.3-3.8S57.7,129.2,59.3,131.4z"/>
	<path class="st14" d="M59.9,129.7c0,0.6-0.2,1.2-0.6,1.7c-1.6,2.2-6,3.8-11.3,3.8s-9.7-1.6-11.3-3.8c-0.4-0.5-0.6-1.1-0.6-1.7
		c0-3,5.3-5.5,11.9-5.5S59.9,126.6,59.9,129.7z"/>
	<path class="st6" d="M94.8,136v3.5c0,3-5.3,5.5-11.9,5.5c-6.6,0-11.9-2.5-11.9-5.5V136c0,0.6,0.2,1.2,0.6,1.7
		c1.6,2.2,6,3.8,11.3,3.8c5.3,0,9.7-1.6,11.3-3.8C94.6,137.2,94.8,136.6,94.8,136z"/>
	<path class="st12" d="M94.2,137.7c-1.6,2.2-6,3.8-11.3,3.8c-5.3,0-9.7-1.6-11.3-3.8c1.6-2.2,6-3.8,11.3-3.8
		C88.2,134,92.6,135.6,94.2,137.7z"/>
	<path class="st14" d="M94.8,136c0,0.6-0.2,1.2-0.6,1.7c-1.6,2.2-6,3.8-11.3,3.8c-5.3,0-9.7-1.6-11.3-3.8c-0.4-0.5-0.6-1.1-0.6-1.7
		c0-3,5.3-5.5,11.9-5.5C89.5,130.5,94.8,133,94.8,136z"/>
	<path class="st6" d="M98,128.6v3.5c0,3-5.3,5.5-11.9,5.5c-6.6,0-11.9-2.5-11.9-5.5v-3.5c0,0.6,0.2,1.2,0.6,1.7
		c1.6,2.2,6,3.8,11.3,3.8c5.3,0,9.7-1.6,11.3-3.8C97.8,129.8,98,129.2,98,128.6z"/>
	<path class="st12" d="M97.4,130.4c-1.6,2.2-6,3.8-11.3,3.8c-5.3,0-9.7-1.6-11.3-3.8c1.6-2.2,6-3.8,11.3-3.8
		C91.3,126.6,95.8,128.2,97.4,130.4z"/>
	<path class="st14" d="M98,128.6c0,0.6-0.2,1.2-0.6,1.7c-1.6,2.2-6,3.8-11.3,3.8c-5.3,0-9.7-1.6-11.3-3.8c-0.4-0.5-0.6-1.1-0.6-1.7
		c0-3,5.3-5.5,11.9-5.5C92.6,123.1,98,125.6,98,128.6z"/>
	<g>
		<path class="st6" d="M89.5,146.6v3.5c0,3-5.3,5.5-11.9,5.5c-6.6,0-11.9-2.5-11.9-5.5v-3.5c0,0.6,0.2,1.2,0.6,1.7
			c1.6,2.2,6,3.8,11.3,3.8s9.7-1.6,11.3-3.8C89.3,147.8,89.5,147.2,89.5,146.6z"/>
		<path class="st14" d="M89.5,146.6c0,0.6-0.2,1.2-0.6,1.7c-1.6,2.2-6,3.8-11.3,3.8s-9.7-1.6-11.3-3.8c-0.4-0.5-0.6-1.1-0.6-1.7
			c0-3,5.3-5.5,11.9-5.5C84.2,141.1,89.5,143.5,89.5,146.6z"/>
	</g>
</g>
</svg>
