<?xml version="1.0" encoding="utf-8"?>
<!-- Generator: Adobe Illustrator 28.1.0, SVG Export Plug-In . SVG Version: 6.00 Build 0)  -->
<svg version="1.1" xmlns="http://www.w3.org/2000/svg" xmlns:xlink="http://www.w3.org/1999/xlink" x="0px" y="0px"
	 viewBox="0 0 380.4 288.4" style="enable-background:new 0 0 380.4 288.4;" xml:space="preserve">
<style type="text/css">
	.st0{fill:#59ABFF;stroke:#0032B8;stroke-width:2;stroke-miterlimit:10;}
	.st1{fill:#0099FF;stroke:#0032B8;stroke-width:2;stroke-miterlimit:10;}
	.st2{fill:#FFFFFF;stroke:#0032B8;stroke-width:2;stroke-miterlimit:10;}
	.st3{fill:#FFFFFF;stroke:#0032B8;stroke-width:2;stroke-miterlimit:10;stroke-dasharray:5,4,4,4,4,4;}
	.st4{fill:none;stroke:#0032B8;stroke-width:2;stroke-linecap:round;stroke-linejoin:round;stroke-miterlimit:10;}
	.st5{fill:#C0DFFF;}
	.st6{fill:#3FC6FF;stroke:#0032B8;stroke-width:2;stroke-miterlimit:10;}
	.st7{fill:#96E1FE;stroke:#0032B8;stroke-width:2;stroke-linecap:round;stroke-linejoin:round;stroke-miterlimit:10;}
	.st8{fill:#0362E1;stroke:#0032B8;stroke-width:2;stroke-linecap:round;stroke-linejoin:round;stroke-miterlimit:10;}
	.st9{fill:#139BFF;stroke:#0032B8;stroke-width:2;stroke-miterlimit:10;}
	.st10{fill:#60D7FF;}
	.st11{fill:#0387FF;stroke:#0032B8;stroke-width:2;stroke-miterlimit:10;}
	.st12{fill:none;stroke:#0032B8;stroke-width:2;stroke-linecap:round;stroke-miterlimit:10;}
	.st13{fill:#59ABFF;stroke:#0032B8;stroke-width:2;stroke-linejoin:round;stroke-miterlimit:10;}
	.st14{fill:#FFFFFF;stroke:#0032B8;stroke-width:2;stroke-linejoin:round;stroke-miterlimit:10;}
	.st15{fill:#139BFF;stroke:#0032B8;stroke-width:2;stroke-linecap:round;stroke-linejoin:round;stroke-miterlimit:10;}
	.st16{fill:#0387FF;stroke:#0032B8;stroke-width:2;stroke-linecap:round;stroke-linejoin:round;stroke-miterlimit:10;}
	.st17{fill:none;stroke:#59ABFF;stroke-width:2;stroke-linecap:round;stroke-miterlimit:10;}
	.st18{fill:none;stroke:#0362E1;stroke-width:2;stroke-linecap:round;stroke-linejoin:round;stroke-miterlimit:10;}
	.st19{fill:#59ABFF;}
	.st20{fill:#139BFF;stroke:#0032B8;stroke-width:2;stroke-linejoin:round;stroke-miterlimit:10;}
	.st21{fill:#00288A;}
	.st22{fill:#0032B8;}
	.st23{fill:none;stroke:#00288A;stroke-width:2;stroke-linecap:round;stroke-linejoin:round;stroke-miterlimit:10;}
	.st24{fill:#D4DCFF;stroke:#0032B8;stroke-width:2;stroke-miterlimit:10;}
	.st25{fill:none;stroke:#0032B8;stroke-width:2;stroke-linejoin:round;stroke-miterlimit:10;}
	.st26{fill:#FFFFFF;}
	.st27{fill:none;stroke:#0032B8;stroke-width:2;stroke-miterlimit:10;}
	.st28{opacity:0.1;fill:#002994;}
	.st29{fill:#FFFFFF;stroke:#00288A;stroke-width:2;stroke-linecap:round;stroke-linejoin:round;stroke-miterlimit:10;}
	.st30{fill:#66ACFF;}
	.st31{fill:url(#SVGID_1_);}
</style>
<g id="Main_Parts">
	<g>
		<g>
			<path class="st0" d="M-315.3-85.4l-5.3,7.7c-0.7,1-2.1,0.9-2.8-0.1l-52.3-65.5c0,0,0,0,0,0c-1.5-2.5-1.9-5.5-0.9-8.2l1.5-4.1
				c0,0,0,0,0.1-0.1c-0.2,1.2,0.1,2.9,1.4,5.1l0.3,0.6c0.3,0.6,0.7,1.2,1.1,1.7l47.8,59c1.8,2.2,4.5,3.5,7.3,3.5
				c0.4,0,0.8,0,1.2-0.1L-315.3-85.4z"/>
			<path class="st0" d="M-114.4-75v7.2c0,0.1-0.1,0.3-0.2,0.3l-119.7,40.2c-3.6,1.2-7.6,0.8-10.9-1.2l-74.4-45.5c0,0,0,0-0.1-0.1
				c-0.8-0.7-1.2-1.7-1.1-2.8l0.6-6.1c0.2-0.5,0.3,0.1,0.3,0c0,0.3-0.1,0.6,0.3,0.8l76.8,47.3c2,1.2,4.4,1.5,6.6,0.8l121-40.6
				c0.3-0.1,0.6-0.4,0.7-0.7C-114.4-75.3-114.4-75.2-114.4-75z"/>
			<path class="st1" d="M-240.4-45.7"/>
			<path class="st2" d="M-114.5-75.4c-0.1,0.3-0.4,0.5-0.7,0.7l-121,40.6c-2.2,0.8-4.6,0.5-6.6-0.8l-76.8-47.3
				c-0.3-0.2-0.5-0.5-0.5-0.9c0-0.5,0.2-1,0.8-1.2l120.4-36c0.6-0.2,1.2-0.1,1.7,0.2l82.2,43.2C-114.5-76.6-114.3-76-114.5-75.4z"/>
			<path class="st3" d="M-151.9-70.3L-235.3-42c-0.5,0.2-1.1,0.1-1.6-0.2l-40.3-23.1c-0.5-0.3-0.4-1,0.1-1.1l84.1-24.4
				c0.5-0.1,1-0.1,1.4,0.1l39.7,18.8C-151-71.6-151.1-70.5-151.9-70.3z"/>
			<path class="st2" d="M-205.2-118.4l-109.1,32.2c-0.5,0.1,0,0-1.5,0.5c-1.4,0.5-1,0.3-1.4,0.5c-3.5,1.2-3.5-0.2-7.1-4l-47.8-59
				c-0.4-0.5-0.8-1.1-1.1-1.7l-0.3-0.6c-1.3-2.2-1.6-3.9-1.4-5.1c0.4-1.9,2.1-2.8,4-3.4l110.5-30.1c2.6-0.6,5.4,0.3,7,2.5l51.6,61.6
				C-197.3-119.8-198.7-120.3-205.2-118.4z"/>
			<line class="st4" x1="-277.5" y1="-115.2" x2="-220.6" y2="-131.4"/>
			<path class="st4" d="M-244.6-99"/>
			<path class="st4" d="M-301.1-82.2"/>
			<line class="st4" x1="-295.2" y1="-77.9" x2="-239" y2="-94.6"/>
			<line class="st4" x1="-287.6" y1="-73.6" x2="-230.6" y2="-89.8"/>
			<line class="st4" x1="-281.4" y1="-120.8" x2="-225.5" y2="-136.7"/>
			<line class="st4" x1="-286" y1="-127" x2="-230.8" y2="-142.7"/>
			<line class="st4" x1="-289.9" y1="-132.2" x2="-264.8" y2="-139.3"/>
			<path class="st4" d="M-220.2-131.7"/>
			<path class="st4" d="M-277.1-115.8"/>
			<path class="st4" d="M-225.2-137.7"/>
			<path class="st4" d="M-281.8-121.8"/>
			<path class="st4" d="M-231.1-147.7"/>
			<path class="st4" d="M-267.5-137.5"/>
			<path class="st4" d="M-234.7-153.9"/>
			<path class="st4" d="M-271.1-143.6"/>
			<path class="st0" d="M-331.8-123.7c7.5-2.2,23.3-6.3,30-8.3c2-0.6,4.2,0.1,5.4,1.9l11.4,14.5c1,1.4,0.3,3.4-1.4,4.5l-29.9,8.7
				c-1.9,0-4.1-0.8-5.3-2.5l-11.5-14.9C-334.2-121.2-333.5-123.2-331.8-123.7z"/>
			<path class="st0" d="M-354.2-151.7c7.5-2.2,85.7-22.9,92.4-24.9c2-0.6,4.2,0.1,5.4,1.9l11.4,14.5c1,1.4,0.3,3.4-1.4,4.5
				l-92.3,25.2c-1.9,0-4.1-0.8-5.3-2.5l-11.5-14.9C-356.5-149.2-355.8-151.2-354.2-151.7z"/>
			<path class="st5" d="M-322.2-89.5c0,0,0.9,0.3,5.6-0.7c15-3.2,114.4-33.9,114.4-33.9l0.7,0.8c1.8,2.3,2.2,2-0.1,2.9l-111.8,32.9
				c-7.9,2.7-5.6,2.5-10-2.3L-322.2-89.5z"/>
		</g>
		<g>
			<path class="st6" d="M-49.2-117.2l-34-16.3c-1.2-0.7-2.6-0.8-3.9-0.4l-69.9,21.3c-1.9,0.7-3.9-0.7-3.9-2.7v-46l4.6-2v39.7
				l63.4-19.9c2-0.6,3.3-2.4,3.3-4.5v-20l18.3-5.4v7.6c0,0.6-0.3,1.2-0.8,1.6c-1.1,0.8-2.9,3-2.9,8.7c0,6.4,3.2,10.3,4.4,11.5
				c0.3,0.3,0.5,0.7,0.5,1.1l0,5.6c0,0.3,0.2,0.7,0.5,0.8l3.4,1.9c0.4,0.2,0.9-0.1,0.9-0.6v-6.1c0-0.3,0.2-0.6,0.5-0.6
				c1.2-0.1,3.8-2.5,3.8-7.7c0-5.4-0.8-8.9-1.9-11.2c-1.2-2.4-2.4-6.4-2.4-9.1v-3.3l-2.5-1.4l13.2-3.9l2.3,1.9l1.7,5.8v45.3l2.8,6.8
				C-47.1-117.6-48.2-116.6-49.2-117.2z"/>
			<path class="st7" d="M-160.7-160v46c0,6.7,0.6,6.9,1.7,7.6l31.7,16.9v-51.9L-160.7-160z M-143.1-117.3c-0.2,0.1-0.4,0.4-0.4,0.7
				v5.5c0,1-1.1,1.6-1.9,1l-2.1-1.4c-0.5-0.3-0.7-0.8-0.7-1.4v-5.3c0-0.5-0.2-0.9-0.5-1.2c-1.3-1.3-4.4-5.1-4.4-11.5
				c0-6.3,2.3-8.3,3.3-8.9c0.2-0.1,0.4-0.4,0.4-0.7v-11.3l5.6,3.2c0.3,0.1,0.4,0.4,0.4,0.7v9.5c0,0.2,0.1,0.4,0.2,0.6
				c0.9,0.9,4.1,4.6,4.1,12.6C-139.2-120-142-117.9-143.1-117.3z"/>
			<path class="st2" d="M-127-187.7l-0.3,98.2c0,0,1.3,0.9,3,0.5c1.6-0.4,63.3-21.4,75.9-25.7c1.3-0.5,2.2-1.7,2.2-3.1v-89.5
				L-127-187.7z M-53.7-127.4c0,2.3-1.5,4.3-3.6,5.1l-53.1,18c-3.5,1.2-7.1-1.4-7.1-5.1v-36.5c0-2.4,1.5-4.4,3.8-5.1l56.7-17
				c1.7-0.5,3.4,0.8,3.4,2.5V-127.4z"/>
			<path class="st8" d="M-117.5-170v9c0,0.6,0.4,1.1,0.9,0.9l62.3-18.3c0.4-0.2,0.6-0.6,0.6-1.2v-8.8c0-0.7-0.5-1.2-1-1.1l-62,17.8
				C-117.2-171.3-117.5-170.7-117.5-170z"/>
		</g>
		<g>
			<path class="st9" d="M-39.6-251.4c-0.1-1.1-0.7-2.1-1.5-2.9c-0.9-0.9-2.1-1.4-3.5-1.3c-6.5,0.2-18.8,1.9-35.5,6.3
				c-29.5,7.8-39.7,12.4-47.2,15.3c-1.9,0.7-3.1,3.4-3.1,5.4l-0.1,0c-0.2-2.1-1.4-7.5-7.5-12.9c-1.1-1-2.4-2-3.8-2.9
				c-11.7-7.8-19-9.6-21.6-8.8c-1.7,0.5-3.4,1.4-4.4,3.6v0c0,0,2.8-11.3,15.3-15.7c12.6-4.4,22-6.6,35.7-10.1
				c9.9-2.5,24.6-4.9,24.6-4.9s5.1-1.4,10.8,0.4c5.8,1.8,16.8,5.7,20.9,7.8c4.1,2,14.8,6.8,17.2,9.6C-41-260.2-39.8-259-39.6-251.4z
				"/>
			<path class="st10" d="M-41.1-254.3c-0.9-0.9-2.1-1.4-3.5-1.3c-6.5,0.2-18.8,1.9-35.5,6.3c-29.5,7.8-39.7,12.4-47.2,15.3
				c-1.9,0.7-3.1,3.4-3.1,5.4v0.5h0c-0.1-1.7-1-7.6-7.5-13.4c0,0,0,0,0,0s4.6,2.2,14.2,0c9.6-2.2,28.1-8.1,38.7-10.7
				c10.6-2.6,30.3-6.3,34.5-6.9c5.5-0.8,5.7-3.5,6.3-2.8c0.3,0.4,0.7,0.7,1,1c1.2,1.4,1.9,3.2,2,5.1v0.2L-41.1-254.3z"/>
			<path class="st11" d="M-130.3-227.7v85.3c0,3-1.5,2.1-1.5,2.1s-30.1-17-33.9-19.2c-2.8-1.7-2.7-6.3-2.7-6.3s-0.2-73-0.2-78.9
				c0-2.2,0.4-3.8,0.9-5.1c1-2.1,2.7-3.1,4.4-3.6c2.7-0.8,10,1,21.6,8.8c1.4,1,2.7,2,3.8,2.9c6,5.4,7.2,10.8,7.5,12.9
				c0,0.2,0,0.3,0,0.5C-130.3-227.9-130.3-227.8-130.3-227.7z"/>
			<path class="st9" d="M-39.6-248.3v80.8c0,3.8-1.3,3.7-1.3,3.7s-4.6,2.1-6.1,2.6c-1.5,0.5-1.1-2.6-1.1-2.6s0-30.1,0-33.7
				c0-3.6-1.8-2.6-1.8-2.6s-67.6,19.2-70.5,20.1c-2.9,0.9-2.6,3.4-2.6,3.4s0,28.6,0,31.5s-1.7,3.3-1.7,3.3l-5.6,1.7
				c-0.5,0.2,0,0,0-0.5v-88.1c0-2,1.2-4.7,3.1-5.4c7.5-2.9,17.7-7.6,47.2-15.3c16.7-4.4,29-6.1,35.5-6.3c1.4-0.1,2.6,0.5,3.5,1.3
				c0.8,0.8,1.3,1.8,1.5,2.9C-39.6-250.4-39.6-249.4-39.6-248.3z"/>
			<path class="st2" d="M-151.5-265.6c-0.6,0.2-0.6,1,0.1,1.1c3.7,0.7,13.2,4.8,18.7,7.7c6.4,3.4,10,5,11.5,6.1
				c0.4,0.3,1.2,0.3,1.2,0.3c10.2-3.2,20.1-5.8,31.9-8.4c8.5-1.9,16.8-3.5,24.6-4.8c0.2-0.1,0.6-0.2,0.8-0.5
				c0.1-0.2,0.2-0.4,0.2-0.7c0-1.8-13.4-7.1-18.4-8.9c-4.8-1.8-14-4.1-17.7-4.6c-1.1-0.1-3.5,0.2-4.6,0.4c-3.3,0.5-6.3,1.5-16.1,3.8
				C-129.4-271.8-146.2-267-151.5-265.6z"/>
			<line class="st12" x1="-162.3" y1="-232.5" x2="-141.6" y2="-222.8"/>
			<line class="st12" x1="-162.3" y1="-224.1" x2="-141.6" y2="-214.4"/>
			<path class="st8" d="M-159.4-165.5l17.4,9c0.9,0.4,1.6-0.3,1.6-1.3c0-4.7-3.3-14.3-9.2-17.4c-6.6-3.4-10.4,4.3-10.3,8.4
				C-159.9-166.3-159.9-165.8-159.4-165.5z"/>
		</g>
	</g>
</g>
<g id="Laptop">
	<g id="Paper_00000100382696540026258530000009010217779987741338_">
		<g>
			<polygon class="st13" points="298.3,-109.2 222.9,-150.8 222.9,-222.6 298.3,-181 			"/>
			<polygon class="st14" points="298.3,-180.6 222.9,-222.6 293.8,-244 369.2,-202.5 			"/>
			<polygon class="st7" points="298.3,-109.2 369.2,-130.8 369.2,-202.5 298.3,-181 			"/>
		</g>
		<polygon class="st15" points="321,-221.2 268.5,-206.8 242.7,-220.2 294,-235.5 		"/>
		<g>
			<g>
				<line class="st4" x1="278.6" y1="-201.4" x2="320.4" y2="-213.3"/>
				<line class="st4" x1="290.5" y1="-194.6" x2="322.3" y2="-203.7"/>
				<line class="st4" x1="297" y1="-190.9" x2="328.8" y2="-200"/>
				<line class="st4" x1="284.5" y1="-198.3" x2="335.4" y2="-212.6"/>
			</g>
			<g>
				<line class="st4" x1="299" y1="-172.4" x2="349.9" y2="-187.9"/>
				<line class="st4" x1="299" y1="-117.3" x2="349.9" y2="-132.9"/>
				<line class="st4" x1="299" y1="-149.6" x2="334.7" y2="-160.6"/>
				<line class="st4" x1="299" y1="-127.3" x2="334.7" y2="-138.2"/>
				<line class="st4" x1="299" y1="-145.7" x2="322.5" y2="-152.9"/>
				<line class="st4" x1="345.7" y1="-138" x2="369.2" y2="-145.2"/>
				<line class="st4" x1="334.7" y1="-172" x2="369.2" y2="-182.6"/>
			</g>
			<g>
				<line class="st4" x1="222.9" y1="-217.3" x2="265.8" y2="-193.4"/>
				<line class="st4" x1="222.9" y1="-210.9" x2="248" y2="-196.9"/>
				<line class="st4" x1="222.9" y1="-183.3" x2="244.3" y2="-171.4"/>
				<line class="st4" x1="222.9" y1="-165.8" x2="244.3" y2="-153.9"/>
				<line class="st4" x1="273.2" y1="-163.8" x2="298.3" y2="-149.8"/>
				<line class="st4" x1="251.5" y1="-143.2" x2="298.3" y2="-117.1"/>
				<line class="st4" x1="255.4" y1="-179.8" x2="298.3" y2="-155.9"/>
				<line class="st4" x1="222.9" y1="-170.4" x2="265.8" y2="-146.5"/>
			</g>
		</g>
	</g>
	<g id="Laptop_00000060000672989768699520000006685087249007061413_">
		<g>
			<path class="st16" d="M207.9-265c-0.3,0-5.5,6.2-2.3,4.2l-2.4,0L62-218.9c-1,0.3-1.7,1.2-1.7,2.2v97.8c0,0.5,0.1,2,0.4,2.3
				L52-122l-1.3-1c-0.3-0.4-0.4-0.8-0.4-1.3V-223c0-1,0.7-2.7,1.7-3l148.2-44c0.4-0.1,0.9-0.1,1.2,0l1.5,1.1L207.9-265z"/>
			<path class="st15" d="M198.5-263.6v90.8c0,1-0.7,2-1.7,2.2L55.6-128.7v-90.8c0-1,0.7-2,1.7-2.2L198.5-263.6z"/>
			<path class="st15" d="M208.5-263.5v97.8c0,1-0.7,2-1.7,2.3l-148.2,44c-0.4,0.1-0.8,0.1-1.2,0c-0.6-0.1-1.1-0.5-1.4-1
				c-0.2-0.4-0.4-0.8-0.4-1.3v-97.8c0-1,0.7-2,1.7-2.2l141.2-41.9l7-2.1c0.3-0.1,0.5-0.1,0.8-0.1c0.9,0,1.8,0.7,2.1,1.6
				C208.4-264,208.5-263.7,208.5-263.5z"/>
		</g>
		<path class="st14" d="M201.7-252.6v79.9c0,0.9-0.6,1.6-1.5,1.9l-135,40c-0.4,0.1-0.8,0.1-1.1,0.1c-0.5-0.1-1-0.4-1.3-0.8
			c-0.2-0.3-0.3-0.6-0.3-1v-79.9c0-0.8,0.6-1.6,1.5-1.9l128.6-38.1l6.4-1.9c0.2-0.1,0.5-0.1,0.7-0.1c0.9,0,1.6,0.5,1.9,1.2
			C201.6-253,201.7-252.8,201.7-252.6z"/>
		<g>
			<path class="st15" d="M267.5-119.5L131.8-76.8c-3,1-6.3,0.5-9-1.1l-55-34.1l140.8-41.7L267.5-119.5z"/>
			<path class="st6" d="M275.9-122.3c-0.2,0.2-0.4,0.3-0.7,0.4l-7.7,2.4L131.8-76.8c-3,1-6.3,0.5-9-1.1l-55-34.1l-8.9-5.5
				c-0.1-0.1-0.2-0.1-0.3-0.2c-0.8-0.8-0.5-2.2,0.6-2.5l149.3-44.2l67.1,38.8C276.9-124.9,276.9-123.2,275.9-122.3z"/>
			<path class="st8" d="M276.5-122.6v10.8c-0.2,0.2-0.4,0.3-0.7,0.4L131.8-66c-3,1-6.3,0.5-9-1.1l-64-39.6c-0.1-0.1-0.2-0.1-0.3-0.2
				v-10.8c0.1,0.1,0.2,0.2,0.3,0.2l8.9,5.5l55,34.1c2.7,1.7,6,2.1,9,1.1l135.7-42.8l8.4-2.7C276.1-122.4,276.3-122.5,276.5-122.6z"
				/>
		</g>
		<g>
			<polygon class="st13" points="129.5,-164.1 115.9,-160 115.9,-191.9 129.5,-195.9 			"/>
			<polygon class="st13" points="190.1,-181.7 176.5,-177.6 176.5,-219.7 190.1,-223.8 			"/>
			<polygon class="st13" points="169,-175.5 155.3,-171.4 155.3,-201.3 169,-205.4 			"/>
			<polygon class="st13" points="149.5,-170.1 135.9,-166 135.9,-190 149.5,-194.1 			"/>
		</g>
		<g>
			<line class="st17" x1="70.3" y1="-206.8" x2="101.2" y2="-215.5"/>
			<line class="st17" x1="70.3" y1="-199" x2="101.2" y2="-207.7"/>
			<line class="st17" x1="70.3" y1="-191.5" x2="101.2" y2="-200.1"/>
			<line class="st17" x1="70.3" y1="-183.9" x2="89.2" y2="-189.2"/>
			<line class="st17" x1="70.3" y1="-152.1" x2="89.2" y2="-157.5"/>
			<line class="st17" x1="70.3" y1="-145.5" x2="89.2" y2="-150.8"/>
			<line class="st17" x1="70.3" y1="-176" x2="95.5" y2="-183.1"/>
			<line class="st17" x1="70.3" y1="-168.5" x2="85.7" y2="-172.8"/>
		</g>
		<g>
			
				<ellipse transform="matrix(0.651 -0.7591 0.7591 0.651 195.673 22.9826)" class="st17" cx="122.8" cy="-201.3" rx="2.3" ry="1.7"/>
			
				<ellipse transform="matrix(0.651 -0.7591 0.7591 0.651 200.3176 38.9856)" class="st17" cx="142.6" cy="-198.4" rx="2.2" ry="1.6"/>
			
				<ellipse transform="matrix(0.651 -0.7591 0.7591 0.651 239.1969 58.6824)" class="st17" cx="183.4" cy="-230.8" rx="2.2" ry="1.6"/>
			<line class="st18" x1="128.3" y1="-201.3" x2="137" y2="-199.4"/>
			<line class="st18" x1="147.4" y1="-202.2" x2="177.6" y2="-227"/>
		</g>
		<g>
			<path class="st7" d="M247.8-124.1c-0.1,0.1-0.3,0.2-0.5,0.3l-5.7,1.8L141.3-90.4c-2.2,0.7-4.7,0.4-6.7-0.8L94-116.4l-6.6-4.1
				c-0.1,0-0.1-0.1-0.2-0.2c-0.6-0.6-0.4-1.6,0.5-1.8L198-155.2l49.6,28.7C248.6-126,248.6-124.7,247.8-124.1z"/>
			<path class="st7" d="M160.9-108.1l46.8-14.4l11.4,6.6c0.2,0.1,0.2,0.4,0,0.6c0,0-0.1,0-0.1,0.1l-1.3,0.4l-44.4,14.2
				c-0.5,0.2-1.1,0.1-1.5-0.2l-9.4-5.8l-1.5-0.9"/>
			<g>
				<line class="st4" x1="103.7" y1="-127.3" x2="156.9" y2="-95.3"/>
				<line class="st4" x1="182.6" y1="-150.5" x2="234" y2="-119.6"/>
				<line class="st4" x1="119.9" y1="-132.1" x2="172.6" y2="-100.6"/>
				<line class="st4" x1="137.3" y1="-137.2" x2="177.3" y2="-113.1"/>
				<line class="st4" x1="154.4" y1="-142.1" x2="193.4" y2="-118.5"/>
				<line class="st4" x1="168.2" y1="-146.2" x2="207.4" y2="-122.6"/>
			</g>
			<line class="st4" x1="99.7" y1="-112.9" x2="210.9" y2="-147.5"/>
			<line class="st4" x1="112.9" y1="-104.7" x2="225.6" y2="-139.3"/>
			<line class="st4" x1="125.6" y1="-96.9" x2="238.1" y2="-132.1"/>
		</g>
	</g>
	<g>
		<g>
			<path class="st15" d="M121.2-68.2c0,0.6-0.4,1.2-1.1,1.4l-7.3,2.2l-33.4,10c-1.6,0.5-3.3,0.2-4.7-0.6L30.2-82.6l-7.7-4.7
				c-0.5-0.3-0.7-0.8-0.7-1.3c0-0.6,0.4-1.2,1.1-1.4l41.3-12.3c1.2-0.4,2.5-0.2,3.6,0.5l52.8,32.4C121-69.1,121.2-68.7,121.2-68.2z"
				/>
			<path class="st8" d="M121.2-68.2v9.6c0,0.6-0.4,1.2-1.1,1.4L79.4-44.9c-1.6,0.5-3.3,0.2-4.7-0.6L22.5-77.7
				c-0.5-0.3-0.7-0.8-0.7-1.3v-9.6c0,0.5,0.2,1,0.7,1.3l7.7,4.7l44.5,27.4c1.4,0.9,3.1,1.1,4.7,0.6l33.4-10l7.3-2.2
				C120.9-66.9,121.2-67.6,121.2-68.2z"/>
		</g>
		<path class="st7" d="M76.8-90.5c0,0.5-0.3,0.9-0.8,1.1l-5.4,1.6l-24.5,7.4c-1.2,0.3-2.4,0.2-3.5-0.5l-2.1-1.3l-5.7-3.5
			c-0.4-0.2-0.5-0.6-0.5-0.9c0-0.5,0.3-0.9,0.8-1.1l30.4-9.2c0.9-0.3,1.9-0.1,2.6,0.3l8.2,5C76.7-91.3,76.8-90.9,76.8-90.5z"/>
		<g>
			<path class="st2" d="M61-76.8l-5.4,1.6c-0.6,0.2-1.3,0.1-2-0.2l-2.8-1.5c-0.6-0.3-0.5-1.1,0.1-1.3l5.4-1.7c0.7-0.2,1.4-0.1,2,0.2
				l2.9,1.5C61.7-77.8,61.6-77,61-76.8z"/>
			<path class="st2" d="M73.3-80.6L67.9-79c-0.6,0.2-1.3,0.1-2-0.2l-2.8-1.5c-0.6-0.3-0.5-1.1,0.1-1.3l5.4-1.7
				c0.7-0.2,1.4-0.1,2,0.2l2.9,1.5C74-81.6,74-80.8,73.3-80.6z"/>
			<path class="st2" d="M84.9-84.4l-5.4,1.6c-0.6,0.2-1.3,0.1-2-0.2l-2.8-1.5c-0.6-0.3-0.5-1.1,0.1-1.3l5.4-1.7
				c0.7-0.2,1.4-0.1,2,0.2l2.9,1.5C85.6-85.5,85.5-84.6,84.9-84.4z"/>
			<path class="st2" d="M69.5-71.8l-5.4,1.6c-0.6,0.2-1.3,0.1-2-0.2l-2.8-1.5c-0.6-0.3-0.5-1.1,0.1-1.3l5.4-1.7
				c0.7-0.2,1.4-0.1,2,0.2l2.9,1.5C70.2-72.8,70.1-72,69.5-71.8z"/>
			<path class="st2" d="M81.9-75.6l-5.4,1.6c-0.6,0.2-1.3,0.1-2-0.2l-2.8-1.5c-0.6-0.3-0.5-1.1,0.1-1.3l5.4-1.7
				c0.7-0.2,1.4-0.1,2,0.2l2.9,1.5C82.6-76.6,82.5-75.8,81.9-75.6z"/>
			<path class="st2" d="M94.5-79.5L89-77.8c-0.6,0.2-1.3,0.1-2-0.2l-2.8-1.5c-0.6-0.3-0.5-1.1,0.1-1.3l5.4-1.7
				c0.7-0.2,1.4-0.1,2,0.2l2.9,1.5C95.1-80.5,95.1-79.7,94.5-79.5z"/>
			<path class="st2" d="M78.3-66.8l-5.4,1.6c-0.6,0.2-1.3,0.1-2-0.2l-2.8-1.5c-0.6-0.3-0.5-1.1,0.1-1.3l5.4-1.7
				c0.7-0.2,1.4-0.1,2,0.2l2.9,1.5C79-67.8,79-67,78.3-66.8z"/>
			<path class="st6" d="M112.3-68.5l-30.8,9c-0.6,0.2-1.3,0.1-2-0.2l-2.8-1.5c-0.6-0.3-0.5-1.1,0.1-1.3l30.7-9.1
				c0.7-0.2,1.4-0.1,2,0.2l2.9,1.5C113-69.5,112.9-68.7,112.3-68.5z"/>
			<path class="st2" d="M90.5-70.6L85-68.9c-0.6,0.2-1.3,0.1-2-0.2l-2.8-1.5c-0.6-0.3-0.5-1.1,0.1-1.3l5.4-1.7
				c0.7-0.2,1.4-0.1,2,0.2l2.9,1.5C91.2-71.6,91.1-70.8,90.5-70.6z"/>
			<path class="st2" d="M103.3-74.4l-5.4,1.6c-0.6,0.2-1.3,0.1-2-0.2l-2.8-1.5c-0.6-0.3-0.5-1.1,0.1-1.3l5.4-1.7
				c0.7-0.2,1.4-0.1,2,0.2l2.9,1.5C104-75.4,104-74.6,103.3-74.4z"/>
		</g>
	</g>
	<g id="Paper_00000181784554094892997910000005181633956721342646_">
		<g>
			<polygon class="st13" points="-187.3,218.5 -285.5,164.5 -285.5,71.2 -187.3,125.2 			"/>
			<polygon class="st14" points="-187.3,125.7 -285.5,71.2 -193.2,43.3 -95.2,97.2 			"/>
			<polygon class="st7" points="-187.3,218.5 -95.2,190.5 -95.2,97.2 -187.3,125.2 			"/>
		</g>
		<polygon class="st15" points="-157.8,73 -226.1,91.6 -259.7,74.2 -193,54.3 		"/>
		<g>
			<g>
				<line class="st4" x1="-213" y1="98.7" x2="-158.7" y2="83.2"/>
				<line class="st4" x1="-197.6" y1="107.5" x2="-156.2" y2="95.7"/>
				<line class="st4" x1="-189.1" y1="112.3" x2="-147.7" y2="100.5"/>
				<line class="st4" x1="-205.4" y1="102.8" x2="-139.1" y2="84.2"/>
			</g>
			<g>
				<line class="st4" x1="-186.5" y1="136.5" x2="-120.3" y2="116.2"/>
				<line class="st4" x1="-186.5" y1="208.1" x2="-120.3" y2="187.8"/>
				<line class="st4" x1="-186.5" y1="166" x2="-140" y2="151.8"/>
				<line class="st4" x1="-186.5" y1="195.1" x2="-140" y2="180.9"/>
				<line class="st4" x1="-186.5" y1="171.1" x2="-156" y2="161.8"/>
				<line class="st4" x1="-125.8" y1="181.1" x2="-95.2" y2="171.8"/>
				<line class="st4" x1="-140.1" y1="136.9" x2="-95.2" y2="123.2"/>
			</g>
			<g>
				<line class="st4" x1="-285.5" y1="78" x2="-229.7" y2="109.1"/>
				<line class="st4" x1="-285.5" y1="86.3" x2="-252.8" y2="104.5"/>
				<line class="st4" x1="-285.5" y1="122.2" x2="-257.6" y2="137.7"/>
				<line class="st4" x1="-285.5" y1="144.9" x2="-257.6" y2="160.5"/>
				<line class="st4" x1="-220" y1="147.6" x2="-187.3" y2="165.8"/>
				<line class="st4" x1="-248.2" y1="174.3" x2="-187.3" y2="208.3"/>
				<line class="st4" x1="-243.1" y1="126.8" x2="-187.3" y2="157.9"/>
				<line class="st4" x1="-285.5" y1="139" x2="-229.7" y2="170.1"/>
			</g>
		</g>
	</g>
</g>
<g id="Bank_Card">
	<g id="letter_00000168829592763054780660000004515429111186327448_">
		<path class="st8" d="M746.3,98.1l-67.2,71.3l-3.1-1c-4.6-1.5-9.9-0.2-14.3,3.2l-5.1,4.1L575,142.2v-0.9c0,0,62.8-55.4,77.3-68.3
			c8.8-7.8,15.4-4.4,15.4-4.4L746.3,98.1z"/>
		<g id="Card_00000093868705891425987580000012843464529343233948_">
			<path class="st2" d="M724.1,159.1l-124.2,37.3c-6.8,2-12.3-1.5-12.3-7.9v-70c0-6.4,5.5-13.2,12.3-15.2L724.1,66
				c6.8-2,12.3,1.5,12.3,7.9v70C736.4,150.3,730.9,157.1,724.1,159.1z"/>
			<g>
				<path class="st7" d="M619.3,120v6.2l-9.7,2.9v-3.5c0-1.5,1.5-3.1,3.3-3.8L619.3,120z"/>
				<polygon class="st7" points="619.3,126.1 619.3,132.1 609.6,135.2 609.6,129 				"/>
				<path class="st7" d="M619.3,132.1v6.2l-6.2,1.9c-2,0.5-3.3-0.1-3.3-1.7v-3.3L619.3,132.1z"/>
				<path class="st7" d="M634.7,117.9v13c0,1.5-1.5,3.1-3.3,3.8l-12.1,3.7v-18.3l12.1-3.7C633.1,115.5,634.7,116.4,634.7,117.9z"/>
			</g>
			<path class="st19" d="M628.3,152.6l-23.6,7.3c-0.9,0.4-1.8-0.2-1.8-1.3v-2.2c0-0.9,0.9-2.1,1.8-2.3l23.6-7.3
				c0.9-0.4,1.8,0.2,1.8,1.3v2.2C630,151.3,629.4,152.2,628.3,152.6z"/>
			<path class="st19" d="M659.1,143.1l-23.6,7.3c-0.9,0.4-1.8-0.2-1.8-1.3v-2.2c0-0.9,0.9-2.1,1.8-2.3l23.6-7.3
				c0.9-0.4,1.8,0.2,1.8,1.3v2.2C661.1,141.7,660.2,142.7,659.1,143.1z"/>
			<path class="st19" d="M690.2,133.5l-23.6,7.3c-0.9,0.4-1.8-0.2-1.8-1.3v-2.2c0-0.9,0.9-2.1,1.8-2.3l23.6-7.3
				c0.9-0.4,1.8,0.2,1.8,1.3v2.2C691.9,132.1,691,133.3,690.2,133.5z"/>
			<path class="st19" d="M721,124.1l-23.6,7.3c-0.9,0.4-1.8-0.2-1.8-1.3V128c0-0.9,0.9-2.1,1.8-2.3l23.6-7.3
				c0.9-0.4,1.8,0.2,1.8,1.3v2.2C722.7,122.8,722.1,123.7,721,124.1z"/>
			<path class="st19" d="M688.4,141.9l-83.7,25.7c-0.9,0.4-1.8,1.2-1.8,2.3v4.4c0,0.9,0.7,1.4,1.8,1l83.7-25.7
				c0.9-0.4,1.8-1.2,1.8-2.3V143C689.9,142.1,689.3,141.6,688.4,141.9z"/>
		</g>
		<path class="st20" d="M747,190.9v2.2l-171.8,49.7l81.9-67.1l5.1-4.1c4.2-3.3,9.7-4.6,14.3-3.2l3.1,1L747,190.9z"/>
		<polygon class="st9" points="747,98.4 747,190.9 679.4,169.3 746.3,98.1 		"/>
		<polygon class="st9" points="657.1,175.5 575.2,242.6 575,242.6 575,142.2 		"/>
	</g>
	<g id="coind_00000095302277927377994350000005088917380353377949_">
		<path class="st9" d="M511.5,244.6v7.7c0,6.6-11.7,12.1-26.2,12.1s-26.2-5.5-26.2-12.1v-7.7c0,1.3,0.4,2.6,1.3,3.7
			c3.5,4.8,13.2,8.4,24.9,8.4c11.7,0,21.4-3.5,24.9-8.4C510.8,247.1,511.5,246,511.5,244.6z"/>
		<path class="st21" d="M509.9,248.4c-3.5,4.8-13.2,8.4-24.9,8.4s-21.4-3.5-24.9-8.4c3.5-4.8,13.2-8.4,24.9-8.4
			S506.6,243.5,509.9,248.4z"/>
		<path class="st2" d="M511.5,244.6c0,1.3-0.4,2.6-1.3,3.7c-3.5,4.8-13.2,8.4-24.9,8.4s-21.4-3.5-24.9-8.4c-0.9-1.1-1.3-2.4-1.3-3.7
			c0-6.6,11.7-12.1,26.2-12.1C499.8,232.5,511.5,237.8,511.5,244.6z"/>
		<path class="st9" d="M518.3,228.3v7.7c0,6.6-11.7,12.1-26.2,12.1s-26.2-5.5-26.2-12.1v-7.7c0,1.3,0.4,2.6,1.3,3.7
			c3.5,4.8,13.2,8.4,24.9,8.4c11.7,0,21.4-3.5,24.9-8.4C517.8,230.8,518.3,229.7,518.3,228.3z"/>
		<path class="st21" d="M517,232.1c-3.5,4.8-13.2,8.4-24.9,8.4c-11.7,0-21.4-3.5-24.9-8.4c3.5-4.8,13.2-8.4,24.9-8.4
			C503.8,223.7,513.4,227.2,517,232.1z"/>
		<path class="st2" d="M518.3,228.3c0,1.3-0.4,2.6-1.3,3.7c-3.5,4.8-13.2,8.4-24.9,8.4s-21.4-3.5-24.9-8.4c-0.9-1.1-1.3-2.4-1.3-3.7
			c0-6.6,11.7-12.1,26.2-12.1S518.3,221.5,518.3,228.3z"/>
		<path class="st9" d="M502,216.7v7.7c0,6.6-11.7,12.1-26.2,12.1s-26.2-5.5-26.2-12.1v-7.7c0,1.3,0.4,2.6,1.3,3.7
			c3.5,4.8,13.2,8.4,24.9,8.4c11.7,0,21.4-3.5,24.9-8.4C501.5,219.3,502,218,502,216.7z"/>
		<path class="st21" d="M500.7,220.4c-3.5,4.8-13.2,8.4-24.9,8.4s-21.4-3.5-24.9-8.4c3.5-4.8,13.2-8.4,24.9-8.4
			S497.1,215.6,500.7,220.4z"/>
		<path class="st2" d="M502,216.7c0,1.3-0.4,2.6-1.3,3.7c-3.5,4.8-13.2,8.4-24.9,8.4s-21.4-3.5-24.9-8.4c-0.9-1.1-1.3-2.4-1.3-3.7
			c0-6.6,11.7-12.1,26.2-12.1C490.3,204.6,502,209.9,502,216.7z"/>
		<path class="st9" d="M578.8,230.6v7.7c0,6.6-11.7,12.1-26.2,12.1s-26.2-5.5-26.2-12.1v-7.7c0,1.3,0.4,2.6,1.3,3.7
			c3.5,4.8,13.2,8.4,24.9,8.4s21.4-3.5,24.9-8.4C578.4,233.2,578.8,231.9,578.8,230.6z"/>
		<path class="st21" d="M577.5,234.3c-3.5,4.8-13.2,8.4-24.9,8.4c-11.7,0-21.4-3.5-24.9-8.4c3.5-4.8,13.2-8.4,24.9-8.4
			C564.3,226.1,574,229.7,577.5,234.3z"/>
		<path class="st2" d="M578.8,230.6c0,1.3-0.4,2.6-1.3,3.7c-3.5,4.8-13.2,8.4-24.9,8.4s-21.4-3.5-24.9-8.4c-0.9-1.1-1.3-2.4-1.3-3.7
			c0-6.6,11.7-12.1,26.2-12.1S578.8,223.9,578.8,230.6z"/>
		<path class="st9" d="M585.9,214.3v7.7c0,6.6-11.7,12.1-26.2,12.1s-26.2-5.5-26.2-12.1v-7.7c0,1.3,0.4,2.6,1.3,3.7
			c3.5,4.8,13.2,8.4,24.9,8.4s21.4-3.5,24.9-8.4C585.4,216.9,585.9,215.6,585.9,214.3z"/>
		<path class="st21" d="M584.6,218.2c-3.5,4.8-13.2,8.4-24.9,8.4s-21.4-3.5-24.9-8.4c3.5-4.8,13.2-8.4,24.9-8.4
			C571.1,209.9,581,213.4,584.6,218.2z"/>
		<path class="st2" d="M585.9,214.3c0,1.3-0.4,2.6-1.3,3.7c-3.5,4.8-13.2,8.4-24.9,8.4s-21.4-3.5-24.9-8.4c-0.9-1.1-1.3-2.4-1.3-3.7
			c0-6.6,11.7-12.1,26.2-12.1C574,202.1,585.9,207.6,585.9,214.3z"/>
		<g>
			<path class="st9" d="M567.2,253.9v7.7c0,6.6-11.7,12.1-26.2,12.1c-14.5,0-26.2-5.5-26.2-12.1v-7.7c0,1.3,0.4,2.6,1.3,3.7
				c3.5,4.8,13.2,8.4,24.9,8.4c11.7,0,21.4-3.5,24.9-8.4C566.7,256.5,567.2,255.2,567.2,253.9z"/>
			<path class="st2" d="M567.2,253.9c0,1.3-0.4,2.6-1.3,3.7c-3.5,4.8-13.2,8.4-24.9,8.4c-11.7,0-21.4-3.5-24.9-8.4
				c-0.9-1.1-1.3-2.4-1.3-3.7c0-6.6,11.7-12.1,26.2-12.1C555.5,241.8,567.2,247.1,567.2,253.9z"/>
		</g>
	</g>
	<g>
		<g>
			<path class="st22" d="M669.9,98.1c0,0.5-0.2,1-0.4,1.4c-0.3,0.4-0.6,0.8-1.1,1.1c-0.5,0.3-1,0.5-1.5,0.7l-4.1,1.3l0.2-8.7
				l4.9-1.5c0.4-0.1,0.7-0.1,1,0c0.3,0.1,0.5,0.3,0.6,0.6c0.1,0.3,0.2,0.6,0.2,1c0,0.4-0.1,0.8-0.3,1.3c-0.2,0.4-0.5,0.8-0.9,1.1
				c0.5,0,0.9,0.1,1.1,0.4C669.8,97,669.9,97.5,669.9,98.1z M667.6,98.3c0-0.1,0-0.3-0.1-0.4s-0.1-0.2-0.2-0.2s-0.2,0-0.3,0
				l-1.9,0.6l0,1.5l1.8-0.6c0.1,0,0.2-0.1,0.3-0.2c0.1-0.1,0.2-0.2,0.2-0.3C667.6,98.6,667.6,98.4,667.6,98.3z M665.2,95.1l0,1.3
				l1.6-0.5c0.1,0,0.2-0.1,0.3-0.1c0.1-0.1,0.2-0.2,0.2-0.3c0.1-0.1,0.1-0.3,0.1-0.4c0-0.2,0-0.3-0.1-0.4c0-0.1-0.1-0.1-0.2-0.1
				c-0.1,0-0.2,0-0.3,0L665.2,95.1z"/>
			<path class="st22" d="M673,90.7l2.6-0.8l2.5,7.9l-2.3,0.7l-0.4-1.6l-2.4,0.7l-0.5,1.8l-2.4,0.7L673,90.7z M675,95.5l-0.7-2.8
				l-0.8,3.3L675,95.5z"/>
			<path class="st22" d="M681.2,92.6l-0.1,4.3l-2.3,0.7l0.2-8.7l1.8-0.5l3.3,3.4l0.1-4.4l2.3-0.7l-0.2,8.7l-1.8,0.6L681.2,92.6z"/>
			<path class="st22" d="M687.7,94.9l0.2-8.7l2.3-0.7l-0.1,3.3l2.6-4.1l2.6-0.8l-3.1,4.8l3.2,3.8l-2.6,0.8l-2-2.6l-0.7,0.9l-0.1,2.5
				L687.7,94.9z"/>
			<path class="st22" d="M698.1,87.3c0-0.5,0.1-1.1,0.3-1.7c0.2-0.6,0.5-1.1,0.9-1.6c0.4-0.5,0.8-1,1.4-1.4c0.5-0.4,1.1-0.7,1.8-0.9
				c0.8-0.2,1.5-0.3,2.1-0.1c0.6,0.2,1,0.5,1.3,1l-1.8,1.8c-0.1-0.3-0.2-0.4-0.4-0.5c-0.2-0.1-0.4-0.1-0.6-0.1c-0.2,0-0.4,0-0.7,0.1
				c-0.3,0.1-0.6,0.3-0.9,0.5c-0.2,0.2-0.4,0.4-0.6,0.7c-0.2,0.3-0.3,0.5-0.4,0.8c-0.1,0.3-0.1,0.6-0.1,0.8c0,0.3,0,0.6,0.1,0.8
				c0.1,0.3,0.2,0.5,0.4,0.6c0.2,0.2,0.4,0.3,0.6,0.3c0.2,0,0.5,0,0.8-0.1c0.2-0.1,0.4-0.2,0.7-0.3c0.2-0.1,0.4-0.3,0.6-0.5
				c0.2-0.2,0.3-0.5,0.4-0.8l1.9,0.6c-0.2,0.5-0.5,0.9-0.9,1.3c-0.4,0.4-0.8,0.8-1.3,1.1c-0.5,0.3-1,0.5-1.5,0.7
				c-0.6,0.2-1.2,0.2-1.7,0.1c-0.5-0.1-0.9-0.3-1.3-0.6c-0.4-0.3-0.6-0.7-0.8-1.2C698.2,88.4,698.1,87.9,698.1,87.3z"/>
			<path class="st22" d="M708.8,79.8l2.6-0.8l2.5,7.9l-2.3,0.7l-0.4-1.6l-2.4,0.7l-0.5,1.8l-2.4,0.7L708.8,79.8z M710.7,84.6
				l-0.7-2.8l-0.8,3.3L710.7,84.6z"/>
			<path class="st22" d="M714.5,86.7l0.2-8.7l3.9-1.2c0.4-0.1,0.8-0.2,1.1-0.1c0.3,0.1,0.6,0.2,0.9,0.4c0.2,0.2,0.4,0.5,0.6,0.8
				s0.2,0.7,0.2,1c0,0.3-0.1,0.7-0.2,1c-0.1,0.3-0.2,0.7-0.4,1c-0.2,0.3-0.4,0.6-0.7,0.9l1.7,2.7l-2.5,0.8l-1.4-2.2l-0.9,0.3
				l-0.1,2.7L714.5,86.7z M716.9,81.2l1.5-0.4c0.1,0,0.2-0.1,0.3-0.2c0.1-0.1,0.2-0.2,0.2-0.4c0.1-0.2,0.1-0.3,0.1-0.5
				c0-0.2,0-0.4-0.1-0.5c-0.1-0.1-0.1-0.2-0.2-0.2c-0.1,0-0.2-0.1-0.3,0l-1.4,0.4L716.9,81.2z"/>
			<path class="st22" d="M722.5,84.3l0.2-8.7l3.2-1c0.9-0.3,1.7-0.3,2.3-0.1c0.6,0.2,1.1,0.6,1.4,1.1s0.4,1.2,0.4,2
				c0,0.9-0.2,1.7-0.6,2.5c-0.4,0.8-0.9,1.4-1.5,2c-0.6,0.6-1.4,1-2.2,1.2L722.5,84.3z M727.7,78.4c0-0.4-0.1-0.8-0.2-1.1
				c-0.1-0.3-0.4-0.5-0.6-0.6c-0.3-0.1-0.6-0.1-1,0L725,77l-0.1,4.5l0.9-0.3c0.4-0.1,0.7-0.3,1-0.6c0.3-0.3,0.5-0.6,0.7-1
				S727.7,78.8,727.7,78.4z"/>
		</g>
	</g>
</g>
<g id="SP__x26__LLC_Opening">
	<g id="paperfolds_00000102541158072874099210000008729744762393359765_">
		<line class="st23" x1="-299.3" y1="154.1" x2="-270.8" y2="162.3"/>
		<line class="st23" x1="-299.3" y1="164.3" x2="-242.2" y2="182.7"/>
		<line class="st23" x1="-299.3" y1="113.3" x2="-258.5" y2="125.5"/>
	</g>
	<g id="base_00000011741020151618682840000006447247399072291486_">
		<g id="Base_00000155849328555803309780000004485008180847413679_">
			<path class="st9" d="M-236.2,193.6c-15.8-13.6-19.6-29.3-19.6-29.3s-25.3-91.7-29.4-101.6c-2.6-6.4-8.8-5.9-8.8-5.9l-27.3,4.6
				l-2.4-9.3c1.6-0.2,2.4-0.4,2.4-0.4l30.9-5.9c0,0,8-2.6,12.4,9.2C-274.4,64.3-247.4,156.5-236.2,193.6z"/>
			<path class="st8" d="M-227.7,221.3c-1.5,4-5.6,8-15.6,9.8c-20.5,3.8-93.4,21.1-111.9,25.5c-3.4,0.8-6.8,0.5-10-0.9
				c-4-1.8-8.9-4.9-10.5-9.8c-2.6-7.7-37.7-128.8-46.5-159.4c-1.7-5.9,0-12.4,4.8-16.3c1.4-1.2,3.1-2.1,5-2.5
				c0.7-0.1,2.3-0.4,4.5-0.8c-2,0.4-10.8,2.8-8.2,13.3c3,11.8,46.8,163.4,46.8,163.4s3.3,10.3,18,5.9c17.7-4.4,29-7.3,29-7.3
				c1.2,0.9,1.9,1.4,1.9,1.4L-227.7,221.3z"/>
			<path class="st9" d="M-322,243.2c0,0-11.3,2.9-29,7.3c-5.6,1.7-9.9,0.8-12.9-0.9c0,0,0,0-0.1,0c-1.3-0.8-2.4-1.6-3.3-2.6
				c-0.7-0.7-1.3-1.4-1.8-2.2c0,0,0-0.1,0-0.1c-1-1.5-1.8-3.2-2.3-5c-5.4-18.5-43.6-149.5-46.4-160.5c-1.3-5.3,0.3-8.5,2.4-10.5
				c0,0,0,0,0,0c2.1-1.9,4.8-2.6,5.8-2.8c0.2-0.1,0.4-0.1,0.4-0.1l0.3-0.1l2.1-0.3l6.3-1l24.3-3.9l6.1-1l0,0.2l1,8.9h0l-0.1,0
				l-0.2,0c-0.6,0.1-1.9,0.3-3.5,0.7l-0.6,0.1c-5.1,1-13.8,2.5-21.3,3.6c-0.9,0.1-1.8,0.2-2.6,0.3h0c-1.6,0.2-3,0.4-4.2,0.7
				c-0.4,0.1-0.8,0.2-1.1,0.3c-3.5,1-3.5,2.3-3.8,3.1c-0.2,0.6-0.1,0.9-0.1,0.9c7.8,22.6,17.3,50.8,25.8,92.4
				c0.4,1.8,0.8,3.7,1.1,5.6c7,26.4,18.7,60.6,21.5,64.9c1.4,0.5,14.1-2.5,21.3-4.2c0.8-0.2,1.5-0.4,2.2-0.6
				c1.7-0.4,2.7-0.7,2.7-0.7s-1.6-1.8-1-1.3c0,0,2.1,2.1,2.1,2.1c1.3,0.9,3.7,2.5,5.6,3.9c0.9,0.7,1.7,1.3,2.3,1.9
				C-322.4,242.7-322.1,243-322,243.2z"/>
		</g>
	</g>
	<path class="st24" d="M-334.5,236.4c-0.7,0.2-1.4,0.3-2.2,0.6c-7.2,1.7-19.9,4.7-21.3,4.2c-2.8-4.2-14.6-38.4-21.5-64.9
		c-0.4-1.9-0.8-3.8-1.1-5.6c0.6,1.9,1.1,3.8,1.7,5.6c7.2,23.6,17.7,41.2,32.2,52.9c0,0,8.5,5.7,8.5,5.7c0,0,0.1,0,0.1,0
		C-336.8,235.5-335.6,236-334.5,236.4z"/>
	<path class="st2" d="M-205.2,214.6l-23.4,5.6l-92.9,22.4l0,0c-0.1-0.2-0.7-0.8-1.9-1.4c-0.6-0.2-1.1-0.5-1.7-0.7
		c-3.1-1.3-5.5-2.4-9.4-4.1c-1.1-0.4-2.3-0.9-3.7-1.5c0,0-0.1,0-0.1,0c0,0-8.5-5.7-8.5-5.7c-14.5-11.7-25-29.3-32.2-52.9
		c-0.6-1.8-1.1-3.7-1.7-5.6c-10.4-34.6-26.3-90.1-26.3-90.1s-0.4-1.1-0.4-2.4c0-0.3,0-0.6,0.1-0.9c0.2-1,0.6-2,1.8-2.6l2.9-0.5
		l1.6-0.3l4.2-0.7h0l2-0.3l21.3-3.6l0.6-0.1l4.1-0.7l0.2,0l0.1,0h0l46.8-7.9l2.1-0.4l1.2-0.2l26.1-4.4c0,0,5.9-1.5,8.8,7.3
		c0.2,0.6,0.5,1.5,0.8,2.6c4.9,16.5,22,81.6,22,81.6s2.3,7.3,6.3,16.4c0,0,0,0,0,0c4.1,9.2,10,20.4,17.2,27.8
		c0.6,0.6,1.1,1.2,1.7,1.7c0.3,0.3,0.6,0.6,0.9,0.8c1.9,1.7,4,3.3,6.3,4.9C-206.7,213.1-205.2,214.6-205.2,214.6z"/>
	<path id="clip_00000051354058431582180730000014483931755195631525_" class="st9" d="M-314.8,66.3l-55.1,8.2
		c-0.2-3.2-1.4-13.2-4.2-14.6c-0.3-0.1-1.4,0-2.8-0.1c8.4-1.1,46.5-7,52.4-8.1c6-1.1,7.1,5.2,7.1,5.2
		C-316.5,60.3-315.7,63-314.8,66.3z"/>
	<g id="Paperinfo_00000152253751331356410970000010787600371487947916_">
		<g>
			
				<ellipse id="paperinfo_00000083767245054114277330000009709383782498837919_" transform="matrix(0.943 -0.3329 0.3329 0.943 -55.3199 -118.6555)" class="st25" cx="-374" cy="102.1" rx="13.1" ry="14"/>
			<line class="st4" x1="-378.4" y1="104.4" x2="-372.7" y2="108.7"/>
			<line class="st4" x1="-369.9" y1="95.9" x2="-372.7" y2="108.7"/>
		</g>
		<g>
			
				<ellipse id="paperinfo_00000137832597482724822290000013816457627218113209_" transform="matrix(0.943 -0.3329 0.3329 0.943 -66.5285 -113.3419)" class="st25" cx="-364.1" cy="137.5" rx="13.1" ry="14"/>
			<line class="st4" x1="-368.5" y1="139.8" x2="-362.8" y2="144"/>
			<line class="st4" x1="-360" y1="131.3" x2="-362.8" y2="144"/>
		</g>
		<g>
			<line class="st4" x1="-354.3" y1="95.9" x2="-300.6" y2="86"/>
			<line class="st4" x1="-352.9" y1="101.6" x2="-321.8" y2="95.9"/>
		</g>
		<g>
			<line class="st4" x1="-322.9" y1="226.1" x2="-272.3" y2="214.8"/>
		</g>
		<g>
			<line class="st4" x1="-345.5" y1="126.5" x2="-291.7" y2="116.6"/>
			<line class="st4" x1="-342.2" y1="138.1" x2="-311.1" y2="132.4"/>
			<line class="st4" x1="-343.6" y1="132.4" x2="-312.5" y2="126.8"/>
		</g>
		<g>
			<line class="st4" x1="-367.1" y1="162.4" x2="-276.5" y2="145.5"/>
			<line class="st4" x1="-362.1" y1="174.8" x2="-280.8" y2="159.6"/>
			<line class="st4" x1="-364.9" y1="168.1" x2="-296.9" y2="155.4"/>
			<line class="st4" x1="-357.8" y1="189.3" x2="-297.7" y2="178"/>
		</g>
	</g>
	<g>
		<path class="st24" d="M-256.1,196.7c-6.8,2.8-13.6,10.5-16.2,13.6c-0.2,0.3-0.7,0-0.6-0.3c1.1-3.9,3.5-13.9,1.8-21.1
			c6.9-5.1,11.4-12.6,13-15.6l7,3.6C-252.6,180.2-255.9,188.3-256.1,196.7z"/>
		<g>
			<line class="st26" x1="-272" y1="209.2" x2="-263" y2="191.6"/>
			<g>
				<line class="st27" x1="-272" y1="209.2" x2="-263.9" y2="193.5"/>
				<g>
					<path class="st22" d="M-262,194.6c0.6-1.1,0.1-2.5-1-3c-1.1-0.6-2.5-0.1-3,1c-0.6,1.1-0.1,2.5,1,3
						C-263.9,196.2-262.6,195.7-262,194.6z"/>
				</g>
			</g>
		</g>
		
			<rect x="-269.9" y="150" transform="matrix(0.4576 -0.8892 0.8892 0.4576 -272.764 -132.7471)" class="st8" width="49.5" height="14.3"/>
		
			<rect x="-248.5" y="101.4" transform="matrix(0.4576 -0.8892 0.8892 0.4576 -217.4478 -136.8312)" class="st8" width="55.2" height="16.9"/>
		<path class="st8" d="M-196.9,101.7c0,0-18.5,35.2-19.1,36.5c-0.7,1.3-2.1,0.5-3.6-0.3c-1.5-0.8-0.8-2-1.2-3.1
			c-0.4-1.1,5.3-4.7,5.3-4.7s7.8-14.6,10.4-19.6c2.6-5-0.4-11.9-0.4-11.9l3.9-7.5c0,0,0.8,3.9,3.7,5.5
			C-195.1,98.1-196.9,101.6-196.9,101.7z"/>
		<path class="st8" d="M-200.4,88.5c-0.1,0.2-0.2,0.4-0.4,0.6l-14.9-7.7c0.1-0.2,0.2-0.4,0.3-0.6c2.5-4.9,7.9-7.1,12-4.9
			C-199.2,78-197.9,83.6-200.4,88.5z"/>
	</g>
	<path class="st23" d="M-302.7,209.8c-2.8,7.1-19.4,14.4-22.4,12.1s1.5-9.1,5.4-10.7c7.1-2.8,21.2-1.7,8.5,9s-17,19.3-4.2,7.9
		s12.7-12.7,12.7-12.7s0,3.9,4.2,2s5.7-4.8,5.7-4.8s-9.9,0,0,2.8c5.4,1.6,5.7-2.8,5.7-2.8s-1.4,2.8,2.8,1.4c4.2-1.4,4.2-4.2,4.2-4.2
		v11.3"/>
</g>
<g id="Слой_5">
	<g>
		<path class="st28" d="M-363,546.1l-45.5-23.9c-1.1-0.6-1.1-2.1,0-2.7l43.8-22.4c0.4-0.2,0.9-0.2,1.3,0l45.9,22.8
			c1.1,0.5,1.1,2.1,0,2.7l-44.2,23.5C-362.1,546.3-362.6,546.3-363,546.1z"/>
		<path class="st28" d="M-300.4,548.7l-21.6-11.4c-1.1-0.6-1.1-2.1,0-2.6l42.5-23.1c0.4-0.2,0.9-0.2,1.4,0l23.2,11
			c1.1,0.5,1.1,2.1,0.1,2.7l-44.1,23.5C-299.4,548.9-300,548.9-300.4,548.7z"/>
		<path class="st28" d="M-219.5,505.7l-46.7-22.7c-1.1-0.5-1.1-2.1,0-2.7l43.7-22.3c0.4-0.2,0.9-0.2,1.3,0l47.1,22.8
			c1.1,0.5,1.1,2.1,0,2.7l-44.1,22.2C-218.6,505.9-219.1,505.9-219.5,505.7z"/>
		<path class="st28" d="M-163.4,553.9l-59.4-32.2c-1.1-0.6-1-2.1,0-2.6l49.1-25.8c0.4-0.2,0.8-0.2,1.2-0.1l70.6,24.8
			c1.2,0.4,1.4,2.1,0.2,2.7l-60.3,33.2C-162.5,554.1-163,554.1-163.4,553.9z"/>
		<line class="st29" x1="-147.1" y1="538.8" x2="-147.1" y2="538.5"/>
		<polygon class="st20" points="-97.7,502.9 -147.1,529.9 -196.5,502.9 -147.1,476 		"/>
		<polygon class="st20" points="-97.5,502.9 -97.5,518.1 -97.7,518.1 -147.1,545 -147.1,529.9 		"/>
		<line class="st25" x1="-254" y1="316.8" x2="-301.7" y2="287.5"/>
		<line class="st25" x1="-349.3" y1="316.8" x2="-303" y2="287.5"/>
		<polygon class="st8" points="-147.1,529.9 -147.1,545 -196.5,518.1 -196.6,518 -196.6,503 -196.5,502.9 		"/>
		<polygon class="st29" points="-168.1,313.9 -168.1,326.2 -168.3,326.2 -182.3,333.7 -182.3,321.4 		"/>
		<g>
			<line class="st25" x1="-302.3" y1="286.8" x2="-302.3" y2="341.6"/>
			<polygon class="st20" points="-164.3,306 -178.4,313.6 -308.3,286.2 -301.7,283.5 			"/>
			<polygon class="st8" points="-177.7,313.6 -182.3,333.7 -312.1,290.1 -312.1,290.1 -308.2,286.2 -304.3,287.5 			"/>
		</g>
		<g>
			<polygon class="st25" points="-127.5,340.5 -127.5,505.2 -127.6,505.3 -146.9,515.8 -146.9,351 			"/>
			<polygon class="st25" points="-147.1,351.1 -147.1,515.9 -166.8,505.2 -166.9,505.2 -166.9,340.3 -166.8,340.3 			"/>
		</g>
		<g>
			<polyline class="st25" points="-166.9,446 -147.1,487.9 -166.9,474.9 -147.1,515.9 			"/>
			<polyline class="st25" points="-166.9,386 -147.1,427.8 -166.9,416.2 -147.1,457.2 			"/>
			<polyline class="st25" points="-166.9,325.9 -147.1,367.8 -166.9,356.2 -147.1,397.2 			"/>
			<path class="st23" d="M-147.1,475.5"/>
			<line class="st25" x1="-166.9" y1="446" x2="-147.1" y2="457.7"/>
			<line class="st25" x1="-166.9" y1="386" x2="-147.1" y2="397.7"/>
		</g>
		<g>
			<polyline class="st25" points="-127.3,445 -146.4,486.9 -127.3,474 -146.4,514.9 			"/>
			<polyline class="st25" points="-127.3,385 -146.4,426.9 -127.3,415.3 -146.4,456.2 			"/>
			<polyline class="st25" points="-127.3,325 -146.4,366.9 -127.3,355.2 -146.4,396.2 			"/>
			<path class="st23" d="M-146.4,474.5"/>
			<line class="st25" x1="-127.3" y1="445" x2="-146.4" y2="456.7"/>
			<line class="st25" x1="-127.3" y1="385" x2="-146.4" y2="396.7"/>
		</g>
		<g>
			<path class="st14" d="M-114.8,294.3l-28.4,20.6l-23.2-10.6l20.3-9.2c2.8-1.1,5.8-1.7,8.8-1.6L-114.8,294.3z"/>
			<polygon class="st14" points="-114.6,294.3 -114.6,337.9 -114.8,338 -143.2,353.3 -143.2,307.1 			"/>
			<path class="st7" d="M-143.2,307.1v46.2l-40.1-16.6l-0.1-0.1V323c0-3.7,1.6-7.1,4.3-9.6l11.9-9.1l0,0c0.8-0.8,2-1.2,3.1-1
				L-143.2,307.1z"/>
			<path class="st9" d="M-151,311.4v18.7l-21.9-7.2l-0.1,0v-2.8c0-2,0.9-3.9,2.3-5.2l3.4-2.7l3.8-3L-151,311.4z"/>
		</g>
	</g>
	<path class="st13" d="M-256.7,507.9v6.7l-20.9,10.5v-6.7c0-0.8,0.6-1.8,1.5-2.2l5-2.5l0.4-0.6c1-1.5,1.4-3.1,1.1-4.3
		c-1.3-0.1-2.2-1.2-2.2-2.8c0-2.6,2.1-5.7,4.6-7c2.6-1.3,4.6-0.3,4.6,2.3c0,1.7-0.9,3.6-2.2,5.1c-0.3,1.5,0.1,2.7,1.1,3.2l0.4,0.2
		l5-2.5C-257.3,506.7-256.7,507-256.7,507.9z"/>
	<g id="base_00000080919998830392855830000004367153044261071772_">
		<g>
			<g>
				<polygon class="st8" points="-302.3,504.7 -371.5,468.1 -371.5,456.4 -302.3,492.9 				"/>
			</g>
			<g>
				<polygon class="st20" points="-302.3,492.9 -371.5,456.4 -301,419.9 -231.9,456.4 				"/>
			</g>
			<g>
				<polygon class="st20" points="-302.3,504.6 -231.9,468.3 -231.9,456.4 -302.3,493.1 				"/>
			</g>
		</g>
	</g>
	<g id="buil">
		<g>
			<polygon class="st7" points="-302.3,479.9 -350.6,455.1 -350.6,370.3 -302.3,395.1 			"/>
		</g>
		<g>
			<polygon class="st13" points="-302.3,395.1 -350.6,370.3 -302.3,345.5 -254,370.3 			"/>
		</g>
		<g>
			<polygon class="st14" points="-302.3,479.9 -254,455.3 -254,370.5 -302.3,395.3 			"/>
		</g>
	</g>
	<g id="Glass">
		<polygon class="st9" points="-281.4,414.6 -289.3,418.6 -289.3,401.7 -281.4,397.6 		"/>
		<polygon class="st9" points="-263.2,405.5 -271,409.5 -271,392.6 -263.2,388.5 		"/>
		<polygon class="st9" points="-281.4,440.7 -289.3,444.7 -289.3,427.8 -281.4,423.7 		"/>
		<polygon class="st9" points="-263.2,431.5 -271,435.6 -271,418.6 -263.2,414.6 		"/>
	</g>
	<g id="Glass_00000028315473525861049810000000347873154376619648_">
		<polygon class="st9" points="-321.9,415.9 -314.1,419.9 -314.1,403 -321.9,398.9 		"/>
		<polygon class="st9" points="-340.1,406.8 -332.3,410.8 -332.3,393.9 -340.1,389.8 		"/>
		<polygon class="st9" points="-321.9,442 -314.1,446 -314.1,429.1 -321.9,425 		"/>
		<polygon class="st9" points="-340.1,432.8 -332.3,436.9 -332.3,419.9 -340.1,415.9 		"/>
	</g>
	<polygon id="Door" class="st13" points="-271,464 -281.4,469.2 -281.4,451.3 -271,445.9 	"/>
	<g id="LLC_00000103966136727290967270000000154284926232805304_">
		<g>
			<g>
				<polygon class="st7" points="-302.3,382 -350.6,357.3 -350.6,316.8 -302.3,341.6 				"/>
			</g>
			<g>
				<polygon class="st14" points="-302.3,341.6 -350.6,316.8 -302.3,292 -254,316.8 				"/>
			</g>
			<g>
				<polygon class="st14" points="-302.3,382 -254,357.5 -254,317.1 -302.3,341.8 				"/>
			</g>
		</g>
	</g>
	<polygon class="st9" points="-321.9,361.1 -314.1,365.2 -314.1,346.9 -321.9,342.8 	"/>
	<polygon class="st9" points="-340.1,352 -332.3,356 -332.3,337.8 -340.1,333.7 	"/>
	<polygon class="st9" points="-282.7,361.6 -290.6,365.7 -290.6,347.4 -282.7,343.4 	"/>
	<polygon class="st9" points="-264.5,352.5 -272.3,356.6 -272.3,338.3 -264.5,334.2 	"/>
	<g>
		<g>
			<path class="st30" d="M-321.9,318.7l11.6,5.8l6-3l3.5,1.7l-9.2,4.7l-15-7.6L-321.9,318.7z"/>
			<path class="st30" d="M-311.8,313.6l11.6,5.8l6-3l3.5,1.7l-9.2,4.7l-15-7.6L-311.8,313.6z"/>
			<path class="st30" d="M-283.8,314.8c-5,2.5-7.8,2.4-14-0.7c-6.2-3.1-6.5-4.5-1.5-7.1c5-2.5,7.5-2.5,12.8,0.2l-3.4,1.7
				c-2.9-1.5-3.5-1.5-6.1-0.3c-2.5,1.3-2.4,1.6,1.7,3.7c4,2,4.8,2.1,7.3,0.8c2.5-1.3,2.5-1.6-0.6-3.1l3.4-1.7
				C-278.9,311-278.8,312.3-283.8,314.8z"/>
		</g>
	</g>
	<g id="LLC_00000057124073214058326020000017996796985837199744_">
		<g>
			<g>
				<polygon class="st7" points="-346.2,536.5 -383.5,517.3 -383.5,462.5 -346.2,481.7 				"/>
			</g>
			<g>
				<polygon class="st14" points="-346.2,481.7 -383.5,462.5 -346.2,443.4 -308.8,462.5 				"/>
			</g>
			<g>
				<polygon class="st14" points="-346.2,536.5 -308.8,517.5 -308.8,462.7 -346.2,481.9 				"/>
			</g>
		</g>
	</g>
	<g id="LLC_00000052076809681803127480000011939767142791188367_">
		<g>
			<g>
				<polygon class="st7" points="-209.2,500 -246.6,480.8 -246.6,435.2 -209.2,454.3 				"/>
			</g>
			<g>
				<polygon class="st14" points="-209.2,454.3 -246.6,435.2 -209.2,416 -171.9,435.2 				"/>
			</g>
			<g>
				<polygon class="st14" points="-209.2,500 -171.9,481 -171.9,435.3 -209.2,454.5 				"/>
			</g>
		</g>
	</g>
	<g>
		<polygon class="st13" points="-315.9,485.4 -315.9,508.6 -337,519.4 -337,490.3 -321.8,482.5 		"/>
		<g>
			<line class="st4" x1="-333.1" y1="500.2" x2="-319.8" y2="493.4"/>
			<line class="st4" x1="-333.1" y1="504.1" x2="-319.8" y2="497.4"/>
			<line class="st4" x1="-333.1" y1="508.1" x2="-319.8" y2="501.4"/>
		</g>
	</g>
	<g>
		
			<ellipse transform="matrix(0.5063 -0.8624 0.8624 0.5063 -496.9789 66.8329)" class="st13" cx="-190.1" cy="467.4" rx="17.6" ry="11.3"/>
		<g>
			<g>
				<path class="st22" d="M-185.7,461.1c-0.1-0.1-0.2-0.1-0.5-0.2c-0.2-0.1-0.5-0.1-0.9-0.1s-0.7,0-1.1,0.1
					c-0.4,0.1-0.8,0.2-1.2,0.4c-0.7,0.3-1.3,0.7-1.7,1.2c-0.4,0.5-0.6,1-0.6,1.6c0,0.4,0.1,0.7,0.4,0.9c0.2,0.1,0.6,0.2,1.1,0.2
					c0.5,0,1.1-0.1,1.7-0.2c0.9-0.2,1.7-0.2,2.4-0.2c0.7,0.1,1.2,0.3,1.5,0.7c0.4,0.4,0.5,1.1,0.5,2.1c0,0.8-0.1,1.6-0.4,2.3
					c-0.3,0.7-0.7,1.4-1.1,2c-0.5,0.6-1,1.1-1.7,1.6c-0.6,0.5-1.3,0.8-1.9,1.1c-0.7,0.3-1.4,0.5-2.1,0.7c-0.7,0.2-1.4,0.2-2,0.2
					c-0.6,0-1.2-0.1-1.8-0.3l1.2-3.2c0.1,0.1,0.3,0.2,0.6,0.2c0.3,0.1,0.7,0.1,1.1,0.2c0.4,0,0.9,0,1.4-0.1c0.5-0.1,1-0.2,1.6-0.5
					c0.7-0.3,1.3-0.7,1.7-1.2s0.6-0.9,0.6-1.5c0-0.5-0.2-0.8-0.5-0.9c-0.3-0.1-0.7-0.2-1.3-0.1c-0.5,0-1.2,0.1-1.9,0.2
					c-0.9,0.1-1.6,0.1-2.2,0c-0.6-0.1-1-0.3-1.3-0.7c-0.3-0.4-0.4-1-0.4-1.8c0-1.1,0.2-2.1,0.7-3c0.5-0.9,1.1-1.8,1.8-2.5
					c0.8-0.7,1.6-1.3,2.6-1.7c0.7-0.3,1.3-0.5,1.8-0.6c0.6-0.1,1.1-0.1,1.6-0.1c0.5,0,1,0.1,1.4,0.2L-185.7,461.1z M-190,456.6
					l1.3-0.6v3.7l-1.3,0.8V456.6z M-190,473.3l1.3-0.6v4l-1.3,0.6V473.3z M-189.8,472.9v-12.2l0.9-0.7v12.5L-189.8,472.9z"/>
			</g>
		</g>
	</g>
	<g id="Seal_00000009548110349573515470000001918261214929622719_">
		<g>
			<g>
				<polygon class="st7" points="-283.6,539.1 -304,529.1 -304,487.3 -283.6,497.4 				"/>
			</g>
			<g>
				<polygon class="st14" points="-283.6,497.4 -304,487.3 -271.8,470.8 -251.4,480.8 				"/>
			</g>
			<g>
				<polygon class="st14" points="-283.6,539.1 -251.4,522.7 -251.4,481 -283.6,497.4 				"/>
			</g>
		</g>
	</g>
	<linearGradient id="SVGID_1_" gradientUnits="userSpaceOnUse" x1="84.9037" y1="128.5057" x2="332.5726" y2="128.5057">
		<stop  offset="0" style="stop-color:#1A6EFF;stop-opacity:0.99"/>
		<stop  offset="1" style="stop-color:#60A2FF"/>
	</linearGradient>
	<path class="st31" d="M332.6,19.4c0-2.5-2.5-4.1-4.8-3.2c-27.2,11.2-162,66.8-169.1,69.6c-7.1,2.8-79.8,38.7-73.4,149.7
		c0.2,2.9-0.2,5.6,2.7,5.6l241.1-84.2c1.9,0,3.4-1.5,3.4-3.4V19.4z"/>
</g>
</svg>
