<?xml version="1.0" encoding="UTF-8"?>
<svg id="_Слой_1" data-name="Слой 1" xmlns="http://www.w3.org/2000/svg" viewBox="0 0 228 42">
  <defs>
    <style>
      .cls-1 {
        fill: #ffe94d;
        stroke-width: 0px;
      }
    </style>
  </defs>
  <polygon class="cls-1" points="22 .35 27.09 16 43.54 16 30.23 25.67 35.31 41.33 22 31.65 8.69 41.33 13.77 25.67 .46 16 16.91 16 22 .35"/>
  <polygon class="cls-1" points="68 .35 73.09 16 89.54 16 76.23 25.67 81.31 41.33 68 31.65 54.69 41.33 59.77 25.67 46.46 16 62.91 16 68 .35"/>
  <polygon class="cls-1" points="114 .35 119.09 16 135.54 16 122.23 25.67 127.31 41.33 114 31.65 100.69 41.33 105.77 25.67 92.46 16 108.91 16 114 .35"/>
  <polygon class="cls-1" points="160 .35 165.09 16 181.54 16 168.23 25.67 173.31 41.33 160 31.65 146.69 41.33 151.77 25.67 138.46 16 154.91 16 160 .35"/>
  <polygon class="cls-1" points="206 .35 211.09 16 227.54 16 214.23 25.67 219.31 41.33 206 31.65 192.69 41.33 197.77 25.67 184.46 16 200.91 16 206 .35"/>
</svg>