<?xml version="1.0" encoding="UTF-8"?>
<svg id="Citizenship" xmlns="http://www.w3.org/2000/svg" xmlns:xlink="http://www.w3.org/1999/xlink" viewBox="0 0 380.44 288.44">
  <defs>
    <style>
      .cls-1 {
        fill: #0362e1;
      }

      .cls-1, .cls-2 {
        stroke: #0032b8;
        stroke-linecap: round;
        stroke-linejoin: round;
        stroke-width: 2px;
      }

      .cls-3 {
        filter: url(#drop-shadow-1);
      }

      .cls-4, .cls-5 {
        fill: #fff;
        stroke-width: 0px;
      }

      .cls-5 {
        fill-rule: evenodd;
      }

      .cls-2 {
        fill: #139bff;
      }
    </style>
    <filter id="drop-shadow-1" filterUnits="userSpaceOnUse">
      <feOffset dx="5" dy="5"/>
      <feGaussianBlur result="blur" stdDeviation="10"/>
      <feFlood flood-color="#3668cc" flood-opacity=".7"/>
      <feComposite in2="blur" operator="in"/>
      <feComposite in="SourceGraphic"/>
    </filter>
  </defs>
  <g class="cls-3">
    <rect class="cls-2" x="120.37" y="50.42" width="10.83" height="187.61" rx="3.19" ry="3.19"/>
    <path class="cls-1" d="M127.55,50.42h119.49c7.2,0,13.04,5.84,13.04,13.04v161.54c0,7.2-5.84,13.04-13.04,13.04h-119.49c-1.76,0-3.19-1.43-3.19-3.19V53.6c0-1.76,1.43-3.19,3.19-3.19Z"/>
  </g>
  <g>
    <path class="cls-4" d="M137.66,208.56v-6.97h2.96c.75,0,1.29.06,1.62.19s.61.35.81.67.3.69.3,1.1c0,.52-.15.96-.46,1.3s-.77.56-1.38.64c.3.18.56.37.75.58.2.21.46.59.8,1.13l.85,1.36h-1.68l-1.02-1.52c-.36-.54-.61-.88-.74-1.02-.13-.14-.27-.24-.42-.29-.15-.05-.38-.08-.71-.08h-.29v2.91h-1.41ZM139.07,204.54h1.04c.68,0,1.1-.03,1.27-.08.17-.06.3-.16.39-.29.09-.14.14-.31.14-.52,0-.23-.06-.42-.19-.57-.13-.14-.3-.24-.53-.27-.11-.02-.46-.02-1.03-.02h-1.1v1.77Z"/>
    <path class="cls-4" d="M144.69,208.56v-6.97h5.17v1.18h-3.76v1.55h3.5v1.17h-3.5v1.9h3.9v1.17h-5.3Z"/>
    <path class="cls-4" d="M151.19,208.56v-6.97h2.26c.86,0,1.41.03,1.67.1.4.1.73.33,1,.68s.4.8.4,1.36c0,.43-.08.79-.23,1.08s-.35.52-.59.69c-.24.17-.48.28-.73.33-.34.07-.82.1-1.46.1h-.92v2.63h-1.41ZM152.6,202.77v1.98h.77c.56,0,.93-.04,1.11-.11.19-.07.33-.19.44-.34.11-.16.16-.34.16-.54,0-.25-.07-.46-.22-.63s-.34-.27-.57-.31c-.17-.03-.51-.05-1.01-.05h-.68Z"/>
    <path class="cls-4" d="M157.68,201.59h1.41v3.78c0,.6.02.99.05,1.17.06.29.2.51.43.69s.54.26.93.26.7-.08.9-.24c.2-.16.32-.36.37-.6.04-.24.06-.63.06-1.18v-3.86h1.41v3.66c0,.84-.04,1.43-.11,1.77s-.22.64-.42.88c-.21.24-.48.43-.82.57-.34.14-.79.21-1.34.21-.67,0-1.17-.08-1.51-.23-.34-.15-.62-.35-.82-.6-.2-.25-.33-.5-.39-.77-.09-.4-.14-.99-.14-1.77v-3.72Z"/>
    <path class="cls-4" d="M164.73,201.59h2.79c.55,0,.96.02,1.23.07.27.05.51.14.73.29s.39.34.54.58c.14.24.21.51.21.82,0,.33-.09.63-.26.9-.18.27-.42.48-.72.61.42.12.75.33.98.63.23.3.34.65.34,1.05,0,.32-.07.62-.22.92s-.35.54-.6.72c-.26.18-.57.29-.94.33-.23.03-.8.04-1.7.05h-2.37v-6.97ZM166.14,202.75v1.61h.92c.55,0,.89,0,1.02-.02.24-.03.43-.11.57-.25.14-.14.21-.32.21-.54s-.06-.39-.18-.53c-.12-.13-.3-.22-.53-.25-.14-.02-.54-.02-1.2-.02h-.81ZM166.14,205.52v1.86h1.3c.51,0,.83-.01.97-.04.21-.04.38-.13.51-.28s.2-.34.2-.59c0-.21-.05-.39-.15-.53-.1-.15-.25-.25-.44-.32-.19-.07-.61-.1-1.25-.1h-1.14Z"/>
    <path class="cls-4" d="M171.8,208.56v-6.92h1.41v5.74h3.5v1.17h-4.91Z"/>
    <path class="cls-4" d="M177.67,208.56v-6.97h1.41v6.97h-1.41Z"/>
    <path class="cls-4" d="M184.88,206l1.37.43c-.21.76-.56,1.33-1.04,1.7-.49.37-1.1.55-1.85.55-.93,0-1.69-.32-2.28-.95-.6-.63-.89-1.5-.89-2.59,0-1.16.3-2.06.9-2.7.6-.64,1.39-.96,2.36-.96.85,0,1.55.25,2.08.76.32.3.55.73.71,1.28l-1.39.33c-.08-.36-.25-.65-.52-.86-.26-.21-.58-.31-.95-.31-.52,0-.94.19-1.26.56-.32.37-.48.97-.48,1.8,0,.88.16,1.51.48,1.88s.73.56,1.24.56c.38,0,.7-.12.97-.36.27-.24.46-.61.58-1.12Z"/>
    <path class="cls-4" d="M189.87,205.12c0-.71.11-1.31.32-1.79.16-.35.38-.67.65-.96.27-.28.57-.49.9-.63.43-.18.93-.28,1.5-.28,1.03,0,1.85.32,2.47.96.62.64.93,1.52.93,2.66s-.31,2.01-.92,2.64c-.61.64-1.43.95-2.45.95s-1.86-.32-2.47-.95c-.61-.63-.92-1.5-.92-2.61ZM191.32,205.07c0,.79.18,1.39.55,1.8.37.41.83.61,1.39.61s1.02-.2,1.38-.61c.36-.4.54-1.01.54-1.82s-.17-1.39-.53-1.79c-.35-.39-.82-.59-1.4-.59s-1.05.2-1.4.6c-.36.4-.53,1-.53,1.8Z"/>
    <path class="cls-4" d="M197.74,208.56v-6.97h4.78v1.18h-3.37v1.65h2.91v1.18h-2.91v2.96h-1.41Z"/>
    <path class="cls-4" d="M212.32,208.56h-1.53l-.61-1.58h-2.79l-.58,1.58h-1.49l2.72-6.97h1.49l2.79,6.97ZM209.72,205.8l-.96-2.59-.94,2.59h1.9Z"/>
    <path class="cls-4" d="M213.07,208.56v-6.97h2.96c.75,0,1.29.06,1.62.19s.61.35.81.67.3.69.3,1.1c0,.52-.15.96-.46,1.3s-.77.56-1.38.64c.3.18.56.37.75.58.2.21.46.59.8,1.13l.85,1.36h-1.68l-1.02-1.52c-.36-.54-.61-.88-.74-1.02-.13-.14-.27-.24-.42-.29-.15-.05-.38-.08-.71-.08h-.29v2.91h-1.41ZM214.48,204.54h1.04c.68,0,1.1-.03,1.27-.08.17-.06.3-.16.39-.29.09-.14.14-.31.14-.52,0-.23-.06-.42-.19-.57-.13-.14-.3-.24-.53-.27-.11-.02-.46-.02-1.03-.02h-1.1v1.77Z"/>
    <path class="cls-4" d="M220.08,208.56v-6.97h2.11l1.27,4.76,1.25-4.76h2.11v6.97h-1.31v-5.49l-1.38,5.49h-1.36l-1.38-5.49v5.49h-1.31Z"/>
    <path class="cls-4" d="M228.21,208.56v-6.97h5.17v1.18h-3.76v1.55h3.5v1.17h-3.5v1.9h3.9v1.17h-5.3Z"/>
    <path class="cls-4" d="M234.72,208.56v-6.97h1.37l2.85,4.66v-4.66h1.31v6.97h-1.41l-2.81-4.55v4.55h-1.31Z"/>
    <path class="cls-4" d="M241.7,208.56v-6.97h1.41v6.97h-1.41Z"/>
    <path class="cls-4" d="M250.74,208.56h-1.53l-.61-1.58h-2.79l-.58,1.58h-1.49l2.72-6.97h1.49l2.79,6.97ZM248.15,205.8l-.96-2.59-.94,2.59h1.9Z"/>
    <path class="cls-4" d="M167.96,220.25v-6.97h2.26c.86,0,1.41.03,1.67.1.4.1.73.33,1,.68s.4.8.4,1.36c0,.43-.08.79-.23,1.08s-.35.52-.59.69c-.24.17-.48.28-.73.33-.34.07-.82.1-1.46.1h-.92v2.63h-1.41ZM169.37,214.46v1.98h.77c.56,0,.93-.04,1.11-.11.19-.07.33-.19.44-.34.11-.16.16-.34.16-.54,0-.25-.07-.46-.22-.63s-.34-.27-.57-.31c-.17-.03-.51-.05-1.01-.05h-.68Z"/>
    <path class="cls-4" d="M180.02,220.25h-1.53l-.61-1.58h-2.79l-.58,1.58h-1.49l2.72-6.97h1.49l2.79,6.97ZM177.43,217.49l-.96-2.59-.94,2.59h1.9Z"/>
    <path class="cls-4" d="M180.41,217.98l1.37-.13c.08.46.25.8.5,1.01s.59.32,1.02.32c.45,0,.79-.1,1.02-.29.23-.19.35-.42.35-.67,0-.17-.05-.3-.15-.42-.1-.12-.27-.22-.51-.3-.17-.06-.54-.16-1.13-.3-.75-.19-1.28-.42-1.59-.69-.43-.38-.64-.85-.64-1.4,0-.36.1-.69.3-1,.2-.31.49-.54.87-.71.38-.16.84-.24,1.37-.24.88,0,1.53.19,1.98.58s.67.9.7,1.54l-1.41.06c-.06-.36-.19-.62-.39-.77-.2-.16-.5-.24-.89-.24s-.73.08-.96.25c-.15.11-.22.25-.22.43,0,.16.07.31.21.42.18.15.61.3,1.29.47.68.16,1.19.33,1.52.5s.58.41.77.71.28.67.28,1.11c0,.4-.11.77-.33,1.12-.22.35-.54.61-.94.78-.41.17-.91.25-1.52.25-.88,0-1.56-.2-2.03-.61-.47-.41-.75-1-.85-1.78Z"/>
    <path class="cls-4" d="M186.91,217.98l1.37-.13c.08.46.25.8.5,1.01s.59.32,1.02.32c.45,0,.79-.1,1.02-.29.23-.19.35-.42.35-.67,0-.17-.05-.3-.15-.42-.1-.12-.27-.22-.51-.3-.17-.06-.54-.16-1.13-.3-.75-.19-1.28-.42-1.59-.69-.43-.38-.64-.85-.64-1.4,0-.36.1-.69.3-1,.2-.31.49-.54.87-.71.38-.16.84-.24,1.37-.24.88,0,1.53.19,1.98.58s.67.9.7,1.54l-1.41.06c-.06-.36-.19-.62-.39-.77-.2-.16-.5-.24-.89-.24s-.73.08-.96.25c-.15.11-.22.25-.22.43,0,.16.07.31.21.42.18.15.61.3,1.29.47.68.16,1.19.33,1.52.5s.58.41.77.71.28.67.28,1.11c0,.4-.11.77-.33,1.12-.22.35-.54.61-.94.78-.41.17-.91.25-1.52.25-.88,0-1.56-.2-2.03-.61-.47-.41-.75-1-.85-1.78Z"/>
    <path class="cls-4" d="M193.76,220.25v-6.97h2.26c.86,0,1.41.03,1.67.1.4.1.73.33,1,.68s.4.8.4,1.36c0,.43-.08.79-.23,1.08s-.35.52-.59.69c-.24.17-.48.28-.73.33-.34.07-.82.1-1.46.1h-.92v2.63h-1.41ZM195.17,214.46v1.98h.77c.56,0,.93-.04,1.11-.11.19-.07.33-.19.44-.34.11-.16.16-.34.16-.54,0-.25-.07-.46-.22-.63s-.34-.27-.57-.31c-.17-.03-.51-.05-1.01-.05h-.68Z"/>
    <path class="cls-4" d="M199.97,216.81c0-.71.11-1.31.32-1.79.16-.35.38-.67.65-.96.27-.28.57-.49.9-.63.43-.18.93-.28,1.5-.28,1.03,0,1.85.32,2.47.96.62.64.93,1.52.93,2.66s-.31,2.01-.92,2.64c-.61.64-1.43.95-2.45.95s-1.86-.32-2.47-.95c-.61-.63-.92-1.5-.92-2.61ZM201.43,216.76c0,.79.18,1.39.55,1.8.37.41.83.61,1.39.61s1.02-.2,1.38-.61c.36-.4.54-1.01.54-1.82s-.17-1.39-.53-1.79c-.35-.39-.82-.59-1.4-.59s-1.05.2-1.4.6c-.36.4-.53,1-.53,1.8Z"/>
    <path class="cls-4" d="M207.84,220.25v-6.97h2.96c.75,0,1.29.06,1.62.19s.61.35.81.67.3.69.3,1.1c0,.52-.15.96-.46,1.3s-.77.56-1.38.64c.3.18.56.37.75.58.2.21.46.59.8,1.13l.85,1.36h-1.68l-1.02-1.52c-.36-.54-.61-.88-.74-1.02-.13-.14-.27-.24-.42-.29-.15-.05-.38-.08-.71-.08h-.29v2.91h-1.41ZM209.25,216.23h1.04c.68,0,1.1-.03,1.27-.08.17-.06.3-.16.39-.29.09-.14.14-.31.14-.52,0-.23-.06-.42-.19-.57-.13-.14-.3-.24-.53-.27-.11-.02-.46-.02-1.03-.02h-1.1v1.77Z"/>
    <path class="cls-4" d="M216.44,220.25v-5.79h-2.07v-1.18h5.54v1.18h-2.06v5.79h-1.41Z"/>
  </g>
  <g id="Gerb">
    <g id="g2886">
      <g id="g2892">
        <path class="cls-5" d="M248.99,128.14c.46-1.09.83-2.27.55-3.46-.15-.06-.39-.11-.55-.05.63-.96.36-2.53-.46-3.33-.68-.6-1.94-.53-2.41.3-.72-2.25-10.89-19.47-5.41-18.64-.34.93.09,1.59,1.05,1.75,2.96.3,3.54-3.52,1.7-5.26.07-1.15-.36-2.24-1.37-2.85-.05-.56.24-1.26-.15-1.72-.28-.07-.57-.12-.86-.19-.25-1.29-1.03-2.43-2.39-2.66-.44-.93-.44-2.09-1.44-2.7-1.02-.8-2.64-1.08-3.7-.21-1.23,1.02.28,3.13,1.66,2.45-.16,3.35-.51,6.7-.31,10.05-.27-.28-.76-.31-1.12-.32-.13-.66-.18-1.45-.76-1.89-.96-.58-2.52-.44-2.81.82-2.54-2.34-4.56-5.35-8.04-6.38-.64-.98-1.79-3.16-.21-3.79l.16-.04.18-.02h.2c1.27-.1,2.96,1.55,3.82-.03.42-.76.39-1.68.8-2.44.93-.83,1.42-2.01,1.68-3.21,2.96-3.32-2.61-4.95-4.05-7.24-1.37-1.04-3.33-1.28-4.32-2.78-.14-.15-.44-.41-.61-.53-1.22-.9-2.81-.76-4.24-.67-.13-1.05-1.39-1.54-2.23-.92-.69-.27-1.5-.14-1.87.55-.97-.21-1.82.35-2.06,1.3-.35-.04-.7-.26-1.06-.14-.06.32.1.63.12.95-3.94,1.51-7.67,4.3-9.51,8.15-.35.54-.79,1.07-1.37,1.36l-.29.12-.3.08c-5.45.04-3.97,6.83-5.16,10.39-.8-2.04-1.71-4.04-2.58-6.05l.15-.06.28-.18-.13-.36c-.24-.6-.55-1.17-.86-1.73-.27-.47-.53-.94-.8-1.41-.36-.64-.72-1.29-1.01-1.97-.07-.19-.18-.41-.13-.61.04-.11.11-.2.17-.3l-.37-.52c-.55-.77-1.08-1.54-1.58-2.35-.36-.59-.7-1.19-1.03-1.81-.05-.1-.02-.25,0-.36.01-.14.01-.29.02-.43-4.23-1.79-12.36-6.83-16.3-2.7-1.25.31-2.5.62-3.65,1.22-2.02,1.93-1.03,4.8,1.28,5.95l.1-.37.05-.07c.04-.31.08-.61.17-.91,1.86,0,4.09.8,4.92,2.58.24,1.07.39,2.23.42,3.33.13,3.73-1.07,8.45-5.11,9.59,1.45-2.48,3.18-5.44,1.99-8.36-.55-1.54-1.88-2.77-3.46-3.2-4.23-1.01-8.71.8-12.13,3.24-9.97,7.25-15.52,20.39-15,32.58.35,5.66,2.07,11.21,4.09,16.47,3.25,7.85,6.3,15.87,8.68,24.01,1.83-.74,2.97-2.54,3.2-4.45.08.54.29,1.18.46,1.7.89-.25,1.69-.7,2.41-1.27-.3,1.94-.41,4.04.49,5.84,1.38-.47,2.54-1.44,3.31-2.67.07,2.51.22,5.08,1.52,7.31,1.27-1.29,2.5-2.64,3.33-4.25.07,2.18.45,4.51,2.2,6,1.68-1.25,2.76-3.13,3.21-5.16.37,1.97,1.63,3.61,3.27,4.73,2.05-.94,2.09-3.74,2.63-5.66,1.04,1.61,1.82,3.95,3.75,4.63,2.4-6.51.33-13.42-.61-20,.2.19.41.37.62.54l-.38-.04c.36,1.83,1.04,3.6,2.05,5.18-.34-.21-.68-.41-1.02-.61l.02.63c.63,1.19,1.42,2.31,2.13,3.44-.28-.13-.55-.25-.83-.37-.58,1.4,1.19,2.39,1.96,3.34-.34-.12-.68-.27-1.05-.32l-.85-.02c.84.98,1.93,1.77,2.6,2.88-.8.78-1.6,1.69-1.55,2.87-1.09,1.05-2.18,2.1-3.25,3.15-.22,0-.43-.05-.65-.09-2.74.48-5.53.5-8.31.54-2.16.6-1.31,1.46-1.82,3.06-2.62-.91-4.94-2.74-6.98-4.6-.62,1.32.83,2.44,1.2,3.64-2.13-.8-4.1-1.98-6.07-3.09,3.35,4.2,7.96,8.46,13.62,8.66,2.49-.01,2.84-.51,3.07-2.9.31-.05.62.02.86.23.34,0,.61-.28.96-.2-.24.25-.46.52-.69.79.44.31.71.97,1.26,1.05.14.11,2.21-1.78,2.34-1.86h3.58c-.22.18-.44.36-.67.54-.88.7-1.78,1.37-2.7,2.03.06,2.32,2.05,3.63,3.83,4.72,1.79-.82,3.18-2.42,4.77-3.57,1.07-.2,1.23-1.71,2.41-1.65.7-.68,1.23-1.58,2.13-2.03v4.18l-1.1,1.04c1.05,2.39,5,2.62,5.72-.09-.36-.32-.73-.63-1.1-.93v-2.65c2.71,1.09,5.57,1.79,8.49,2.05,1.57.96,3.1,1.97,4.58,3.06.78-.18,1.67-.7,1.98-1.46-2.45-1.62-5.34-2.85-7.23-5.15h4.95c.77.67,1.68,1.28,2.26,2.13.45-.38,1.03-.69,1.31-1.22-.07-.37-.37-.64-.6-.92h2.8c.23.87,0,1.93.62,2.67.89.44,1.97.59,2.96.49,4.8-.73,8.7-4.17,12.15-7.35-.03-.26-.17-.52-.47-.46-1.59,1.31-3.56,2.05-5.53,2.6.47-.82.96-1.66,1.13-2.61.26-.21.49-.47.77-.66.9-.03,1.82-.23,2.5-.85,2.51-.11,4.04-1.77,4.58-4.13,3.04-.27,2.32-3.97,2.26-6.11.97-.89,2.21-1.9,2.12-3.35h-.4c.8-.69,1.18-1.71,1.1-2.76-.23.13-.46.28-.7.39.71-.83,1.17-2.52.05-3.21-.79-.46-2.11.07-2,1.08-.5-.14-.3-.62-.61-1.12-.77-1.25-2.18-.59-3.31-.4-2.84-1.04-3.62-3.86-3.29-6.63,4.91,4.57,11.07,5.8,16.21.83,1.28.06,2.53.65,3.83.36-.06-1.24-1.39-2.08-2.05-3.06-.06-2.09,3.36-2.38,3.35-5.28l-.47.14c.49-.8.83-1.71.79-2.66l-.58.24c.64-1.11,1.06-2.36.98-3.66-.3.24-.61.48-.92.69ZM234.35,155.96c-.04-.77.55-1,1.05-1.46,0,0-.06-.03-.06-.06q-.8.27-.98.27c-.16-.13-.06-.31-.06-.37.59-.13,1.23-.3,1.92-.45.28.54-1.64,1.98-1.87,2.07ZM234.31,153.76c0-1.4,1.35-.58,1.63-1.55-.49.07-1.04.15-1.53.21-.21-.21-.1-.58-.1-.58.42-.22,1.98-.18,2.7-.36-.33,1.03-1.75,1.98-2.7,2.28ZM234.31,150.7c.46-.13,1.16-.28,1.63-.71-.54,0-1.04.03-1.58.07,0-.22.05-.34.12-.49.52-.04,1.19-.13,1.77-.49-1.1-.52,0-1.65.83-.6,0,1.78-1.02,2.72-2.73,2.72-.15,0-.04-.4-.04-.51ZM239.33,108.71c0,.55-.46,1.02-1.03,1.02s-1.01-.48-1.01-1.02.46-1,1.01-1,1.03.48,1.03,1ZM237.4,97.78c-.15.34-.28.63-.42.91,3.49,2.57.13,3.61.37,6.83-.03.51.18,1.23.37,1.78-.21.15-.64.58-.85.54-1.62-5.32-1.43-9.01-1-14.39,0-.97,0-1.9.06-2.84,1.27.42,1.14,3.29.76,4.55,0,.63,1.25.98.7,2.63ZM238.31,104.44q.13.85.51,2.92h-.58c-.83-.42-.52-3.87.15-4.66.82-1.16,2.51-1.81,3.46-.28-.03.09-.06.16-.06.24-1.89-1.14-3.03-.01-3.48,1.78ZM241.58,97.35c.85,0,1.17.98,1.1,1.89h-.12c-.13-.05-.28-.12-.43-.15.09-1.07-.55-1.14-.7-1.31-.07-.07.01-.27.15-.43ZM243.88,101.47c-.03,1.44.04,2.42-1.83,2.61h0c-.82-.12-1.05-.65-.56-1.17.3-.1.51-.05.64.13,0-1.58-1.1-1.72-2.23-1.84,0-3.14,3.27-2.11,3.98.27ZM241.29,95.63c0,1.28-.64,2.55-1.49,3.61h-.16c-.31-.24-.54-.39-.58-.55.51-.42,1.6-1.8,1.43-2.48-.45,0-.91-.07-1.32-.07-.09-.22-.1-.39-.18-.57.21-.21,1.84,0,2.31.06ZM240.18,95.03s-.15,0-.28.01c-.13-.01-.27-.09-.4-.1-.13-.89-.63-1.01-1.19-1.31-.04-.24-.07-.51-.07-.76,1.34.16,1.81.62,1.95,2.16ZM234.37,91.02c-.62-.19-1.08-1.27,0-1.72.88-.33,1.92-.03,2.81.71.99,1.43.86,2.94.74,4.83,1.14.94,1.19,2.17.27,3.46v.1c.88.61,1.86,1.38,1.38,2.92-.21,0-.37,0-.51.03-.06-.25-.08-.48-.08-.79-.43-1.17-.77-1.55-1.63-2.01v-.1c.86-1.28.82-2.14-.15-3.09.21-2.89.51-4.16-1.96-5.61t-.09.04v.11c.7.7-.16,1.29-.79,1.11ZM235.47,105.89c.04-.09.07-.18.1-.27,1.27,6.12,5.6,11.1,7.21,17.15,1.23,3.94,1.61,8.31.38,12.3-3.89-5.97-7.31-12.34-10.57-18.66,1.29-2.43,2.57-4.98,2.77-7.77-.31-.47-.7-.92-.88-1.46.45-.32.78-.77.99-1.28ZM234.59,124.58h-.1c-2.54-.14-4.24-1.09-5.74-2.78-.62-.95-.54-.76.3-1.46.02.03.1.07.12.07,1.05,1.72,2.48,2.7,4.71,2.87.27.4.49.8.76,1.22,0,.02-.01.05-.04.08ZM242.38,136.96c.46.27.88.94,1.28,1.53-.06.02-.09.06-.13.08-2.77-1.7-4.62-4.4-6.44-6.81-.94-1.4-4.61-6.56-4.46-7.02.18.06.42.08.7.12,2.56,4.18,5.25,8.49,9.05,12.1ZM229.01,132.94c1.8,1.16,2.51,2.2,4.86,2.51.18.19.92.71,1.11,1.22-.25.07-.79.03-.94.03h0c-1.65-.19-5.74-1.67-5.04-3.76ZM228.12,130.42h.09c.72.76,1.47,1.62,2.32,2.44,1.51,1.04,2.79,1.74,2.58,2.05h-.16c-2.47-.65-4.19-2.38-4.83-4.49ZM231.73,136.68c2.16.76,3.52.25,5.8,1.65.69.3,3.2.71,3.57,1.04-.58,1.19-4.02,1.62-5.09,1.62-3.05-.71-5.28-2.75-6.15-5.49.22,0,1.44.95,1.87,1.17ZM240.59,138.71h-.27c-6.02-.64-10.24-8.3-12.53-12.75.42.09.88.39,1.56.39,1.92,3.18,5.28,10.04,9.81,10.67.48.55,1.01,1.07,1.49,1.61-.02.01-.06.07-.06.09ZM238.59,136.48c-2.14-.77-3.46-2.38-4.71-3.93-.85-1.02-4.24-5.74-4.06-6.21h.51c2.31,3.39,3.88,6.51,7.31,9.14.46.27.67.36,1.16.97-.07,0-.15,0-.21.03ZM229.77,125.72c-1.95-.19-3.24-.88-3.82-2.66.19-.18.33-.42.68-.42,1.46,1.67,1.77,1.93,4.1,1.8,0,.02.76.91.71,1.19-.6.01-1.14.09-1.68.09ZM226.8,122.3c.27-.21.61-.73,1.04-.73.77.82,1.56,1.55,2.58,2.39v.12c-.45.13-1.05.16-1.38.22-.83-.22-2.24-1.44-2.24-2.01ZM233.46,122.86c-1.59-.15-2.38-.54-3.33-1.55-.98-1.32-1.07-1.04-.05-2.16.94.34,1.16,2.16,2.87,2.41.18.37.42.73.62,1.3h-.12ZM227.62,121.32c-1.28,1.11-5.68,4.65-5.68,6.73,1.07.92.54,2.7-.57,3.48,0,.21.02.39.02.57-.49.06-.73.06-1,.3.28.68-.42.77-.95.88-.01-.02-.09-.02-.1-.02.24-2.08,3.14-2.32,1.46-4.9.1-.57,1.53-3.07,1.53-3.15-.54.67-1.92,2.43-1.92,3.39.92.88-.43,3-1.1,3.64-.3-.08-.58-.12-.86-.13-.13.06-.09.15-.09.46-.37.3-.77.22-1.08.22-.02-.01-.05-.04-.05-.04,1.17-1.14,2.92-2.32,2.01-3.98,0-.73,1.8-2.77,1.68-3.03-.64.85-1.75,1.93-2.08,3.03.7,1.81-.18,2.88-2.11,3.48q-.49,0-.7-.08v-.21c.21-.13.48-.25.71-.49-.33-1.8-1.58-1.66.19-3.12.24-.13.49-.28.77-.4.46-2.3,2.29-2.27,3.9-3.82.4-1.77,1.65-2.86,3.67-2.17,1.47,0,6.29-12,6.73-12.93.49-.46,1.11-.18,1.23.65.8-.64-1.46-1.93-1.53-1.95,0-.55,3.12-.55,2.95,1.68-.91,5.01-3.46,8.27-7.03,11.92ZM223.88,127.82c.12-.07.27-.09.4-.15,1.61,2.01-.21,2.66-.89,4.76h.09c.4-.47.8-.95,1.2-1.41.73,0,.86.73.86,1.52-1.06,4-6.13,4.3-8.54,7.19-.52,0-.61-.28-.83-.34-.02.06-.09.12-.09.16,1.62,2.2.88,6.08.64,8.77.61,1.7,1.37,3.23,2.96,4.79,0,.07.04.13.04.19-4.73.82-1.05,7.24-4.54,8.36-1.11,0-1.02-.07-1.34-.8-.4.48.43,1.03.59,1.19-2.23,1.07-4.1.3-6.33-.24-1.39.15-1.67.91-2.29,2.07h-.19c-.37-.27-.8-.51-1.19-.76-.04-.22.51-.16.69-.36.71-2.54,2.5-1.25,4.79-1.14,2.19-.08,2.67-.39,4-2.22,3.27-6.48-1.22-8.16-4.42-12.73-.7-2.14-.91-2.42.92-4.09,2.91-3.46,4.01-5.74,5.13-9.81.21,0,.34-.03.76.03,0,.18,0,.39.02.61.6,0,1.43-.22,2.17-.33-.03.1-.03.24-.06.33,1.08.85,3.42,0,3.42-1.59,2.22-1.89.7-2.62.82-4.7.09-.37.85-2.05,1.27-1.84.15.89.22,1.34-.09,2.45.03,0,.03.02.03.09ZM207.43,165.28c-.64-.49-1.37-.83-1.37-1.4.31-.28.63-.01,1.05-.3-.01-.31-.1-.58-.1-.83,1-1.04,1.67-.21,2.63.42.08-.12.09-.22.15-.34,2.44,0,5.89.3,7.22-2.48.21-1.04.25-1.52.37-2.99.11-1.41.4-3.7,2.66-3.67,1.84.95-1.98,7.02-2.75,8.31-2.66,2.19-4.18,2.23-7.09,1.5-1.46,0-1.61.24-2.23,1.5-.19.06-.39.28-.55.28ZM207.86,166.02c.54.22.83.43.92.68.06.24,0,.51-.39.99h-.15c-.46-.64-.61-1.14-.39-1.68ZM200.31,168.86h.43c.61,1.22,1.13,2.56,1.64,3.98-.02,0-.06.05-.06.05-.77-1.25-1.68-2.96-2.01-4.03ZM201.08,172.04h-.25c-.67-.25-.89-1.23-.82-1.62.27.33.85,1,1.07,1.62ZM185.97,168.36v-2.23l1.71.74h12.07l1.63-.76v2.25h-15.42ZM199.9,170.93h-.12l-.33-.36c-.21-.18-.7-1.53-.76-1.71.7,0,.99,1.17,1.2,2.07ZM198.42,171.35c-1.11-.67-2.21-1.31-3.34-1.92v-.18s.02-.01.06-.01c1.28.54,2.14.95,3.33,1.99,0,.04-.01.1-.04.12ZM199.82,172.95h-.36c-1.32-.28-4.25-1.28-4.39-2.47,0-.01.02-.06.06-.06q4.73,2.48,4.68,2.53ZM194.52,168.94v8.07l-.97-.69-.94.69v-8.07h1.9ZM186.72,171.79c.58-.52,3.27-3.29,4.09-2.87-.82.76-3.12,2.55-3.94,3.31-.21,0-.13-.19-.15-.45ZM186.3,170.88c-.54-.55,1.62-2.02,2.41-2.02v.07c-.39.31-1.99,1.95-2.41,1.95ZM187.56,172.8c.57-.51,2.7-2.41,3.26-2.28-.51.46-2.51,2.53-3.02,2.53-.12-.06-.16-.1-.24-.15v-.1ZM185.34,168.31c-1.37,0-2.57-.03-3.95-.03.13-.19,2.64-2.23,2.93-2.6,1.46.43.92.85,1.03,2.63ZM185.23,165.5q-.6-.06-.67-.09c-.03-.11-.03-.19-.03-.22.04-.07.15-.15.25-.19,1.72,0,3.73-3.54,5.14-4.1.21-.07.39-.01.61.08-1.05.98-4.27,4.34-5.31,4.53ZM184.64,163.72c0-.23.24-.5.65-.83.69.69,1.43.75.08,1.76-.1-.01-.16-.01-.25-.01.46-.73.3-1.01-.48-.92ZM188.42,161.3l.27.24c-.16.1-.34.21-.46.39-.38-.28-.78-.64-.93-.82.56-.39.98.15,1.12.19ZM188.32,160.21c.1,0,.22-.16.28-.21.22,0,.55.55.85.89-.1.12-.15.15-.3.15-.45-.27-.76-.6-.83-.83ZM187.74,162.27c-.07.12-.07.21-.13.3-.13,0-.21,0-.33.03-.28-.18-.55-.4-.82-.6v-.28c.3-.31.87.13,1.28.55ZM187.05,162.94c-.03.1-.07.26-.16.31-.6.08-.84-.29-1.23-.7.28-.21.31-.2.47-.23.27.18.61.4.92.62ZM187.91,154.52c.36.2,1.25,2.65,1.65,3.54-.07.05-.1.05-.17.11-.08-.04-.18-.05-.27-.04-.53-.86-1.45-2.82-1.22-3.61ZM188.07,158.56s-.39.12-.45.11c-.84-1.48-2.47-5.43-3.03-7.42.74.05,3.41,6.36,3.48,7.31ZM189.44,155.23v.19c-.48-.75-.97-1.51-1.57-2.16-.2-.21-.4-.4-.61-.6l-.14.63c-.01.08-.03.16-.03.24-.24-.46-.5-.9-.78-1.34-.11-.18-.23-.35-.35-.52-.28-.4-.59-.79-.93-1.14.97.42,1.97.77,2.98,1.09.85.26,1.7.49,2.57.69v3.83c-.16-.16-.31-.31-.48-.46-.2-.17-.43-.3-.65-.44ZM190.95,159.14c-.06,0-.07,0-.07.03-.49-.82-.85-1.56-.85-2.26.33-.09.93,1.56.92,2.23ZM197.3,159.93l-.03.53-7.69.08v-.61s7.72,0,7.72,0ZM175.67,138.09l-.24-.48c-.3-.65-.58-1.3-.84-1.96-.26-.69-.49-1.38-.72-2.08l-.04-.14.45.12.84-.15c.28.13.57.28.87.37-.08.78-.16,1.55-.23,2.33-.05.52-.11,1.05-.12,1.57,0,.14.02.28.04.42ZM172.81,128.7c-.14-1.14-.25-2.29-.24-3.45h4.25c-1.57.83-1.68,2.79-1.18,4.3-.89-.43-1.8-.94-2.83-.85ZM173.4,130.35l-.3.12-.1-.58c.13.16.27.31.4.46ZM182.15,126.22c.13,2,1.11,3.95,2.36,5.49-.22,0-.48.04-.64.2l.02-.15-.49-.23c-.66-.27-1.48-.08-1.99.42v-.02c-.4.2-.86.4-1.2.69.01-.44.02-.88,0-1.32-.04-.81-.11-1.65-.53-2.36.12,0,.28.01.38.08.02.02.04.04.05.07l.17.79c.3-.04.6-.05.89-.15l.6-.02c.31-1.91-.53-3.5-2.66-3.13-.07-.51-.26-1.02-.69-1.34h3.71c0,.24,0,.73.02.97ZM171.08,133.57c.1.74-1,1.84-1.75,1.59-.06-.33-.09-.64-.1-.92.1-.03.24-.03.36-.03t.05-.04c-.58-1.19-1.65-.89-1-2.53.21-.18.42-.37.61-.57-.4-1.05-1-2.6-1.56-3.4-1.23-1.19-1.67-1.66-1.77-1.49,1.16.97,2.86,3.06,2.86,4.85-1.83,2.29.28,2.05.07,4.13-.15.18-.74.06-.82.06,0-.57.09-.61.22-.96-.79-.98-1.54-1.11-.56-2.51.8-.59-1.03-3.6-1.64-4.09-.43-.3-.85-.55-1.28-.83v.07c1.87,1.31,2.26,2.14,2.84,4.57-1.96,1.95.7,2.35-.11,3.7-.28.12-.56.1-.83.1,0-.52.27-.52.31-.83-1.99-1.29.3-2.33.3-3.43-.82-3.7-6.9-4.04-5.58-8.03.24,0,.7.3,1.22.3,1.23-.39.83-.97,1.01-1.86,1.22,1.01,2.11,1.92,4.04,1.71,0,0,0-.03.03-.06-3.24-2.39,2.02-5.49,2.23-2.39,0,0-.02.01-.06.01-.39-.31-.64-.68-.95-.36,1.28.86-.06,1.41.77,2.25.88,1.34.76,1.93-.76,2.7,0,.69,1.19,1.93,1.31,3.37-.04.82-.33,1.9.01,2.89.69.86.39.77.16,1.87.07.08.22.09.36.16ZM169.09,136.73c.07-.03.24-.03.4-.03,0,.31-.36,2.93.34,3.29,1.04-1.29.25-3.72,1.31-4.09.21.4.51,8.61-1.56,9.4-.95-2.39-1.28-6.38-.49-8.57ZM169.12,135.58c.58.43.9.55.04.65-1.25-.18-1.06-.89-.04-.65ZM170.66,135.48c-.16-.03-.33-.04-.51-.07v-.13c.24-.12.57-.42.85-.42.07.07.28.28.28.6-.21,0-.42.03-.63.03ZM162.16,135.37c1.64-1.67,2.38-4.12,3.21-6.2.06-.06.13-.06.21-.06.3,1.31-2.95,8.64-4.74,10.2,0-4.16,1.72-7.51,3.28-11.33h.12c.07.07.13.21.25.3-.91,2.29-1.96,4.52-2.41,7.06t.07.03ZM166.01,129.66h.12c.09.09.18.18.18.49-.88,2.45-1.72,4.8-1.59,7.72.58,0,1.11-2.45,1.19-2.7.05-.02.1-.02.19-.02.74,1.13-1.34,5.63-2.17,6.87h-.18c-.83-3.88.82-8.9,2.26-12.36ZM166.63,136.41c.6,0,.19,2.1.49,2.96.48-.49.58-1.99.72-2.5.07,0,.18,0,.33.03,0,2.33-.15,5.05-1.63,7.08h-.15c-1.19-2.17-.25-5.47.25-7.57ZM166.83,135.59c.24-.01.56-.01.85-.01,0,.24.03.49.1.76-.18,0-.33.04-.51.07-.54-.28-.45-.52-.45-.82ZM155.75,130.48c-.18-1.31-.36-2.6-.51-3.9q.3-.1.68-.18c.42,1.02,1.34,6.57-.46,7.4-.03-.33,0-.83-.03-1.03.42-.55.28-1.46.31-2.3ZM156.29,126.31c.27-.25.39-.46.71-.56.55,3,1.8,7.19-1.14,9.51-.06,0-.1.01-.16.01,0-.34-.03-.71-.1-1.04,1.96-1.93,1.01-5.16.7-7.92ZM154.87,125.79c-3.72-.54-.18-4.07.4-1.19,1.1-.79,1.1-3.6,1.66-4.77,1.27-1.35,2.11-3.37,2.29-5.34.6-.11.76-.31,1.49-.76,1.44-1.14,1.59-2.62,1.68-4.15.3-.25.6-.51.89-.73,0,2.86-.48,6.56-2.84,8.58.12,1.87-.39,2.07-1.44,4.07-.83,2.53-1.22,4.2-4.13,4.28ZM151.23,126.82c.18-.09.33-.55.52-1.1.22.24.49,1.1.66,1.61.82,2.7,2.67,8.03.82,10.82,0-.01-.05-.01-.05-.06-.1-.57-.25-1.22-.37-1.8,1.42-1.9-1.69-8.73-1.57-9.47ZM151.37,144.64c.12-1.89-.37-3.4-1.01-5.87-.92-3.45-1.83-5.8-2.86-8.45.16-.7.62-.95.76-1.49.22.24,2.8,8.93,3.36,11.17.74,2.91.43,6.21.13,5.69h0c-.06-.37-.4-.7-.39-1.06ZM146.71,130.76h-.11c-.36-.94-.58-1.44-.46-1.52,1.44-1.47,1.59-2.77,1.71-4.64.33-4-.12-8.31-.21-12.21.33-.22,1.01-.64,1.22-1.02h.12c0,4.87.3,9.8-.12,14.67-.18,1.47-1.3,3.36-2.16,4.71ZM146.03,112.79c.37-.07.76-.15,1.16-.19.3,3.87.3,8.01.34,12.14-.12.92-.64,3.45-1.56,4.1-.05-.77-.15-1.46-.15-1.52.19-.31.39-.74.43-.94.3-.76.15-1.57.24-2.38-.15-3.73-.52-7.64-.46-11.22ZM143.65,112.79s-.09-.02-.12-.02c.46-.49.86-1.01,1.34-1.49,4.56-.65,4.73-4.48,6.36-8.45.52-1.01,1.07-1.96,1.59-2.99.25,0,.98.09,1.56.09-.77,1.31-1.58,2.57-2.22,3.96-2.07,5.65-2.51,7.97-8.52,8.89ZM141.75,113.9c.36-.21.89-.34,1.31-.66.09,4.51.21,9.23.51,13.78,0,1.53-.42,5-.76,4.3-.83-2.13-.34-1.87-.34-3.9-.36-4.56-.71-9.08-.71-13.53ZM149.8,97.59c1.8-.36,3.11-1.81,4.31-3.2q.06,0,.11.03c-1.23,1.99-2.62,3.72-4.97,3.88-3.48-.95.24-4.86,1.37-6.07,0,1.27-3.73,4.76-.82,5.35ZM151.72,93.44c.74,1.02,4.39-1.2,4.62-1.11-1.4,1.31-2.67,2.07-4.47,2.07-2.99-.83.67-4.18,1.66-5.1h.13c-.39,1.59-2.72,3.11-1.95,4.15ZM157.86,90.31c.4-.37.75-.7,1.19-1.06t.01.05c-1.46,1.95-1.62,2.39-3.98,2.67-1.86-.43-1.31-1.83-.91-3.17.13-.03.36-.03.55-.03.05.03.05.09.13.12-1.44,2.7,1.11,2.5,3,1.41ZM159.2,89.73c.52-.42.36-.68,1.03-.43-.1.64-2.47,2.54,0,2.82,1.54,0,1.93-1.07,3.06-1.65.09.12.04,0,.21.36-1.34,1.29-2.32,1.95-4.15,1.95-1.93-.37-1-1.83-.28-2.87,0,.02.23-.18.13-.18ZM163.58,94.05q.3-.12.51-.12c-.07.25-.16.4-.27.49-.19.31-.86.25-1.02.25-1.78-.88.49-4.25,1.13-3.75,0,.37-2.35,2.77-.34,3.12ZM168.76,98.07c.64,0,1.02-.21,1.53-.77h.1c.06.13.55.77.55,1.19-.77.6-1.28.71-2.17.76-.06,0-.15-.05-.22-.05-.77-1.56-2.39-1.75-.07-2.54,0,.51-.57,1.05.28,1.41ZM172.71,98.38c.95,1.41,1.67-1.14,1.8-1.81.27.33.46.61,1.02,1,0,1.34-1.56,2.81-2.94,2.81-1.44-.58-1.56-3.14-1.72-4.23.52-.46,1.01-.89,1.56-1.36.09,1.2-.21,2.23.28,3.6ZM171.73,87.57c0-.3.04-.59.07-.88h.46c.37-.99.33-1.81.25-2.7.19-.12.48-.07.74-.07.37,1.04.49,3.92-1.53,3.66ZM171.15,90.47c.13-.74.24-1.53.49-2.13.19-.09.37-.15.55-.15.45.67-.52,1.89-1.04,2.27ZM173.44,87.18h.19c.04,1.16.95,3.28,1.6.91-.03-.58-.07-1.22-.07-1.81.37.06.7.12,1.07.15.09,1.71.06,3.78-2.14,3.88-.83-.3-1.46-1.65-1.5-2.26.36-.24.64-.53.85-.86ZM175.97,82.43c.18-.07.36-.22.74-.15.42.95,1.31,3.57-.85,3.57-.86-.22-2.2-1.14-2.2-1.86.16-.15.19-.36.49-.36.4.48,1.27,1.84,2.2,1.01.37-.73-.18-1.62-.39-2.22ZM179.87,80.08h.82c.64,1.52,1.8,3.66-.61,4.1-.79-.12-2.57-1.07-2.57-1.62.33-.21.45-.28.79-.36.39.33.76.71,1.37,1.01,1.78,0,.4-2.48.21-3.14ZM183.03,82.56c0-.07,0-.13.03-.19.39-.01.8-.07,1.23-.07.7,1.44,1.72,4.27-.98,4.27h0c-.77-.28-2.47-1.23-2.47-2.02.39-.3.62-.6.89-1.01.48.54.7,2.01,1.96,2.01.6-.61-.43-2.87-.67-2.97ZM186.03,88.2c1.99,0,3.08,3.87.16,4.34-.99-.25-2.32-1.23-2.53-1.83.15-.57.36-1.04.55-1.55.24.4,1.34,2.44,2.36,2.04.43-1.07-.18-2.26-.55-3ZM188.71,95.45c1.28.42,2.08,4.27.13,4.54-1.28-.27-2.44-1.3-2.65-2.39q.25-.49.43-.97c.48.61.73,1.61,1.74,1.78.85-.55.42-2.35.34-2.96ZM176.83,96.77c.59-.28.79-.77.95-1.32h.1c.31.95.58,2.07,1.62,2.81,1.17-.13.57-2.77.49-3.42.22,0,.69.36,1.27.4.67,1.28,0,4.33-1.68,4.61-1.29-.54-2.48-2.02-2.75-3.08ZM177.78,99.32c-.22.4-.22.77-1.06.8-.8-.03-1.62-.03-1.6-.31.09-.42.25-.79.55-1.68.19,0,.92,1.19,1.27-.12.48,0,.68.79.85,1.31ZM177.29,88.27c.4.16.91.4,1.46.6.54,1.14-.07,3.58-1.72,3.58-.92-.39-1.6-1.26-1.78-1.98.3-.25.6-.71.77-.99.31.51.36,1.77,1.47,1.77.79-.25-.15-2.63-.19-2.97ZM180.83,94.74c-.92-.13-1.32-.55-1.8-.95-1.32-1.53-.83-1.13-.06-2.44.31.12.97,2.77,2.13,1.99.42-.86-.06-2.32-.34-2.92.36,0,.68.4,1.32.57.49,1.49.85,3.52-1.25,3.75ZM181.93,86.56c.61,0,1.05.18,1.38.5.83,1.13.6,3.52-.88,3.66-1.38-.3-1.87-1.05-2.57-1.87.27-.34.61-.82.7-1.17.02-.05.05-.05.12-.05.16.4,1.11,2.5,2.04,1.8.13-1.23-.36-2.01-.79-2.87ZM181.8,96.68c.1,0,2.02,3.18,2.35,1.08.16,0,.71.24,1.1.36,0,1.96-.39,1.96-2.3,1.96-1.56-.64-1.25-2.26-1.14-3.4ZM184.93,97.65c-1.34-.27-2.45-1.81-3-2.71.42-.62.61-.76.83-1.52.09,0,.1,0,.16.02.33.85.77,2.08,1.78,2.61,1.25,0,.42-2.97.24-3.58.28,0,.72.39,1.31.48.61,1.37.54,4.4-1.32,4.7ZM178.88,87.45c1.39,0-.09-2.81-.3-3.12.31.09.58.24,1.14.3.64,1.29,1.44,3.98-.98,3.98-.89-.42-1.81-1.37-2.07-2.11.31-.25.45-.74.58-1.03.27.37,1,1.8,1.62,1.98ZM175.93,95.52c.7-.58.61-2.29.49-2.99.06,0,.07-.03.16-.03.34.3.6.13,1.04.45,0,1.93.12,3.79-2.3,3.79h0c-1.17-.54-1.48-1.53-1.98-2.47,0-.25,1.04-1.56,1.04-1.56.09.54.43,2.81,1.55,2.81ZM160.89,117.72c.28-.12.34-.22.76-.22.34.88.51,2.33-.91,2.33-.03-.02-.03-.05-.03-.05.37-.74.37-1.35.18-2.07ZM162.99,113.87c.1-.4.21-.82.3-1.23,0-.01.03-.01.04-.01.19,1.77-.3,3.95,1.31,5.35-.06,0-.06.01-.06.07-.21.01-.43.07-.65.09-3.81-.39-1.65-2.23-.94-4.27ZM162.43,119.07h.09c.13.36,1.98,3.61.28,3.61-1.41-.39-1.78-1.23-1.99-2.35.96.15,1.23-.33,1.62-1.27ZM162.53,118.12c.6.22,1.05.42,1.96.55.3,1.04.64,2.16,1.46,3.06v.19s-.08,0-.12.01c-1.38-.37-3.55-2.63-3.3-3.82ZM164.54,111.45c-.05-.07-.05-.12-.05-.16-1.46-.58-.91-2.42-.18-3.17,0,1.68-.85,1.62,1.08,2.93,0,.28-.83,2.29-1.04,2.97,0,2.1.91,5.13,3.88,4.3.31-.21.31-.48.33-.66-.4-.67-.89-.12-.89-1.4,1.08-1.58,3.36,1.5.03,2.63h-.86c-3.55-1.02-3.3-4.73-2.3-7.45ZM167.12,115.91c0-1.22.18-2.11.34-3.12h.13c.4,1.11,1.34,2.42-.48,3.12ZM168.56,108.4c0-.06.06-.06.06-.06.42,1.04-.39,4.16,1.61,3.18h.1c0,.6,0,1.19.01,1.8-.4.16-.82.16-1.11.16-2.22-.51-1.13-3.75-.67-5.08ZM169.4,115.62c.43-.3.68-.61,1.1-.76,0,.61,0,1.17.04,1.71-.15.1-.43.3-.6.24-.12-.52-.49-.98-.55-1.19ZM170.5,108.9h-.21c-1.77-.71-1.43-3.28-.89-4.5.68,0,.39,1.99,1.14,2.9-.04.49-.04,1.04-.04,1.6ZM167.39,111.19c-.37,1.95-1.78,5.47.85,6.45,0,1.1-2.23.1-2.55-.15-1.95-2.63-.72-4.03.27-6.53-1.19-.7-1.52-1.23-1.31-2.41.76-1.95,1.17-3.2.86-5.13-.1,0-.19,0-.24.03.24,3-.22,3.57-2.8,5.56-.22.16-.54.36-.54.66.06.95-.07,1.83-.67,2.72-.95,1.27-1.65,1-2.27,1.86-.54,3.31-2.2,7.02-5.92,6.78-3.37-.88-.86-3.99,0-2.29.3.64-.15,1.04-.62,1.25,2.63,1.74,5.23-2.42,5.54-4.21.12-.77.27-1.47.42-2.22,2.2-.98,3.12-1.83,3.12-4.31,1.93-1.93,3.89-2.32,2.82-5.59,0-.06-.04-.06-.07-.06-.19.24-.19.06-.19.42,1.06,2.35-1.28,3.84-2.96,4.98-.05,2.9-.27,2.96-3.02,4.33-.22.98-.43,1.92-.63,2.93-.89,2.6-2.47,3.98-4.42,3.73.09-.33.21-.4.39-.63,3.09-5.9,2.11-22.06,11.52-22.06,5.99,1.38,3.31,9.77,2.41,13.89ZM156.11,120.61c0,1.05-.04,1.74-.39,2.88h-.06c-.22-1.16-.97-2.73.45-2.88ZM155.28,123.28h-.1c-.4-.19-.61-.3-.79-.31-.09-.46-.36-1.31-.3-1.58.22-.07.4-.22.79-.13q.37,1.67.4,2.02ZM154.72,98.94c.82-.25,3.02-2.23,3.16-2.36-1.02,1.5-2.45,3.09-4.28,3.09-2.77-.77.57-5.07,1.47-5.56,0,.58-3.93,5.2-.36,4.83ZM157.35,95.53c1.41.1,3.96-2.83,4.31-2.87-1.35,1.74-2.54,3.45-4.84,3.48-3.05-.64-.64-3.18.77-4.37t.02.04c-.58,1-2.44,3.24-.25,3.72ZM157.27,99.72c.94.97,2.5-.4,3.25-1.19t.09.07c-1,1.11-1.69,2.11-3.17,2.11-2.27-.99.73-4.5,1.41-4.67-.36,1.19-1.95,2.14-1.59,3.67ZM156.67,100.88c-1.52,2.72-2.19,6.62-5.6,7.18.13-.58.19-1.02.54-1.29.27-.22,1.11-.36,1.56-1.22.95-1.95,1.56-4.03,2.81-5.69.27,0,.58.49.7,1.02ZM157.03,100.97c.46.03,1.02-.03,1.47.03-2.1,3.37-2.57,7.02-6.49,8.61-.7.18-1.38.39-2.16.6.36-.49.59-1.17.91-1.58,4.27-1.2,4.12-4.1,6.27-7.66ZM156.24,106.33c0,.91-.55,2.65-.77,3.72-.48,2.66-.93,6.12-2.1,8.7h-.06c-.21-.4-.55-.77-.66-.91,1.26-3.39,1.65-6.33,2.28-9.78.51-.49.93-1.03,1.31-1.73ZM152.15,110.02c.01-.06.76-.43,1.38-.63-.52,2.77-.94,5.4-1.16,8.27-.16.15-.91.55-1.07.48-.19-1.69.16-3.82.3-5.41l.55-2.7ZM160.37,97.59c-2.32-.74.34-3.7,1.28-4.36t.01.04c-.43.74-1.5,1.96-1.35,3.09.98,1.23,2.13-.39,2.81-.49-.09.16-.22.45-.37.57-.67.73-1.28,1.14-2.38,1.14ZM152.45,99.85c0,.09-.85,1.69-1.5,2.88-1.63,3.39-1.8,7.21-5.86,8.1.28-.63.69-1.32.73-1.35.36-.24,1.14-.58,1.59-1.4,1.49-3.15,2.83-6.27,4.6-9.29.06-.01.15-.01.21-.01l.24,1.07ZM148.57,98.45c-.24,1.19-1.68,3.35-2.35,4.55-.37.83-2.81,8.37-4.68,8.37-.01-.4.02-.74.1-1.08.4-.45.68-1.04,1.07-1.68,1.44-3.87,2.7-7.28,4.93-10.66.21,0,.6.24.92.51ZM141.57,111.91c.51-.22,1.1-.63,1.84-1.56,1.5-2.78,2.44-5.81,3.88-8.59.51-1.04,1.1-2.04,1.66-3.06h1.38c-1.19,2.19-2.29,4.28-3.33,6.53-.99,2.87-2.44,7.23-5.78,8.34.16-.63.22-1.4.34-1.65ZM143.96,129.33c.1-3.7-.43-13.6-.51-16,.28-.13.51-.09,1.37-.28,0,5.08.7,10.35.6,15.59-.19,1.92-.6,3.55-1.55,5.37h-.18c-.98-2.26-.16-2.54.27-4.68ZM149.4,124.2c.45-.95.6-2.2.6-3.54,0-3.09-.31-7.42.63-10.23.27-.22.68-.28,1.17-.36-.43,1.75-.68,3.54-.85,5.49-.03,2.08.61,8.52-1.68,10.39.01-.52.01-1.23.13-1.75ZM150.23,125.44c.83-1.63,1.07-3.18,1.07-4.83.18,0,.68.48,1.02.71.12,1.55-.73,5.89-2.48,6.45-.54-1.59-.66-1.19.39-2.33ZM152.06,125.35c.09-.49.24-.72.39-1.04,1.16,1.17,2.27,6.6,2.59,8.43.13,1.31.36,6.63-1.34,7.49-.09-.43-.13-.89-.16-1.35,2.16-4.28-.07-9.65-1.47-13.53ZM158.17,125c-.06-.28.28-.51.49-.76.86,2.48.86,6.17-.61,6.82.02-.37.06-.71.12-1.05.95-1.66.09-4.15,0-5.01ZM158.17,131.47c2.2-1.74,1.35-5.13.82-7.22,0-.49.13-.85.21-1.2.03,0,.1,0,.15.02.88,2.22,1.92,8.11-1.3,9.17,0-.34,0-.54.12-.76ZM160.37,120.84c.37.95,1.17,2.67.52,3.95-.03-.06-.03-.07-.03-.07-.12-.28-2.37-4.36-.49-3.88ZM161.52,125.89s.16,0,.27.02c.46.76-.52,1.53-1.19,1.68-.13-.92.43-.96.92-1.69ZM170.45,103.89c-.12.01-.24.07-.37.1-.19-.15-.42-.31-.62-.4,0-2.63-1.44-3.67,1.38-4.58-.21,1.67-.39,3-.39,4.88ZM170.84,100.64h22.14s0,11.08,0,11.08h-.77l.03-10.17h-20.59s0,20.31,0,20.31h10.49v1h-11.29v-22.23ZM182.64,110.05c-.77.54-2.17,1.48-2.89,1.48-.07-.08-.13-.2-.22-.27h-.06c0,2.67-1.47,3.06-3.01,5.13.04,1.73.49,3.34-1.74,3.82,0-1.47,1.41-1.63,1.06-2.93-1.8-1.68.99-1.93.42-4.11-.03-.04-.03-.06-.07-.09-.64.64-1.29,1.31-2.25,1.25-2.72-1.2,1.35-5.26-.26-6.86-1.13-.48-1.23-.28-.99-1.35,1.07-.54,1.89,1.45,1.93,2.44-.14.84-2.69,5.82.16,5.16.11-.13.23-.2.33-.33,1.02-2.33,3.14-3.63,5.08-5.29-.07-1.99-.41-3.2.96-4.62,1.39-.84,1.81-1.23,3.24-.03-.01.03-.01.14-.01.23-.11,0-1.99-1.16-1.52-.29,2.44.68-.31,2.27-.49.47-.41-.16-.48-.38-.6-.41-.14.17.57,1.25,1.09,1.45,1.15.03,2.21.95,1.61,2.5-.81,0-1.84-1.22-2.09-.83,1.09,1.45,2.93,2.11,4.96,2.16.31-.33,1.23-1.54,1.66-.59-2.54,2.31-5.67.75-8.19,2,.35.39,1.23-.09,1.89-.09ZM179.45,107.79h0c-.13-.25-.4-.45-.67-.53l.29-.27-.61-.45.62-.52-1.7-1.81-.44.55-.45-.69-1.8,1.57.63.66-.58.41c-.41-.9-1.41-1.7-2.4-1.19v-3.29h9.61c-2.35.82-2.81,3.38-2.48,5.57ZM175.23,108.4c-.04-.41-.14-.8-.28-1.19l1.25,1.34.46-.48.42.75.2-.18c.04.22.19.47.37.61-1.35,1.05-2.46,2.35-3.26,3.84-.04,0-.25.02-.28-.02-.29-1.62.99-3.1,1.11-4.67ZM177.25,107.74l-.45-.8-.6.62-.61-.65.74-.52-.68-.71.68-.6.54.81.54-.67.68.73-.73.61.64.48-.76.7ZM178.38,107.88c.32,0,.52.22.52.46,0,.29-.2.48-.52.48-.29,0-.46-.19-.46-.48,0-.25.17-.46.46-.46ZM172.7,107.84c.17.06.34.13.51.19.42,1.38-.73,2.75-.89,4.12v-4.51c.11.07.24.13.38.19ZM172.34,113.57c.34,1.25,1.78,1.81,2.88,1.12-.81.82-1,2.1-.06,2.91-.02.56-.61.89-.82,1.39-.35.64-.3,1.37-.32,2.07,2.38-.3,3.41-1.55,3.16-3.94,1.83-.63,3.97-1.44,4.97-3.21v7.27h-9.83v-7.69l.02.07ZM179.67,112.19c.2-.12.33-.33.55-.26-.03.89-.73,1.69-.73,2.4.86,0,1.54-.22,1.79-1.12.07,0,.2,0,.33.04,0,1.22-2.79,2.61-3.67,2.9.3-1.63,1.93-2.25,1.73-3.96ZM181.79,112.59c-.31-.08-.61-.06-.94-.06l-.08.18c.08-.27.12-.53.14-.81.42-.19.82-.43,1.2-.67,0,.19.08.36.19.5h-.16v.98l-.36-.11ZM184.85,106.51h.16c.14.35.36.77.51,1.31-.13,0-.22.06-.29.06-.52-.16-.34-1.02-.38-1.37ZM182.8,111.13c.67-.57,1.13-1.08,2.09-1.15-.35.74-1.15,1.31-1.89,1.48-.28-.23-.2-.26-.2-.33ZM185.41,110.45l.14-.28c1.58-.08,3.11-.75,4.23-1.86-.46-1.56-1.94-1.44-2.79-.27-.25-.01-.5-.04-.74-.08-.17-.74-.51-1.43-.8-2.13h-.31c-.13-.45-.46-.86-.83-1.13.05-.09.12-.21.14-.31l.55.11c0-.29-.02-1.03.13-1.29l-.49-.41c-.29-.23-.58-.43-.9-.58h7.82s-.02,9.49-.02,9.49h-7.4c.52-.31.97-.74,1.28-1.27ZM185.59,135.39c-.43.33-.82.43-1.14.43-.69-.16-.55-.73-.1-.85.51-.12,1.17.27,1.24.42ZM185.8,133.79c.45-.22.81,1.28.4,1.3-.4-.26-.63-.3-.69-.45-.07-.16.06-.34.29-.85ZM186.11,136.03c0,.58-.22,1.05-.76,1.28-.04-.29-.13-.62-.13-.94.26-.13.61-.2.89-.34ZM189.46,139.85c.01-.09.01-.18.09-.28,3.05.28.77,4.3-1.84,4.3-.03-.05-.03-.08-.03-.08,1.14-.49,3.12-3.12,1.78-3.94ZM190.65,143.09c1.43.91.19,1.87-.99,1.93-.53-.08-1.17-.23-1.43-.43,1.43-.14,2.42.2,2.42-1.5ZM188.99,143.9c.32-.26.92-.68,1.17-1.02.32.53.22,1.2-.52,1.2-.2.01-.46-.06-.65-.17ZM187.74,143.39c-.27.01-.55.07-.79.1-1.04-.4-2.98-1.11-3.14-2.09.82,0,1.89.89,2.78.89v-.13c-.82-.29-1.74-.71-1.95-1.36.52,0,1.14.43,1.95.6v-.13c-1.27-.8-1.84-.45-2.32-1.67,1.12.28,6.3,1.73,3.47,3.78ZM179.29,138.28s-.08,0-.08.01c-.75-.36-.45-2.2-.39-2.65.66.66.46,1.56.48,2.64ZM177.91,133.04c.66,0,.53,1.12.53,1.74t-.06.04c-.37-.85-.4-1.18-.48-1.79ZM177.78,138.28c0-1.01-.22-2.86,0-3.59.36.58.99,3.45,0,3.59ZM177.87,130.73s-.11-.06-.11-.06c-.06.99-.06,1.96-.09,2.97,0,0-.03.02-.04.03-1.37-.91-1.63-5.61,1.14-4.7,1.04.55.75,3.63.71,4.8h-.14c-.63-.89-.63-2.71-.79-2.77v2.03h-.04c-.82-.51-.62-1.69-.62-2.31ZM177.12,137.94h-.79q-.06-.29.34-4.33c.77.29.45,3.36.45,4.33ZM181.12,129.06c-.11,0-.19.06-.32.07-.27-1.83-3.53-.29-4.27.32,0-1.8,4.92-3.78,4.58-.39ZM177.85,126.81c.2.02.45.14.61.28-.36.2-1.03.51-1.33.8-.22-.58,0-1.22.72-1.09ZM178.85,133.77c.13,0,.32.1.62.33,0,.68.04,1.33.06,1.96-.06,0-.06.04-.07.04-.56-.81-.68-1.61-.6-2.33ZM179.66,140.57c.39,0,3.6.82,3.88,1.7-.03,0-.08.03-.11.06-1.34-.36-2.71-.72-4.07-1.05,0-.3.14-.46.3-.71ZM182.51,139.96s-.04.04-.17.04c-1.05-.32-2.02-.51-2.21-1.33.48,0,2.02.6,2.38,1.28ZM180.82,137.26q.11-.06.99-.14c.07.28.14.64.27.9-.33.19-1.22-.12-1.27-.75ZM181,136.69h0c-.11-.65,1.02-1.44,1.28-.97.24.7-.66,1.08-1.28.97ZM182.74,137.73h-.14c-1.2-2.29,1.64-1.87.14,0ZM183.11,135.76c-.29,0-.56-.17-.56-.49s.27-.51.56-.51c.23,0,.54.2.54.51s-.3.49-.54.49ZM183.11,134.16c-.6-.29-.22-1.28.32-1.53.22.4.68,1.53-.32,1.53ZM182.6,132.96c-.29,0-.55-.23-.85-.39.45-.56,1.14-.54,1.4-.4,0,.16-.39.59-.55.79ZM182.21,134.44c-.68-.19-.68-.88-.68-1.27.84-.13,1.61,1.13.68,1.27ZM181.4,135.37c-.52-.16-.82-.34-.92-.68,1.53-.82,2.03.68.92.68ZM180.27,134.18c0-.7.19-1.01.75-1.3.06.16.2.58.2.96q-.62.27-.95.33ZM180.84,135.81c0,.13-.32.85-.48.85-.3-.33-.45-.98-.24-1.41.22.19.46.36.72.56ZM180.13,137.42h.02c.04.21.12.43.25.6l-.44-.03c0-.25.01-.49.02-.74l.15.17ZM180.06,139.54c1.14.43,2.16.43,3.22,1.54-.04,0-.1,0-.13.06-1.07-.39-2.15-.79-3.22-1.18,0-.27,0-.22.13-.42ZM183.4,144.53c.16-.13.33-.25.51-.32-.09-.63-.29-1.51.17-1.8.95.77.78.36.63,1.64.06.37.75,1.73.14,2.02-.3-.86-.52-1.47-1.46-1.36v-.19ZM185.23,143.3c.16,0,.43,0,.73.2-.27.92.14,1.69.14,2.72-.04-.01-.06-.01-.13-.01-.43-.95-1.21-2-.75-2.91ZM184.5,141.29h-.14c-.45-.2-1.28-.65-1.41-1.01.39,0,1.56.23,1.56,1.01ZM184.02,140.2c-.91-.25-1.5-.78-1.87-1.33.45,0,1.2.4,1.82.58.06.29.14.5.19.75h-.13ZM182.91,138.27c.16-.29.39-.59.53-.81.33.1.74.23.94.43-.4.38-.88.61-1.47.38ZM184.72,137.26h-.16c-2.41-.68.16-2.61.16,0ZM185.11,133.57c-.09.59-.33,1.07-.97,1.11-.96-.26.1-1.25.97-1.11ZM184.47,133.31c-.22-.6-.24-.88-.13-.91.32-.1,1.01.33,1.12.75-.33.19-.63.16-.99.16ZM178.44,126.69c-1.54-.72-1.65.33-2.38,1.56-.07-.32-.03-.96.21-1.48.55-1.05,1.95-1.76,2.17-.08ZM176.06,130.4v.73h-.48c-1.02-.32-1.57-1.12-2.12-1.74.59,0,1.63.79,2.6,1.01ZM173.59,131.94l.2.58-.12.34c-.06-.2-.23-.82-.27-1.01l.19.1ZM173.56,131.15v-.13c.61-.3,1.63.87,2.89.99.08.26.32.55.32,1.05-.17,0-.29.07-.43.1-.5-.13-1.04-.46-1.3-.53-.25.2-.42.32-.65.25.36-.94-.13-1.42-.82-1.73ZM177.11,138.62v.52s.98-.24.98-.24c.17-.08.3-.14.43-.28l.23.2.7.39s-.06.09-.09.14c-.11.21-.12.38-.12.61-.2.31-.42.58-.52.94-.07.3-.05.6-.06.9l.78.19c1.23.3,2.45.63,3.67.95-.02.31.01.6.05.9-.15.11-.3.23-.44.35v1.26l.81-.08c.06,0,.12,0,.19,0,.18.04.28.33.34.48.15.39.29.8.43,1.19l.8-.46.09-.07.17.36h.41l.84.27c.05-.96-.14-2.01-.25-2.95,1.35,1.26,3.83,2.32,5.18.48v4.83c-6.55-.78-12.82-4.98-15.8-10.9h1.17ZM191.45,142.86c-.12-.1-.24-.19-.36-.28,1.26-1.86.41-3.69-1.88-3.74-.31.39-.45.83-.49,1.33.55.23.6.73.31,1.2-.99-1.45-2.88-1.91-4.47-2.39v-.07s-.33-.09-.33-.09c.33-.17.58-.41.86-.66.3-.13.6-.25.87-.42.48-.34.72-.79.81-1.37.03-.29.02-.58.03-.88.1-.12.15-.21.2-.36.08-.3.06-.63-.02-.94l.81.62c.47.33.93.63,1.42.93.49.28.99.55,1.49.8.34.16.69.31,1.04.45v6.2c-.09-.13-.18-.23-.29-.35ZM182.81,125.72l.02-13.32h20.93v13.56c0,5.95-4.86,9.32-10.27,10.94-5.35-1.55-10.68-6.35-10.68-11.18ZM196.83,97.23c.95-.91.95-3.67,2.7-4.1-.13.89-.22,1.77-.22,2.78-.66.65-1.59,1.72-1.17,2.78,1.02-1.84,3.02,1.25.33,1.25-4.55-.7-4.19-5.51-2.55-8.64.19-.19,1.17,1.56,1.17,2.05-.42,1.26-.79,2.48-.25,3.88ZM215.77,100.64v22.23s-11.27,0-11.27,0v-1h10.3v-20.31h-20.28v10.16h-.82v-11.08h22.07ZM203.59,88.86c1.07-.43,1.9-.94,3.2-.52q-.05.42-.33,1.22c-.92.64-3.42-.25-3.61,1.78,1.46-.88,2.11,1.61-.06,1.46-3.72-1.03.25-7.39,2.72-7.39.06.34.13.7.22,1.01-.09.13-2.38,2.19-2.14,2.44ZM217.42,79.65h-.15c-1.08-.89-1.56-.49-1.67.76-.03.03-.04.06-.06.06h0c-3.11-1.53,2.63-4.03,1.87-.82ZM214.94,81.03c.31.05.91,0,1.14.51-.06.3-.18.42-.73.39-2.35.74-2.38,1.08-3.42,3.14,0,.1-.36,2.16-.55,2.01-.91-2.78.64-5.69,3.55-6.04ZM218.98,100.34c1.53-1.01,2.79,2.31-.72,2.31-2.17-.52-2.1-1-2.17-2.5-.18-.03-.33-.06-.48-.06-1-2.07-.37-3.78.34-5.66.22,0,.77.04,1.1.36-.49,1.84-.67,4.12.89,5.72.03-.49.03-.97.04-1.49.42-1.25.82-2.61.91-3.87q.46,0,1,.06c.7,1.44-1.08,3.48-.92,5.13ZM220.6,103.11c.61.57,1.19,1.22,1.83,1.81.62,2.45-1.11,6.7-4.12,6.7-4.77-.95-.15-5.38-.15-2.23-.59.63.76,1.03,1.27-.22,0-2.97-3.2-3.97-3.26-6.96,1.41,0,3.81,4.46,4.43,5.8,1.56-1.47-.24-4.12,0-4.91ZM225.09,103.67v-.16c.33-.24.61-.49.94-.71.4.21,1.23,2.14,1.56,2.92.46,2.35-.94,5.29-3.7,5.29-3.48-1.33-.28-4.55.28-1.89-.02.07-.09.15-.05.28,1.5-3-2.9-6.48-2.73-6.75,3.03,1.68,4.16,1.95,4.43,5.86,1.28-1.28.33-3.91-.73-4.83ZM229.06,111.06c-1.47-.77-1.84-.24-2.86.74-1.2,2.45-3.08,10.91-6.27,10.86-1.38-.24-2.63-1.2-1.67-2.5.33.16.58.85,1.33.85q.07-.03.16-.73c.79-1.31,2.02-.54,3.01-1.23,1.4-2.47,1.32-5.48,2.64-7.92,1.96-1.53,2.5-2.16,2.65-4.67,1.57.3,2.77.96,4.24,2.05-.98.79-1.43,2.75-2.2,3.9-.16,0-.83-1.2-1.02-1.34ZM225.34,121.63c-1.34-.12-1.81-.37-2.91.31-.07-.01-.15-.06-.18-.06,1.87-3.12,3.18-6.26,4.13-9.66.51-.8,1-1.25,1.98-1.25,3.61,1.4-1.83,9.08-3.02,10.66ZM219.43,112.2c.15-.12,1.16-.62,1.47-.62.48,1.13.95,2.19,1.1,3.52,1.01-.93,1.16-2.51,1.16-3.73.33,0,.58.15,1.13.21.02.04.06.1.09.13-.57,2.47-1.31,6.72-4.73,6.72-3.57-.79.83-4.86.83-1.31.85-.86-.91-4.04-1.05-4.92ZM217.02,117.81q-.7.65-.79.62c0-2.81.19-2.35,1.1-4.42q.13-.55.25-1.8c.21,0,.82,0,1.16.18-.06,1.99-.46,3.72-1.72,5.41ZM218.65,122.64c.94.22,1.75.63,2.94-.09h.15c-.24.39-.36,1.13-.66,1.47-1.86,1.27-3.11,2.32-4.62,3.96-.06,0-.15.07-.24.09,0-2.6-.21-4.16,2.42-5.43ZM212.99,98.41c.85-1.66,3.51,1.31-.22,1.52-4.24-.54-2.61-7.69-.34-9.32.12.12.77.79.77,1.23-.97,1.41-1.93,3.37-1.38,5.29.03,0,.07.03.07.04.33-.33,2.72-5.57,3.58-2.99-.86.65-2.81,2.97-2.48,4.22ZM208.07,98.41c1.77-1.44,2.5,1.44.62,1.44-6.58-.61-3.89-9.56-2.32-9.02,0,.88.74,1.89.21,2.66-.4,1.2-.67,2.26-.08,3.69h.03c.43-1.2,1.17-2.66,2.47-3.21.27-.03.6-.03.98-.13,0,.45-.15,1.23-.19,1.84-1.32.82-1.81,1.02-1.72,2.73ZM208.79,93.56c-4.21-1.5-.55-8.09,1.77-7.55.18.39.18.97.27,1.56-1.37.55-1.56.57-2.23,1.93h.19c1.08-.89,1.64-.85,3.05-.48.04.24.27.99.15,1.4-.95,0-3.12-.22-3.12,1.28,1.49-.88,2.1,1.86-.08,1.86ZM218.7,88.61c1.81-1.29.61,1.59.46,2.32-.03,2.02.74,2.32,1.63,3.85h-.13c-2.78-.89-3.63-4.06-1.96-6.17ZM218.74,88.04c-.34.61-.76,1.33-.86,1.68-.31,1.62-.46,2.39.43,4.06.27.34.52.68.42.68-2.77-1.77-3.17-5.4-.73-7.4.12-.12.27-.12.4-.12.69.07.61.62.34,1.1ZM218.09,86.65c-2.41,1.96-2.53,4.79-.83,7.45-.03,0-.09,0-.12.02-3.37-1.71-2.57-7.46.56-8.52.42,0,.66.52.39,1.05ZM217.69,85.16c-2.96,1.95-3.92,4.59-2.2,8.07-.01,0-.09.01-.13.01-2.75-2.6-1.81-6.44.04-8.3.83-.71,2.86-1.49,2.29.21ZM217.17,83.72c-2.71,1.11-3.34,2.39-3.75,5.25-.03.6-.06,1.11-.07,1.74-1.11-2.74-.25-6.07,1.43-6.97.37-.27,2.54-1.25,2.39-.02ZM216.23,82.98c-1.71.43-2.39.67-3.49,3.3-.13.79-.3,1.52-.42,2.28q-.06.06-.09-.02c-.77-2.29-.01-5.43,2.38-6.18.15-.05.74-.25,1.23-.27.39,0,.76.12.76.48-.03.21-.19.39-.37.42ZM213.12,80.14c-1.93.68-3.33.68-4.57,2.17.71,0,2.29-.68,3.11.06-.22.4-.4.86-.61,1.28-1.01.07-3.55-.04-3.55,1.58,1.31-1.04,2.48,1.28-.08,1.47-2.42-.58-1.1-4.03-.13-5.25,2.08-1.84,3.18-2.73,5.83-1.37v.06ZM201.96,93.09c-.34,1.25-.85,2.65-.25,4.04.7-1.4.71-3.69,2.39-4.25-.13,1.04-.13,1.86-.02,3.03-.46.54-1.57,1.74-1.07,2.72.95-1.74,2.97,1.01.45,1.22-3.98-.61-4.22-5.11-2.77-7.98,0-.06.1-.1.15-.18.27.59.33.88,1.11,1.4ZM210.76,150.79c-.05-.4-.08-.81-.15-1.22,1.24,1.23,2.64,2.47,3.23,4.17.59,1.77.39,3.87-.69,5.42-.92,1.37-2.64,1.94-4.24,1.81-.77-.02-1.63-.39-2.41-.32.14-.12.24-.26.36-.4l-.05-.09c.4-.18.79-.42,1-.82l-.11-.11c.35-.14.71-.33.82-.72l-.1-.13c.31-.15.66-.23.95-.42v-.15s.09-.12.09-.12l-.17-.22c.32-.18.65-.34,1.02-.42v-.39c.32-.32.67-.61,1.06-.85-.15-.95.02-2.02-.49-2.88-.33,0-.65,0-.97.01.34-.25.7-.47,1.04-.72-.07-.48-.13-.95-.19-1.43ZM207.43,154.54c-.31.24-.68.27-.92.27-.1-.03-.18-.06-.25-.1-.06-.07-.06-.09-.06-.13.19-.07,1.23-.64,1.23-.03ZM206.39,152.06c.13.24.49,1.19.13,1.62h-.13c-.55-.34-.43-1.62,0-1.62ZM209.51,156.42v.16c-.62.22-.91.22-1.34.22-.24-.24-.12-.16-.12-.22.22-.22,1.03-.46,1.46-.16ZM209.3,155.54c.16-.76.48-1.51,1.13-1.74.28.83-.28,1.37-1.13,1.74ZM208.01,155.18s-.06-.06-.07-.06c.07-.83.28-1.47,1.1-1.47.15.23-.7,1.43-1.02,1.53ZM208.13,149.56c.24-.15.38-.08.77-.05-.22.49-1.44,2.43-1.89,2.34-.18-.61.89-1.83,1.13-2.3ZM207,157.35h-.24c-.39-.49-.3-.98-.09-1.31h.25c.18.31.25.82.07,1.31ZM207.71,158.31c-.12.3-.79.36-1.02.36q-.22-.06-.36-.15c.25-.34.95-.55,1.38-.21ZM208.21,152.8c.06-.97.97-2.42,1.81-2.7.09.28.12.55.12.98-.45.46-1.37,1.59-1.93,1.72ZM209.21,148.62c-2.12.14-2.61.65-2.96,2.74h-.11c-.04-.72-.1-1.43-.09-2.14-.99-.01-1.97.08-2.95.23,1.84-1.06,3.59-2.43,5.1-3.92.13,1.13.75,2.2,1.49,3.05-.16,0-.32.02-.48.04ZM201.56,164.35c-.07,0-.07,0-.09.03-.68-.46-.49-1.2.21-1.37.13.15.36.28.51.42v.12h-.46c-.24.37-.24.22-.16.8ZM197.06,159.29c-.1.07-.16.19-.24.27h-.42c0-.89.8-.95,1.5-.95.61.28,5.89,4.12,5.34,5.77-.05.06-.13.07-.16.1-.39-.37-.3-.45-.36-.76-1.26-1.25-4.59-5.1-5.66-4.43ZM200.87,163.28c-.06.2-.14.17-.25.23-.52-.2-1.07-1.4-1.17-1.72.83-.11.85.6,1.42,1.48ZM197.59,160.15c.77.12,1.74.43,2.32,1.32-.09,0-.13,0-.15.02-.36-.1-2.46-.82-2.17-1.34ZM204.84,156.67c-.12-.03-.24-.07-.33-.09,0-.46.98-.61,1.4-.46,0,.03,0,.04.04.12-.33.33-.83.43-1.11.43ZM205.6,159.03c-.08,0-.15.05-.21.06-.46-.48-.34-1.26.21-1.35.16.3.22.79,0,1.29ZM201.96,161.3h-.18c-.07-.06-.16-.08-.24-.08-.01-.04-.01-.1-.01-.12.96-1.17,2.02-2.29,3.06-3.36.06,0,.12,0,.15.03-.02.21-.07.49-.09.7h-.48c-.76.89-1.47,1.93-2.22,2.83ZM202.69,161.46c-.1-.01-.18-.07-.28-.07-.03-.09-.03-.15-.03-.16.45-.46.83-1.17,1.46-1.44.4.61-.82,1.68-1.14,1.68ZM201.24,156.73c0,.07,0,.13.01.19-.28.28-.7.3-.96.37-.1-.03-.16-.09-.22-.09-.01-.07-.01-.13-.01-.19.34-.34.62-.42,1.19-.28ZM200.33,154.95h.15c.15.21.37,1.52-.25,1.36-.21-.7-.03-.94.1-1.36ZM202.38,155.19c-.33.34-.8.34-1.07.36-.1-.01-.16-.06-.21-.07-.02-.06-.02-.1-.02-.21.37-.19.8-.48,1.3-.07ZM201.79,152.9c.16.1.7,1.49.09,1.49-.51,0-.19-1.38-.09-1.49ZM200.23,157.56c-.22.33-.7.96-1.08.96-.39-.61.54-1.4,1.08-.96ZM201.61,156.8c-.06-.09-.07-.22-.07-.27.46-.25.95-.39.83-.89.48-.19.83-.36.83-.89.19-.06.34-.13.57-.15,0,.25-.1.51-.22.8-.15,0-.25.04-.36.06-.51.7-3.05,3.55-3.66,3.9-.06-.13-.13-.27-.16-.4.74-.73,1.47-1.46,2.24-2.16ZM203.62,153.8c-.37-.15-.42-.18-.42-.34.46-.21.89-.42,1.5,0-.19.34-.88.34-1.08.34ZM204.8,153.89c.07-.03.12-.03.21-.03.12.34.21,1.07-.05,1.59h-.12c-.48,0-.13-1.41-.04-1.56ZM203.31,157.38c-.34-.51-.33-1.53.37-1.53.27.36.12,1.37-.37,1.53ZM202.64,157.12c0,.1,0,.18.07.31-.43.65-1.96,2.34-2.54,2.57-.8-.51,1.93-2.27,2.47-2.88ZM203.41,157.97c0,.3-2.05,2.66-2.41,2.78-.12-.08-.19-.14-.27-.19,0-.61,2.01-2.58,2.67-2.58ZM205.16,151.88c.29.54-.99,1.07-1.42,1.08.24-.78.58-1.13,1.42-1.08ZM205.17,150.03c.32.77.03,1.33-.93,1.43-.18-.54.37-1.67.93-1.43ZM203.2,152h-.16s-.03-.02-.03-.02c-.16-.71.12-1.25.39-1.77.15-.09.42-.24.77-.13-.09.61-.62,1.38-.97,1.92ZM202.7,153.25c-.39-.72-.43-.83-.21-1.46.51,0,.76,1.27.21,1.46ZM202.75,149.83c-.25.75-.63,1.45-.9,2.19v.02c-.1,0-.19,0-.29,0l-.26.49c-.03.14-.05.28-.1.41l-.09-.04-2.28,4.37c-.13.13-.38.13-.55.15-.13.14-.28.32-.38.48-.55,0-1.18,0-1.56.45-.13-2.04-.02-4.07-.01-6.11.69-.2,1.38-.41,2.06-.64.43-.16.87-.31,1.3-.48.42-.17.83-.35,1.25-.53l.81-.38c.37-.19.73-.38,1.09-.58l-.07.22ZM203.28,162.56c.17-.21.32-.43.47-.64.2-.27.39-.55.61-.8.27,0,.54.01.8,0-.23.28-.36.64-.49.97-.38.25-.95.53-.89,1.07-.14-.22-.32-.41-.5-.6ZM204.87,160.46c-.13-.01-.21-.06-.28-.06v-.19c.21-.22.98-.58,1.38-.16-.34.34-.76.4-1.1.42ZM194.15,151.38h-.45s0-13.84,0-13.84c.22-.06.6-.18.81-.26v12.93c3.49-.27,7.23-2.29,10.2-4.22,3.12-2.35,5.15-4.94,7.16-8.28,2.01-4.39,3.04-8.64,2.88-13.25-3.37-.01-6.78-.01-10.17-.01-.06-.27-.06-.55-.06-.82h11.24c.08,6.26-.73,12.58-4.8,17.64-3.99,4.95-10.43,10.06-16.81,10.12ZM195.41,152.06v7.45c-.48-.03-1.17,0-1.63,0-.03-2.44-.03-4.89-.03-7.28.56-.03,1.08-.1,1.66-.16ZM203.3,133.03l-.06,1.02h.05c.04.23.11.38.26.56v2.02c-.19-.45-.38-.89-.64-1.3,0-.13.03-.26.07-.39l.25-.83-.84-.13c-.14-.02-.28-.01-.42-.01l-.09.09c-.14-.16-.27-.23-.46-.31l-.46-.06.54-.51.68-.77.16-.21v.93l.98-.1ZM204.02,131.7l-.07-1.04h.81l-.12,1.04.97-.07v.81c-.29-.07-.63-.11-.93-.17v1.1s-.73,0-.73,0l.07-1.1-1.02.11v-.74l1.02.07ZM203.14,130.96l.14-.23.02.25h-.16ZM198.47,104.89c.82,1.16,2.37,1.38,3.69,1.43.12.16.25.32.4.45-.54-.24-1.16-.18-1.56.28,0,.33.04.65.03.98.8.18,1.24.81,1.75,1.39l-.55.06c.46.45,1.11,1.39,1.8,1.48-.05.26-.07.5-.07.76h-8.77v-9.49h2.4c.12.46.21.93.41,1.36l-.41-.06.88,1.36ZM202.13,104.6c.83,0,1.9.15,2.88.3.05.19.24.54.24.93h-.21c-.4-.06-3.31-.47-2.91-1.22ZM202.4,105.59v.06h-.46c-1.15-.1-2.4-.28-2.97-1.22,1.49.22,2.28.28,3.43,1.16ZM205.96,106.8c-.43,0-.9,0-1.3.06-1.06-.17-1.53-.32-2.03-1.04.01-.06,3.24.1,3.33.99ZM206.87,107.57s-.04.03-.04.04c-.72.07-1.37.09-2.03.16-.68-.16-1.24-.49-1.4-.88,1.25.28,2.36-.23,3.47.68ZM203.9,108.04c.94-.04,1.93-.06,2.89-.06,0,.73-.37.95-1.02,1.03-.93-.08-1.87-.34-2.57-.15-.66-.69-.62-.96-1.49-1.3,0-.09-.01-.15-.01-.21.27-.28,1.54.49,2.2.68ZM207.02,110.54c0,.67-.62,1.44-.82,2.23-.06,0-.07,0-.07.04-.68-.93.34-1.73.9-2.28ZM204.99,111.76c-.15-.01-.27-.06-.34-.1,0-1.36.81-1.55,2-2.02.53.59-.99,1.94-1.66,2.12ZM205.91,109.27s0,.06.02.1c-.68.63-.99.77-1.75.93-.38-.1-.46-.23-.52-.3.69-.06,1.65-.82,2.25-.73ZM204.43,112.31c.2.09.39.12.62.14l.19-.05c.04.5.42.94.69,1.34l.84-.51v.54c.21.06.43.11.62.2.21.12.31.42.39.63.18.45.38.89.58,1.34l.73-.54c.36-.29.56-.65.51-1.12l.25.35h.14c-.12,1.53.26,3.13,1.62,4.01l.3-.2h.22c.31.28.64.44,1.01.62l.22-.05h.76s0,2.18,0,2.18h-9.69v-8.89ZM208.57,113.63c.31.5.6.88.06,1.27-.35-.77-.41-1.41-1.19-1.63,0-1.32-.68-3.5,1.13-3.43-.09,1.37-.41,2.27,0,3.8ZM209.46,113.12s-.06.06-.13.09c-.94-1.1-.5-2.28-.37-3.44.77.19.48,2.34.5,3.36ZM210.29,113.95h-.09c-.63-.84-.49-2.34-.44-3.33.69,0,.49,2.44.53,3.33ZM211.53,114.54c-.96-.75-1.02-2.16-.93-3.1.23,0,.63.15.97.31.01.91.09,1.85.16,2.75-.07,0-.16.01-.2.04ZM211.76,117.77s-.04,0-.09.03c-1.14-.93-1-2.31-.98-3.46.93.73.62,2.09,1.07,3.43ZM214,117.99c-.05-.48-.08-.94-.08-1.42.02-.78.1-1.56.2-2.33v4.58l-.12-.83ZM213.25,108.36l-.25-.14.16-.11.44-.14c-.02-.36,0-.7-.13-1.04.09-.99-.76-1.97-1.78-1.92-.13-.81-.65-1.88-1.62-1.71l-.16-.14c-.49-.04-.92.1-1.34.36h0c-.24-.44-.58-.8-1-1.09-.03-.02-.31-.18-.34-.19h6.89v7.04c-.23-.38-.49-.66-.87-.91ZM208.13,104.16c0,.31,0,1.27.15,1.53,1.22,0,2.3-.79.97-1.63v-.13c.13-.07.25-.09.4-.09.21.18.5.65.65.57-.07-.13-.16-.25-.22-.4.67-.38,1.1,1.28.96,1.75.84-.18,1.57-.12,1.78,1-.04,0-.07.04-.12.04-.12-.06-.2-.15-.34-.27v.13c.13.09.54.33.54.81-.07.02-.13.09-.2.13-.2-.27-.5-.53-.69-.75-.56.07-1.3.99-1.04,1.59,1.2.09,2.49.27,2.87,1.9,0,2.65-.9,5.25-.46,7.99-.07,0-.09,0-.15.01-1.83-.84-1.38-2.81-1.27-4.39.08-.45-.01-2.19-.3-2.37-1.96-.57-1.78-1.83-2.9-2.4-.41.65-1.37.59-1.94.4,0-.93-.18-1.35.6-1.81,0-.23-1.45-1.23-1.45-1.23-.52-.69-.71-1.12-.78-1.71-.36-.18-1.79-.58-2.44-.59-1.33-.07-3.3-.19-3.86-.46-.34-.5-.38-.69-.49-1.09,1.87,0,3.74.3,5.97-.07,1.5,0,2.94-.28,3.75,1.55ZM204.07,128.74c.33-1.14.39-2.44.36-3.62,3.22,0,6.44,0,9.66.01.04,3.43-.66,6.85-1.89,10.04-.41-.65-.83-1.37-1.51-1.77.86-.34,1.54-1.12,1.62-2.05.15-1.74-1.83-2.32-3.11-2.84-.02-.04.35-.91.37-.97-.61-.3-1.33-.61-1.98-.22-.92,1.05-.6,2.34.69,2.86.71.36,2.21.69,2.21.99-.03.28-.28.28-.44.39-1.16.73-2.86.48-3.77,1.58v-2.24l-.88.06.11-.98h-1.89c.16-.35.33-.88.44-1.25ZM209.9,137.57c-.27-.07-.53-.12-.8-.14.34-.37.64-.76.87-1.21.06.22.13.42.22.63.1.22.23.42.35.62h.7c-.26.42-.52.84-.79,1.25.07-.31.13-.61.2-.92l-.75-.23ZM206.55,140.15c0-1.77,1.81-2.39,3.31-1.89-.27,1.29-.92,2.77-2.22,3.43-.14.03-.05-.32-.22-.28.16-.83,1.21-.83,1.21-1.73-.77-.98-1.13.36-2.07.46ZM211.14,136.79h-.23c-.45-.7-.37-2.19-1.29-1.62-.4,1.85-2.51,3.1-4.07,3.77t.01.05c.37-.11.73-.17,1.09-.29-.21.8-1.1,2.72-1.9,3v-3.95c-.05-.41.11-.73.29-.97,1.57-1.06.89-2.55,2.07-3.54,1.29-.54,2.66-.52,3.83-1.49,1.45-2.13-4.65-1.55-2.91-3.89.2-.08.33-.12.65.03-.92,2.02,2.22.94,2.96,3.11,0,3-5,1.45-4.61,3.91.08.15.21.25.31.41,1.73,0,2.17-3.36,4.21.11,0,.43-.22.85-.42,1.36ZM205.37,133.08c.28.05.55.12.83.18-.25.38-.39.76-.52,1.19-.11.41-.2.83-.43,1.19v-1.2c.07-.13.11-.25.13-.4,0-.32,0-.64-.01-.96ZM208.25,134.13c-.16.15-.34.31-.53.41.05-.22.35-.34.53-.41ZM200.66,143.31c-.04.2-.22.72-.45.99h-.07c-.72-1.02-.88-1.41-.95-2.45.03.03.08.05.15.11.07.44.16.87,1.31,1.36ZM199.65,141.57c.13.04.29-.02.6-.2.1.41,1.98,1.42.22,1.42-.61-.27-.85-.81-.82-1.22ZM199.99,145.7c.93-1.21,1.37-3.22,1.67-4.56.12,0,.56.36.8.56.36-.2.51-.82.8-1.05.43.09.49.09.76.23v1.74c-.27.24-.64.2-.84.24.01-.31.24-1.02.2-1.24-.6,1.97-1.7,2.95-2.73,4.73-.37.07-.74.12-1.09.19-.29-.04-.57-.04-.88-.04,0-.97.4-.77,1.3-.8ZM204.63,143.26c0,1.22-.98,1.6-2.05,1.6-.16,0-.36-.03-.52-.03,0-.34,2.21-1.82,2.57-1.57ZM204.22,142.73v-8.2l.36.03v8.17h-.36ZM204.37,134.3c-.23,0-.41-.19-.41-.37,0-.17.19-.36.41-.36.21,0,.34.19.34.36,0,.19-.13.37-.34.37ZM201.22,134.41c.19,0,.45.81,1.01.24,0,0,.04,0,.12.01-.08.25-.12.48-.12.7h-1.81c-.17-.28-.13-.6-.11-.7.34.17.61.24.9-.25ZM200.35,135.61c.61-.01,1.25-.01,1.92-.01.61.83,1.69,3.91,1.46,4.84h-.66c-.6,1.49-.56.78-1.4.32-.14.25-.44,1.11-.78,1.11-.31-.29-.45-.62-.52-.9-.05-.01-.08-.01-.11-.01-.14.12-.27.27-.42.39-.39-.37-.24-.69-.39-.95-.08-.07-.29-.17-.7-.2-.03-.07-.05-.07-.05-.08.8-1.51.37-3.42,1.66-4.51ZM198.38,139.05c-.09.35-.24.67-.4.99.03.25.22.57.32.8h.16c0,1.46.3,2.92,1.27,4.04l-.09.14c-1.37-.24-1.78,1.03-1.63,2.15.52,0,1.06-.03,1.58.05.5-.1,1-.17,1.49-.26.29-.5.58-.98.91-1.45,1.72.3,3.59-.72,3.33-2.66l-.07-.03v-.59c.52-.33.89-.84,1.2-1.37.17-.03.34-.05.5-.1-.15.25-.2.5-.27.78.21.33.51.93,1,.83-3.25,3.57-7.74,6.15-12.48,7.08v-12.41c1.55-.57,3.06-1.32,4.42-2.28-.01.19,0,.37.05.56-.98,1-.96,2.46-1.29,3.73ZM191.53,152.06q1.44.13,1.62.16v7.28h-1.6c-.02-2.53-.02-4.96-.02-7.45ZM197.79,166.53c-.19,0-.37.04-.49.04-1-.43-1.53-2.7-1.61-3.63h.15c.57.91,1.62,2.45,1.95,3.58ZM197.16,162.49c.21-.17.28-.1.44,0,.26.5,1.99,2.84,1.99,3.63l-1.04.09c-.68-.4-1.46-3.55-1.39-3.73ZM196.44,162.71h-.18c-.91-.91,2.2-1.77.18,0ZM195.41,160.85l-.03,5.56-1.6-.07v-5.46l1.63-.03ZM193.17,160.85v5.5l-1.64.06v-5.53l1.64-.03ZM187.52,164.09c.54.1,2.69,1.59,3.49,2.13,0,.1-.53.06-.8.1-.45-.33-2.84-1.81-2.69-2.23ZM189.66,166.33s-.01.01-.01.07c-.43,0-.8,0-1.22.04-.91-.1-1.71-.49-2.41-.74,0-.52.71-1.1,1.19-1.14.71.55,1.53,1.19,2.45,1.77ZM190.94,165.2c-1.98-1.14-1.9-1.08-2.53-1.49-.02-.12.13-.33.13-.42.42-.45,1.95,1,2.65,1.5,0,.25.05.36-.25.42ZM191.03,163.39c-.12,0-.22,0-.34.01-.48-.46-.94-.58-1.25-.76-.06-.1-.06-.18-.06-.3.28-.12,1.78.71,1.65,1.04ZM190.37,161.49c.11-.21.03-.21.31-.21.1.12.68.77.42,1.17h-.22c-.09-.24-.42-.77-.48-.77-.03-.07-.03-.13-.03-.19ZM200.15,164.84c.92.39,1.48,1.27-.05,1.27-.43-.64-.58-.88.05-1.27ZM196.62,160.68c1.44.13,3.45,2.9,5.13,4.19.21.03.25-.03.61.18v.25c-.31.11-.62.11-.89.11-1.06-.7-4.73-4.12-4.85-4.73ZM202.05,165.81c.27,0,.55-.06.74.09.76.62,1.86,1.68,2.66,2.48,0,0-3.18.03-3.27,0-.18,0-.13-2.56-.13-2.57ZM202.11,164.51c-.24-.3-.25-.4-.16-.49.06,0,.16-.07.33.12,1.35,1.22,5.56,5.44,5.78,5.61-.07,0-.21.24-.34.24-.06-.09-4.36-4.07-5.6-5.47ZM204.87,165.12c-.42-.4-.37-1.09-.28-1.47.55,0,.85.27.85.58s-.22.89-.56.89ZM205.48,165.36c.02.12.03.23.05.35.02.18.05.36.09.54-.13-.13-.26-.25-.4-.37.08-.17.16-.35.26-.52ZM206.06,165.19c.46-.21.86.09,1.04.43.07.34-.22.53-.7.91h0c-.43-.48-.36-1-.34-1.34ZM206.53,167.13l.08-.02.14-.06c.11-.07.22-.15.32-.24.17.33.38.65.56.98-.12.02-.24.04-.36.05-.25-.24-.5-.48-.75-.71ZM231.93,107.08c-2.33-.27-3.78-.62-4.33-2.7,1.36,0,3.24,2.3,5.3,1.07-.42-.03-.77-.07-1.16-.07-.89-.37-1.04-.63-1.49-1.17.42-.11.85-.19,1.25-.3.73.62,1.95,1.04,2.71-.06-.7.06-1.44.48-1.3-1.25,2.54-2.54,3.88,4.49-.98,4.49ZM222.76,94.84c2.01,0,7.67,7.34,8.27,6.7-1.38-2.04,2.54-2.86,1.83.36-.79,1.37-2.36,1.35-3.6,1.37-1.1-.15-2.08-.4-2.82-.85,0-.59.62-.82.31-1.61.43,0,2.05,1.31,2.7,1-.09-.22-.57-.39-.65-.42-2.28-1.83-3.7-4.4-6.04-5.72,0-.04.01-.1.07-.1.07-.05.18-.12.24-.12,0-.3-.3-.57-.31-.61ZM225.34,99.92v.09c-.67.07-.65.15-1.05.67-.04-.05-.13-.05-.19-.05-.21-.59-.21-.96-.27-1.52.33,0,1.06.55,1.52.8ZM224.44,101.35c.28-2.66,3.75.6.42,1.56h-.92c-3.04-.27-2.19-1.92-3.66-2.98-.3-.13-.54-.22-.76-.3.07-.45.22-.85.34-1.27.04-.04.07-.04.07-.04,1.29.45,1.86,3.31,2.7,3.31.37-2.19-1.07-4.36-1.87-5.98,3.73.39,1.59,5.2,3.67,5.68ZM222.35,95.06h-.13c-2.48-.95-3.4-3.48-2.36-5.63.55-.57,1.17.19.83,1.17-.3,1.04.21,2.35.34,2.63.34.56,1.33,1.8,1.33,1.83ZM227,87.6c-.26.67-.94-.33-2.17.01-.28.08-.46.11-.76.21-.36.12-.64.17-.88.11-.27-.07-.5-.28-.43-.67.07-.34.42-.78,1.09-.87.12-.01.33-.03.54,0,.24.05.44.19.59.26,1.08.46,2.28.28,2.02.95ZM228.32,81.37c-.27.16-.66.48-.86.54-.58-.31-1.17-.58-1.72-.88-.12-.12-.82-2.44-.82-2.44.6.27,3.14,1.87,3.41,2.78ZM223.96,77.93c-.8.01-1.64.04-2.44.04-.41-.03-.95-.16-1.09-.43.62.08,3.97-.96,3.53.39ZM210.43,73.57c1.11-.58,1.29.42,1.41.8.18.19.45.24.73.24,1.04,0,2.26-.05,3.42.13q1.17.34,1.28.33c-1.43-.7-3.32-.67-4.7-.67-1.4-.42-.48-1.67.1-1.67,1.1,0,.6,1.1.57,1.16,1.68.18,3.15.09,4.92.71.02,0,.1,0,.15,0-1.38-.54-2.47-.71-3.69-.73-1.2-.04-1.23-1.05-.73-1.35.46-.25,1.4,0,.96.92.06.03.13,0,.15.03,2.32.27,4.15-.49,5.4,2.01.49.51,1.81.52,2.07,1.38-.96.45-1.49.48-2.42.52-.3-.04-.52-.09-.74-.09.52,1.04,1.5,1.2,2.48,1.16,1.46-.09,2.91-.52,3.06,1.43l.49.49-.34.45s-.42-.21-.56-.25c-.13.12-.42.22-.55.23-1.13,0-1.46-.73-1.32-1.47h.3c.06,1.28.96,1.23,1.49.94l.51.3c.03-.08.15-.24.21-.28-.21-.12-.36-.21-.52-.3-.05-1.05-.61-1.41-1.47-1.02-.6-.03-1.14-.1-1.74-.1v.25l.91.13c.09.4-.07.89.24,1.33.15.25.51.51,1.44.58.25-.03.43-.12.74-.12.89.09,2.08.51,2.96,1.17v.57c-.63,0-1.1-.28-1.59-.42-2.86,0-2.93,3.27,0,3.27,0,0,.01-.03.07-.03-2.71-.58-2.57-3.03-.16-3.03.49.12,1.34.51,1.9.51-.01-.34-.01-.63.02-.88.07-.46.54-.54.9-.37.78.35.26,1.35-.55,2.13-.3,1.26-.59,2.14-1.14,2.54-.53.38-1.31.29-2.58-.37-2.64-.49-2.97,3.18.05,1.93,1.16-.25,1.54.22,1.51.77-.04.58-.55,1.26-1.11,1.26h0c-1.81-.93-2.17-.77-3.91-.5-.25-.37-.67-.52-.98-.76-.22-.76-.52-.83-.74-.97.03-.27-.42-1.14-.82-1.22.01-.51-.13-1.08-.6-1.4.27-.68,0-1.23-.59-1.43.18-.31.03-.88-.49-1.02,0-.82-.34-.82-.4-.94-.07-.07.02-.28.02-.4,2.51-.1,3.27-1.89,2.81-3.15-.4-1.23-1.28-1.68-2.5-2.16-.89-.36-4.68-.19-6.02-1.16-.45-.3-.59-.76-.28-1.4ZM223.22,79.65c0-.25.19-.49.47-.49.26,0,.54.2.54.48,0,.25-.21.47-.49.47s-.51-.22-.51-.46ZM209.93,74.96c.36.12,1.17.48,1.66.64.57.1,1.17.3,2.32.48,1.14.1,2.94.24,3.79.74,1.33.82,1.86,1.55,1,3.35-.64.8-1.13.86-2.07.86-1.69-.62.37-2.19.74-.89.04,0,.06,0,.1.03.83-2.77-1.92-2.93-3.11-1.16-.42,0-.95-.18-1.1-.64-1.16-.03-1.34-1.32-1.81-1.83-.62-.61-1.6-.99-1.53-1.58ZM209.51,74.77c.42,1.13.43,1.23,1.55,2.07.54,1.66,1.09,1.47,2.56,2.5.28.09.8-.09.7.64h-.24c-2.28-.46-4.7-3.26-4.98-5.26.15,0,.28.03.42.06ZM208.94,75.54c.09.28.16.59.3.93-.82.46-1.61.46-2.14,1.2,1.07.06,2.54.33,3.64,1.07-1.71,1.74-3.32-.71-4.16.51.7,0,.96-.34,1.28.82-.1.54-.58.8-1.14.8-3.3-1.08-.18-5.34,2.23-5.34ZM204.88,78.34q.07.16.16,1.53c-.82.33-2.2,1.04-2.42,2.05.4-.07,3.49-1.01,3.84-.07-.21.36-.34.71-.49,1.07-1.74,0-3.27-.22-4.31,1.33.76,0,1.74-.64,1.59,1.01-.3.51-.76.51-1.2.59-4.42-.98.09-7.51,2.84-7.51ZM199.61,83.94c.07.34.13.89.46,1.37,0,.66-2.07,2.77-1.78,3.3,1.17-.91,2.75-2.05,4.22-2.33-.4.79-.85,1.53-1.23,2.33-.86.58-3,1.33-2.86,2.77,1.37-.94,2.1,1.71.1,1.71-4.77-.8.05-9.68,1.09-9.14ZM197.38,85.56c0,.24-.91,1.83-1.04,2.14-1.34.64-1.31.8-1.55,2.19-.13,3.32-.89,6.63-.95,10.16-.13.12-1.05.07-1.05.07-.22-.19-.67-3.37-.7-3.67,3-3.81-.88-10.05,5.29-10.88ZM191.94,98.78q.33,1.23.3,1.31c-.31,0-.67,0-.92.03-1.16-.4-.91-1.84-.91-2.48.11,0,1.13.89,1.53,1.14ZM190.79,93.89c.22.58.45,1.17.71,1.75-.34.24-.71.13-1.02.13-1.41-.25-2.8-1.81-3.12-2.83q.58-.76.7-1.01h.15c.54.83,1.23,1.95,2.59,1.95ZM188.19,87.21s.65.83.55,1.13c-.45.09-.82.02-1.14.02-1.81-.52-2.87-1.56-2.25-3.26.28,0,1.19,2.01,2.84,2.11ZM186.81,84.48q-.02.06-.02.1h-.12c-.57-.3-1.55-1.67-1.47-1.92,1.05.03.98.73,1.61,1.81ZM184.41,81.21c.3,0,.58-.06.85-.06.22.22.37.48.56.76-.27.09-.67.15-.89.18-1.95-.13-2.39-.8-3.45-2.05,1.5-.79,1.37.65,2.93,1.17ZM182.93,77.17c.1.03.24.07.34.13-.21,2.1-1.93,2.39-3.76,2.57-1.23,2.08-2.1,2.08-4.34,2.19-1.08,1.16-1.65,1.47-3.2,1.58-.13-.03-.24-.03-.33-.03-.05-.16-.05-.28-.05-.42,1.74-.21,2.16-.42,3.32-1.75,2.11.16,3.22.07,4.16-2.01,1.19-.09,2.53-.03,3.4-1.2.13-.33.28-.68.45-1.05ZM168.4,74.44c1.56-1.59,3.57-.57,5.46.12.05.05.3.05.34.06-.28.63-.76.86-1.81.73-1.64-.58-1.61-1.28-3.23-.06-.12.01-.04.09-.4.01-.36-.12-.52-.46-.36-.86ZM169.96,80.41c.54-.12,1.07-.21,1.47-.69.76-3.08-5.48-2.18-6.64-1.44.89,0,2.23-.39,3.45-.39.39.05,3.57.45,2.6,1.75-1.17.58-3.06-.06-4.1-.31-.43-.48,2.39.12,2.83.12.01-.06.01-.12.06-.19-.76-.8-4.12-.76-4.54.39,0,.05-.04.49-.18.63-2.56-3.08-.86-5.2,2.96-5.2.69.79,1.22.58,1.71.23.33-.18.6-.39.98-.39.16,0,.28,0,.45.09,1.26.54,2.63,1.23,3.67-.57-.95-.19-1.83-.46-2.71-.97v-.06c2.96-.51,8.03,2.44,10.57,3.6,0,1.92-2.48,2.1-3.79,1.62-.55,1.98-1.46,2.69-3.67,2.25-.16-.07-.3-.09-.4-.15-.85,1.47-1.52,1.83-3.11,1.93-.42-1.11-1.23-1.64-1.6-2.26ZM171.6,90.54c.1.51-.42,2.5,1,1.99.67-.36.74-1.59.85-2.11.24,0,.64.18.98.34-.42,1.71-.57,3.03-2.45,3.43-1.25-.31-1.34-3.36-.37-3.66ZM169.38,94.19c.24,1.38,1.37-.22,1.8-.31.15.22.42.45.83.6v.15c-.86.83-1.8,1.59-2.93,1.59-1-.63-.42-1.81.3-2.02ZM168.3,95.63c.07.21.13.42.22.65-.92.42-1.89.4-2.77.4-.45-.03-.77-.16-1-.24,1.14-.16,2.26-.61,3.54-.82ZM150.52,158.86c-.16-.25-1.23-4.52-2.33-8.45-.39-1.11-.77-2.29-1.11-3.4-6.2-13.5-11.12-24.99-7.19-39.68,3.33-10.04,8.9-19.49,19.64-22.63,4.53-.64,8.92.18,7.76,6.02-.34,1.08-3.18,7.14-4.64,6.38,1.19-2.48,2.13-3.27,2.35-6.04-1.4-.52-1.69-.71-2.17-1.8-1.63.04-3.05.16-3.69-1.43-.67,0-1.44.52-2.13.66-.89.01-1.84.01-2.78.04-8.25,6.91-11.73,13.65-13.47,24.14-.57,5.5-.66,10.3.68,15.88,2.39,8.27,6.64,16.1,8.8,24.66q.39,1.74.43,1.81c.48-4.34-2.35-10.3-3.57-14.21-.92-2.26-1.81-4.54-2.73-6.81,0-.63.46-.92.76-1.31.12.3,2.6,6.63,4.4,12.22.88,2.72,1.38,3.96,1.83,7.21,0,.3-.49,7.09-.83,6.72ZM151.28,158.25c0-.13-.16-.07-.16-.19,1.32-3.95.67-7.57-.65-12.04-1.53-5.22-3.94-10.21-5.08-14.27.09-.67.18-1.38.3-2.01.18-.15,5.05,13.8,5.93,16.61.46,2.24,2.13,9.93-.33,11.91ZM152.85,146.47c-.09.19-.24.4-.31.69-.03,0-.37-.74-.37-.74.48-1.34.4-2.39.34-4-.49-4.73-2.45-9.65-3.97-14.21,0-.39.34-1.01.49-1.31h.12c2.26,6.47,4.93,12.48,3.7,19.58ZM153.71,151.14c-.13.43-.25.87-.34,1.31-.07-1.45-.28-2.9-.3-4.35.95-2.09.92-4.44.91-6.69.99-1.65,1.83-3.41,2.1-5.33,1.06-.77,1.94-1.8,2.36-3.05.6-.69,1.41-1.15,1.92-1.93.49-.66.45-1.51.83-2.22.36-.48.94-.73,1.36-1.15.13.06.24.16.32.27-.61,1.65-1.24,3.29-1.89,4.93-.29.72-.58,1.45-.87,2.17-1.67,4.13-3.39,8.23-5.01,12.37-.47,1.22-.93,2.44-1.39,3.66ZM154.22,156.05c-.45-4.88,2.63-9.83,4.28-13.9q1.43-3.94,1.49-4.01s.03.01.07.04c.16,1.68-3.79,10.17-2.86,11.12,2.1-2.53,3.17-6.45,4.18-9.44.28-.33.65-.68.97-.98,0,1.35-5.84,16.59-8.13,17.17ZM157.61,160.64c-.1.06-.16.13-.19.12-.45-.43-.42-2.24-.42-2.57.68-6.57,3.31-12.58,5.72-18.58,0,0,.03.03.07.05.24,2.39-1.62,6.57-2.42,8.99-.22.92-.82,2.69-.31,3.78h.16c2.2-2.9,2.69-6.54,3.75-9.93q.59-.61.67-.61c0,.48-.36,1.14-.52,1.75-1.65,6.17-2.67,11.83-6.51,17.01ZM161.77,165.19c-.07-.04-.12-.04-.19-.04-1.27-3.43-.4-6.84.12-10.19.94-4.34,2.13-8.58,3.29-12.61.06-.06.15-.07.16-.07q.04.33.36,1.17c-.36,3.4-3.08,8.34-1.92,11.89,3.11-2.02,1.92-9.02,3.96-12.01,0,.18,0,.34.03.49-.94,6.87-1.44,15.48-5.8,21.36ZM169.04,163.88s-1.27,3.36-2.11,3.33c-2.17-3.82-.7-10.29-.24-14.18q1.4-9.48,1.44-9.6c.16.48.39.95.58,1.37-.09,2.48-2.45,10.79-.72,13.02,1.34,0,2.02-11.15,2.08-11.86.21-.4.42-.82.71-1.03-.13,6.19-.25,12.77-1.75,18.95ZM173.68,166.99s-.13,0-.16.03c-4.43-4.79-2.73-12.23-2.36-17.99.03-1.55,0-3.33.24-4.56q.1.1.61,1.28c0,.3-.67,12.56,1.41,12.56,2.26-3.35-.67-9.44.42-12.61.18-.28.37-.51.59-.77h.09c.49,5.69,2.48,16.37-.83,22.06ZM171.73,135.68c.79,0,.61,4.12,1.32,4.95.21-.3.4-.83.67-.98,1.35.68.07,5.57-.89,6.05-1.44-3.12-1.1-6.87-1.1-10.02ZM179.52,165.44s-.07,0-.13.03c-2.39-2.56-2.85-3.89-3.42-7.19-.24-4.62-.6-9.17-1.04-13.59,0-.12.04-.17.04-.22.27.4.49.76.89,1.28.61,1.84.28,10.3,2.27,11.6.83-2.16.15-5.35,0-7.36-.16-1.41-.85-4.06-.64-5.19.19.13.36.19.48.34.87,6.52,3.12,13.62,1.54,20.31ZM174.93,141.52c.31.21,3.4,3.4,1.65,3.95-1.26-.49-1.75-2.99-1.65-3.95ZM179.66,145.92c-7.02-6.45-8.65-13.28-8.82-22.24h11.29v.89h-10.23c-.17,8.38,3.65,16.83,8.16,20.41,5.07,4.12,9.97,5.29,12.34,5.22l.02-12.94.69.22v13.9s-.45,0-.45,0c-5.19-.33-9.12-2.28-13-5.46ZM184.01,151.52c-.67-.88-1.34-1.76-2.08-2.58l.2.12c.5.29,1,.58,1.52.83.01.12.02.23.05.34.1.43.2.86.31,1.29ZM180.58,148.97c.93,0,4.93,5.91,5.44,7.48-.03,0-.25.18-.34.19-1.32-1.21-4.33-6.32-5.1-7.67ZM182.52,154.24c.43.39,4.61,4.19,4.98,4.89-.08,0-.27.25-.33.28-1.8-1.35-3.72-3.36-4.65-5.17ZM182.98,157.06c.36,0,3.03,2.32,3.69,2.99-.07.06-.06.05-.09.12-.09,0-.18,0-.27.04-1-.46-2.98-2.39-3.33-3.15ZM183.84,159.77c.31.03,1.57.62,1.87,1.1-.15.18-.27.19-.33.2-1.46-1.19-1.5-1.16-1.54-1.3ZM188.32,159.09c.16-.06,1.99-.28,1.81.45h-.61c-.79-.79-5.07,3.42-5.57,4.89-.13.02-.22.02-.25.05.12-2.25,3.26-3.93,4.63-5.38ZM184.43,164.13c.25-.19.52-.18.61-.03.09.07.12.07-.18.42-1.04,1.29-4.12,4-5.35,4.91-.25.15-.42.21-.46.24-.18-.18,0-.39,0-.43.89-.82,4.22-4.12,5.38-5.1ZM170.84,174.93c-4.28-.46-7.37-2.23-10.38-4.95-.02-.04-.02-.09-.06-.13.68,0,3.75,2.01,4.36,1.72-.45-.73-1.43-2.1-1.26-2.64,2.63,1.65,5.37,3.61,8.93,3.31q.57-.15.68-.15c-.48,2.08.12,2.84-2.27,2.84ZM173.16,171.43c-1.01.52-1.9.39-2.83.39-.25-.08-.55-.15-.77-.18.06-.43.13-.83.22-1.29.21,0,.67.28,1.19.4.67-.03,2.54-.71,2.19.68ZM173.52,172.04c0-1.11.77-1.37-.4-1.87-1.28-.13-2.88.31-3.03-.83.31-.67,5.59-.3,6.75-.3-.6.43-2.83,2.96-3.32,3ZM174.68,172.3c-.12-.12-.21-.21-.3-.3.55-.57,3.82-4.62,5.2-3.61-.13.13-.3.24-.37.37-1.72.19-3.58,3.54-4.53,3.54ZM175.84,172.04c0-.43,2.11-2.16,2.66-2.66.16.39.16.46.71.64-.55.86-1.5,1.47-2.33,2.11-.25.16-.58-.09-1.04-.09ZM176.18,173.98c-.07-.08-.21-.31-.25-.43,1.11-1.06,2.33-2.13,3.51-3.21.43-.57.22-.97.92-1.2.4,1.34-4.06,4.73-4.18,4.85ZM179.09,172.04c.19-.62,1.81-1.41,1.74-3,2.11-.01,4.24-.01,6.39-.01-.27.31-.61.64-1.13,1.05-.46.1-.86.1-1.02.31,0,.55.27.36-.39.88-.25.22-.65.22-1.11.33-.19.19-.25.4-.42.45-1.35-.01-2.72,0-4.06,0ZM185.97,172.95h-.34c-.69-.15-1.41-.52-1.93-.71v-.27c.27-.25,1.95.18,2.28.98ZM179.72,176.09c-.83-.22,3.88-3.95,4.43-3.42-.58.54-3.75,3.06-4.43,3.42ZM180.22,177.48c-.09-.21-.03-.37-.09-.46,1.64-.88,4.1-3.79,5.5-3.75-.22.13-4.8,4.36-5.41,4.21ZM181.05,178.18c1.71-1.46,3.48-2.86,5.22-4.25.13.13.18.05.24.45-.42.16-4.83,3.97-5.28,4.13-.25-.22-.18-.33-.18-.33ZM182.44,179.21c-.06-.02-.07-.07-.09-.07-.03-.07-.03-.15-.03-.18.6-.51,4.04-3.72,4.58-3.72.05.12.06.24.12.39.12.24-3.96,3.48-4.58,3.58ZM187.45,175.77c-.37-.64-2.87-5.38-1.81-5.38.55.76,2.13,4.13,2.13,5.23-.12.15-.31.15-.31.15ZM189.31,174.26h-.25c-.59-.18-1.95-.54-1.84-1.2.61.19,1.34.57,2.16.91-.02.1-.06.19-.06.3ZM189.23,173.62c-.08-.03-.08-.07-.12-.07v-.19c.42-.36,2.42-2.32,3.05-1.87-.83.57-2.17,1.96-2.93,2.14ZM195.41,178.24c-.48.95-1.1.89-1.86.97-.94-.07-1.4-.64-1.62-.8l1.62-1.49c.15-.03,1.32.79,1.86,1.32ZM201.79,175.36h-.46c-2.07-.21-4.79-1.04-6.26-2.01,0-.31-.04-.51.06-.65,1.98.89,4.37,1.77,6.66,2.54v.12ZM199.16,173.28c0-.07-.01-.12-.01-.13,1.77.28,2.51.67,4.15,2.19-.45.03-3.48-1.89-4.13-2.05ZM209.09,178.18c-.22.27-.55.33-.74.33-4.62-2.88-8.24-6.08-11.95-9.48,0-.09,0-.16.02-.19.83.07,2.87,2.2,3.67,2.96,2.61,2.29,5.96,4.24,9.01,6.39ZM207.64,172.09c-1.72,0-3.46,0-5.22.04-.24-.71-1.16-2.86-1.03-3.09,1.64,0,3.33,0,5,.04-.85,1.73,1.47,2.53,1.25,3.01ZM210.43,174.11c-1.13-1.12-4.28-3.3-3.84-4.73.28,0,.42.51.68.91.09.13.31.28.37.39,1.65,1.56,2.97,2.63,3.18,3.02,0,0-.28.42-.4.42ZM209.46,172.13q-1.92-1.84-1.93-1.92c.4.03.94-.24.82-.83,0,.05,3,2.71,3,2.75h-1.89ZM212.09,172.36c-1.38-1.11-2.6-2.51-3.85-3.4-.61-.02-.55-.09-.82-.4,1.45-.86,3.87,2.5,5,3.42-.02.07-.19.21-.33.39ZM211.29,167.86c.39.15.8.3,1.22.45-1.19,0-2.36.04-3.51.07-.76-1.44,1.47-1.17,2.29-.52ZM214.15,172.04c-.33,0-.68,0-1.02.05-1.19-.88-2.38-2.25-3.29-3.17.1-.06,4.73-.13,6.8-.09.8.03,1.26.3,1.13.65-2.47,1.19-4-1.26-3.61,2.56ZM216.39,170.35c.21,0,1.59-.31,1.6-.31.09.39.16.8.27,1.23-.93.34-1.63.43-2.5.52-2.23-.18-1.62-1.81.63-1.44ZM221.75,172c.96,0,2.93-.65,4.06-.89,0,.14-.61.57-.74.69-2.59,1.56-5.5,3.42-8.52,3.42-1.43-.15-1.49-.28-1.56-1.4-.12-.54-.37-1.31-.27-1.67,2.86,0,4.03-.15,6.88-1.68.48-.18,1.87-1.19,2.13-1.33,0,.6-1.55,2.35-1.98,2.86ZM218.93,171.14h0c-.52-.46-.34-1.89-.45-2.31-.73-1.11-3.55-.04-4.12-.55,2.13-2.26,4.12-4.27,5.6-6.99.83-.61,3-1.04,3.34-2.28-.16-.02-.31-.06-.48-.06v-.15c.88-.42,1.59-.85,2.16-1.74-.28-.03-.51-.06-.76-.09,1.01-.97,2.19-1.43,1.5-3.18-1.02-.79-1.59-.36-1.59.82-.03,0-.06.02-.06.08-1.26-.85.4-2.28-2.16-2.96-1.16-.77-1.43-1.93-1.83-2.95,1.53,0,6.11,2.19,6.82,3.85.43,3.92,1.28,7.4-3.4,8.52-2.86,0-3.06-.39-3.84,2.23-.76.55-.86.76-.39,1.65.05.49-.07,1.41.76,1.69.19-.28.34-.54.54-.77.79,0,.58,1.1,1.04,1.9h.52c.19-.36.4-.71.61-1.02.66,0,.55.71.8,1.47h.51c-.36.52-4.34,2.83-5.14,2.83ZM221.05,159.23c0-.21.04-.21.13-.37.42.15.88.24,1.32.33,0,.05.06.05.06.05-.31.48-1.67,1.37-2.08,1.23.33-.61.52-.68,1.27-.98.04-.25-.49-.18-.7-.25ZM221.86,157.74c0-.18.06-.31.07-.4.63,0,1.59,0,2.37.13-.77.79-1.83,1.19-2.86,1.19l-.02-.06c.52-.83,2.74-.63.43-.86ZM223.05,155.47c-.01-.12-.01-.18-.01-.28.01-.03.01-.06.03-.07.25,0,1.78.12,1.9-.54-.12,0-.21,0-.3.03-1.1-1.22,1.83-1.43.76.95-.77.98-1.61,1.17-2.75,1.17-.1,0-.21-.02-.25-.02,0-.95,1.65-.22,2.11-1.16-.45,0-1.3,0-1.49-.09ZM228.67,148.11c.61.54,1.31,1,1.87,1.5-2.99,2.6,1.31,6.7-.63,10.03-.7.92-1.56.89-2.13.27,0,.39.67.63.22,1.06-1.87.83-3.26,1.29-5.11,1.29-2.42.3-1.31,2.22-2.32,2.59-.48-.19-.85-.34-1.05-.57v-.18c1.37-.48.27-3.14,2.75-2.45,2.07-.09,3.82-.77,5.13-2.5.18-2.37.51-5.11-.19-7.27-2.02-2.04-4.82-3.09-7.17-4.1-1.13-1.47.55-5.95,1.34-7.22.61-.76,2.54-2.29,3.61-2.01-.34,4.71.27,6.07,3.67,9.56ZM221.18,164.98c.19-.13.34-.19.54-.27,0-1.27-.69-1.67.99-2.07.42,0,.95.06,1.44.21,1.13.67,3.45-1.56,4.57-2.04,3.61-.49,1.59-6.73,1.05-8.74.16-1.46,1.1-3.36,2.5-1.58.85,4-.1,11.49-4.79,13.02-3.31.28-3.66-.98-4.79,2.15-.06,0-.07.03-.13.03-.74-.24-1.25-.3-1.38-.73ZM222.43,166.53c0,.34-.21.68-.43.98h-.13c-.21-.54-.3-1.06-.34-1.4,0-.06.04-.06.07-.06.19.07.48.19.83.48ZM220.36,165.38c0,.22-.21.62-.39.86h-.12c-.27-.49-.28-.83-.27-1.19.16,0,.39.09.77.33ZM223.82,167.86c-.22-.39-.16-.58-.13-.85.19,0,.6-.03.89.28-.09.21-.58.61-.76.56ZM231.64,148.18c.7-.46,1.77-1.13,2.22.39,0,2.72.05,5.5.05,8.17,0,.85.37,2.22.04,3.72-.15.58-.76,1.42-1.46,1.25-.09-.13-.21-.25-.3-.33-.74,2.22-1.24,4.58-4.15,4.47-1.26.77-1.66,1.27-3.07,1.01q-1.49-.58-1.92-.76c0-2.53,2.01-2.84,3.82-1.6,0-.08.03-.22.06-.28,5.62-2.08,6.45-8.37,5.71-13.29-.3-1.22-.64-1.37-1.63-1.41-3.79-2.99-6.51-6.19-5.52-11.17.49-.37,1.02-.99,1.68-.03-.39,3.81-.43,8.53,4.47,9.86ZM230.22,141.34c-1.55-1.44-2.45-2.72-3.43-4.36-7.34,1.22-9.31,7.64-6.39,14.06.28.39.61.79.94,1.17,1.23.1,2.16.69,1.68,2.28-.58,1.08-4.89,9.72-5.95,10.08,0-.1-.03-.27-.03-.36-.02-.01-.1-.04-.1-.07-.83,1.32-1.71,3.23-3.39,3.55h0c-1.65-.15-2.64-1.15-3.91-.83-.52-.42-1.56-1.11-1.69-1.49.67-.34.46-1.16,1.57-1.5.7,0,3.01.4,2.16,1.93.36,0,.63-.61.77-.91,2.2-.55,3.84-1.04,5.35-2.91,1.1-1.78,3.54-5.92,2.97-7.97.33,0,.64.01.98.06.03-.04.04-.06.07-.12-2.38-.36-3.82-3.98-4.65-5.71.28-2.77.67-5.25-.06-7.7,0-1.61,4.98-3.67,5.87-4.36,1.59-1.13,4.45-4.09,1.93-5.65.42-1.52.42-2.13-.53-3.24.04-.94-.03-1.59-.13-2.31.43-.49.61-.92,1.17-1.11,1.86,3.88,2.41,8.56,4.4,12.79,2.74,4.56,7.03,6.66,11.76,2.88.28,0,1.68.73,1.89,1.22-3.89,3.88-9.1,3.78-13.25.57ZM246.93,141.2s-.16.04-.22.04c-6.73-1.19-10.54-8.84-13.75-13.81-.31-.48-2.01-2.99-2.01-3.34.42.22.85.37,1.25.55,2.3,3.78,6.81,12.93,12.12,14.33,0-.02,0-.05.03-.09-4.96-6.57-9.23-14.33-13.1-21.22.18-.24.28-.49.62-.58,2.96,4.64,5.53,9.87,8.55,14.87,2.01,3.09,3.95,6.26,6.51,9.25ZM247.02,132.39c.39,0,1.58-.58,1.81-.51,0,1.06-1.37,1.74-1.9,2.59.31.05.89-.04,1.34-.09,0,.04.03.06.03.09-.77,1.64-2.51,1.9-3.27,3.61h-.1c-.4-.52-.8-1.04-1.19-1.56,2.05-7.12,1.03-12.08-1.89-18.72-1.25-2.47-2.78-5.1-3.67-7.46.34-.13,1.03-.61,1.33-.61,2.35,4.58,4.82,9.22,6.84,14.2.48.43,2.4-.29.72-1.25-1.56-.88,1.87-2.63,1.6,1.2-.12.42-1.32,2.45-1.32,2.45.51,0,1.19-.91,1.75-.82,0,1.37-.58,2.83-1.47,4,0,.06,0,.08.03.08.49-.28.97-.69,1.64-.91-.36,1.59-1.14,2.57-2.26,3.7Z"/>
      </g>
    </g>
    <g id="g2908">
      <path id="path2910" class="cls-5" d="M193.44,134.88c-5.06-1.71-9.05-5.24-9.05-10.45,1.3,0,2.2-.01,3.32-.71.05,0-.1-.01-.04-.01,1.13,1.04,2.58.89,3.92.01,1.72,1.02,1.91.95,3.83,0,1.37.95,2.2.95,3.8,0,.8.37,1.66.49,2.74.66,0,5.67-3.45,9.09-8.52,10.49h0ZM189.49,130.27s0,0,2.1-.56c.81.42,1.11.56,1.85.57.64.04,1.23-.27,1.98-.57,0,0,.92.56,2.04.57.53,0,1.15-.41,1.74-.57.07,0,0-.46.03-.66-.46.31-1,.71-1.76.66-.56,0-1.18-.33-2.04-.65-.71.5-1.3.65-1.98.65-.43,0-1.85-.15-1.85-.65,0,.27-1.09.65-2.1.65s-1.82-.58-1.78-.65v.65c.75.57,1.78.47,1.78.56h0ZM187.71,127.42c.69-.07,1.11-.18,1.78-.64.83.24,1.52.58,2.1.64,1,.01,1.6-.39,1.85-.64.76,0,1.14.64,1.98.64.64,0,1.18-.08,2.04-.64.58.56,1.76.64,1.76.64-.03,0,1.07-.26,1.68-.64v-.58s-.99.58-1.71.58c-.86.07-1.15-.19-1.74-.58-.75.38-1.36.57-2.04.58-.71.07-1.4-.12-1.98-.58-.08,0-1.28.58-1.85.58-.69.05-1.34-.23-2.1-.58-.69.27-1.23.54-1.78.58-.5.07-1.02-.07-1.64-.58-.14,0-.14.58-.14.58.48.33,1.55.57,1.78.64h0ZM186.64,123.67c.22-.53.76-.69,1.33-.98v-.04c-.57-.37-1.03-1.02-1.38-1.09-.65.5-1.53,1.06-2.2,1.41v-8.71h17.57s0,7.87,0,7.87c-2.01.33-5.54-.73-6.76-2.29-1.07-.19-1.7-.69-2.52-.49-1.86,2.01-3.6,3.04-6.04,4.31h0ZM191.31,121.76c.46-.11,1.29-.88,2.01-1.1-.05.2-.34.48-.34.77.35,0,.71-.45,1.42-.45,0-.09,0-.19.03-.31-.79-.12-1.25-.31-1.42-.99-.68.66-1.45,1.19-1.7,2.08h0ZM191.46,119.29c.49-.01.84-.12,1.4-.27.58.01,3.68.72,3.68-.73h-6.66c.19.8.64.94,1.59,1h0Z"/>
    </g>
    <path class="cls-5" d="M172.27,76.54v.21h-.61c-.18.29-.68.59-1.2.57-.52-.04-1.01-.32-1.09-.57h-.57v-.21h.72c.16.26.5.48.94.5.45,0,.97-.29.97-.5h.84Z"/>
    <path class="cls-5" d="M171.29,75.89c-.06-.26-.42-.5-.79-.5-.37-.03-.67.35-.68.5,0,.06-1.02.06-1.03,0v.38c.07.02,1.03-.03,1.03,0,.02.27.37.52.76.48.4,0,.65-.25.65-.48h1.04c0-.1.03-.25.03-.33l-1.01-.06ZM170.56,76.52c-.26,0-.47-.2-.47-.43s.18-.45.43-.45c.24,0,.49.19.49.44,0,.23-.19.43-.45.43Z"/>
  </g>
</svg>