<?xml version="1.0" encoding="utf-8"?>
<!-- Generator: Adobe Illustrator 28.1.0, SVG Export Plug-In . SVG Version: 6.00 Build 0)  -->
<svg version="1.1" xmlns="http://www.w3.org/2000/svg" xmlns:xlink="http://www.w3.org/1999/xlink" x="0px" y="0px"
	 viewBox="0 0 50 50" style="enable-background:new 0 0 50 50;" xml:space="preserve">
<style type="text/css">
	.st0{display:none;fill:none;stroke:#000000;stroke-width:6;stroke-miterlimit:10;}
	.st1{fill:#1A6EFF;}
	.st2{fill:#FF0000;}
	.st3{fill:#FFFFFF;}
</style>
<g id="back">
	<polyline class="st0" points="12,24 22,33 38,17 	"/>
	<path class="st1" d="M-36,4c-11.6,0-21,9.4-21,21c0,11.6,9.4,21,21,21s21-9.4,21-21C-15,13.4-24.4,4-36,4z M-38.3,38l-14-12.9
		l4.1-4.4l9.6,8.8l13.5-14.7l4.4,4.1L-38.3,38z"/>
	<polygon points="-20.7,18.9 -38.3,38 -52.3,25.1 -48.2,20.7 -38.7,29.5 -25.1,14.8 	"/>
</g>
<g id="Слой_3">
</g>
<g id="Rocket">
	
		<image style="display:none;overflow:visible;" width="512" height="512" xlink:href="../../../../../../Downloads/rocket.png"  transform="matrix(0.75 0 0 0.75 -928 -252)">
	</image>
	<path class="st2" d="M-931.8,136.3l24.6-92.3v0c10.9-41,62.2-54.9,92.2-24.9l0,0l0,0c30.1,30,16.4,81.3-24.6,92.3l0,0L-931.8,136.3
		z"/>
	<path class="st2" d="M-544-252l-6.1-0.1c-77.6-1.2-152,30.7-204.7,87.7l-10.4,11.2c-11.1,0.1-36.9,1.9-72.9,15.2
		c-49,18-78,56-78,56l75.4,10.6L-853-58l115,114l13.1-11.9l0.9,2.1l9.2,75.6c0,0,38.5-28.3,57.4-76.9c16.4-42.2,16.7-70.4,16.5-77.1
		l7.9-7.2C-573.4-93.7-540.8-171.5-544-252z M-654-101c-22.6,0-41-18.4-41-41s18.4-41,41-41s41,18.4,41,41S-631.4-101-654-101z"/>
	<g>
		<path class="st3" d="M3.1,47.1l2.7-10.3l0,0c1.2-4.6,6.9-6.1,10.2-2.8l0,0l0,0c3.3,3.3,1.8,9-2.7,10.3l0,0L3.1,47.1z"/>
		<path class="st3" d="M46.1,4l-0.7,0c-8.6-0.1-16.9,3.4-22.7,9.7L21.6,15c-1.2,0-4.1,0.2-8.1,1.7c-5.4,2-8.7,6.2-8.7,6.2l8.4,1.2
			l-1.4,1.5l12.8,12.7l1.5-1.3l0.1,0.2l1,8.4c0,0,4.3-3.1,6.4-8.5c1.8-4.7,1.9-7.8,1.8-8.6l0.9-0.8C42.9,21.6,46.5,13,46.1,4z
			 M33.9,20.8c-2.5,0-4.6-2-4.6-4.6s2-4.6,4.6-4.6s4.6,2,4.6,4.6S36.4,20.8,33.9,20.8z"/>
	</g>
</g>
</svg>
