<?xml version="1.0" encoding="utf-8"?>
<!-- Generator: Adobe Illustrator 28.1.0, SVG Export Plug-In . SVG Version: 6.00 Build 0)  -->
<svg version="1.1" xmlns="http://www.w3.org/2000/svg" xmlns:xlink="http://www.w3.org/1999/xlink" x="0px" y="0px"
	 viewBox="0 0 250 250" style="enable-background:new 0 0 250 250;" xml:space="preserve">
<style type="text/css">
	.st0{display:none;}
	.st1{fill:#66ACFF;stroke:#00288A;stroke-linejoin:round;stroke-miterlimit:10;}
	.st2{fill:#9CDCFF;stroke:#00288A;stroke-linejoin:round;stroke-miterlimit:10;}
	.st3{fill:#FFFFFF;stroke:#00288A;stroke-linecap:round;stroke-linejoin:round;stroke-miterlimit:10;}
	.st4{fill:none;stroke:#00288A;stroke-linecap:round;stroke-linejoin:round;stroke-miterlimit:10;}
	.st5{fill:#00ABFF;stroke:#00288A;stroke-linejoin:round;stroke-miterlimit:10;}
	.st6{fill:#00ABFF;stroke:#00288A;stroke-miterlimit:10;}
	.st7{fill:#006DF0;stroke:#00288A;stroke-miterlimit:10;}
	.st8{fill:#D4DCFF;stroke:#00288A;stroke-miterlimit:10;}
	.st9{fill:#FFFFFF;stroke:#00288A;stroke-miterlimit:10;}
	.st10{fill:none;stroke:#00288A;stroke-linejoin:round;stroke-miterlimit:10;}
	.st11{fill:#FFFFFF;stroke:#00288A;stroke-width:1.5;stroke-linecap:round;stroke-linejoin:round;stroke-miterlimit:10;}
	.st12{fill:#00288A;}
	.st13{fill:none;stroke:#00288A;stroke-width:1.5;stroke-linecap:round;stroke-linejoin:round;stroke-miterlimit:10;}
	.st14{fill:none;stroke:#00288A;stroke-width:1.5;stroke-miterlimit:10;}
	.st15{display:none;fill:none;stroke:#00288A;stroke-width:1.5;stroke-miterlimit:10;}
	.st16{fill:#66ACFF;stroke:#00288A;stroke-width:1.5;stroke-linejoin:round;stroke-miterlimit:10;}
	.st17{fill:#006DF0;stroke:#00288A;stroke-width:1.5;stroke-miterlimit:10;}
	.st18{fill:#9CDCFF;stroke:#00288A;stroke-width:1.5;stroke-linejoin:round;stroke-miterlimit:10;}
	.st19{fill:#9CDCFF;}
	.st20{fill:#00ABFF;stroke:#00288A;stroke-width:1.5;stroke-linejoin:round;stroke-miterlimit:10;}
	.st21{fill:#D4DCFF;stroke:#00288A;stroke-width:1.5;stroke-miterlimit:10;}
</style>
<g id="Слой_1" class="st0">
	
		<image style="display:inline;overflow:visible;" width="1034" height="1034" xlink:href="620E3261.png"  transform="matrix(0.2418 0 0 0.2421 0 -0.3333)">
	</image>
</g>
<g id="Слой_3">
	<g>
		<polygon class="st1" points="-57.8,141.2 -122.8,120.2 -122.8,72.2 -57.8,93.2 		"/>
		<polygon class="st2" points="-12.8,127.2 -57.8,141.2 -57.8,93.2 -12.8,79.2 		"/>
		<polygon class="st3" points="-76.8,58.2 -122.8,72.2 -57.8,93.2 -12.8,79.2 		"/>
	</g>
	<g id="paperinfo_00000050622426486951671920000008964967433862240920_">
		<line class="st4" x1="-59.3" y1="89.1" x2="-24.8" y2="78.2"/>
		<line class="st4" x1="-65.8" y1="85.8" x2="-32.9" y2="75.4"/>
		<line class="st4" x1="-96.8" y1="75.8" x2="-62.8" y2="66.2"/>
		<line class="st4" x1="-101.8" y1="74.8" x2="-67.8" y2="65.2"/>
		<line class="st4" x1="-105.8" y1="72.8" x2="-71.8" y2="63.2"/>
		<line class="st4" x1="-62.2" y1="87.5" x2="-45.8" y2="82.2"/>
		<polygon class="st5" points="-38.8,74.2 -70.8,84.2 -91.8,78.2 -56.8,68.2 		"/>
	</g>
	<g id="paperfolds">
		<line class="st4" x1="-122.8" y1="112.2" x2="-108.8" y2="116.2"/>
		<line class="st4" x1="-122.8" y1="117.2" x2="-94.8" y2="126.2"/>
		<line class="st4" x1="-122.8" y1="92.2" x2="-102.8" y2="98.2"/>
		<line class="st4" x1="-57.8" y1="102.2" x2="-24.8" y2="92.2"/>
		<line class="st4" x1="-57.8" y1="104.2" x2="-91.8" y2="93.2"/>
		<line class="st4" x1="-57.8" y1="117.2" x2="-40.8" y2="112.2"/>
		<line class="st4" x1="-57.8" y1="138.2" x2="-24.8" y2="128.2"/>
		<line class="st4" x1="-12.8" y1="119.2" x2="-43.8" y2="129.2"/>
		<line class="st4" x1="-57.8" y1="131.2" x2="-86.8" y2="123.2"/>
		<line class="st4" x1="-122.8" y1="75.2" x2="-89.8" y2="86.2"/>
		<line class="st4" x1="-12.8" y1="84.2" x2="-38.8" y2="92.2"/>
		<line class="st4" x1="-57.8" y1="120.2" x2="-20.8" y2="109.2"/>
	</g>
	<g id="base">
		<g id="Base">
			<path class="st6" d="M-91.8,131.5c-7.8-6.7-9.6-14.4-9.6-14.4s-12.4-44.9-14.4-49.8c-1.3-3.1-4.3-2.9-4.3-2.9l-13.4,2.3l-1.2-4.6
				c0.8-0.1,1.2-0.2,1.2-0.2l15.2-2.9c0,0,3.9-1.3,6.1,4.5C-110.6,68.2-97.3,113.4-91.8,131.5z"/>
			<path class="st7" d="M-87.7,145.1c-0.7,1.9-2.8,3.9-7.7,4.8c-10,1.9-45.8,10.3-54.9,12.5c-1.6,0.4-3.4,0.2-4.9-0.5
				c-1.9-0.9-4.3-2.4-5.2-4.8c-1.3-3.8-18.5-63.1-22.8-78.1c-0.8-2.9,0-6.1,2.4-8c0.7-0.6,1.5-1,2.4-1.2c0.4-0.1,1.1-0.2,2.2-0.4
				c-1,0.2-5.3,1.4-4,6.5c1.4,5.8,22.9,80.1,22.9,80.1s1.6,5,8.8,2.9c8.7-2.2,14.2-3.6,14.2-3.6c0.6,0.4,1,0.7,1,0.7L-87.7,145.1z"
				/>
			<path class="st6" d="M-133.9,155.9c0,0-5.5,1.4-14.2,3.6c-2.8,0.8-4.8,0.4-6.3-0.5c0,0,0,0,0,0c-0.6-0.4-1.2-0.8-1.6-1.2
				c-0.3-0.3-0.6-0.7-0.9-1.1c0,0,0,0,0,0c-0.5-0.8-0.9-1.6-1.1-2.5c-2.7-9.1-21.4-73.3-22.7-78.7c-0.6-2.6,0.1-4.2,1.2-5.1
				c0,0,0,0,0,0c1-1,2.3-1.3,2.8-1.4c0.1,0,0.2,0,0.2,0l0.2,0l1-0.2l3.1-0.5l11.9-1.9l3-0.5l0,0.1l0.5,4.3h0l-0.1,0l-0.1,0
				c-0.3,0.1-0.9,0.2-1.7,0.3l-0.3,0c-2.5,0.5-6.7,1.2-10.4,1.8c-0.4,0.1-0.9,0.1-1.3,0.2h0c-0.8,0.1-1.5,0.2-2,0.3
				c-0.2,0-0.4,0.1-0.5,0.1c-1.7,0.5-1.7,1.1-1.9,1.5c-0.1,0.3,0,0.4,0,0.4c3.8,11.1,8.5,24.9,12.6,45.3c0.2,0.9,0.4,1.8,0.6,2.8
				c3.4,12.9,9.2,29.7,10.6,31.8c0.7,0.2,6.9-1.2,10.4-2.1c0.4-0.1,0.8-0.2,1.1-0.3c0.8-0.2,1.3-0.3,1.3-0.3s-0.8-0.9-0.5-0.6
				c0,0,1,1,1,1c0.7,0.5,1.8,1.2,2.7,1.9c0.4,0.3,0.8,0.7,1.1,0.9C-134.1,155.6-133.9,155.8-133.9,155.9z"/>
		</g>
	</g>
	<path class="st8" d="M-140,152.5c-0.3,0.1-0.7,0.2-1.1,0.3c-3.5,0.8-9.8,2.3-10.4,2.1c-1.4-2.1-7.1-18.8-10.6-31.8
		c-0.2-0.9-0.4-1.9-0.6-2.8c0.3,0.9,0.6,1.9,0.8,2.8c3.5,11.6,8.7,20.2,15.8,25.9c0,0,4.2,2.8,4.2,2.8c0,0,0,0,0,0
		C-141.1,152.1-140.5,152.3-140,152.5z"/>
	<path class="st9" d="M-76.7,141.8l-11.5,2.8l-45.5,11l0,0c-0.1-0.1-0.3-0.4-0.9-0.7c-0.3-0.1-0.5-0.2-0.8-0.3
		c-1.5-0.6-2.7-1.2-4.6-2c-0.5-0.2-1.1-0.5-1.8-0.7c0,0,0,0,0,0c0,0-4.2-2.8-4.2-2.8c-7.1-5.7-12.3-14.4-15.8-25.9
		c-0.3-0.9-0.5-1.8-0.8-2.8c-5.1-17-12.9-44.1-12.9-44.1s-0.2-0.5-0.2-1.2c0-0.1,0-0.3,0-0.4c0.1-0.5,0.3-1,0.9-1.3l1.4-0.2l0.8-0.1
		l2.1-0.3h0l1-0.2l10.4-1.8l0.3,0l2-0.3l0.1,0l0.1,0h0l23-3.9l1-0.2l0.6-0.1l12.8-2.2c0,0,2.9-0.7,4.3,3.6c0.1,0.3,0.2,0.8,0.4,1.3
		c2.4,8.1,10.8,40,10.8,40s1.1,3.6,3.1,8c0,0,0,0,0,0c2,4.5,4.9,10,8.4,13.6c0.3,0.3,0.6,0.6,0.8,0.8c0.1,0.1,0.3,0.3,0.5,0.4
		c0.9,0.8,2,1.6,3.1,2.4C-77.4,141.1-76.7,141.8-76.7,141.8z"/>
	<path id="clip" class="st5" d="M-130.3,69.2l-27,4c-0.1-1.6-0.7-6.5-2.1-7.2c-0.1-0.1-0.7,0-1.4,0c4.1-0.5,22.8-3.4,25.7-4
		c2.9-0.6,3.5,2.6,3.5,2.6C-131.2,66.2-130.8,67.5-130.3,69.2z"/>
	<g id="Paperinfo">
		<g>
			
				<ellipse id="paperinfo" transform="matrix(0.943 -0.3329 0.3329 0.943 -37.9499 -48.0996)" class="st10" cx="-159.4" cy="86.7" rx="6.4" ry="6.9"/>
			<line class="st4" x1="-161.5" y1="87.8" x2="-158.8" y2="89.9"/>
			<line class="st4" x1="-157.4" y1="83.7" x2="-158.8" y2="89.9"/>
		</g>
		<g>
			
				<ellipse id="paperinfo_00000160881039937329729820000010991645109105484977_" transform="matrix(0.943 -0.3329 0.3329 0.943 -43.4438 -45.4952)" class="st10" cx="-154.5" cy="104" rx="6.4" ry="6.9"/>
			<line class="st4" x1="-156.7" y1="105.2" x2="-153.9" y2="107.3"/>
			<line class="st4" x1="-152.5" y1="101" x2="-153.9" y2="107.3"/>
		</g>
		<g>
			<line class="st4" x1="-149.7" y1="83.7" x2="-123.4" y2="78.8"/>
			<line class="st4" x1="-149" y1="86.4" x2="-133.8" y2="83.7"/>
		</g>
		<g>
			<line class="st4" x1="-134.3" y1="147.5" x2="-109.5" y2="141.9"/>
		</g>
		<g>
			<line class="st4" x1="-145.4" y1="98.6" x2="-119" y2="93.8"/>
			<line class="st4" x1="-143.8" y1="104.3" x2="-128.5" y2="101.6"/>
			<line class="st4" x1="-144.5" y1="101.6" x2="-129.2" y2="98.8"/>
		</g>
		<g>
			<line class="st4" x1="-156" y1="116.3" x2="-111.6" y2="107.9"/>
			<line class="st4" x1="-153.5" y1="122.3" x2="-113.7" y2="114.9"/>
			<line class="st4" x1="-154.9" y1="119" x2="-121.6" y2="112.8"/>
			<line class="st4" x1="-151.4" y1="129.4" x2="-122" y2="123.9"/>
		</g>
	</g>
</g>
<g id="Lion">
	<path class="st11" d="M146.7,68c-1,0.5-5.3,1.3-10,9.1c-0.3,0.5-1.5,3.9-0.2,6.7c0.2,0.5,0.8,1.7,2,2c1.2,0.3,2.3-0.3,2.8-0.6
		c1.3-1,1.8-1.9,2.5-3.1c0.7-1.2,4.1-9.7,8.7-10.9"/>
	<path class="st11" d="M134.9,67.7c-0.7,0.8-4.8,2.3-6.2,11.3c-0.1,0.6,0.1,4.2,2.4,6.3c0.4,0.4,1.4,1.2,2.6,1.1
		c1.3-0.2,2-1.1,2.3-1.6c0.8-1.4,1-2.4,1.1-3.8c0.2-1.4,0.2-10.5,3.9-13.4"/>
	<path class="st11" d="M146.3,59.9c-1,0.3-5.3-0.5-11.2,6.5c-0.4,0.4-2.1,3.6-1.2,6.6c0.2,0.5,0.5,1.8,1.6,2.2
		c1.2,0.5,2.3,0.1,2.8-0.2c1.4-0.7,2.1-1.6,2.9-2.7c0.8-1.1,5.6-8.9,10.3-9.4"/>
	<path class="st11" d="M149.2,72.7c-0.9,0.6-3.9,5.9-4.8,8.3c-0.2,0.5-1.1,4,0.6,6.7c0.3,0.5,1,1.6,2.2,1.7c1.3,0.2,2.3-0.5,2.7-0.9
		c1.2-1.1,1.6-2.1,2.1-3.4c0.5-1.3,3.1-10,7.5-11.8"/>
	<path class="st11" d="M158.3,61.6c-1.1,0.1-8.5,2.6-10.5,4.3c-0.4,0.4-3.5,4.7-3.2,7.8c0,0.5,0.1,1.8,1.1,2.5
		c1,0.7,2.3,0.6,2.8,0.5c1.6-0.4,2.4-1.1,3.5-2c1-0.9,7.4-7.5,12.1-7"/>
	<path class="st11" d="M123.8,74.6c-1.5,2.5-2,7.2-1.7,9.7c0.3,2.3,2.3,5.8,5.1,7.1c0.5,0.2,1.7,0.8,2.8,0.3
		c1.2-0.5,1.5-1.9,1.6-2.4c0.4-1.6-1.7-4.2-2.2-6.4c-0.7-2.8-0.3-5.2,0.4-7.8"/>
	<path class="st11" d="M132.4,60.4c-2.8,1-5.4,3.3-6.7,5.4c-1.3,2-2.6,7-1.3,9.8c0.2,0.5,0.8,1.7,2,2c1.2,0.3,2.4-0.5,2.8-0.8
		c1.3-0.9,1.4-4.3,2.3-6.3c1.2-2.6,3-4.2,5.2-5.8"/>
	<path class="st11" d="M142,52.7c-1.1,0.1-4.3,1.2-6.3,3c-0.4,0.4-2.8,3.1-2.6,6.2c0,0.5,0.1,1.8,1.1,2.5c1,0.7,2.4,0.4,2.9,0.3
		c1.6-0.4,2.3-1.4,3.4-2.2c1-0.9,3.6-3.9,6.2-4.5"/>
	<path class="st11" d="M154.2,53.4c-1.1,0.1-6.1,3.4-8.1,5.2c-0.4,0.4-2.8,3.1-2.6,6.2c0,0.5,0.1,1.8,1.1,2.5c1,0.7,2.3,0.6,2.8,0.5
		c1.6-0.4,2.4-1.1,3.5-2c1-0.9,7.4-7.5,12.1-7"/>
	<path class="st11" d="M188.2,61.6c0,0.1-0.1,0.3-0.1,0.4c-0.6,1.8-2.2,2.6-2.8,2.8c-0.6,0.2-3.8-1.8-6.6-2.2
		c-2.8-0.4-3.4,1.2-3.8,2.2c-0.4,1,2.6,3,3,3.2c0.4,0.2,4.7,1.7,5.4,1.9c0.6,0.2-2,3.2-2,3.2s-1.6,0.9-4,0.5c-5-0.7-6-4-6-4
		s-0.1-0.3-0.4,0.9c-0.2,0.7,0,2.4,0.2,3.5c0.1,0.8-0.6,1.4-1.5,1.4c-0.9-0.1-1.6-0.4-2.4-1.1c-1-0.9-1.2-3.5-1.3-2.2
		c-0.1,1.3-1.2,4.4-3,4.6c-0.9,0.1-1.6-0.7-2-1.5c-0.4-0.8-1.5-0.9-2.1-0.2c-0.6,0.8-1.4,1.9-2.1,3.3c-0.7,1.4-1.2,3.4-1.6,5.1
		c-0.3,1.2-1.9,1.3-2.3,0.2c-0.8-1.8-1.6-4.2-1.7-6.8c-0.1-2.6,1.4-5.9,2.6-7.3c1.1-1.3,3-2,4.5-2.4c0.8-0.2,1.2-1.2,0.7-1.9
		c-0.5-0.7-1-1.6-1.3-2.6c-0.3-1.2,0-2.7,0.5-3.9c0.3-1,1.7-2.4,0.7-2c-0.5,0.2-1,1.6-1.1,2.1c-0.5,2.7-9.3,3.4-8.5-2l0,0
		c3.1-1.8,3.9-2.2,2.9-1.7c-1.2,0.6-2.2,1.3-2.9,1.7c-1.2,0.7-2,0.8-3.6,0.9c-0.5,0.1-1.9,0.2-2.8-0.7c-0.9-0.9-0.8-2.2-0.7-2.7
		c0.2-3.1,2.3-4.3,2.8-4.6c3.6-2,5.4-1.6,8.4-0.9c-5-3,0.8-4.7,3.7-3.6c-1.1-0.6-0.5-2.7,1-2.3c0.4,0.1,0.8,0.2,1,0.3
		c0.6,0.2,3.8,0.2,4.9,0.3c1.1,0.1,7.1,2.5,7.5,2.7c0.4,0.2,8.1,3,9.2,3.8c1,0.8,0.1,2.3,0.5,2.5c0.3,0.2,4.3,2.4,6.2,3.6
		c0.3,0.2,0.6,0.5,0.8,0.8c-0.5,0.1-1,0.3-1.4,0.5c-0.8,0.3-2,0.8-2,1.5c0,0.7,1.2,1.3,2.7,1.9C187.4,61.3,187.8,61.5,188.2,61.6z"
		/>
	<path class="st11" d="M160.8,69c0,0-1,2-1,3.1s0.7,4.7,2.6,4.8s3.9-2.8,3.4-6.3c-0.5-3.5,0.1-4.6,0.1-4.6"/>
	<path class="st11" d="M188.2,61.6c-0.4-0.2-0.8-0.4-1.3-0.6c-1.5-0.7-2.7-1.2-2.7-1.9c0-0.7,1.2-1.2,2-1.5c0.5-0.2,1-0.4,1.4-0.5
		C188.7,58.4,188.6,60.2,188.2,61.6z"/>
	<g>
		<g>
			<path class="st12" d="M180.8,53.4c-2.3,0.1-4.7,0-7-0.1c0,0-3.2-0.5-3.2-0.5s0.1-1,0.1-1c1.7,0.5,3.1,1.6,4.1,2.9
				c1,1.1,2.5,1.9,4.1,2.4c-1.6-0.3-3.2-0.8-4.5-2c-1.1-1.1-2.4-2-3.9-2.3c-0.6-0.1-0.5-1.1,0.1-1c0,0,3.2,0.2,3.2,0.2
				c1.9-0.1,4.7-0.2,6.8-0.1c0.4,0,0.7,0.4,0.7,0.8C181.5,53.1,181.1,53.4,180.8,53.4L180.8,53.4z"/>
		</g>
		<path class="st13" d="M176,53c0.7,0.7,1.6,1.3,2.5,1.7c0.1,0,0.1,0,0.1,0s-0.6-1.8-0.9-1.9S176,53,176,53L176,53z"/>
	</g>
	<path class="st11" d="M152.4,163.8c0,0-0.4,2.2,0.7,3.1s8.5,5.5,8.5,8.9c0,3.4-0.9,12.2-4.6,12.2s-4.7-1.3-7.2-1.7
		c-2.5-0.4-5.2,2.1-5.9,3c-1.4,2-0.7,5.2-0.7,5.2s4.5-3.7,4.2-1.3c-2.8,1.1-1.6,5.2-1.6,5.2s1.9-1.5,4.2-1.8
		c-1.3,2.3-0.1,3.9-0.1,3.9s2.3-2.2,4.1-2.3c2-0.1,2.2,0.4,2.2,0.4s8.2-2.4,8.5-3.5c0.3-1.1,3.4-8.6,5.7-11.2
		c2.3-2.5,6.9-6.5,6.9-6.5v-3.7l2.8-1.4c0,0-3,0.3-5.5-4.5s-3.6-14.9-1.8-17.8c1.6-2.5,5.3-2.6,6.1-4.6c0.5-1.5,2.5-3.7,5.8-1.5
		c0,0,6.4,5.8,14.1,8.2c7.6,2.4,14.1,1,16.9-1.7c5.4-5.1,5.4-10.8,5.4-10.8l-2.5,1.3c0,0,2.8-5.1,2.5-8.9s-1.1-7.5-1.1-7.5l-3,2.3
		c0,0-4.3-10.7-8.8-19.3c-4.8-9.3-6.9-16.3-6.9-21.1c0-4.8,2.2-6.3,3.1-4.3c1.7,3.9,10,1,10,1s-1.7-1.1-3.5-4.3
		c-1.7-3-4-7.2-6.9-9.1c-2.2-1.3-7.4-4-7.4-4s-0.5,10.4,2.4,9.6c2.2-0.6-1.5,3.7-2,5.5c-0.3,1-0.9,2.8-0.4,7c0.7,5.3,3,12.7,6,19.7
		c3.3,7.6,10.4,20.1,10.5,26.1c0.1,5.5-3.1,13.5-11.4,9.3c-8.2-4.2-12.2-10.8-12.2-10.8l-3.1-4.1c0,0-3.3-5.5-2.7-7.5
		s1.4-13.7,1.4-15.4"/>
	<line class="st14" x1="84.5" y1="58.6" x2="83.9" y2="58.6"/>
	<line class="st15" x1="64.6" y1="45.8" x2="64.1" y2="45.8"/>
</g>
<g id="Eagle">
	<g>
		<path class="st16" d="M82.8,160.3c0,0-3,8.6-7.2,19.2c-3.3,8.3-4.1,10-4.4,12.2c-0.4,2.3,2.7,7.8,2.7,7.8s4.8-4.9,5.3-7.1
			c0.5-2.3,8.1-27.6,8.1-27.6"/>
		<path class="st16" d="M88.9,160.1c0,0-2.6,6.8-5.2,17.7c-2.2,9.6-3.1,11.7-3.4,14.1c-0.3,2.5,2.6,7.5,2.6,7.5s4.3-4.5,4.7-7
			s5.8-24.7,5.8-24.7"/>
		<path class="st16" d="M94.5,164c0,0-1.8,6-3.6,15.7c-1.8,9.7-2.4,13.7-1.5,15.9c1,2.2,2.8,3.8,2.8,3.8s3.3-5.1,3.7-7.6
			s1.6-24.8,1.6-24.8"/>
		<path class="st16" d="M103.3,166.3c0,0,2.3,20.5,1.6,23.7c-0.7,2.9-2.1,10.5-5,6.4c-1.6-2.2-2.8-5.3-3.1-7.9
			c-0.4-2.6,0.7-20.9,0.7-21.5"/>
		<path class="st16" d="M79.7,154.3c0,0-4.3,7.5-9.8,18.6c-4.3,8.8-5.4,10.6-6,12.9c-0.6,2.5,2.2,8.8,2.2,8.8s5.7-4.9,6.5-7.3
			c0.8-2.5,10.1-27.1,10.1-27.1"/>
		<path class="st16" d="M78.8,144.7c0,0-5.1,6.9-11.8,17.4c-5.3,8.3-6.6,9.9-7.4,12.2c-0.9,2.4,1.2,9,1.2,9s6.2-4.2,7.3-6.5
			c1.1-2.4,13.1-25.7,13.1-25.7"/>
		<path class="st16" d="M93.2,121.1c0,0-4.6,6.2-10.6,15.6c-4.8,7.4-5.9,8.9-6.7,10.9c-0.8,2.2,1.1,8.1,1.1,8.1s5.6-3.8,6.5-5.9
			c1-2.1,11.8-23.1,11.8-23.1"/>
		<path class="st16" d="M88.3,138.1c0,0,1.7-5.8-3.8,5.3c-4.3,8.8-5.4,10.6-6,12.9c-0.6,2.5,2.2,8.8,2.2,8.8s5.7-4.9,6.5-7.3
			c0.8-2.5,7-17.3,7-17.3"/>
		<path class="st16" d="M94.3,143.2c0,0,1.8-5.1-3.7,6.1c-4.3,8.8-5.4,10.6-6,12.9c-0.6,2.5,2.2,8.8,2.2,8.8s5.7-4.9,6.5-7.3
			c0.8-2.5,7.4-16,7.4-16"/>
		<path class="st16" d="M98.8,151.6c0,0,4.7-10.9-0.8,0.3c-4.3,8.8-5.4,10.6-6,12.9c-0.6,2.5,2.2,8.8,2.2,8.8s5.7-4.9,6.5-7.3
			c0.8-2.5,1.1-8.7,1.1-8.7"/>
		<path class="st16" d="M103.8,153.7c0,0,3.7-11.2-0.8,0.4c-3.5,9.2-4.4,11-4.8,13.4c-0.4,2.5,3,8.5,3,8.5s5.2-5.4,5.8-7.9
			s0.3-8.8,0.3-8.8"/>
	</g>
	<path class="st16" d="M122.2,85.4h-13.7c0.2,0,0.5-0.1,0.7-0.3c2-1.8,1.8-7,1.3-9.6c0,0,0,0,0,0c2.4,3.1,2.7,8.9,5.7,7.4
		c2.1-1,1.8-5.2,0.8-9c1.9,5.8,1.7,6.3,3.3,8.6C120.9,83.3,121.5,84.3,122.2,85.4z"/>
	<path class="st13" d="M125.7,91.5c0,0-1.4-2.6-3-5.1c-0.2-0.3-0.4-0.7-0.6-1"/>
	<path class="st13" d="M117.1,73.9C117.1,73.9,117.1,73.9,117.1,73.9c-0.4-1.2-0.9-2.5-1.5-4.2c-0.1-0.3-0.2-0.5-0.3-0.8
		c-3.9-10.5-11.1-15.3-11.1-15.3"/>
	<g>
		<path class="st16" d="M61.2,107.8c0,0-2.7,0.8-1.4,9.4c0.9,6.1,9.5,16.3,3.6,28c-2.9,5.8-8.2-12.1-8.2-12.1l-2.9-9l-0.8-14.4
			l3-4.1L61.2,107.8z"/>
		<path class="st16" d="M65.5,94.3c0,0-2.7,0.8-1.4,9.4c0.9,6.1,9.5,16.3,3.6,28c-2.9,5.8-8.2-12.1-8.2-12.1l-2.9-9l-0.8-14.4l3-4.1
			L65.5,94.3z"/>
		<path class="st16" d="M56.4,121.7c0,0-2.7,0.8-1.4,9.4c0.9,6.1,9.5,16.3,3.6,28c-2.9,5.8-8.2-12.1-8.2-12.1l-2.9-9l-0.8-14.4
			l3-4.1L56.4,121.7z"/>
		<path class="st16" d="M51.1,134c0,0-1.9,3.1-0.6,11.6c0.9,6.1,9.5,16.3,3.6,28c-2.9,5.8-8.2-12.1-8.2-12.1l-2.9-9l-0.8-14.4l3-4.1
			H51.1z"/>
		<path class="st16" d="M60.7,80.4c0,0,1.6-2,1.2,6.6c-0.4,8.4,6.9,19,1.1,30.7c-2.9,5.8-8.2-12.1-8.2-12.1l-2.9-9l-0.8-14.4l3-4.1
			L60.7,80.4z"/>
		<path class="st16" d="M54.3,90.7c0,0-2.7,0.8-1.4,9.4c0.9,6.1,9.5,16.3,3.6,28c-2.9,5.8-8.2-12.1-8.2-12.1l-2.9-9l-0.8-14.4l3-4.1
			L54.3,90.7z"/>
		<path class="st16" d="M50.6,106.5c0,0-2.7,0.8-1.4,9.4c0.9,6.1,7,11.7,1.2,23.4c-2.9,5.8-5.8-7.5-5.8-7.5l-2.9-9L41,108.4l3-4.1
			L50.6,106.5z"/>
		<path class="st16" d="M43.7,111.1c0,0-2.7,0.8-1.4,9.4c0.9,6.1,9.5,16.3,3.6,28c-2.9,5.8-8.2-12.1-8.2-12.1l-2.9-9L34.1,113l3-4.1
			L43.7,111.1z"/>
		<path class="st16" d="M72.7,82.1c0,0-1.7-0.9-7.4,5.6c-4.8,5.4,0.2,14-11.4,20.8c-1.6,1-0.5-5.9-0.5-5.9
			c0.5-5.9,7.2-18.9,10.2-23.8l4.7-2L72.7,82.1z"/>
		<path class="st16" d="M72,74.4c0,0-0.4,0.5-0.4,2.7c-5.7,5.7,3.8,15.4-7.9,22.3c-1.6,1-0.5-5.9-0.5-5.9c1.6-9.6-3.4-17.5-0.4-22.4
			l4.7-2L72,74.4z"/>
		<path class="st16" d="M65.5,78.9c0,0-6,6.6-9.3,14.5c-2.3,5.7-0.5,14.1-11.8,20.9c-2.4,1.1-0.7-7.6-0.7-7.6
			c0.9-14.2,9.6-26.3,12.6-31.2l4.7-2L65.5,78.9z"/>
		<path class="st16" d="M54.4,85.1c0,0-2.7-0.7-6,7.3c-2.3,5.7-0.3,18.8-11.4,25.8c-5.5,3.5-0.8-14.6-0.8-14.6l2.2-9.2l6.8-12.7
			l4.7-2L54.4,85.1z"/>
		<path class="st16" d="M51.1,76.1c-2.3,3.3-3.6,8.2-2,9.3s5.6-1.8,7.9-5.2c2.3-3.3,2.9-7,1.2-8.1C56.7,71,53.5,72.8,51.1,76.1z"/>
		<path class="st16" d="M57.8,77.9c-2.3,3.3-3.9,8.2-2.2,9.3c1.6,1.1,5.9-1.9,8.2-5.2c2.3-3.3,2.9-7,1.2-8.1
			C63.4,72.8,60.2,74.6,57.8,77.9z"/>
		<path class="st16" d="M56.4,70.5c-2.3,3.3-4.2,7.8-2.5,9c1.6,1.1,6.2-1.5,8.5-4.9c2.3-3.3,2.9-7,1.2-8.1
			C61.9,65.4,58.7,67.2,56.4,70.5z"/>
		<path class="st16" d="M63.5,80.6c-2.3,3.3-4.2,9-2.6,10.2c1.6,1.1,6.2-2.7,8.5-6.1c2.3-3.3,2.9-7,1.2-8.1
			C69,75.4,65.8,77.2,63.5,80.6z"/>
		<path class="st16" d="M62.6,71.1c-2.3,3.3-4.2,8.3-2.6,9.4c1.6,1.1,6.2-1.9,8.5-5.3c2.3-3.3,2.9-7,1.2-8.1
			C68.1,66,64.9,67.8,62.6,71.1z"/>
		<path class="st16" d="M67,74.7c-2.3,3.3-4.2,9.1-2.6,10.2c1.6,1.1,6.2-2.8,8.5-6.1c2.3-3.3,2.9-7,1.2-8.1
			C72.5,69.6,69.3,71.3,67,74.7z"/>
	</g>
	<path class="st11" d="M116.3,82.9c-3,1.5-3.3-4.3-5.7-7.4c0,0-0.1,0,0,0c0.5,2.6,0.7,7.8-1.3,9.6c-0.2,0.2-0.4,0.3-0.7,0.3
		c-2.3,0-4.9-9-5-7.8c-0.1,1.6,0.5,6-1.2,7.8c-0.2,0.2-0.5,0.4-0.8,0.6c-0.6,0.3-1.2,0-1.7-0.6c-2-2-3.7-7.5-3.6-6.3
		c0.1,1.3,0.7,4.5-1.1,6.3c-0.5,0.5-1.2,0.9-2.1,1c-1.1,0.2-1.8-0.3-2.4-1c-1.8-2.3-1.6-7.5-1.8-6.3c-0.3,1.2-1.8,4.6-3.2,6.3
		c-0.4,0.5-0.8,0.8-1.1,0.9c-0.7,0.3-1.5-0.2-2.2-0.9c-0.2-0.2-0.5-0.5-0.7-0.8c-0.4-0.6-0.4-3-0.4-3.5c0-1.7,1-4.2,1-4.3
		c0,0,0.3-0.4,0.7-1c1.1-1.8,3.4-5.2,3.5-5.4c0.1-0.1,2-1.1,4-2.1c1.9-1,3.8-2,3.9-2l18.1-2.7c0,0,0,0,0,0l2.8,5.4
		c0.1,0.2,0.2,0.5,0.4,0.8c0.5,1.2,1.1,2.6,1.5,4.1c0,0,0,0,0,0C118.1,77.7,118.4,81.8,116.3,82.9z"/>
	<path class="st11" d="M113.5,64.8c-1.3-2.3-6.7-9-6.7-9l-16.3,5.8l-6.7,6.4c-0.4,3.7-2.9,13.8-8.3,15c-0.5,0.1-1,0.2-1.6,0.1
		c-0.2-0.1-0.3-0.2-0.4-0.3c-1.4-1.5,2.1-4.3,2.5-9.9c0.4-5.9-2.1-12.8-13.2-9.5c-14,4.2-19.5,11.7-23.5,17.9
		c-10.7,15.1-8.8,47.9-2,65c3.4,8.5,9,15.6,10.8,23.5c1.1,4.8,0.3,13.9,0.3,13.9s3.3-3.3,3.1-9.5c-0.3-9.9-4.7-18.2-7.2-23.6
		c-2.5-5.4-6.2-13.3-7.2-26.2c-2.3-20.2,1.3-37.5,16-48.6c8.7-5.5,13.4-5.4,14.9-4.6c3.9,2.1,3.9,5.9,2.9,8.7
		c-0.5,1.4-0.7,2.8-0.8,4c0,0.2,0,0.4,0,0.5c0,1,0,1.7,0,1.7s1.4,5.3,6.2,3c0.6-0.3,1.5-0.8,2.3-1.2c0.1,0,0.1-0.1,0.2-0.1
		c0.3-0.2,0.6-0.4,0.9-0.6c0.5-0.3,1.5-0.9,2.4-1.5c0.3-0.2,0.6-0.4,0.8-0.5c5.6-3.8,5.9-11.8,5.9-11.8c0.4-1.6,0.6-2.6,0.6-2.8
		c0.3-1.5,0.2,7.1,3,6.4c2.9-0.7,3.8-7.5,3.7-9.1c-0.1-1.6,1.8,8.3,4.5,7.1c2.6-1.2,1.2-7.2,0.8-8.9c-0.4-1.7,3.9,8.3,6.3,6.2
		c2.1-1.9,1-6.3,0.2-8.3c1,2,3.7,6.7,4.5,6.3C113.5,69.8,114.6,66.9,113.5,64.8z M107.5,63.2c0.1,0.2,0.2,0.5,0.4,0.8
		C107.5,63.3,107.3,62.9,107.5,63.2z"/>
	<path class="st11" d="M84,146.9c0,0-4.5-1.3-5.3-3.4c-0.8-2.1,0-3-2.3-8.3c-2-4.7-4.8-5.7-8-9.6c-5.1-6.1-6.6-12.2-6.9-19.8
		c-0.4-7.5,1.8-13.3,3.2-15.5c0.9-1.4,1.5-2.9,3.7-4.9c0.6-0.4,1.2-0.8,1.7-1.1c1.3-0.8,2.5-1.2,3.5-1.3c0.7-0.1,1.4,0,2,0.2
		c1.8,0.6,2.8,2.5,3.2,4.9c0.4,2.2,0.2,4.8-0.4,7.2c-1,4-7.4,10.9-7.4,18.1c0,2.5,0.8,5,3,7.4c1.7,2,3,2,5.1,0
		c0.7-0.6,1.6-2.3,2.6-3.2c0.1-0.1,0.3-0.2,0.4-0.3c0.2-0.2,0.4-0.3,0.5-0.4v6.6c-0.1,0.2-0.3,0.4-0.5,0.6c-0.3,0.2-0.7,0.5-0.9,0.6
		c-0.3,0.2-0.6,0.4-0.9,0.6c-1.1,0.7-1.8,2.1-1.5,3.4c0.1,0.6,0.4,1.2,1.1,1.5c1.4,0.7,1.8,0.5,1.8,1c0,0.3,0,0.4,0,0.4l0.6,9.9
		L84,146.9z"/>
	<path class="st13" d="M107.9,64.1C107.9,64.1,107.9,64,107.9,64.1C107.9,64,107.9,64.1,107.9,64.1"/>
	<path class="st11" d="M84.3,60.9L84.3,60.9c-1-2.5-9.3-4.2-10.8-4.7L70,55.4c0-0.5-0.6-2.7,0.2-2.8c1.7-0.2,13.3,3.7,13.3,3.7
		S86.8,60.4,84.3,60.9z"/>
	<path class="st11" d="M105.5,61.6c-1.8,1.4-4.6-2.8-5.8-4.9c1,2.3,2.5,7.3-0.6,8.9c-1.6,0.6-5.4-7.7-4.5-5.3
		c0.9,2.4,1.6,7.5-1.9,8.6c-1.5,0.4-3.3-7-3.3-5.2c-0.1,2.6-0.5,6.6-4.6,6.6c-1.3-0.1-1.2-3.9-0.9-7.1c0.2-1.6,0.1-3.3-0.1-4.7
		c-0.1-1.3-0.3-2.3-0.3-2.3s-11.5-2.5-13.2-2.2c-0.9,0.1-0.4,1.9-0.4,2.3c0,0.5,0.1,0.9,0.1,0.9s-1.4-1.1-1.9-2.5
		c-0.4-1.1,0-3.9,2.2-5.3c2.2-1.5,6.8-0.8,6-1.1c-0.3-0.1-0.6-0.5-0.6-0.8c0.2-1.9,1.6-2.8,3.2-3.2c1.9-0.4,6.7-0.6,11.1,0.4
		c5.5,1.1,14.8,6,14.8,6l-2.6,1.6c0,0,1.4,0.7,2.4,1.9C105.7,55.4,109.9,58.8,105.5,61.6z"/>
	<g>
		<path class="st12" d="M83.8,52.2c-1.9,0.8-4.9,1.4-6-0.9c-0.5-0.8-0.6-3.4,0.9-3c0.4,0.2,0.6,0.7,0.3,1.1
			c-0.5,0.8-0.1,2.2,0.9,2.7C81,52.6,82.5,52.4,83.8,52.2L83.8,52.2z"/>
	</g>
	<ellipse class="st12" cx="81.6" cy="49.8" rx="1.5" ry="0.9"/>
	<g>
		<path class="st12" d="M75.9,47.7c0.7,0,1.1,0.1,1.6,0.2c3.2,0.9,6.4,1.3,9.7,1.5c-3.3,0.2-6.6,0.1-9.9-0.2c-0.4,0-1-0.1-1.2,0
			C75,49.3,74.8,47.7,75.9,47.7L75.9,47.7z"/>
	</g>
	<path class="st16" d="M90.6,85.4h-5c1.4-1.7,2.9-5.1,3.2-6.3C89,77.9,88.8,83.1,90.6,85.4z"/>
	<path class="st16" d="M102.3,85.4c1.7-1.8,1.1-6.2,1.2-7.8c0.1-1.2,2.7,7.8,5,7.8H102.3z"/>
	<path class="st16" d="M95.1,85.4c1.8-1.7,1.2-5,1.1-6.3c-0.1-1.3,1.6,4.3,3.6,6.3H95.1z"/>
	<path class="st16" d="M82,85.9v31.3c-0.1,0.1-0.3,0.2-0.4,0.3c-1,0.9-2,2.6-2.6,3.2c-2.1,2.1-3.4,2-5.1,0c-2.2-2.4-3-5-3-7.4
		c0-7.2,6.4-14.2,7.4-18.1c0.6-2.5,0.8-5.1,0.4-7.2c0.3-0.2,0.6-0.4,0.9-0.6C80.1,87.2,81.1,86.5,82,85.9z"/>
</g>
<g id="Shield">
	<g>
		<path class="st17" d="M136.9,149.6c-3.2,3.4-8.1,4.8-13,4.6c-0.4,0-0.8,0-1.2-0.1c-2.5-0.2-4.9-0.8-6.9-1.7c-3-1.3-5-3.1-7.4-5.6
			c-0.3-0.2-0.5-0.5-0.8-0.8c-4.2-4.3-3.8-5.8-3.7-6.2c0.3-0.8,1-1.3,2-1.9c0.3-0.2,0.6-0.3,0.9-0.5c1.3-0.7,2.3-1.2,3.6-1.2
			c2.1,0,2.4,1.5,4.3,1.4c1.7-0.1,1.9-1.3,3.7-1.3c1.8-0.1,2,1.1,3.9,1.1c1.9,0,2.1-1.2,3.9-1.2c2,0,2.5,1.4,4.5,1.6
			c1.7,0.1,2.1-1.3,4-1.5c0.2,0,2.3-0.1,3.9,1.3c0.3,0.3,0.5,0.6,0.7,0.9c0.6,0.9,0.8,1.9,0.8,2.5
			C140.8,145.3,137.3,149.1,136.9,149.6z"/>
		<path class="st17" d="M140.5,128.7v3.4c0,2.3-0.4,4.4-1.2,6.4c-0.2-0.3-0.4-0.6-0.7-0.9c-1.6-1.5-3.7-1.4-3.9-1.3
			c-1.8,0.2-2.2,1.6-4,1.5c-2-0.1-2.5-1.6-4.5-1.6c-1.8,0-2,1.2-3.9,1.2c-1.9,0-2.1-1.2-3.9-1.1c-1.8,0.1-1.9,1.3-3.7,1.3
			c-1.9,0.1-2.2-1.4-4.3-1.4c-1.3,0-2.3,0.5-3.6,1.2c-0.3,0.2-0.6,0.3-0.9,0.5c-0.6-1.8-1-3.8-1-5.8v-3.4H140.5z"/>
		<path class="st17" d="M106.9,142.8c0.9-0.6,2.1-1.3,3.6-1.2c1.9,0.1,2.5,1.5,4.3,1.4c1.7-0.1,1.9-1.3,3.7-1.3
			c1.8-0.1,2,1.1,3.9,1.1c1.9,0,2.1-1.2,3.9-1.2c2,0,2.5,1.4,4.5,1.6c1.7,0.1,2.1-1.3,4-1.5c1.6-0.2,3,0.6,3.9,1.3
			c0,0-3,10.6-16.3,11.4S106.9,142.8,106.9,142.8z"/>
	</g>
	<g>
		<path class="st18" d="M120.8,125.6l-3,0.7l-10.9,2.5l-1.9-0.1l-2.9-0.1l-0.5-0.8l-0.8-1.5c0,0,0.4-0.1,0.9-0.3
			c0.9-0.4,2.3-0.9,3.3-1.4c0.4-0.2,0.7-0.3,0.9-0.5c1-0.6,4.9-3,4.9-3s1.6,1.9,3.9,2.7c0.5,0.2,1,0.3,1.5,0.3
			C119.4,124.3,120.8,125.6,120.8,125.6z"/>
		<path class="st18" d="M141.3,128.8H95.8c-0.1,0-0.4,0-0.5,0c0.1,0,0.8-0.2,3.4-0.6c1-0.1,2-0.2,2.9-0.4c1.1-0.2,2.3-0.4,3.3-0.6
			c3.6-0.7,6.9-1.8,9.7-3.4c2.5-1.4,4.6-3.2,6.3-5.7c0.1-0.1,0.2-0.1,0.3-0.1l4.7-0.9c0.2,0,0.4,0,0.5,0.2c0.2,0.2,0.6,0.6,1,1.1
			c0.1,0.1,0.3,0.2,0.4,0.2h3.2c0.1,0,0.3,0,0.4,0.1c0.8,0.7,4.6,4.1,7.1,5.9c0.5,0.4,1.2,0.8,2,1.2c0.1,0.1,0.2,0.1,0.3,0.2
			c2.4,1.2,5.6,2.5,7.1,3c0,0,0,0,0,0C148.7,129.5,141.8,128.8,141.3,128.8z"/>
		<g>
			<path class="st19" d="M127.5,118.4c0.4,0.6,1.5,2.5,2.9,4.1c1.4,1.6,1.4,1.6,1.4,1.6"/>
			<path class="st12" d="M128.2,118c0.9,2.2,2.3,4.2,3.7,6.1c-1.8-1.6-3.5-3.3-5-5.4C126.9,118.7,128.2,118,128.2,118L128.2,118z"/>
		</g>
	</g>
	<g>
		<path class="st17" d="M82,85.4V126H105v-17.1h17.8V85.4H82z"/>
		<path class="st17" d="M164.6,125.9v8.5c0,22.8-18.5,41.3-41.3,41.3c-0.2,0-0.4,0-0.6,0v-25.9c6.1,0,11.4-3,14.6-7.7
			c0.8-1.1,1.5-2.4,2-3.7c0.8-2,1.2-4.1,1.2-6.4v-6.2H164.6z"/>
		<path class="st20" d="M122.7,149.9v25.9c-19.8-0.3-36.2-14.5-39.9-33.3c-0.5-2.6-0.8-5.3-0.8-8v-8.5H105v6.2c0,2,0.3,4,1,5.8
			c0.5,1.5,1.2,2.9,2.1,4.2C111.2,146.8,116.6,149.9,122.7,149.9z"/>
		<path class="st21" d="M140.5,108.8v17c-0.8-0.4-1.5-0.8-2-1.2c-2.4-1.8-6.2-5.2-7.1-5.9c-0.1-0.1-0.2-0.1-0.4-0.1h-3.2
			c-0.2,0-0.3-0.1-0.4-0.2c-0.4-0.5-0.8-0.8-1-1.1c-0.1-0.1-0.3-0.2-0.5-0.2l-4.7,0.9c-0.1,0-0.2,0-0.3,0.1
			c-1.7,2.4-3.8,4.3-6.3,5.7c-2.3-0.8-3.9-2.7-3.9-2.7s-3.9,2.3-4.9,3c-0.2,0.1-0.5,0.3-0.9,0.5v-15.8H140.5z"/>
		<polygon class="st20" points="164.7,85.4 164.7,126 140.5,126 140.5,108.8 122.7,108.8 122.7,85.4 		"/>
	</g>
</g>
</svg>
