<?xml version="1.0" encoding="utf-8"?>
<!-- Generator: Adobe Illustrator 28.1.0, SVG Export Plug-In . SVG Version: 6.00 Build 0)  -->
<svg version="1.1" xmlns="http://www.w3.org/2000/svg" xmlns:xlink="http://www.w3.org/1999/xlink" x="0px" y="0px"
	 viewBox="0 0 50 50" style="enable-background:new 0 0 50 50;" xml:space="preserve">
<style type="text/css">
	.st0{display:none;}
	.st1{fill:#006DF0;}
	.st2{fill:#00ABFF;}
	.st3{fill:#66ACFF;stroke:#00288A;stroke-linejoin:round;stroke-miterlimit:10;}
	.st4{fill:#9CDCFF;stroke:#00288A;stroke-linejoin:round;stroke-miterlimit:10;}
	.st5{fill:#FFFFFF;stroke:#00288A;stroke-linecap:round;stroke-linejoin:round;stroke-miterlimit:10;}
	.st6{fill:none;stroke:#00288A;stroke-linecap:round;stroke-linejoin:round;stroke-miterlimit:10;}
	.st7{fill:#00ABFF;stroke:#00288A;stroke-linejoin:round;stroke-miterlimit:10;}
	.st8{fill:#00ABFF;stroke:#00288A;stroke-miterlimit:10;}
	.st9{fill:#006DF0;stroke:#00288A;stroke-miterlimit:10;}
	.st10{fill:#D4DCFF;stroke:#00288A;stroke-miterlimit:10;}
	.st11{fill:#FFFFFF;stroke:#00288A;stroke-miterlimit:10;}
	.st12{fill:none;stroke:#00288A;stroke-linejoin:round;stroke-miterlimit:10;}
	.st13{fill:#1A6EFF;}
</style>
<g id="back" class="st0">
	
		<image style="display:inline;overflow:visible;" width="58" height="58" xlink:href="../../../../../shieldcitizenship 1.png"  transform="matrix(0.8966 0 0 0.8966 -1 -1)">
	</image>
</g>
<g id="Слой_4">
	<path class="st1" d="M42,6.6v14.6c0,11.2-7.1,20.6-17,24.2C15.1,41.8,8,32.4,8,21.2V6.6l1,0.3c3.5,1,7.1,1.3,10.7,0.9
		c3.5-0.4,7.1-0.4,10.6,0c3.6,0.4,7.2,0.1,10.7-0.9L42,6.6z"/>
	<path class="st2" d="M37,12.3v10.3c0,7.9-5,14.6-12,17.1c-7-2.5-12-9.2-12-17.1V12.3l0.7,0.2c2.2,0.7,4.5,0.9,6.8,0.7
		c3-0.2,6-0.2,9,0c2.3,0.2,4.6-0.1,6.8-0.7L37,12.3z"/>
	<g>
		<polygon class="st3" points="193.4,62.7 128.4,41.7 128.4,-6.3 193.4,14.7 		"/>
		<polygon class="st4" points="238.4,48.7 193.4,62.7 193.4,14.7 238.4,0.7 		"/>
		<polygon class="st5" points="174.4,-20.3 128.4,-6.3 193.4,14.7 238.4,0.7 		"/>
	</g>
	<g id="paperinfo_00000050622426486951671920000008964967433862240920_">
		<line class="st6" x1="191.9" y1="10.6" x2="226.4" y2="-0.3"/>
		<line class="st6" x1="185.4" y1="7.3" x2="218.3" y2="-3.1"/>
		<line class="st6" x1="154.4" y1="-2.7" x2="188.4" y2="-12.3"/>
		<line class="st6" x1="149.4" y1="-3.7" x2="183.4" y2="-13.3"/>
		<line class="st6" x1="145.4" y1="-5.7" x2="179.4" y2="-15.3"/>
		<line class="st6" x1="189" y1="9" x2="205.4" y2="3.7"/>
		<polygon class="st7" points="212.4,-4.3 180.4,5.7 159.4,-0.3 194.4,-10.3 		"/>
	</g>
	<g id="paperfolds">
		<line class="st6" x1="128.4" y1="33.7" x2="142.4" y2="37.7"/>
		<line class="st6" x1="128.4" y1="38.7" x2="156.4" y2="47.7"/>
		<line class="st6" x1="128.4" y1="13.7" x2="148.4" y2="19.7"/>
		<line class="st6" x1="193.4" y1="23.7" x2="226.4" y2="13.7"/>
		<line class="st6" x1="193.4" y1="25.7" x2="159.4" y2="14.7"/>
		<line class="st6" x1="193.4" y1="38.7" x2="210.4" y2="33.7"/>
		<line class="st6" x1="193.4" y1="59.7" x2="226.4" y2="49.7"/>
		<line class="st6" x1="238.4" y1="40.7" x2="207.4" y2="50.7"/>
		<line class="st6" x1="193.4" y1="52.7" x2="164.4" y2="44.7"/>
		<line class="st6" x1="128.4" y1="-3.3" x2="161.4" y2="7.7"/>
		<line class="st6" x1="238.4" y1="5.7" x2="212.4" y2="13.7"/>
		<line class="st6" x1="193.4" y1="41.7" x2="230.4" y2="30.7"/>
	</g>
	<g id="base">
		<g id="Base">
			<path class="st8" d="M159.4,53c-7.8-6.7-9.6-14.4-9.6-14.4s-12.4-44.9-14.4-49.8c-1.3-3.1-4.3-2.9-4.3-2.9l-13.4,2.3l-1.2-4.6
				c0.8-0.1,1.2-0.2,1.2-0.2l15.2-2.9c0,0,3.9-1.3,6.1,4.5C140.7-10.4,153.9,34.8,159.4,53z"/>
			<path class="st9" d="M163.5,66.6c-0.7,1.9-2.8,3.9-7.7,4.8c-10,1.9-45.8,10.3-54.9,12.5c-1.6,0.4-3.4,0.2-4.9-0.5
				c-1.9-0.9-4.3-2.4-5.2-4.8c-1.3-3.8-18.5-63.1-22.8-78.1c-0.8-2.9,0-6.1,2.4-8c0.7-0.6,1.5-1,2.4-1.2C73.3-8.7,74-8.9,75.1-9
				c-1,0.2-5.3,1.4-4,6.5C72.5,3.3,94,77.6,94,77.6s1.6,5,8.8,2.9c8.7-2.2,14.2-3.6,14.2-3.6c0.6,0.4,1,0.7,1,0.7L163.5,66.6z"/>
			<path class="st8" d="M117.4,77.3c0,0-5.5,1.4-14.2,3.6c-2.8,0.8-4.8,0.4-6.3-0.5c0,0,0,0,0,0c-0.6-0.4-1.2-0.8-1.6-1.2
				c-0.3-0.3-0.6-0.7-0.9-1.1c0,0,0,0,0,0c-0.5-0.8-0.9-1.6-1.1-2.5C90.5,66.5,71.8,2.3,70.4-3.1c-0.6-2.6,0.1-4.2,1.2-5.1
				c0,0,0,0,0,0c1-1,2.3-1.3,2.8-1.4c0.1,0,0.2,0,0.2,0l0.2,0l1-0.2l3.1-0.5l11.9-1.9l3-0.5l0,0.1l0.5,4.3h0l-0.1,0l-0.1,0
				c-0.3,0.1-0.9,0.2-1.7,0.3l-0.3,0c-2.5,0.5-6.7,1.2-10.4,1.8c-0.4,0.1-0.9,0.1-1.3,0.2h0c-0.8,0.1-1.5,0.2-2,0.3
				c-0.2,0-0.4,0.1-0.5,0.1C76.1-5,76.2-4.4,76-4c-0.1,0.3,0,0.4,0,0.4c3.8,11.1,8.5,24.9,12.6,45.3c0.2,0.9,0.4,1.8,0.6,2.8
				c3.4,12.9,9.2,29.7,10.6,31.8c0.7,0.2,6.9-1.2,10.4-2.1c0.4-0.1,0.8-0.2,1.1-0.3c0.8-0.2,1.3-0.3,1.3-0.3s-0.8-0.9-0.5-0.6
				c0,0,1,1,1,1c0.7,0.5,1.8,1.2,2.7,1.9c0.4,0.3,0.8,0.7,1.1,0.9C117.1,77.1,117.3,77.2,117.4,77.3z"/>
		</g>
	</g>
	<path class="st10" d="M111.2,74c-0.3,0.1-0.7,0.2-1.1,0.3c-3.5,0.8-9.8,2.3-10.4,2.1c-1.4-2.1-7.1-18.8-10.6-31.8
		c-0.2-0.9-0.4-1.9-0.6-2.8c0.3,0.9,0.6,1.9,0.8,2.8c3.5,11.6,8.7,20.2,15.8,25.9c0,0,4.2,2.8,4.2,2.8c0,0,0,0,0,0
		C110.1,73.5,110.7,73.8,111.2,74z"/>
	<path class="st11" d="M174.6,63.3l-11.5,2.8l-45.5,11l0,0c-0.1-0.1-0.3-0.4-0.9-0.7c-0.3-0.1-0.5-0.2-0.8-0.3
		c-1.5-0.6-2.7-1.2-4.6-2c-0.5-0.2-1.1-0.5-1.8-0.7c0,0,0,0,0,0c0,0-4.2-2.8-4.2-2.8C98.1,64.7,93,56.1,89.4,44.5
		c-0.3-0.9-0.5-1.8-0.8-2.8c-5.1-17-12.9-44.1-12.9-44.1s-0.2-0.5-0.2-1.2c0-0.1,0-0.3,0-0.4c0.1-0.5,0.3-1,0.9-1.3l1.4-0.2l0.8-0.1
		l2.1-0.3h0l1-0.2l10.4-1.8l0.3,0l2-0.3l0.1,0l0.1,0h0l23-3.9l1-0.2l0.6-0.1l12.8-2.2c0,0,2.9-0.7,4.3,3.6c0.1,0.3,0.2,0.8,0.4,1.3
		c2.4,8.1,10.8,40,10.8,40s1.1,3.6,3.1,8c0,0,0,0,0,0c2,4.5,4.9,10,8.4,13.6c0.3,0.3,0.6,0.6,0.8,0.8c0.1,0.1,0.3,0.3,0.5,0.4
		c0.9,0.8,2,1.6,3.1,2.4C173.8,62.6,174.6,63.3,174.6,63.3z"/>
	<path id="clip" class="st7" d="M120.9-9.4l-27,4c-0.1-1.6-0.7-6.5-2.1-7.2c-0.1-0.1-0.7,0-1.4,0c4.1-0.5,22.8-3.4,25.7-4
		c2.9-0.6,3.5,2.6,3.5,2.6C120-12.3,120.4-11,120.9-9.4z"/>
	<g id="Paperinfo">
		<g>
			
				<ellipse id="paperinfo" transform="matrix(0.943 -0.3329 0.3329 0.943 2.5155 31.0474)" class="st12" cx="91.9" cy="8.2" rx="6.4" ry="6.9"/>
			<line class="st6" x1="89.7" y1="9.3" x2="92.5" y2="11.4"/>
			<line class="st6" x1="93.9" y1="5.2" x2="92.5" y2="11.4"/>
		</g>
		<g>
			
				<ellipse id="paperinfo_00000160881039937329729820000010991645109105484977_" transform="matrix(0.943 -0.3329 0.3329 0.943 -2.9785 33.6518)" class="st12" cx="96.7" cy="25.5" rx="6.4" ry="6.9"/>
			<line class="st6" x1="94.6" y1="26.6" x2="97.3" y2="28.7"/>
			<line class="st6" x1="98.7" y1="22.5" x2="97.3" y2="28.7"/>
		</g>
		<g>
			<line class="st6" x1="101.5" y1="5.2" x2="127.8" y2="0.3"/>
			<line class="st6" x1="102.2" y1="7.9" x2="117.4" y2="5.2"/>
		</g>
		<g>
			<line class="st6" x1="116.9" y1="68.9" x2="141.7" y2="63.4"/>
		</g>
		<g>
			<line class="st6" x1="105.8" y1="20.1" x2="132.2" y2="15.3"/>
			<line class="st6" x1="107.4" y1="25.8" x2="122.7" y2="23"/>
			<line class="st6" x1="106.7" y1="23" x2="122" y2="20.3"/>
		</g>
		<g>
			<line class="st6" x1="95.2" y1="37.7" x2="139.6" y2="29.4"/>
			<line class="st6" x1="97.7" y1="43.8" x2="137.5" y2="36.3"/>
			<line class="st6" x1="96.3" y1="40.5" x2="129.6" y2="34.3"/>
			<line class="st6" x1="99.8" y1="50.9" x2="129.2" y2="45.4"/>
		</g>
	</g>
</g>
<g id="Check">
	<path class="st13" d="M-103-51c-11.6,0-21,9.4-21,21c0,11.6,9.4,21,21,21s21-9.4,21-21C-82-41.6-91.4-51-103-51z M-105.3-17
		l-14-12.9l4.1-4.4l9.6,8.8l13.5-14.7l4.4,4.1L-105.3-17z"/>
</g>
<g id="Rocket">
	<path class="st13" d="M-57.5-7.4l2.8-10.4l0,0c1.2-4.6,7-6.2,10.4-2.8l0,0l0,0c3.4,3.4,1.8,9.1-2.8,10.4l0,0L-57.5-7.4z"/>
	<path class="st13" d="M-14-51l-0.7,0c-8.7-0.1-17.1,3.4-23,9.8l-1.2,1.3c-1.2,0-4.1,0.2-8.2,1.7c-5.5,2-8.8,6.3-8.8,6.3l8.5,1.2
		l-1.4,1.5l12.9,12.8l1.5-1.3l0.1,0.2l1,8.5c0,0,4.3-3.2,6.4-8.6c1.8-4.7,1.9-7.9,1.9-8.7l0.9-0.8C-17.3-33.2-13.7-42-14-51z
		 M-26.4-34.1c-2.5,0-4.6-2.1-4.6-4.6s2.1-4.6,4.6-4.6s4.6,2.1,4.6,4.6S-23.8-34.1-26.4-34.1z"/>
</g>
</svg>
