<?xml version="1.0" encoding="utf-8"?>
<!-- Generator: Adobe Illustrator 28.1.0, SVG Export Plug-In . SVG Version: 6.00 Build 0)  -->
<svg version="1.1" xmlns="http://www.w3.org/2000/svg" xmlns:xlink="http://www.w3.org/1999/xlink" x="0px" y="0px"
	 viewBox="0 0 250 250" style="enable-background:new 0 0 250 250;" xml:space="preserve">
<style type="text/css">
	.st0{display:none;}
	.st1{fill:#66ACFF;stroke:#00288A;stroke-linejoin:round;stroke-miterlimit:10;}
	.st2{fill:#9CDCFF;stroke:#00288A;stroke-linejoin:round;stroke-miterlimit:10;}
	.st3{fill:#FFFFFF;stroke:#00288A;stroke-linecap:round;stroke-linejoin:round;stroke-miterlimit:10;}
	.st4{fill:none;stroke:#00288A;stroke-linecap:round;stroke-linejoin:round;stroke-miterlimit:10;}
	.st5{fill:#00ABFF;stroke:#00288A;stroke-linejoin:round;stroke-miterlimit:10;}
	.st6{fill:#00ABFF;stroke:#00288A;stroke-miterlimit:10;}
	.st7{fill:#006DF0;stroke:#00288A;stroke-miterlimit:10;}
	.st8{fill:#D4DCFF;stroke:#00288A;stroke-miterlimit:10;}
	.st9{fill:#FFFFFF;stroke:#00288A;stroke-miterlimit:10;}
	.st10{fill:none;stroke:#00288A;stroke-width:1;stroke-linejoin:round;stroke-miterlimit:10.0004;}
	.st11{fill:#FFFFFF;stroke:#00288A;stroke-width:1.5;stroke-linecap:round;stroke-linejoin:round;stroke-miterlimit:10;}
	.st12{fill:#66ACFF;}
	.st13{fill:#00288A;}
	.st14{fill:#66ACFF;stroke:#00288A;stroke-width:1.5;stroke-linejoin:round;stroke-miterlimit:10;}
	.st15{fill:none;stroke:#00288A;stroke-width:1.5;stroke-linecap:round;stroke-linejoin:round;stroke-miterlimit:10;}
	.st16{fill:none;stroke:#00288A;stroke-width:1.5;stroke-linejoin:round;stroke-miterlimit:10;}
	.st17{fill:#006DF0;stroke:#00288A;stroke-width:1.5;stroke-miterlimit:10;}
	.st18{fill:#9CDCFF;}
	.st19{fill:#00ABFF;stroke:#00288A;stroke-width:1.5;stroke-linejoin:round;stroke-miterlimit:10;}
</style>
<g id="Слой_1">
	<g id="Слой_1_00000180325667947753010050000011732205657735640225_" class="st0">
	</g>
	<g id="Слой_3">
		<g>
			<polygon class="st1" points="-57.8,141.2 -122.8,120.2 -122.8,72.2 -57.8,93.2 			"/>
			<polygon class="st2" points="-12.8,127.2 -57.8,141.2 -57.8,93.2 -12.8,79.2 			"/>
			<polygon class="st3" points="-76.8,58.2 -122.8,72.2 -57.8,93.2 -12.8,79.2 			"/>
		</g>
		<g id="paperinfo_00000050622426486951671920000008964967433862240920_">
			<line class="st4" x1="-59.3" y1="89.1" x2="-24.8" y2="78.2"/>
			<line class="st4" x1="-65.8" y1="85.8" x2="-32.9" y2="75.4"/>
			<line class="st4" x1="-96.8" y1="75.8" x2="-62.8" y2="66.2"/>
			<line class="st4" x1="-101.8" y1="74.8" x2="-67.8" y2="65.2"/>
			<line class="st4" x1="-105.8" y1="72.8" x2="-71.8" y2="63.2"/>
			<line class="st4" x1="-62.2" y1="87.5" x2="-45.8" y2="82.2"/>
			<polygon class="st5" points="-38.8,74.2 -70.8,84.2 -91.8,78.2 -56.8,68.2 			"/>
		</g>
		<g id="paperfolds">
			<line class="st4" x1="-122.8" y1="112.2" x2="-108.8" y2="116.2"/>
			<line class="st4" x1="-122.8" y1="117.2" x2="-94.8" y2="126.2"/>
			<line class="st4" x1="-122.8" y1="92.2" x2="-102.8" y2="98.2"/>
			<line class="st4" x1="-57.8" y1="102.2" x2="-24.8" y2="92.2"/>
			<line class="st4" x1="-57.8" y1="104.2" x2="-91.8" y2="93.2"/>
			<line class="st4" x1="-57.8" y1="117.2" x2="-40.8" y2="112.2"/>
			<line class="st4" x1="-57.8" y1="138.2" x2="-24.8" y2="128.2"/>
			<line class="st4" x1="-12.8" y1="119.2" x2="-43.8" y2="129.2"/>
			<line class="st4" x1="-57.8" y1="131.2" x2="-86.8" y2="123.2"/>
			<line class="st4" x1="-122.8" y1="75.2" x2="-89.8" y2="86.2"/>
			<line class="st4" x1="-12.8" y1="84.2" x2="-38.8" y2="92.2"/>
			<line class="st4" x1="-57.8" y1="120.2" x2="-20.8" y2="109.2"/>
		</g>
		<g id="base">
			<g id="Base">
				<path class="st6" d="M-91.8,131.5c-7.8-6.7-9.6-14.4-9.6-14.4s-12.4-44.9-14.4-49.8c-1.3-3.1-4.3-2.9-4.3-2.9l-13.4,2.3
					l-1.2-4.6c0.8-0.1,1.2-0.2,1.2-0.2l15.2-2.9c0,0,3.9-1.3,6.1,4.5C-110.6,68.2-97.3,113.4-91.8,131.5z"/>
				<path class="st7" d="M-87.7,145.1c-0.7,1.9-2.8,3.9-7.7,4.8c-10,1.9-45.8,10.3-54.9,12.5c-1.6,0.4-3.4,0.2-4.9-0.5
					c-1.9-0.9-4.3-2.4-5.2-4.8c-1.3-3.8-18.5-63.1-22.8-78.1c-0.8-2.9,0-6.1,2.4-8c0.7-0.6,1.5-1,2.4-1.2c0.4-0.1,1.1-0.2,2.2-0.4
					c-1,0.2-5.3,1.4-4,6.5c1.4,5.8,22.9,80.1,22.9,80.1s1.6,5,8.8,2.9c8.7-2.2,14.2-3.6,14.2-3.6c0.6,0.4,1,0.7,1,0.7L-87.7,145.1z"
					/>
				<path class="st6" d="M-133.9,155.9c0,0-5.5,1.4-14.2,3.6c-2.8,0.8-4.8,0.4-6.3-0.5l0,0c-0.6-0.4-1.2-0.8-1.6-1.2
					c-0.3-0.3-0.6-0.7-0.9-1.1l0,0c-0.5-0.8-0.9-1.6-1.1-2.5c-2.7-9.1-21.4-73.3-22.7-78.7c-0.6-2.6,0.1-4.2,1.2-5.1l0,0
					c1-1,2.3-1.3,2.8-1.4c0.1,0,0.2,0,0.2,0h0.2l1-0.2l3.1-0.5l11.9-1.9l3-0.5V66l0.5,4.3l0,0h-0.1h-0.1c-0.3,0.1-0.9,0.2-1.7,0.3
					h-0.3c-2.5,0.5-6.7,1.2-10.4,1.8c-0.4,0.1-0.9,0.1-1.3,0.2l0,0c-0.8,0.1-1.5,0.2-2,0.3c-0.2,0-0.4,0.1-0.5,0.1
					c-1.7,0.5-1.7,1.1-1.9,1.5c-0.1,0.3,0,0.4,0,0.4c3.8,11.1,8.5,24.9,12.6,45.3c0.2,0.9,0.4,1.8,0.6,2.8
					c3.4,12.9,9.2,29.7,10.6,31.8c0.7,0.2,6.9-1.2,10.4-2.1c0.4-0.1,0.8-0.2,1.1-0.3c0.8-0.2,1.3-0.3,1.3-0.3s-0.8-0.9-0.5-0.6l1,1
					c0.7,0.5,1.8,1.2,2.7,1.9c0.4,0.3,0.8,0.7,1.1,0.9C-134.1,155.6-133.9,155.8-133.9,155.9z"/>
			</g>
		</g>
		<path class="st8" d="M-140,152.5c-0.3,0.1-0.7,0.2-1.1,0.3c-3.5,0.8-9.8,2.3-10.4,2.1c-1.4-2.1-7.1-18.8-10.6-31.8
			c-0.2-0.9-0.4-1.9-0.6-2.8c0.3,0.9,0.6,1.9,0.8,2.8c3.5,11.6,8.7,20.2,15.8,25.9l4.2,2.8l0,0C-141.1,152.1-140.5,152.3-140,152.5z
			"/>
		<path class="st9" d="M-76.7,141.8l-11.5,2.8l-45.5,11l0,0c-0.1-0.1-0.3-0.4-0.9-0.7c-0.3-0.1-0.5-0.2-0.8-0.3
			c-1.5-0.6-2.7-1.2-4.6-2c-0.5-0.2-1.1-0.5-1.8-0.7l0,0l-4.2-2.8c-7.1-5.7-12.3-14.4-15.8-25.9c-0.3-0.9-0.5-1.8-0.8-2.8
			c-5.1-17-12.9-44.1-12.9-44.1s-0.2-0.5-0.2-1.2c0-0.1,0-0.3,0-0.4c0.1-0.5,0.3-1,0.9-1.3l1.4-0.2l0.8-0.1l2.1-0.3l0,0l1-0.2
			l10.4-1.8h0.3l2-0.3h0.1h0.1l0,0l23-3.9l1-0.2l0.6-0.1l12.8-2.2c0,0,2.9-0.7,4.3,3.6c0.1,0.3,0.2,0.8,0.4,1.3
			c2.4,8.1,10.8,40,10.8,40s1.1,3.6,3.1,8l0,0c2,4.5,4.9,10,8.4,13.6c0.3,0.3,0.6,0.6,0.8,0.8c0.1,0.1,0.3,0.3,0.5,0.4
			c0.9,0.8,2,1.6,3.1,2.4C-77.4,141.1-76.7,141.8-76.7,141.8z"/>
		<path id="clip" class="st5" d="M-130.3,69.2l-27,4c-0.1-1.6-0.7-6.5-2.1-7.2c-0.1-0.1-0.7,0-1.4,0c4.1-0.5,22.8-3.4,25.7-4
			s3.5,2.6,3.5,2.6C-131.2,66.2-130.8,67.5-130.3,69.2z"/>
		<g id="Paperinfo">
			<g>
				
					<ellipse id="paperinfo" transform="matrix(0.943 -0.3329 0.3329 0.943 -37.9602 -48.1168)" class="st10" cx="-159.4" cy="86.7" rx="6.4" ry="6.9"/>
				<line class="st4" x1="-161.5" y1="87.8" x2="-158.8" y2="89.9"/>
				<line class="st4" x1="-157.4" y1="83.7" x2="-158.8" y2="89.9"/>
			</g>
			<g>
				
					<ellipse id="paperinfo_00000160881039937329729820000010991645109105484977_" transform="matrix(0.943 -0.3329 0.3329 0.943 -43.4362 -45.5044)" class="st10" cx="-154.5" cy="104" rx="6.4" ry="6.9"/>
				<line class="st4" x1="-156.7" y1="105.2" x2="-153.9" y2="107.3"/>
				<line class="st4" x1="-152.5" y1="101" x2="-153.9" y2="107.3"/>
			</g>
			<g>
				<line class="st4" x1="-149.7" y1="83.7" x2="-123.4" y2="78.8"/>
				<line class="st4" x1="-149" y1="86.4" x2="-133.8" y2="83.7"/>
			</g>
			<g>
				<line class="st4" x1="-134.3" y1="147.5" x2="-109.5" y2="141.9"/>
			</g>
			<g>
				<line class="st4" x1="-145.4" y1="98.6" x2="-119" y2="93.8"/>
				<line class="st4" x1="-143.8" y1="104.3" x2="-128.5" y2="101.6"/>
				<line class="st4" x1="-144.5" y1="101.6" x2="-129.2" y2="98.8"/>
			</g>
			<g>
				<line class="st4" x1="-156" y1="116.3" x2="-111.6" y2="107.9"/>
				<line class="st4" x1="-153.5" y1="122.3" x2="-113.7" y2="114.9"/>
				<line class="st4" x1="-154.9" y1="119" x2="-121.6" y2="112.8"/>
				<line class="st4" x1="-151.4" y1="129.4" x2="-122" y2="123.9"/>
			</g>
		</g>
	</g>
	<path class="st11" d="M172.1,152.9c0,0-0.4,2.2,0.7,3.1s13.7,10.1,13.7,13.5s-0.9,12.2-4.6,12.2s-4.7-1.3-7.2-1.7s-5.2,2.1-5.9,3
		c-1.4,2-0.7,5.2-0.7,5.2s4.5-3.7,4.2-1.3c-2.8,1.1-2.3,5.1-2.3,5.1s2.6-1.4,4.9-1.7c-1.3,2.3-0.4,4.6-0.4,4.6s2.8-2.3,4.6-2.4
		c2-0.1,3.2,0.6,3.2,0.6s7.1-3.2,7.4-4.3s3.4-8.6,5.7-11.2c2.3-2.5,6.9-6.5,6.9-6.5v-3.7l2.8-1.4c0,0-13.5-5.2-16-18.7"/>
	<g>
		<path class="st12" d="M139.3,53.2"/>
	</g>
	<g>
		<path class="st1" d="M139.2,55c-9.3,5.5-15.2,16.8-13.6,26.7c0.4,2.2,1.1,6.4,4.4,9.1c1.4,1.1,3.4,2.1,17.3,2.4
			c7.8,0.2,9.8,0,13.3,1.3c4,1.5,10.6,30.3,14.3,29.6c10.2-2,3.6-22.4,8.4-27.6c4.5-4.9,1.4-13.4,0.9-14.7
			c-2.1-5.7-5.1-6.2-12.2-14.2c-8.7-9.9-7.7-13.2-12.9-15.6C150.6,48.2,140.6,54.2,139.2,55z"/>
		<g>
			<path class="st12" d="M171.5,85.6c0,0,3.1,15.4-2.6,18.9c-4.2,2.6-3.8-1-3.8-1s1-1.9,2-0.4c1.3,0.9,1.1-4.9-1.8-7.8"/>
			<path class="st13" d="M171.5,85.6c1.4,5.6,3.3,16.4-2.8,19.9c-1.1,0.6-2.9,1.2-3.8-0.1c-0.5-0.8-0.6-1.5-0.4-2.3
				c0.7-1.3,2.3-1.9,3.2-0.5c-0.1-0.1-0.1-0.2-0.3-0.2c-0.1,0-0.2,0.1-0.2,0.1c0.5-1.7-0.1-3.8-0.7-5.5c-0.3-0.7-0.7-1.3-1.1-1.9
				c2.1,1.8,3.3,4.6,3.1,7.4c-0.1,0.4-0.3,1.1-1,1.2c-0.3,0-0.6-0.1-0.8-0.3c-0.1-0.1-0.2-0.3-0.4-0.2c-0.2,0.1-0.4,0.4-0.5,0.6
				c0,0,0.1-0.3,0.1-0.3c0,0.7,0.1,1.3,1,1.1C173.4,103.1,171.9,90.9,171.5,85.6L171.5,85.6z"/>
		</g>
		<g>
			<path class="st12" d="M175.9,92.2c0,0,3.1,15.4-2.6,18.9c-4.2,2.6-3.8-1-3.8-1s1-1.9,2-0.4c1.3,0.9,1.1-4.9-1.8-7.8"/>
			<path class="st13" d="M175.9,92.2c1.4,5.6,3.3,16.4-2.8,19.9c-1.1,0.6-2.9,1.2-3.8-0.1c-0.5-0.8-0.6-1.5-0.4-2.3
				c0.7-1.3,2.3-1.9,3.2-0.5c-0.1-0.1-0.1-0.2-0.3-0.2c-0.1,0-0.2,0.1-0.2,0.1c0.5-1.7-0.1-3.8-0.7-5.5c-0.3-0.7-0.7-1.3-1.1-1.9
				c2.1,1.8,3.3,4.6,3.1,7.4c-0.1,0.4-0.3,1.1-1,1.2c-0.3,0-0.6-0.1-0.8-0.3c-0.1-0.1-0.2-0.3-0.4-0.2c-0.2,0.1-0.4,0.4-0.5,0.6
				c0,0,0.1-0.3,0.1-0.3c0,0.7,0.1,1.3,1,1.1C177.8,109.6,176.2,97.5,175.9,92.2L175.9,92.2z"/>
		</g>
	</g>
	<path class="st14" d="M180.1,172.3l-2.8,1.4v3.7c0,0-4.6,4-6.9,6.5c-2.3,2.6-5.4,10.1-5.7,11.2c-0.3,1.1-7.4,4.3-7.4,4.3
		s-1.2-0.7-3.2-0.6c-1.8,0.1-4.5,2.4-4.5,2.4s-0.9-2.3,0.4-4.6c0,0,4-3.2,6.7-1.7c2.7,1.5,5.2-2.8,5.2-2.8s2.2-11.3,6.1-12.2
		c3.8-0.9,4.9-3.9,4.9-3.9s-5.1-6.8-6.2-13.1l5.6-11.3c-0.9,4,0.2,12.1,2.4,16.2C177.1,172.6,180.1,172.3,180.1,172.3z"/>
	<path class="st14" d="M205.1,165.9l-2.8,1.4v3.7c0,0-4.6,4-6.9,6.5c-2.3,2.6-5.4,10.1-5.7,11.2c-0.3,1.1-7.4,4.3-7.4,4.3
		s-1.2-0.7-3.2-0.6c-1.8,0.1-4.5,2.4-4.5,2.4s-0.9-2.3,0.4-4.6c0,0,4-3.2,6.7-1.7c2.7,1.5,5.2-2.8,5.2-2.8s2.2-11.3,6.1-12.2
		c3.8-0.9,4.9-3.9,4.9-3.9s-17.5-20-18.6-26.3l9.6-1.3c-0.5,9.5,2.9,12.4,8.2,18.8C201.3,164,205.1,165.9,205.1,165.9z"/>
	<path class="st14" d="M174.8,118.1c-0.4,0.8-1,1.7-1.8,2.5c-1.7,2-3,2-5.1,0c-0.7-0.6-1.6-2.3-2.6-3.2c-0.1-0.1-0.2-0.2-0.3-0.2
		c0,0-0.1-0.1-0.1-0.1c-0.1-0.1-0.1-0.1-0.2-0.2V99.4l0.4-2.2c0,1.7,5,13.9,8.8,19.9C174,117.3,174.3,117.7,174.8,118.1z"/>
	<path class="st11" d="M218.6,140.9l2.5-1.3c0,0,0,5.7-5.4,10.8c-2.8,2.7-9.3,4.1-16.9,1.7c-7.7-2.4-14.1-8.2-14.1-8.2
		c-3.3-2.2-5.3,0-5.8,1.5c-0.7,1.8-3.8,2.1-5.6,3.9l0,0v0c-0.2,0.2-0.4,0.4-0.5,0.7c-0.2,0.4-0.4,0.9-0.6,1.6l-5.6,11.3
		c1.1,6.3,6.2,13.1,6.2,13.1s-1.1,3-4.9,3.9c-3.8,0.9-6.1,12.2-6.1,12.2s-2.6,4.2-5.2,2.8c-2.7-1.5-6.7,1.7-6.7,1.7
		c-2.3,0.3-4.9,1.7-4.9,1.7s-0.5-4,2.3-5.1c0.3-2.4-4.2,1.3-4.2,1.3s-0.7-3.2,0.7-5.2c0.7-0.9,3.4-3.4,5.9-3c1.8,0.3,2.8,1,4.6,1.4
		c0.7,0.2,1.6,0.3,2.6,0.3c3.7,0,4.6-8.8,4.6-12.2c0-0.5-0.2-1.1-0.5-1.7c-1.7-3.1-7.1-6.5-8-7.2c-1.1-0.9-0.7-3.1-0.7-3.1l0-0.1
		l7.2-37.7l0-0.2l5-26.4v17.5c0.1,0,0.1,0.1,0.2,0.2c0,0,0.1,0,0.1,0.1c0.1,0.1,0.2,0.1,0.3,0.2c1,0.9,1.9,2.6,2.6,3.2
		c2.1,2,3.4,2,5.1,0c0.8-0.8,1.3-1.7,1.8-2.5c1.2,1.2,3.4,3.1,5.6,5c3.1,2.6,6,5,6,5l3.1,4.1c0,0,4,6.6,12.2,10.8
		c8.3,4.2,11.5-3.8,11.4-9.3c-0.1-6-7.2-18.5-10.5-26.1c-3-7-5.3-14.4-6-19.7c-0.9-9-0.9-6.5-0.4-15.4c0.4-8.1-1.6-13.6-1.7-13.9
		c1.7,0.8,3.7,2,5.6,3.6c0.6,4.7,1.3,10.6,0.8,12.7c1.8-0.7,4.5-0.4,10,3.6c0.2,1.9,0,3.7-0.7,5.5c0,0-3.8-5.3-6.7-4.1
		c-2,0.8-2.1,1.7-2.1,6.5c0,4.8,2.1,11.8,6.9,21.1c4.5,8.6,8.8,19.3,8.8,19.3l3-2.3c0,0,0.8,3.7,1.1,7.5
		C221.4,135.7,218.8,140.6,218.6,140.9z"/>
	<g>
		<path class="st14" d="M183.5,113.1c5.1,5.8,20.9,25.3,20.9,25.3s-8.3,1.7-13.6-2.7c-3.8-3.1-15.8-16.3-15.8-16.3"/>
		<path class="st14" d="M180.1,95.8c0,0,6.7,13.8,11.8,19.5c5.1,5.8,20.9,25.3,20.9,25.3s-8.3,1.7-13.6-2.7
			c-3.8-3.1-23.3-22.8-23.3-22.8l-0.2-11.7L180.1,95.8z"/>
		<path class="st14" d="M172.4,79.8c0,0,25.1,32.2,30.2,38c5.1,5.8,20.9,25.3,20.9,25.3s-8.3,1.7-13.6-2.7c-3.8-3.1-30.1-32-30.1-32
			l-11.6-16.1L172.4,79.8z"/>
	</g>
	<path class="st11" d="M185.5,105.6c-0.3,6.6-1.4,12.1-5.1,17.5c-0.5,0.8-1.1,1.5-1.8,2.3c-3.2,3.9-6,4.9-8,9.6
		c-2.3,5.3-1.5,6.2-2.3,8.3c-0.7,1.9-4.6,3.2-5.2,3.4h0c0,0-0.1,0-0.1,0l0.7-2.3l1-3l0.6-9.9c0,0,0-0.1,0-0.4c0-0.5,0.4-0.3,1.8-1
		c0.7-0.3,1-0.9,1.1-1.5c0.3-1.3-0.4-2.7-1.5-3.4c-0.3-0.2-0.6-0.4-0.9-0.6c-0.2-0.1-0.5-0.3-0.8-0.5c0,0-0.1,0-0.1-0.1l-0.2-0.2
		c-0.1-0.1-0.2-0.3-0.3-0.4v-6.6c0.1,0.1,0.2,0.1,0.3,0.2c0.1,0,0.1,0.1,0.2,0.2c0,0,0.1,0,0.1,0.1c0.1,0.1,0.2,0.1,0.3,0.2
		c1,0.9,1.9,2.6,2.6,3.2c2.1,2,3.4,2,5.1,0c0.8-0.8,1.3-1.7,1.8-2.5c0.9-1.6,1.2-3.3,1.2-4.9c0-7.2-6.4-14.1-7.4-18.1
		c-0.4-1.5-0.6-3.1-0.6-4.7c0-0.9,0.1-1.7,0.2-2.5c0-0.1,0-0.2,0-0.3c0.3-1.7,1-3.2,2-4c0.3-0.3,0.7-0.5,1.1-0.6
		c0.1,0,0.3-0.1,0.5-0.1c0.4-0.1,0.6-0.2,1.1-0.1c0.1,0,0.2,0,0.3,0c0,0,0.1,0,0.1,0c1,0.1,2.2,0.5,3.5,1.3c0.5,0.3,1.1,0.7,1.7,1.1
		c2.2,2,2.8,3.5,3.7,4.9C183.7,92.3,185.9,98.1,185.5,105.6z"/>
	<g>
		<g>
			<path class="st12" d="M125,70.5c0,0-5.6,14.7-0.6,19.1c3.7,3.3,4-0.4,4-0.4s-0.6-2-1.9-0.8c-1.4,0.7-0.3-5,3.1-7.4"/>
			<path class="st13" d="M125,70.5c-1.2,5.2-4.7,16.9,1.5,19.6c0.8,0.3,1-0.3,1.1-1c0,0,0,0.3,0,0.3c-0.1-0.2-0.3-0.7-0.5-0.7
				c-0.1,0-0.2,0.1-0.3,0.2c-0.2,0.2-0.5,0.3-0.8,0.2c-0.6-0.1-0.8-0.9-0.8-1.3c0.2-2.7,1.9-5.4,4.3-6.8c-0.6,0.5-1,1.1-1.4,1.7
				c-0.9,1.5-1.8,3.5-1.6,5.3c0,0-0.1-0.1-0.2-0.1c-0.2,0-0.1,0-0.3,0.1c1.2-1.3,2.6-0.4,3.1,1c0.1,0.8-0.2,1.5-0.8,2.2
				c-1.1,1.1-2.8,0.2-3.8-0.6C119,86.2,122.7,75.8,125,70.5L125,70.5z"/>
		</g>
		<g>
			<path class="st12" d="M133.2,70.6c0,0-5.6,14.7-0.6,19.1c3.7,3.3,4-0.4,4-0.4s-0.6-2-1.9-0.8c-1.4,0.7,1.2-7.9,4.5-10.3"/>
			<path class="st13" d="M133.2,70.6c-1.2,5.2-4.7,16.9,1.5,19.6c0.8,0.3,1-0.3,1.1-1c0,0,0,0.3,0,0.3c-0.1-0.2-0.3-0.7-0.5-0.7
				c-0.1,0-0.2,0.1-0.4,0.2c-0.3,0.3-1.1,0.2-1.3-0.3c-0.3-0.6-0.1-1-0.1-1.5c0.9-3.4,2.5-7,5.5-9c-1.5,1.3-2.3,3.2-3.1,5
				c-0.6,1.5-1.3,3.4-1.2,4.9c0-0.1-0.4-0.3-0.5-0.2c0,0-0.2,0.1-0.2,0.1c1.2-1.3,2.9-0.2,3.1,1.3c-0.3,2.8-2.8,3-4.6,1.3
				C127.2,86.3,130.9,75.9,133.2,70.6L133.2,70.6z"/>
		</g>
		<g>
			<path class="st12" d="M142,66.8c0,0-6.5,18.4-1.5,22.8c3.7,3.3,4-0.4,4-0.4s-0.6-2-1.9-0.8c-1.4,0.7,0.5-12.6,6.6-14.2"/>
			<path class="st13" d="M142,66.8c-1.1,4.8-6.2,22.5,1.3,23.4c0.2-0.1,0.4-0.6,0.5-1l0,0.3c-0.1-0.2-0.3-0.6-0.4-0.7
				c-0.1-0.1-0.2,0.1-0.4,0.2c-2.3,1.1-1.3-3.5-1.1-4.5c1-3.9,2.9-8.9,7.2-10.1c-4.5,1.6-6.6,9.7-6.3,13.7c-0.2-0.2-0.5-0.2-0.7,0
				c1.2-1.3,2.6-0.4,3.1,1c0.1,0.9-0.3,1.8-1.1,2.4c-1.5,0.8-3-0.4-4.1-1.3C135.3,85.1,139.8,72.4,142,66.8L142,66.8z"/>
		</g>
		<g>
			<path class="st12" d="M150.7,70c0,0-3.1,15.4,2.6,18.9c4.2,2.6,3.8-1,3.8-1s-1-1.9-2-0.4c-1.3,0.9-1.1-4.9,1.8-7.8"/>
			<path class="st13" d="M150.7,70c-0.3,5.3-1.9,17.4,4.7,19.1c0.9,0.2,0.9-0.4,1-1.1c0,0,0.1,0.3,0.1,0.3c-0.1-0.2-0.4-0.7-0.6-0.6
				c-0.1,0-0.2,0.1-0.3,0.3c-0.4,0.5-1.2,0.4-1.5,0c-0.2-0.3-0.3-0.6-0.3-0.8c-0.2-2.7,1-5.6,3.1-7.4c-0.5,0.6-0.8,1.2-1.1,1.9
				c-0.6,1.7-1.2,3.8-0.7,5.5c0,0-0.1-0.1-0.2-0.1c-0.2,0-0.1,0-0.3,0.2c0.9-1.4,2.5-0.8,3.2,0.5c0.2,0.8,0.1,1.5-0.4,2.3
				c-0.9,1.2-2.8,0.7-3.8,0.1C147.4,86.4,149.3,75.6,150.7,70L150.7,70z"/>
		</g>
		<g>
			<path class="st12" d="M129.6,61.6c0,0-10.2,8.9-8.2,15.3c1.5,4.7,3.6,1.7,3.6,1.7s0.5-2.1-1.3-1.7c-1.6-0.2,5.4-4.8,9.5-5.1"/>
			<path class="st13" d="M129.6,61.6c-3.5,4.1-10.4,11.5-6.5,16.9c0.3,0.2,0.4,0.3,0.6,0.2c0.2,0,0.6-0.3,0.8-0.6l-0.1,0.2
				c0-0.2,0.1-0.8-0.1-0.9c-0.4-0.1-0.6,0.2-1.1-0.2c-1.1-1.1,1.1-2.2,1.9-2.8c2.5-1.4,5.3-2.7,8.2-2.8c-3.3,0.8-6.6,2.6-9.1,5
				c0,0-0.1,0.2,0,0c0,0,0-0.1,0-0.2c0-0.1-0.3-0.3-0.3-0.3c0,0-0.2,0-0.2,0c0.6-0.2,1.6,0,1.9,0.6c0.3,0.7,0.4,1.4,0.1,2
				c-0.5,0.8-1.6,1.5-2.7,1.2c-0.9-0.3-1.5-1.3-1.8-2C118.5,71.7,125.1,65.2,129.6,61.6L129.6,61.6z"/>
		</g>
		<g>
			<path class="st12" d="M131.8,60.9c0,0-8,15.1-3.2,20.9C132.1,86,133,82,133,82s-0.4-2.4-2-1.2c-1.7,0.5,1.7-14.3,10.1-12.5"/>
			<path class="st13" d="M131.8,60.9c-2.1,5.6-7.5,17.8-1,21.9c0.9,0.5,1.3-0.2,1.5-0.9c0,0,0,0.3,0,0.3c-0.1-0.3-0.2-0.9-0.5-1
				c-0.1,0-0.3,0.1-0.4,0.2c-0.6,0.4-1.3-0.2-1.4-0.7c-0.2-5.4,4.8-14.1,11.1-12.3c-6-1-9.9,7-9.9,12c0,0,0,0.1,0,0
				c0-0.1-0.3-0.2-0.4-0.1l-0.2,0.1c1-0.8,2.3-0.5,2.8,0.7c0.6,1.1,0.1,2.3-0.9,3.1c-1.4,1-3.1-0.2-4-1.2
				C123.3,77.2,128.6,66.5,131.8,60.9L131.8,60.9z"/>
		</g>
		<g>
			<path class="st12" d="M148.7,64.4c0,0-7.1,12.8-2.3,18.5c3.5,4.2,4.4,0.3,4.4,0.3s-0.4-2.4-2-1.2c-1.7,0.5,0.5-5.6,4.7-7.7"/>
			<path class="st13" d="M148.7,64.4c-2.2,5.5-6.3,15.7,0.1,19.7c0.8,0.3,1.1-0.4,1.3-1c0,0,0,0.3,0,0.3c-0.1-0.3-0.2-0.9-0.5-1
				c-0.1,0-0.3,0.1-0.4,0.2c-0.5,0.3-1.3,0-1.5-0.5c-0.2-0.9,0.1-1.5,0.4-2.3c1.1-2.4,3-4.5,5.4-5.4c-0.7,0.5-1.3,1-1.9,1.6
				c-1.3,1.6-2.7,3.6-2.7,5.6c0,0,0-0.1-0.1-0.1c-0.1,0-0.1,0-0.3,0.1c1.5-1.1,2.9,0,3.1,1.6c0,0.8-0.4,1.4-1,2
				c-1.2,1.1-2.9,0.2-3.8-0.7C141.2,79,145.4,69.9,148.7,64.4L148.7,64.4z"/>
		</g>
		<g>
			<path class="st12" d="M138.7,60.9c0,0-7.5,15.3-2.7,21.1c3.5,4.2,4.4,0.3,4.4,0.3s-0.4-2.4-2-1.2c-1.7,0.5,0.5-5.6,4.7-7.7"/>
			<path class="st13" d="M138.7,60.9c-2,5.7-6.9,18.1-0.5,22.1c0.9,0.5,1.3-0.2,1.5-0.9c0,0,0,0.3,0,0.3c-0.1-0.3-0.2-0.9-0.5-1
				c-0.1,0-0.3,0.1-0.4,0.2c-0.5,0.3-1.3,0-1.5-0.5c-0.2-0.9,0.1-1.5,0.4-2.3c1.1-2.4,3-4.5,5.4-5.4c-0.7,0.5-1.3,1-1.9,1.6
				c-1.3,1.6-2.7,3.6-2.7,5.6c0,0,0-0.1-0.1-0.1c-0.1,0-0.1,0-0.3,0.1c1.5-1.1,2.9,0,3.1,1.6c-0.1,0.8-0.5,1.6-1.2,2.2
				c-1.4,1-3.1-0.2-4-1.2C130.8,77.5,135.7,66.6,138.7,60.9L138.7,60.9z"/>
		</g>
		<g>
			<path class="st12" d="M170.8,72.3c0,0,5.2,15.2,0,21.8c-3.8,4.8-5.1,0.1-5.1,0.1s0.3-2.8,2.3-1.3c2,0.7-2.1-9.4-7-12"/>
			<path class="st13" d="M170.8,72.3c2.4,6.5,4.8,15.6,0.8,21.9c-1,1.4-2.4,3.1-4.4,2.7c-1.3-0.3-2.1-1.6-2.2-2.8
				c0.2-1.9,1.7-3.1,3.4-1.8c0,0-0.2-0.1-0.2-0.1c-0.1,0-0.3,0.1-0.3,0.2c-0.1-1.9-1.2-4.1-2.2-5.9c-1.2-2.1-2.6-4.2-4.7-5.6
				c3.4,1.7,5.6,5.2,7.3,8.5c0.4,1,1.7,3.6,0.1,4.1c-0.5,0.1-0.9-0.3-1.3-0.4c-0.4-0.1-0.6,0.8-0.6,1.1c0,0,0-0.3,0-0.3
				c0.9,2.9,2.8,1,4-0.6C174.1,87.5,172.1,78.8,170.8,72.3L170.8,72.3z"/>
		</g>
		<g>
			<path class="st12" d="M175.8,70.1c0,0,11.8,10.4,10.7,18.3c-0.9,5.8-4.3,2.4-4.3,2.4s-1.1-2.5,1.3-2.1c2-0.4-6.4-6.9-11.8-6.8"/>
			<path class="st13" d="M175.8,70.1c5.2,4.3,11.7,10.7,11.4,18c-0.2,1.7-0.5,3.9-2.4,4.4c-1.2,0.3-2.5-0.4-3.2-1.4
				c-0.8-1.7-0.1-3.5,2-3.1c0,0-0.2,0-0.2,0c-0.1,0-0.3,0.3-0.2,0.3c-1-1.5-3.1-2.9-4.7-4c-2.1-1.2-4.3-2.3-6.7-2.6
				c3.7-0.1,7.3,1.7,10.3,3.8c0.9,0.8,2.2,1.5,2.4,2.8c0,0.5-0.5,1-1,0.9c-0.3,0-0.7-0.1-0.8,0.1c-0.1,0.2,0.1,0.8,0.2,1.1
				c0,0-0.1-0.2-0.1-0.2c2.1,2,2.8-0.3,3.1-2.4C186,81.2,180,74.8,175.8,70.1L175.8,70.1z"/>
		</g>
		<g>
			<path class="st12" d="M165.1,68.5c0,0,13.9,11.3,11.3,19.3c-2,5.8-4.8,1.8-4.8,1.8s-0.7-2.7,1.7-2c2.1,0-3.7-11.9-12.4-5.6"/>
			<path class="st13" d="M165.1,68.5c5.3,4.1,13.4,11.4,12.1,18.8c-0.5,1.7-1.2,3.8-3.2,4.3c-1.3,0.2-2.6-0.8-3.2-1.9
				c-0.3-1.1,0-2.9,1.5-2.9c0.4,0,0.8,0.1,1.1,0.2c-0.1,0-0.2-0.1-0.4,0c-0.1,0.1-0.1,0.1-0.1,0.1c0-1-0.6-2.1-1.2-3
				c-2.5-3.9-7.2-4.8-11-2.1c3.7-3.3,9-2.5,11.9,1.5c0.7,1,1.3,2,1.6,3.2c0.1,0.4,0,1-0.4,1.3c-0.5,0.4-1,0.1-1.4,0.2
				c-0.4,0.1-0.3,0.9-0.2,1.3c0,0-0.1-0.2-0.1-0.2c1.9,2.5,3.1-0.2,3.6-2.1C176.9,80.4,169.4,73,165.1,68.5L165.1,68.5z"/>
		</g>
		<g>
			<path class="st12" d="M155.8,69.7c0,0,0.3,14.6,7.3,17.2c5.2,1.9,4-2,4-2s-1.5-1.9-2.3,0c-1.2,1.3-2-6,2.2-8.6"/>
			<path class="st13" d="M155.8,69.7c0.9,5.9,2.4,16.8,10,16.9c0.8-0.1,0.8-0.9,0.6-1.6c0,0,0.1,0.2,0.1,0.2
				c-0.2-0.2-0.6-0.7-0.9-0.6c-0.1,0.1-0.2,0.2-0.3,0.4c-0.3,0.6-1.3,0.7-1.6,0.1c-0.2-0.3-0.3-0.6-0.4-0.8
				c-0.5-3.1,0.8-6.7,3.6-8.2c-2.3,1.8-3.3,5.5-2.3,8.2c0,0,0-0.1-0.2-0.1c-0.2,0-0.2,0.1-0.2,0l-0.1,0.2c0.2-0.7,1-1.4,1.8-1.2
				c0.8,0.1,1.2,0.5,1.7,1c0.4,0.7,0.4,1.4,0.1,2.3c-0.8,2.2-3.7,1.4-5.3,0.7C156.5,84.3,155.7,75.7,155.8,69.7L155.8,69.7z"/>
		</g>
		<g>
			<path class="st12" d="M136,53.9c0,0-11.8,5.9-10.9,12.5c0.6,4.9,3.2,2.3,3.2,2.3s0.9-2-1-1.9c-1.5-0.4,9-6.9,14-3.6"/>
			<path class="st13" d="M136,53.9c-4.3,3-12.6,8.4-9.5,14.5c0.4,0.6,0.9,0.2,1.4-0.2c0,0-0.2,0.2-0.2,0.2c0.1-0.2,0.3-0.7,0.1-0.9
				c-0.1,0-0.2-0.1-0.4-0.1c-0.4,0-0.8-0.4-0.8-0.8c0.1-0.9,0.9-1.2,1.5-1.7c2.9-1.8,6.2-2.9,9.5-2.9c1.3,0,2.7,0.3,3.8,1.1
				c-2.4-1.2-5.1-0.6-7.5,0.2c-2.1,0.8-4.4,1.8-6,3.4c0,0,0,0.1,0-0.1c0-0.1-0.2-0.5-0.3-0.5c0,0-0.2,0-0.2,0c1.2-0.2,2.1,0.8,1.9,2
				c-0.1,0.4-0.1,0.8-0.4,1c-0.9,1-2.7,1.3-3.6,0C121.4,62,130.3,56.3,136,53.9L136,53.9z"/>
		</g>
		<g>
			<path class="st12" d="M143,54.9c0,0-11.8,5.8-11,13.3c0.6,5.5,3.6,2.7,3.6,2.7s1-2.2-1-2.1c-1.7-0.5,3.5-4.4,8.1-3.8"/>
			<path class="st13" d="M143,54.9c-4.9,3.3-12.8,9-9.5,15.6c0.5,0.6,1.1,0.1,1.6-0.2c0,0-0.2,0.2-0.2,0.2c0.1-0.3,0.4-0.9,0.1-1.1
				c-0.1,0-0.3-0.1-0.5-0.1c-0.6,0-1.1-0.7-0.9-1.2c0.3-0.9,0.9-1.2,1.6-1.7c2.2-1.4,4.9-2.1,7.5-1.5c-0.8,0-1.7,0.1-2.5,0.3
				c-1.9,0.6-4.2,1.5-5.3,3.2c0,0,0-0.1,0-0.2c-0.1-0.1-0.1-0.1-0.1-0.1l-0.2,0c2-0.2,2.5,1.9,1.5,3.3c-0.5,0.4-1,0.7-1.7,0.9
				c-2.2,0.4-3-2.5-3.1-4C131,61.6,137.7,57.4,143,54.9L143,54.9z"/>
		</g>
		<g>
			<path class="st12" d="M147.9,59.5c0,0-10.5,8.7-8.3,15.8c1.7,5.2,4,1.9,4,1.9s0.6-2.3-1.4-1.9c-1.8-0.2,2.6-5,7.2-5.4"/>
			<path class="st13" d="M147.9,59.5c-4,4.4-10.9,11.9-6.4,17.8c0.6,0.5,1.2,0,1.6-0.5c0,0-0.1,0.2-0.1,0.2c0.1-0.3,0.1-0.8,0-1
				c-0.1-0.2-0.3-0.1-0.6-0.1c-0.3,0.1-0.6-0.1-0.9-0.3c-0.5-0.5-0.3-1.2,0-1.6c1.8-2.5,4.9-4.1,7.9-4.1c-0.8,0.2-1.6,0.4-2.4,0.8
				c-1.8,1-3.8,2.3-4.6,4.2c0,0,0-0.1-0.1-0.2c-0.1-0.1-0.1-0.1-0.3,0c1.8-0.5,2.6,1.1,2.3,2.6c-0.3,0.7-0.9,1.1-1.6,1.5
				c-2.2,0.8-3.5-2-3.8-3.5C137.4,68.8,143.2,63.1,147.9,59.5L147.9,59.5z"/>
		</g>
		<g>
			<path class="st12" d="M150.9,63.2c0,0-0.4,13.6,6.5,16.6c5,2.2,4.1-1.8,4.1-1.8s-1.4-1.9-2.3-0.2c-1.3,1.2-2.4-10,2.4-12.5"/>
			<path class="st13" d="M150.9,63.2c0.6,5.9,1.8,16,9.2,16.5c0.8-0.1,0.7-0.9,0.6-1.5c0,0,0.1,0.2,0.1,0.2
				c-0.1-0.1-0.2-0.3-0.4-0.4c-0.4-0.3-0.6-0.3-0.8,0.2c-0.2,0.3-0.4,0.4-0.8,0.4c-0.6,0-0.8-0.5-1-0.9c-0.3-0.9-0.4-1.9-0.4-2.8
				c0-3.4,0.7-7.9,4-9.5c-3.3,2.1-3.7,8.8-2.4,12c0,0-0.1-0.1-0.2-0.1c-0.2,0-0.2,0.1-0.2,0.1l-0.1,0.2c0.1-0.3,0.3-0.6,0.6-0.8
				c1-0.8,2.2,0,2.9,0.8c0.4,1,0.3,2.4-0.7,3.1c-1.4,1-3.2,0.2-4.4-0.4C151,77.2,150.5,69.1,150.9,63.2L150.9,63.2z"/>
		</g>
		<g>
			<path class="st12" d="M157.2,67.4c0,0,9.2,15.4,22.1,11.4c4.4-1.4,1.8-3.2,1.8-3.2s-1.9-0.4-1.6,1.2
				c-4.4,2.3-15.3-11.1-13.6-15.2"/>
			<path class="st13" d="M157.2,67.4c4.5,6,11.2,12,19.1,11.3c1.5-0.2,3.8-0.5,4.8-1.7c0.1-0.3-0.2-0.6-0.4-0.8c0,0,0.3,0.1,0.3,0.1
				c-0.1,0-0.3,0-0.4,0c-0.3,0-0.5,0-0.4,0.4c0,0.3-0.1,0.6-0.3,0.7c-1.1,0.6-2.3,0.3-3.2-0.1c-4.3-1.7-12-11-10.6-15.7
				c-1.3,4.1,9,16.4,13.3,14.7c0,0-0.3,0.7-0.3,0.7c0-0.3-0.1-0.6,0-0.9c0.3-1,1.7-1.3,2.6-0.9c0.8,0.5,1.4,1.6,0.9,2.6
				c-1.3,2-3.9,2.1-6,2.5C168,80.8,161.1,74.2,157.2,67.4L157.2,67.4z"/>
		</g>
		<g>
			<path class="st12" d="M145.5,49.6c0,0-10.8,1.1-12.1,8.5c-0.9,5.5,2.8,3.6,2.8,3.6s1.6-1.8-0.4-2.3c-1.5-1,4.8-3.3,9.2-1.5"/>
			<path class="st13" d="M145.5,49.6c-4.9,1.2-10.9,3.7-11.5,9.3c0,1-0.2,2.4,0.8,2.4c0.3,0,0.7-0.1,1-0.2l-0.2,0.2
				c0.2-0.2,0.5-0.6,0.5-0.9c0-0.2-0.4-0.3-0.6-0.4c-0.3-0.1-0.5-0.3-0.6-0.6c-0.3-0.7,0.4-1.2,0.8-1.5c2.8-1.4,6.4-1.4,9.2,0
				c-2.5-0.7-5.1-0.4-7.5,0.5c-0.4,0.2-1,0.4-1.3,0.8c0,0,0-0.1,0-0.2c0-0.1,0-0.1-0.1-0.1c0,0,0,0,0,0l-0.2-0.1
				c0.3,0.1,0.6,0.2,0.9,0.4c0.7,0.4,0.7,1.6,0.4,2.2c-0.4,1.1-1.3,1.3-2.4,1.4c-2.2,0.1-2.6-2.6-2.3-4
				C133.2,52.5,140,49.7,145.5,49.6L145.5,49.6z"/>
		</g>
		<g>
			<path class="st12" d="M149.2,53c0,0-9.8,3.8-9,11.3c0.6,5.5,3.6,2.7,3.6,2.7s1-2.2-1-2.1c-1.7-0.5,3.5-4.4,8.1-3.8"/>
			<path class="st13" d="M149.2,53c-4.3,2.4-9.1,6.4-8.1,11.8c0.3,1.5,0.8,2.8,2.3,1.6c0,0-0.2,0.2-0.2,0.2c0.1-0.1,0.1-0.4,0.2-0.5
				c0.1-0.5,0-0.6-0.5-0.6c-0.3,0-0.6-0.2-0.8-0.4c-0.4-0.6,0-1.3,0.3-1.6c2.2-2.1,5.6-3,8.6-2.4c-1.7,0-3.3,0.5-4.8,1.2
				c-1.1,0.6-2.4,1.3-3,2.3c0,0,0-0.1,0-0.2c-0.1-0.1-0.1-0.1-0.3-0.1c1.8-0.1,2.4,1.6,1.7,3c-0.4,0.6-1,0.8-1.6,1.1
				c-2.7,0.7-3.4-2.8-3.3-4.7C139.4,58.3,144.5,54.5,149.2,53L149.2,53z"/>
		</g>
		<g>
			<path class="st12" d="M150.2,58.5c0,0-6.7,8.1-2.4,14.2c3.2,4.5,4.4,0.6,4.4,0.6s-0.2-2.4-1.9-1.4c-1.7,0.4,1-5.6,5.3-7.3"/>
			<path class="st13" d="M150.2,58.5c-2.6,4.2-4.9,10-1.4,14.3c1,1.2,2,2.1,2.7,0.3c0,0,0,0.3,0,0.3c0-0.3-0.1-1-0.5-1
				c-0.1,0-0.4,0.2-0.6,0.2c-1.1,0.2-1.5-0.8-1.2-1.6c0.9-2.9,3.5-5.4,6.3-6.3c-2.2,1.2-3.8,3.2-4.8,5.4c-0.2,0.4-0.4,1-0.3,1.4
				c0,0,0-0.1-0.1-0.2c-0.1,0-0.1,0-0.3,0c1.1-0.7,2.4-0.3,2.7,0.9c0.1,0.4,0.3,0.8,0.2,1.2c-0.4,1.1-1.4,2.3-2.7,2
				c-1.6-0.4-2.2-1.4-3-2.4C143.9,68.4,146.6,62.2,150.2,58.5L150.2,58.5z"/>
		</g>
		<g>
			<path class="st12" d="M155.5,56.9c0,0-4.8,5.5-2.1,10.6c1.9,3.8,3.3,1,3.3,1s0.1-1.8-1.3-1.2c-1.4,0.1,2.1-4.8,5.6-5.7"/>
			<path class="st13" d="M155.5,56.9c-2.1,3.4-3.7,8.9-0.2,11.9c0.3,0.1,0.6-0.3,0.8-0.6c0,0-0.1,0.3-0.1,0.3c0-0.1,0-0.3,0-0.4
				c0-0.1-0.1-0.2-0.1-0.2c0,0,0,0,0,0c0,0-0.2,0-0.3,0c-0.7,0.2-1.3-0.4-1.2-1c0.1-0.7,0.5-1.2,0.9-1.7c1.4-1.7,3.3-3.2,5.6-3.5
				c-2.3,1-4.4,3.1-5.3,5.4c0,0,0,0-0.1-0.2c-0.3-0.2-0.3-0.1-0.5-0.1c0.5-0.3,1.4-0.3,1.8,0.3c0.4,0.6,0.5,1.2,0.4,1.8
				c-2.6,4.3-5.7-1.8-5.4-4.5C152,61.4,153.5,58.8,155.5,56.9L155.5,56.9z"/>
		</g>
		<g>
			<path class="st12" d="M159,64.2c0,0-2,7,2.5,10.6c3.4,2.6,3.4-0.5,3.4-0.5s-0.7-1.7-1.7-0.6c-1.2,0.7-0.2-5.3,2.7-7.5"/>
			<path class="st13" d="M159,64.2c-0.5,4,0.4,9.7,4.8,10.9c0.3,0,0.4-0.6,0.4-0.8c0,0,0,0.3,0,0.3c0-0.1-0.1-0.3-0.2-0.4
				c-0.1-0.1-0.1-0.2-0.2-0.2c0,0,0,0,0,0c-0.1,0-0.3,0.2-0.3,0.2c-1,0.6-1.6-0.4-1.5-1.2c0.3-2.6,1.6-5.3,3.7-6.8
				c-1.6,1.9-2.7,4.6-2.5,7.1c0,0,0-0.1-0.1-0.1c-0.3-0.1-0.3,0-0.5,0.1c0.7-0.9,1.9-0.8,2.5,0.1c0.6,0.7,0.5,1.5,0.1,2.2
				c-0.8,1.6-2.8,1-3.7,0.2C157.9,73.3,157.3,68,159,64.2L159,64.2z"/>
		</g>
		<g>
			<path class="st12" d="M153.4,49.2c0,0-8.5-4-12.8,1c-3.2,3.7,0.4,4,0.4,4s2-0.7,0.7-2c-0.7-1.4,5-0.4,7.5,3"/>
			<path class="st13" d="M153.4,49.2c-4.5-1.5-11.7-1.9-13.4,3.6c0,0.4,0.7,0.6,1.1,0.7c0,0-0.3,0-0.3,0c0.2-0.1,0.7-0.3,0.7-0.5
				c0-0.1-0.2-0.3-0.3-0.4c-0.5-0.9,0.3-1.6,1.2-1.6c2.7,0.2,5.4,1.8,6.8,4.2c-1-1.1-2.3-1.9-3.7-2.4c-1-0.3-2.3-0.8-3.3-0.5
				c0,0,0.1-0.1,0.1-0.2c0-0.2,0-0.1-0.1-0.3c1.3,1.2,0.3,2.9-1.2,3.1c-0.5,0-1-0.2-1.5-0.5c-1.9-1.2-0.5-3.6,0.5-4.7
				C143.4,45.9,149.4,46.8,153.4,49.2L153.4,49.2z"/>
		</g>
	</g>
	<path class="st11" d="M157.5,59.3c-13.1-0.9-4.5-12.6-10.1-13c4.8,0.3,8.3,0,11.2,1.1c-1.1-0.6-10.9-3-9.8-4.1
		c4.6-4.5,8.2-2.7,8.4-2.6c2.9,1,5.9,2.4,6.7,2.8c1,0.5,7.1,2.5,7.5,2.7s8.1,3,9.2,3.8c1,0.8,0.1,2.3,0.5,2.5
		c0.3,0.2,4.3,2.4,6.2,3.6c0.3,0.2,0.6,0.5,0.8,0.8c-0.5,0.1-1,0.3-1.4,0.5c-0.8,0.3-2,0.8-2,1.5s1.2,1.3,2.7,1.9
		c0,0.5,0.4,0.7,0.8,0.8c0,0.1-0.1,0.3-0.1,0.4c-0.6,1.8-2.2,2.6-2.8,2.8c-0.6,0.2-3.8-1.8-6.6-2.2s-3.4,1.2-3.8,2.2
		c-0.4,1,2.6,3,3,3.2s4.7,1.7,5.4,1.9c0.6,0.2-2,3.2-2,3.2s-1.6,0.9-4,0.5c-5-0.7-6.7-2.9-6.7-2.9s-2.4-2.4-4.3-3.3
		c-0.7-0.3-3.8-0.4-4.7-0.7c-1.4-0.4-2.6-0.3-4.1-3.1C158.3,63,161.3,58.7,157.5,59.3"/>
	<path class="st11" d="M188.2,61.6c-0.4-0.2-0.8-0.4-1.3-0.6c-1.5-0.7-2.7-1.2-2.7-1.9s1.2-1.2,2-1.5c0.5-0.2,1.5-0.6,1.9-0.7
		C189.2,58.2,188.6,60.2,188.2,61.6z"/>
	<circle class="st14" cx="204.3" cy="71.2" r="5.4"/>
	<g>
		<g>
			<path class="st13" d="M180.8,53.4c-2.3,0.1-4.7,0-7-0.1l-3.2-0.5l0.1-1c1.7,0.5,3.1,1.6,4.1,2.9c1,1.1,2.5,1.9,4.1,2.4
				c-1.6-0.3-3.2-0.8-4.5-2c-1.1-1.1-2.4-2-3.9-2.3c-0.6-0.1-0.5-1.1,0.1-1l3.2,0.2c1.9-0.1,4.7-0.2,6.8-0.1c0.4,0,0.7,0.4,0.7,0.8
				C181.5,53.1,181.1,53.4,180.8,53.4L180.8,53.4z"/>
		</g>
		<path class="st4" d="M176,53c0.4,0.7,0.7,1,1.6,1.4c0.1,0,1,0,1,0s-0.6-1.5-0.9-1.6S176,53,176,53L176,53z"/>
	</g>
	<g id="Eagle">
		<g>
			<path class="st14" d="M82.8,160.3c0,0-3,8.6-7.2,19.2c-3.3,8.3-4.1,10-4.4,12.2c-0.4,2.3,2.7,7.8,2.7,7.8s4.8-4.9,5.3-7.1
				c0.5-2.3,8.1-27.6,8.1-27.6"/>
			<path class="st14" d="M88.9,160.1c0,0-2.6,6.8-5.2,17.7c-2.2,9.6-3.1,11.7-3.4,14.1c-0.3,2.5,2.6,7.5,2.6,7.5s4.3-4.5,4.7-7
				s5.8-24.7,5.8-24.7"/>
			<path class="st14" d="M94.5,164c0,0-1.8,6-3.6,15.7c-1.8,9.7-2.4,13.7-1.5,15.9c1,2.2,2.8,3.8,2.8,3.8s3.3-5.1,3.7-7.6
				s1.6-24.8,1.6-24.8"/>
			<path class="st14" d="M103.3,166.3c0,0,2.3,20.5,1.6,23.7c-0.7,2.9-2.1,10.5-5,6.4c-1.6-2.2-2.8-5.3-3.1-7.9
				c-0.4-2.6,0.7-20.9,0.7-21.5"/>
			<path class="st14" d="M79.7,154.3c0,0-4.3,7.5-9.8,18.6c-4.3,8.8-5.4,10.6-6,12.9c-0.6,2.5,2.2,8.8,2.2,8.8s5.7-4.9,6.5-7.3
				c0.8-2.5,10.1-27.1,10.1-27.1"/>
			<path class="st14" d="M78.8,144.7c0,0-5.1,6.9-11.8,17.4c-5.3,8.3-6.6,9.9-7.4,12.2c-0.9,2.4,1.2,9,1.2,9s6.2-4.2,7.3-6.5
				c1.1-2.4,13.1-25.7,13.1-25.7"/>
			<path class="st14" d="M93.2,121.1c0,0-4.6,6.2-10.6,15.6c-4.8,7.4-5.9,8.9-6.7,10.9c-0.8,2.2,1.1,8.1,1.1,8.1s5.6-3.8,6.5-5.9
				c1-2.1,11.8-23.1,11.8-23.1"/>
			<path class="st14" d="M88.3,138.1c0,0,1.7-5.8-3.8,5.3c-4.3,8.8-5.4,10.6-6,12.9c-0.6,2.5,2.2,8.8,2.2,8.8s5.7-4.9,6.5-7.3
				c0.8-2.5,7-17.3,7-17.3"/>
			<path class="st14" d="M94.3,143.2c0,0,1.8-5.1-3.7,6.1c-4.3,8.8-5.4,10.6-6,12.9c-0.6,2.5,2.2,8.8,2.2,8.8s5.7-4.9,6.5-7.3
				c0.8-2.5,7.4-16,7.4-16"/>
			<path class="st14" d="M98.8,151.6c0,0,4.7-10.9-0.8,0.3c-4.3,8.8-5.4,10.6-6,12.9c-0.6,2.5,2.2,8.8,2.2,8.8s5.7-4.9,6.5-7.3
				c0.8-2.5,1.1-8.7,1.1-8.7"/>
			<path class="st14" d="M103.8,153.7c0,0,3.7-11.2-0.8,0.4c-3.5,9.2-4.4,11-4.8,13.4c-0.4,2.5,3,8.5,3,8.5s5.2-5.4,5.8-7.9
				s0.3-8.8,0.3-8.8"/>
		</g>
		<path class="st15" d="M120.9,85.1l-3.8-11.2c-0.4-1.2-0.9-2.5-1.5-4.2c-0.1-0.3-0.2-0.5-0.3-0.8c-3.9-10.5-12.6-16.1-12.6-16.1"/>
		<g>
			<path class="st14" d="M61.2,107.8c0,0-2.7,0.8-1.4,9.4c0.9,6.1,9.5,16.3,3.6,28c-2.9,5.8-8.2-12.1-8.2-12.1l-2.9-9l-0.8-14.4
				l3-4.1L61.2,107.8z"/>
			<path class="st14" d="M65.5,94.3c0,0-2.7,0.8-1.4,9.4c0.9,6.1,9.5,16.3,3.6,28c-2.9,5.8-8.2-12.1-8.2-12.1l-2.9-9l-0.8-14.4
				l3-4.1L65.5,94.3z"/>
			<path class="st14" d="M56.4,121.7c0,0-2.7,0.8-1.4,9.4c0.9,6.1,9.5,16.3,3.6,28c-2.9,5.8-8.2-12.1-8.2-12.1l-2.9-9l-0.8-14.4
				l3-4.1L56.4,121.7z"/>
			<path class="st14" d="M51.1,134c0,0-1.9,3.1-0.6,11.6c0.9,6.1,9.5,16.3,3.6,28c-2.9,5.8-8.2-12.1-8.2-12.1l-2.9-9l-0.8-14.4
				l3-4.1H51.1z"/>
			<path class="st14" d="M60.7,80.4c0,0,1.6-2,1.2,6.6c-0.4,8.4,6.9,19,1.1,30.7c-2.9,5.8-8.2-12.1-8.2-12.1l-2.9-9l-0.8-14.4l3-4.1
				L60.7,80.4z"/>
			<path class="st14" d="M54.3,90.7c0,0-2.7,0.8-1.4,9.4c0.9,6.1,9.5,16.3,3.6,28c-2.9,5.8-8.2-12.1-8.2-12.1l-2.9-9l-0.8-14.4
				l3-4.1L54.3,90.7z"/>
			<path class="st14" d="M50.6,106.5c0,0-2.7,0.8-1.4,9.4c0.9,6.1,7,11.7,1.2,23.4c-2.9,5.8-5.8-7.5-5.8-7.5l-2.9-9L41,108.4l3-4.1
				L50.6,106.5z"/>
			<path class="st14" d="M43.7,111.1c0,0-2.7,0.8-1.4,9.4c0.9,6.1,9.5,16.3,3.6,28c-2.9,5.8-8.2-12.1-8.2-12.1l-2.9-9L34.1,113
				l3-4.1L43.7,111.1z"/>
			<path class="st14" d="M72.7,82.1c0,0-1.7-0.9-7.4,5.6c-4.8,5.4,0.2,14-11.4,20.8c-1.6,1-0.5-5.9-0.5-5.9
				c0.5-5.9,7.2-18.9,10.2-23.8l4.7-2L72.7,82.1z"/>
			<path class="st14" d="M72,74.4c0,0-0.4,0.5-0.4,2.7c-5.7,5.7,3.8,15.4-7.9,22.3c-1.6,1-0.5-5.9-0.5-5.9
				c1.6-9.6-3.4-17.5-0.4-22.4l4.7-2L72,74.4z"/>
			<path class="st14" d="M65.5,78.9c0,0-6,6.6-9.3,14.5c-2.3,5.7-0.5,14.1-11.8,20.9c-2.4,1.1-0.7-7.6-0.7-7.6
				c0.9-14.2,9.6-26.3,12.6-31.2l4.7-2L65.5,78.9z"/>
			<path class="st14" d="M54.4,85.1c0,0-2.7-0.7-6,7.3c-2.3,5.7-0.3,18.8-11.4,25.8c-5.5,3.5-0.8-14.6-0.8-14.6l2.2-9.2l6.8-12.7
				l4.7-2L54.4,85.1z"/>
			<path class="st14" d="M51.1,76.1c-2.3,3.3-3.6,8.2-2,9.3s5.6-1.8,7.9-5.2c2.3-3.3,2.9-7,1.2-8.1C56.7,71,53.5,72.8,51.1,76.1z"/>
			<path class="st14" d="M57.8,77.9c-2.3,3.3-3.9,8.2-2.2,9.3c1.6,1.1,5.9-1.9,8.2-5.2c2.3-3.3,2.9-7,1.2-8.1
				C63.4,72.8,60.2,74.6,57.8,77.9z"/>
			<path class="st14" d="M56.4,70.5c-2.3,3.3-4.2,7.8-2.5,9c1.6,1.1,6.2-1.5,8.5-4.9c2.3-3.3,2.9-7,1.2-8.1S58.7,67.2,56.4,70.5z"/>
			<path class="st14" d="M63.5,80.6c-2.3,3.3-4.2,9-2.6,10.2c1.6,1.1,6.2-2.7,8.5-6.1c2.3-3.3,2.9-7,1.2-8.1
				C69,75.4,65.8,77.2,63.5,80.6z"/>
			<path class="st14" d="M62.6,71.1c-2.3,3.3-4.2,8.3-2.6,9.4c1.6,1.1,6.2-1.9,8.5-5.3c2.3-3.3,2.9-7,1.2-8.1
				C68.1,66,64.9,67.8,62.6,71.1z"/>
			<path class="st14" d="M67,74.7c-2.3,3.3-4.2,9.1-2.6,10.2c1.6,1.1,6.2-2.8,8.5-6.1c2.3-3.3,2.9-7,1.2-8.1
				C72.5,69.6,69.3,71.3,67,74.7z"/>
		</g>
		<path class="st11" d="M62.8,63.4c-14,4.2-19.5,11.7-23.5,17.9c-10.7,15.1-8.8,47.9-2,65c3.4,8.5,9,15.6,10.8,23.5
			c1.1,4.8,0.3,13.9,0.3,13.9s3.3-3.3,3.1-9.5c-0.3-9.9-4.7-18.2-7.2-23.6c-2.5-5.4-6.2-13.3-7.2-26.2c-2.3-20.2,1.3-37.5,16-48.6
			c8.7-5.5,13.4-5.4,14.9-4.6c3.9,2.1,3.9,5.9,2.9,8.7c-0.5,1.4-0.7,2.8-0.8,4v0.4c1.3-0.8,2.5-1.2,3.5-1.3c0,0,0.1,0,0.1,0
			c-0.1-0.1-0.2-0.1-0.2-0.2c-1.4-1.5,2.1-4.3,2.5-9.9C76.4,67,73.9,60.1,62.8,63.4z M78.8,87.8"/>
		<path class="st11" d="M70.2,52.6c1.4-0.2,9.8,2.5,12.5,3.4c-2.7-0.6-10.9-2.3-12.4-2c-0.2,0-0.4,0.2-0.4,0.4
			C69.8,53.6,69.7,52.7,70.2,52.6z"/>
		<path class="st11" d="M84.3,60.9c-0.1-0.2-0.2-0.4-0.3-0.5c0-0.7-0.1-1.3-0.2-1.9c-0.1-1-0.2-1.9-0.3-2.2
			C83.8,56.7,86.7,60.4,84.3,60.9z"/>
		<g id="Scales">
			<g>
				<path class="st12" d="M85.1,86.5c0,0-1.3,1.4-3.1,2.6c-0.9,0.6-2,1.2-3,1.6c-1.6,0.5-3.2,0.5-4.4-0.7c-1.2-1.3,0.2-3.8,2.1-6.2
					c2.2-2.7,5-5.1,5-5.1l3,6.7L85.1,86.5z"/>
				<g>
					<path class="st13" d="M85.1,86.5c-2.5,2.9-7.2,7.1-11,4c-0.6-0.6-0.8-1.6-0.6-2.3c0.7-3.1,3-5.4,5.1-7.6
						c0.9-0.8,1.7-1.7,2.7-2.4c0.2-0.2,0.6-0.2,0.8,0.1C83.2,80.9,84.2,83.8,85.1,86.5L85.1,86.5z M85.1,86.5c-1.4-2.4-2.7-5-4-7.6
						c0,0,0.9,0.2,0.9,0.2c-1.8,1.9-8.2,7.8-6.9,10.4C78,92,82.5,88.4,85.1,86.5L85.1,86.5z"/>
				</g>
			</g>
			<g>
				<path class="st12" d="M110.9,77.4c0,0,3.5,12.3,7.2,11.2c7.6,4.1-2-16.2-2-16.2"/>
				<path class="st13" d="M110.9,77.4c1.2,2.3,4.3,10.8,7,10.5c0.2-0.1,0.4,0,0.6,0.1c0.4,0.2,1.2,0.6,1.6,0.4
					c0.1,0,0.2-0.3,0.2-0.6c0.2-2-0.5-3.9-1-5.9c-0.9-3.2-2.1-6.3-3.2-9.5c2.5,4.4,4.8,9,5.7,14.1c0.4,2.9-1.4,4.3-4,2.8
					c0,0,0.6,0.1,0.6,0.1C113.8,90.2,111.5,80.7,110.9,77.4L110.9,77.4z"/>
			</g>
			<g>
				<path class="st12" d="M81.7,76.6c0,0-0.9,12.7,2.9,13c5.2-0.1,5-9.9,5-9.9"/>
				<path class="st13" d="M81.7,76.6C82,79.4,82,88,84.6,88.9c3.8-0.3,4.4-6.1,5-9.1c0.5,3.8,0,10.2-5,10.6
					C80,89.8,81.1,79.9,81.7,76.6L81.7,76.6z"/>
			</g>
			<g>
				<path class="st12" d="M90.5,77.1c0,0-0.9,12.7,2.9,13c5.2-0.1,5-9.9,5-9.9"/>
				<path class="st13" d="M90.5,77.1c0.3,2.8,0.3,11.4,2.9,12.2c3.8-0.3,4.4-6.1,5-9.1c0.5,3.8,0,10.2-5,10.6
					C88.9,90.3,89.9,80.4,90.5,77.1L90.5,77.1z"/>
			</g>
			<g>
				<path class="st12" d="M97.8,78.2c0,0,3.5,12.3,7.2,11.2c5.2-2,1.3-11,1.3-11"/>
				<path class="st13" d="M97.8,78.2c1.3,2.5,4.2,10.6,6.9,10.5c3.8-1.7,2.2-7.1,1.6-10.3c2.1,3.4,3.7,9.7-1.1,11.7
					C100.8,91.1,98.4,81.5,97.8,78.2L97.8,78.2z"/>
			</g>
			<g>
				<path class="st12" d="M106.3,77.4c0,0,3.5,12.3,7.2,11.2c4.8-1.9,1.3-11,1.3-11"/>
				<path class="st13" d="M106.3,77.4c1.3,2.5,4.2,10.6,6.9,10.5c3.5-1.6,2-7.2,1.6-10.3c1.8,3.4,3.5,9.6-1,11.7
					C109.3,90.3,106.9,80.7,106.3,77.4L106.3,77.4z"/>
			</g>
			<g>
				<path class="st12" d="M86.5,72.1c0,0-0.9,12.7,2.9,13c5.2-0.1,5-9.9,5-9.9"/>
				<path class="st13" d="M86.5,72.1c0.3,2.8,0.3,11.4,2.9,12.2c3.8-0.3,4.4-6.1,5-9.1c0.5,3.8,0,10.2-5,10.6
					C84.8,85.2,85.9,75.4,86.5,72.1L86.5,72.1z"/>
			</g>
			<g>
				<path class="st12" d="M92.6,73.5c0,0,3.8,11.4,7.2,11.3c4.5-0.9,1.3-13,1.3-13"/>
				<path class="st13" d="M92.6,73.5c1.6,3.1,3,6.2,5,9c0.5,0.7,1.3,1.6,2.1,1.6c0,0-0.1,0-0.1,0c3.2-0.9,1.6-9.6,1.4-12.3
					c1.3,3.4,3.8,12.4-1.2,13.7C95.8,85.5,93.3,76.8,92.6,73.5L92.6,73.5z"/>
			</g>
			<g>
				<path class="st12" d="M100.3,71c0,0,4.3,12.2,7.7,11.9c3.8-0.7,0.9-11.9,0.9-11.9"/>
				<path class="st13" d="M100.3,71c1.7,3.2,3.2,6.6,5.4,9.4c0.5,0.7,1.7,1.8,2.2,1.8c2.5-0.9,1.1-8.8,1-11.2
					c1.2,3,3.7,11.4-0.7,12.7C104,83.8,101.1,74.4,100.3,71L100.3,71z"/>
			</g>
			<g>
				<path class="st12" d="M106.1,68.7c0,0,5.4,11.7,8.8,11.2c3.7-1.1-0.3-12-0.3-12"/>
				<path class="st13" d="M106.1,68.7c2,3.1,3.8,6.2,6.2,8.9c0.5,0.7,1.9,1.7,2.3,1.5c2.4-1.2,0.2-8.9-0.1-11.3
					c1.5,2.8,4.7,11,0.5,12.7C111,81,107.3,72,106.1,68.7L106.1,68.7z"/>
			</g>
			<g>
				<path class="st12" d="M82.5,72.2c0,0-5.4,10.4-2.5,12.6c3.5,1.6,6-6.6,6-6.6"/>
				<path class="st13" d="M82.5,72.2c-0.7,2.6-3.9,9.9-2.1,12c0.9,0.3,2.2-0.6,3-1.8c0.9-1.3,1.7-2.7,2.6-4.2
					c-0.2,1.7-0.7,3.3-1.6,4.8c-0.7,1.2-1.7,2.5-3.2,2.7c-0.6,0.1-1.2,0-1.6-0.2c-0.7-0.4-1.1-1.3-1.2-2
					C78.2,79.4,80.4,75.5,82.5,72.2L82.5,72.2z"/>
			</g>
			<g>
				<path class="st12" d="M88.8,69.8c0,0,2.3,10,5.7,9.6c3.9-0.5,0.9-11,0.9-11"/>
				<path class="st13" d="M88.8,69.8c1,2.1,3.2,8.9,5.6,8.9c2.4-0.8,1-8.1,0.9-10.3c1.2,2.8,3.6,10.5-0.6,11.7
					C90.6,80.5,89.1,72.9,88.8,69.8L88.8,69.8z"/>
			</g>
			<g>
				<path class="st12" d="M83.1,65.8c0,0-1.9,12.8,1.2,14.1c3.7,1.1,5.1-7.4,5.1-7.4"/>
				<path class="st13" d="M83.1,65.8c0,2.9-0.9,19.5,4.4,11.2c0.8-1.4,1.4-2.9,2-4.5c0,1.7-0.3,3.4-0.9,5c-0.6,1.8-2.4,3.9-4.5,3.1
					C80.4,78.5,82.3,69.2,83.1,65.8L83.1,65.8z"/>
			</g>
			<g>
				<path class="st12" d="M95.3,68.4c0,0,3.3,9.6,6.6,9c3.8-0.7,0.6-10.6,0.6-10.6"/>
				<path class="st13" d="M95.3,68.4c1,1.6,4.8,10.2,7.1,7.8c0.7-1,0.6-2.4,0.6-3.7c-0.1-1.9-0.4-3.8-0.6-5.7
					c0.9,1.8,1.5,3.6,1.8,5.6c0.2,1.5,0.4,3.3-0.6,4.7C99.3,81.3,95.8,71.5,95.3,68.4L95.3,68.4z"/>
			</g>
			<g>
				<path class="st12" d="M102.1,66.9c0,0,4.2,8.6,7.4,7.7c3.7-1.1-1-10.5-1-10.5"/>
				<path class="st13" d="M102.1,66.9c1.2,1.5,6,9.2,7.9,6.3c0.8-3-0.8-6.2-1.5-9.2c1.8,2.7,3.9,6.4,2.9,9.8
					c-0.5,1.2-2.1,1.9-3.3,1.4C104.8,73.7,103.3,70.1,102.1,66.9L102.1,66.9z"/>
			</g>
			<g>
				<path class="st12" d="M106.8,62.8c0,0,5.5,9.7,8.5,8.2c1.8-0.9-7.4-13-7.4-13"/>
				<path class="st13" d="M106.8,62.8c2.2,2.6,4.1,5.5,6.9,7.3c0.5,0.3,0.9,0.4,1.2,0.2c0,0,0,0,0,0c0,0-0.1,0-0.1,0.1
					c-0.1,0.1-0.1,0.2-0.1,0.1c-0.5-2.3-2.1-4.4-3.3-6.5c-1.2-2-2.4-3.9-3.6-6c3.2,3.5,6.3,7,8.1,11.4c0.3,0.9,0.4,2.1-0.9,2.4
					C111.4,72.4,108,65.7,106.8,62.8L106.8,62.8z"/>
			</g>
			<g>
				<path class="st12" d="M102,61.1c0,0,4,6.9,7,5.4c3.5-1.7-1.3-8.9-1.3-8.9"/>
				<path class="st13" d="M102,61.1c1.5,1.5,4.7,5.8,6.8,4.6c1-0.5,0.9-2.1,0.5-3.6c-0.4-1.5-1-3-1.6-4.5c1.1,1.2,2.1,2.6,2.7,4.1
					c1.1,2.2,0.7,5.7-2.4,5.7C104.9,67,103.1,63.7,102,61.1L102,61.1z"/>
			</g>
			<g>
				<path class="st12" d="M96.4,63.5c0,0,3.3,7.2,6.4,6c3.6-1.4-0.4-9-0.4-9"/>
				<path class="st13" d="M96.4,63.5c1.4,1.6,4.1,6.2,6.3,5.2c1-0.4,1.1-2.1,0.8-3.5c-0.2-1.5-0.7-3.1-1.2-4.6
					c1,1.3,1.8,2.8,2.3,4.4c0.9,2.3,0.2,5.7-2.9,5.4C98.6,69.6,97.2,66.2,96.4,63.5L96.4,63.5z"/>
			</g>
			<g>
				<path class="st12" d="M90.4,65.2c0,0,2.4,7.6,5.7,6.7c3.8-0.9,0.6-8.9,0.6-8.9"/>
				<path class="st13" d="M90.4,65.2c1.1,1.8,3.3,6.6,5.6,6c1.1-0.3,1.3-1.9,1.3-3.4c-0.1-1.5-0.3-3.1-0.6-4.7
					c0.8,1.4,1.5,3,1.7,4.6c0.6,2.4-0.5,5.7-3.5,5C92,71.5,90.9,67.9,90.4,65.2L90.4,65.2z"/>
			</g>
			<g>
				<path class="st12" d="M90.8,65.1c0,0,1.5,8.5-2.3,8.6c-3.4,0.2-4.3-7.7-4.3-7.7"/>
				<path class="st13" d="M90.8,65.1c0.8,2.7,1.6,6.4-0.6,8.7c-2.4,2-4.8-0.5-5.4-2.8c-0.5-1.6-0.7-3.3-0.6-4.9c0.8,2,2,7.1,4.4,6.9
					C91,72.5,90.6,67.3,90.8,65.1L90.8,65.1z"/>
			</g>
		</g>
		<path class="st11" d="M84,146.9C84,146.9,84,146.9,84,146.9L84,146.9c-0.7-0.2-4.6-1.5-5.3-3.4c-0.8-2.1,0-3-2.3-8.3
			c-2-4.7-4.8-5.7-8-9.6c-5.1-6.1-6.6-12.2-6.9-19.8c-0.4-7.5,1.8-13.3,3.2-15.5c0.9-1.4,1.5-2.9,3.7-4.9c0.6-0.4,1.2-0.8,1.7-1.1
			c1.3-0.8,2.5-1.2,3.5-1.3c0,0,0.1,0,0.1,0c0.1,0,0.2,0,0.3,0c0.5-0.1,0.7,0,1.1,0.1c0.2,0,0.3,0.1,0.5,0.1
			c0.4,0.1,0.8,0.3,1.1,0.6c1.1,0.8,1.7,2.3,2,4c0,0.1,0,0.2,0,0.3c0.2,0.8,0.2,1.7,0.2,2.5c0,1.5-0.2,3.1-0.6,4.7
			c-1,4-7.4,10.9-7.4,18.1c0,2.5,0.8,5,3,7.4c1.7,2,3,2,5.1,0c0.7-0.6,1.6-2.3,2.6-3.2c0.1-0.1,0.2-0.1,0.3-0.2c0,0,0.1-0.1,0.1-0.1
			c0.2-0.2,0.4-0.3,0.5-0.4v6.6c-0.1,0.2-0.3,0.4-0.5,0.6c0,0-0.1,0-0.1,0.1c-0.3,0.2-0.6,0.4-0.8,0.5c-0.3,0.2-0.6,0.4-0.9,0.6
			c-1.1,0.7-1.8,2.1-1.5,3.4c0.1,0.6,0.4,1.2,1.1,1.5c1.4,0.7,1.8,0.5,1.8,1c0,0.3,0,0.4,0,0.4l0.6,9.9l1,3L84,146.9z"/>
		<g>
			<path class="st14" d="M83.3,144.5l-1-3l-0.6-9.9c0,0,0-0.1,0-0.4c0-0.5-0.4-0.3-1.8-1c-0.7-0.3-1-0.9-1.1-1.5
				c-0.3-1.3,0.4-2.7,1.5-3.4c0.3-0.2,0.6-0.4,0.9-0.6c0.2-0.1,0.5-0.3,0.8-0.5v10.3c0,2.7,0.3,5.4,0.8,8
				C82.9,143.2,83.1,143.9,83.3,144.5z"/>
			<path class="st14" d="M82,89.1v28.3c-0.1,0.1-0.2,0.1-0.3,0.2c-1,0.9-1.9,2.6-2.6,3.2c-2.1,2-3.4,2-5.1,0c-2.2-2.4-3-4.9-3-7.4
				c0-7.2,6.4-14.1,7.4-18.1c0.4-1.5,0.6-3.1,0.6-4.7C80,90.3,81.1,89.7,82,89.1z"/>
		</g>
		<g id="Head">
			<path class="st11" d="M84,60.4c-1.8-2.2-9.1-3.7-10.5-4.2L70,55.4c0-0.2-0.1-0.6-0.1-1c0.1-0.2,0.2-0.3,0.4-0.4
				c1.4-0.2,9.7,1.5,12.4,2c0.5,0.2,0.8,0.3,0.8,0.3s0,0,0,0c0,0,0,0,0,0c0.1,0.3,0.2,1.1,0.3,2.2C83.9,59.1,84,59.7,84,60.4z"/>
			<path class="st11" d="M87.2,67.5c-3.7,1-3.7-1.5-3.4-9c0-1-0.2-1.9-0.3-2.2c0,0,0,0,0,0c0-0.1,0-0.1,0-0.1s-0.3-0.1-0.8-0.2
				c-2.7-0.6-10.9-2.3-12.4-2c-0.2,0-0.4,0.2-0.4,0.4c-0.2,0.6,0,1.6,0,1.9c0,0.5,0.1,0.9,0.1,0.9s-1.4-1.1-1.9-2.5
				c-0.4-1.1,0-3.9,2.2-5.3c2.2-1.5,6.8-0.8,6-1.1c-0.3-0.1-0.6-0.5-0.6-0.8c0.2-1.9,1.6-2.8,3.2-3.2c1.9-0.4,6.7-0.6,11.1,0.4
				c5.5,1.1,14.8,6,14.8,6l-2.6,1.6c0,0,1.2,0.9,2.4,1.9c6,5.4,0.5,6.2-2.9,6c-0.4,1.7-1.6,2.7-3.8,3.9c-1.7,0.8-5.2,0.5-6.2,0
				C91.3,64.9,89.6,66.8,87.2,67.5z"/>
		</g>
		<g id="Eye">
			<g>
				<path class="st13" d="M83.8,52.2c-1.9,0.8-4.9,1.4-6-0.9c-0.5-0.8-0.6-3.4,0.9-3c0.4,0.2,0.6,0.7,0.3,1.1
					c-0.5,0.8-0.1,2.2,0.9,2.7C81,52.6,82.5,52.4,83.8,52.2L83.8,52.2z"/>
			</g>
			<ellipse class="st13" cx="82.2" cy="49.8" rx="2.1" ry="0.9"/>
			<g>
				<path class="st13" d="M75.9,47.7c0.7,0,1.1,0.1,1.6,0.2c3.2,0.9,6.4,1.3,9.7,1.5c-3.3,0.2-6.6,0.1-9.9-0.2c-0.4,0-1-0.1-1.2,0
					C75,49.3,74.8,47.7,75.9,47.7L75.9,47.7z"/>
			</g>
		</g>
		<path class="st16" d="M83.7,64.6c0,0-0.8,7.5-3.1,11.9s-5,6.7-5,6.7"/>
	</g>
	<g id="Shield">
		<g>
			<path class="st17" d="M136.9,149.6c-3.2,3.4-8.1,4.8-13,4.6c-0.4,0-0.8,0-1.2-0.1c-2.5-0.2-4.9-0.8-6.9-1.7c-3-1.3-5-3.1-7.4-5.6
				c-0.3-0.2-0.5-0.5-0.8-0.8c-4.2-4.3-3.8-5.8-3.7-6.2c0.3-0.8,1-1.3,2-1.9c0.3-0.2,0.6-0.3,0.9-0.5c1.3-0.7,2.3-1.2,3.6-1.2
				c2.1,0,2.4,1.5,4.3,1.4c1.7-0.1,1.9-1.3,3.7-1.3c1.8-0.1,2,1.1,3.9,1.1s2.1-1.2,3.9-1.2c2,0,2.5,1.4,4.5,1.6
				c1.7,0.1,2.1-1.3,4-1.5c0.2,0,2.3-0.1,3.9,1.3c0.3,0.3,0.5,0.6,0.7,0.9c0.6,0.9,0.8,1.9,0.8,2.5
				C140.8,145.3,137.3,149.1,136.9,149.6z"/>
			<path class="st17" d="M140.5,128.7v3.4c0,2.3-0.4,4.4-1.2,6.4c-0.2-0.3-0.4-0.6-0.7-0.9c-1.6-1.5-3.7-1.4-3.9-1.3
				c-1.8,0.2-2.2,1.6-4,1.5c-2-0.1-2.5-1.6-4.5-1.6c-1.8,0-2,1.2-3.9,1.2s-2.1-1.2-3.9-1.1c-1.8,0.1-1.9,1.3-3.7,1.3
				c-1.9,0.1-2.2-1.4-4.3-1.4c-1.3,0-2.3,0.5-3.6,1.2c-0.3,0.2-0.6,0.3-0.9,0.5c-0.6-1.8-1-3.8-1-5.8v-3.4L140.5,128.7L140.5,128.7z
				"/>
			<path class="st17" d="M106.9,142.8c0.9-0.6,2.1-1.3,3.6-1.2c1.9,0.1,2.5,1.5,4.3,1.4c1.7-0.1,1.9-1.3,3.7-1.3
				c1.8-0.1,2,1.1,3.9,1.1s2.1-1.2,3.9-1.2c2,0,2.5,1.4,4.5,1.6c1.7,0.1,2.1-1.3,4-1.5c1.6-0.2,3,0.6,3.9,1.3c0,0-3,10.6-16.3,11.4
				S106.9,142.8,106.9,142.8z"/>
		</g>
		<g>
			<path class="st14" d="M120.8,125.6l-3,0.7l-10.9,2.5l-1.9-0.1l-2.9-0.1l-0.5-0.8l-0.8-1.5c0,0,0.4-0.1,0.9-0.3
				c0.9-0.4,2.3-0.9,3.3-1.4c0.4-0.2,0.7-0.3,0.9-0.5c1-0.6,4.9-3,4.9-3s1.6,1.9,3.9,2.7c0.5,0.2,1,0.3,1.5,0.3
				C119.4,124.3,120.8,125.6,120.8,125.6z"/>
			<path class="st14" d="M141.3,128.8H95.8c-0.1,0-0.4,0-0.5,0c0.1,0,0.8-0.2,3.4-0.6c1-0.1,2-0.2,2.9-0.4c1.1-0.2,2.3-0.4,3.3-0.6
				c3.6-0.7,6.9-1.8,9.7-3.4c2.5-1.4,4.6-3.2,6.3-5.7c0.1-0.1,0.2-0.1,0.3-0.1l4.7-0.9c0.2,0,0.4,0,0.5,0.2c0.2,0.2,0.6,0.6,1,1.1
				c0.1,0.1,0.3,0.2,0.4,0.2h3.2c0.1,0,0.3,0,0.4,0.1c0.8,0.7,4.6,4.1,7.1,5.9c0.5,0.4,1.2,0.8,2,1.2c0.1,0.1,0.2,0.1,0.3,0.2
				c2.4,1.2,5.6,2.5,7.1,3l0,0C148.7,129.5,141.8,128.8,141.3,128.8z"/>
			<g>
				<path class="st18" d="M127.5,118.4c0.4,0.6,1.5,2.5,2.9,4.1s1.4,1.6,1.4,1.6"/>
				<path class="st13" d="M128.2,118c0.9,2.2,2.3,4.2,3.7,6.1c-1.8-1.6-3.5-3.3-5-5.4C126.9,118.7,128.2,118,128.2,118L128.2,118z"
					/>
			</g>
		</g>
		<g>
			<polygon class="st17" points="122.8,85.4 122.8,108.9 105,108.9 105,126 82,126 82,85.4 			"/>
			<path class="st17" d="M164.6,125.9v8.5c0,22.8-18.5,41.3-41.3,41.3c-0.2,0-0.4,0-0.6,0v-25.9c6.1,0,11.4-3,14.6-7.7
				c0.8-1.1,1.5-2.4,2-3.7c0.8-2,1.2-4.1,1.2-6.4v-6.2L164.6,125.9L164.6,125.9z"/>
			<path class="st19" d="M122.7,149.9v25.9c-18.2-0.3-33.6-12.3-38.8-28.9h0c-0.2-0.8-0.5-1.5-0.7-2.3c-0.2-0.7-0.3-1.4-0.5-2
				c-0.5-2.6-0.8-5.3-0.8-8V126h23v6.2c0,2,0.3,4,1,5.8c0.5,1.5,1.2,2.9,2.1,4.2C111.2,146.8,116.6,149.9,122.7,149.9z"/>
			<path class="st11" d="M140.5,108.8v17c-0.8-0.4-1.5-0.8-2-1.2c-2.4-1.8-6.2-5.2-7.1-5.9c-0.1-0.1-0.2-0.1-0.4-0.1h-3.2
				c-0.2,0-0.3-0.1-0.4-0.2c-0.4-0.5-0.8-0.8-1-1.1c-0.1-0.1-0.3-0.2-0.5-0.2l-4.7,0.9c-0.1,0-0.2,0-0.3,0.1
				c-1.7,2.4-3.8,4.3-6.3,5.7c-2.3-0.8-3.9-2.7-3.9-2.7s-3.9,2.3-4.9,3c-0.2,0.1-0.5,0.3-0.9,0.5v-15.8
				C104.9,108.8,140.5,108.8,140.5,108.8z"/>
			<polygon class="st19" points="164.7,85.4 164.7,126 140.5,126 140.5,108.8 122.7,108.8 122.7,85.4 			"/>
		</g>
	</g>
	<path class="st11" d="M157.5,59.3c-13.1-0.9-13.1-8.5-12.3-14.9c5.8,1.7,10.5,1.9,13.4,3"/>
</g>
<g id="Слой_2">
	
		<image style="overflow:visible;" width="736" height="736" xlink:href="620E326B.jpg"  transform="matrix(0.2636 0 0 0.2636 -238.4 -133.62)">
	</image>
</g>
</svg>
