<?xml version="1.0" encoding="utf-8"?>
<!-- Generator: Adobe Illustrator 28.0.0, SVG Export Plug-In . SVG Version: 6.00 Build 0)  -->
<svg version="1.1" id="Слой_1" xmlns="http://www.w3.org/2000/svg" xmlns:xlink="http://www.w3.org/1999/xlink" x="0px" y="0px"
	 viewBox="0 0 697.7435303 1000" enable-background="new 0 0 697.7435303 1000" xml:space="preserve">
<path fill="#4285F4" d="M450.4833374,434.091156l143.5795288-109.3746338l63.7501221-137.5557098
	C615.3674927,106.1384048,542.0737305,43.7524261,453.9486389,16.0822601l-132.4996338,89.4881821l-75.1707153,157.4421387
	c24.4320679-29.6022034,61.0794373-48.2386322,102.2729187-48.2386322c73.9772949,0,133.1256409,59.829422,133.1256409,133.1241302
	C481.6173401,380.6823425,469.8018494,410.9090881,450.4833374,434.091156z"/>
<path fill="#1A73E8" d="M348.5159912,0C241.1294708,0,145.9587402,48.2385445,81.6407166,124.7718506l61.250061,100.3403931
	l103.4093323,37.9544067c0.6249847-0.625,207.7279053-246.9303284,207.7279053-246.9303284
	C420.561676,5.7955408,385.1638794,0,348.5159912,0z"/>
<path fill="#FBBC04" d="M450.4858398,434.1030273c-24.4320679,28.9221802-60.7957153,47.6126709-101.9891968,47.6126709
	c-73.9772644,0-133.1251373-59.828949-133.1251373-133.1236877c0-31.5337524,12.8412933-63.0109558,30.8522186-85.5109863
	L93.6670151,372.1714172L34.6897697,515.1234741c36.6473656,79.7172852,97.1022797,144.0328979,159.4887543,224.4298096
	l163.5229797-130.109314L450.4858398,434.1030273z"/>
<path fill="#34A853" d="M697.7435303,348.5821228c0-58.5223999-14.7718506-113.1811829-39.8859253-161.4193268
	L194.1651459,739.543335c20.5684662,26.3640747,40.5114441,54.6627808,60.4549255,85.5109863
	C325.4152832,934.4294434,304.1652527,1000,349.2223511,1000c45.6820984,0,25.7386169-65.5705566,96.4772949-174.9456787
	C562.0638428,643.0700073,697.7435303,560.1135864,697.7435303,348.5821228z"/>
<path fill="#EA4335" d="M246.3070526,263.0210266L81.6476593,124.7832642C30.8524609,185.2372131,0,263.7025452,0,348.588562
	c0,65.5675659,12.8410358,118.9753113,34.7160568,166.5349121L246.3070526,263.0210266z"/>
</svg>
