<?xml version="1.0" encoding="UTF-8"?>
<svg id="SP_LLC_Opening" data-name="SP &amp;amp; LLC Opening" xmlns="http://www.w3.org/2000/svg" viewBox="0 0 380.44 288.44">
  <defs>
    <style>
      .cls-1 {
        fill: none;
        stroke: #00288a;
        stroke-linecap: round;
        stroke-linejoin: round;
        stroke-width: 2px;
      }
    </style>
  </defs>
  <path class="cls-1" d="M146.65,203.86c-2.83,7.07-19.38,14.36-22.42,12.13-3.04-2.23,1.52-9.14,5.45-10.72,7.07-2.83,21.22-1.73,8.49,9.04-12.73,10.77-16.98,19.26-4.24,7.94,12.73-11.32,12.73-12.73,12.73-12.73,0,0,0,3.94,4.24,1.97,4.24-1.97,5.66-4.8,5.66-4.8,0,0-9.9,0,0,2.83,5.44,1.55,5.66-2.83,5.66-2.83,0,0-1.41,2.83,2.83,1.41,4.24-1.41,4.24-4.24,4.24-4.24v11.32"/>
</svg>