<?xml version="1.0" encoding="utf-8"?>
<!-- Generator: Adobe Illustrator 28.1.0, SVG Export Plug-In . SVG Version: 6.00 Build 0)  -->
<svg version="1.1" xmlns="http://www.w3.org/2000/svg" xmlns:xlink="http://www.w3.org/1999/xlink" x="0px" y="0px"
	 viewBox="0 0 200 200" style="enable-background:new 0 0 200 200;" xml:space="preserve">
<style type="text/css">
	.st0{fill:#66ACFF;stroke:#00288A;stroke-linejoin:round;stroke-miterlimit:10;}
	.st1{fill:#9CDCFF;stroke:#00288A;stroke-linejoin:round;stroke-miterlimit:10;}
	.st2{fill:#FFFFFF;stroke:#00288A;stroke-linecap:round;stroke-linejoin:round;stroke-miterlimit:10;}
	.st3{fill:none;stroke:#00288A;stroke-linecap:round;stroke-linejoin:round;stroke-miterlimit:10;}
	.st4{fill:#00ABFF;stroke:#00288A;stroke-linejoin:round;stroke-miterlimit:10;}
	.st5{fill:#00ABFF;stroke:#00288A;stroke-miterlimit:10;}
	.st6{fill:#006DF0;stroke:#00288A;stroke-miterlimit:10;}
	.st7{fill:#D4DCFF;stroke:#00288A;stroke-miterlimit:10;}
	.st8{fill:#FFFFFF;stroke:#00288A;stroke-miterlimit:10;}
	.st9{fill:none;stroke:#00288A;stroke-linejoin:round;stroke-miterlimit:10;}
	.st10{fill:#C9DDFF;stroke:#00288A;stroke-miterlimit:10;}
	.st11{fill:none;stroke:#00288A;stroke-miterlimit:10;}
	.st12{fill:#00288A;}
</style>
<g id="docpile">
	<g>
		<polygon class="st0" points="145.5,131.5 80.5,110.5 80.5,62.5 145.5,83.5 		"/>
		<polygon class="st1" points="190.5,117.5 145.5,131.5 145.5,83.5 190.5,69.5 		"/>
		<polygon class="st2" points="126.5,48.5 80.5,62.5 145.5,83.5 190.5,69.5 		"/>
	</g>
	<g id="paperinfo_00000050622426486951671920000008964967433862240920_">
		<line class="st3" x1="144" y1="79.4" x2="178.5" y2="68.5"/>
		<line class="st3" x1="137.5" y1="76.2" x2="170.4" y2="65.7"/>
		<line class="st3" x1="106.5" y1="66.2" x2="140.5" y2="56.5"/>
		<line class="st3" x1="101.5" y1="65.2" x2="135.5" y2="55.5"/>
		<line class="st3" x1="97.5" y1="63.2" x2="131.5" y2="53.5"/>
		<line class="st3" x1="141" y1="77.8" x2="157.5" y2="72.5"/>
		<polygon class="st4" points="164.5,64.5 132.5,74.5 111.5,68.5 146.5,58.5 		"/>
	</g>
	<g id="paperfolds">
		<line class="st3" x1="80.5" y1="102.5" x2="94.5" y2="106.5"/>
		<line class="st3" x1="80.5" y1="107.5" x2="108.5" y2="116.5"/>
		<line class="st3" x1="80.5" y1="82.5" x2="100.5" y2="88.5"/>
		<line class="st3" x1="145.5" y1="92.5" x2="178.5" y2="82.5"/>
		<line class="st3" x1="145.5" y1="94.5" x2="111.5" y2="83.5"/>
		<line class="st3" x1="145.5" y1="107.5" x2="162.5" y2="102.5"/>
		<line class="st3" x1="145.5" y1="128.5" x2="178.5" y2="118.5"/>
		<line class="st3" x1="190.5" y1="109.5" x2="159.5" y2="119.5"/>
		<line class="st3" x1="145.5" y1="121.5" x2="116.5" y2="113.5"/>
		<line class="st3" x1="80.5" y1="65.5" x2="113.5" y2="76.5"/>
		<line class="st3" x1="190.5" y1="74.5" x2="164.5" y2="82.5"/>
		<line class="st3" x1="145.5" y1="110.5" x2="182.5" y2="99.5"/>
	</g>
</g>
<g id="document">
	
		<image style="display:none;overflow:visible;" width="970" height="786" xlink:href="../../../../../Работа/Сайты материалы/ArmbizConsulting/Complex animations/LLC &amp; IE Documents/1_Full-image.png"  transform="matrix(0.1913 -7.953645e-02 7.953645e-02 0.1913 -251.5598 84.813)">
	</image>
	<g id="base">
		<g id="Base">
			<path class="st5" d="M111.5,121.8c-7.8-6.7-9.6-14.4-9.6-14.4S89.4,62.5,87.4,57.7c-1.3-3.1-4.3-2.9-4.3-2.9L69.7,57l-1.2-4.6
				c0.8-0.1,1.2-0.2,1.2-0.2l15.2-2.9c0,0,3.9-1.3,6.1,4.5C92.7,58.5,106,103.7,111.5,121.8z"/>
			<path class="st6" d="M115.6,135.4c-0.7,1.9-2.8,3.9-7.7,4.8c-10,1.9-45.8,10.3-54.9,12.5c-1.6,0.4-3.4,0.2-4.9-0.5
				c-1.9-0.9-4.3-2.4-5.2-4.8c-1.3-3.8-18.5-63.1-22.8-78.1c-0.8-2.9,0-6.1,2.4-8c0.7-0.6,1.5-1,2.4-1.2c0.4-0.1,1.1-0.2,2.2-0.4
				c-1,0.2-5.3,1.4-4,6.5c1.4,5.8,22.9,80.1,22.9,80.1s1.6,5,8.8,2.9c8.7-2.2,14.2-3.6,14.2-3.6c0.6,0.4,1,0.7,1,0.7L115.6,135.4z"
				/>
			<path class="st5" d="M69.4,146.2c0,0-5.5,1.4-14.2,3.6c-2.8,0.8-4.8,0.4-6.3-0.5c0,0,0,0,0,0c-0.6-0.4-1.2-0.8-1.6-1.2
				c-0.3-0.3-0.6-0.7-0.9-1.1c0,0,0,0,0,0c-0.5-0.8-0.9-1.6-1.1-2.5c-2.7-9.1-21.4-73.3-22.7-78.7c-0.6-2.6,0.1-4.2,1.2-5.1
				c0,0,0,0,0,0c1-1,2.3-1.3,2.8-1.4c0.1,0,0.2,0,0.2,0l0.2,0l1-0.2l3.1-0.5l11.9-1.9l3-0.5l0,0.1l0.5,4.3h0l-0.1,0l-0.1,0
				c-0.3,0.1-0.9,0.2-1.7,0.3l-0.3,0c-2.5,0.5-6.7,1.2-10.4,1.8c-0.4,0.1-0.9,0.1-1.3,0.2h0c-0.8,0.1-1.5,0.2-2,0.3
				c-0.2,0-0.4,0.1-0.5,0.1c-1.7,0.5-1.7,1.1-1.9,1.5c-0.1,0.3,0,0.4,0,0.4c3.8,11.1,8.5,24.9,12.6,45.3c0.2,0.9,0.4,1.8,0.6,2.8
				c3.4,12.9,9.2,29.7,10.6,31.8c0.7,0.2,6.9-1.2,10.4-2.1c0.4-0.1,0.8-0.2,1.1-0.3c0.8-0.2,1.3-0.3,1.3-0.3s-0.8-0.9-0.5-0.6
				c0,0,1,1,1,1c0.7,0.5,1.8,1.2,2.7,1.9c0.4,0.3,0.8,0.7,1.1,0.9C69.2,145.9,69.3,146.1,69.4,146.2z"/>
		</g>
	</g>
	<path class="st7" d="M63.3,142.8c-0.3,0.1-0.7,0.2-1.1,0.3c-3.5,0.8-9.8,2.3-10.4,2.1c-1.4-2.1-7.1-18.8-10.6-31.8
		c-0.2-0.9-0.4-1.9-0.6-2.8c0.3,0.9,0.6,1.9,0.8,2.8c3.5,11.6,8.7,20.2,15.8,25.9c0,0,4.2,2.8,4.2,2.8c0,0,0,0,0,0
		C62.2,142.4,62.8,142.6,63.3,142.8z"/>
	<path class="st8" d="M126.6,132.1l-11.5,2.8l-45.5,11l0,0c-0.1-0.1-0.3-0.4-0.9-0.7c-0.3-0.1-0.5-0.2-0.8-0.3
		c-1.5-0.6-2.7-1.2-4.6-2c-0.5-0.2-1.1-0.5-1.8-0.7c0,0,0,0,0,0c0,0-4.2-2.8-4.2-2.8c-7.1-5.7-12.3-14.4-15.8-25.9
		c-0.3-0.9-0.5-1.8-0.8-2.8c-5.1-17-12.9-44.1-12.9-44.1s-0.2-0.5-0.2-1.2c0-0.1,0-0.3,0-0.4c0.1-0.5,0.3-1,0.9-1.3l1.4-0.2l0.8-0.1
		l2.1-0.3h0l1-0.2L44.2,61l0.3,0l2-0.3l0.1,0l0.1,0h0l23-3.9l1-0.2l0.6-0.1l12.8-2.2c0,0,2.9-0.7,4.3,3.6c0.1,0.3,0.2,0.8,0.4,1.3
		c2.4,8.1,10.8,40,10.8,40s1.1,3.6,3.1,8c0,0,0,0,0,0c2,4.5,4.9,10,8.4,13.6c0.3,0.3,0.6,0.6,0.8,0.8c0.1,0.1,0.3,0.3,0.5,0.4
		c0.9,0.8,2,1.6,3.1,2.4C125.9,131.4,126.6,132.1,126.6,132.1z"/>
	<path id="clip" class="st4" d="M72.9,59.5l-27,4c-0.1-1.6-0.7-6.5-2.1-7.2c-0.1-0.1-0.7,0-1.4,0c4.1-0.5,22.8-3.4,25.7-4
		c2.9-0.6,3.5,2.6,3.5,2.6C72.1,56.5,72.5,57.9,72.9,59.5z"/>
	<g id="Paperinfo">
		<g>
			
				<ellipse id="paperinfo" transform="matrix(0.943 -0.3329 0.3329 0.943 -23.1337 19.0163)" class="st9" cx="43.9" cy="77" rx="6.4" ry="6.9"/>
			<line class="st3" x1="41.8" y1="78.2" x2="44.5" y2="80.2"/>
			<line class="st3" x1="45.9" y1="74" x2="44.5" y2="80.2"/>
		</g>
		<g>
			
				<ellipse id="paperinfo_00000160881039937329729820000010991645109105484977_" transform="matrix(0.943 -0.3329 0.3329 0.943 -28.6276 21.6208)" class="st9" cx="48.8" cy="94.4" rx="6.4" ry="6.9"/>
			<line class="st3" x1="46.6" y1="95.5" x2="49.4" y2="97.6"/>
			<line class="st3" x1="50.8" y1="91.3" x2="49.4" y2="97.6"/>
		</g>
		<g>
			<line class="st3" x1="53.5" y1="74" x2="79.9" y2="69.1"/>
			<line class="st3" x1="54.2" y1="76.8" x2="69.5" y2="74"/>
		</g>
		<g>
			<line class="st3" x1="68.9" y1="137.8" x2="93.8" y2="132.2"/>
		</g>
		<g>
			<line class="st3" x1="57.9" y1="89" x2="84.2" y2="84.1"/>
			<line class="st3" x1="59.5" y1="94.6" x2="74.7" y2="91.9"/>
			<line class="st3" x1="58.8" y1="91.9" x2="74" y2="89.1"/>
		</g>
		<g>
			<line class="st3" x1="47.3" y1="106.6" x2="91.7" y2="98.3"/>
			<line class="st3" x1="49.7" y1="112.7" x2="89.6" y2="105.2"/>
			<line class="st3" x1="48.4" y1="109.4" x2="81.7" y2="103.1"/>
			<line class="st3" x1="51.9" y1="119.8" x2="81.3" y2="114.2"/>
		</g>
	</g>
</g>
<g id="pen_00000014600332371907941750000003938879510741040313_">
	<g>
		<path class="st10" d="M101.7,123.4c-3.3,1.4-6.7,5.2-7.9,6.7c-0.1,0.1-0.3,0-0.3-0.1c0.5-1.9,1.7-6.8,0.9-10.3
			c3.4-2.5,5.6-6.2,6.4-7.6l3.4,1.8C103.4,115.3,101.8,119.3,101.7,123.4z"/>
		<g>
			<g>
				<line class="st11" x1="93.9" y1="129.5" x2="97.8" y2="121.8"/>
				<g>
					<path class="st12" d="M98.8,122.4c0.3-0.6,0.1-1.2-0.5-1.5s-1.2-0.1-1.5,0.5c-0.3,0.6-0.1,1.2,0.5,1.5
						C97.9,123.2,98.5,122.9,98.8,122.4z"/>
				</g>
			</g>
		</g>
		
			<rect x="94.9" y="100.5" transform="matrix(0.4576 -0.8892 0.8892 0.4576 -34.4258 151.6025)" class="st6" width="24.3" height="7"/>
		
			<rect x="105.4" y="76.7" transform="matrix(0.4576 -0.8892 0.8892 0.4576 -7.3125 149.6006)" class="st6" width="27" height="8.3"/>
		<path class="st6" d="M130.7,76.8c0,0-9.1,17.3-9.4,17.9c-0.3,0.6-1,0.2-1.8-0.2c-0.7-0.4-0.4-1-0.6-1.5c-0.2-0.5,2.6-2.3,2.6-2.3
			s3.8-7.1,5.1-9.6c1.3-2.5-0.2-5.8-0.2-5.8l1.9-3.7c0,0,0.4,1.9,1.8,2.7C131.6,75,130.7,76.8,130.7,76.8z"/>
		<path class="st6" d="M129,70.4c-0.1,0.1-0.1,0.2-0.2,0.3l-7.3-3.8c0-0.1,0.1-0.2,0.1-0.3c1.2-2.4,3.9-3.5,5.9-2.4
			C129.6,65.2,130.2,68,129,70.4z"/>
	</g>
</g>
<g id="sign">
	<path class="st3" d="M78.9,129.8c-1.4,3.5-9.5,7-11,5.9s0.7-4.5,2.7-5.3c3.5-1.4,10.4-0.8,4.2,4.4s-8.3,9.4-2.1,3.9
		c6.2-5.5,6.2-6.2,6.2-6.2s0,1.9,2.1,1s2.8-2.4,2.8-2.4s-4.9,0,0,1.4c2.7,0.8,2.8-1.4,2.8-1.4s-0.7,1.4,1.4,0.7
		c2.1-0.7,2.1-2.1,2.1-2.1v5.5"/>
</g>
</svg>
