<?xml version="1.0" encoding="UTF-8"?>
<svg id="SP_LLC_Opening" data-name="SP &amp;amp; LLC Opening" xmlns="http://www.w3.org/2000/svg" viewBox="0 0 380.44 288.44">
  <defs>
    <style>
      .cls-1 {
        fill: #0362e1;
        stroke-linecap: round;
        stroke-linejoin: round;
      }

      .cls-1, .cls-2, .cls-3 {
        stroke: #0032b8;
        stroke-width: 2px;
      }

      .cls-2 {
        fill: #d4dcff;
      }

      .cls-2, .cls-3 {
        stroke-miterlimit: 10;
      }

      .cls-4 {
        fill: #fff;
      }

      .cls-4, .cls-5 {
        stroke-width: 0px;
      }

      .cls-3 {
        fill: none;
      }

      .cls-5 {
        fill: #0032b8;
      }
    </style>
  </defs>
  <path class="cls-2" d="M193.24,190.74c-6.81,2.78-13.63,10.52-16.19,13.65-.23.28-.68.05-.58-.3,1.08-3.9,3.46-13.92,1.77-21.07,6.91-5.15,11.42-12.6,13.05-15.56l7.02,3.61c-1.53,3.17-4.9,11.29-5.06,19.67Z"/>
  <g>
    <line class="cls-4" x1="177.32" y1="203.23" x2="186.38" y2="185.62"/>
    <g>
      <line class="cls-3" x1="177.32" y1="203.23" x2="185.4" y2="187.53"/>
      <path class="cls-5" d="M187.36,188.66c.57-1.11.13-2.47-.97-3.04-1.11-.57-2.47-.13-3.04.97-.57,1.11-.13,2.47.97,3.04,1.11.57,2.47.13,3.04-.97Z"/>
    </g>
  </g>
  <rect class="cls-1" x="179.4" y="144.07" width="49.52" height="14.34" transform="translate(-23.74 263.56) rotate(-62.77)"/>
  <rect class="cls-1" x="200.88" y="95.42" width="55.18" height="16.88" transform="translate(31.58 259.47) rotate(-62.77)"/>
  <path class="cls-1" d="M252.43,95.76s-18.48,35.22-19.13,36.47-2.14.47-3.63-.31c-1.49-.8-.83-2.05-1.21-3.14s5.29-4.67,5.29-4.67c0,0,7.79-14.56,10.41-19.57,2.63-5.01-.43-11.92-.43-11.92l3.88-7.55s.76,3.92,3.73,5.5c2.92,1.54,1.13,5.08,1.07,5.18Z"/>
  <path class="cls-1" d="M248.92,82.56c-.11.21-.23.42-.36.61l-14.94-7.69c.08-.21.18-.43.29-.65,2.51-4.87,7.89-7.08,12.04-4.94s5.48,7.8,2.97,12.67Z"/>
</svg>