<?xml version="1.0" encoding="UTF-8"?>
<svg id="SP_LLC_Opening" data-name="SP &amp;amp; LLC Opening" xmlns="http://www.w3.org/2000/svg" viewBox="0 0 380.44 288.44">
  <defs>
    <style>
      .cls-1 {
        fill: #fff;
      }

      .cls-1, .cls-2, .cls-3, .cls-4, .cls-5, .cls-6, .cls-7 {
        stroke: #0032b8;
        stroke-width: 2px;
      }

      .cls-1, .cls-2, .cls-3, .cls-4, .cls-7 {
        stroke-linejoin: round;
      }

      .cls-1, .cls-3, .cls-4, .cls-7 {
        stroke-linecap: round;
      }

      .cls-2, .cls-4 {
        fill: none;
      }

      .cls-3 {
        fill: #0362e1;
      }

      .cls-5, .cls-6 {
        stroke-miterlimit: 10;
      }

      .cls-5, .cls-7 {
        fill: #139bff;
      }

      .cls-6 {
        fill: #d4dcff;
      }
    </style>
  </defs>
  <g id="base">
    <g id="Base">
      <path class="cls-5" d="M213.14,187.61c-15.82-13.6-19.57-29.33-19.57-29.33,0,0-25.34-91.66-29.44-101.57-2.63-6.35-8.83-5.94-8.83-5.94l-27.29,4.61-2.38-9.34c1.57-.24,2.43-.37,2.43-.37l30.91-5.89s8.01-2.62,12.42,9.15c3.51,9.37,30.52,101.59,41.74,138.66Z"/>
      <path class="cls-3" d="M221.6,215.35c-1.47,3.98-5.64,7.98-15.63,9.85-20.5,3.83-93.37,21.05-111.95,25.47-3.35.79-6.85.47-10-.93-3.98-1.77-8.87-4.87-10.53-9.82-2.56-7.71-37.69-128.8-46.55-159.36-1.71-5.9.03-12.41,4.81-16.28,1.44-1.17,3.1-2.09,4.95-2.46.75-.14,2.32-.42,4.53-.78-1.99.41-10.84,2.82-8.22,13.3,2.96,11.77,46.79,163.38,46.79,163.38,0,0,3.27,10.3,17.98,5.89,17.67-4.41,28.97-7.27,28.97-7.27,1.24.91,1.94,1.39,1.94,1.39l92.91-22.35Z"/>
      <path class="cls-5" d="M127.39,237.25s-11.3,2.86-28.99,7.26c-5.63,1.69-9.87.82-12.93-.92-.02,0-.04-.02-.06-.02-1.31-.75-2.41-1.63-3.31-2.55-.67-.69-1.26-1.43-1.82-2.22,0-.02-.02-.06-.04-.08-1.02-1.53-1.77-3.24-2.28-5.02-5.41-18.5-43.6-149.55-46.35-160.48-1.33-5.28.27-8.51,2.43-10.47.02-.02.04-.02.04-.02,2.12-1.94,4.75-2.61,5.75-2.82.24-.06.39-.06.39-.06l.35-.06,2.08-.35,6.34-1.02,24.34-3.94,6.12-1,.02.18.98,8.87h-.04l-.14.04-.2.04c-.61.1-1.86.35-3.55.69l-.55.1c-5.12.96-13.75,2.53-21.26,3.57-.88.12-1.75.24-2.59.35h-.02c-1.63.18-3.02.45-4.18.69-.39.08-.75.18-1.08.29-3.53,1.02-3.47,2.26-3.79,3.08-.2.55-.06.9-.06.9,7.83,22.65,17.26,50.84,25.77,92.44.39,1.84.78,3.71,1.14,5.61,6.96,26.42,18.69,60.61,21.52,64.86,1.41.49,14.14-2.47,21.3-4.2.8-.2,1.53-.37,2.18-.55,1.65-.39,2.67-.65,2.67-.65,0,0-1.61-1.75-.96-1.31.02.02,2.08,2.08,2.08,2.08,1.35.92,3.65,2.51,5.57,3.94.9.67,1.71,1.33,2.31,1.86.41.35.69.65.84.88Z"/>
    </g>
  </g>
  <path class="cls-6" d="M114.88,230.46c-.65.18-1.39.35-2.18.55-7.16,1.73-19.89,4.69-21.3,4.2-2.84-4.24-14.57-38.44-21.52-64.86-.37-1.9-.75-3.77-1.14-5.61.59,1.94,1.14,3.82,1.69,5.61,7.18,23.58,17.69,41.21,32.21,52.92.02,0,8.47,5.65,8.49,5.65.02.02.06.04.08.04,1.37.55,2.57,1.04,3.67,1.49Z"/>
  <path class="cls-1" d="M244.11,208.63l-23.36,5.61-92.91,22.36-.02-.02c-.12-.18-.67-.84-1.92-1.37-.57-.24-1.12-.47-1.65-.69-3.06-1.31-5.51-2.45-9.36-4.06-1.1-.45-2.31-.94-3.67-1.49-.02,0-.06-.02-.08-.04-.02,0-8.47-5.65-8.49-5.65-14.53-11.71-25.03-29.34-32.21-52.92-.55-1.8-1.1-3.67-1.69-5.61-10.43-34.62-26.26-90.05-26.26-90.05,0,0-.37-1.1-.37-2.39,0-.29,0-.59.06-.9.16-1.02.63-2.04,1.77-2.59l2.88-.49,1.63-.29,4.18-.69h.02l2.04-.35,21.26-3.57.55-.1,4.1-.69.22-.04.14-.04h.04l46.82-7.9,2.14-.37,1.22-.2,26.07-4.41s5.9-1.49,8.83,7.34c.2.63.47,1.53.82,2.61,4.92,16.53,22.01,81.59,22.01,81.59,0,0,2.28,7.26,6.32,16.4h.02c4.08,9.24,10,20.36,17.18,27.79.57.59,1.14,1.16,1.73,1.69.29.29.61.55.92.82,1.92,1.67,4.04,3.28,6.35,4.86,21.18,14.38,22.65,15.85,22.65,15.85Z"/>
  <path id="clip" class="cls-7" d="M134.56,60.37l-55.07,8.23c-.25-3.23-1.43-13.16-4.23-14.64-.27-.14-1.41-.03-2.83-.07,8.37-1.06,46.48-6.98,52.4-8.1,5.96-1.13,7.1,5.24,7.1,5.24.93,3.3,1.7,6.05,2.62,9.34Z"/>
  <g id="Paperinfo">
    <g>
      <ellipse id="paperinfo" class="cls-2" cx="75.39" cy="96.16" rx="13.05" ry="14.04" transform="translate(-27.71 30.58) rotate(-19.44)"/>
      <line class="cls-4" x1="70.96" y1="98.47" x2="76.62" y2="102.71"/>
      <line class="cls-4" x1="79.45" y1="89.98" x2="76.62" y2="102.71"/>
    </g>
    <g>
      <ellipse id="paperinfo-2" data-name="paperinfo" class="cls-2" cx="85.29" cy="131.53" rx="13.05" ry="14.04" transform="translate(-38.92 35.89) rotate(-19.44)"/>
      <line class="cls-4" x1="80.86" y1="133.83" x2="86.52" y2="138.08"/>
      <line class="cls-4" x1="89.35" y1="125.35" x2="86.52" y2="138.08"/>
    </g>
    <g>
      <line class="cls-4" x1="95.01" y1="89.98" x2="148.77" y2="80.07"/>
      <line class="cls-4" x1="96.42" y1="95.64" x2="127.55" y2="89.98"/>
    </g>
    <line class="cls-4" x1="126.42" y1="220.09" x2="177.06" y2="208.82"/>
    <g>
      <line class="cls-4" x1="103.86" y1="120.52" x2="157.62" y2="110.62"/>
      <line class="cls-4" x1="107.11" y1="132.12" x2="138.24" y2="126.46"/>
      <line class="cls-4" x1="105.7" y1="126.46" x2="136.82" y2="120.8"/>
    </g>
    <g>
      <line class="cls-4" x1="82.27" y1="156.47" x2="172.82" y2="139.49"/>
      <line class="cls-4" x1="87.25" y1="168.87" x2="168.52" y2="153.61"/>
      <line class="cls-4" x1="84.49" y1="162.13" x2="152.4" y2="149.4"/>
      <line class="cls-4" x1="91.56" y1="183.35" x2="151.6" y2="172.03"/>
    </g>
  </g>
</svg>