<?xml version="1.0" encoding="utf-8"?>
<!-- Generator: Adobe Illustrator 28.1.0, SVG Export Plug-In . SVG Version: 6.00 Build 0)  -->
<svg version="1.1" xmlns="http://www.w3.org/2000/svg" xmlns:xlink="http://www.w3.org/1999/xlink" x="0px" y="0px"
	 viewBox="0 0 80 80" style="enable-background:new 0 0 80 80;" xml:space="preserve">
<style type="text/css">
	.st0{display:none;}
	.st1{fill:#FFFFFF;}
	.st2{fill:#1A6EFF;}
	.st3{fill:#FFFFFF;stroke:#1A6EFF;stroke-width:4;stroke-linejoin:round;stroke-miterlimit:10;}
	.st4{fill:none;stroke:#60A2FF;stroke-width:4;stroke-linecap:round;stroke-linejoin:round;stroke-miterlimit:10;}
	.st5{fill:none;stroke:#1A6EFF;stroke-width:3;stroke-linecap:round;stroke-linejoin:round;stroke-miterlimit:10;}
	.st6{fill:none;stroke:#1A6EFF;stroke-width:4;stroke-linecap:round;stroke-linejoin:round;stroke-miterlimit:10;}
	.st7{fill:#FFFFFF;stroke:#1A6EFF;stroke-width:4;stroke-linecap:round;stroke-linejoin:round;stroke-miterlimit:10;}
	.st8{fill:#60A2FF;}
	.st9{fill:none;stroke:#60A2FF;stroke-width:3.5;stroke-linejoin:round;stroke-miterlimit:10;}
	.st10{fill:none;stroke:#1A6EFF;stroke-width:3.5;stroke-linecap:round;stroke-linejoin:round;stroke-miterlimit:10;}
	.st11{fill:none;stroke:#1A6EFF;stroke-width:3.5;stroke-linejoin:round;stroke-miterlimit:10;}
	.st12{fill:none;stroke:#1A6EFF;stroke-width:4;stroke-miterlimit:10;}
	.st13{fill:#60A2FF;stroke:#60A2FF;stroke-linejoin:round;stroke-miterlimit:10;}
	.st14{fill:#1A6EFF;stroke:#1A6EFF;stroke-linejoin:round;stroke-miterlimit:10;}
	.st15{fill:#FFFFFF;stroke:#1A6EFF;stroke-width:3;stroke-linejoin:round;stroke-miterlimit:10;}
	.st16{fill:none;stroke:#1A6EFF;stroke-width:3;stroke-miterlimit:10;}
	.st17{fill:#60A2FF;stroke:#FFFFFF;stroke-width:4;stroke-miterlimit:10;}
	.st18{fill:none;stroke:#FFFFFF;stroke-width:4;stroke-miterlimit:10;}
	.st19{fill:#FFFFFF;stroke:#1A6EFF;stroke-width:4;stroke-miterlimit:10;}
	.st20{fill:none;stroke:#60A2FF;stroke-width:3;stroke-linecap:square;stroke-linejoin:round;stroke-miterlimit:10;}
	.st21{fill:#1A6EFF;stroke:#FFFFFF;stroke-width:3;stroke-miterlimit:10;}
	.st22{fill:none;stroke:#FFFFFF;stroke-width:3;stroke-miterlimit:10;}
	.st23{fill:none;stroke:#FFFFFF;stroke-width:4;stroke-linecap:round;stroke-miterlimit:10;}
	.st24{fill:#60A2FF;stroke:#FFFFFF;stroke-width:3;stroke-miterlimit:10;}
	.st25{fill:#FFFFFF;stroke:#60A2FF;stroke-width:3;stroke-miterlimit:10;}
</style>
<g id="back" class="st0">
</g>
<g id="Названия_монтажных_областей">
	<g>
		<g>
			<path class="st1" d="M-4.9-6.4v-6.9L-8-8h-0.5l-3.1-5.4v6.9h-0.8V-15h0.9l3.3,5.8L-5-15h0.9v8.5H-4.9z"/>
			<path class="st1" d="M0.5-6.3c-0.5,0-0.9-0.1-1.3-0.3s-0.7-0.4-1-0.7c-0.3-0.3-0.5-0.6-0.6-1c-0.2-0.4-0.2-0.8-0.2-1.2
				c0-0.4,0.1-0.9,0.2-1.2c0.2-0.4,0.4-0.7,0.6-1c0.3-0.3,0.6-0.5,1-0.7c0.4-0.2,0.8-0.3,1.2-0.3c0.4,0,0.9,0.1,1.2,0.3
				s0.7,0.4,1,0.7c0.3,0.3,0.5,0.6,0.6,1c0.2,0.4,0.2,0.8,0.2,1.2c0,0.4-0.1,0.8-0.2,1.2C3.3-7.9,3-7.6,2.8-7.3
				C2.5-7,2.2-6.8,1.8-6.6S1-6.3,0.5-6.3z M-1.7-9.5c0,0.5,0.1,0.9,0.3,1.3C-1.2-7.9-1-7.6-0.6-7.4C-0.3-7.2,0.1-7,0.5-7
				s0.8-0.1,1.1-0.3s0.6-0.5,0.8-0.9c0.2-0.4,0.3-0.8,0.3-1.3c0-0.5-0.1-0.9-0.3-1.3S2-11.5,1.7-11.7C1.3-11.9,0.9-12,0.5-12
				s-0.8,0.1-1.1,0.3c-0.3,0.2-0.6,0.5-0.8,0.9C-1.6-10.4-1.7-10-1.7-9.5z"/>
			<path class="st1" d="M5-6.4v-6.2h0.8v2.7h3.6v-2.7h0.8v6.2H9.4v-2.8H5.8v2.8H5z"/>
			<path class="st1" d="M13.6-6.4v-5.5h-2.2v-0.7h5.3v0.7h-2.2v5.5H13.6z"/>
			<path class="st1" d="M17.2-8.2c0-0.4,0.1-0.7,0.3-1c0.2-0.3,0.5-0.5,0.9-0.7c0.4-0.2,0.9-0.2,1.4-0.2c0.3,0,0.6,0,0.9,0.1
				c0.3,0,0.6,0.1,0.9,0.2v-0.5c0-0.5-0.2-0.9-0.5-1.3c-0.3-0.3-0.7-0.5-1.3-0.5c-0.3,0-0.7,0.1-1,0.2c-0.3,0.1-0.7,0.3-1,0.5
				l-0.3-0.6c0.4-0.3,0.8-0.5,1.2-0.6c0.4-0.1,0.8-0.2,1.2-0.2c0.8,0,1.4,0.2,1.8,0.7c0.4,0.4,0.7,1,0.7,1.8v2.9
				c0,0.1,0,0.2,0.1,0.2s0.1,0.1,0.2,0.1v0.6c-0.1,0-0.2,0-0.2,0c-0.1,0-0.1,0-0.1,0c-0.2,0-0.4-0.1-0.5-0.2
				c-0.1-0.1-0.2-0.2-0.2-0.4l0-0.5c-0.3,0.4-0.6,0.6-1.1,0.8c-0.4,0.2-0.9,0.3-1.4,0.3c-0.4,0-0.8-0.1-1.1-0.3S17.7-7,17.5-7.3
				C17.3-7.6,17.2-7.9,17.2-8.2z M21.4-7.8c0.1-0.1,0.2-0.2,0.2-0.3s0.1-0.2,0.1-0.3v-0.9c-0.3-0.1-0.6-0.2-0.8-0.2S20.3-9.6,20-9.6
				c-0.6,0-1.1,0.1-1.4,0.3C18.2-9,18-8.7,18-8.3c0,0.2,0.1,0.4,0.2,0.6c0.1,0.2,0.3,0.4,0.5,0.5c0.2,0.1,0.5,0.2,0.8,0.2
				c0.4,0,0.8-0.1,1.1-0.2C21-7.3,21.2-7.5,21.4-7.8z"/>
			<path class="st1" d="M23.8-6.4l2.3-3.2l-2.1-3H25l1.9,2.7h0.8v-2.7h0.8v2.7h0.8l1.8-2.7h0.9l-2.1,3l2.4,3.2h-0.9l-2.1-2.8h-0.8
				v2.8h-0.8v-2.8h-0.8l-2.1,2.8H23.8z"/>
			<path class="st1" d="M33.7-6.4v-6.2h0.8v2.7h0.9l2.1-2.7h0.9l-2.4,3l2.7,3.2h-1l-2.4-2.8h-0.9v2.8H33.7z"/>
			<path class="st1" d="M39.5-8.2c0-0.4,0.1-0.7,0.3-1c0.2-0.3,0.5-0.5,0.9-0.7c0.4-0.2,0.9-0.2,1.4-0.2c0.3,0,0.6,0,0.9,0.1
				c0.3,0,0.6,0.1,0.9,0.2v-0.5c0-0.5-0.2-0.9-0.5-1.3c-0.3-0.3-0.7-0.5-1.3-0.5c-0.3,0-0.7,0.1-1,0.2c-0.3,0.1-0.7,0.3-1,0.5
				l-0.3-0.6c0.4-0.3,0.8-0.5,1.2-0.6c0.4-0.1,0.8-0.2,1.2-0.2c0.8,0,1.4,0.2,1.8,0.7c0.4,0.4,0.7,1,0.7,1.8v2.9
				c0,0.1,0,0.2,0.1,0.2s0.1,0.1,0.2,0.1v0.6c-0.1,0-0.2,0-0.2,0c-0.1,0-0.1,0-0.1,0c-0.2,0-0.4-0.1-0.5-0.2
				c-0.1-0.1-0.2-0.2-0.2-0.4l0-0.5c-0.3,0.4-0.6,0.6-1.1,0.8c-0.4,0.2-0.9,0.3-1.4,0.3c-0.4,0-0.8-0.1-1.1-0.3S39.9-7,39.7-7.3
				C39.6-7.6,39.5-7.9,39.5-8.2z M43.7-7.8c0.1-0.1,0.2-0.2,0.2-0.3s0.1-0.2,0.1-0.3v-0.9c-0.3-0.1-0.6-0.2-0.8-0.2
				s-0.6-0.1-0.9-0.1c-0.6,0-1.1,0.1-1.4,0.3c-0.4,0.2-0.5,0.5-0.5,0.9c0,0.2,0.1,0.4,0.2,0.6c0.1,0.2,0.3,0.4,0.5,0.5
				c0.2,0.1,0.5,0.2,0.8,0.2c0.4,0,0.8-0.1,1.1-0.2C43.2-7.3,43.5-7.5,43.7-7.8z"/>
			<path class="st1" d="M55.2-8.8c0,0.5-0.1,0.9-0.4,1.3c-0.3,0.4-0.6,0.7-1.1,0.9c-0.5,0.2-0.9,0.3-1.5,0.3c-0.6,0-1.1-0.1-1.5-0.3
				c-0.4-0.2-0.8-0.5-1-0.9c-0.3-0.4-0.4-0.8-0.4-1.3c0-0.4,0.1-0.7,0.3-1c0.2-0.3,0.4-0.5,0.6-0.7s0.5-0.3,0.8-0.4
				c-0.2-0.1-0.5-0.2-0.7-0.4c-0.2-0.2-0.4-0.4-0.5-0.6c-0.1-0.2-0.2-0.5-0.2-0.8c0-0.4,0.1-0.7,0.2-0.9c0.2-0.3,0.4-0.5,0.6-0.7
				c0.3-0.2,0.5-0.3,0.9-0.4c0.3-0.1,0.6-0.1,1-0.1c0.3,0,0.6,0,0.9,0.1c0.3,0.1,0.6,0.2,0.9,0.4s0.5,0.4,0.6,0.7
				c0.2,0.3,0.2,0.6,0.2,0.9c0,0.3-0.1,0.5-0.2,0.8c-0.1,0.2-0.3,0.4-0.5,0.6s-0.5,0.3-0.7,0.4c0.3,0.1,0.6,0.3,0.9,0.5
				c0.3,0.2,0.5,0.5,0.6,0.8S55.2-9.2,55.2-8.8z M54.4-8.9c0-0.3-0.1-0.5-0.2-0.8s-0.3-0.4-0.5-0.6c-0.2-0.2-0.4-0.3-0.7-0.3
				s-0.5-0.1-0.8-0.1c-0.3,0-0.7,0.1-1,0.2c-0.3,0.1-0.6,0.4-0.8,0.6c-0.2,0.3-0.3,0.6-0.3,1c0,0.3,0.1,0.5,0.2,0.7s0.3,0.4,0.5,0.6
				c0.2,0.2,0.4,0.3,0.7,0.4c0.3,0.1,0.5,0.1,0.8,0.1c0.3,0,0.7-0.1,1-0.2c0.3-0.1,0.6-0.4,0.8-0.6S54.4-8.5,54.4-8.9z M50.4-12.8
				c0,0.3,0.1,0.6,0.3,0.8c0.2,0.2,0.4,0.4,0.7,0.5s0.6,0.2,0.8,0.2c0.3,0,0.6-0.1,0.9-0.2c0.3-0.1,0.5-0.3,0.7-0.5
				c0.2-0.2,0.3-0.5,0.3-0.8c0-0.3-0.1-0.6-0.3-0.8s-0.4-0.4-0.7-0.5c-0.3-0.1-0.6-0.2-0.9-0.2c-0.3,0-0.6,0.1-0.9,0.2
				c-0.3,0.1-0.5,0.3-0.7,0.5S50.4-13.1,50.4-12.8z"/>
			<path class="st1" d="M62.5-9.9c0,0.7-0.1,1.3-0.4,1.9s-0.6,1-1.1,1.3c-0.5,0.3-1,0.5-1.6,0.5c-0.6,0-1.1-0.2-1.5-0.5
				c-0.5-0.3-0.8-0.7-1.1-1.3c-0.3-0.5-0.4-1.2-0.4-1.9c0-0.7,0.1-1.3,0.4-1.9c0.3-0.5,0.6-1,1.1-1.3c0.5-0.3,1-0.5,1.5-0.5
				c0.6,0,1.1,0.2,1.6,0.5c0.5,0.3,0.8,0.7,1.1,1.3C62.3-11.2,62.5-10.6,62.5-9.9z M61.6-9.9c0-0.6-0.1-1-0.3-1.5
				c-0.2-0.4-0.4-0.8-0.8-1s-0.7-0.4-1.1-0.4s-0.8,0.1-1.1,0.4c-0.3,0.2-0.6,0.6-0.8,1c-0.2,0.4-0.3,0.9-0.3,1.5
				c0,0.6,0.1,1,0.3,1.5c0.2,0.4,0.4,0.8,0.8,1c0.3,0.2,0.7,0.4,1.1,0.4s0.8-0.1,1.1-0.4c0.3-0.2,0.6-0.6,0.8-1
				C61.6-8.9,61.6-9.3,61.6-9.9z"/>
			<path class="st1" d="M67.1-6.4v-6.2h0.8v2.7h3.6v-2.7h0.8v6.2h-0.8v-2.8h-3.6v2.8H67.1z"/>
			<path class="st1" d="M73.6-8.2c0-0.4,0.1-0.7,0.3-1c0.2-0.3,0.5-0.5,0.9-0.7c0.4-0.2,0.9-0.2,1.4-0.2c0.3,0,0.6,0,0.9,0.1
				c0.3,0,0.6,0.1,0.9,0.2v-0.5c0-0.5-0.2-0.9-0.5-1.3c-0.3-0.3-0.7-0.5-1.3-0.5c-0.3,0-0.7,0.1-1,0.2c-0.3,0.1-0.7,0.3-1,0.5
				L74-11.9c0.4-0.3,0.8-0.5,1.2-0.6c0.4-0.1,0.8-0.2,1.2-0.2c0.8,0,1.4,0.2,1.8,0.7c0.4,0.4,0.7,1,0.7,1.8v2.9c0,0.1,0,0.2,0.1,0.2
				s0.1,0.1,0.2,0.1v0.6c-0.1,0-0.2,0-0.2,0c-0.1,0-0.1,0-0.1,0c-0.2,0-0.4-0.1-0.5-0.2c-0.1-0.1-0.2-0.2-0.2-0.4l0-0.5
				c-0.3,0.4-0.6,0.6-1.1,0.8c-0.4,0.2-0.9,0.3-1.4,0.3c-0.4,0-0.8-0.1-1.1-0.3S74-7,73.9-7.3C73.7-7.6,73.6-7.9,73.6-8.2z
				 M77.8-7.8C77.9-7.9,77.9-8,78-8.1s0.1-0.2,0.1-0.3v-0.9c-0.3-0.1-0.6-0.2-0.8-0.2s-0.6-0.1-0.9-0.1c-0.6,0-1.1,0.1-1.4,0.3
				c-0.4,0.2-0.5,0.5-0.5,0.9c0,0.2,0.1,0.4,0.2,0.6c0.1,0.2,0.3,0.4,0.5,0.5c0.2,0.1,0.5,0.2,0.8,0.2c0.4,0,0.8-0.1,1.1-0.2
				C77.3-7.3,77.6-7.5,77.8-7.8z"/>
			<path class="st1" d="M89.3-8.8c0,0.5-0.1,0.9-0.4,1.3c-0.3,0.4-0.6,0.7-1.1,0.9c-0.5,0.2-0.9,0.3-1.5,0.3c-0.6,0-1.1-0.1-1.5-0.3
				c-0.4-0.2-0.8-0.5-1-0.9c-0.3-0.4-0.4-0.8-0.4-1.3c0-0.4,0.1-0.7,0.3-1c0.2-0.3,0.4-0.5,0.6-0.7s0.5-0.3,0.8-0.4
				c-0.2-0.1-0.5-0.2-0.7-0.4c-0.2-0.2-0.4-0.4-0.5-0.6c-0.1-0.2-0.2-0.5-0.2-0.8c0-0.4,0.1-0.7,0.2-0.9c0.2-0.3,0.4-0.5,0.6-0.7
				c0.3-0.2,0.5-0.3,0.9-0.4c0.3-0.1,0.6-0.1,1-0.1c0.3,0,0.6,0,0.9,0.1c0.3,0.1,0.6,0.2,0.9,0.4s0.5,0.4,0.6,0.7
				c0.2,0.3,0.2,0.6,0.2,0.9c0,0.3-0.1,0.5-0.2,0.8c-0.1,0.2-0.3,0.4-0.5,0.6s-0.5,0.3-0.7,0.4c0.3,0.1,0.6,0.3,0.9,0.5
				c0.3,0.2,0.5,0.5,0.6,0.8S89.3-9.2,89.3-8.8z M88.5-8.9c0-0.3-0.1-0.5-0.2-0.8S88-10,87.8-10.2c-0.2-0.2-0.4-0.3-0.7-0.3
				s-0.5-0.1-0.8-0.1c-0.3,0-0.7,0.1-1,0.2c-0.3,0.1-0.6,0.4-0.8,0.6c-0.2,0.3-0.3,0.6-0.3,1c0,0.3,0.1,0.5,0.2,0.7s0.3,0.4,0.5,0.6
				c0.2,0.2,0.4,0.3,0.7,0.4c0.3,0.1,0.5,0.1,0.8,0.1c0.3,0,0.7-0.1,1-0.2c0.3-0.1,0.6-0.4,0.8-0.6S88.5-8.5,88.5-8.9z M84.5-12.8
				c0,0.3,0.1,0.6,0.3,0.8c0.2,0.2,0.4,0.4,0.7,0.5s0.6,0.2,0.8,0.2c0.3,0,0.6-0.1,0.9-0.2c0.3-0.1,0.5-0.3,0.7-0.5
				c0.2-0.2,0.3-0.5,0.3-0.8c0-0.3-0.1-0.6-0.3-0.8s-0.4-0.4-0.7-0.5c-0.3-0.1-0.6-0.2-0.9-0.2c-0.3,0-0.6,0.1-0.9,0.2
				c-0.3,0.1-0.5,0.3-0.7,0.5S84.5-13.1,84.5-12.8z"/>
			<path class="st1" d="M96.6-9.9c0,0.7-0.1,1.3-0.4,1.9s-0.6,1-1.1,1.3c-0.5,0.3-1,0.5-1.6,0.5c-0.6,0-1.1-0.2-1.5-0.5
				c-0.5-0.3-0.8-0.7-1.1-1.3c-0.3-0.5-0.4-1.2-0.4-1.9c0-0.7,0.1-1.3,0.4-1.9c0.3-0.5,0.6-1,1.1-1.3c0.5-0.3,1-0.5,1.5-0.5
				c0.6,0,1.1,0.2,1.6,0.5c0.5,0.3,0.8,0.7,1.1,1.3C96.5-11.2,96.6-10.6,96.6-9.9z M95.8-9.9c0-0.6-0.1-1-0.3-1.5
				c-0.2-0.4-0.4-0.8-0.8-1s-0.7-0.4-1.1-0.4s-0.8,0.1-1.1,0.4c-0.3,0.2-0.6,0.6-0.8,1c-0.2,0.4-0.3,0.9-0.3,1.5
				c0,0.6,0.1,1,0.3,1.5c0.2,0.4,0.4,0.8,0.8,1c0.3,0.2,0.7,0.4,1.1,0.4s0.8-0.1,1.1-0.4c0.3-0.2,0.6-0.6,0.8-1
				C95.7-8.9,95.8-9.3,95.8-9.9z"/>
		</g>
	</g>
	<g>
		<g>
			<path class="st1" d="M-139.9-6.4v-6.9L-143-8h-0.5l-3.1-5.4v6.9h-0.8V-15h0.9l3.3,5.8l3.3-5.8h0.9v8.5H-139.9z"/>
			<path class="st1" d="M-134.5-6.3c-0.5,0-0.9-0.1-1.3-0.3s-0.7-0.4-1-0.7c-0.3-0.3-0.5-0.6-0.6-1c-0.2-0.4-0.2-0.8-0.2-1.2
				c0-0.4,0.1-0.9,0.2-1.2c0.2-0.4,0.4-0.7,0.6-1c0.3-0.3,0.6-0.5,1-0.7s0.8-0.3,1.2-0.3c0.4,0,0.9,0.1,1.2,0.3s0.7,0.4,1,0.7
				c0.3,0.3,0.5,0.6,0.6,1c0.2,0.4,0.2,0.8,0.2,1.2c0,0.4-0.1,0.8-0.2,1.2c-0.2,0.4-0.4,0.7-0.6,1c-0.3,0.3-0.6,0.5-1,0.7
				S-134-6.3-134.5-6.3z M-136.7-9.5c0,0.5,0.1,0.9,0.3,1.3c0.2,0.4,0.5,0.7,0.8,0.9c0.3,0.2,0.7,0.3,1.1,0.3s0.8-0.1,1.1-0.3
				c0.3-0.2,0.6-0.5,0.8-0.9c0.2-0.4,0.3-0.8,0.3-1.3c0-0.5-0.1-0.9-0.3-1.3c-0.2-0.4-0.5-0.7-0.8-0.9c-0.3-0.2-0.7-0.3-1.1-0.3
				s-0.8,0.1-1.1,0.3c-0.3,0.2-0.6,0.5-0.8,0.9C-136.6-10.4-136.7-10-136.7-9.5z"/>
			<path class="st1" d="M-130-6.4v-6.2h0.8v2.7h3.6v-2.7h0.8v6.2h-0.8v-2.8h-3.6v2.8H-130z"/>
			<path class="st1" d="M-121.4-6.4v-5.5h-2.2v-0.7h5.3v0.7h-2.2v5.5H-121.4z"/>
			<path class="st1" d="M-117.8-8.2c0-0.4,0.1-0.7,0.3-1c0.2-0.3,0.5-0.5,0.9-0.7c0.4-0.2,0.9-0.2,1.4-0.2c0.3,0,0.6,0,0.9,0.1
				c0.3,0,0.6,0.1,0.9,0.2v-0.5c0-0.5-0.2-0.9-0.5-1.3c-0.3-0.3-0.7-0.5-1.3-0.5c-0.3,0-0.7,0.1-1,0.2c-0.3,0.1-0.7,0.3-1,0.5
				l-0.3-0.6c0.4-0.3,0.8-0.5,1.2-0.6c0.4-0.1,0.8-0.2,1.2-0.2c0.8,0,1.4,0.2,1.8,0.7c0.4,0.4,0.7,1,0.7,1.8v2.9
				c0,0.1,0,0.2,0.1,0.2s0.1,0.1,0.2,0.1v0.6c-0.1,0-0.2,0-0.2,0c-0.1,0-0.1,0-0.1,0c-0.2,0-0.4-0.1-0.5-0.2
				c-0.1-0.1-0.2-0.2-0.2-0.4l0-0.5c-0.3,0.4-0.6,0.6-1.1,0.8c-0.4,0.2-0.9,0.3-1.4,0.3c-0.4,0-0.8-0.1-1.1-0.3s-0.6-0.4-0.8-0.7
				C-117.7-7.6-117.8-7.9-117.8-8.2z M-113.6-7.8c0.1-0.1,0.2-0.2,0.2-0.3s0.1-0.2,0.1-0.3v-0.9c-0.3-0.1-0.6-0.2-0.8-0.2
				s-0.6-0.1-0.9-0.1c-0.6,0-1.1,0.1-1.4,0.3c-0.4,0.2-0.5,0.5-0.5,0.9c0,0.2,0.1,0.4,0.2,0.6c0.1,0.2,0.3,0.4,0.5,0.5
				c0.2,0.1,0.5,0.2,0.8,0.2c0.4,0,0.8-0.1,1.1-0.2C-114-7.3-113.8-7.5-113.6-7.8z"/>
			<path class="st1" d="M-111.2-6.4l2.3-3.2l-2.1-3h0.9l1.9,2.7h0.8v-2.7h0.8v2.7h0.8l1.8-2.7h0.9l-2.1,3l2.4,3.2h-0.9l-2.1-2.8
				h-0.8v2.8h-0.8v-2.8h-0.8l-2.1,2.8H-111.2z"/>
			<path class="st1" d="M-101.3-6.4v-6.2h0.8v2.7h0.9l2.1-2.7h0.9l-2.4,3l2.7,3.2h-1l-2.4-2.8h-0.9v2.8H-101.3z"/>
			<path class="st1" d="M-95.5-8.2c0-0.4,0.1-0.7,0.3-1c0.2-0.3,0.5-0.5,0.9-0.7c0.4-0.2,0.9-0.2,1.4-0.2c0.3,0,0.6,0,0.9,0.1
				c0.3,0,0.6,0.1,0.9,0.2v-0.5c0-0.5-0.2-0.9-0.5-1.3c-0.3-0.3-0.7-0.5-1.3-0.5c-0.3,0-0.7,0.1-1,0.2c-0.3,0.1-0.7,0.3-1,0.5
				l-0.3-0.6c0.4-0.3,0.8-0.5,1.2-0.6c0.4-0.1,0.8-0.2,1.2-0.2c0.8,0,1.4,0.2,1.8,0.7c0.4,0.4,0.7,1,0.7,1.8v2.9
				c0,0.1,0,0.2,0.1,0.2s0.1,0.1,0.2,0.1v0.6c-0.1,0-0.2,0-0.2,0c-0.1,0-0.1,0-0.1,0c-0.2,0-0.4-0.1-0.5-0.2
				c-0.1-0.1-0.2-0.2-0.2-0.4l0-0.5c-0.3,0.4-0.6,0.6-1.1,0.8c-0.4,0.2-0.9,0.3-1.4,0.3c-0.4,0-0.8-0.1-1.1-0.3s-0.6-0.4-0.8-0.7
				C-95.4-7.6-95.5-7.9-95.5-8.2z M-91.3-7.8c0.1-0.1,0.2-0.2,0.2-0.3s0.1-0.2,0.1-0.3v-0.9c-0.3-0.1-0.6-0.2-0.8-0.2
				s-0.6-0.1-0.9-0.1c-0.6,0-1.1,0.1-1.4,0.3c-0.4,0.2-0.5,0.5-0.5,0.9c0,0.2,0.1,0.4,0.2,0.6c0.1,0.2,0.3,0.4,0.5,0.5
				c0.2,0.1,0.5,0.2,0.8,0.2c0.4,0,0.8-0.1,1.1-0.2C-91.8-7.3-91.5-7.5-91.3-7.8z"/>
			<path class="st1" d="M-83.2-4.7c-0.6,0-1.1-0.1-1.6-0.5c-0.5-0.3-0.9-0.7-1.1-1.2l0.5-0.4c0.2,0.4,0.5,0.7,0.9,0.9
				c0.4,0.2,0.8,0.4,1.3,0.4c0.4,0,0.8-0.1,1.1-0.3c0.3-0.2,0.6-0.4,0.8-0.7c0.2-0.3,0.3-0.7,0.3-1.1c0-0.4-0.1-0.7-0.3-1
				c-0.2-0.3-0.4-0.5-0.7-0.7c-0.3-0.2-0.7-0.3-1-0.3c-0.4,0-0.7,0.1-1.1,0.2C-84.5-9-84.8-8.8-85-8.5h-0.8l0.9-4.8h4.1v0.8h-3.5
				l-0.6,3.1c0.2-0.2,0.5-0.4,0.8-0.5s0.6-0.2,1-0.2c0.5,0,1,0.1,1.4,0.3s0.8,0.6,1,1c0.2,0.4,0.4,0.9,0.4,1.4
				c0,0.6-0.1,1.1-0.4,1.5c-0.3,0.4-0.6,0.8-1.1,1C-82.1-4.8-82.6-4.7-83.2-4.7z"/>
			<path class="st1" d="M-73.1-9.9c0,0.7-0.1,1.3-0.4,1.9s-0.6,1-1.1,1.3c-0.5,0.3-1,0.5-1.6,0.5c-0.6,0-1.1-0.2-1.5-0.5
				c-0.5-0.3-0.8-0.7-1.1-1.3c-0.3-0.5-0.4-1.2-0.4-1.9c0-0.7,0.1-1.3,0.4-1.9c0.3-0.5,0.6-1,1.1-1.3c0.5-0.3,1-0.5,1.5-0.5
				c0.6,0,1.1,0.2,1.6,0.5c0.5,0.3,0.8,0.7,1.1,1.3C-73.2-11.2-73.1-10.6-73.1-9.9z M-73.9-9.9c0-0.6-0.1-1-0.3-1.5
				c-0.2-0.4-0.4-0.8-0.8-1s-0.7-0.4-1.1-0.4s-0.8,0.1-1.1,0.4c-0.3,0.2-0.6,0.6-0.8,1c-0.2,0.4-0.3,0.9-0.3,1.5
				c0,0.6,0.1,1,0.3,1.5c0.2,0.4,0.4,0.8,0.8,1c0.3,0.2,0.7,0.4,1.1,0.4s0.8-0.1,1.1-0.4c0.3-0.2,0.6-0.6,0.8-1
				C-74-8.9-73.9-9.3-73.9-9.9z"/>
			<path class="st1" d="M-68.5-6.4v-6.2h0.8v2.7h3.6v-2.7h0.8v6.2h-0.8v-2.8h-3.6v2.8H-68.5z"/>
			<path class="st1" d="M-62-8.2c0-0.4,0.1-0.7,0.3-1c0.2-0.3,0.5-0.5,0.9-0.7c0.4-0.2,0.9-0.2,1.4-0.2c0.3,0,0.6,0,0.9,0.1
				c0.3,0,0.6,0.1,0.9,0.2v-0.5c0-0.5-0.2-0.9-0.5-1.3c-0.3-0.3-0.7-0.5-1.3-0.5c-0.3,0-0.7,0.1-1,0.2c-0.3,0.1-0.7,0.3-1,0.5
				l-0.3-0.6c0.4-0.3,0.8-0.5,1.2-0.6c0.4-0.1,0.8-0.2,1.2-0.2c0.8,0,1.4,0.2,1.8,0.7c0.4,0.4,0.7,1,0.7,1.8v2.9
				c0,0.1,0,0.2,0.1,0.2s0.1,0.1,0.2,0.1v0.6c-0.1,0-0.2,0-0.2,0c-0.1,0-0.1,0-0.1,0c-0.2,0-0.4-0.1-0.5-0.2
				c-0.1-0.1-0.2-0.2-0.2-0.4l0-0.5c-0.3,0.4-0.6,0.6-1.1,0.8c-0.4,0.2-0.9,0.3-1.4,0.3c-0.4,0-0.8-0.1-1.1-0.3s-0.6-0.4-0.8-0.7
				C-61.9-7.6-62-7.9-62-8.2z M-57.8-7.8c0.1-0.1,0.2-0.2,0.2-0.3s0.1-0.2,0.1-0.3v-0.9c-0.3-0.1-0.6-0.2-0.8-0.2s-0.6-0.1-0.9-0.1
				c-0.6,0-1.1,0.1-1.4,0.3C-61-9-61.2-8.7-61.2-8.3c0,0.2,0.1,0.4,0.2,0.6c0.1,0.2,0.3,0.4,0.5,0.5c0.2,0.1,0.5,0.2,0.8,0.2
				c0.4,0,0.8-0.1,1.1-0.2C-58.2-7.3-58-7.5-57.8-7.8z"/>
			<path class="st1" d="M-49.6-4.7c-0.6,0-1.1-0.1-1.6-0.5c-0.5-0.3-0.9-0.7-1.1-1.2l0.5-0.4c0.2,0.4,0.5,0.7,0.9,0.9
				c0.4,0.2,0.8,0.4,1.3,0.4c0.4,0,0.8-0.1,1.1-0.3c0.3-0.2,0.6-0.4,0.8-0.7c0.2-0.3,0.3-0.7,0.3-1.1c0-0.4-0.1-0.7-0.3-1
				C-48-8.8-48.2-9-48.5-9.2c-0.3-0.2-0.7-0.3-1-0.3c-0.4,0-0.7,0.1-1.1,0.2c-0.3,0.2-0.6,0.4-0.8,0.7h-0.8l0.9-4.8h4.1v0.8h-3.5
				l-0.6,3.1c0.2-0.2,0.5-0.4,0.8-0.5s0.6-0.2,1-0.2c0.5,0,1,0.1,1.4,0.3s0.8,0.6,1,1c0.2,0.4,0.4,0.9,0.4,1.4
				c0,0.6-0.1,1.1-0.4,1.5c-0.3,0.4-0.6,0.8-1.1,1C-48.6-4.8-49.1-4.7-49.6-4.7z"/>
			<path class="st1" d="M-39.6-9.9c0,0.7-0.1,1.3-0.4,1.9s-0.6,1-1.1,1.3c-0.5,0.3-1,0.5-1.6,0.5c-0.6,0-1.1-0.2-1.5-0.5
				c-0.5-0.3-0.8-0.7-1.1-1.3c-0.3-0.5-0.4-1.2-0.4-1.9c0-0.7,0.1-1.3,0.4-1.9c0.3-0.5,0.6-1,1.1-1.3c0.5-0.3,1-0.5,1.5-0.5
				c0.6,0,1.1,0.2,1.6,0.5c0.5,0.3,0.8,0.7,1.1,1.3C-39.7-11.2-39.6-10.6-39.6-9.9z M-40.4-9.9c0-0.6-0.1-1-0.3-1.5
				c-0.2-0.4-0.4-0.8-0.8-1s-0.7-0.4-1.1-0.4s-0.8,0.1-1.1,0.4c-0.3,0.2-0.6,0.6-0.8,1c-0.2,0.4-0.3,0.9-0.3,1.5
				c0,0.6,0.1,1,0.3,1.5c0.2,0.4,0.4,0.8,0.8,1c0.3,0.2,0.7,0.4,1.1,0.4s0.8-0.1,1.1-0.4c0.3-0.2,0.6-0.6,0.8-1
				C-40.5-8.9-40.4-9.3-40.4-9.9z"/>
		</g>
	</g>
	<g>
		<g>
			<path class="st1" d="M-135-195.4v-8.5h0.8v7.4l5.3-7.4h0.8v8.5h-0.8v-7.2l-5.2,7.2H-135z"/>
			<path class="st1" d="M-126.1-195.4v-6.2h0.8v2.7h0.9l2.1-2.7h0.9l-2.4,3l2.7,3.2h-1l-2.4-2.8h-0.9v2.8H-126.1z"/>
			<path class="st1" d="M-117.2-195.3c-0.5,0-0.9-0.1-1.3-0.3s-0.7-0.4-1-0.7c-0.3-0.3-0.5-0.6-0.6-1c-0.2-0.4-0.2-0.8-0.2-1.2
				c0-0.4,0.1-0.9,0.2-1.2c0.2-0.4,0.4-0.7,0.6-1c0.3-0.3,0.6-0.5,1-0.7s0.8-0.3,1.2-0.3c0.4,0,0.9,0.1,1.2,0.3s0.7,0.4,1,0.7
				c0.3,0.3,0.5,0.6,0.6,1c0.2,0.4,0.2,0.8,0.2,1.2c0,0.4-0.1,0.8-0.2,1.2c-0.2,0.4-0.4,0.7-0.6,1c-0.3,0.3-0.6,0.5-1,0.7
				S-116.8-195.3-117.2-195.3z M-119.5-198.5c0,0.5,0.1,0.9,0.3,1.3c0.2,0.4,0.5,0.7,0.8,0.9c0.3,0.2,0.7,0.3,1.1,0.3
				s0.8-0.1,1.1-0.3c0.3-0.2,0.6-0.5,0.8-0.9c0.2-0.4,0.3-0.8,0.3-1.3c0-0.5-0.1-0.9-0.3-1.3c-0.2-0.4-0.5-0.7-0.8-0.9
				c-0.3-0.2-0.7-0.3-1.1-0.3s-0.8,0.1-1.1,0.3c-0.3,0.2-0.6,0.5-0.8,0.9C-119.4-199.4-119.5-199-119.5-198.5z"/>
			<path class="st1" d="M-112.8-195.4v-6.2h0.8v2.7h3.6v-2.7h0.8v6.2h-0.8v-2.8h-3.6v2.8H-112.8z"/>
			<path class="st1" d="M-105.8-195.4v-6.2h0.8v2.7h0.9l2.1-2.7h0.9l-2.4,3l2.7,3.2h-1l-2.4-2.8h-0.9v2.8H-105.8z"/>
			<path class="st1" d="M-99.5-195.4v-6.2h0.8v5.1l3.8-5.1h0.7v6.2H-95v-5l-3.7,5H-99.5z"/>
			<path class="st1" d="M-90-194v-2.2h0.1c0.2,0,0.4-0.1,0.5-0.2c0.2-0.1,0.3-0.3,0.4-0.6s0.2-0.7,0.3-1.2s0.1-1.1,0.2-1.9l0.1-1.7
				h4.1v5.5h0.8v2.2h-0.7v-1.5h-5v1.5H-90z M-88.7-196.2h3.4v-4.8h-2.5l0,1.1c0,0.7-0.1,1.4-0.2,1.9c-0.1,0.5-0.2,0.9-0.3,1.2
				C-88.4-196.5-88.5-196.3-88.7-196.2z"/>
			<path class="st1" d="M-83-195.4v-0.7c0.2,0,0.4-0.1,0.6-0.2s0.3-0.3,0.5-0.6s0.2-0.7,0.3-1.1s0.1-1.1,0.2-1.9l0.1-1.7h4.1v6.2
				h-0.8v-5.5h-2.5l0,1.1c0,0.9-0.1,1.6-0.2,2.1c-0.1,0.6-0.2,1-0.4,1.4s-0.4,0.6-0.7,0.7C-82.3-195.5-82.6-195.4-83-195.4z"/>
			<path class="st1" d="M-76-195.4l1.9-2.5c-0.4-0.1-0.8-0.2-1-0.6c-0.3-0.3-0.4-0.7-0.4-1.3c0-0.4,0.1-0.7,0.3-1
				c0.2-0.3,0.4-0.5,0.7-0.7c0.3-0.2,0.7-0.3,1.1-0.3h2.4v6.2h-0.8v-2.4h-1.4l-1.8,2.4H-76z M-73.5-198.5h1.6v-2.5h-1.4
				c-0.4,0-0.7,0.1-1,0.4c-0.2,0.2-0.4,0.5-0.4,0.9c0,0.4,0.1,0.7,0.3,0.9C-74.2-198.6-73.9-198.5-73.5-198.5z"/>
			<path class="st1" d="M-66.3-195.4v-6.2h0.8v2.7h0.9l2.1-2.7h0.9l-2.4,3l2.7,3.2h-1l-2.4-2.8h-0.9v2.8H-66.3z"/>
			<path class="st1" d="M-60.5-197.2c0-0.4,0.1-0.7,0.3-1c0.2-0.3,0.5-0.5,0.9-0.7c0.4-0.2,0.9-0.2,1.4-0.2c0.3,0,0.6,0,0.9,0.1
				c0.3,0,0.6,0.1,0.9,0.2v-0.5c0-0.5-0.2-0.9-0.5-1.3c-0.3-0.3-0.7-0.5-1.3-0.5c-0.3,0-0.7,0.1-1,0.2c-0.3,0.1-0.7,0.3-1,0.5
				l-0.3-0.6c0.4-0.3,0.8-0.5,1.2-0.6c0.4-0.1,0.8-0.2,1.2-0.2c0.8,0,1.4,0.2,1.8,0.7c0.4,0.4,0.7,1,0.7,1.8v2.9
				c0,0.1,0,0.2,0.1,0.2s0.1,0.1,0.2,0.1v0.6c-0.1,0-0.2,0-0.2,0c-0.1,0-0.1,0-0.1,0c-0.2,0-0.4-0.1-0.5-0.2
				c-0.1-0.1-0.2-0.2-0.2-0.4l0-0.5c-0.3,0.4-0.6,0.6-1.1,0.8c-0.4,0.2-0.9,0.3-1.4,0.3c-0.4,0-0.8-0.1-1.1-0.3s-0.6-0.4-0.8-0.7
				C-60.4-196.6-60.5-196.9-60.5-197.2z M-56.3-196.8c0.1-0.1,0.2-0.2,0.2-0.3s0.1-0.2,0.1-0.3v-0.9c-0.3-0.1-0.6-0.2-0.8-0.2
				s-0.6-0.1-0.9-0.1c-0.6,0-1.1,0.1-1.4,0.3c-0.4,0.2-0.5,0.5-0.5,0.9c0,0.2,0.1,0.4,0.2,0.6c0.1,0.2,0.3,0.4,0.5,0.5
				c0.2,0.1,0.5,0.2,0.8,0.2c0.4,0,0.8-0.1,1.1-0.2C-56.8-196.3-56.5-196.5-56.3-196.8z"/>
			<path class="st1" d="M-50.3-195.3c-0.5,0-1-0.1-1.4-0.4c-0.4-0.3-0.7-0.6-1-1v3.8h-0.8v-8.8h0.7v1.2c0.2-0.4,0.6-0.7,1-0.9
				s0.9-0.4,1.3-0.4c0.4,0,0.8,0.1,1.2,0.3c0.4,0.2,0.7,0.4,0.9,0.7s0.5,0.6,0.6,1c0.1,0.4,0.2,0.8,0.2,1.2c0,0.6-0.1,1.1-0.4,1.6
				c-0.2,0.5-0.6,0.9-1,1.2C-49.2-195.5-49.7-195.3-50.3-195.3z M-50.5-196c0.3,0,0.7-0.1,0.9-0.2c0.3-0.1,0.5-0.3,0.7-0.6
				c0.2-0.2,0.3-0.5,0.5-0.8c0.1-0.3,0.2-0.6,0.2-0.9c0-0.3-0.1-0.7-0.2-1s-0.3-0.6-0.5-0.8c-0.2-0.2-0.5-0.4-0.7-0.5
				c-0.3-0.1-0.6-0.2-0.9-0.2c-0.2,0-0.4,0-0.6,0.1c-0.2,0.1-0.4,0.2-0.6,0.3c-0.2,0.1-0.4,0.3-0.5,0.5s-0.2,0.4-0.3,0.6v1.9
				c0.1,0.3,0.3,0.6,0.5,0.8c0.2,0.2,0.5,0.4,0.8,0.6C-51.1-196.1-50.8-196-50.5-196z"/>
			<path class="st1" d="M-44.5-195.4v-5.5h-2.2v-0.7h5.3v0.7h-2.2v5.5H-44.5z"/>
			<path class="st1" d="M-37.7-195.3c-0.5,0-0.9-0.1-1.3-0.3s-0.7-0.4-1-0.7c-0.3-0.3-0.5-0.6-0.6-1c-0.2-0.4-0.2-0.8-0.2-1.2
				c0-0.4,0.1-0.9,0.2-1.2c0.2-0.4,0.4-0.7,0.6-1s0.6-0.5,1-0.7s0.8-0.3,1.2-0.3s0.9,0.1,1.2,0.3s0.7,0.4,1,0.7s0.5,0.6,0.6,1
				c0.2,0.4,0.2,0.8,0.2,1.2c0,0.4-0.1,0.8-0.2,1.2c-0.2,0.4-0.4,0.7-0.6,1c-0.3,0.3-0.6,0.5-1,0.7
				C-36.8-195.4-37.2-195.3-37.7-195.3z M-40-198.5c0,0.5,0.1,0.9,0.3,1.3c0.2,0.4,0.5,0.7,0.8,0.9c0.3,0.2,0.7,0.3,1.1,0.3
				c0.4,0,0.8-0.1,1.1-0.3s0.6-0.5,0.8-0.9c0.2-0.4,0.3-0.8,0.3-1.3c0-0.5-0.1-0.9-0.3-1.3s-0.5-0.7-0.8-0.9
				c-0.3-0.2-0.7-0.3-1.1-0.3c-0.4,0-0.8,0.1-1.1,0.3c-0.3,0.2-0.6,0.5-0.8,0.9C-39.9-199.4-40-199-40-198.5z"/>
			<path class="st1" d="M-29.6-195.4v-2.6c-0.3,0.1-0.5,0.2-0.8,0.3s-0.6,0.1-0.9,0.1c-0.7,0-1.2-0.2-1.6-0.5
				c-0.3-0.4-0.5-0.9-0.5-1.6v-1.8h0.8v1.7c0,0.6,0.1,1,0.3,1.2c0.2,0.3,0.6,0.4,1.1,0.4c0.3,0,0.6,0,0.8-0.1
				c0.3-0.1,0.5-0.1,0.7-0.3v-3h0.8v6.2H-29.6z"/>
			<path class="st1" d="M-24.3-195.3c-0.4,0-0.9-0.1-1.2-0.3c-0.4-0.2-0.7-0.4-1-0.7c-0.3-0.3-0.5-0.6-0.7-1s-0.2-0.8-0.2-1.3
				c0-0.6,0.1-1.1,0.4-1.6c0.3-0.5,0.6-0.9,1.1-1.2c0.5-0.3,1-0.4,1.6-0.4c0.6,0,1.2,0.1,1.6,0.4s0.8,0.7,1.1,1.2
				c0.3,0.5,0.4,1,0.4,1.6c0,0.1,0,0.1,0,0.2s0,0.1,0,0.1h-5.4c0,0.4,0.2,0.8,0.4,1.2s0.5,0.6,0.8,0.8c0.3,0.2,0.7,0.3,1.1,0.3
				c0.4,0,0.8-0.1,1.2-0.3s0.6-0.5,0.8-0.8l0.7,0.2c-0.1,0.3-0.3,0.6-0.6,0.8c-0.3,0.2-0.6,0.4-0.9,0.6
				C-23.5-195.4-23.9-195.3-24.3-195.3z M-26.6-198.9h4.6c0-0.5-0.2-0.8-0.4-1.2c-0.2-0.3-0.5-0.6-0.8-0.8s-0.7-0.3-1.1-0.3
				c-0.4,0-0.8,0.1-1.1,0.3s-0.6,0.5-0.8,0.8C-26.5-199.7-26.6-199.3-26.6-198.9z"/>
			<path class="st1" d="M-20-195.4v-6.2h0.8v2.7h0.9l2.1-2.7h0.9l-2.4,3l2.7,3.2h-1l-2.4-2.8h-0.9v2.8H-20z"/>
			<path class="st1" d="M-10-192.9c-0.1,0-0.3,0-0.4-0.1c-0.1,0-0.3-0.1-0.4-0.2l0.3-0.6c0.1,0,0.2,0.1,0.2,0.1c0.1,0,0.2,0,0.2,0
				c0.2,0,0.4-0.1,0.6-0.3c0.2-0.2,0.4-0.5,0.5-0.9l0.3-0.8l-2.8-6.1h0.9l2.3,5.4l2.1-5.4h0.8l-3,7.2c-0.2,0.4-0.3,0.7-0.5,0.9
				c-0.2,0.2-0.4,0.4-0.6,0.5C-9.6-192.9-9.8-192.9-10-192.9z"/>
			<path class="st1" d="M-1.5-195.3c-0.5,0-0.9-0.1-1.3-0.3c-0.4-0.2-0.7-0.4-1-0.7c-0.3-0.3-0.5-0.6-0.7-1s-0.2-0.8-0.2-1.2
				c0-0.6,0.1-1.1,0.4-1.6c0.3-0.5,0.6-0.9,1.1-1.2c0.5-0.3,1-0.4,1.6-0.4c0.6,0,1.1,0.1,1.5,0.4c0.4,0.3,0.8,0.6,1,1.1L0.3-200
				c-0.2-0.3-0.4-0.6-0.7-0.8c-0.3-0.2-0.7-0.3-1-0.3c-0.4,0-0.8,0.1-1.1,0.3s-0.6,0.5-0.8,0.9c-0.2,0.4-0.3,0.8-0.3,1.3
				c0,0.5,0.1,0.9,0.3,1.3c0.2,0.4,0.5,0.7,0.8,0.9c0.3,0.2,0.7,0.3,1.1,0.3c0.3,0,0.5,0,0.8-0.1c0.3-0.1,0.5-0.2,0.7-0.4
				c0.2-0.2,0.3-0.3,0.4-0.5l0.8,0.2c-0.1,0.3-0.3,0.6-0.6,0.8c-0.3,0.2-0.6,0.4-0.9,0.6C-0.7-195.4-1.1-195.3-1.5-195.3z"/>
			<path class="st1" d="M1.8-195.4v-0.7c0.2,0,0.4-0.1,0.6-0.2s0.3-0.3,0.5-0.6s0.2-0.7,0.3-1.1s0.1-1.1,0.2-1.9l0.1-1.7h4.1v6.2
				H6.6v-5.5H4.1l0,1.1c0,0.9-0.1,1.6-0.2,2.1c-0.1,0.6-0.2,1-0.4,1.4c-0.2,0.3-0.4,0.6-0.7,0.7C2.5-195.5,2.2-195.4,1.8-195.4z"/>
			<path class="st1" d="M9.9-192.9c-0.1,0-0.3,0-0.4-0.1c-0.1,0-0.3-0.1-0.4-0.2l0.3-0.6c0.1,0,0.2,0.1,0.2,0.1c0.1,0,0.2,0,0.2,0
				c0.2,0,0.4-0.1,0.6-0.3c0.2-0.2,0.4-0.5,0.5-0.9l0.3-0.8l-2.8-6.1h0.9l2.3,5.4l2.1-5.4h0.8l-3,7.2c-0.2,0.4-0.3,0.7-0.5,0.9
				c-0.2,0.2-0.4,0.4-0.6,0.5C10.4-192.9,10.1-192.9,9.9-192.9z"/>
			<path class="st1" d="M15.7-195.4v-6.2h3.7v0.7h-2.9v5.5H15.7z"/>
		</g>
	</g>
	<g>
		<g>
			<path class="st1" d="M-141-279.4v-8.5h0.8v7.4l5.3-7.4h0.8v8.5h-0.8v-7.2l-5.2,7.2H-141z"/>
			<path class="st1" d="M-132.1-279.4v-6.2h0.8v2.7h0.9l2.1-2.7h0.9l-2.4,3l2.7,3.2h-1l-2.4-2.8h-0.9v2.8H-132.1z"/>
			<path class="st1" d="M-123.2-279.3c-0.5,0-0.9-0.1-1.3-0.3s-0.7-0.4-1-0.7c-0.3-0.3-0.5-0.6-0.6-1c-0.2-0.4-0.2-0.8-0.2-1.2
				c0-0.4,0.1-0.9,0.2-1.2c0.2-0.4,0.4-0.7,0.6-1c0.3-0.3,0.6-0.5,1-0.7s0.8-0.3,1.2-0.3c0.4,0,0.9,0.1,1.2,0.3s0.7,0.4,1,0.7
				c0.3,0.3,0.5,0.6,0.6,1c0.2,0.4,0.2,0.8,0.2,1.2c0,0.4-0.1,0.8-0.2,1.2c-0.2,0.4-0.4,0.7-0.6,1c-0.3,0.3-0.6,0.5-1,0.7
				S-122.8-279.3-123.2-279.3z M-125.5-282.5c0,0.5,0.1,0.9,0.3,1.3c0.2,0.4,0.5,0.7,0.8,0.9c0.3,0.2,0.7,0.3,1.1,0.3
				s0.8-0.1,1.1-0.3c0.3-0.2,0.6-0.5,0.8-0.9c0.2-0.4,0.3-0.8,0.3-1.3c0-0.5-0.1-0.9-0.3-1.3c-0.2-0.4-0.5-0.7-0.8-0.9
				c-0.3-0.2-0.7-0.3-1.1-0.3s-0.8,0.1-1.1,0.3c-0.3,0.2-0.6,0.5-0.8,0.9C-125.4-283.4-125.5-283-125.5-282.5z"/>
			<path class="st1" d="M-118.8-279.4v-6.2h0.8v2.7h3.6v-2.7h0.8v6.2h-0.8v-2.8h-3.6v2.8H-118.8z"/>
			<path class="st1" d="M-111.8-279.4v-6.2h0.8v2.7h0.9l2.1-2.7h0.9l-2.4,3l2.7,3.2h-1l-2.4-2.8h-0.9v2.8H-111.8z"/>
			<path class="st1" d="M-105.5-279.4v-6.2h0.8v5.1l3.8-5.1h0.7v6.2h-0.8v-5l-3.7,5H-105.5z"/>
			<path class="st1" d="M-96-278v-2.2h0.1c0.2,0,0.4-0.1,0.5-0.2c0.2-0.1,0.3-0.3,0.4-0.6s0.2-0.7,0.3-1.2s0.1-1.1,0.2-1.9l0.1-1.7
				h4.1v5.5h0.8v2.2h-0.7v-1.5h-5v1.5H-96z M-94.7-280.2h3.4v-4.8h-2.5l0,1.1c0,0.7-0.1,1.4-0.2,1.9c-0.1,0.5-0.2,0.9-0.3,1.2
				C-94.4-280.5-94.5-280.3-94.7-280.2z"/>
			<path class="st1" d="M-89-279.4v-0.7c0.2,0,0.4-0.1,0.6-0.2s0.3-0.3,0.5-0.6s0.2-0.7,0.3-1.1s0.1-1.1,0.2-1.9l0.1-1.7h4.1v6.2
				h-0.8v-5.5h-2.5l0,1.1c0,0.9-0.1,1.6-0.2,2.1c-0.1,0.6-0.2,1-0.4,1.4s-0.4,0.6-0.7,0.7C-88.3-279.5-88.6-279.4-89-279.4z"/>
			<path class="st1" d="M-82-279.4l1.9-2.5c-0.4-0.1-0.8-0.2-1-0.6c-0.3-0.3-0.4-0.7-0.4-1.3c0-0.4,0.1-0.7,0.3-1
				c0.2-0.3,0.4-0.5,0.7-0.7c0.3-0.2,0.7-0.3,1.1-0.3h2.4v6.2h-0.8v-2.4h-1.4l-1.8,2.4H-82z M-79.5-282.5h1.6v-2.5h-1.4
				c-0.4,0-0.7,0.1-1,0.4c-0.2,0.2-0.4,0.5-0.4,0.9c0,0.4,0.1,0.7,0.3,0.9C-80.2-282.6-79.9-282.5-79.5-282.5z"/>
			<path class="st1" d="M-72.3-279.4v-6.2h0.8v2.7h0.9l2.1-2.7h0.9l-2.4,3l2.7,3.2h-1l-2.4-2.8h-0.9v2.8H-72.3z"/>
			<path class="st1" d="M-66.5-281.2c0-0.4,0.1-0.7,0.3-1c0.2-0.3,0.5-0.5,0.9-0.7c0.4-0.2,0.9-0.2,1.4-0.2c0.3,0,0.6,0,0.9,0.1
				c0.3,0,0.6,0.1,0.9,0.2v-0.5c0-0.5-0.2-0.9-0.5-1.3c-0.3-0.3-0.7-0.5-1.3-0.5c-0.3,0-0.7,0.1-1,0.2c-0.3,0.1-0.7,0.3-1,0.5
				l-0.3-0.6c0.4-0.3,0.8-0.5,1.2-0.6c0.4-0.1,0.8-0.2,1.2-0.2c0.8,0,1.4,0.2,1.8,0.7c0.4,0.4,0.7,1,0.7,1.8v2.9
				c0,0.1,0,0.2,0.1,0.2s0.1,0.1,0.2,0.1v0.6c-0.1,0-0.2,0-0.2,0c-0.1,0-0.1,0-0.1,0c-0.2,0-0.4-0.1-0.5-0.2
				c-0.1-0.1-0.2-0.2-0.2-0.4l0-0.5c-0.3,0.4-0.6,0.6-1.1,0.8c-0.4,0.2-0.9,0.3-1.4,0.3c-0.4,0-0.8-0.1-1.1-0.3s-0.6-0.4-0.8-0.7
				C-66.4-280.6-66.5-280.9-66.5-281.2z M-62.3-280.8c0.1-0.1,0.2-0.2,0.2-0.3s0.1-0.2,0.1-0.3v-0.9c-0.3-0.1-0.6-0.2-0.8-0.2
				s-0.6-0.1-0.9-0.1c-0.6,0-1.1,0.1-1.4,0.3c-0.4,0.2-0.5,0.5-0.5,0.9c0,0.2,0.1,0.4,0.2,0.6c0.1,0.2,0.3,0.4,0.5,0.5
				c0.2,0.1,0.5,0.2,0.8,0.2c0.4,0,0.8-0.1,1.1-0.2C-62.8-280.3-62.5-280.5-62.3-280.8z"/>
			<path class="st1" d="M-56.3-279.3c-0.5,0-1-0.1-1.4-0.4c-0.4-0.3-0.7-0.6-1-1v3.8h-0.8v-8.8h0.7v1.2c0.2-0.4,0.6-0.7,1-0.9
				s0.9-0.4,1.3-0.4c0.4,0,0.8,0.1,1.2,0.3c0.4,0.2,0.7,0.4,0.9,0.7s0.5,0.6,0.6,1c0.1,0.4,0.2,0.8,0.2,1.2c0,0.6-0.1,1.1-0.4,1.6
				c-0.2,0.5-0.6,0.9-1,1.2C-55.2-279.5-55.7-279.3-56.3-279.3z M-56.5-280c0.3,0,0.7-0.1,0.9-0.2c0.3-0.1,0.5-0.3,0.7-0.6
				c0.2-0.2,0.3-0.5,0.5-0.8c0.1-0.3,0.2-0.6,0.2-0.9c0-0.3-0.1-0.7-0.2-1s-0.3-0.6-0.5-0.8c-0.2-0.2-0.5-0.4-0.7-0.5
				c-0.3-0.1-0.6-0.2-0.9-0.2c-0.2,0-0.4,0-0.6,0.1c-0.2,0.1-0.4,0.2-0.6,0.3c-0.2,0.1-0.4,0.3-0.5,0.5s-0.2,0.4-0.3,0.6v1.9
				c0.1,0.3,0.3,0.6,0.5,0.8c0.2,0.2,0.5,0.4,0.8,0.6C-57.1-280.1-56.8-280-56.5-280z"/>
			<path class="st1" d="M-50.5-279.4v-5.5h-2.2v-0.7h5.3v0.7h-2.2v5.5H-50.5z"/>
			<path class="st1" d="M-43.7-279.3c-0.5,0-0.9-0.1-1.3-0.3s-0.7-0.4-1-0.7c-0.3-0.3-0.5-0.6-0.6-1c-0.2-0.4-0.2-0.8-0.2-1.2
				c0-0.4,0.1-0.9,0.2-1.2c0.2-0.4,0.4-0.7,0.6-1s0.6-0.5,1-0.7s0.8-0.3,1.2-0.3s0.9,0.1,1.2,0.3s0.7,0.4,1,0.7s0.5,0.6,0.6,1
				c0.2,0.4,0.2,0.8,0.2,1.2c0,0.4-0.1,0.8-0.2,1.2c-0.2,0.4-0.4,0.7-0.6,1c-0.3,0.3-0.6,0.5-1,0.7
				C-42.8-279.4-43.2-279.3-43.7-279.3z M-46-282.5c0,0.5,0.1,0.9,0.3,1.3c0.2,0.4,0.5,0.7,0.8,0.9c0.3,0.2,0.7,0.3,1.1,0.3
				c0.4,0,0.8-0.1,1.1-0.3s0.6-0.5,0.8-0.9c0.2-0.4,0.3-0.8,0.3-1.3c0-0.5-0.1-0.9-0.3-1.3s-0.5-0.7-0.8-0.9
				c-0.3-0.2-0.7-0.3-1.1-0.3c-0.4,0-0.8,0.1-1.1,0.3c-0.3,0.2-0.6,0.5-0.8,0.9C-45.9-283.4-46-283-46-282.5z"/>
			<path class="st1" d="M-35.6-279.4v-2.6c-0.3,0.1-0.5,0.2-0.8,0.3s-0.6,0.1-0.9,0.1c-0.7,0-1.2-0.2-1.6-0.5
				c-0.3-0.4-0.5-0.9-0.5-1.6v-1.8h0.8v1.7c0,0.6,0.1,1,0.3,1.2c0.2,0.3,0.6,0.4,1.1,0.4c0.3,0,0.6,0,0.8-0.1
				c0.3-0.1,0.5-0.1,0.7-0.3v-3h0.8v6.2H-35.6z"/>
			<path class="st1" d="M-30.3-279.3c-0.4,0-0.9-0.1-1.2-0.3c-0.4-0.2-0.7-0.4-1-0.7c-0.3-0.3-0.5-0.6-0.7-1s-0.2-0.8-0.2-1.3
				c0-0.6,0.1-1.1,0.4-1.6c0.3-0.5,0.6-0.9,1.1-1.2c0.5-0.3,1-0.4,1.6-0.4c0.6,0,1.2,0.1,1.6,0.4s0.8,0.7,1.1,1.2
				c0.3,0.5,0.4,1,0.4,1.6c0,0.1,0,0.1,0,0.2s0,0.1,0,0.1h-5.4c0,0.4,0.2,0.8,0.4,1.2s0.5,0.6,0.8,0.8c0.3,0.2,0.7,0.3,1.1,0.3
				c0.4,0,0.8-0.1,1.2-0.3s0.6-0.5,0.8-0.8l0.7,0.2c-0.1,0.3-0.3,0.6-0.6,0.8c-0.3,0.2-0.6,0.4-0.9,0.6
				C-29.5-279.4-29.9-279.3-30.3-279.3z M-32.6-282.9h4.6c0-0.5-0.2-0.8-0.4-1.2c-0.2-0.3-0.5-0.6-0.8-0.8s-0.7-0.3-1.1-0.3
				c-0.4,0-0.8,0.1-1.1,0.3s-0.6,0.5-0.8,0.8C-32.5-283.7-32.6-283.3-32.6-282.9z"/>
			<path class="st1" d="M-26-279.4v-6.2h0.8v2.7h0.9l2.1-2.7h0.9l-2.4,3l2.7,3.2h-1l-2.4-2.8h-0.9v2.8H-26z"/>
			<path class="st1" d="M-16-276.9c-0.1,0-0.3,0-0.4-0.1c-0.1,0-0.3-0.1-0.4-0.2l0.3-0.6c0.1,0,0.2,0.1,0.2,0.1c0.1,0,0.2,0,0.2,0
				c0.2,0,0.4-0.1,0.6-0.3c0.2-0.2,0.4-0.5,0.5-0.9l0.3-0.8l-2.8-6.1h0.9l2.3,5.4l2.1-5.4h0.8l-3,7.2c-0.2,0.4-0.3,0.7-0.5,0.9
				c-0.2,0.2-0.4,0.4-0.6,0.5C-15.6-276.9-15.8-276.9-16-276.9z"/>
			<path class="st1" d="M-7.5-279.3c-0.5,0-0.9-0.1-1.3-0.3c-0.4-0.2-0.7-0.4-1-0.7c-0.3-0.3-0.5-0.6-0.7-1s-0.2-0.8-0.2-1.2
				c0-0.6,0.1-1.1,0.4-1.6c0.3-0.5,0.6-0.9,1.1-1.2c0.5-0.3,1-0.4,1.6-0.4c0.6,0,1.1,0.1,1.5,0.4c0.4,0.3,0.8,0.6,1,1.1l-0.8,0.3
				c-0.2-0.3-0.4-0.6-0.7-0.8c-0.3-0.2-0.7-0.3-1-0.3c-0.4,0-0.8,0.1-1.1,0.3s-0.6,0.5-0.8,0.9c-0.2,0.4-0.3,0.8-0.3,1.3
				c0,0.5,0.1,0.9,0.3,1.3c0.2,0.4,0.5,0.7,0.8,0.9c0.3,0.2,0.7,0.3,1.1,0.3c0.3,0,0.5,0,0.8-0.1c0.3-0.1,0.5-0.2,0.7-0.4
				c0.2-0.2,0.3-0.3,0.4-0.5l0.8,0.2c-0.1,0.3-0.3,0.6-0.6,0.8c-0.3,0.2-0.6,0.4-0.9,0.6C-6.7-279.4-7.1-279.3-7.5-279.3z"/>
			<path class="st1" d="M-4.2-279.4v-0.7c0.2,0,0.4-0.1,0.6-0.2s0.3-0.3,0.5-0.6s0.2-0.7,0.3-1.1s0.1-1.1,0.2-1.9l0.1-1.7h4.1v6.2
				H0.6v-5.5h-2.5l0,1.1c0,0.9-0.1,1.6-0.2,2.1c-0.1,0.6-0.2,1-0.4,1.4c-0.2,0.3-0.4,0.6-0.7,0.7C-3.5-279.5-3.8-279.4-4.2-279.4z"
				/>
			<path class="st1" d="M3.9-276.9c-0.1,0-0.3,0-0.4-0.1c-0.1,0-0.3-0.1-0.4-0.2l0.3-0.6c0.1,0,0.2,0.1,0.2,0.1c0.1,0,0.2,0,0.2,0
				c0.2,0,0.4-0.1,0.6-0.3c0.2-0.2,0.4-0.5,0.5-0.9l0.3-0.8l-2.8-6.1h0.9l2.3,5.4l2.1-5.4h0.8l-3,7.2c-0.2,0.4-0.3,0.7-0.5,0.9
				c-0.2,0.2-0.4,0.4-0.6,0.5C4.4-276.9,4.1-276.9,3.9-276.9z"/>
			<path class="st1" d="M9.7-279.4v-6.2h3.7v0.7h-2.9v5.5H9.7z"/>
			<path class="st1" d="M17.8-288l3,7.5l3-7.5h0.9l-3.5,8.5h-0.8l-3.5-8.5H17.8z"/>
			<path class="st1" d="M25.4-279.4c0-0.3,0-0.6,0.1-0.8c0-0.3,0.1-0.6,0.3-0.8c0.1-0.3,0.3-0.5,0.6-0.8c0.3-0.3,0.6-0.5,1-0.7
				c0.2-0.1,0.5-0.2,0.7-0.4c0.2-0.1,0.5-0.2,0.7-0.4c0.2-0.1,0.4-0.3,0.5-0.5s0.2-0.4,0.2-0.6c0-0.2-0.1-0.4-0.2-0.6
				s-0.3-0.4-0.5-0.5c-0.2-0.1-0.5-0.2-0.9-0.2c-0.3,0-0.5,0-0.7,0.1c-0.2,0.1-0.4,0.2-0.6,0.3c-0.2,0.1-0.3,0.2-0.4,0.3
				s-0.2,0.2-0.3,0.3l-0.5-0.6c0,0,0.1-0.1,0.3-0.3c0.1-0.1,0.3-0.3,0.5-0.4c0.2-0.1,0.5-0.3,0.8-0.3c0.3-0.1,0.6-0.1,1-0.1
				c0.5,0,0.9,0.1,1.3,0.3c0.3,0.2,0.6,0.4,0.8,0.7c0.2,0.3,0.3,0.6,0.3,0.9c0,0.3-0.1,0.6-0.2,0.9s-0.3,0.4-0.5,0.6
				c-0.2,0.2-0.4,0.3-0.7,0.5c-0.2,0.1-0.5,0.2-0.6,0.3c-0.4,0.2-0.7,0.4-0.9,0.5c-0.3,0.2-0.5,0.4-0.6,0.5
				c-0.2,0.2-0.3,0.4-0.4,0.5s-0.1,0.4-0.2,0.5h4.3v0.7H25.4z"/>
		</g>
	</g>
	<g>
		<g>
			<path class="st1" d="M-188-112.9v-8.5h0.8v7.4l5.3-7.4h0.8v8.5h-0.8v-7.2l-5.2,7.2H-188z"/>
			<path class="st1" d="M-179.1-112.9v-6.2h0.8v2.7h0.9l2.1-2.7h0.9l-2.4,3l2.7,3.2h-1l-2.4-2.8h-0.9v2.8H-179.1z"/>
			<path class="st1" d="M-170.2-112.8c-0.5,0-0.9-0.1-1.3-0.3s-0.7-0.4-1-0.7c-0.3-0.3-0.5-0.6-0.6-1c-0.2-0.4-0.2-0.8-0.2-1.2
				c0-0.4,0.1-0.9,0.2-1.2c0.2-0.4,0.4-0.7,0.6-1c0.3-0.3,0.6-0.5,1-0.7s0.8-0.3,1.2-0.3c0.4,0,0.9,0.1,1.2,0.3s0.7,0.4,1,0.7
				c0.3,0.3,0.5,0.6,0.6,1c0.2,0.4,0.2,0.8,0.2,1.2c0,0.4-0.1,0.8-0.2,1.2c-0.2,0.4-0.4,0.7-0.6,1c-0.3,0.3-0.6,0.5-1,0.7
				S-169.7-112.8-170.2-112.8z M-172.5-116c0,0.5,0.1,0.9,0.3,1.3c0.2,0.4,0.5,0.7,0.8,0.9c0.3,0.2,0.7,0.3,1.1,0.3s0.8-0.1,1.1-0.3
				c0.3-0.2,0.6-0.5,0.8-0.9c0.2-0.4,0.3-0.8,0.3-1.3c0-0.5-0.1-0.9-0.3-1.3c-0.2-0.4-0.5-0.7-0.8-0.9c-0.3-0.2-0.7-0.3-1.1-0.3
				s-0.8,0.1-1.1,0.3c-0.3,0.2-0.6,0.5-0.8,0.9C-172.4-116.9-172.5-116.4-172.5-116z"/>
			<path class="st1" d="M-165.7-112.9v-6.2h0.8v2.7h3.6v-2.7h0.8v6.2h-0.8v-2.8h-3.6v2.8H-165.7z"/>
			<path class="st1" d="M-158.7-112.9v-6.2h0.8v2.7h0.9l2.1-2.7h0.9l-2.4,3l2.7,3.2h-1l-2.4-2.8h-0.9v2.8H-158.7z"/>
			<path class="st1" d="M-152.5-112.9v-6.2h0.8v5.1l3.8-5.1h0.7v6.2h-0.8v-5l-3.7,5H-152.5z"/>
			<path class="st1" d="M-142.3-112.9v-6.2h3.1c0.4,0,0.6,0.1,0.9,0.2s0.4,0.3,0.5,0.6s0.2,0.5,0.2,0.7c0,0.3-0.1,0.6-0.2,0.9
				c-0.2,0.3-0.4,0.5-0.7,0.6c0.4,0.1,0.7,0.3,0.9,0.6s0.3,0.6,0.3,1c0,0.3-0.1,0.6-0.2,0.9c-0.2,0.2-0.4,0.4-0.7,0.6
				c-0.3,0.1-0.6,0.2-1,0.2H-142.3z M-141.5-116.3h2.1c0.2,0,0.4-0.1,0.6-0.2c0.2-0.1,0.3-0.3,0.4-0.4s0.1-0.4,0.1-0.5
				c0-0.3-0.1-0.5-0.3-0.8s-0.4-0.3-0.7-0.3h-2.2V-116.3z M-141.5-113.5h2.3c0.2,0,0.4-0.1,0.6-0.2c0.2-0.1,0.3-0.2,0.4-0.4
				s0.1-0.4,0.1-0.5c0-0.2,0-0.4-0.1-0.6c-0.1-0.2-0.2-0.3-0.4-0.4s-0.3-0.2-0.6-0.2h-2.4V-113.5z"/>
			<path class="st1" d="M-135.9-112.9v-6.2h0.8v2.7h3.6v-2.7h0.8v6.2h-0.8v-2.8h-3.6v2.8H-135.9z"/>
			<path class="st1" d="M-128.2-110.3c-0.1,0-0.3,0-0.4-0.1c-0.1,0-0.3-0.1-0.4-0.2l0.3-0.6c0.1,0,0.2,0.1,0.2,0.1
				c0.1,0,0.2,0,0.2,0c0.2,0,0.4-0.1,0.6-0.3s0.4-0.5,0.5-0.9l0.3-0.8l-2.8-6.1h0.9l2.3,5.4l2.1-5.4h0.8l-3,7.2
				c-0.2,0.4-0.3,0.7-0.5,0.9c-0.2,0.2-0.4,0.4-0.6,0.5C-127.8-110.4-128-110.3-128.2-110.3z"/>
			<path class="st1" d="M-120.8-112.9v-5.5h-2.2v-0.7h5.3v0.7h-2.2v5.5H-120.8z"/>
			<path class="st1" d="M-113.5-112.8c-0.5,0-1-0.1-1.4-0.4s-0.7-0.6-1-1v3.8h-0.8v-8.8h0.7v1.2c0.2-0.4,0.6-0.7,1-0.9
				s0.9-0.4,1.3-0.4c0.4,0,0.8,0.1,1.2,0.3c0.4,0.2,0.7,0.4,0.9,0.7s0.5,0.6,0.6,1c0.1,0.4,0.2,0.8,0.2,1.2c0,0.6-0.1,1.1-0.4,1.6
				s-0.6,0.9-1,1.2C-112.4-112.9-112.9-112.8-113.5-112.8z M-113.7-113.5c0.3,0,0.7-0.1,0.9-0.2c0.3-0.1,0.5-0.3,0.7-0.6
				c0.2-0.2,0.3-0.5,0.4-0.8c0.1-0.3,0.2-0.6,0.2-0.9c0-0.3-0.1-0.7-0.2-1c-0.1-0.3-0.3-0.6-0.5-0.8c-0.2-0.2-0.5-0.4-0.7-0.5
				c-0.3-0.1-0.6-0.2-0.9-0.2c-0.2,0-0.4,0-0.6,0.1c-0.2,0.1-0.4,0.2-0.6,0.3c-0.2,0.1-0.4,0.3-0.5,0.5c-0.1,0.2-0.2,0.4-0.3,0.6
				v1.9c0.1,0.3,0.3,0.6,0.5,0.8c0.2,0.2,0.5,0.4,0.8,0.6C-114.3-113.6-114-113.5-113.7-113.5z"/>
			<path class="st1" d="M-109.3-112.9v-6.2h0.8v5.1l3.8-5.1h0.7v6.2h-0.8v-5l-3.7,5H-109.3z"/>
			<path class="st1" d="M-98.4-110.3c-0.1,0-0.3,0-0.4-0.1c-0.1,0-0.3-0.1-0.4-0.2l0.3-0.6c0.1,0,0.2,0.1,0.2,0.1c0.1,0,0.2,0,0.2,0
				c0.2,0,0.4-0.1,0.6-0.3s0.4-0.5,0.5-0.9l0.3-0.8l-2.8-6.1h0.9l2.3,5.4l2.1-5.4h0.8l-3,7.2c-0.2,0.4-0.3,0.7-0.5,0.9
				c-0.2,0.2-0.4,0.4-0.6,0.5C-97.9-110.4-98.1-110.3-98.4-110.3z"/>
			<path class="st1" d="M-89.8-112.8c-0.5,0-0.9-0.1-1.3-0.3c-0.4-0.2-0.7-0.4-1-0.7c-0.3-0.3-0.5-0.6-0.7-1s-0.2-0.8-0.2-1.2
				c0-0.6,0.1-1.1,0.4-1.6c0.3-0.5,0.6-0.9,1.1-1.2c0.5-0.3,1-0.4,1.6-0.4c0.6,0,1.1,0.1,1.5,0.4c0.4,0.3,0.8,0.6,1,1.1l-0.8,0.3
				c-0.2-0.3-0.4-0.6-0.7-0.8c-0.3-0.2-0.7-0.3-1-0.3c-0.4,0-0.8,0.1-1.1,0.3s-0.6,0.5-0.8,0.9c-0.2,0.4-0.3,0.8-0.3,1.3
				c0,0.5,0.1,0.9,0.3,1.3c0.2,0.4,0.5,0.7,0.8,0.9c0.3,0.2,0.7,0.3,1.1,0.3c0.3,0,0.5,0,0.8-0.1c0.3-0.1,0.5-0.2,0.7-0.4
				c0.2-0.2,0.3-0.3,0.4-0.5l0.8,0.2c-0.1,0.3-0.3,0.6-0.6,0.8c-0.3,0.2-0.6,0.4-0.9,0.6C-89.1-112.8-89.4-112.8-89.8-112.8z"/>
			<path class="st1" d="M-86.6-112.9v-0.7c0.2,0,0.4-0.1,0.6-0.2s0.3-0.3,0.5-0.6s0.2-0.7,0.3-1.1s0.1-1.1,0.2-1.9l0.1-1.7h4.1v6.2
				h-0.8v-5.5h-2.5l0,1.1c0,0.9-0.1,1.6-0.2,2.1c-0.1,0.6-0.2,1-0.4,1.4c-0.2,0.3-0.4,0.6-0.7,0.7C-85.9-113-86.2-112.9-86.6-112.9z
				"/>
			<path class="st1" d="M-78.4-110.3c-0.1,0-0.3,0-0.4-0.1c-0.1,0-0.3-0.1-0.4-0.2l0.3-0.6c0.1,0,0.2,0.1,0.2,0.1c0.1,0,0.2,0,0.2,0
				c0.2,0,0.4-0.1,0.6-0.3c0.2-0.2,0.4-0.5,0.5-0.9l0.3-0.8l-2.8-6.1h0.9l2.3,5.4l2.1-5.4h0.8l-3,7.2c-0.2,0.4-0.3,0.7-0.5,0.9
				c-0.2,0.2-0.4,0.4-0.6,0.5C-78-110.4-78.2-110.3-78.4-110.3z"/>
			<path class="st1" d="M-72.6-112.9v-6.2h3.7v0.7h-2.9v5.5H-72.6z"/>
		</g>
	</g>
	<g>
		<g>
			<path class="st1" d="M339-118.9v-8.5h0.8v7.4l5.3-7.4h0.8v8.5h-0.8v-7.2l-5.2,7.2H339z"/>
			<path class="st1" d="M347.9-118.9v-6.2h0.8v2.7h0.9l2.1-2.7h0.9l-2.4,3l2.7,3.2h-1l-2.4-2.8h-0.9v2.8H347.9z"/>
			<path class="st1" d="M356.8-118.8c-0.5,0-0.9-0.1-1.3-0.3s-0.7-0.4-1-0.7c-0.3-0.3-0.5-0.6-0.6-1c-0.2-0.4-0.2-0.8-0.2-1.2
				c0-0.4,0.1-0.9,0.2-1.2c0.2-0.4,0.4-0.7,0.6-1s0.6-0.5,1-0.7c0.4-0.2,0.8-0.3,1.2-0.3c0.4,0,0.9,0.1,1.2,0.3s0.7,0.4,1,0.7
				c0.3,0.3,0.5,0.6,0.6,1c0.2,0.4,0.2,0.8,0.2,1.2c0,0.4-0.1,0.8-0.2,1.2c-0.2,0.4-0.4,0.7-0.6,1c-0.3,0.3-0.6,0.5-1,0.7
				S357.3-118.8,356.8-118.8z M354.5-122c0,0.5,0.1,0.9,0.3,1.3c0.2,0.4,0.5,0.7,0.8,0.9c0.3,0.2,0.7,0.3,1.1,0.3s0.8-0.1,1.1-0.3
				c0.3-0.2,0.6-0.5,0.8-0.9c0.2-0.4,0.3-0.8,0.3-1.3c0-0.5-0.1-0.9-0.3-1.3c-0.2-0.4-0.5-0.7-0.8-0.9c-0.3-0.2-0.7-0.3-1.1-0.3
				s-0.8,0.1-1.1,0.3c-0.3,0.2-0.6,0.5-0.8,0.9C354.6-122.9,354.5-122.4,354.5-122z"/>
			<path class="st1" d="M361.3-118.9v-6.2h0.8v2.7h3.6v-2.7h0.8v6.2h-0.8v-2.8h-3.6v2.8H361.3z"/>
			<path class="st1" d="M368.3-118.9v-6.2h0.8v2.7h0.9l2.1-2.7h0.9l-2.4,3l2.7,3.2h-1l-2.4-2.8h-0.9v2.8H368.3z"/>
			<path class="st1" d="M374.5-118.9v-6.2h0.8v5.1l3.8-5.1h0.7v6.2H379v-5l-3.7,5H374.5z"/>
			<path class="st1" d="M390.6-118.9v-7.8h-3.5l0,1.8c0,1.2-0.1,2.2-0.3,2.9c-0.1,0.8-0.3,1.4-0.5,1.8c-0.2,0.4-0.5,0.8-0.9,0.9
				c-0.3,0.2-0.7,0.3-1.2,0.3v-0.7c0.3,0,0.6-0.1,0.8-0.2c0.2-0.2,0.4-0.4,0.6-0.8s0.3-1,0.4-1.7c0.1-0.7,0.2-1.6,0.2-2.7l0.1-2.4
				h5.1v8.5H390.6z"/>
			<path class="st1" d="M396.1-118.8c-0.5,0-0.9-0.1-1.3-0.3s-0.7-0.4-1-0.7c-0.3-0.3-0.5-0.6-0.6-1c-0.2-0.4-0.2-0.8-0.2-1.2
				c0-0.4,0.1-0.9,0.2-1.2c0.2-0.4,0.4-0.7,0.6-1s0.6-0.5,1-0.7c0.4-0.2,0.8-0.3,1.2-0.3c0.4,0,0.9,0.1,1.2,0.3s0.7,0.4,1,0.7
				c0.3,0.3,0.5,0.6,0.6,1c0.2,0.4,0.2,0.8,0.2,1.2c0,0.4-0.1,0.8-0.2,1.2c-0.2,0.4-0.4,0.7-0.6,1c-0.3,0.3-0.6,0.5-1,0.7
				S396.6-118.8,396.1-118.8z M393.8-122c0,0.5,0.1,0.9,0.3,1.3c0.2,0.4,0.5,0.7,0.8,0.9c0.3,0.2,0.7,0.3,1.1,0.3s0.8-0.1,1.1-0.3
				c0.3-0.2,0.6-0.5,0.8-0.9c0.2-0.4,0.3-0.8,0.3-1.3c0-0.5-0.1-0.9-0.3-1.3c-0.2-0.4-0.5-0.7-0.8-0.9c-0.3-0.2-0.7-0.3-1.1-0.3
				s-0.8,0.1-1.1,0.3c-0.3,0.2-0.6,0.5-0.8,0.9C393.9-122.9,393.8-122.4,393.8-122z"/>
			<path class="st1" d="M400.6-118.9v-6.2h3.7v0.7h-2.9v5.5H400.6z"/>
			<path class="st1" d="M405.4-118.9v-6.2h0.8v5.1l3.8-5.1h0.7v6.2H410v-5l-3.7,5H405.4z"/>
			<path class="st1" d="M415.3-118.8c-0.5,0-0.9-0.1-1.3-0.3s-0.7-0.4-1-0.7c-0.3-0.3-0.5-0.6-0.7-1s-0.2-0.8-0.2-1.2
				c0-0.6,0.1-1.1,0.4-1.6s0.6-0.9,1.1-1.2c0.5-0.3,1-0.4,1.6-0.4c0.6,0,1.1,0.1,1.5,0.4s0.8,0.6,1,1.1l-0.8,0.3
				c-0.2-0.3-0.4-0.6-0.7-0.8s-0.7-0.3-1-0.3c-0.4,0-0.8,0.1-1.1,0.3s-0.6,0.5-0.8,0.9c-0.2,0.4-0.3,0.8-0.3,1.3
				c0,0.5,0.1,0.9,0.3,1.3s0.5,0.7,0.8,0.9s0.7,0.3,1.1,0.3c0.3,0,0.5,0,0.8-0.1c0.3-0.1,0.5-0.2,0.7-0.4s0.3-0.3,0.4-0.5l0.8,0.2
				c-0.1,0.3-0.3,0.6-0.6,0.8c-0.3,0.2-0.6,0.4-0.9,0.6C416-118.8,415.7-118.8,415.3-118.8z"/>
			<path class="st1" d="M420.7-118.9v-5.5h-2.2v-0.7h5.3v0.7h-2.2v5.5H420.7z"/>
			<path class="st1" d="M424.9-118.9v-6.2h0.8v5.1l3.8-5.1h0.7v6.2h-0.8v-5l-3.7,5H424.9z"/>
			<path class="st1" d="M432-118.9v-6.2h0.8v2.7h0.9l2.1-2.7h0.9l-2.4,3l2.7,3.2h-1l-2.4-2.8h-0.9v2.8H432z"/>
			<path class="st1" d="M438.2-118.9v-6.2h0.8v5.1l3.8-5.1h0.7v6.2h-0.8v-5l-3.7,5H438.2z"/>
		</g>
	</g>
</g>
<g id="Shield">
	<path class="st2" d="M-120-100.1c-5.2,1.5-10.8,1.5-16-0.3c-5.2,1.7-10.8,1.8-16,0.3l-1-0.3v14.6c0,11.1,7.1,20.6,17,24.2
		c9.9-3.6,17-13.1,17-24.2v-14.6L-120-100.1z M-125-84.1c0,7.2-4.6,13.4-11,15.7c-6.4-2.3-11-8.5-11-15.7v-9.5l0.6,0.2
		c3.4,1,7,0.9,10.4-0.2c3.4,1.1,7,1.2,10.4,0.2l0.6-0.2V-84.1z"/>
</g>
<g id="Check">
	<path class="st2" d="M-243-102c-11.6,0-21,9.4-21,21c0,11.6,9.4,21,21,21s21-9.4,21-21C-222-92.6-231.4-102-243-102z M-245.3-68
		l-14-12.9l4.1-4.4l9.6,8.8l13.5-14.7l4.4,4.1L-245.3-68z"/>
</g>
<g id="Exclusive_IT">
	<rect x="-19" y="-69" class="st2" width="18" height="4"/>
	<polygon class="st2" points="-17,-87 -17,-82.4 -17.5,-82.2 -39,-72.4 -39,-77.4 -23,-84.7 -39,-92 -39,-97 -17.5,-87.2 	"/>
</g>
<g id="LLS__x26__SP">
	<g>
		<polygon class="st3" points="-175.8,-253.5 -175.8,-223 -205.5,-223 -205.5,-263 -184,-263 -184,-253.5 		"/>
		<line class="st4" x1="-198.2" y1="-246" x2="-183" y2="-246"/>
		<line class="st4" x1="-198.2" y1="-255" x2="-191" y2="-255"/>
		<path class="st5" d="M-181.6-247"/>
		<path class="st5" d="M-199.6-247"/>
		<path class="st6" d="M-189.7-252"/>
		<path class="st6" d="M-199.6-252"/>
		<line class="st4" x1="-198.2" y1="-239" x2="-183" y2="-239"/>
		<line class="st4" x1="-198.2" y1="-232" x2="-183" y2="-232"/>
		<polygon class="st7" points="-175.8,-254.4 -175.8,-252.5 -185,-252.5 -185,-263 -183.5,-263 		"/>
	</g>
	<g>
		<polygon class="st3" points="-175.8,-171.5 -175.8,-141 -205.5,-141 -205.5,-181 -184,-181 -184,-171.5 		"/>
		<line class="st6" x1="-198.2" y1="-164" x2="-183" y2="-164"/>
		<line class="st6" x1="-198.2" y1="-173" x2="-190" y2="-173"/>
		<path class="st5" d="M-181.6-165"/>
		<path class="st5" d="M-199.6-165"/>
		<path class="st6" d="M-189.7-170"/>
		<path class="st6" d="M-199.6-170"/>
		<line class="st6" x1="-198.2" y1="-157" x2="-183" y2="-157"/>
		<line class="st6" x1="-198.2" y1="-150" x2="-183" y2="-150"/>
		<polygon class="st7" points="-175.8,-172.4 -175.8,-171.5 -184,-171.5 -184,-181 -183.5,-181 		"/>
	</g>
</g>
<g id="Accounting">
	<g>
		<g>
			<path class="st1" d="M-103.4-222c-2,0-3.6-1.6-3.6-3.6v-34.9c0-2,1.6-3.6,3.6-3.6h24.9c2,0,3.6,1.6,3.6,3.6v34.9
				c0,2-1.6,3.6-3.6,3.6H-103.4z"/>
			<path class="st2" d="M-78.6-262c0.9,0,1.6,0.7,1.6,1.6v34.9c0,0.9-0.7,1.6-1.6,1.6h-24.9c-0.9,0-1.6-0.7-1.6-1.6v-34.9
				c0-0.9,0.7-1.6,1.6-1.6H-78.6 M-78.6-266h-24.9c-3.1,0-5.6,2.5-5.6,5.6v34.9c0,3.1,2.5,5.6,5.6,5.6h24.9c3.1,0,5.6-2.5,5.6-5.6
				v-34.9C-73-263.5-75.5-266-78.6-266L-78.6-266z"/>
		</g>
		<circle class="st2" cx="-99" cy="-246" r="2.5"/>
		<circle class="st2" cx="-91" cy="-246" r="2.5"/>
		<circle class="st2" cx="-83" cy="-246" r="2.5"/>
		<circle class="st2" cx="-99" cy="-238" r="2.5"/>
		<circle class="st2" cx="-91" cy="-238" r="2.5"/>
		<path class="st2" d="M-80.5-238v8c0,1.4-1.1,2.5-2.5,2.5s-2.5-1.1-2.5-2.5v-8c0-1.4,1.1-2.5,2.5-2.5S-80.5-239.4-80.5-238z"/>
		<circle class="st2" cx="-99" cy="-230" r="2.5"/>
		<circle class="st2" cx="-91" cy="-230" r="2.5"/>
		<path class="st8" d="M-80.9-251h-20.1c-0.5,0-0.9-0.4-0.9-0.9v-6.1c0-0.5,0.4-0.9,0.9-0.9h20.1c0.5,0,0.9,0.4,0.9,0.9v6.1
			C-80-251.4-80.4-251-80.9-251z"/>
	</g>
	<g>
		<g>
			<path class="st1" d="M-103.4-140c-2,0-3.6-1.6-3.6-3.6v-34.9c0-2,1.6-3.6,3.6-3.6h24.9c2,0,3.6,1.6,3.6,3.6v34.9
				c0,2-1.6,3.6-3.6,3.6H-103.4z"/>
			<path class="st2" d="M-78.6-180c0.9,0,1.6,0.7,1.6,1.6v34.9c0,0.9-0.7,1.6-1.6,1.6h-24.9c-0.9,0-1.6-0.7-1.6-1.6v-34.9
				c0-0.9,0.7-1.6,1.6-1.6H-78.6 M-78.6-184h-24.9c-3.1,0-5.6,2.5-5.6,5.6v34.9c0,3.1,2.5,5.6,5.6,5.6h24.9c3.1,0,5.6-2.5,5.6-5.6
				v-34.9C-73-181.5-75.5-184-78.6-184L-78.6-184z"/>
		</g>
		<circle class="st2" cx="-99" cy="-164" r="2.5"/>
		<circle class="st2" cx="-91" cy="-164" r="2.5"/>
		<circle class="st2" cx="-83" cy="-164" r="2.5"/>
		<circle class="st2" cx="-99" cy="-156" r="2.5"/>
		<circle class="st2" cx="-91" cy="-156" r="2.5"/>
		<path class="st2" d="M-80.5-156v8c0,1.4-1.1,2.5-2.5,2.5s-2.5-1.1-2.5-2.5v-8c0-1.4,1.1-2.5,2.5-2.5S-80.5-157.4-80.5-156z"/>
		<circle class="st2" cx="-99" cy="-148" r="2.5"/>
		<circle class="st2" cx="-91" cy="-148" r="2.5"/>
		<path class="st2" d="M-80.9-169h-20.1c-0.5,0-0.9-0.4-0.9-0.9v-6.1c0-0.5,0.4-0.9,0.9-0.9h20.1c0.5,0,0.9,0.4,0.9,0.9v6.1
			C-80-169.4-80.4-169-80.9-169z"/>
	</g>
</g>
<g id="Bank_Card">
	<g>
		<g>
			<path class="st1" d="M-53.8-228c-1.8,0-3.2-1.5-3.2-3.2v-22.5c0-1.8,1.5-3.2,3.2-3.2h33.5c1.8,0,3.2,1.5,3.2,3.2v22.5
				c0,1.8-1.5,3.2-3.2,3.2H-53.8z"/>
			<path class="st2" d="M-20.2-255c0.7,0,1.2,0.6,1.2,1.2v22.5c0,0.7-0.6,1.2-1.2,1.2h-33.5c-0.7,0-1.2-0.6-1.2-1.2v-22.5
				c0-0.7,0.6-1.2,1.2-1.2H-20.2 M-20.2-259h-33.5c-2.9,0-5.2,2.4-5.2,5.2v22.5c0,2.9,2.4,5.2,5.2,5.2h33.5c2.9,0,5.2-2.4,5.2-5.2
				v-22.5C-15-256.6-17.4-259-20.2-259L-20.2-259z"/>
		</g>
		<g>
			<line class="st9" x1="-55" y1="-249" x2="-19" y2="-249"/>
		</g>
		<g>
			<line class="st9" x1="-55" y1="-251" x2="-19" y2="-251"/>
		</g>
		<path class="st8" d="M-21-235.6c0,1.9-1.5,3.4-3.4,3.4c-1,0-1.9-0.5-2.6-1.2c-0.6,0.7-1.5,1.2-2.6,1.2c-1.9,0-3.4-1.5-3.4-3.4
			c0-1.9,1.5-3.4,3.4-3.4c1,0,1.9,0.5,2.6,1.2c0.6-0.7,1.5-1.2,2.6-1.2C-22.5-239-21-237.5-21-235.6z"/>
		<line class="st10" x1="-51" y1="-243" x2="-47.9" y2="-243"/>
		<line class="st10" x1="-42.7" y1="-243" x2="-39.6" y2="-243"/>
		<line class="st10" x1="-34.4" y1="-243" x2="-31.3" y2="-243"/>
		<line class="st10" x1="-26.1" y1="-243" x2="-23" y2="-243"/>
		<line class="st10" x1="-51" y1="-235" x2="-37" y2="-235"/>
		<path class="st11" d="M-38-243"/>
		<path class="st11" d="M-44-243"/>
		<path class="st11" d="M-30-243"/>
		<path class="st11" d="M-36-243"/>
		<path class="st11" d="M-22-243"/>
	</g>
	<g>
		<g>
			<path class="st1" d="M-53.8-146c-1.8,0-3.2-1.5-3.2-3.2v-22.5c0-1.8,1.5-3.2,3.2-3.2h33.5c1.8,0,3.2,1.5,3.2,3.2v22.5
				c0,1.8-1.5,3.2-3.2,3.2H-53.8z"/>
			<path class="st2" d="M-20.2-173c0.7,0,1.2,0.6,1.2,1.2v22.5c0,0.7-0.6,1.2-1.2,1.2h-33.5c-0.7,0-1.2-0.6-1.2-1.2v-22.5
				c0-0.7,0.6-1.2,1.2-1.2H-20.2 M-20.2-177h-33.5c-2.9,0-5.2,2.4-5.2,5.2v22.5c0,2.9,2.4,5.2,5.2,5.2h33.5c2.9,0,5.2-2.4,5.2-5.2
				v-22.5C-15-174.6-17.4-177-20.2-177L-20.2-177z"/>
		</g>
		<g>
			<line class="st11" x1="-55" y1="-167" x2="-19" y2="-167"/>
		</g>
		<g>
			<line class="st11" x1="-55" y1="-169" x2="-19" y2="-169"/>
		</g>
		<path class="st2" d="M-21-153.6c0,1.9-1.5,3.4-3.4,3.4c-1,0-1.9-0.5-2.6-1.2c-0.6,0.7-1.5,1.2-2.6,1.2c-1.9,0-3.4-1.5-3.4-3.4
			c0-1.9,1.5-3.4,3.4-3.4c1,0,1.9,0.5,2.6,1.2c0.6-0.7,1.5-1.2,2.6-1.2C-22.5-157-21-155.5-21-153.6z"/>
		<line class="st10" x1="-51" y1="-161" x2="-47.9" y2="-161"/>
		<line class="st10" x1="-42.7" y1="-161" x2="-39.6" y2="-161"/>
		<line class="st10" x1="-34.4" y1="-161" x2="-31.3" y2="-161"/>
		<line class="st10" x1="-26.1" y1="-161" x2="-23" y2="-161"/>
		<line class="st10" x1="-51" y1="-153" x2="-37" y2="-153"/>
		<path class="st11" d="M-38-161"/>
		<path class="st11" d="M-44-161"/>
		<path class="st11" d="M-30-161"/>
		<path class="st11" d="M-36-161"/>
		<path class="st11" d="M-22-161"/>
	</g>
</g>
<g id="Benefit_Check">
	<g>
		<circle class="st12" cx="31" cy="-80" r="19"/>
		<polyline class="st12" points="19.2,-82.8 28.9,-74.1 53.5,-100.5 		"/>
	</g>
</g>
<g id="Ready-made_companies">
	<g>
		
			<rect id="Main_Building_00000043442078322266672570000013220449264122326666_" x="-250.5" y="-262.5" class="st3" width="18" height="39"/>
		
			<rect id="Secondary_Building_00000093137318064898581800000013720802028784581014_" x="-231.7" y="-246" class="st3" width="11.2" height="22.5"/>
		
			<rect id="Secondary_Building_00000035491003704085616880000010737547193024200620_" x="-261.5" y="-255" class="st3" width="11" height="31.5"/>
		<rect x="-246.5" y="-257" class="st13" width="3" height="4"/>
		<rect x="-239.5" y="-257" class="st13" width="3" height="4"/>
		<rect x="-246.5" y="-249" class="st13" width="3" height="4"/>
		<rect x="-257.5" y="-249" class="st13" width="3" height="4"/>
		<rect x="-257.5" y="-241" class="st13" width="3" height="4"/>
		<rect x="-227.5" y="-241" class="st13" width="3" height="4"/>
		<rect x="-239.5" y="-249" class="st13" width="3" height="4"/>
		<rect x="-246.5" y="-241" class="st13" width="3" height="4"/>
		<rect x="-243.5" y="-233" class="st14" width="4" height="8"/>
		<rect x="-239.5" y="-241" class="st13" width="3" height="4"/>
	</g>
	<g>
		
			<rect id="Main_Building_00000160156838168113692890000003179182174513048465_" x="-250.5" y="-180.5" class="st15" width="18" height="39"/>
		
			<rect id="Secondary_Building_00000042721864257900811600000009433880821438078371_" x="-231.7" y="-163.5" class="st15" width="10.2" height="22"/>
		
			<rect id="Secondary_Building_00000107576201619037250810000000814288114491968701_" x="-260.7" y="-171.5" class="st15" width="10.2" height="30"/>
		<rect x="-246.5" y="-175" class="st14" width="3" height="4"/>
		<rect x="-239.5" y="-175" class="st14" width="3" height="4"/>
		<rect x="-246.5" y="-167" class="st14" width="3" height="4"/>
		<rect x="-256.5" y="-167" class="st14" width="2" height="4"/>
		<rect x="-256.5" y="-159.5" class="st14" width="2" height="4"/>
		<rect x="-227.5" y="-158.5" class="st14" width="2" height="4"/>
		<rect x="-239.5" y="-167" class="st14" width="3" height="4"/>
		<rect x="-246.5" y="-159" class="st14" width="3" height="4"/>
		<rect x="-243.5" y="-151" class="st14" width="4" height="8"/>
		<rect x="-239.5" y="-159" class="st14" width="3" height="4"/>
	</g>
</g>
<g id="Rocket">
	<path class="st2" d="M-213.5-59.4l2.8-10.4v0c1.2-4.6,7-6.2,10.4-2.8v0l0,0c3.4,3.4,1.8,9.1-2.8,10.4l0,0L-213.5-59.4z"/>
	<path class="st2" d="M-170-103l-0.7,0c-8.7-0.1-17.1,3.4-23,9.8l-1.2,1.3c-1.2,0-4.1,0.2-8.2,1.7c-5.5,2-8.8,6.3-8.8,6.3l8.5,1.2
		l-1.4,1.5l12.9,12.8l1.5-1.3l0.1,0.2l1,8.5c0,0,4.3-3.2,6.4-8.6c1.8-4.7,1.9-7.9,1.9-8.7l0.9-0.8C-173.3-85.2-169.7-94-170-103z
		 M-182.4-86.1c-2.5,0-4.6-2.1-4.6-4.6c0-2.5,2.1-4.6,4.6-4.6c2.5,0,4.6,2.1,4.6,4.6C-177.8-88.1-179.8-86.1-182.4-86.1z"/>
</g>
<g id="Branches">
	<g>
		<g>
			<circle class="st2" cx="-91" cy="-97" r="7"/>
			<circle class="st2" cx="-91" cy="-65" r="7"/>
			<circle class="st2" cx="-62" cy="-97" r="7"/>
			<line class="st16" x1="-91" y1="-97" x2="-91" y2="-63.5"/>
		</g>
		<path class="st16" d="M-91-65h20.8c4.5,0,8.2-3.7,8.2-8.2V-97"/>
	</g>
</g>
<g id="Residence_Permit">
	<g>
		<circle class="st17" cx="-142" cy="-243" r="14.5"/>
		<circle class="st12" cx="-142" cy="-243" r="18"/>
		<ellipse class="st18" cx="-142" cy="-243" rx="5.8" ry="14"/>
		<line class="st18" x1="-156.5" y1="-243" x2="-127.5" y2="-243"/>
	</g>
	<g>
		<circle class="st19" cx="-142" cy="-161" r="17.5"/>
		<ellipse class="st19" cx="-142" cy="-161" rx="7" ry="17.5"/>
		<line class="st12" x1="-159.5" y1="-161" x2="-124.5" y2="-161"/>
	</g>
</g>
<g id="Social_Card">
	<g>
		<g>
			<path class="st1" d="M4.3-224c-1.8,0-3.3-1.5-3.3-3.3v-35.4c0-1.8,1.5-3.3,3.3-3.3h25.4c1.8,0,3.3,1.5,3.3,3.3v35.4
				c0,1.8-1.5,3.3-3.3,3.3H4.3z"/>
			<g>
				<path class="st2" d="M29.7-264c0.7,0,1.3,0.6,1.3,1.3v35.4c0,0.7-0.6,1.3-1.3,1.3H4.3c-0.7,0-1.3-0.6-1.3-1.3v-35.4
					c0-0.7,0.6-1.3,1.3-1.3H29.7 M29.7-268H4.3c-2.9,0-5.3,2.4-5.3,5.3v35.4c0,2.9,2.4,5.3,5.3,5.3h25.4c2.9,0,5.3-2.4,5.3-5.3
					v-35.4C35-265.6,32.6-268,29.7-268L29.7-268z"/>
			</g>
		</g>
		<g>
			<path class="st8" d="M24-241c0,1-3.1,1-7,1s-7,0-7-1c0-3.7,1.7-6.8,4.1-8.2c-0.7-0.7-1.1-1.7-1.1-2.8c0-2.2,1.8-4,4-4s4,1.8,4,4
				c0,1.1-0.4,2.1-1.1,2.8C22.3-247.8,24-244.7,24-241z"/>
		</g>
		<g>
			<g>
				<path class="st2" d="M17-259c5,0,9,4,9,9s-4,9-9,9s-9-4-9-9S12-259,17-259 M17-263c-7.2,0-13,5.8-13,13c0,7.2,5.8,13,13,13
					s13-5.8,13-13C30-257.2,24.2-263,17-263L17-263z"/>
			</g>
		</g>
		<g>
			<line class="st4" x1="7.5" y1="-231.5" x2="26.5" y2="-231.5"/>
			<line class="st1" x1="7.5" y1="-231.5" x2="26.5" y2="-231.5"/>
		</g>
	</g>
	<g>
		<g>
			<path class="st1" d="M4.3-142c-1.8,0-3.3-1.5-3.3-3.3v-35.4c0-1.8,1.5-3.3,3.3-3.3h25.4c1.8,0,3.3,1.5,3.3,3.3v35.4
				c0,1.8-1.5,3.3-3.3,3.3H4.3z"/>
			<g>
				<path class="st2" d="M29.7-182c0.7,0,1.3,0.6,1.3,1.3v35.4c0,0.7-0.6,1.3-1.3,1.3H4.3c-0.7,0-1.3-0.6-1.3-1.3v-35.4
					c0-0.7,0.6-1.3,1.3-1.3H29.7 M29.7-186H4.3c-2.9,0-5.3,2.4-5.3,5.3v35.4c0,2.9,2.4,5.3,5.3,5.3h25.4c2.9,0,5.3-2.4,5.3-5.3
					v-35.4C35-183.6,32.6-186,29.7-186L29.7-186z"/>
			</g>
		</g>
		<g>
			<circle class="st1" cx="17" cy="-168" r="11"/>
			<g>
				<path class="st2" d="M17-177c5,0,9,4,9,9s-4,9-9,9s-9-4-9-9S12-177,17-177 M17-181c-7.2,0-13,5.8-13,13s5.8,13,13,13
					s13-5.8,13-13S24.2-181,17-181L17-181z"/>
			</g>
		</g>
		<g>
			<line class="st6" x1="7.5" y1="-149.5" x2="26.5" y2="-149.5"/>
			<line class="st1" x1="7.5" y1="-149.5" x2="26.5" y2="-149.5"/>
		</g>
		<g>
			<path class="st2" d="M24-159c0,1-3.1,1-7,1s-7,0-7-1c0-3.7,1.7-6.8,4.1-8.2c-0.7-0.7-1.1-1.7-1.1-2.8c0-2.2,1.8-4,4-4s4,1.8,4,4
				c0,1.1-0.4,2.1-1.1,2.8C22.3-165.8,24-162.7,24-159z"/>
		</g>
	</g>
</g>
<g id="Registration">
	<g>
		<path class="st1" d="M70.5-224H50v-36.9c0-1.7,1.4-3.1,3.1-3.1H87v23.5C87-231.4,79.6-224,70.5-224z"/>
		<path class="st7" d="M50-225v-36.7c0-1.5,1.2-2.7,2.7-2.7H86"/>
		<rect x="57" y="-257" class="st7" width="25" height="15"/>
		<line class="st20" x1="62" y1="-252" x2="77" y2="-252"/>
		<line class="st20" x1="62" y1="-247" x2="69" y2="-247"/>
		<line class="st20" x1="74" y1="-247" x2="77" y2="-247"/>
	</g>
	<g>
		<path class="st1" d="M70.5-142H50v-36.9c0-1.7,1.4-3.1,3.1-3.1H87v23.5C87-149.4,79.6-142,70.5-142z"/>
		<path class="st7" d="M50-143v-36.7c0-1.5,1.2-2.7,2.7-2.7H86"/>
		<rect x="57" y="-175" class="st7" width="25" height="15"/>
		<line class="st6" x1="62" y1="-170" x2="77" y2="-170"/>
		<line class="st6" x1="62" y1="-165" x2="69" y2="-165"/>
		<line class="st6" x1="74" y1="-165" x2="77" y2="-165"/>
	</g>
</g>
<g id="Citizenship">
	<g>
		<g>
			<path class="st2" d="M130.8-140h-28.6c-1.8,0-3.2-1.4-3.2-3.2v-37.6c0-1.8,1.4-3.2,3.2-3.2h28.6c1.8,0,3.2,1.4,3.2,3.2v37.6
				C134-141.4,132.6-140,130.8-140z"/>
		</g>
		<g>
			<circle class="st21" cx="116.5" cy="-167" r="11"/>
			<ellipse class="st21" cx="116.5" cy="-167" rx="4.4" ry="11"/>
			<line class="st22" x1="105.5" y1="-167" x2="127.5" y2="-167"/>
		</g>
		<line class="st23" x1="105.5" y1="-148" x2="127.5" y2="-148"/>
	</g>
	<g>
		<g>
			<path class="st2" d="M130.8-223h-28.6c-1.8,0-3.2-1.4-3.2-3.2v-37.6c0-1.8,1.4-3.2,3.2-3.2h28.6c1.8,0,3.2,1.4,3.2,3.2v37.6
				C134-224.4,132.6-223,130.8-223z"/>
		</g>
		<g>
			<circle class="st24" cx="116.5" cy="-250" r="11"/>
			<ellipse class="st24" cx="116.5" cy="-250" rx="4.4" ry="11"/>
			<line class="st22" x1="105.5" y1="-250" x2="127.5" y2="-250"/>
		</g>
		<line class="st23" x1="105.5" y1="-231" x2="127.5" y2="-231"/>
	</g>
</g>
<g id="log_x5F_kpi-1">
	<image style="display:none;overflow:visible;" width="80" height="80" xlink:href="../png/logistic-clients-kpi-icon.png" >
	</image>
	<g>
		<g>
			<g>
				<path class="st1" d="M48.2,43.2c-1.2,0-2.2-1-2.2-2.2v-7.1c0-5,4-9,9-9s9,4,9,9V41c0,1.2-1,2.2-2.2,2.2H48.2z"/>
				<path class="st2" d="M55,26.9c3.9,0,7,3.1,7,7V41c0,0.1-0.1,0.2-0.2,0.2H48.2c-0.1,0-0.2-0.1-0.2-0.2v-7.1
					C48,30,51.1,26.9,55,26.9 M55,22.9c-6.1,0-11,4.9-11,11V41c0,2.3,1.9,4.2,4.2,4.2h13.5c2.3,0,4.2-1.9,4.2-4.2v-7.1
					C66,27.8,61.1,22.9,55,22.9L55,22.9z"/>
			</g>
			<circle class="st19" cx="55" cy="19.1" r="5.7"/>
		</g>
		<g>
			<g>
				<path class="st1" d="M18.2,43.2c-1.2,0-2.2-1-2.2-2.2v-7.1c0-5,4-9,9-9s9,4,9,9V41c0,1.2-1,2.2-2.2,2.2H18.2z"/>
				<path class="st2" d="M25,26.9c3.9,0,7,3.1,7,7V41c0,0.1-0.1,0.2-0.2,0.2H18.2c-0.1,0-0.2-0.1-0.2-0.2v-7.1
					C18,30,21.1,26.9,25,26.9 M25,22.9c-6.1,0-11,4.9-11,11V41c0,2.3,1.9,4.2,4.2,4.2h13.5c2.3,0,4.2-1.9,4.2-4.2v-7.1
					C36,27.8,31.1,22.9,25,22.9L25,22.9z"/>
			</g>
			<circle class="st19" cx="25" cy="19.1" r="5.7"/>
		</g>
		<g>
			<g>
				<path class="st1" d="M31.8,47c-1.3,0-2.3-1-2.3-2.3V36c0-5.8,4.7-10.5,10.5-10.5S50.5,30.2,50.5,36v8.7c0,1.3-1,2.3-2.3,2.3
					H31.8z"/>
				<path class="st2" d="M40,27.5c4.7,0,8.5,3.8,8.5,8.5v8.7c0,0.2-0.1,0.3-0.3,0.3H31.8c-0.2,0-0.3-0.1-0.3-0.3V36
					C31.5,31.3,35.3,27.5,40,27.5 M40,23.5c-6.9,0-12.5,5.6-12.5,12.5v8.7c0,2.4,1.9,4.3,4.3,4.3h16.5c2.4,0,4.3-1.9,4.3-4.3V36
					C52.5,29.1,46.9,23.5,40,23.5L40,23.5z"/>
			</g>
			<circle class="st19" cx="40" cy="18" r="7"/>
		</g>
		<polygon class="st25" points="40,53.9 42.7,59.3 48.7,60.2 44.3,64.4 45.4,70.4 40,67.6 34.6,70.4 35.7,64.4 31.3,60.2 37.3,59.3 
					"/>
		<polygon class="st25" points="58,50.5 60.2,54.9 65,55.6 61.5,59 62.3,63.8 58,61.5 53.7,63.8 54.5,59 51,55.6 55.8,54.9 		"/>
		<polygon class="st25" points="22,50.5 24.2,54.9 29,55.6 25.5,59 26.3,63.8 22,61.5 17.7,63.8 18.5,59 15,55.6 19.8,54.9 		"/>
	</g>
</g>
<g id="log-kpi-2">
	<g>
		<g>
			<circle class="st19" cx="413" cy="-77" r="30"/>
			<ellipse class="st19" cx="413" cy="-77" rx="16" ry="30"/>
			<ellipse class="st12" cx="413" cy="-77" rx="30" ry="17"/>
			<line class="st12" x1="383" y1="-77" x2="443" y2="-77"/>
		</g>
		<g>
			<path class="st1" d="M432.5-69.5c-0.8,0-1.5-0.7-1.5-1.5c0-4.2-1.6-5.9-3.4-7.6c-1.6-1.7-3.5-3.7-3.5-7.5c0-4.6,3.8-8.4,8.4-8.4
				s8.4,3.8,8.4,8.4c0,4.2-1.9,6.2-3.7,7.9c-1.7,1.7-3.2,3.2-3.2,7.2C434-70.2,433.3-69.5,432.5-69.5z M432.5-86.7
				c-0.7,0-1.2,0.6-1.2,1.2s0.6,1.2,1.2,1.2s1.2-0.6,1.2-1.2S433.2-86.7,432.5-86.7z"/>
			<path class="st8" d="M432.5-93c3.8,0,6.9,3.1,6.9,6.9c0,7.6-6.9,6.2-6.9,15.1c0-8.9-6.9-8.2-6.9-15.1
				C425.6-89.9,428.7-93,432.5-93 M432.5-82.7c1.5,0,2.8-1.2,2.8-2.8c0-1.5-1.2-2.8-2.8-2.8s-2.8,1.2-2.8,2.8
				C429.8-83.9,431-82.7,432.5-82.7 M432.5-96c-5.4,0-9.9,4.4-9.9,9.9c0,4.4,2.2,6.7,3.9,8.5c1.7,1.8,2.9,3.1,2.9,6.6
				c0,1.7,1.3,3,3,3s3-1.3,3-3c0-3.4,1.1-4.5,2.8-6.2c1.8-1.8,4.1-4.1,4.1-9C442.4-91.6,437.9-96,432.5-96L432.5-96z"/>
		</g>
		<g>
			<path class="st1" d="M406.5-54.5c-0.8,0-1.5-0.7-1.5-1.5c0-4.2-1.6-5.9-3.4-7.6c-1.6-1.7-3.5-3.7-3.5-7.5c0-4.6,3.8-8.4,8.4-8.4
				s8.4,3.8,8.4,8.4c0,4.2-1.9,6.2-3.7,7.9c-1.7,1.7-3.2,3.2-3.2,7.2C408-55.2,407.3-54.5,406.5-54.5z M406.5-71.7
				c-0.7,0-1.2,0.6-1.2,1.2s0.6,1.2,1.2,1.2s1.2-0.6,1.2-1.2S407.2-71.7,406.5-71.7z"/>
			<path class="st8" d="M406.5-78c3.8,0,6.9,3.1,6.9,6.9c0,7.6-6.9,6.2-6.9,15.1c0-8.9-6.9-8.2-6.9-15.1
				C399.6-74.9,402.7-78,406.5-78 M406.5-67.7c1.5,0,2.8-1.2,2.8-2.8c0-1.5-1.2-2.8-2.8-2.8s-2.8,1.2-2.8,2.8
				C403.8-68.9,405-67.7,406.5-67.7 M406.5-81c-5.4,0-9.9,4.4-9.9,9.9c0,4.4,2.2,6.7,3.9,8.5c1.7,1.8,2.9,3.1,2.9,6.6
				c0,1.7,1.3,3,3,3s3-1.3,3-3c0-3.4,1.1-4.5,2.8-6.2c1.8-1.8,4.1-4.1,4.1-9C416.4-76.6,411.9-81,406.5-81L406.5-81z"/>
		</g>
		<g>
			<path class="st1" d="M394.5-86.5c-0.8,0-1.5-0.7-1.5-1.5c0-4.2-1.6-5.9-3.4-7.6c-1.6-1.7-3.5-3.7-3.5-7.5c0-4.6,3.8-8.4,8.4-8.4
				s8.4,3.8,8.4,8.4c0,4.2-1.9,6.2-3.7,7.9c-1.7,1.7-3.2,3.2-3.2,7.2C396-87.2,395.3-86.5,394.5-86.5z M394.5-103.7
				c-0.7,0-1.2,0.6-1.2,1.2s0.6,1.2,1.2,1.2s1.2-0.6,1.2-1.2S395.2-103.7,394.5-103.7z"/>
			<path class="st8" d="M394.5-110c3.8,0,6.9,3.1,6.9,6.9c0,7.6-6.9,6.2-6.9,15.1c0-8.9-6.9-8.2-6.9-15.1
				C387.6-106.9,390.7-110,394.5-110 M394.5-99.7c1.5,0,2.8-1.2,2.8-2.8c0-1.5-1.2-2.8-2.8-2.8s-2.8,1.2-2.8,2.8
				C391.8-100.9,393-99.7,394.5-99.7 M394.5-113c-5.4,0-9.9,4.4-9.9,9.9c0,4.4,2.2,6.7,3.9,8.5c1.7,1.8,2.9,3.1,2.9,6.6
				c0,1.7,1.3,3,3,3s3-1.3,3-3c0-3.4,1.1-4.5,2.8-6.2c1.8-1.8,4.1-4.1,4.1-9C404.4-108.6,399.9-113,394.5-113L394.5-113z"/>
		</g>
	</g>
</g>
</svg>
