<?xml version="1.0" encoding="UTF-8"?>
<svg id="_Слой_16" data-name="Слой 16" xmlns="http://www.w3.org/2000/svg" viewBox="0 0 380.44 288.44">
  <defs>
    <style>
      .cls-1, .cls-2, .cls-3, .cls-4, .cls-5, .cls-6, .cls-7, .cls-8, .cls-9, .cls-10, .cls-11, .cls-12, .cls-13, .cls-14, .cls-15, .cls-16, .cls-17 {
        stroke: #00288a;
        stroke-width: 2px;
      }

      .cls-1, .cls-2, .cls-7 {
        fill: #fff;
      }

      .cls-1, .cls-10 {
        stroke-miterlimit: 10;
      }

      .cls-2, .cls-3, .cls-4, .cls-5, .cls-6, .cls-7, .cls-8, .cls-9, .cls-11, .cls-12, .cls-13, .cls-14, .cls-15, .cls-16, .cls-17 {
        stroke-linejoin: round;
      }

      .cls-3 {
        fill: #0071cf;
      }

      .cls-4 {
        fill: #aaf9ff;
      }

      .cls-5 {
        fill: #5addff;
      }

      .cls-6, .cls-16 {
        fill: none;
      }

      .cls-7, .cls-9, .cls-16 {
        stroke-linecap: round;
      }

      .cls-8, .cls-9 {
        fill: #00b6ff;
      }

      .cls-10, .cls-13 {
        fill: #9fddff;
      }

      .cls-11 {
        fill: #0062ff;
      }

      .cls-12 {
        fill: #008bea;
      }

      .cls-14 {
        fill: #0085ff;
      }

      .cls-15 {
        fill: #7fc0ff;
      }

      .cls-17 {
        fill: #0087ff;
      }
    </style>
  </defs>
  <g id="Wheels">
    <g>
      <g>
        <path class="cls-3" d="M108.55,160.4c2.63,1.44,13.27,1.93,13.27,1.93,0,0,.72,10.02-3.51,18.24-4.24,8.22-6.17,1.77-5.76,6.06.41,4.29-3.5,10.77-4,10.85s-13.79-5.73-13.79-5.73l-2.97-12.93,1.97-9.86s3.54-6.25,4.71-7.34,10.08-1.21,10.08-1.21Z"/>
        <path class="cls-3" d="M127.41,172.41c-1.42-3.51-4.24-5.84-8.01-6.08-6.81-.39-14.09,6.33-16.26,15.03-.73,2.9-.79,5.66-.3,8.05.99,4.81,4.18,8.19,8.72,8.44,6.83.41,14.11-6.33,16.26-15.03.97-3.91.75-7.56-.41-10.42ZM119.54,182.33c-.71,2.86-3.1,5.09-5.35,4.95-1.64-.1-2.74-1.44-2.92-3.27-.08-.65-.04-1.38.16-2.15.71-2.86,3.1-5.07,5.35-4.93,1.2.06,2.13.81,2.58,1.91.41.95.51,2.17.18,3.49Z"/>
      </g>
      <path class="cls-10" d="M119.54,182.33c-.71,2.86-3.1,5.09-5.35,4.95-1.64-.1-2.74-1.44-2.92-3.27-.08-.65-.04-1.38.16-2.15.71-2.86,3.1-5.07,5.35-4.93,1.2.06,2.13.81,2.58,1.91.41.95.51,2.17.18,3.49Z"/>
      <path class="cls-1" d="M119.54,182.33c-.71,2.86-3.1,5.09-5.35,4.95-2.23-.14-3.47-2.56-2.76-5.43.71-2.86,3.1-5.07,5.35-4.93,2.25.12,3.47,2.54,2.76,5.41Z"/>
    </g>
    <g>
      <g>
        <path class="cls-3" d="M202.56,112.17c2.63,1.44,13.13,6.36,13.13,6.36,0,0,.86,5.59-3.37,13.81-4.24,8.22-6.17,1.77-5.76,6.06.41,4.29-3.5,10.77-4,10.85-.35.06-6.87-2.73-10.82-4.44-1.87-.81-3.24-2.46-3.7-4.45l-2.25-9.78,1.97-9.86s3.54-6.25,4.71-7.34,10.08-1.21,10.08-1.21Z"/>
        <path class="cls-11" d="M221.43,124.18c-.37-.92-.83-1.74-1.38-2.48-1.56-2.11-3.85-3.44-6.65-3.6-6.79-.41-14.09,6.33-16.24,15.03-.16.62-.28,1.24-.37,1.86-.37,2.23-.32,4.34.07,6.19.99,4.82,4.18,8.19,8.72,8.44,6.84.41,14.11-6.33,16.27-15.03.96-3.92.73-7.57-.41-10.42ZM213.53,134.09c-.71,2.87-3.1,5.09-5.35,4.96-1.63-.09-2.73-1.45-2.91-3.28-.07-.64-.05-1.38.16-2.16.71-2.84,3.1-5.07,5.35-4.93,1.19.07,2.13.83,2.59,1.93.41.94.5,2.16.16,3.49Z"/>
      </g>
      <path class="cls-10" d="M213.54,134.09c-.71,2.86-3.1,5.09-5.35,4.95-1.64-.1-2.74-1.44-2.92-3.27-.08-.65-.04-1.38.16-2.15.71-2.86,3.1-5.07,5.35-4.93,1.2.06,2.13.81,2.58,1.91.41.95.51,2.17.18,3.49Z"/>
      <path class="cls-1" d="M213.54,134.09c-.71,2.86-3.1,5.09-5.35,4.95-2.23-.14-3.47-2.56-2.76-5.43.71-2.86,3.1-5.07,5.35-4.93,2.25.12,3.47,2.54,2.76,5.41Z"/>
    </g>
  </g>
  <g id="base">
    <polygon class="cls-17" points="138.28 157.84 138.28 168.39 70.48 128.87 70.5 119.07 138.28 157.84"/>
    <polygon class="cls-17" points="233.88 103.63 215.05 114.39 196.56 124.94 138.28 158.2 70.49 119.07 166.09 64.49 233.88 103.63"/>
    <path class="cls-11" d="M138.28,158.2l58.27-33.27c-.5.96-.96,1.97-1.35,3.03-1.12,2.98-1.63,6.01-1.63,8.86l-55.29,31.57v-10.19Z"/>
    <path class="cls-11" d="M233.88,103.63v10.19l-11.59,6.61c-1.45-2.68-3.62-4.73-6.4-5.76-.28-.11-.57-.21-.85-.28l18.84-10.76Z"/>
  </g>
  <g>
    <g>
      <g>
        <polygon class="cls-8" points="224.19 104.51 232.42 100.21 232.42 94.43 224.19 98.73 224.19 104.51"/>
        <polygon class="cls-13" points="224.2 98.72 217.16 94.8 217.16 100.59 224.2 104.51 224.2 98.72"/>
        <polygon class="cls-13" points="173.73 70.55 173.73 76.34 180.68 80.22 180.68 74.43 173.73 70.55"/>
        <polygon class="cls-8" points="180.68 74.43 180.68 80.22 189.52 76.34 189.52 70.55 180.68 74.43"/>
        <polygon class="cls-2" points="173.73 70.55 224.19 98.72 232.42 94.43 181.96 66.26 173.73 70.55"/>
        <line class="cls-6" x1="180.68" y1="74.43" x2="180.68" y2="80.22"/>
        <line class="cls-6" x1="217.16" y1="100.59" x2="217.16" y2="94.8"/>
      </g>
      <g>
        <polygon class="cls-8" points="212.38 111.04 220.61 106.74 220.61 100.95 212.38 105.25 212.38 111.04"/>
        <polygon class="cls-13" points="212.38 105.24 205.35 101.32 205.35 107.11 212.38 111.03 212.38 105.24"/>
        <polygon class="cls-13" points="161.91 77.08 161.91 82.87 168.86 86.75 168.86 80.96 161.91 77.08"/>
        <polygon class="cls-8" points="168.86 80.96 168.86 86.75 177.71 82.87 177.71 77.08 168.86 80.96"/>
        <polygon class="cls-2" points="161.91 77.07 212.38 105.24 220.61 100.95 170.14 72.79 161.91 77.07"/>
        <line class="cls-6" x1="168.86" y1="80.96" x2="168.86" y2="86.75"/>
        <line class="cls-6" x1="205.35" y1="107.11" x2="205.35" y2="101.32"/>
      </g>
      <g>
        <polygon class="cls-8" points="200.64 117.16 208.87 112.86 208.87 107.08 200.64 111.38 200.64 117.16"/>
        <polygon class="cls-13" points="200.64 111.37 193.6 107.45 193.6 113.24 200.64 117.16 200.64 111.37"/>
        <polygon class="cls-13" points="150.17 83.21 150.17 89 157.12 92.87 157.12 87.08 150.17 83.21"/>
        <polygon class="cls-8" points="157.12 87.08 157.12 92.87 165.97 89 165.97 83.21 157.12 87.08"/>
        <polygon class="cls-2" points="150.17 83.2 200.64 111.37 208.87 107.08 158.4 78.91 150.17 83.2"/>
        <line class="cls-6" x1="157.12" y1="87.08" x2="157.12" y2="92.87"/>
        <line class="cls-6" x1="193.6" y1="113.24" x2="193.6" y2="107.45"/>
      </g>
      <g>
        <polygon class="cls-8" points="188.89 123.64 197.12 119.34 197.12 113.55 188.89 117.85 188.89 123.64"/>
        <polygon class="cls-13" points="188.9 117.84 181.86 113.92 181.86 119.71 188.9 123.63 188.9 117.84"/>
        <polygon class="cls-13" points="138.43 89.68 138.43 95.47 145.38 99.35 145.38 93.56 138.43 89.68"/>
        <polygon class="cls-8" points="145.38 93.56 145.38 99.35 154.22 95.47 154.22 89.68 145.38 93.56"/>
        <polygon class="cls-2" points="138.43 89.67 188.89 117.84 197.12 113.55 146.65 85.39 138.43 89.67"/>
        <line class="cls-6" x1="145.38" y1="93.56" x2="145.38" y2="99.35"/>
        <line class="cls-6" x1="181.86" y1="119.71" x2="181.86" y2="113.92"/>
      </g>
      <polygon class="cls-2" points="181.81 113.73 188.99 117.79 232.42 94.32 225.48 90.65 181.81 113.73"/>
      <polygon class="cls-2" points="138.28 89.34 145.38 93.56 188.9 70.14 181.96 66.26 138.28 89.34"/>
    </g>
    <g>
      <g>
        <polygon class="cls-8" points="176.27 130.3 184.5 126 184.5 120.21 176.27 124.52 176.27 130.3"/>
        <polygon class="cls-13" points="176.27 124.51 169.24 120.58 169.24 126.38 176.27 130.3 176.27 124.51"/>
        <polygon class="cls-13" points="125.8 96.34 125.8 102.13 132.75 106.01 132.75 100.22 125.8 96.34"/>
        <polygon class="cls-8" points="132.75 100.22 132.75 106.01 141.6 102.13 141.6 96.34 132.75 100.22"/>
        <polygon class="cls-2" points="125.8 96.33 176.27 124.51 184.5 120.21 134.03 92.05 125.8 96.33"/>
        <line class="cls-6" x1="132.75" y1="100.22" x2="132.75" y2="106.01"/>
        <line class="cls-6" x1="169.24" y1="126.38" x2="169.24" y2="120.58"/>
      </g>
      <g>
        <polygon class="cls-8" points="164.46 136.83 172.69 132.53 172.69 126.74 164.46 131.04 164.46 136.83"/>
        <polygon class="cls-13" points="164.46 131.03 157.42 127.11 157.42 132.9 164.46 136.82 164.46 131.03"/>
        <polygon class="cls-13" points="113.99 102.87 113.99 108.66 120.94 112.54 120.94 106.75 113.99 102.87"/>
        <polygon class="cls-8" points="120.94 106.75 120.94 112.54 129.79 108.66 129.79 102.87 120.94 106.75"/>
        <polygon class="cls-2" points="113.99 102.86 164.46 131.03 172.69 126.74 122.22 98.58 113.99 102.86"/>
        <line class="cls-6" x1="120.94" y1="106.75" x2="120.94" y2="112.54"/>
        <line class="cls-6" x1="157.42" y1="132.9" x2="157.42" y2="127.11"/>
      </g>
      <g>
        <polygon class="cls-8" points="152.71 142.95 160.94 138.65 160.94 132.87 152.71 137.17 152.71 142.95"/>
        <polygon class="cls-13" points="152.72 137.16 145.68 133.24 145.68 139.03 152.72 142.95 152.72 137.16"/>
        <polygon class="cls-13" points="102.25 108.99 102.25 114.79 109.2 118.66 109.2 112.87 102.25 108.99"/>
        <polygon class="cls-8" points="109.2 112.87 109.2 118.66 118.04 114.78 118.04 108.99 109.2 112.87"/>
        <polygon class="cls-2" points="102.25 108.99 152.71 137.16 160.94 132.87 110.48 104.7 102.25 108.99"/>
        <line class="cls-6" x1="109.2" y1="112.87" x2="109.2" y2="118.66"/>
        <line class="cls-6" x1="145.68" y1="139.03" x2="145.68" y2="133.24"/>
      </g>
      <g>
        <polygon class="cls-8" points="140.97 149.43 149.2 145.12 149.2 139.34 140.97 143.64 140.97 149.43"/>
        <polygon class="cls-13" points="140.97 143.63 133.94 139.71 133.94 145.5 140.97 149.42 140.97 143.63"/>
        <polygon class="cls-13" points="90.5 115.47 90.5 121.26 97.45 125.13 97.45 119.34 90.5 115.47"/>
        <polygon class="cls-8" points="97.45 119.34 97.45 125.13 106.3 121.26 106.3 115.47 97.45 119.34"/>
        <polygon class="cls-2" points="90.5 115.46 140.97 143.63 149.2 139.34 98.73 111.18 90.5 115.46"/>
        <line class="cls-6" x1="97.45" y1="119.34" x2="97.45" y2="125.13"/>
        <line class="cls-6" x1="133.94" y1="145.5" x2="133.94" y2="139.71"/>
      </g>
      <polygon class="cls-2" points="133.89 139.52 141.06 143.57 184.5 120.11 177.56 116.44 133.89 139.52"/>
      <polygon class="cls-2" points="90.36 115.13 97.45 119.34 140.97 95.93 134.03 92.05 90.36 115.13"/>
    </g>
    <polygon class="cls-8" points="139.35 137.06 97.65 113.73 97.65 63.64 139.35 86.97 139.35 137.06"/>
    <polygon class="cls-14" points="134.22 128.02 102.79 110.44 102.79 72.68 134.22 90.26 134.22 128.02"/>
    <polygon class="cls-13" points="219.03 94.12 139.43 137.13 139.43 87.03 219.03 44.03 219.03 94.12"/>
    <polygon class="cls-5" points="214.12 89.93 145.81 127.37 145.81 90.57 214.12 53.83 214.12 89.93"/>
    <polygon class="cls-4" points="139.35 86.97 97.65 63.64 177.33 20.7 219.03 44.03 139.35 86.97"/>
    <polygon class="cls-15" points="139.05 82.1 105.76 63.86 113.1 59.96 145.81 78.45 139.05 82.1"/>
    <polygon class="cls-15" points="152.61 74.71 119.33 56.47 126.66 52.57 159.38 71.06 152.61 74.71"/>
    <polygon class="cls-15" points="166.34 67.19 133.06 48.95 140.39 45.05 173.11 63.54 166.34 67.19"/>
    <polygon class="cls-15" points="179.1 60.43 145.81 42.19 153.15 38.29 185.86 56.78 179.1 60.43"/>
    <polygon class="cls-15" points="191.63 53.83 158.34 35.6 165.67 31.7 198.39 50.19 191.63 53.83"/>
    <polygon class="cls-15" points="204.18 47.29 170.9 29.06 178.23 25.16 210.95 43.65 204.18 47.29"/>
    <line class="cls-16" x1="154.09" y1="90.58" x2="154.09" y2="118.5"/>
    <line class="cls-16" x1="163.06" y1="86.39" x2="163.06" y2="114.31"/>
    <line class="cls-16" x1="173.11" y1="80.18" x2="173.11" y2="108.1"/>
    <line class="cls-16" x1="182.64" y1="74.71" x2="182.64" y2="102.63"/>
    <line class="cls-16" x1="190.92" y1="70.06" x2="190.92" y2="97.98"/>
    <line class="cls-16" x1="199.49" y1="65.65" x2="199.49" y2="93.57"/>
    <line class="cls-16" x1="208.05" y1="61.51" x2="208.05" y2="89.43"/>
  </g>
  <g id="cabin">
    <polygon class="cls-2" points="30.2 134.35 43.51 142.12 42.68 142.12 42.68 160.36 30.2 153.07 30.2 134.35"/>
    <path class="cls-2" d="M85.33,186.56l-.05-1.28-14.29-8.35v-18.72l14.25,8.33c-.09,6.88-.02,14.04.09,20.03Z"/>
    <path class="cls-2" d="M125.8,101.35h0c0,.49-.26.93-.69,1.16-9.07,4.99-26.59,17.18-26.59,17.18,0,0-.05.07-.14.18l-57.24-29.71,1.03-.55,25.24-14.54c4.11-2.36,9.15-2.38,13.28-.05l44.43,25.17c.42.24.67.68.67,1.15Z"/>
    <path class="cls-13" d="M125.8,102.13v67.34c-1.65-4.08-4.93-6.79-9.31-7.07-7.92-.46-16.38,7.36-18.9,17.48-.65,2.59-.84,5.08-.64,7.36.12,1.29-.53,2.53-1.62,3.23l-9.72,6.23c-.28-8.72-.83-29.55.16-43.36,1.28-17.85,12.5-33.27,12.5-33.27,0,0,18.7-13.21,27.53-17.94Z"/>
    <path class="cls-2" d="M97.56,119.87c-1.24,1.79-10.99,18.42-12.27,35.03l-55.08-32.21c.24-1.41.65-4.25,1.14-7.3.97-6.11,2.92-12.02,5.77-17.5l4.03-7.73,56.41,29.71Z"/>
    <path class="cls-12" d="M90.5,121.42c-.95,1.38-8.45,14.16-9.44,26.94l-46.52-27.43c.19-1.09.5-3.27.87-5.61.74-4.7,2.24-9.24,4.44-13.46l3.1-5.94,47.54,25.5Z"/>
    <path class="cls-17" d="M120.28,112.76l-2.81,1.54c-11.74,6.36-18.73,10.64-23.15,28.31-.25.98-.36,3.37-.51,4.27l-.17,2,26.64-16.57v-19.54Z"/>
    <path class="cls-13" d="M85.61,196.7l-54.73-32.5c-.42-.25-.67-.69-.67-1.18v-9.96l55.08,32.21.05,1.28.07,2.59.05,1.97c.02.83.05,1.61.07,2.34l.09,3.23Z"/>
    <path class="cls-13" d="M85.29,154.9v9.84c-.02.6-.02,1.19-.05,1.79l-55.04-32.19v-11.65l55.08,32.21Z"/>
    <polygon class="cls-3" points="70.99 158.2 70.99 176.93 42.68 160.36 42.68 142.12 43.51 142.12 70.99 158.2"/>
  </g>
  <g>
    <polygon class="cls-8" points="218.7 272.95 172.99 247.05 172.99 212.04 218.7 237.93 218.7 272.95"/>
    <polygon class="cls-13" points="263.53 247.05 218.7 272.95 218.7 237.93 263.53 212.04 263.53 247.05"/>
    <polygon class="cls-2" points="218.7 238.07 172.99 212.17 217.83 186.14 263.53 212.04 218.7 238.07"/>
    <line class="cls-6" x1="196.6" y1="225.55" x2="241.12" y2="199.34"/>
    <ellipse class="cls-17" cx="218.26" cy="211.57" rx="14.57" ry="8.43"/>
    <line class="cls-16" x1="213.75" y1="209.51" x2="214.22" y2="213.63"/>
    <line class="cls-16" x1="224.94" y1="211.45" x2="214.22" y2="213.63"/>
  </g>
  <g>
    <polygon class="cls-13" points="274.86 275.88 302.66 260.13 302.66 238.83 274.86 254.58 274.86 275.88"/>
    <polygon class="cls-8" points="247.59 260.13 274.86 275.88 274.86 254.58 247.59 238.83 247.59 260.13"/>
    <polygon class="cls-2" points="274.86 254.66 302.66 238.91 275.39 223.08 247.59 238.83 274.86 254.66"/>
    <line class="cls-6" x1="288.3" y1="247.05" x2="261.22" y2="231.1"/>
  </g>
  <g id="tie">
    <path class="cls-17" d="M305.09,216.48c-.05.08-.11.17-.22.27-.3.28-.91.61-2.17.53-.17,0-.41-.03-.7-.08-1.19-.17-3.25-.63-5.4-1.14t-.02,0c-3.72-.88-7.68-1.91-7.68-1.91,0,0,.02-.27.05-.75.16-2.88.86-13.67,2.85-23.7,2.31-11.7,6.49-23.08,6.49-23.08l2.83.94,2.21.74,1.3.44c-1.81,17.13.02,47.75.47,47.75Z"/>
    <path class="cls-17" d="M312.88,158.77c-.33,1-1.14,2.24-2.16,3.52-.67.86-1.45,1.75-2.22,2.6-1.55,1.64-3.07,3.1-3.88,3.85-.38.34-.59.55-.59.55,0,0-.47-.08-1.16-.27-.52-.13-1.13-.31-1.77-.56-1.09-.42-2.22-1.02-2.82-1.83-.16-.2-.28-.44-.34-.67-.23-.81-.42-2.42-.55-4.21v-.02c-.16-2.31-.25-4.9-.3-6.33-.02-.69.72-1.11.72-1.11l.66,1.11,1.31,2.28,1.53.48.45.14h.02l3.93,1.24,1.31.41,3.94-2.91s3.13-1.91,1.91,1.74Z"/>
  </g>
  <g id="vorot">
    <path class="cls-2" d="M328.52,150.2c-1.13,2.14-3.77,7.05-5.9,9.45-2.11,2.36-7.79,6.66-10.43,8.62-.74.55-1.77.3-2.19-.5l-1.5-2.88-.7-1.35-2.08-4-.13-.23s7.54-3.85,11.73-6.96c5.13-3.82,6.69-9.56,6.69-9.56l2.46,3.1,1.85,2.35c.45.56.53,1.33.2,1.97Z"/>
    <path class="cls-2" d="M302.03,158.48s-.28.19-.72.47c-1.06.72-3.07,2.06-3.91,2.77v.02c-.09.08-.17.16-.23.22-.55.55-1.58,1.81-2.3,2.71-.31.39-.94.27-1.06-.22-.53-2-1.53-6.1-1.6-8.54-.03-1.17.2-2.75.5-4.32.34-1.74.78-3.47,1.08-4.55.2-.72.33-1.16.33-1.16,0,0,.17.77.52,1.88.44,1.39,1.14,3.35,2.17,5.02.09.17.2.34.31.5.31.45.63.88.95,1.28.41.52.83.99,1.24,1.41.78.84,1.52,1.5,2.02,1.96.19.14.34.28.45.38h.02c.16.13.23.19.23.19Z"/>
  </g>
  <g id="head">
    <path class="cls-2" d="M301.48,157.5s3.36,2.32,5.88.87c2.52-1.45,10.23-5.68,12.04-7.86s4.09-4.63,4.09-4.63c0,0,1.63-6.09-2.72-6.39s-13.55,7.64-13.55,7.64l-8.75,3.36-2.32.17,1.17,2.38c.76,1.54,1.89,2.86,3.29,3.85l.87.61Z"/>
    <path class="cls-7" d="M312.08,148.79s-4.08,2.67-11.82,3.86c-.19.03-.39.06-.58.09-.84.13-1.66.14-2.47.08-.14-.02-.28-.03-.41-.05-1.44-.16-2.82-.58-4.1-1.19-1.44-.66-2.77-1.55-3.94-2.53-.78-.64-1.49-1.31-2.11-2-1.6-1.72-2.71-3.44-3.19-4.61-2.27-5.55-3.38-16.61-3.64-19.69,5.07,1.61,12.47,1.92,21.36.42,4.63-.77,9.17-1.96,13.26-3.39.09.5.2,1,.3,1.45.47,1.97,2.55,3.25,3.71,3.36,1.16.13,2.31-.81,4.39-3.24,1.35-1.58,3.02-2.71,4.79-2.77.99-.05,2,.25,2.99.97,2.27,1.66,1.45,5.21.06,8.29-.31.69-.64,1.36-.99,1.97-1.86,3.35-6.26,3.93-6.26,3.93l-.23,7.15v.02l-.13,4.97"/>
  </g>
  <g id="hand">
    <path class="cls-7" d="M289.58,218.09s-3.02-2-7.62-1.74c-2.07.12-4.22,1.02-5.68,1.81-1.23.66-1.68,3.68-.33,4.04l3.36-.95"/>
    <path class="cls-7" d="M312.19,238.36s-11.04-4.28-16.64-2.69c-5.79,2.9-9.43,6.86-11.86,8.6s-8.11.58-5.79-2.55c2.32-3.13,11.01-10.54,11.01-10.54l-11.08,10.66c-1.6,1.54-4.28,1.55-5.65-.21-.8-1.03-1.02-2.53.51-4.66,3.82-5.33,10.08-10.54,10.08-10.54l-11.14,11.82s-5.08-2.24-1.49-6.88,10.2-12.47,17.73-14.32c7.53-1.85,15.91,1.4,15.91,1.4,0,0,11.89-.24,12.82,4.04s3.36,10.89,1.39,12.63c-1.97,1.74-5.79,3.24-5.79,3.24Z"/>
  </g>
  <g id="hand-left">
    <g>
      <path class="cls-9" d="M354.25,206.73s-.05.08-.09.13l-6.87,9.62-3.75-.5-7.48-1.02-.58-2.52s-.66-3.28-1.3-7.68c-.91-6.18-1.77-14.58-.67-19.11,1.72-7.23,4.22-17.19,14.69-20.85.06-.03.13-.05.19-.06.17-.06.33-.09.47-.14.56-.2,1.16-.36,1.77-.5v.27c-.08,19.17,3.63,42.37,3.63,42.37Z"/>
      <path class="cls-9" d="M348.38,164.74c.17-.06.33-.09.47-.14.69-.17,1.3-.27,1.77-.23.33,0,.59.06.81.19.16.08.28.19.38.34.08.13.14.27.22.41,2.27,4.19,5.36,12.5,7.38,20.94,1.42,5.97,2.31,12,1.96,16.67-.86,11.46-1.38,16.84-7.29,21.19-4.24,3.11-20.38,8.84-29.89,12,.63-4.44.92-10.07-.41-14.78-.09-.31-.19-.61-.31-.91-1.91-4.91-7.1-6.55-11.09-7.08,1.56-.63,17.13-7.01,21.8-8.57.56-.19.97-.31,1.17-.34,1.97-.3,3.85-.25,4.9.06,1.39.41,3.46,2.42,3.46,2.42"/>
    </g>
    <path class="cls-9" d="M324.19,236.11c-3.75,1.25-6.47,2.1-7.04,2.25-2,.53-4.96,0-4.96,0,0,0,2.35-2.25,2.5-7.01.11-2.83-.59-6.9-4.18-9.84-1.55-1.27-4.83-2.47-6.68-3.07-.47-.16-.52-.8-.06-1.02l1.24-.58,7.24-3.46s.05-.02.13-.06c3.99.53,9.18,2.17,11.09,7.08.13.3.22.59.31.91,1.33,4.71,1.03,10.34.41,14.78Z"/>
  </g>
  <path class="cls-9" d="M350.62,164.37v-.27c-.61.14-1.2.3-1.77.5-.14.05-.3.08-.47.14-.06,0-.13.03-.19.05v.02c-10.46,3.66-12.97,13.62-14.69,20.85-1.09,4.54-.23,12.93.67,19.11-4.68,1.56-20.24,7.95-21.8,8.57-.08.05-.13.06-.13.06l-7.24,3.46-.14-.11c.11-.09.17-.19.22-.27-.45,0-2.28-30.62-.47-47.75.81-.75,2.33-2.21,3.88-3.85l1.5,2.88c.42.8,1.45,1.05,2.19.5,2.64-1.96,8.32-6.26,10.43-8.62,2.13-2.39,4.77-7.3,5.9-9.45.33-.64.25-1.41-.2-1.97l-1.85-2.35s21,14.64,23.43,16.97c.38.36.89.95,1.53,1.7-.22-.13-.48-.19-.81-.19Z"/>
  <line class="cls-16" x1="310.69" y1="186.28" x2="323.62" y2="191.04"/>
  <path class="cls-9" d="M235.9,181.8c-.39-.05-.8-.13-1.24-.27l-1.83-2.49h2.55l7.41-2.21,8.91-10.95s.89-.09,2.1.25c-.23,1.66-.67,3.35-1.28,4.91-2.83,7.24-11.06,11.32-16.63,10.74Z"/>
  <path class="cls-9" d="M281.44,150.52c-2.27.94-5,2.46-8.18,4.86-6.77,5.15-11.26,9.87-13.34,12.25-.92,1.05-1.38,1.64-1.38,1.64l.03.03c.11.09.47.39.97.83,1.08.94,2.78,2.49,3.99,3.82.69.77,1.27,1.58,1.7,2.33-.77-1.22-1.52-2.13-2.35-2.97-.97-.99-2.03-1.91-3.35-3.17-.25,2.96-2.99,7.98-7.84,11.23-5.08,3.39-9.02,5.79-11.78,7.34l1.19,1.6s9.9,9.24,18.58,7.19c8.7-2.05,15.42-7.19,15.42-7.19,0,0-.03-.66.05-2.06.16-2.74.74-8.32,2.78-17.3,3.41-14.91,10.81-21.88,10.81-21.88,0,0-2.63-.47-7.32,1.47ZM265.82,177.33c.45.88.7,1.58.8,1.83l-.8-1.83Z"/>
  <path class="cls-9" d="M259.49,170.42c-.84,3.53-2.92,7.69-7.77,10.95-5.08,3.39-9.02,5.79-11.78,7.34l-5.27-7.16c.44.14.84.22,1.24.27,5.57.58,13.79-3.5,16.63-10.74.61-1.56,1.05-3.25,1.28-4.91.36.11.75.27,1.16.47,1.74.89,3.58,2.66,3.58,2.66l.03.03.91,1.11Z"/>
  <path class="cls-7" d="M253.81,166.15c-.23,1.66-.67,3.35-1.28,4.91-2.83,7.24-11.06,11.32-16.63,10.74-.39-.05-.8-.13-1.24-.27-4.75-1.44-11.73-7.88-14.45-10.43l13.45-11.34c1.92-1.52,9.9-2.47,14.11-3.66.3-.08.59-.14.88-.17,2.27-.31,3.75.88,4.58,2.86.8,1.92.97,4.61.58,7.35Z"/>
  <path class="cls-17" d="M239.53,193.74c.05.58-.06,1.13-.31,1.61-1.8,3.47-10.34,2.64-19.08-1.88-8.73-4.5-14.36-11-12.56-14.47,0,0,.02-.03.05-.08,1.89-3.39,10.35-2.53,19.03,1.94,7.52,3.89,12.73,9.23,12.87,12.87Z"/>
  <path class="cls-11" d="M233.66,191.35c.03.37-.04.72-.2,1.02-1.14,2.21-6.58,1.68-12.14-1.19-5.55-2.87-9.13-6.99-7.99-9.2,0,0,0-.02.03-.05,1.2-2.16,6.59-1.61,12.11,1.23,4.79,2.48,8.1,5.87,8.19,8.19Z"/>
  <path class="cls-8" d="M239.37,170.25c-1.74,5.04.53,11.81.53,11.81,0,0,1.74,3.49,1.22,6.43-.53,2.96-1.6,5.26-1.6,5.26-.14-3.64-5.35-8.98-12.87-12.87-8.68-4.47-17.14-5.33-19.03-1.94.42-.78,3.96-7.05,6.55-7.76,2.78-.75,10.95.81,14.25-6.66,3.32-7.48,8.52-20.6,8.52-20.6,0,0,4.52-6.51,9.9-3.72,5.4,2.77,7.04,6.42,4.86,11.01-1.72,3.63-10.59,14.01-12.34,19.05Z"/>
  <g id="fongers">
    <path class="cls-7" d="M232.44,149.06c-2.51-1.57-5.14-1.4-6.7,1.29-.83,1.43-.94,3.26.17,4.23s6.17,4.11,6.17,4.11l4.21,2.36c1.66.93,3.76.48,4.9-1.05l.33-.44c1.31-1.77-1.15-5.53-3.01-6.7l-6.05-3.79Z"/>
    <path class="cls-7" d="M222.28,163.19c-2.82-.9-5.33-.07-6.17,2.93-.44,1.59-.1,3.39,1.22,4.05s7,2.44,7,2.44l4.66,1.23c1.85.49,3.76-.48,4.48-2.25l.21-.51c.82-2.04-.27-4.36-2.37-5.02l-9.03-2.87Z"/>
    <path class="cls-7" d="M224.54,154.27c-2.7-1.23-5.28-.7-6.47,2.17-.63,1.52-.5,3.35.73,4.17s6.66,3.25,6.66,3.25l4.48,1.78c1.77.7,3.79-.02,4.71-1.7l.26-.48c1.06-1.93.25-4.36-1.75-5.27l-8.63-3.92Z"/>
  </g>
  <path id="big-finger" class="cls-7" d="M250.34,156s-6.76,1.81-9.05,3.2c-2.29,1.4-3.65,3.64-3.65,3.64,0,0,1.57,5.43,7.04,3.06s5.3-1.31,5.3-1.31"/>
  <path class="cls-9" d="M298.29,166.62s-4.18,11.39-6.49,23.08c-1.99,10.03-2.74,21.57-2.89,24.45-6.38-2.31-12.68-5.63-12.86-6.71-.19-1.24-.58-10.92-.88-19.21.16-2.74.74-8.32,2.78-17.3,3.41-14.91,10.81-21.88,10.81-21.88,1.17.99,2.5,1.88,3.94,2.53-.3,1.56-.53,3.14-.5,4.32.06,2.44,1.06,6.54,1.6,8.54.13.48.75.61,1.06.22.72-.89,1.75-2.16,2.3-2.71.06-.06.14-.14.23-.22.13,1.78.31,3.39.55,4.21.06.23.19.47.34.67Z"/>
  <path class="cls-17" d="M334.59,100.54c-.36,2.39-2.91,4.27-6.96,5.49-5.97,1.83-15.23,2.22-25.37.72-10.17-1.49-18.92-4.54-24.13-8.01-3.49-2.33-5.38-4.85-5.04-7.23.03-.2.08-.41.14-.59.53-1.72,2.27-3.16,4.9-4.24,5.8-2.36,16-3.03,27.28-1.38,9.01,1.31,16.92,3.86,22.22,6.83,2.83,1.58,4.93,3.3,6.05,5,.74,1.14,1.06,2.28.91,3.39Z"/>
  <path class="cls-9" d="M327.63,106.03v7.93c-.58.14-1.17.25-1.78.38-6.65,1.27-15.16,1.53-24.29.53-9.06-1-17.22-3.08-23.43-5.72v-10.4c2.41,1.61,5.61,3.13,9.37,4.46,4.3,1.52,9.32,2.75,14.76,3.55,10.13,1.5,19.39,1.11,25.37-.72Z"/>
  <path class="cls-17" d="M327.63,113.96v4.63c-1.77.06-3.44,1.19-4.79,2.77-2.08,2.42-3.24,3.36-4.39,3.24-1.16-.11-3.24-1.39-3.71-3.36-.09-.45-.2-.95-.3-1.45-4.1,1.44-8.63,2.63-13.26,3.39-8.9,1.5-16.3,1.19-21.36-.42-4.21-1.36-6.79-3.61-7.27-6.47-.45-2.77,1.67-5.74,5.58-8.41v1.28c6.21,2.64,14.37,4.72,23.43,5.72,9.13,1,17.64.74,24.29-.53.61-.13,1.2-.23,1.78-.38Z"/>
</svg>