<?xml version="1.0" encoding="UTF-8"?>
<svg id="Logistics" xmlns="http://www.w3.org/2000/svg" viewBox="0 0 380.44 288.44">
  <defs>
    <style>
      .cls-1 {
        fill: #fff;
      }

      .cls-1, .cls-2, .cls-3, .cls-4 {
        stroke: #0032b8;
        stroke-linejoin: round;
        stroke-width: 2px;
      }

      .cls-1, .cls-3, .cls-4 {
        stroke-linecap: round;
      }

      .cls-2 {
        fill: #286aff;
      }

      .cls-3 {
        fill: #00a0ff;
      }

      .cls-4 {
        fill: #00b6ff;
      }
    </style>
  </defs>
  <g id="hand-stamp-downed">
    <path class="cls-4" d="M268.61,190.14c-.74.37-1.53.74-2.36,1.09-1.97.85-4.19,1.64-6.55,2.19-8.68,2.05-18.58-7.19-18.58-7.19l-1.19-1.6c2.75-1.55,6.69-3.94,11.78-7.33,2.89-1.95,5.03-4.52,6.34-6.91.89-1.61,1.39-3.14,1.49-4.32,1.03.99,1.92,1.78,2.72,2.56,3,3.13,5.83,7.22,6.1,11.66.23,3.84.28,7.2.25,9.85Z"/>
    <path class="cls-4" d="M259.48,166.35c-.3,1.27-.76,2.61-1.46,3.96-1.23,2.43-3.2,4.9-6.31,6.99-5.09,3.39-9.03,5.78-11.78,7.33l-5.27-7.16c.44.14.84.22,1.23.26,5.57.58,13.8-3.5,16.63-10.74.61-1.56,1.05-3.25,1.28-4.91.36.11.75.26,1.16.47,0,0,.02.02.07.04.31.21,1.64,1.07,3.33,2.45.03.03.07.06.1.09l.08.08.03.03.91,1.11Z"/>
    <path class="cls-1" d="M253.8,162.08c-.23,1.66-.67,3.35-1.28,4.91-2.83,7.24-11.06,11.32-16.63,10.74-.39-.05-.8-.13-1.24-.27-4.75-1.44-11.73-7.88-14.45-10.43l13.45-11.34c1.92-1.52,9.9-2.47,14.11-3.66.3-.08.59-.14.88-.17,2.27-.31,3.75.88,4.58,2.86.8,1.92.97,4.61.58,7.35Z"/>
    <g id="stamp">
      <path class="cls-4" d="M238.43,167.66c-.8,4.48.91,9.56.91,9.56,0,0,1.02,2.02,1.21,4.25-5.36-.08-10.57-1.46-15.1-4.16-4.94-2.95-8.21-6.92-10.31-10.39,2.08-.51,7.02.18,10.6-2.63,1.09-.85,2.04-2.02,2.76-3.64,3.13-7.06,8.05-19.45,8.05-19.45,0,0,4.27-6.15,9.35-3.51,5.09,2.62,6.65,6.06,4.59,10.4-1.62,3.43-10,13.23-11.65,17.99-.18.51-.31,1.05-.41,1.59Z"/>
      <path class="cls-3" d="M240.53,183.03c0,.09-.02.18-.04.26-.5,2.79-1.1,4.69-1.1,4.69-.03.12-.07.25-.1.36-6.09,1.71-11.81.23-18.17-3.34-6.15-3.46-9.74-8.26-11.67-11.76.42-.73,1.06-1.73,1.77-2.72,1.19-1.63,2.62-3.25,3.82-3.58.03,0,.06-.02.09-.02,1.68,2.77,4.1,5.84,7.51,8.48.87.67,1.8,1.31,2.8,1.91,3.22,1.92,6.78,3.17,10.49,3.76,1.51.25,3.05.39,4.61.41.05.52.05,1.05-.02,1.56Z"/>
      <path class="cls-2" d="M239.29,188.35c-.18.58-.41,1.05-.6,1.43-1.69,3.28-9.75,2.49-18.02-1.78-8.23-4.25-13.55-10.38-11.86-13.65,0,0,.02-.03.05-.08.02-.03.04-.06.05-.08.1-.19.29-.52.55-.94,1.93,3.5,5.4,8.54,11.67,11.76s12.43,4.7,18.17,3.34Z"/>
    </g>
    <g id="fongers">
      <path class="cls-1" d="M232.43,144.99c-2.51-1.57-5.14-1.4-6.7,1.29-.83,1.43-.94,3.26.17,4.23s6.17,4.11,6.17,4.11l4.21,2.36c1.66.93,3.76.48,4.9-1.05l.33-.44c1.31-1.77-1.15-5.53-3.01-6.7l-6.05-3.79Z"/>
      <path class="cls-1" d="M222.27,159.11c-2.82-.9-5.33-.07-6.17,2.93-.44,1.59-.1,3.39,1.22,4.05,1.37.69,7,2.44,7,2.44l4.66,1.23c1.85.49,3.76-.48,4.48-2.25l.21-.51c.82-2.04-.27-4.36-2.37-5.02l-9.03-2.87Z"/>
      <path class="cls-1" d="M224.53,150.19c-2.7-1.23-5.28-.7-6.47,2.17-.63,1.52-.5,3.35.73,4.17s6.66,3.25,6.66,3.25l4.48,1.78c1.77.7,3.79-.02,4.71-1.7l.26-.48c1.06-1.93.25-4.36-1.75-5.27l-8.63-3.92Z"/>
    </g>
    <path id="big-finger" class="cls-1" d="M250.34,151.93s-6.76,1.81-9.05,3.2c-2.29,1.4-3.65,3.64-3.65,3.64,0,0,1.57,5.43,7.04,3.06,5.21-2.26,5.3-1.31,5.3-1.31"/>
    <path class="cls-4" d="M290.37,141.33c-5.19,2.3-13.93,7.58-17.1,9.99-6.77,5.14-11.26,9.87-13.34,12.24-.85.96-1.3,1.54-1.37,1.64h-.01s.03.04.03.04c.11.09.47.39.97.83.49.43,1.11.97,1.75,1.58.05.04.1.09.15.14.73.67,1.48,1.41,2.09,2.09,2.66,3.46,1.03,1.18-.64-.64-.2-.21-.41-.41-.63-.61,3,3.13,4.62,5.09,5.88,10.71.84,3.75.5,8.15.47,10.8,7.87-4.13,14.26-9.87,21.27-15.31.72-.78,23.33-19.89,25.81-28.76.93-3.32-.25-5.77-2.03-7.52-2.92-2.87-7.33-3.6-11.15-2.12s-9.31,3.64-12.15,4.89Z"/>
  </g>
</svg>