<?xml version="1.0" encoding="UTF-8"?>
<svg id="Logistics" xmlns="http://www.w3.org/2000/svg" viewBox="0 0 380.44 288.44">
  <defs>
    <style>
      .cls-1 {
        fill: #00b6ff;
      }

      .cls-1, .cls-2, .cls-3, .cls-4, .cls-5, .cls-6, .cls-7, .cls-8, .cls-9, .cls-10, .cls-11, .cls-12, .cls-13, .cls-14 {
        stroke: #0032b8;
        stroke-width: 2px;
      }

      .cls-1, .cls-2, .cls-3, .cls-4, .cls-5, .cls-6, .cls-7, .cls-8, .cls-9, .cls-11, .cls-12, .cls-14 {
        stroke-linejoin: round;
      }

      .cls-2 {
        fill: #7fc0ff;
      }

      .cls-3 {
        fill: #5addff;
      }

      .cls-4, .cls-10 {
        fill: #fff;
      }

      .cls-5 {
        fill: none;
        stroke-linecap: round;
      }

      .cls-6 {
        fill: #aaf9ff;
      }

      .cls-7 {
        fill: #0071cf;
      }

      .cls-8 {
        fill: #0062ff;
      }

      .cls-9 {
        fill: #0087ff;
      }

      .cls-10, .cls-13 {
        stroke-miterlimit: 10;
      }

      .cls-11 {
        fill: #0085ff;
      }

      .cls-12, .cls-13 {
        fill: #9fddff;
      }

      .cls-14 {
        fill: #008bea;
      }
    </style>
  </defs>
  <g id="car">
    <g id="Wheels">
      <g>
        <g>
          <path class="cls-7" d="M109.48,154.14c2.63,1.44,14.44,4.6,14.44,4.6,0,0,1.88,3.51.67,11.7-4.24,8.22-12.45,7.83-12.04,12.12.41,4.29-3.5,10.77-4,10.85-.3.05-5.17-2.01-9.04-3.67-2.99-1.28-5.18-3.92-5.91-7.09l-1.82-7.9,1.97-9.86s3.54-6.25,4.71-7.34,11.01-3.4,11.01-3.4Z"/>
          <path class="cls-7" d="M127.41,168.34c-1.42-3.51-4.24-5.84-8.01-6.08-6.81-.39-14.09,6.33-16.26,15.03-.73,2.9-.79,5.66-.3,8.05.99,4.81,4.18,8.19,8.72,8.44,6.83.41,14.11-6.33,16.26-15.03.97-3.91.75-7.56-.41-10.42ZM119.54,178.27c-.71,2.86-3.1,5.09-5.35,4.95-1.64-.1-2.74-1.44-2.92-3.27-.08-.65-.04-1.38.16-2.15.71-2.86,3.1-5.07,5.35-4.93,1.2.06,2.13.81,2.58,1.91.41.95.51,2.17.18,3.49Z"/>
        </g>
        <path class="cls-13" d="M119.54,178.27c-.71,2.86-3.1,5.09-5.35,4.95-1.64-.1-2.74-1.44-2.92-3.27-.08-.65-.04-1.38.16-2.15.71-2.86,3.1-5.07,5.35-4.93,1.2.06,2.13.81,2.58,1.91.41.95.51,2.17.18,3.49Z"/>
        <path class="cls-10" d="M119.54,178.27c-.71,2.86-3.1,5.09-5.35,4.95-2.23-.14-3.47-2.56-2.76-5.43.71-2.86,3.1-5.07,5.35-4.93,2.25.12,3.47,2.54,2.76,5.41Z"/>
      </g>
      <g>
        <g>
          <path class="cls-7" d="M202.56,108.1c2.63,1.44,13.13,6.36,13.13,6.36,0,0,.86,5.59-3.37,13.81-4.24,8.22-6.17,1.77-5.76,6.06.41,4.29-3.5,10.77-4,10.85-.35.06-6.87-2.73-10.82-4.44-1.87-.81-3.24-2.46-3.7-4.45l-2.25-9.78,1.97-9.86s3.54-6.25,4.71-7.34,10.08-1.21,10.08-1.21Z"/>
          <path class="cls-8" d="M221.43,120.12c-.37-.92-.83-1.74-1.38-2.48-1.56-2.11-3.85-3.44-6.65-3.6-6.79-.41-14.09,6.33-16.24,15.03-.16.62-.28,1.24-.37,1.86-.37,2.23-.32,4.34.07,6.19.99,4.82,4.18,8.19,8.72,8.44,6.84.41,14.11-6.33,16.27-15.03.96-3.92.73-7.57-.41-10.42ZM213.53,130.03c-.71,2.87-3.1,5.09-5.35,4.96-1.63-.09-2.73-1.45-2.91-3.28-.07-.64-.05-1.38.16-2.16.71-2.84,3.1-5.07,5.35-4.93,1.19.07,2.13.83,2.59,1.93.41.94.5,2.16.16,3.49Z"/>
        </g>
        <path class="cls-13" d="M213.54,130.03c-.71,2.86-3.1,5.09-5.35,4.95-1.64-.1-2.74-1.44-2.92-3.27-.08-.65-.04-1.38.16-2.15.71-2.86,3.1-5.07,5.35-4.93,1.2.06,2.13.81,2.58,1.91.41.95.51,2.17.18,3.49Z"/>
        <path class="cls-10" d="M213.54,130.03c-.71,2.86-3.1,5.09-5.35,4.95-2.23-.14-3.47-2.56-2.76-5.43.71-2.86,3.1-5.07,5.35-4.93,2.25.12,3.47,2.54,2.76,5.41Z"/>
      </g>
    </g>
    <g id="base">
      <polygon class="cls-9" points="138.28 153.77 138.28 164.33 70.48 124.81 70.5 115 138.28 153.77"/>
      <polygon class="cls-9" points="233.88 99.56 215.05 110.32 196.56 120.87 138.28 154.14 70.49 115 166.09 60.42 233.88 99.56"/>
      <path class="cls-8" d="M138.28,154.14l58.27-33.27c-.5.96-.96,1.97-1.35,3.03-1.12,2.98-1.63,6.01-1.63,8.86l-55.29,31.57v-10.19Z"/>
      <path class="cls-8" d="M233.88,99.56v10.19l-13.83,7.89c-1.45-2.68-5.16-4.82-8.31-4.9-.28-.11-1.15.35-1.43.28l23.57-13.46Z"/>
    </g>
    <g>
      <polygon class="cls-1" points="138.22 148.76 91.68 122.73 91.68 66.83 138.22 92.86 138.22 148.76"/>
      <polygon class="cls-11" points="132.49 138.67 97.41 119.05 97.41 76.92 132.49 96.54 132.49 138.67"/>
      <polygon class="cls-12" points="227.14 99.56 138.3 148.84 138.3 92.94 227.14 44.94 227.14 99.56"/>
      <polygon class="cls-3" points="221.66 96.17 145.43 137.95 145.43 96.89 221.66 55.89 221.66 96.17"/>
      <polygon class="cls-6" points="138.22 92.86 91.68 66.83 180.6 18.91 227.14 44.94 138.22 92.86"/>
      <polygon class="cls-2" points="137.88 87.43 100.74 67.07 108.92 62.72 145.43 83.36 137.88 87.43"/>
      <polygon class="cls-2" points="153.02 79.18 115.87 58.83 124.06 54.48 160.57 75.11 153.02 79.18"/>
      <polygon class="cls-2" points="168.34 70.79 131.2 50.44 139.38 46.09 175.89 66.72 168.34 70.79"/>
      <polygon class="cls-2" points="182.58 63.24 145.43 42.89 153.61 38.54 190.12 59.18 182.58 63.24"/>
      <polygon class="cls-2" points="196.55 55.89 159.41 35.54 167.59 31.18 204.1 51.82 196.55 55.89"/>
      <polygon class="cls-2" points="210.57 48.59 173.42 28.24 181.61 23.89 218.12 44.52 210.57 48.59"/>
      <line class="cls-5" x1="154.67" y1="96.89" x2="154.67" y2="128.05"/>
      <line class="cls-5" x1="164.68" y1="92.22" x2="164.68" y2="123.37"/>
      <line class="cls-5" x1="175.89" y1="85.29" x2="175.89" y2="116.44"/>
      <line class="cls-5" x1="186.53" y1="79.18" x2="186.53" y2="110.34"/>
      <line class="cls-5" x1="195.77" y1="74" x2="195.77" y2="105.15"/>
      <line class="cls-5" x1="205.33" y1="69.07" x2="205.33" y2="100.23"/>
      <line class="cls-5" x1="214.89" y1="64.45" x2="214.89" y2="95.61"/>
    </g>
    <g id="cabin">
      <polygon class="cls-4" points="30.2 130.28 43.51 138.06 42.68 138.06 42.68 156.3 30.2 149 30.2 130.28"/>
      <path class="cls-4" d="M85.33,182.5l-.05-1.28-14.29-8.35v-18.72l14.25,8.33c-.09,6.88-.02,14.04.09,20.03Z"/>
      <path class="cls-4" d="M125.8,97.28h0c0,.49-.26.93-.69,1.16-9.07,4.99-26.59,17.18-26.59,17.18,0,0-.05.07-.14.18l-56.57-29.36c-.28-.15-.29-.54-.01-.7,4.05-2.25,24.7-14.24,25.62-14.74,4.11-2.36,9.15-2.38,13.28-.05l44.43,25.17c.42.24.67.68.67,1.15Z"/>
      <path class="cls-12" d="M125.8,98.07v67.34c-1.65-4.08-4.93-6.79-9.31-7.07-7.92-.46-16.38,7.36-18.9,17.48-.65,2.59-.84,5.09-.64,7.36.12,1.29-.53,2.53-1.62,3.22l-7.13,4.57c-1.14.73-2.64-.06-2.67-1.41-.28-9.88-.63-27.91.25-40.3,1.28-17.85,12.5-33.27,12.5-33.27,0,0,18.7-13.21,27.53-17.94Z"/>
      <path class="cls-4" d="M97.56,115.8c-1.24,1.79-10.99,18.42-12.27,35.03l-55.08-32.21c.24-1.42.66-4.27,1.14-7.32.97-6.1,2.92-12,5.77-17.48l3.61-6.92c.23-.45.79-.62,1.23-.39l55.6,29.28Z"/>
      <path class="cls-14" d="M90.61,119.66c-2.14,3.79-6.57,12.69-8.01,22.09-.22,1.44-1.79,2.22-3.05,1.48l-43.8-25.66c-.72-.42-1.11-1.24-.98-2.07.16-1.06.37-2.44.6-3.9.77-4.92,2.35-9.69,4.65-14.11l1.99-3.82c.52-1.01,1.77-1.39,2.77-.86l45.01,24.04c1.01.54,1.38,1.8.81,2.8Z"/>
      <path class="cls-9" d="M120.28,109.73c0-.46-.5-.74-.89-.51-11.76,6.58-24.32,15.72-25.67,34.24-.04.57.59.94,1.07.64l24.97-15.53c.32-.2.52-.55.52-.93v-17.9Z"/>
      <path class="cls-9" d="M82.83,190.98l-51.08-30.33c-.96-.57-1.54-1.6-1.54-2.71v-5.84c0-1.38,1.49-2.23,2.68-1.54l51.56,30.15c.53.31.86.86.88,1.47v.3s.08,2.59.08,2.59l.05,1.97c.02.83.05,1.61.07,2.34h0c.04,1.4-1.48,2.3-2.69,1.58Z"/>
      <path class="cls-12" d="M85.29,150.84v9.84c-.02.6-.02,1.19-.05,1.79l-55.04-32.19v-11.65l55.08,32.21Z"/>
      <polygon class="cls-7" points="70.99 154.14 70.99 172.86 42.68 156.3 42.68 138.06 43.51 138.06 70.99 154.14"/>
      <line class="cls-5" x1="119.74" y1="137.33" x2="112.07" y2="141.7"/>
      <line class="cls-5" x1="46.22" y1="144.81" x2="66.89" y2="156.34"/>
      <line class="cls-5" x1="46.22" y1="149.69" x2="66.89" y2="161.22"/>
      <line class="cls-5" x1="46.22" y1="154.14" x2="66.89" y2="165.67"/>
    </g>
  </g>
</svg>