<?xml version="1.0" encoding="utf-8"?>
<!-- Generator: Adobe Illustrator 28.1.0, SVG Export Plug-In . SVG Version: 6.00 Build 0)  -->
<svg version="1.1" xmlns="http://www.w3.org/2000/svg" xmlns:xlink="http://www.w3.org/1999/xlink" x="0px" y="0px"
	 viewBox="0 0 250 250" style="enable-background:new 0 0 250 250;" xml:space="preserve">
<style type="text/css">
	.st0{display:none;}
	.st1{display:inline;}
	.st2{fill:#0071CF;stroke:#00288A;stroke-linejoin:round;stroke-miterlimit:10;}
	.st3{fill:#9FDDFF;stroke:#00288A;stroke-miterlimit:10;}
	.st4{fill:#FFFFFF;stroke:#00288A;stroke-miterlimit:10;}
	.st5{fill:#0062FF;stroke:#00288A;stroke-linejoin:round;stroke-miterlimit:10;}
	.st6{fill:#0087FF;stroke:#00288A;stroke-linejoin:round;stroke-miterlimit:10;}
	.st7{fill:#00B6FF;stroke:#00288A;stroke-linejoin:round;stroke-miterlimit:10;}
	.st8{fill:none;stroke:#00288A;stroke-linecap:round;stroke-miterlimit:10;}
	.st9{fill:#FFFFFF;stroke:#00288A;stroke-linejoin:round;stroke-miterlimit:10;}
	.st10{fill:#9FDDFF;stroke:#00288A;stroke-linejoin:round;stroke-miterlimit:10;}
	.st11{fill:#008BEA;stroke:#00288A;stroke-linejoin:round;stroke-miterlimit:10;}
	.st12{fill:none;stroke:#00288A;stroke-linejoin:round;stroke-miterlimit:10;}
	.st13{fill:none;stroke:#00288A;stroke-linecap:round;stroke-linejoin:round;stroke-miterlimit:10;}
	.st14{fill:#0085FF;stroke:#00288A;stroke-linejoin:round;stroke-miterlimit:10;}
	.st15{fill:#5ADDFF;stroke:#00288A;stroke-linejoin:round;stroke-miterlimit:10;}
	.st16{fill:#AAF9FF;stroke:#00288A;stroke-linejoin:round;stroke-miterlimit:10;}
	.st17{fill:#7FC0FF;stroke:#00288A;stroke-linejoin:round;stroke-miterlimit:10;}
	.st18{fill:none;stroke:#00288A;stroke-width:2;stroke-linecap:round;stroke-linejoin:round;stroke-miterlimit:10;}
	.st19{fill:#FFFFFF;stroke:#00288A;stroke-linecap:round;stroke-linejoin:round;stroke-miterlimit:10;}
	.st20{fill:#00B6FF;stroke:#00288A;stroke-linecap:round;stroke-linejoin:round;stroke-miterlimit:10;}
</style>
<g id="Слой_1" class="st0">
	<g class="st1">
		
			<image style="overflow:visible;" width="553" height="448" xlink:href="../png/logistics-customs-illustration.png"  transform="matrix(0.5229 0 0 0.5229 -19.5926 7.8617)">
		</image>
	</g>
</g>
<g id="Car">
	<g id="Wheels">
		<g>
			<g>
				<path class="st2" d="M63.2,174.4c1.4,0.8,7.1,3.2,7.1,3.2s0.4,3.2-1.9,7.7s-3.3,1-3.1,3.3c0.2,2.3-1.9,5.8-2.1,5.8
					c-0.3,0-7.4-3.1-7.4-3.1l-1.6-6.9l1.1-5.3c0,0,1.9-3.4,2.5-3.9S63.2,174.4,63.2,174.4z"/>
				<path class="st2" d="M73.3,180.9c-0.8-1.9-2.3-3.1-4.3-3.3c-3.7-0.2-7.6,3.4-8.7,8.1c-0.4,1.6-0.4,3-0.2,4.3
					c0.5,2.6,2.2,4.4,4.7,4.5c3.7,0.2,7.6-3.4,8.7-8.1C74.1,184.4,73.9,182.4,73.3,180.9z M69.1,186.2c-0.4,1.5-1.7,2.7-2.9,2.7
					c-0.9-0.1-1.5-0.8-1.6-1.8c0-0.3,0-0.7,0.1-1.2c0.4-1.5,1.7-2.7,2.9-2.6c0.6,0,1.1,0.4,1.4,1C69.2,184.8,69.3,185.5,69.1,186.2z
					"/>
			</g>
			<path class="st3" d="M69.1,186.2c-0.4,1.5-1.7,2.7-2.9,2.7c-0.9-0.1-1.5-0.8-1.6-1.8c0-0.3,0-0.7,0.1-1.2
				c0.4-1.5,1.7-2.7,2.9-2.6c0.6,0,1.1,0.4,1.4,1C69.2,184.8,69.3,185.5,69.1,186.2z"/>
			<path class="st4" d="M69.1,186.2c-0.4,1.5-1.7,2.7-2.9,2.7c-1.2-0.1-1.9-1.4-1.5-2.9c0.4-1.5,1.7-2.7,2.9-2.6
				C68.8,183.4,69.5,184.7,69.1,186.2z"/>
		</g>
		<g>
			<g>
				<path class="st2" d="M113.6,148.5c1.4,0.8,7,3.4,7,3.4s0.5,3-1.8,7.4c-2.3,4.4-3.3,1-3.1,3.3c0.2,2.3-1.9,5.8-2.1,5.8
					c-0.2,0-3.7-1.5-5.8-2.4c-1-0.4-1.7-1.3-2-2.4l-1.2-5.2l1.1-5.3c0,0,1.9-3.4,2.5-3.9C108.9,148.6,113.6,148.5,113.6,148.5z"/>
				<path class="st5" d="M123.8,155c-0.2-0.5-0.4-0.9-0.7-1.3c-0.8-1.1-2.1-1.8-3.6-1.9c-3.6-0.2-7.6,3.4-8.7,8.1
					c-0.1,0.3-0.1,0.7-0.2,1c-0.2,1.2-0.2,2.3,0,3.3c0.5,2.6,2.2,4.4,4.7,4.5c3.7,0.2,7.6-3.4,8.7-8.1
					C124.5,158.5,124.4,156.5,123.8,155z M119.5,160.3c-0.4,1.5-1.7,2.7-2.9,2.7c-0.9,0-1.5-0.8-1.6-1.8c0-0.3,0-0.7,0.1-1.2
					c0.4-1.5,1.7-2.7,2.9-2.6c0.6,0,1.1,0.4,1.4,1C119.7,158.9,119.7,159.6,119.5,160.3z"/>
			</g>
			<path class="st3" d="M119.5,160.3c-0.4,1.5-1.7,2.7-2.9,2.7c-0.9-0.1-1.5-0.8-1.6-1.8c0-0.3,0-0.7,0.1-1.2
				c0.4-1.5,1.7-2.7,2.9-2.6c0.6,0,1.1,0.4,1.4,1C119.7,158.9,119.7,159.6,119.5,160.3z"/>
			<path class="st4" d="M119.5,160.3c-0.4,1.5-1.7,2.7-2.9,2.7c-1.2-0.1-1.9-1.4-1.5-2.9c0.4-1.5,1.7-2.7,2.9-2.6
				C119.3,157.5,119.9,158.8,119.5,160.3z"/>
		</g>
	</g>
	<g id="base">
		<polygon class="st6" points="79.1,173.1 79.1,178.7 42.7,157.5 42.8,152.2 		"/>
		<polygon class="st6" points="130.5,144 120.3,149.7 110.4,155.4 79.1,173.3 42.8,152.2 94.1,122.9 		"/>
		<path class="st5" d="M79.1,173.3l31.3-17.9c-0.3,0.5-0.5,1.1-0.7,1.6c-0.6,1.6-0.9,3.2-0.9,4.8l-29.7,16.9V173.3z"/>
		<path class="st5" d="M130.5,144v5.5l-6.2,3.5c-0.8-1.4-1.9-2.5-3.4-3.1c-0.1-0.1-0.3-0.1-0.5-0.1L130.5,144z"/>
	</g>
	<g id="Container">
		<g id="contaier">
			<polygon class="st7" points="128.3,104.5 79.1,132.4 47.6,114.3 96.7,86.4 			"/>
			<polygon class="st7" points="47.6,114.4 79.1,132.5 79.1,171.5 47.6,153.4 			"/>
			<polygon class="st6" points="128.3,143.5 79.1,171.5 79.1,132.4 128.3,104.4 			"/>
		</g>
		<g id="c-lines">
			<line class="st8" x1="87.9" y1="134.3" x2="87.9" y2="160.8"/>
			<line class="st8" x1="96.6" y1="128.6" x2="96.6" y2="155"/>
			<line class="st8" x1="104.6" y1="124.4" x2="104.6" y2="150.8"/>
			<line class="st8" x1="113.3" y1="119.5" x2="113.3" y2="145.9"/>
			<line class="st8" x1="120.8" y1="115.8" x2="120.8" y2="142.2"/>
		</g>
	</g>
	<g id="cabin">
		<polygon class="st9" points="21.1,160.4 28.3,164.6 27.8,164.6 27.8,174.4 21.1,170.5 		"/>
		<path class="st9" d="M50.7,188.5l0-0.7l-7.7-4.5v-10l7.6,4.5C50.6,181.4,50.7,185.3,50.7,188.5z"/>
		<path class="st9" d="M72.4,142.3v0.8c-4.7,2.5-14.6,9.4-14.6,9.4s0,0-0.1,0.1l-30.3-15.9l0.1-0.3l17.1-9.9L72.4,142.3z"/>
		<path class="st10" d="M72.4,143.2v36.1c-0.9-2.2-2.6-3.6-5-3.8c-4.2-0.2-8.8,4-10.1,9.4c-0.5,1.8-0.5,3.5-0.2,5l-6.2,4
			c-0.1-4.7-0.4-15.9,0.1-23.3c0.7-9.6,6.7-17.9,6.7-17.9S67.7,145.7,72.4,143.2z"/>
		<path class="st11" d="M57.3,152.7c-0.7,1-6.1,8.9-6.8,17.8l-29.4-16.3c0.1-0.8,0.4-2.3,0.6-3.9c0.5-3.3,1.6-6.5,3.1-9.4l2.2-4.1
			L57.3,152.7z"/>
		<path class="st6" d="M68.4,150l-2.3,1.3c-3.7,2.9-7.4,7.5-8.4,12.5c-0.1,0.5-0.2,1.8-0.3,2.3l-0.1,1.1l11.1-6.6V150z"/>
		<path class="st10" d="M50.9,193.9l-29.7-17.7v-5.8l29.6,17.3l0,0.7l0,1.4l0,1.1c0,0.4,0,0.9,0,1.3L50.9,193.9z"/>
		<path class="st10" d="M50.7,171.5v5.3c0,0.3,0,0.6,0,1l-29.5-17.3v-6.3L50.7,171.5z"/>
		<polygon class="st2" points="43,173.3 43,183.3 27.8,174.4 27.8,164.6 28.3,164.6 		"/>
	</g>
</g>
<g id="palletes">
	<g>
		<g>
			<polygon class="st7" points="174.8,76.3 169.1,73.3 169.1,69.3 174.8,72.3 			"/>
			<polygon class="st10" points="174.8,72.3 179.7,69.6 179.7,73.6 174.8,76.3 			"/>
			<polygon class="st10" points="209.6,52.9 209.6,56.9 204.9,59.5 204.9,55.6 			"/>
			<polygon class="st7" points="204.9,55.6 204.9,59.5 198.7,56.9 198.7,52.9 			"/>
			<polygon class="st9" points="209.7,52.9 174.8,72.3 169.1,69.3 204,49.9 			"/>
			<line class="st12" x1="204.9" y1="55.6" x2="204.9" y2="59.5"/>
			<line class="st12" x1="179.7" y1="73.6" x2="179.7" y2="69.6"/>
		</g>
		<g>
			<polygon class="st7" points="183,80.8 177.3,77.8 177.3,73.8 183,76.8 			"/>
			<polygon class="st10" points="183,76.8 187.8,74.1 187.8,78.1 183,80.8 			"/>
			<polygon class="st10" points="217.8,57.4 217.8,61.4 213,64 213,60.1 			"/>
			<polygon class="st7" points="213,60.1 213,64 206.9,61.4 206.9,57.4 			"/>
			<polygon class="st9" points="217.8,57.4 183,76.8 177.3,73.8 212.1,54.4 			"/>
			<line class="st12" x1="213" y1="60.1" x2="213" y2="64"/>
			<line class="st12" x1="187.8" y1="78.1" x2="187.8" y2="74.1"/>
		</g>
		<g>
			<polygon class="st7" points="191.1,85 185.4,82 185.4,78.1 191.1,81 			"/>
			<polygon class="st10" points="191.1,81 195.9,78.3 195.9,82.3 191.1,85 			"/>
			<polygon class="st10" points="225.9,61.6 225.9,65.6 221.1,68.3 221.1,64.3 			"/>
			<polygon class="st7" points="221.1,64.3 221.1,68.3 215,65.6 215,61.6 			"/>
			<polygon class="st9" points="225.9,61.6 191.1,81 185.4,78.1 220.2,58.6 			"/>
			<line class="st12" x1="221.1" y1="64.3" x2="221.1" y2="68.3"/>
			<line class="st12" x1="195.9" y1="82.3" x2="195.9" y2="78.3"/>
		</g>
		<g>
			<polygon class="st7" points="199.2,89.5 193.5,86.5 193.5,82.5 199.2,85.5 			"/>
			<polygon class="st10" points="199.2,85.5 204,82.8 204,86.8 199.2,89.5 			"/>
			<polygon class="st10" points="234,66.1 234,70.1 229.2,72.7 229.2,68.7 			"/>
			<polygon class="st7" points="229.2,68.7 229.2,72.7 223.1,70.1 223.1,66.1 			"/>
			<polygon class="st9" points="234,66.1 199.2,85.5 193.5,82.5 228.3,63.1 			"/>
			<line class="st12" x1="229.2" y1="68.7" x2="229.2" y2="72.7"/>
			<line class="st12" x1="204" y1="86.8" x2="204" y2="82.8"/>
		</g>
		<polygon class="st9" points="204.1,82.6 199.1,85.4 169.1,69.3 173.9,66.7 		"/>
		<polygon class="st9" points="234.1,65.8 229.2,68.7 199.2,52.6 204,49.9 		"/>
	</g>
	<g>
		<g>
			<polygon class="st7" points="142.3,59.7 136.6,56.7 136.6,52.8 142.3,55.7 			"/>
			<polygon class="st10" points="142.3,55.7 147.2,53 147.2,57 142.3,59.7 			"/>
			<polygon class="st10" points="177.1,36.3 177.1,40.3 172.4,43 172.4,39 			"/>
			<polygon class="st7" points="172.4,39 172.4,43 166.2,40.3 166.2,36.3 			"/>
			<polygon class="st9" points="177.2,36.3 142.3,55.7 136.6,52.8 171.5,33.3 			"/>
			<line class="st12" x1="172.4" y1="39" x2="172.4" y2="43"/>
			<line class="st12" x1="147.2" y1="57" x2="147.2" y2="53"/>
		</g>
		<g>
			<polygon class="st7" points="150.5,64.2 144.8,61.2 144.8,57.3 150.5,60.2 			"/>
			<polygon class="st10" points="150.5,60.2 155.3,57.5 155.3,61.5 150.5,64.2 			"/>
			<polygon class="st10" points="185.3,40.8 185.3,44.8 180.5,47.5 180.5,43.5 			"/>
			<polygon class="st7" points="180.5,43.5 180.5,47.5 174.4,44.8 174.4,40.8 			"/>
			<polygon class="st9" points="185.3,40.8 150.5,60.2 144.8,57.3 179.6,37.8 			"/>
			<line class="st12" x1="180.5" y1="43.5" x2="180.5" y2="47.5"/>
			<line class="st12" x1="155.3" y1="61.5" x2="155.3" y2="57.5"/>
		</g>
		<g>
			<polygon class="st7" points="158.6,68.4 152.9,65.5 152.9,61.5 158.6,64.4 			"/>
			<polygon class="st10" points="158.6,64.4 163.4,61.7 163.4,65.7 158.6,68.4 			"/>
			<polygon class="st10" points="193.4,45 193.4,49 188.6,51.7 188.6,47.7 			"/>
			<polygon class="st7" points="188.6,47.7 188.6,51.7 182.5,49 182.5,45 			"/>
			<polygon class="st9" points="193.4,45 158.6,64.4 152.9,61.5 187.7,42.1 			"/>
			<line class="st12" x1="188.6" y1="47.7" x2="188.6" y2="51.7"/>
			<line class="st12" x1="163.4" y1="65.7" x2="163.4" y2="61.7"/>
		</g>
		<g>
			<polygon class="st7" points="166.7,72.9 161,69.9 161,65.9 166.7,68.9 			"/>
			<polygon class="st10" points="166.7,68.9 171.5,66.2 171.5,70.2 166.7,72.9 			"/>
			<polygon class="st10" points="201.5,49.5 201.5,53.5 196.7,56.1 196.7,52.2 			"/>
			<polygon class="st7" points="196.7,52.2 196.7,56.1 190.6,53.5 190.6,49.5 			"/>
			<polygon class="st9" points="201.5,49.5 166.7,68.9 161,65.9 195.8,46.5 			"/>
			<line class="st12" x1="196.7" y1="52.2" x2="196.7" y2="56.1"/>
			<line class="st12" x1="171.5" y1="70.2" x2="171.5" y2="66.2"/>
		</g>
		<polygon class="st9" points="171.6,66.1 166.6,68.9 136.6,52.7 141.4,50.2 		"/>
		<polygon class="st9" points="201.6,49.3 196.7,52.2 166.7,36 171.5,33.3 		"/>
	</g>
	<g>
		<g>
			<polygon class="st7" points="126.3,90.2 120.6,87.3 120.6,83.3 126.3,86.2 			"/>
			<polygon class="st10" points="126.3,86.2 131.2,83.5 131.2,87.5 126.3,90.2 			"/>
			<polygon class="st10" points="161.1,66.8 161.1,70.8 156.3,73.5 156.3,69.5 			"/>
			<polygon class="st7" points="156.3,69.5 156.3,73.5 150.2,70.8 150.2,66.8 			"/>
			<polygon class="st9" points="161.1,66.8 126.3,86.2 120.6,83.3 155.5,63.9 			"/>
			<line class="st12" x1="156.3" y1="69.5" x2="156.3" y2="73.5"/>
			<line class="st12" x1="131.2" y1="87.5" x2="131.2" y2="83.5"/>
		</g>
		<g>
			<polygon class="st7" points="134.5,94.7 128.8,91.8 128.8,87.8 134.5,90.7 			"/>
			<polygon class="st10" points="134.5,90.7 139.3,88 139.3,92 134.5,94.7 			"/>
			<polygon class="st10" points="169.3,71.3 169.3,75.3 164.5,78 164.5,74 			"/>
			<polygon class="st7" points="164.5,74 164.5,78 158.4,75.3 158.4,71.3 			"/>
			<polygon class="st9" points="169.3,71.3 134.5,90.7 128.8,87.8 163.6,68.4 			"/>
			<line class="st12" x1="164.5" y1="74" x2="164.5" y2="78"/>
			<line class="st12" x1="139.3" y1="92" x2="139.3" y2="88"/>
		</g>
		<g>
			<polygon class="st7" points="142.6,98.9 136.9,96 136.9,92 142.6,95 			"/>
			<polygon class="st10" points="142.6,95 147.4,92.3 147.4,96.2 142.6,98.9 			"/>
			<polygon class="st10" points="177.4,75.5 177.4,79.5 172.6,82.2 172.6,78.2 			"/>
			<polygon class="st7" points="172.6,78.2 172.6,82.2 166.5,79.5 166.5,75.5 			"/>
			<polygon class="st9" points="177.4,75.5 142.6,95 136.9,92 171.7,72.6 			"/>
			<line class="st12" x1="172.6" y1="78.2" x2="172.6" y2="82.2"/>
			<line class="st12" x1="147.4" y1="96.2" x2="147.4" y2="92.3"/>
		</g>
		<g>
			<polygon class="st7" points="150.7,103.4 145,100.4 145,96.5 150.7,99.4 			"/>
			<polygon class="st10" points="150.7,99.4 155.5,96.7 155.5,100.7 150.7,103.4 			"/>
			<polygon class="st10" points="185.5,80 185.5,84 180.7,86.7 180.7,82.7 			"/>
			<polygon class="st7" points="180.7,82.7 180.7,86.7 174.6,84 174.6,80 			"/>
			<polygon class="st9" points="185.5,80 150.7,99.4 145,96.5 179.8,77 			"/>
			<line class="st12" x1="180.7" y1="82.7" x2="180.7" y2="86.7"/>
			<line class="st12" x1="155.5" y1="100.7" x2="155.5" y2="96.7"/>
		</g>
		<polygon class="st9" points="155.6,96.6 150.6,99.4 120.6,83.2 125.4,80.7 		"/>
		<polygon class="st9" points="185.6,79.8 180.7,82.7 150.7,66.5 155.5,63.9 		"/>
	</g>
	<g>
		<g>
			<polygon class="st7" points="107.9,71.6 112.3,69.3 112.3,66.2 107.9,68.5 			"/>
			<polygon class="st10" points="107.9,68.5 104.1,66.4 104.1,69.5 107.9,71.6 			"/>
			<polygon class="st10" points="80.8,53.4 80.8,56.5 84.5,58.6 84.5,55.5 			"/>
			<polygon class="st7" points="84.5,55.5 84.5,58.6 89.2,56.5 89.2,53.4 			"/>
			<polygon class="st9" points="80.8,53.4 107.9,68.5 112.3,66.2 85.2,51.1 			"/>
			<line class="st12" x1="84.5" y1="55.5" x2="84.5" y2="58.6"/>
			<line class="st12" x1="104.1" y1="69.5" x2="104.1" y2="66.4"/>
		</g>
		<g>
			<polygon class="st7" points="101.5,75.1 105.9,72.8 105.9,69.7 101.5,72 			"/>
			<polygon class="st10" points="101.5,72 97.7,69.9 97.7,73 101.5,75.1 			"/>
			<polygon class="st10" points="74.4,56.9 74.4,60 78.2,62.1 78.2,59 			"/>
			<polygon class="st7" points="78.2,59 78.2,62.1 82.9,60 82.9,56.9 			"/>
			<polygon class="st9" points="74.4,56.9 101.5,72 105.9,69.7 78.8,54.6 			"/>
			<line class="st12" x1="78.2" y1="59" x2="78.2" y2="62.1"/>
			<line class="st12" x1="97.7" y1="73" x2="97.7" y2="69.9"/>
		</g>
		<g>
			<polygon class="st7" points="95.2,78.4 99.6,76.1 99.6,73 95.2,75.3 			"/>
			<polygon class="st10" points="95.2,75.3 91.4,73.2 91.4,76.3 95.2,78.4 			"/>
			<polygon class="st10" points="68.1,60.2 68.1,63.3 71.9,65.4 71.9,62.3 			"/>
			<polygon class="st7" points="71.9,62.3 71.9,65.4 76.6,63.3 76.6,60.2 			"/>
			<polygon class="st9" points="68.1,60.2 95.2,75.3 99.6,73 72.5,57.9 			"/>
			<line class="st12" x1="71.9" y1="62.3" x2="71.9" y2="65.4"/>
			<line class="st12" x1="91.4" y1="76.3" x2="91.4" y2="73.2"/>
		</g>
		<g>
			<polygon class="st7" points="88.9,81.9 93.3,79.6 93.3,76.5 88.9,78.8 			"/>
			<polygon class="st10" points="88.9,78.8 85.1,76.7 85.1,79.8 88.9,81.9 			"/>
			<polygon class="st10" points="61.8,63.6 61.8,66.8 65.6,68.8 65.6,65.7 			"/>
			<polygon class="st7" points="65.6,65.7 65.6,68.8 70.3,66.8 70.3,63.6 			"/>
			<polygon class="st9" points="61.8,63.6 88.9,78.8 93.3,76.5 66.2,61.3 			"/>
			<line class="st12" x1="65.6" y1="65.7" x2="65.6" y2="68.8"/>
			<line class="st12" x1="85.1" y1="79.8" x2="85.1" y2="76.7"/>
		</g>
		<polygon class="st9" points="85.1,76.6 89,78.7 112.3,66.1 108.5,64.2 		"/>
		<polygon class="st9" points="61.7,63.5 65.6,65.7 88.9,53.2 85.2,51.1 		"/>
	</g>
	<g>
		<g>
			<polygon class="st7" points="82.1,85.5 86.6,83.1 86.6,80 82.1,82.3 			"/>
			<polygon class="st10" points="82.1,82.3 78.4,80.2 78.4,83.3 82.1,85.5 			"/>
			<polygon class="st10" points="55,67.2 55,70.3 58.8,72.4 58.8,69.3 			"/>
			<polygon class="st7" points="58.8,69.3 58.8,72.4 63.5,70.3 63.5,67.2 			"/>
			<polygon class="st9" points="55,67.2 82.1,82.3 86.6,80 59.5,64.9 			"/>
			<line class="st12" x1="58.8" y1="69.3" x2="58.8" y2="72.4"/>
			<line class="st12" x1="78.4" y1="83.3" x2="78.4" y2="80.2"/>
		</g>
		<g>
			<polygon class="st7" points="75.8,89 80.2,86.6 80.2,83.5 75.8,85.9 			"/>
			<polygon class="st10" points="75.8,85.8 72,83.7 72,86.8 75.8,89 			"/>
			<polygon class="st10" points="48.7,70.7 48.7,73.8 52.4,75.9 52.4,72.8 			"/>
			<polygon class="st7" points="52.4,72.8 52.4,75.9 57.2,73.8 57.2,70.7 			"/>
			<polygon class="st9" points="48.7,70.7 75.8,85.8 80.2,83.5 53.1,68.4 			"/>
			<line class="st12" x1="52.4" y1="72.8" x2="52.4" y2="75.9"/>
			<line class="st12" x1="72" y1="86.8" x2="72" y2="83.7"/>
		</g>
		<g>
			<polygon class="st7" points="69.5,92.2 73.9,89.9 73.9,86.8 69.5,89.1 			"/>
			<polygon class="st10" points="69.5,89.1 65.7,87 65.7,90.1 69.5,92.2 			"/>
			<polygon class="st10" points="42.4,74 42.4,77.1 46.1,79.2 46.1,76.1 			"/>
			<polygon class="st7" points="46.1,76.1 46.1,79.2 50.9,77.1 50.9,74 			"/>
			<polygon class="st9" points="42.4,74 69.5,89.1 73.9,86.8 46.8,71.7 			"/>
			<line class="st12" x1="46.1" y1="76.1" x2="46.1" y2="79.2"/>
			<line class="st12" x1="65.7" y1="90.1" x2="65.7" y2="87"/>
		</g>
		<g>
			<polygon class="st7" points="63.2,95.7 67.6,93.4 67.6,90.3 63.2,92.6 			"/>
			<polygon class="st10" points="63.2,92.6 59.4,90.5 59.4,93.6 63.2,95.7 			"/>
			<polygon class="st10" points="36.1,77.5 36.1,80.6 39.8,82.7 39.8,79.6 			"/>
			<polygon class="st7" points="39.8,79.6 39.8,82.7 44.6,80.6 44.6,77.5 			"/>
			<polygon class="st9" points="36.1,77.5 63.2,92.6 67.6,90.3 40.5,75.2 			"/>
			<line class="st12" x1="39.8" y1="79.6" x2="39.8" y2="82.7"/>
			<line class="st12" x1="59.4" y1="93.6" x2="59.4" y2="90.5"/>
		</g>
		<polygon class="st9" points="59.4,90.4 63.2,92.6 86.6,80 82.8,78 		"/>
		<polygon class="st9" points="36,77.3 39.8,79.6 63.2,67 59.5,64.9 		"/>
	</g>
</g>
<g id="boxes">
	<g>
		<polygon class="st7" points="162.6,82.8 152.7,77.4 152.7,68.6 162.7,73 		"/>
		<polygon class="st10" points="172,77.4 162.7,82.7 162.5,73 172,68.1 		"/>
		<polygon class="st9" points="162.5,73 152.7,68.6 162.5,63.8 172,68.1 		"/>
	</g>
	<g>
		<polygon class="st7" points="142.1,89.1 126.9,80.9 126.9,67.6 142.1,74.2 		"/>
		<polygon class="st10" points="156.3,80.9 142.1,89.1 141.9,74.3 156.3,66.8 		"/>
		<polygon class="st9" points="141.9,74.3 126.9,67.6 141.9,60.2 156.3,66.8 		"/>
	</g>
	<g>
		<polygon class="st7" points="155.9,92.8 145.9,87.4 145.9,78.6 155.9,83 		"/>
		<polygon class="st10" points="165.2,87.4 155.9,92.7 155.8,83 165.2,78.1 		"/>
		<polygon class="st9" points="155.8,83 145.9,78.6 155.8,73.8 165.2,78.1 		"/>
	</g>
	<g>
		<polygon class="st7" points="203.7,66.4 193.8,61 193.8,52.2 203.8,56.6 		"/>
		<polygon class="st10" points="213.1,61 203.8,66.3 203.6,56.6 213.1,51.7 		"/>
		<polygon class="st9" points="203.6,56.6 193.8,52.3 203.6,47.4 213.1,51.7 		"/>
	</g>
	<g>
		<g>
			<polygon class="st7" points="168.6,65.8 147.4,54.3 147.4,35.8 168.6,45.1 			"/>
			<polygon class="st10" points="188.5,54.3 168.6,65.7 168.4,45.1 188.5,34.7 			"/>
			<polygon class="st9" points="168.4,45.1 147.4,35.8 168.3,25.4 188.5,34.7 			"/>
		</g>
		<line class="st13" x1="157.1" y1="40.1" x2="177.4" y2="29.8"/>
	</g>
	<line class="st12" x1="151.5" y1="75.9" x2="160.5" y2="80.2"/>
	<line class="st12" x1="148.2" y1="62.8" x2="133.3" y2="70.4"/>
	<line class="st12" x1="158.1" y1="70.8" x2="167.3" y2="66"/>
	<g>
		<polygon class="st7" points="183.2,71.8 173.2,66.3 173.2,57.6 183.2,62 		"/>
		<polygon class="st10" points="192.6,66.3 183.2,71.7 183.1,62 192.6,57.1 		"/>
		<polygon class="st9" points="183.1,62 173.2,57.6 183.1,52.8 192.6,57.1 		"/>
	</g>
	<g>
		<polygon class="st7" points="200.9,82.2 187.6,75 187.6,62.7 200.9,69.2 		"/>
		<polygon class="st10" points="226.2,67.7 200.9,82.3 200.8,69.3 226.2,55.4 		"/>
		<polygon class="st9" points="200.9,69.2 187.6,62.7 213.6,49.6 226.2,55.4 		"/>
	</g>
	<path class="st13" d="M206.2,61.6"/>
	<path class="st13" d="M194.5,55.7"/>
	<line class="st13" x1="219.3" y1="52.2" x2="193.8" y2="65.9"/>
</g>
<g id="Слой_7">
	<polygon class="st7" points="62.3,89.1 39.9,76.6 39.9,49.7 62.3,62.2 	"/>
	<polygon class="st14" points="59.6,84.2 42.7,74.8 42.7,54.5 59.6,64 	"/>
	<polygon class="st10" points="105.1,66 62.4,89.1 62.4,62.2 105.1,39.1 	"/>
	<polygon class="st15" points="102.5,63.8 65.8,83.9 65.8,64.1 102.5,44.4 	"/>
	<polygon class="st16" points="62.3,62.2 39.9,49.7 82.7,26.6 105.1,39.1 	"/>
	<polygon class="st17" points="62.2,59.6 44.3,49.8 48.2,47.7 65.8,57.6 	"/>
	<polygon class="st17" points="69.4,55.6 51.6,45.8 55.5,43.7 73.1,53.7 	"/>
	<polygon class="st17" points="76.8,51.6 58.9,41.8 62.9,39.7 80.4,49.6 	"/>
	<polygon class="st17" points="83.7,47.9 65.8,38.2 69.7,36.1 87.3,46 	"/>
	<polygon class="st17" points="90.4,44.4 72.5,34.6 76.4,32.5 94,42.5 	"/>
	<polygon class="st17" points="97.1,40.9 79.2,31.1 83.2,29 100.7,38.9 	"/>
	<line class="st12" x1="50.5" y1="55.6" x2="50.5" y2="82.3"/>
	<line class="st13" x1="70.2" y1="64.1" x2="70.2" y2="79.1"/>
	<line class="st13" x1="75" y1="61.9" x2="75" y2="76.9"/>
	<line class="st13" x1="80.4" y1="58.5" x2="80.4" y2="73.5"/>
	<line class="st13" x1="85.6" y1="55.6" x2="85.6" y2="70.6"/>
	<line class="st13" x1="90" y1="53.1" x2="90" y2="68.1"/>
	<line class="st13" x1="94.6" y1="50.7" x2="94.6" y2="65.7"/>
	<line class="st13" x1="99.2" y1="48.5" x2="99.2" y2="63.5"/>
</g>
<g id="Box_big">
	<g>
		<polygon class="st7" points="147.4,212.6 120.8,197.5 120.8,177.2 147.4,192.2 		"/>
		<polygon class="st10" points="173.5,197.5 147.4,212.6 147.4,192.2 173.5,177.2 		"/>
		<polygon class="st9" points="147.4,192.3 120.8,177.2 146.9,162.1 173.5,177.2 		"/>
		<line class="st12" x1="134.6" y1="185" x2="160.4" y2="169.8"/>
		<ellipse class="st6" cx="147.2" cy="176.9" rx="8.5" ry="4.9"/>
		<line class="st18" x1="144.5" y1="175.7" x2="144.8" y2="178.1"/>
		<line class="st18" x1="151" y1="176.8" x2="144.8" y2="178.1"/>
	</g>
</g>
<g id="Box_small">
	<g>
		<polygon class="st10" points="180.1,214.3 196.2,205.1 196.2,192.7 180.1,201.9 		"/>
		<polygon class="st7" points="164.2,205.1 180.1,214.3 180.1,201.9 164.2,192.7 		"/>
		<polygon class="st9" points="180.1,201.9 196.2,192.8 180.4,183.6 164.2,192.7 		"/>
		<line class="st12" x1="187.9" y1="197.5" x2="172.1" y2="188.2"/>
	</g>
</g>
<g id="customs-officer">
	<g id="tie_00000164512258557336428260000002672539658966993294_">
		<path class="st6" d="M197.7,179.7c0,0-0.1,0.1-0.1,0.2c-0.2,0.2-0.5,0.4-1.3,0.3c-0.1,0-0.2,0-0.4,0c-0.7-0.1-1.9-0.4-3.1-0.7
			c0,0,0,0,0,0c-2.2-0.5-4.5-1.1-4.5-1.1s0-0.2,0-0.4c0.1-1.7,0.5-7.9,1.7-13.8c1.3-6.8,3.8-13.4,3.8-13.4l1.6,0.5l1.3,0.4l0.8,0.3
			C196.3,161.9,197.4,179.7,197.7,179.7z"/>
		<path class="st6" d="M202.2,146.2c-0.2,0.6-0.7,1.3-1.3,2c-0.4,0.5-0.8,1-1.3,1.5c-0.9,1-1.8,1.8-2.3,2.2
			c-0.2,0.2-0.3,0.3-0.3,0.3s-0.3,0-0.7-0.2c-0.3-0.1-0.7-0.2-1-0.3c-0.6-0.2-1.3-0.6-1.6-1.1c-0.1-0.1-0.2-0.3-0.2-0.4
			c-0.1-0.5-0.2-1.4-0.3-2.4v0c-0.1-1.3-0.1-2.8-0.2-3.7c0-0.4,0.4-0.6,0.4-0.6l0.4,0.6l0.8,1.3l0.9,0.3l0.3,0.1c0,0,0,0,0,0
			l2.3,0.7l0.8,0.2l2.3-1.7C201.1,145.2,202.9,144.1,202.2,146.2z"/>
	</g>
	<g id="vorot_00000117660431363402760210000015468261253262788266_">
		<path class="st9" d="M211.3,141.2c-0.7,1.2-2.2,4.1-3.4,5.5c-1.2,1.4-4.5,3.9-6.1,5c-0.4,0.3-1,0.2-1.3-0.3l-0.9-1.7l-0.4-0.8
			l-1.2-2.3l-0.1-0.1c0,0,4.4-2.2,6.8-4c3-2.2,3.9-5.6,3.9-5.6l1.4,1.8l1.1,1.4C211.4,140.4,211.5,140.8,211.3,141.2z"/>
		<path class="st9" d="M195.9,146c0,0-0.2,0.1-0.4,0.3c-0.6,0.4-1.8,1.2-2.3,1.6v0c-0.1,0-0.1,0.1-0.1,0.1c-0.3,0.3-0.9,1.1-1.3,1.6
			c-0.2,0.2-0.5,0.2-0.6-0.1c-0.3-1.2-0.9-3.5-0.9-5c0-0.7,0.1-1.6,0.3-2.5c0.2-1,0.5-2,0.6-2.6c0.1-0.4,0.2-0.7,0.2-0.7
			s0.1,0.4,0.3,1.1c0.3,0.8,0.7,1.9,1.3,2.9c0.1,0.1,0.1,0.2,0.2,0.3c0.2,0.3,0.4,0.5,0.6,0.7c0.2,0.3,0.5,0.6,0.7,0.8
			c0.5,0.5,0.9,0.9,1.2,1.1c0.1,0.1,0.2,0.2,0.3,0.2c0,0,0,0,0,0C195.8,146,195.9,146,195.9,146z"/>
	</g>
	<g id="head_00000065064670151135059400000013580048317511787911_">
		<path class="st9" d="M195.5,145.4c0,0,2,1.3,3.4,0.5c1.5-0.8,5.9-3.3,7-4.6c1.1-1.3,2.4-2.7,2.4-2.7s0.9-3.5-1.6-3.7
			s-7.9,4.4-7.9,4.4l-5.1,2l-1.3,0.1l0.7,1.4c0.4,0.9,1.1,1.7,1.9,2.2L195.5,145.4z"/>
		<path class="st19" d="M201.7,140.4c0,0-2.4,1.6-6.9,2.2c-0.1,0-0.2,0-0.3,0.1c-0.5,0.1-1,0.1-1.4,0c-0.1,0-0.2,0-0.2,0
			c-0.8-0.1-1.6-0.3-2.4-0.7c-0.8-0.4-1.6-0.9-2.3-1.5c-0.5-0.4-0.9-0.8-1.2-1.2c-0.9-1-1.6-2-1.9-2.7c-1.3-3.2-2-9.7-2.1-11.5
			c2.9,0.9,7.2,1.1,12.4,0.2c2.7-0.4,5.3-1.1,7.7-2c0.1,0.3,0.1,0.6,0.2,0.8c0.3,1.1,1.5,1.9,2.2,2c0.7,0.1,1.3-0.5,2.6-1.9
			c0.8-0.9,1.8-1.6,2.8-1.6c0.6,0,1.2,0.1,1.7,0.6c1.3,1,0.8,3,0,4.8c-0.2,0.4-0.4,0.8-0.6,1.1c-1.1,1.9-3.6,2.3-3.6,2.3l-0.1,4.2v0
			l-0.1,2.9"/>
	</g>
	<g id="hand_00000105394578919477456630000013890671157391391124_">
		<path class="st19" d="M188.6,180.7c0,0-1.8-1.2-4.4-1c-1.2,0.1-2.5,0.6-3.3,1.1c-0.7,0.4-1,2.1-0.2,2.3l2-0.6"/>
		<path class="st19" d="M201.8,192.5c0,0-6.4-2.5-9.7-1.6c-3.4,1.7-5.5,4-6.9,5c-1.4,1-4.7,0.3-3.4-1.5c1.3-1.8,6.4-6.1,6.4-6.1
			l-6.4,6.2c-0.9,0.9-2.5,0.9-3.3-0.1c-0.5-0.6-0.6-1.5,0.3-2.7c2.2-3.1,5.9-6.1,5.9-6.1l-6.5,6.9c0,0-3-1.3-0.9-4
			c2.1-2.7,5.9-7.3,10.3-8.3s9.3,0.8,9.3,0.8s6.9-0.1,7.5,2.4s2,6.3,0.8,7.3C204,191.6,201.8,192.5,201.8,192.5z"/>
	</g>
	<g id="hand-left_00000127744821810018764350000006975587127377372048_">
		<g>
			<path class="st20" d="M226.2,174.1C226.2,174.1,226.2,174.1,226.2,174.1l-4,5.7l-2.2-0.3l-4.3-0.6l-0.3-1.5c0,0-0.4-1.9-0.8-4.5
				c-0.5-3.6-1-8.5-0.4-11.1c1-4.2,2.5-10,8.5-12.1c0,0,0.1,0,0.1,0c0.1,0,0.2-0.1,0.3-0.1c0.3-0.1,0.7-0.2,1-0.3v0.2
				C224.1,160.6,226.2,174.1,226.2,174.1z"/>
			<path class="st20" d="M222.8,149.6c0.1,0,0.2-0.1,0.3-0.1c0.4-0.1,0.8-0.2,1-0.1c0.2,0,0.3,0,0.5,0.1c0.1,0,0.2,0.1,0.2,0.2
				c0,0.1,0.1,0.2,0.1,0.2c1.3,2.4,3.1,7.3,4.3,12.2c0.8,3.5,1.3,7,1.1,9.7c-0.5,6.7-0.8,9.8-4.2,12.3c-2.5,1.8-11.9,5.1-17.4,7
				c0.4-2.6,0.5-5.9-0.2-8.6c-0.1-0.2-0.1-0.4-0.2-0.5c-1.1-2.9-4.1-3.8-6.4-4.1c0.9-0.4,10-4.1,12.7-5c0.3-0.1,0.6-0.2,0.7-0.2
				c1.1-0.2,2.2-0.1,2.8,0c0.8,0.2,2,1.4,2,1.4"/>
		</g>
		<path class="st20" d="M208.8,191.2c-2.2,0.7-3.8,1.2-4.1,1.3c-1.2,0.3-2.9,0-2.9,0s1.4-1.3,1.5-4.1c0.1-1.6-0.3-4-2.4-5.7
			c-0.9-0.7-2.8-1.4-3.9-1.8c-0.3-0.1-0.3-0.5,0-0.6l0.7-0.3l4.2-2c0,0,0,0,0.1,0c2.3,0.3,5.3,1.3,6.4,4.1c0.1,0.2,0.1,0.3,0.2,0.5
			C209.3,185.3,209.1,188.6,208.8,191.2z"/>
	</g>
	<path class="st20" d="M224.1,149.4v-0.2c-0.4,0.1-0.7,0.2-1,0.3c-0.1,0-0.2,0-0.3,0.1c0,0-0.1,0-0.1,0v0c-6.1,2.1-7.5,7.9-8.5,12.1
		c-0.6,2.6-0.1,7.5,0.4,11.1c-2.7,0.9-11.8,4.6-12.7,5c0,0-0.1,0-0.1,0l-4.2,2l-0.1-0.1c0.1-0.1,0.1-0.1,0.1-0.2
		c-0.3,0-1.3-17.8-0.3-27.8c0.5-0.4,1.4-1.3,2.3-2.2l0.9,1.7c0.2,0.5,0.8,0.6,1.3,0.3c1.5-1.1,4.8-3.6,6.1-5
		c1.2-1.4,2.8-4.2,3.4-5.5c0.2-0.4,0.1-0.8-0.1-1.1l-1.1-1.4c0,0,12.2,8.5,13.6,9.9c0.2,0.2,0.5,0.6,0.9,1
		C224.5,149.5,224.3,149.4,224.1,149.4z"/>
	<line class="st13" x1="200.9" y1="162.2" x2="208.4" y2="164.9"/>
	<path class="st20" d="M157.4,159.6c-0.2,0-0.5-0.1-0.7-0.2l-1.1-1.4h1.5l4.3-1.3l5.2-6.4c0,0,0.5-0.1,1.2,0.1
		c-0.1,1-0.4,1.9-0.7,2.9C165.4,157.5,160.6,159.9,157.4,159.6z"/>
	<path class="st20" d="M183.9,141.4c-1.3,0.5-2.9,1.4-4.8,2.8c-3.9,3-6.5,5.7-7.8,7.1c-0.5,0.6-0.8,1-0.8,1l0,0
		c0.1,0.1,0.3,0.2,0.6,0.5c0.6,0.5,1.6,1.4,2.3,2.2c0.4,0.4,0.7,0.9,1,1.4c-0.4-0.7-0.9-1.2-1.4-1.7c-0.6-0.6-1.2-1.1-1.9-1.8
		c-0.1,1.7-1.7,4.6-4.6,6.5c-3,2-5.2,3.4-6.8,4.3l0.7,0.9c0,0,5.8,5.4,10.8,4.2c5.1-1.2,9-4.2,9-4.2s0-0.4,0-1.2
		c0.1-1.6,0.4-4.8,1.6-10.1c2-8.7,6.3-12.7,6.3-12.7S186.6,140.2,183.9,141.4z M174.8,157c0.3,0.5,0.4,0.9,0.5,1.1L174.8,157z"/>
	<path class="st20" d="M171.1,152.9c-0.5,2.1-1.7,4.5-4.5,6.4c-3,2-5.2,3.4-6.8,4.3l-3.1-4.2c0.3,0.1,0.5,0.1,0.7,0.2
		c3.2,0.3,8-2,9.7-6.2c0.4-0.9,0.6-1.9,0.7-2.9c0.2,0.1,0.4,0.2,0.7,0.3c1,0.5,2.1,1.5,2.1,1.5l0,0L171.1,152.9z"/>
	<path class="st19" d="M167.8,150.5c-0.1,1-0.4,1.9-0.7,2.9c-1.6,4.2-6.4,6.6-9.7,6.2c-0.2,0-0.5-0.1-0.7-0.2
		c-2.8-0.8-6.8-4.6-8.4-6.1l7.8-6.6c1.1-0.9,5.8-1.4,8.2-2.1c0.2,0,0.3-0.1,0.5-0.1c1.3-0.2,2.2,0.5,2.7,1.7
		C168,147.3,168.1,148.9,167.8,150.5z"/>
	<g id="stamp">
		<path class="st6" d="M159.5,166.5c0,0.3,0,0.7-0.2,0.9c-1,2-6,1.5-11.1-1.1c-5.1-2.6-8.4-6.4-7.3-8.4c0,0,0,0,0,0
			c1.1-2,6-1.5,11.1,1.1C156.4,161.3,159.4,164.4,159.5,166.5z"/>
		<path class="st5" d="M156.1,165.1c0,0.2,0,0.4-0.1,0.6c-0.7,1.3-3.8,1-7.1-0.7c-3.2-1.7-5.3-4.1-4.6-5.4c0,0,0,0,0,0
			c0.7-1.3,3.8-0.9,7,0.7C154.1,161.8,156.1,163.8,156.1,165.1z"/>
		<path class="st7" d="M159.4,152.8c-1,2.9,0.3,6.9,0.3,6.9s1,2,0.7,3.7c-0.3,1.7-0.9,3.1-0.9,3.1c-0.1-2.1-3.1-5.2-7.5-7.5
			c-5-2.6-10-3.1-11.1-1.1c0.2-0.5,2.3-4.1,3.8-4.5c1.6-0.4,6.4,0.5,8.3-3.9c1.9-4.3,5-12,5-12s2.6-3.8,5.8-2.2
			c3.1,1.6,4.1,3.7,2.8,6.4C165.6,143.9,160.4,149.9,159.4,152.8z"/>
	</g>
	<g id="fongers_00000068674801619189133160000017687445142693792422_">
		<path class="st19" d="M155.4,140.5c-1.5-0.9-3-0.8-3.9,0.7c-0.5,0.8-0.5,1.9,0.1,2.5c0.7,0.6,3.6,2.4,3.6,2.4l2.4,1.4
			c1,0.5,2.2,0.3,2.8-0.6l0.2-0.3c0.8-1-0.7-3.2-1.8-3.9L155.4,140.5z"/>
		<path class="st19" d="M149.5,148.7c-1.6-0.5-3.1,0-3.6,1.7c-0.3,0.9-0.1,2,0.7,2.4c0.8,0.4,4.1,1.4,4.1,1.4l2.7,0.7
			c1.1,0.3,2.2-0.3,2.6-1.3l0.1-0.3c0.5-1.2-0.2-2.5-1.4-2.9L149.5,148.7z"/>
		<path class="st19" d="M150.8,143.6c-1.6-0.7-3.1-0.4-3.8,1.3c-0.4,0.9-0.3,2,0.4,2.4c0.7,0.5,3.9,1.9,3.9,1.9l2.6,1
			c1,0.4,2.2,0,2.7-1l0.2-0.3c0.6-1.1,0.1-2.5-1-3.1L150.8,143.6z"/>
	</g>
	<path id="big-finger_00000054250976799685559320000002163032584485609881_" class="st19" d="M165.8,144.6c0,0-3.9,1.1-5.3,1.9
		c-1.3,0.8-2.1,2.1-2.1,2.1s0.9,3.2,4.1,1.8c3-1.3,3.1-0.8,3.1-0.8"/>
	<path class="st20" d="M193.7,150.7c0,0-2.4,6.6-3.8,13.4c-1.2,5.8-1.6,12.5-1.7,14.2c-3.7-1.3-7.4-3.3-7.5-3.9
		c-0.1-0.7-0.3-6.3-0.5-11.2c0.1-1.6,0.4-4.8,1.6-10.1c2-8.7,6.3-12.7,6.3-12.7c0.7,0.6,1.5,1.1,2.3,1.5c-0.2,0.9-0.3,1.8-0.3,2.5
		c0,1.4,0.6,3.8,0.9,5c0.1,0.3,0.4,0.4,0.6,0.1c0.4-0.5,1-1.3,1.3-1.6c0,0,0.1-0.1,0.1-0.1c0.1,1,0.2,2,0.3,2.4
		C193.5,150.5,193.6,150.6,193.7,150.7z"/>
	<path class="st6" d="M214.8,112.3c-0.2,1.4-1.7,2.5-4,3.2c-3.5,1.1-8.9,1.3-14.8,0.4c-5.9-0.9-11-2.6-14-4.7
		c-2-1.4-3.1-2.8-2.9-4.2c0-0.1,0-0.2,0.1-0.3c0.3-1,1.3-1.8,2.8-2.5c3.4-1.4,9.3-1.8,15.9-0.8c5.2,0.8,9.8,2.2,12.9,4
		c1.6,0.9,2.9,1.9,3.5,2.9C214.7,111,214.9,111.7,214.8,112.3z"/>
	<path class="st20" d="M210.8,115.5v4.6c-0.3,0.1-0.7,0.1-1,0.2c-3.9,0.7-8.8,0.9-14.1,0.3c-5.3-0.6-10-1.8-13.6-3.3v-6
		c1.4,0.9,3.3,1.8,5.4,2.6c2.5,0.9,5.4,1.6,8.6,2.1C201.9,116.8,207.3,116.6,210.8,115.5z"/>
	<path class="st6" d="M210.8,120.1v2.7c-1,0-2,0.7-2.8,1.6c-1.2,1.4-1.9,2-2.6,1.9c-0.7-0.1-1.9-0.8-2.2-2c-0.1-0.3-0.1-0.6-0.2-0.8
		c-2.4,0.8-5,1.5-7.7,2c-5.2,0.9-9.5,0.7-12.4-0.2c-2.4-0.8-3.9-2.1-4.2-3.8c-0.3-1.6,1-3.3,3.2-4.9v0.7c3.6,1.5,8.4,2.7,13.6,3.3
		c5.3,0.6,10.3,0.4,14.1-0.3C210.1,120.3,210.4,120.2,210.8,120.1z"/>
</g>
</svg>
