<?xml version="1.0" encoding="UTF-8"?>
<svg id="Logistics" xmlns="http://www.w3.org/2000/svg" viewBox="0 0 380.44 288.44">
  <defs>
    <style>
      .cls-1, .cls-2 {
        fill: #fff;
      }

      .cls-1, .cls-2, .cls-3, .cls-4 {
        stroke: #0032b8;
        stroke-linejoin: round;
        stroke-width: 2px;
      }

      .cls-1, .cls-4 {
        stroke-linecap: round;
      }

      .cls-3 {
        fill: #0087ff;
      }

      .cls-4 {
        fill: #00b6ff;
      }
    </style>
  </defs>
  <g id="custom-officer">
    <g id="tie">
      <path class="cls-3" d="M305.09,212.41c-.05.08-.11.17-.22.27-.3.28-.91.61-2.17.53-.17,0-.41-.03-.7-.08-1.19-.17-3.25-.63-5.4-1.14t-.02,0c-3.72-.88-7.68-1.91-7.68-1.91,0,0,.02-.27.05-.75.16-2.88.86-13.67,2.85-23.7,2.31-11.7,6.49-23.08,6.49-23.08l2.83.94,2.21.74,1.3.44c-1.81,17.13.02,47.75.47,47.75Z"/>
      <path class="cls-3" d="M312.88,154.7c-.33,1-1.14,2.24-2.16,3.52-.67.86-1.45,1.75-2.22,2.6-1.55,1.64-3.07,3.1-3.88,3.85-.38.34-.59.55-.59.55,0,0-.47-.08-1.16-.27-.52-.13-1.13-.31-1.77-.56-1.09-.42-2.22-1.02-2.82-1.83-.16-.2-.28-.44-.34-.67-.23-.81-.42-2.42-.55-4.21v-.02c-.16-2.31-.25-4.9-.3-6.33-.02-.69.72-1.11.72-1.11l.66,1.11,1.31,2.28,1.53.48.45.14h.02l3.93,1.24,1.31.41,3.94-2.91s3.13-1.91,1.91,1.74Z"/>
    </g>
    <g id="vorot">
      <path class="cls-2" d="M328.52,146.13c-1.13,2.14-3.77,7.05-5.9,9.45-2.11,2.36-7.79,6.66-10.43,8.62-.74.55-1.77.3-2.19-.5l-1.5-2.88-.7-1.35-2.08-4-.13-.23s7.54-3.85,11.73-6.96c5.13-3.82,6.69-9.56,6.69-9.56l2.46,3.1,1.85,2.35c.45.56.53,1.33.2,1.97Z"/>
      <path class="cls-2" d="M302.03,154.42s-.28.19-.72.47c-1.06.72-3.07,2.06-3.91,2.77v.02c-.09.08-.17.16-.23.22-.55.55-1.58,1.81-2.3,2.71-.31.39-.94.27-1.06-.22-.53-2-1.53-6.1-1.6-8.54-.03-1.17.2-2.75.5-4.32.34-1.74.78-3.47,1.08-4.55.2-.72.33-1.16.33-1.16,0,0,.17.77.52,1.88.44,1.39,1.14,3.35,2.17,5.02.09.17.2.34.31.5.31.45.63.88.95,1.28.41.52.83.99,1.24,1.41.78.84,1.52,1.5,2.02,1.96.19.14.34.28.45.38h.02c.16.13.23.19.23.19Z"/>
    </g>
    <g id="head">
      <path class="cls-2" d="M301.48,153.43s3.36,2.32,5.88.87c2.52-1.45,10.23-5.68,12.04-7.86,1.81-2.17,4.09-4.63,4.09-4.63,0,0,1.63-6.09-2.72-6.39-4.34-.3-13.55,7.64-13.55,7.64l-8.75,3.36-2.32.17,1.17,2.38c.76,1.54,1.89,2.86,3.29,3.85l.87.61Z"/>
      <path class="cls-1" d="M312.08,144.72s-4.08,2.67-11.82,3.86c-.19.03-.39.06-.58.09-.84.13-1.66.14-2.47.08-.14-.02-.28-.03-.41-.05-1.44-.16-2.82-.58-4.1-1.19-1.44-.66-2.77-1.55-3.94-2.53-.78-.64-1.49-1.31-2.11-2-1.6-1.72-2.71-3.44-3.19-4.61-2.27-5.55-3.38-16.61-3.64-19.69,5.07,1.61,12.47,1.92,21.36.42,4.63-.77,9.17-1.96,13.26-3.39.09.5.2,1,.3,1.45.47,1.97,2.55,3.25,3.71,3.36,1.16.13,2.31-.81,4.39-3.24,1.35-1.58,3.02-2.71,4.79-2.77.99-.05,2,.25,2.99.97,2.27,1.66,1.45,5.21.06,8.29-.31.69-.64,1.36-.99,1.97-1.86,3.35-6.26,3.93-6.26,3.93l-.23,7.15v.02l-.13,4.97"/>
    </g>
    <g id="hand">
      <path class="cls-1" d="M289.58,214.03s-3.02-2-7.62-1.74c-2.07.12-4.22,1.02-5.68,1.81-1.23.66-1.68,3.68-.33,4.04l3.36-.95"/>
      <path class="cls-1" d="M312.19,234.29s-11.04-4.28-16.64-2.69c-5.79,2.9-9.43,6.86-11.86,8.6s-8.11.58-5.79-2.55c2.32-3.13,11.01-10.54,11.01-10.54l-11.08,10.66c-1.6,1.54-4.28,1.55-5.65-.21-.8-1.03-1.02-2.53.51-4.66,3.82-5.33,10.08-10.54,10.08-10.54l-11.14,11.82s-5.08-2.24-1.49-6.88,10.2-12.47,17.73-14.32c7.53-1.85,15.91,1.4,15.91,1.4,0,0,11.89-.24,12.82,4.04s3.36,10.89,1.39,12.63c-1.97,1.74-5.79,3.24-5.79,3.24Z"/>
    </g>
    <g id="hand-left">
      <g>
        <path class="cls-4" d="M354.25,202.67s-.05.08-.09.13l-6.87,9.62-3.75-.5-7.48-1.02-.58-2.52s-.66-3.28-1.3-7.68c-.91-6.18-1.77-14.58-.67-19.11,1.72-7.23,4.22-17.19,14.69-20.85.06-.03.13-.05.19-.06.17-.06.33-.09.47-.14.56-.2,1.16-.36,1.77-.5v.27c-.08,19.17,3.63,42.37,3.63,42.37Z"/>
        <path class="cls-4" d="M348.38,160.68c.17-.06.33-.09.47-.14.69-.17,1.3-.27,1.77-.23.33,0,.59.06.81.19.16.08.28.19.38.34.08.13.14.27.22.41,2.27,4.19,5.36,12.5,7.38,20.94,1.42,5.97,2.31,12,1.96,16.67-.86,11.46-1.38,16.84-7.29,21.19-4.24,3.11-20.38,8.84-29.89,12,.63-4.44.92-10.07-.41-14.78-.09-.31-.19-.61-.31-.91-1.91-4.91-7.1-6.55-11.09-7.08,1.56-.63,17.13-7.01,21.8-8.57.56-.19.97-.31,1.17-.34,1.97-.3,3.85-.25,4.9.06,1.39.41,3.46,2.42,3.46,2.42"/>
      </g>
      <path class="cls-4" d="M324.19,232.04c-3.75,1.25-6.47,2.1-7.04,2.25-2,.53-4.96,0-4.96,0,0,0,2.35-2.25,2.5-7.01.11-2.83-.59-6.9-4.18-9.84-1.55-1.27-4.83-2.47-6.68-3.07-.47-.16-.52-.8-.06-1.02l1.24-.58,7.24-3.46s.05-.02.13-.06c3.99.53,9.18,2.17,11.09,7.08.13.3.22.59.31.91,1.33,4.71,1.03,10.34.41,14.78Z"/>
    </g>
    <path class="cls-4" d="M350.62,160.3v-.27c-.61.14-1.2.3-1.77.5-.14.05-.3.08-.47.14-.06,0-.13.03-.19.05v.02c-10.46,3.66-12.97,13.62-14.69,20.85-1.09,4.54-.23,12.93.67,19.11-4.68,1.56-20.24,7.95-21.8,8.57-.08.05-.13.06-.13.06l-7.24,3.46-.14-.11c.11-.09.17-.19.22-.27-.45,0-2.28-30.62-.47-47.75.81-.75,2.33-2.21,3.88-3.85l1.5,2.88c.42.8,1.45,1.05,2.19.5,2.64-1.96,8.32-6.26,10.43-8.62,2.13-2.39,4.77-7.3,5.9-9.45.33-.64.25-1.41-.2-1.97l-1.85-2.35s21,14.64,23.43,16.97c.38.36.89.95,1.53,1.7-.22-.13-.48-.19-.81-.19Z"/>
    <path class="cls-4" d="M298.29,162.55s-4.18,11.39-6.49,23.08c-1.99,10.03-2.74,21.57-2.89,24.45-6.38-2.31-12.68-5.63-12.86-6.71-.19-1.24-.58-10.92-.88-19.21.16-2.74.74-8.32,2.78-17.3,3.41-14.91,10.81-21.88,10.81-21.88,1.17.99,2.5,1.88,3.94,2.53-.3,1.56-.53,3.14-.5,4.32.06,2.44,1.06,6.54,1.6,8.54.13.48.75.61,1.06.22.72-.89,1.75-2.16,2.3-2.71.06-.06.14-.14.23-.22.13,1.78.31,3.39.55,4.21.06.23.19.47.34.67Z"/>
    <path class="cls-3" d="M334.59,96.47c-.36,2.39-2.91,4.27-6.96,5.49-5.97,1.83-15.23,2.22-25.37.72-10.17-1.49-18.92-4.54-24.13-8.01-3.49-2.33-5.38-4.85-5.04-7.23.03-.2.08-.41.14-.59.53-1.72,2.27-3.16,4.9-4.24,5.8-2.36,16-3.03,27.28-1.38,9.01,1.31,16.92,3.86,22.22,6.83,2.83,1.58,4.93,3.3,6.05,5,.74,1.14,1.06,2.28.91,3.39Z"/>
    <path class="cls-4" d="M327.63,101.96v7.93c-.58.14-1.17.25-1.78.38-6.65,1.27-15.16,1.53-24.29.53-9.06-1-17.22-3.08-23.43-5.72v-10.4c2.41,1.61,5.61,3.13,9.37,4.46,4.3,1.52,9.32,2.75,14.76,3.55,10.13,1.5,19.39,1.11,25.37-.72Z"/>
    <path class="cls-3" d="M327.63,109.89v4.63c-1.77.06-3.44,1.19-4.79,2.77-2.08,2.42-3.24,3.36-4.39,3.24-1.16-.11-3.24-1.39-3.71-3.36-.09-.45-.2-.95-.3-1.45-4.1,1.44-8.63,2.63-13.26,3.39-8.9,1.5-16.3,1.19-21.36-.42-4.21-1.36-6.79-3.61-7.27-6.47-.45-2.77,1.67-5.74,5.58-8.41v1.28c6.21,2.64,14.37,4.72,23.43,5.72,9.13,1,17.64.74,24.29-.53.61-.13,1.2-.23,1.78-.38Z"/>
    <g id="pocket">
      <path class="cls-3" d="M319.3,196.5l-5.45-1.51c-1.59-.44-2.7-1.9-2.7-3.55v-8.35l12,3.33v7.15c0,2.01-1.92,3.47-3.86,2.93Z"/>
      <polygon class="cls-3" points="324.72 187.89 309.96 183.44 309.96 179.26 324.72 183.7 324.72 187.89"/>
    </g>
  </g>
</svg>