<?xml version="1.0" encoding="utf-8"?>
<!-- Generator: Adobe Illustrator 28.1.0, SVG Export Plug-In . SVG Version: 6.00 Build 0)  -->
<svg version="1.1" xmlns="http://www.w3.org/2000/svg" xmlns:xlink="http://www.w3.org/1999/xlink" x="0px" y="0px"
	 viewBox="0 0 250 250" style="enable-background:new 0 0 250 250;" xml:space="preserve">
<style type="text/css">
	.st0{display:none;}
	.st1{fill:#FFFFFF;stroke:#1A6EFF;stroke-width:9;stroke-linejoin:round;stroke-miterlimit:10;}
	.st2{fill:#3A8DFF;stroke:#1A6EFF;stroke-width:9;stroke-linecap:round;stroke-miterlimit:10;}
	.st3{fill:none;stroke:#1A6EFF;stroke-width:9;stroke-linecap:round;stroke-linejoin:round;stroke-miterlimit:10;}
</style>
<g id="Слой_1" class="st0">
	
		<image style="display:inline;overflow:visible;" width="80" height="80" xlink:href="../png/logistic-delivery-servicesx2.png"  transform="matrix(3.125 0 0 3.125 0 0)">
	</image>
</g>
<g id="Слой_3">
	<rect x="126.2" y="35.2" class="st1" width="38.5" height="38.5"/>
	<path class="st1" d="M120.3,68.1V165h81.5V93l15.4-7.7V68.1C217.2,68.1,121.7,68.1,120.3,68.1z M176.1,127.1h-28.7
		c-2.4,0-4.3-1.9-4.3-4.3V94c0-2.4,1.9-4.3,4.3-4.3h28.7c2.4,0,4.3,1.9,4.3,4.3v28.7C180.4,125.1,178.5,127.1,176.1,127.1z"/>
	<rect x="29.6" y="108.4" class="st2" width="84.7" height="51.6"/>
	<rect x="34.8" y="73.7" class="st2" width="65.3" height="29.6"/>
	<line class="st3" x1="29.6" y1="108.4" x2="114.3" y2="160"/>
	<line class="st3" x1="114.3" y1="108.4" x2="29.6" y2="160"/>
	<line class="st3" x1="34.8" y1="73.7" x2="100.1" y2="103.4"/>
	<line class="st3" x1="34.8" y1="103.4" x2="100.1" y2="73.7"/>
</g>
<g id="Слой_2">
	<path class="st1" d="M9.6,145.4l17.5,45.9c0.1,0.2,0.1,0.5-0.1,0.7l-11.9,17.3c-0.4,0.5,0,1.3,0.7,1.3h129.1c0,0,0.1,0,0.1,0
		c1.4,0.2,37.5,0.4,65.7-19.3c25.5-17.8,27.6-60.4,27.6-63.4v-9.9c0-0.4-0.4-0.8-0.8-0.8h-33.9c-0.4,0-0.8,0.4-0.8,0.8v3.7
		c0,12.9-6.9,24.8-18.2,31.1c-0.1,0.1-0.3,0.2-0.4,0.2c-0.1,0.1-0.3,0.2-0.4,0.2c-12.4,6.6-26.3,10-40.4,10h-25.2
		c-0.2,0-0.4-0.1-0.6-0.3l-17.6-18.9c-0.2-0.2-0.4-0.3-0.6-0.3l-88.8,0.3C9.8,144.3,9.4,144.8,9.6,145.4z"/>
</g>
</svg>
