<?xml version="1.0" encoding="utf-8"?>
<!-- Generator: Adobe Illustrator 28.1.0, SVG Export Plug-In . SVG Version: 6.00 Build 0)  -->
<svg version="1.1" xmlns="http://www.w3.org/2000/svg" xmlns:xlink="http://www.w3.org/1999/xlink" x="0px" y="0px"
	 viewBox="0 0 250 250" style="enable-background:new 0 0 250 250;" xml:space="preserve">
<style type="text/css">
	.st0{display:none;fill:#FFFFFF;stroke:#1A6EFF;stroke-width:9;stroke-linecap:round;stroke-linejoin:round;stroke-miterlimit:10;}
	.st1{display:none;}
	
		.st2{display:inline;fill:#FFFFFF;stroke:#1A6EFF;stroke-width:7;stroke-linecap:round;stroke-linejoin:round;stroke-miterlimit:10;}
	.st3{fill:#FFFFFF;stroke:#1A6EFF;stroke-width:9;stroke-linecap:round;stroke-linejoin:round;stroke-miterlimit:10;}
	.st4{fill:none;stroke:#1A6EFF;stroke-width:9;stroke-linecap:round;stroke-linejoin:round;stroke-miterlimit:10;}
	.st5{fill:#3A8DFF;stroke:#1A6EFF;stroke-width:9;stroke-linecap:round;stroke-linejoin:round;stroke-miterlimit:10;}
	.st6{display:inline;fill:#3A8DFF;stroke:#1A6EFF;stroke-width:9;stroke-linejoin:round;stroke-miterlimit:10;}
	.st7{display:inline;}
	.st8{fill:#FFFFFF;stroke:#1A6EFF;stroke-width:9;stroke-linejoin:round;stroke-miterlimit:10;}
	.st9{fill:none;stroke:#1A6EFF;stroke-width:7;stroke-linecap:round;stroke-linejoin:round;stroke-miterlimit:10;}
	.st10{display:inline;fill:#FFFFFF;stroke:#1A6EFF;stroke-width:9;stroke-linejoin:round;stroke-miterlimit:10;}
	.st11{display:inline;fill:#3A8DFF;stroke:#1A6EFF;stroke-width:9;stroke-linecap:round;stroke-miterlimit:10;}
	.st12{display:inline;fill:none;stroke:#1A6EFF;stroke-width:9;stroke-linecap:round;stroke-linejoin:round;stroke-miterlimit:10;}
</style>
<g id="Слой_5">
	<path class="st0" d="M188.9,88c0,0-45.7-13.7-58.2-14.7c-15.2-1.3-28,5.8-34.2,10.2c-4.4,3.1-13.6,11.6-17.2,16
		c-3.7,4.5-3.6,13.3,0.2,17.7c6.1,7,16.8-1.1,23.3-5.2c15.4-9.8,15.3-11.1,19.4-11.1c4.4,2.8,25,21.8,25,21.8
		c20.8,16.6,27.1,23.3,27.1,23.3l11.3,11l29.3-17.6L188.9,88z"/>
	<g class="st1">
		
			<ellipse transform="matrix(0.6765 -0.7365 0.7365 0.6765 -91.8191 94.1739)" class="st2" cx="61.3" cy="151.6" rx="15.3" ry="10"/>
		
			<ellipse transform="matrix(0.6765 -0.7365 0.7365 0.6765 -95.3601 109.2045)" class="st2" cx="76.6" cy="163.1" rx="15.3" ry="10"/>
		
			<ellipse transform="matrix(0.6765 -0.7365 0.7365 0.6765 -100.497 124.249)" class="st2" cx="91.2" cy="176.5" rx="15.3" ry="10"/>
		
			<ellipse transform="matrix(0.6765 -0.7365 0.7365 0.6765 -104.2513 139.2362)" class="st2" cx="106.3" cy="188.3" rx="15.7" ry="9.3"/>
	</g>
	
		<image style="display:none;overflow:visible;" width="40" height="40" xlink:href="../png/logistic-documents-services.png"  transform="matrix(6.25 0 0 6.25 0 0)">
	</image>
	<path class="st3" d="M202.8,232.3H47.2c-3.8,0-7-3.1-7-7V36.6c0-3.8,3.1-7,7-7h155.6c3.8,0,7,3.1,7,7v188.7
		C209.7,229.1,206.6,232.3,202.8,232.3z"/>
	<g>
		<line class="st4" x1="67.7" y1="94.3" x2="83.7" y2="109"/>
		<line class="st4" x1="110.6" y1="82.8" x2="83.7" y2="109"/>
	</g>
	<g>
		<line class="st4" x1="67.7" y1="153.4" x2="83.7" y2="168"/>
		<line class="st4" x1="110.6" y1="141.8" x2="83.7" y2="168"/>
	</g>
	<line class="st4" x1="125" y1="84.1" x2="181.7" y2="84.1"/>
	<line class="st4" x1="125" y1="99.7" x2="148.8" y2="99.7"/>
	<line class="st4" x1="125" y1="141.4" x2="179.7" y2="141.4"/>
	<line class="st4" x1="125" y1="156.6" x2="151" y2="156.6"/>
	<line class="st4" x1="125" y1="169.9" x2="165" y2="169.9"/>
	<rect x="83.9" y="16.1" class="st5" width="82.2" height="37.8"/>
	<line class="st4" x1="59.7" y1="200.6" x2="190.8" y2="200.6"/>
	<line class="st4" x1="190.8" y1="214.1" x2="59.7" y2="214.1"/>
</g>
<g id="Слой_1" class="st1">
	
		<image style="overflow:visible;" width="80" height="80" xlink:href="../png/logistic-delivery-servicesx2.png"  transform="matrix(3.125 0 0 3.125 0 0)">
	</image>
	
		<image style="display:inline;overflow:visible;" width="48" height="48" xlink:href="../png/logistic-support-services.png"  transform="matrix(5.1358 0 0 5.1358 3.4815 5.8889)">
	</image>
</g>
<g id="Слой_4" class="st1">
	<path class="st6" d="M44.4,65.7C43.2,66.3,10.6,125,10.6,125l27,16.6l35.6-59.9L44.4,65.7z"/>
	<path class="st6" d="M185.7,81.7c4.4-1.5,29-17.2,29-17.2l27.9,64.6l-26.4,12.4L185.7,81.7z"/>
	<g class="st7">
		<path class="st8" d="M42.9,138.6l74.1,62.8c0,0,7.7,3.9,12.7,0s5.3-8.6,5.3-8.6s11.3,2.1,14.5-0.6c3.3-2.7,5.3-9.2,5.3-9.2
			s8.9,0.6,12.7-3.3c3.9-3.9,3.3-11.9,3.3-11.9s9.8,1.5,12.7-2.4c3-3.9,5-5.9,0-11.6c-5-5.6-76.7-67.6-76.7-67.6H90H71L42.9,138.6z"
			/>
		<line class="st9" x1="109.8" y1="170.3" x2="135" y2="192.9"/>
		<line class="st9" x1="129.7" y1="160.3" x2="154.9" y2="183.1"/>
		<line class="st9" x1="146" y1="146.9" x2="170.9" y2="168"/>
	</g>
</g>
<g id="Слой_3" class="st1">
	<rect x="126.2" y="35.2" class="st10" width="38.5" height="38.5"/>
	<path class="st10" d="M120.3,68.1V165h81.5V93l15.4-7.7V68.1C217.2,68.1,121.7,68.1,120.3,68.1z M176.1,127.1h-28.7
		c-2.4,0-4.3-1.9-4.3-4.3V94c0-2.4,1.9-4.3,4.3-4.3h28.7c2.4,0,4.3,1.9,4.3,4.3v28.7C180.4,125.1,178.5,127.1,176.1,127.1z"/>
	<rect x="29.6" y="108.4" class="st11" width="84.7" height="51.6"/>
	<rect x="34.8" y="73.7" class="st11" width="65.3" height="29.6"/>
	<line class="st12" x1="29.6" y1="108.4" x2="114.3" y2="160"/>
	<line class="st12" x1="114.3" y1="108.4" x2="29.6" y2="160"/>
	<line class="st12" x1="34.8" y1="73.7" x2="100.1" y2="103.4"/>
	<line class="st12" x1="34.8" y1="103.4" x2="100.1" y2="73.7"/>
	
		<image style="display:inline;overflow:visible;" width="48" height="48" xlink:href="../png/logistic-support-services.png"  transform="matrix(1 0 0 1 130.3333 156.4074)">
	</image>
</g>
<g id="Слой_2" class="st1">
	<path class="st10" d="M9.6,145.4l17.5,45.9c0.1,0.2,0.1,0.5-0.1,0.7l-11.9,17.3c-0.4,0.5,0,1.3,0.7,1.3h129.1c0,0,0.1,0,0.1,0
		c1.4,0.2,37.5,0.4,65.7-19.3c25.5-17.8,27.6-60.4,27.6-63.4v-9.9c0-0.4-0.4-0.8-0.8-0.8h-33.9c-0.4,0-0.8,0.4-0.8,0.8v3.7
		c0,12.9-6.9,24.8-18.2,31.1c-0.1,0.1-0.3,0.2-0.4,0.2c-0.1,0.1-0.3,0.2-0.4,0.2c-12.4,6.6-26.3,10-40.4,10h-25.2
		c-0.2,0-0.4-0.1-0.6-0.3l-17.6-18.9c-0.2-0.2-0.4-0.3-0.6-0.3l-88.8,0.3C9.8,144.3,9.4,144.8,9.6,145.4z"/>
</g>
</svg>
