<?xml version="1.0" encoding="utf-8"?>
<!-- Generator: Adobe Illustrator 28.1.0, SVG Export Plug-In . SVG Version: 6.00 Build 0)  -->
<svg version="1.1" xmlns="http://www.w3.org/2000/svg" xmlns:xlink="http://www.w3.org/1999/xlink" x="0px" y="0px"
	 viewBox="0 0 80 80" style="enable-background:new 0 0 80 80;" xml:space="preserve">
<style type="text/css">
	.st0{display:none;}
	.st1{fill:#FFFFFF;}
	.st2{fill:#1A6EFF;}
	.st3{fill:#FFFFFF;stroke:#1A6EFF;stroke-width:4;stroke-linejoin:round;stroke-miterlimit:10;}
	.st4{fill:none;stroke:#60A2FF;stroke-width:4;stroke-linecap:round;stroke-linejoin:round;stroke-miterlimit:10;}
	.st5{fill:none;stroke:#1A6EFF;stroke-width:3;stroke-linecap:round;stroke-linejoin:round;stroke-miterlimit:10;}
	.st6{fill:none;stroke:#1A6EFF;stroke-width:4;stroke-linecap:round;stroke-linejoin:round;stroke-miterlimit:10;}
	.st7{fill:#FFFFFF;stroke:#1A6EFF;stroke-width:4;stroke-linecap:round;stroke-linejoin:round;stroke-miterlimit:10;}
	.st8{fill:#60A2FF;}
	.st9{fill:none;stroke:#60A2FF;stroke-width:3.5;stroke-linejoin:round;stroke-miterlimit:10;}
	.st10{fill:none;stroke:#1A6EFF;stroke-width:3.5;stroke-linecap:round;stroke-linejoin:round;stroke-miterlimit:10;}
	.st11{fill:none;stroke:#1A6EFF;stroke-width:3.5;stroke-linejoin:round;stroke-miterlimit:10;}
	.st12{fill:none;stroke:#1A6EFF;stroke-width:4;stroke-miterlimit:10;}
	.st13{fill:#60A2FF;stroke:#60A2FF;stroke-linejoin:round;stroke-miterlimit:10;}
	.st14{fill:#1A6EFF;stroke:#1A6EFF;stroke-linejoin:round;stroke-miterlimit:10;}
	.st15{fill:#FFFFFF;stroke:#1A6EFF;stroke-width:3;stroke-linejoin:round;stroke-miterlimit:10;}
	.st16{fill:none;stroke:#1A6EFF;stroke-width:3;stroke-miterlimit:10;}
	.st17{fill:#60A2FF;stroke:#FFFFFF;stroke-width:4;stroke-miterlimit:10;}
	.st18{fill:none;stroke:#FFFFFF;stroke-width:4;stroke-miterlimit:10;}
	.st19{fill:#FFFFFF;stroke:#1A6EFF;stroke-width:4;stroke-miterlimit:10;}
	.st20{fill:none;stroke:#60A2FF;stroke-width:3;stroke-linecap:square;stroke-linejoin:round;stroke-miterlimit:10;}
	.st21{fill:#1A6EFF;stroke:#FFFFFF;stroke-width:3;stroke-miterlimit:10;}
	.st22{fill:none;stroke:#FFFFFF;stroke-width:3;stroke-miterlimit:10;}
	.st23{fill:none;stroke:#FFFFFF;stroke-width:4;stroke-linecap:round;stroke-miterlimit:10;}
	.st24{fill:#60A2FF;stroke:#FFFFFF;stroke-width:3;stroke-miterlimit:10;}
	.st25{fill:#FFFFFF;stroke:#60A2FF;stroke-width:3;stroke-miterlimit:10;}
	.st26{fill:none;stroke:#60A2FF;stroke-width:3;stroke-miterlimit:10;}
	.st27{fill:none;stroke:#60A2FF;stroke-width:4;stroke-miterlimit:10;}
</style>
<g id="back" class="st0">
</g>
<g id="Названия_монтажных_областей">
	<g>
		<g>
			<path class="st1" d="M-1.9-6.4v-6.9L-5-8h-0.5l-3.1-5.4v6.9h-0.8V-15h0.9l3.3,5.8L-2-15h0.9v8.5H-1.9z"/>
			<path class="st1" d="M3.5-6.3c-0.5,0-0.9-0.1-1.3-0.3S1.6-7,1.3-7.3C1-7.6,0.8-7.9,0.7-8.3C0.5-8.7,0.4-9.1,0.4-9.5
				c0-0.4,0.1-0.9,0.2-1.2c0.2-0.4,0.4-0.7,0.6-1c0.3-0.3,0.6-0.5,1-0.7c0.4-0.2,0.8-0.3,1.2-0.3c0.4,0,0.9,0.1,1.2,0.3
				s0.7,0.4,1,0.7c0.3,0.3,0.5,0.6,0.6,1c0.2,0.4,0.2,0.8,0.2,1.2c0,0.4-0.1,0.8-0.2,1.2C6.3-7.9,6-7.6,5.8-7.3
				C5.5-7,5.2-6.8,4.8-6.6S4-6.3,3.5-6.3z M1.3-9.5c0,0.5,0.1,0.9,0.3,1.3C1.8-7.9,2-7.6,2.4-7.4C2.7-7.2,3.1-7,3.5-7
				s0.8-0.1,1.1-0.3s0.6-0.5,0.8-0.9c0.2-0.4,0.3-0.8,0.3-1.3c0-0.5-0.1-0.9-0.3-1.3S5-11.5,4.7-11.7C4.3-11.9,3.9-12,3.5-12
				s-0.8,0.1-1.1,0.3c-0.3,0.2-0.6,0.5-0.8,0.9C1.4-10.4,1.3-10,1.3-9.5z"/>
			<path class="st1" d="M8-6.4v-6.2h0.8v2.7h3.6v-2.7h0.8v6.2h-0.8v-2.8H8.8v2.8H8z"/>
			<path class="st1" d="M16.6-6.4v-5.5h-2.2v-0.7h5.3v0.7h-2.2v5.5H16.6z"/>
			<path class="st1" d="M20.2-8.2c0-0.4,0.1-0.7,0.3-1c0.2-0.3,0.5-0.5,0.9-0.7c0.4-0.2,0.9-0.2,1.4-0.2c0.3,0,0.6,0,0.9,0.1
				c0.3,0,0.6,0.1,0.9,0.2v-0.5c0-0.5-0.2-0.9-0.5-1.3c-0.3-0.3-0.7-0.5-1.3-0.5c-0.3,0-0.7,0.1-1,0.2c-0.3,0.1-0.7,0.3-1,0.5
				l-0.3-0.6c0.4-0.3,0.8-0.5,1.2-0.6c0.4-0.1,0.8-0.2,1.2-0.2c0.8,0,1.4,0.2,1.8,0.7c0.4,0.4,0.7,1,0.7,1.8v2.9
				c0,0.1,0,0.2,0.1,0.2s0.1,0.1,0.2,0.1v0.6c-0.1,0-0.2,0-0.2,0c-0.1,0-0.1,0-0.1,0c-0.2,0-0.4-0.1-0.5-0.2
				c-0.1-0.1-0.2-0.2-0.2-0.4l0-0.5c-0.3,0.4-0.6,0.6-1.1,0.8c-0.4,0.2-0.9,0.3-1.4,0.3c-0.4,0-0.8-0.1-1.1-0.3S20.7-7,20.5-7.3
				C20.3-7.6,20.2-7.9,20.2-8.2z M24.4-7.8c0.1-0.1,0.2-0.2,0.2-0.3s0.1-0.2,0.1-0.3v-0.9c-0.3-0.1-0.6-0.2-0.8-0.2S23.3-9.6,23-9.6
				c-0.6,0-1.1,0.1-1.4,0.3C21.2-9,21-8.7,21-8.3c0,0.2,0.1,0.4,0.2,0.6c0.1,0.2,0.3,0.4,0.5,0.5c0.2,0.1,0.5,0.2,0.8,0.2
				c0.4,0,0.8-0.1,1.1-0.2C24-7.3,24.2-7.5,24.4-7.8z"/>
			<path class="st1" d="M26.8-6.4l2.3-3.2l-2.1-3H28l1.9,2.7h0.8v-2.7h0.8v2.7h0.8l1.8-2.7h0.9l-2.1,3l2.4,3.2h-0.9l-2.1-2.8h-0.8
				v2.8h-0.8v-2.8h-0.8l-2.1,2.8H26.8z"/>
			<path class="st1" d="M36.7-6.4v-6.2h0.8v2.7h0.9l2.1-2.7h0.9l-2.4,3l2.7,3.2h-1l-2.4-2.8h-0.9v2.8H36.7z"/>
			<path class="st1" d="M42.5-8.2c0-0.4,0.1-0.7,0.3-1c0.2-0.3,0.5-0.5,0.9-0.7c0.4-0.2,0.9-0.2,1.4-0.2c0.3,0,0.6,0,0.9,0.1
				c0.3,0,0.6,0.1,0.9,0.2v-0.5c0-0.5-0.2-0.9-0.5-1.3c-0.3-0.3-0.7-0.5-1.3-0.5c-0.3,0-0.7,0.1-1,0.2c-0.3,0.1-0.7,0.3-1,0.5
				l-0.3-0.6c0.4-0.3,0.8-0.5,1.2-0.6c0.4-0.1,0.8-0.2,1.2-0.2c0.8,0,1.4,0.2,1.8,0.7c0.4,0.4,0.7,1,0.7,1.8v2.9
				c0,0.1,0,0.2,0.1,0.2s0.1,0.1,0.2,0.1v0.6c-0.1,0-0.2,0-0.2,0c-0.1,0-0.1,0-0.1,0c-0.2,0-0.4-0.1-0.5-0.2
				c-0.1-0.1-0.2-0.2-0.2-0.4l0-0.5c-0.3,0.4-0.6,0.6-1.1,0.8c-0.4,0.2-0.9,0.3-1.4,0.3c-0.4,0-0.8-0.1-1.1-0.3S42.9-7,42.7-7.3
				C42.6-7.6,42.5-7.9,42.5-8.2z M46.7-7.8c0.1-0.1,0.2-0.2,0.2-0.3s0.1-0.2,0.1-0.3v-0.9c-0.3-0.1-0.6-0.2-0.8-0.2
				s-0.6-0.1-0.9-0.1c-0.6,0-1.1,0.1-1.4,0.3c-0.4,0.2-0.5,0.5-0.5,0.9c0,0.2,0.1,0.4,0.2,0.6c0.1,0.2,0.3,0.4,0.5,0.5
				c0.2,0.1,0.5,0.2,0.8,0.2c0.4,0,0.8-0.1,1.1-0.2C46.2-7.3,46.5-7.5,46.7-7.8z"/>
			<path class="st1" d="M58.2-8.8c0,0.5-0.1,0.9-0.4,1.3c-0.3,0.4-0.6,0.7-1.1,0.9c-0.5,0.2-0.9,0.3-1.5,0.3c-0.6,0-1.1-0.1-1.5-0.3
				c-0.4-0.2-0.8-0.5-1-0.9c-0.3-0.4-0.4-0.8-0.4-1.3c0-0.4,0.1-0.7,0.3-1c0.2-0.3,0.4-0.5,0.6-0.7s0.5-0.3,0.8-0.4
				c-0.2-0.1-0.5-0.2-0.7-0.4c-0.2-0.2-0.4-0.4-0.5-0.6c-0.1-0.2-0.2-0.5-0.2-0.8c0-0.4,0.1-0.7,0.2-0.9c0.2-0.3,0.4-0.5,0.6-0.7
				c0.3-0.2,0.5-0.3,0.9-0.4c0.3-0.1,0.6-0.1,1-0.1c0.3,0,0.6,0,0.9,0.1c0.3,0.1,0.6,0.2,0.9,0.4s0.5,0.4,0.6,0.7
				c0.2,0.3,0.2,0.6,0.2,0.9c0,0.3-0.1,0.5-0.2,0.8c-0.1,0.2-0.3,0.4-0.5,0.6s-0.5,0.3-0.7,0.4c0.3,0.1,0.6,0.3,0.9,0.5
				c0.3,0.2,0.5,0.5,0.6,0.8S58.2-9.2,58.2-8.8z M57.4-8.9c0-0.3-0.1-0.5-0.2-0.8s-0.3-0.4-0.5-0.6c-0.2-0.2-0.4-0.3-0.7-0.3
				s-0.5-0.1-0.8-0.1c-0.3,0-0.7,0.1-1,0.2c-0.3,0.1-0.6,0.4-0.8,0.6c-0.2,0.3-0.3,0.6-0.3,1c0,0.3,0.1,0.5,0.2,0.7s0.3,0.4,0.5,0.6
				c0.2,0.2,0.4,0.3,0.7,0.4c0.3,0.1,0.5,0.1,0.8,0.1c0.3,0,0.7-0.1,1-0.2c0.3-0.1,0.6-0.4,0.8-0.6S57.4-8.5,57.4-8.9z M53.4-12.8
				c0,0.3,0.1,0.6,0.3,0.8c0.2,0.2,0.4,0.4,0.7,0.5s0.6,0.2,0.8,0.2c0.3,0,0.6-0.1,0.9-0.2c0.3-0.1,0.5-0.3,0.7-0.5
				c0.2-0.2,0.3-0.5,0.3-0.8c0-0.3-0.1-0.6-0.3-0.8s-0.4-0.4-0.7-0.5c-0.3-0.1-0.6-0.2-0.9-0.2c-0.3,0-0.6,0.1-0.9,0.2
				c-0.3,0.1-0.5,0.3-0.7,0.5S53.4-13.1,53.4-12.8z"/>
			<path class="st1" d="M65.5-9.9c0,0.7-0.1,1.3-0.4,1.9s-0.6,1-1.1,1.3c-0.5,0.3-1,0.5-1.6,0.5c-0.6,0-1.1-0.2-1.5-0.5
				c-0.5-0.3-0.8-0.7-1.1-1.3c-0.3-0.5-0.4-1.2-0.4-1.9c0-0.7,0.1-1.3,0.4-1.9c0.3-0.5,0.6-1,1.1-1.3c0.5-0.3,1-0.5,1.5-0.5
				c0.6,0,1.1,0.2,1.6,0.5c0.5,0.3,0.8,0.7,1.1,1.3C65.3-11.2,65.5-10.6,65.5-9.9z M64.6-9.9c0-0.6-0.1-1-0.3-1.5
				c-0.2-0.4-0.4-0.8-0.8-1s-0.7-0.4-1.1-0.4s-0.8,0.1-1.1,0.4c-0.3,0.2-0.6,0.6-0.8,1c-0.2,0.4-0.3,0.9-0.3,1.5
				c0,0.6,0.1,1,0.3,1.5c0.2,0.4,0.4,0.8,0.8,1c0.3,0.2,0.7,0.4,1.1,0.4s0.8-0.1,1.1-0.4c0.3-0.2,0.6-0.6,0.8-1
				C64.6-8.9,64.6-9.3,64.6-9.9z"/>
			<path class="st1" d="M70.1-6.4v-6.2h0.8v2.7h3.6v-2.7h0.8v6.2h-0.8v-2.8h-3.6v2.8H70.1z"/>
			<path class="st1" d="M76.6-8.2c0-0.4,0.1-0.7,0.3-1c0.2-0.3,0.5-0.5,0.9-0.7c0.4-0.2,0.9-0.2,1.4-0.2c0.3,0,0.6,0,0.9,0.1
				c0.3,0,0.6,0.1,0.9,0.2v-0.5c0-0.5-0.2-0.9-0.5-1.3c-0.3-0.3-0.7-0.5-1.3-0.5c-0.3,0-0.7,0.1-1,0.2c-0.3,0.1-0.7,0.3-1,0.5
				L77-11.9c0.4-0.3,0.8-0.5,1.2-0.6c0.4-0.1,0.8-0.2,1.2-0.2c0.8,0,1.4,0.2,1.8,0.7c0.4,0.4,0.7,1,0.7,1.8v2.9c0,0.1,0,0.2,0.1,0.2
				s0.1,0.1,0.2,0.1v0.6c-0.1,0-0.2,0-0.2,0c-0.1,0-0.1,0-0.1,0c-0.2,0-0.4-0.1-0.5-0.2c-0.1-0.1-0.2-0.2-0.2-0.4l0-0.5
				c-0.3,0.4-0.6,0.6-1.1,0.8c-0.4,0.2-0.9,0.3-1.4,0.3c-0.4,0-0.8-0.1-1.1-0.3S77-7,76.9-7.3C76.7-7.6,76.6-7.9,76.6-8.2z
				 M80.8-7.8C80.9-7.9,80.9-8,81-8.1s0.1-0.2,0.1-0.3v-0.9c-0.3-0.1-0.6-0.2-0.8-0.2s-0.6-0.1-0.9-0.1c-0.6,0-1.1,0.1-1.4,0.3
				c-0.4,0.2-0.5,0.5-0.5,0.9c0,0.2,0.1,0.4,0.2,0.6c0.1,0.2,0.3,0.4,0.5,0.5c0.2,0.1,0.5,0.2,0.8,0.2c0.4,0,0.8-0.1,1.1-0.2
				C80.3-7.3,80.6-7.5,80.8-7.8z"/>
			<path class="st1" d="M92.3-8.8c0,0.5-0.1,0.9-0.4,1.3c-0.3,0.4-0.6,0.7-1.1,0.9c-0.5,0.2-0.9,0.3-1.5,0.3c-0.6,0-1.1-0.1-1.5-0.3
				c-0.4-0.2-0.8-0.5-1-0.9c-0.3-0.4-0.4-0.8-0.4-1.3c0-0.4,0.1-0.7,0.3-1c0.2-0.3,0.4-0.5,0.6-0.7s0.5-0.3,0.8-0.4
				c-0.2-0.1-0.5-0.2-0.7-0.4c-0.2-0.2-0.4-0.4-0.5-0.6c-0.1-0.2-0.2-0.5-0.2-0.8c0-0.4,0.1-0.7,0.2-0.9c0.2-0.3,0.4-0.5,0.6-0.7
				c0.3-0.2,0.5-0.3,0.9-0.4c0.3-0.1,0.6-0.1,1-0.1c0.3,0,0.6,0,0.9,0.1c0.3,0.1,0.6,0.2,0.9,0.4s0.5,0.4,0.6,0.7
				c0.2,0.3,0.2,0.6,0.2,0.9c0,0.3-0.1,0.5-0.2,0.8c-0.1,0.2-0.3,0.4-0.5,0.6s-0.5,0.3-0.7,0.4c0.3,0.1,0.6,0.3,0.9,0.5
				c0.3,0.2,0.5,0.5,0.6,0.8S92.3-9.2,92.3-8.8z M91.5-8.9c0-0.3-0.1-0.5-0.2-0.8S91-10,90.8-10.2c-0.2-0.2-0.4-0.3-0.7-0.3
				s-0.5-0.1-0.8-0.1c-0.3,0-0.7,0.1-1,0.2c-0.3,0.1-0.6,0.4-0.8,0.6c-0.2,0.3-0.3,0.6-0.3,1c0,0.3,0.1,0.5,0.2,0.7s0.3,0.4,0.5,0.6
				c0.2,0.2,0.4,0.3,0.7,0.4c0.3,0.1,0.5,0.1,0.8,0.1c0.3,0,0.7-0.1,1-0.2c0.3-0.1,0.6-0.4,0.8-0.6S91.5-8.5,91.5-8.9z M87.5-12.8
				c0,0.3,0.1,0.6,0.3,0.8c0.2,0.2,0.4,0.4,0.7,0.5s0.6,0.2,0.8,0.2c0.3,0,0.6-0.1,0.9-0.2c0.3-0.1,0.5-0.3,0.7-0.5
				c0.2-0.2,0.3-0.5,0.3-0.8c0-0.3-0.1-0.6-0.3-0.8s-0.4-0.4-0.7-0.5c-0.3-0.1-0.6-0.2-0.9-0.2c-0.3,0-0.6,0.1-0.9,0.2
				c-0.3,0.1-0.5,0.3-0.7,0.5S87.5-13.1,87.5-12.8z"/>
			<path class="st1" d="M99.6-9.9c0,0.7-0.1,1.3-0.4,1.9s-0.6,1-1.1,1.3c-0.5,0.3-1,0.5-1.6,0.5c-0.6,0-1.1-0.2-1.5-0.5
				c-0.5-0.3-0.8-0.7-1.1-1.3c-0.3-0.5-0.4-1.2-0.4-1.9c0-0.7,0.1-1.3,0.4-1.9c0.3-0.5,0.6-1,1.1-1.3c0.5-0.3,1-0.5,1.5-0.5
				c0.6,0,1.1,0.2,1.6,0.5c0.5,0.3,0.8,0.7,1.1,1.3C99.5-11.2,99.6-10.6,99.6-9.9z M98.8-9.9c0-0.6-0.1-1-0.3-1.5
				c-0.2-0.4-0.4-0.8-0.8-1s-0.7-0.4-1.1-0.4s-0.8,0.1-1.1,0.4c-0.3,0.2-0.6,0.6-0.8,1c-0.2,0.4-0.3,0.9-0.3,1.5
				c0,0.6,0.1,1,0.3,1.5c0.2,0.4,0.4,0.8,0.8,1c0.3,0.2,0.7,0.4,1.1,0.4s0.8-0.1,1.1-0.4c0.3-0.2,0.6-0.6,0.8-1
				C98.7-8.9,98.8-9.3,98.8-9.9z"/>
		</g>
	</g>
	<g>
		<g>
			<path class="st1" d="M-503.9-6.4v-6.9L-507-8h-0.5l-3.1-5.4v6.9h-0.8V-15h0.9l3.3,5.8l3.3-5.8h0.9v8.5H-503.9z"/>
			<path class="st1" d="M-498.5-6.3c-0.5,0-0.9-0.1-1.3-0.3s-0.7-0.4-1-0.7c-0.3-0.3-0.5-0.6-0.6-1c-0.2-0.4-0.2-0.8-0.2-1.2
				c0-0.4,0.1-0.9,0.2-1.2c0.2-0.4,0.4-0.7,0.6-1c0.3-0.3,0.6-0.5,1-0.7s0.8-0.3,1.2-0.3c0.4,0,0.9,0.1,1.2,0.3s0.7,0.4,1,0.7
				c0.3,0.3,0.5,0.6,0.6,1c0.2,0.4,0.2,0.8,0.2,1.2c0,0.4-0.1,0.8-0.2,1.2c-0.2,0.4-0.4,0.7-0.6,1c-0.3,0.3-0.6,0.5-1,0.7
				S-498-6.3-498.5-6.3z M-500.7-9.5c0,0.5,0.1,0.9,0.3,1.3c0.2,0.4,0.5,0.7,0.8,0.9c0.3,0.2,0.7,0.3,1.1,0.3s0.8-0.1,1.1-0.3
				c0.3-0.2,0.6-0.5,0.8-0.9c0.2-0.4,0.3-0.8,0.3-1.3c0-0.5-0.1-0.9-0.3-1.3c-0.2-0.4-0.5-0.7-0.8-0.9c-0.3-0.2-0.7-0.3-1.1-0.3
				s-0.8,0.1-1.1,0.3c-0.3,0.2-0.6,0.5-0.8,0.9C-500.6-10.4-500.7-10-500.7-9.5z"/>
			<path class="st1" d="M-494-6.4v-6.2h0.8v2.7h3.6v-2.7h0.8v6.2h-0.8v-2.8h-3.6v2.8H-494z"/>
			<path class="st1" d="M-485.4-6.4v-5.5h-2.2v-0.7h5.3v0.7h-2.2v5.5H-485.4z"/>
			<path class="st1" d="M-481.8-8.2c0-0.4,0.1-0.7,0.3-1c0.2-0.3,0.5-0.5,0.9-0.7c0.4-0.2,0.9-0.2,1.4-0.2c0.3,0,0.6,0,0.9,0.1
				c0.3,0,0.6,0.1,0.9,0.2v-0.5c0-0.5-0.2-0.9-0.5-1.3c-0.3-0.3-0.7-0.5-1.3-0.5c-0.3,0-0.7,0.1-1,0.2c-0.3,0.1-0.7,0.3-1,0.5
				l-0.3-0.6c0.4-0.3,0.8-0.5,1.2-0.6c0.4-0.1,0.8-0.2,1.2-0.2c0.8,0,1.4,0.2,1.8,0.7c0.4,0.4,0.7,1,0.7,1.8v2.9
				c0,0.1,0,0.2,0.1,0.2s0.1,0.1,0.2,0.1v0.6c-0.1,0-0.2,0-0.2,0c-0.1,0-0.1,0-0.1,0c-0.2,0-0.4-0.1-0.5-0.2
				c-0.1-0.1-0.2-0.2-0.2-0.4l0-0.5c-0.3,0.4-0.6,0.6-1.1,0.8c-0.4,0.2-0.9,0.3-1.4,0.3c-0.4,0-0.8-0.1-1.1-0.3s-0.6-0.4-0.8-0.7
				C-481.7-7.6-481.8-7.9-481.8-8.2z M-477.6-7.8c0.1-0.1,0.2-0.2,0.2-0.3s0.1-0.2,0.1-0.3v-0.9c-0.3-0.1-0.6-0.2-0.8-0.2
				s-0.6-0.1-0.9-0.1c-0.6,0-1.1,0.1-1.4,0.3c-0.4,0.2-0.5,0.5-0.5,0.9c0,0.2,0.1,0.4,0.2,0.6c0.1,0.2,0.3,0.4,0.5,0.5
				c0.2,0.1,0.5,0.2,0.8,0.2c0.4,0,0.8-0.1,1.1-0.2C-478-7.3-477.8-7.5-477.6-7.8z"/>
			<path class="st1" d="M-475.2-6.4l2.3-3.2l-2.1-3h0.9l1.9,2.7h0.8v-2.7h0.8v2.7h0.8l1.8-2.7h0.9l-2.1,3l2.4,3.2h-0.9l-2.1-2.8
				h-0.8v2.8h-0.8v-2.8h-0.8l-2.1,2.8H-475.2z"/>
			<path class="st1" d="M-465.3-6.4v-6.2h0.8v2.7h0.9l2.1-2.7h0.9l-2.4,3l2.7,3.2h-1l-2.4-2.8h-0.9v2.8H-465.3z"/>
			<path class="st1" d="M-459.5-8.2c0-0.4,0.1-0.7,0.3-1c0.2-0.3,0.5-0.5,0.9-0.7c0.4-0.2,0.9-0.2,1.4-0.2c0.3,0,0.6,0,0.9,0.1
				c0.3,0,0.6,0.1,0.9,0.2v-0.5c0-0.5-0.2-0.9-0.5-1.3c-0.3-0.3-0.7-0.5-1.3-0.5c-0.3,0-0.7,0.1-1,0.2c-0.3,0.1-0.7,0.3-1,0.5
				l-0.3-0.6c0.4-0.3,0.8-0.5,1.2-0.6c0.4-0.1,0.8-0.2,1.2-0.2c0.8,0,1.4,0.2,1.8,0.7c0.4,0.4,0.7,1,0.7,1.8v2.9
				c0,0.1,0,0.2,0.1,0.2s0.1,0.1,0.2,0.1v0.6c-0.1,0-0.2,0-0.2,0c-0.1,0-0.1,0-0.1,0c-0.2,0-0.4-0.1-0.5-0.2
				c-0.1-0.1-0.2-0.2-0.2-0.4l0-0.5c-0.3,0.4-0.6,0.6-1.1,0.8c-0.4,0.2-0.9,0.3-1.4,0.3c-0.4,0-0.8-0.1-1.1-0.3s-0.6-0.4-0.8-0.7
				C-459.4-7.6-459.5-7.9-459.5-8.2z M-455.3-7.8c0.1-0.1,0.2-0.2,0.2-0.3s0.1-0.2,0.1-0.3v-0.9c-0.3-0.1-0.6-0.2-0.8-0.2
				s-0.6-0.1-0.9-0.1c-0.6,0-1.1,0.1-1.4,0.3c-0.4,0.2-0.5,0.5-0.5,0.9c0,0.2,0.1,0.4,0.2,0.6c0.1,0.2,0.3,0.4,0.5,0.5
				c0.2,0.1,0.5,0.2,0.8,0.2c0.4,0,0.8-0.1,1.1-0.2C-455.8-7.3-455.5-7.5-455.3-7.8z"/>
			<path class="st1" d="M-447.2-4.7c-0.6,0-1.1-0.1-1.6-0.5c-0.5-0.3-0.9-0.7-1.1-1.2l0.5-0.4c0.2,0.4,0.5,0.7,0.9,0.9
				c0.4,0.2,0.8,0.4,1.3,0.4c0.4,0,0.8-0.1,1.1-0.3c0.3-0.2,0.6-0.4,0.8-0.7c0.2-0.3,0.3-0.7,0.3-1.1c0-0.4-0.1-0.7-0.3-1
				c-0.2-0.3-0.4-0.5-0.7-0.7c-0.3-0.2-0.7-0.3-1-0.3c-0.4,0-0.7,0.1-1.1,0.2c-0.3,0.2-0.6,0.4-0.8,0.7h-0.8l0.9-4.8h4.1v0.8h-3.5
				l-0.6,3.1c0.2-0.2,0.5-0.4,0.8-0.5s0.6-0.2,1-0.2c0.5,0,1,0.1,1.4,0.3s0.8,0.6,1,1c0.2,0.4,0.4,0.9,0.4,1.4
				c0,0.6-0.1,1.1-0.4,1.5c-0.3,0.4-0.6,0.8-1.1,1C-446.1-4.8-446.6-4.7-447.2-4.7z"/>
			<path class="st1" d="M-437.1-9.9c0,0.7-0.1,1.3-0.4,1.9s-0.6,1-1.1,1.3c-0.5,0.3-1,0.5-1.6,0.5c-0.6,0-1.1-0.2-1.5-0.5
				c-0.5-0.3-0.8-0.7-1.1-1.3c-0.3-0.5-0.4-1.2-0.4-1.9c0-0.7,0.1-1.3,0.4-1.9c0.3-0.5,0.6-1,1.1-1.3c0.5-0.3,1-0.5,1.5-0.5
				c0.6,0,1.1,0.2,1.6,0.5c0.5,0.3,0.8,0.7,1.1,1.3C-437.2-11.2-437.1-10.6-437.1-9.9z M-437.9-9.9c0-0.6-0.1-1-0.3-1.5
				c-0.2-0.4-0.4-0.8-0.8-1s-0.7-0.4-1.1-0.4s-0.8,0.1-1.1,0.4c-0.3,0.2-0.6,0.6-0.8,1c-0.2,0.4-0.3,0.9-0.3,1.5
				c0,0.6,0.1,1,0.3,1.5c0.2,0.4,0.4,0.8,0.8,1c0.3,0.2,0.7,0.4,1.1,0.4s0.8-0.1,1.1-0.4c0.3-0.2,0.6-0.6,0.8-1
				C-438-8.9-437.9-9.3-437.9-9.9z"/>
			<path class="st1" d="M-432.5-6.4v-6.2h0.8v2.7h3.6v-2.7h0.8v6.2h-0.8v-2.8h-3.6v2.8H-432.5z"/>
			<path class="st1" d="M-426-8.2c0-0.4,0.1-0.7,0.3-1c0.2-0.3,0.5-0.5,0.9-0.7c0.4-0.2,0.9-0.2,1.4-0.2c0.3,0,0.6,0,0.9,0.1
				c0.3,0,0.6,0.1,0.9,0.2v-0.5c0-0.5-0.2-0.9-0.5-1.3c-0.3-0.3-0.7-0.5-1.3-0.5c-0.3,0-0.7,0.1-1,0.2c-0.3,0.1-0.7,0.3-1,0.5
				l-0.3-0.6c0.4-0.3,0.8-0.5,1.2-0.6c0.4-0.1,0.8-0.2,1.2-0.2c0.8,0,1.4,0.2,1.8,0.7c0.4,0.4,0.7,1,0.7,1.8v2.9
				c0,0.1,0,0.2,0.1,0.2s0.1,0.1,0.2,0.1v0.6c-0.1,0-0.2,0-0.2,0c-0.1,0-0.1,0-0.1,0c-0.2,0-0.4-0.1-0.5-0.2
				c-0.1-0.1-0.2-0.2-0.2-0.4l0-0.5c-0.3,0.4-0.6,0.6-1.1,0.8c-0.4,0.2-0.9,0.3-1.4,0.3c-0.4,0-0.8-0.1-1.1-0.3s-0.6-0.4-0.8-0.7
				C-425.9-7.6-426-7.9-426-8.2z M-421.8-7.8c0.1-0.1,0.2-0.2,0.2-0.3s0.1-0.2,0.1-0.3v-0.9c-0.3-0.1-0.6-0.2-0.8-0.2
				s-0.6-0.1-0.9-0.1c-0.6,0-1.1,0.1-1.4,0.3c-0.4,0.2-0.5,0.5-0.5,0.9c0,0.2,0.1,0.4,0.2,0.6c0.1,0.2,0.3,0.4,0.5,0.5
				c0.2,0.1,0.5,0.2,0.8,0.2c0.4,0,0.8-0.1,1.1-0.2C-422.2-7.3-422-7.5-421.8-7.8z"/>
			<path class="st1" d="M-413.6-4.7c-0.6,0-1.1-0.1-1.6-0.5c-0.5-0.3-0.9-0.7-1.1-1.2l0.5-0.4c0.2,0.4,0.5,0.7,0.9,0.9
				c0.4,0.2,0.8,0.4,1.3,0.4c0.4,0,0.8-0.1,1.1-0.3c0.3-0.2,0.6-0.4,0.8-0.7c0.2-0.3,0.3-0.7,0.3-1.1c0-0.4-0.1-0.7-0.3-1
				c-0.2-0.3-0.4-0.5-0.7-0.7c-0.3-0.2-0.7-0.3-1-0.3c-0.4,0-0.7,0.1-1.1,0.2c-0.3,0.2-0.6,0.4-0.8,0.7h-0.8l0.9-4.8h4.1v0.8h-3.5
				l-0.6,3.1c0.2-0.2,0.5-0.4,0.8-0.5s0.6-0.2,1-0.2c0.5,0,1,0.1,1.4,0.3s0.8,0.6,1,1c0.2,0.4,0.4,0.9,0.4,1.4
				c0,0.6-0.1,1.1-0.4,1.5c-0.3,0.4-0.6,0.8-1.1,1C-412.6-4.8-413.1-4.7-413.6-4.7z"/>
			<path class="st1" d="M-403.6-9.9c0,0.7-0.1,1.3-0.4,1.9s-0.6,1-1.1,1.3c-0.5,0.3-1,0.5-1.6,0.5c-0.6,0-1.1-0.2-1.5-0.5
				c-0.5-0.3-0.8-0.7-1.1-1.3c-0.3-0.5-0.4-1.2-0.4-1.9c0-0.7,0.1-1.3,0.4-1.9c0.3-0.5,0.6-1,1.1-1.3c0.5-0.3,1-0.5,1.5-0.5
				c0.6,0,1.1,0.2,1.6,0.5c0.5,0.3,0.8,0.7,1.1,1.3C-403.7-11.2-403.6-10.6-403.6-9.9z M-404.4-9.9c0-0.6-0.1-1-0.3-1.5
				c-0.2-0.4-0.4-0.8-0.8-1s-0.7-0.4-1.1-0.4s-0.8,0.1-1.1,0.4c-0.3,0.2-0.6,0.6-0.8,1c-0.2,0.4-0.3,0.9-0.3,1.5
				c0,0.6,0.1,1,0.3,1.5c0.2,0.4,0.4,0.8,0.8,1c0.3,0.2,0.7,0.4,1.1,0.4s0.8-0.1,1.1-0.4c0.3-0.2,0.6-0.6,0.8-1
				C-404.5-8.9-404.4-9.3-404.4-9.9z"/>
		</g>
	</g>
	<g>
		<g>
			<path class="st1" d="M-499-195.4v-8.5h0.8v7.4l5.3-7.4h0.8v8.5h-0.8v-7.2l-5.2,7.2H-499z"/>
			<path class="st1" d="M-490.1-195.4v-6.2h0.8v2.7h0.9l2.1-2.7h0.9l-2.4,3l2.7,3.2h-1l-2.4-2.8h-0.9v2.8H-490.1z"/>
			<path class="st1" d="M-481.2-195.3c-0.5,0-0.9-0.1-1.3-0.3s-0.7-0.4-1-0.7c-0.3-0.3-0.5-0.6-0.6-1c-0.2-0.4-0.2-0.8-0.2-1.2
				c0-0.4,0.1-0.9,0.2-1.2c0.2-0.4,0.4-0.7,0.6-1c0.3-0.3,0.6-0.5,1-0.7s0.8-0.3,1.2-0.3c0.4,0,0.9,0.1,1.2,0.3s0.7,0.4,1,0.7
				c0.3,0.3,0.5,0.6,0.6,1c0.2,0.4,0.2,0.8,0.2,1.2c0,0.4-0.1,0.8-0.2,1.2c-0.2,0.4-0.4,0.7-0.6,1c-0.3,0.3-0.6,0.5-1,0.7
				S-480.8-195.3-481.2-195.3z M-483.5-198.5c0,0.5,0.1,0.9,0.3,1.3c0.2,0.4,0.5,0.7,0.8,0.9c0.3,0.2,0.7,0.3,1.1,0.3
				s0.8-0.1,1.1-0.3c0.3-0.2,0.6-0.5,0.8-0.9c0.2-0.4,0.3-0.8,0.3-1.3c0-0.5-0.1-0.9-0.3-1.3c-0.2-0.4-0.5-0.7-0.8-0.9
				c-0.3-0.2-0.7-0.3-1.1-0.3s-0.8,0.1-1.1,0.3c-0.3,0.2-0.6,0.5-0.8,0.9C-483.4-199.4-483.5-199-483.5-198.5z"/>
			<path class="st1" d="M-476.8-195.4v-6.2h0.8v2.7h3.6v-2.7h0.8v6.2h-0.8v-2.8h-3.6v2.8H-476.8z"/>
			<path class="st1" d="M-469.8-195.4v-6.2h0.8v2.7h0.9l2.1-2.7h0.9l-2.4,3l2.7,3.2h-1l-2.4-2.8h-0.9v2.8H-469.8z"/>
			<path class="st1" d="M-463.5-195.4v-6.2h0.8v5.1l3.8-5.1h0.7v6.2h-0.8v-5l-3.7,5H-463.5z"/>
			<path class="st1" d="M-454-194v-2.2h0.1c0.2,0,0.4-0.1,0.5-0.2c0.2-0.1,0.3-0.3,0.4-0.6s0.2-0.7,0.3-1.2s0.1-1.1,0.2-1.9l0.1-1.7
				h4.1v5.5h0.8v2.2h-0.7v-1.5h-5v1.5H-454z M-452.7-196.2h3.4v-4.8h-2.5l0,1.1c0,0.7-0.1,1.4-0.2,1.9c-0.1,0.5-0.2,0.9-0.3,1.2
				C-452.4-196.5-452.5-196.3-452.7-196.2z"/>
			<path class="st1" d="M-447-195.4v-0.7c0.2,0,0.4-0.1,0.6-0.2s0.3-0.3,0.5-0.6s0.2-0.7,0.3-1.1s0.1-1.1,0.2-1.9l0.1-1.7h4.1v6.2
				h-0.8v-5.5h-2.5l0,1.1c0,0.9-0.1,1.6-0.2,2.1c-0.1,0.6-0.2,1-0.4,1.4s-0.4,0.6-0.7,0.7C-446.3-195.5-446.6-195.4-447-195.4z"/>
			<path class="st1" d="M-440-195.4l1.9-2.5c-0.4-0.1-0.8-0.2-1-0.6c-0.3-0.3-0.4-0.7-0.4-1.3c0-0.4,0.1-0.7,0.3-1
				c0.2-0.3,0.4-0.5,0.7-0.7c0.3-0.2,0.7-0.3,1.1-0.3h2.4v6.2h-0.8v-2.4h-1.4l-1.8,2.4H-440z M-437.5-198.5h1.6v-2.5h-1.4
				c-0.4,0-0.7,0.1-1,0.4c-0.2,0.2-0.4,0.5-0.4,0.9c0,0.4,0.1,0.7,0.3,0.9C-438.2-198.6-437.9-198.5-437.5-198.5z"/>
			<path class="st1" d="M-430.3-195.4v-6.2h0.8v2.7h0.9l2.1-2.7h0.9l-2.4,3l2.7,3.2h-1l-2.4-2.8h-0.9v2.8H-430.3z"/>
			<path class="st1" d="M-424.5-197.2c0-0.4,0.1-0.7,0.3-1c0.2-0.3,0.5-0.5,0.9-0.7c0.4-0.2,0.9-0.2,1.4-0.2c0.3,0,0.6,0,0.9,0.1
				c0.3,0,0.6,0.1,0.9,0.2v-0.5c0-0.5-0.2-0.9-0.5-1.3c-0.3-0.3-0.7-0.5-1.3-0.5c-0.3,0-0.7,0.1-1,0.2c-0.3,0.1-0.7,0.3-1,0.5
				l-0.3-0.6c0.4-0.3,0.8-0.5,1.2-0.6c0.4-0.1,0.8-0.2,1.2-0.2c0.8,0,1.4,0.2,1.8,0.7c0.4,0.4,0.7,1,0.7,1.8v2.9
				c0,0.1,0,0.2,0.1,0.2s0.1,0.1,0.2,0.1v0.6c-0.1,0-0.2,0-0.2,0c-0.1,0-0.1,0-0.1,0c-0.2,0-0.4-0.1-0.5-0.2
				c-0.1-0.1-0.2-0.2-0.2-0.4l0-0.5c-0.3,0.4-0.6,0.6-1.1,0.8c-0.4,0.2-0.9,0.3-1.4,0.3c-0.4,0-0.8-0.1-1.1-0.3s-0.6-0.4-0.8-0.7
				C-424.4-196.6-424.5-196.9-424.5-197.2z M-420.3-196.8c0.1-0.1,0.2-0.2,0.2-0.3s0.1-0.2,0.1-0.3v-0.9c-0.3-0.1-0.6-0.2-0.8-0.2
				s-0.6-0.1-0.9-0.1c-0.6,0-1.1,0.1-1.4,0.3c-0.4,0.2-0.5,0.5-0.5,0.9c0,0.2,0.1,0.4,0.2,0.6c0.1,0.2,0.3,0.4,0.5,0.5
				c0.2,0.1,0.5,0.2,0.8,0.2c0.4,0,0.8-0.1,1.1-0.2C-420.8-196.3-420.5-196.5-420.3-196.8z"/>
			<path class="st1" d="M-414.3-195.3c-0.5,0-1-0.1-1.4-0.4c-0.4-0.3-0.7-0.6-1-1v3.8h-0.8v-8.8h0.7v1.2c0.2-0.4,0.6-0.7,1-0.9
				s0.9-0.4,1.3-0.4c0.4,0,0.8,0.1,1.2,0.3c0.4,0.2,0.7,0.4,0.9,0.7s0.5,0.6,0.6,1c0.1,0.4,0.2,0.8,0.2,1.2c0,0.6-0.1,1.1-0.4,1.6
				c-0.2,0.5-0.6,0.9-1,1.2C-413.2-195.5-413.7-195.3-414.3-195.3z M-414.5-196c0.3,0,0.7-0.1,0.9-0.2c0.3-0.1,0.5-0.3,0.7-0.6
				c0.2-0.2,0.3-0.5,0.5-0.8c0.1-0.3,0.2-0.6,0.2-0.9c0-0.3-0.1-0.7-0.2-1s-0.3-0.6-0.5-0.8c-0.2-0.2-0.5-0.4-0.7-0.5
				c-0.3-0.1-0.6-0.2-0.9-0.2c-0.2,0-0.4,0-0.6,0.1c-0.2,0.1-0.4,0.2-0.6,0.3c-0.2,0.1-0.4,0.3-0.5,0.5s-0.2,0.4-0.3,0.6v1.9
				c0.1,0.3,0.3,0.6,0.5,0.8c0.2,0.2,0.5,0.4,0.8,0.6C-415.1-196.1-414.8-196-414.5-196z"/>
			<path class="st1" d="M-408.5-195.4v-5.5h-2.2v-0.7h5.3v0.7h-2.2v5.5H-408.5z"/>
			<path class="st1" d="M-401.7-195.3c-0.5,0-0.9-0.1-1.3-0.3s-0.7-0.4-1-0.7c-0.3-0.3-0.5-0.6-0.6-1c-0.2-0.4-0.2-0.8-0.2-1.2
				c0-0.4,0.1-0.9,0.2-1.2c0.2-0.4,0.4-0.7,0.6-1s0.6-0.5,1-0.7s0.8-0.3,1.2-0.3s0.9,0.1,1.2,0.3s0.7,0.4,1,0.7s0.5,0.6,0.6,1
				c0.2,0.4,0.2,0.8,0.2,1.2c0,0.4-0.1,0.8-0.2,1.2c-0.2,0.4-0.4,0.7-0.6,1c-0.3,0.3-0.6,0.5-1,0.7
				C-400.8-195.4-401.2-195.3-401.7-195.3z M-404-198.5c0,0.5,0.1,0.9,0.3,1.3c0.2,0.4,0.5,0.7,0.8,0.9c0.3,0.2,0.7,0.3,1.1,0.3
				c0.4,0,0.8-0.1,1.1-0.3s0.6-0.5,0.8-0.9c0.2-0.4,0.3-0.8,0.3-1.3c0-0.5-0.1-0.9-0.3-1.3s-0.5-0.7-0.8-0.9
				c-0.3-0.2-0.7-0.3-1.1-0.3c-0.4,0-0.8,0.1-1.1,0.3c-0.3,0.2-0.6,0.5-0.8,0.9C-403.9-199.4-404-199-404-198.5z"/>
			<path class="st1" d="M-393.6-195.4v-2.6c-0.3,0.1-0.5,0.2-0.8,0.3s-0.6,0.1-0.9,0.1c-0.7,0-1.2-0.2-1.6-0.5
				c-0.3-0.4-0.5-0.9-0.5-1.6v-1.8h0.8v1.7c0,0.6,0.1,1,0.3,1.2c0.2,0.3,0.6,0.4,1.1,0.4c0.3,0,0.6,0,0.8-0.1
				c0.3-0.1,0.5-0.1,0.7-0.3v-3h0.8v6.2H-393.6z"/>
			<path class="st1" d="M-388.3-195.3c-0.4,0-0.9-0.1-1.2-0.3c-0.4-0.2-0.7-0.4-1-0.7c-0.3-0.3-0.5-0.6-0.7-1s-0.2-0.8-0.2-1.3
				c0-0.6,0.1-1.1,0.4-1.6c0.3-0.5,0.6-0.9,1.1-1.2c0.5-0.3,1-0.4,1.6-0.4c0.6,0,1.2,0.1,1.6,0.4s0.8,0.7,1.1,1.2
				c0.3,0.5,0.4,1,0.4,1.6c0,0.1,0,0.1,0,0.2s0,0.1,0,0.1h-5.4c0,0.4,0.2,0.8,0.4,1.2s0.5,0.6,0.8,0.8c0.3,0.2,0.7,0.3,1.1,0.3
				c0.4,0,0.8-0.1,1.2-0.3s0.6-0.5,0.8-0.8l0.7,0.2c-0.1,0.3-0.3,0.6-0.6,0.8c-0.3,0.2-0.6,0.4-0.9,0.6
				C-387.5-195.4-387.9-195.3-388.3-195.3z M-390.6-198.9h4.6c0-0.5-0.2-0.8-0.4-1.2c-0.2-0.3-0.5-0.6-0.8-0.8s-0.7-0.3-1.1-0.3
				c-0.4,0-0.8,0.1-1.1,0.3s-0.6,0.5-0.8,0.8C-390.5-199.7-390.6-199.3-390.6-198.9z"/>
			<path class="st1" d="M-384-195.4v-6.2h0.8v2.7h0.9l2.1-2.7h0.9l-2.4,3l2.7,3.2h-1l-2.4-2.8h-0.9v2.8H-384z"/>
			<path class="st1" d="M-374-192.9c-0.1,0-0.3,0-0.4-0.1c-0.1,0-0.3-0.1-0.4-0.2l0.3-0.6c0.1,0,0.2,0.1,0.2,0.1c0.1,0,0.2,0,0.2,0
				c0.2,0,0.4-0.1,0.6-0.3c0.2-0.2,0.4-0.5,0.5-0.9l0.3-0.8l-2.8-6.1h0.9l2.3,5.4l2.1-5.4h0.8l-3,7.2c-0.2,0.4-0.3,0.7-0.5,0.9
				c-0.2,0.2-0.4,0.4-0.6,0.5C-373.6-192.9-373.8-192.9-374-192.9z"/>
			<path class="st1" d="M-365.5-195.3c-0.5,0-0.9-0.1-1.3-0.3c-0.4-0.2-0.7-0.4-1-0.7c-0.3-0.3-0.5-0.6-0.7-1s-0.2-0.8-0.2-1.2
				c0-0.6,0.1-1.1,0.4-1.6c0.3-0.5,0.6-0.9,1.1-1.2c0.5-0.3,1-0.4,1.6-0.4c0.6,0,1.1,0.1,1.5,0.4c0.4,0.3,0.8,0.6,1,1.1l-0.8,0.3
				c-0.2-0.3-0.4-0.6-0.7-0.8c-0.3-0.2-0.7-0.3-1-0.3c-0.4,0-0.8,0.1-1.1,0.3s-0.6,0.5-0.8,0.9c-0.2,0.4-0.3,0.8-0.3,1.3
				c0,0.5,0.1,0.9,0.3,1.3c0.2,0.4,0.5,0.7,0.8,0.9c0.3,0.2,0.7,0.3,1.1,0.3c0.3,0,0.5,0,0.8-0.1c0.3-0.1,0.5-0.2,0.7-0.4
				c0.2-0.2,0.3-0.3,0.4-0.5l0.8,0.2c-0.1,0.3-0.3,0.6-0.6,0.8c-0.3,0.2-0.6,0.4-0.9,0.6C-364.7-195.4-365.1-195.3-365.5-195.3z"/>
			<path class="st1" d="M-362.2-195.4v-0.7c0.2,0,0.4-0.1,0.6-0.2s0.3-0.3,0.5-0.6s0.2-0.7,0.3-1.1s0.1-1.1,0.2-1.9l0.1-1.7h4.1v6.2
				h-0.8v-5.5h-2.5l0,1.1c0,0.9-0.1,1.6-0.2,2.1c-0.1,0.6-0.2,1-0.4,1.4c-0.2,0.3-0.4,0.6-0.7,0.7
				C-361.5-195.5-361.8-195.4-362.2-195.4z"/>
			<path class="st1" d="M-354.1-192.9c-0.1,0-0.3,0-0.4-0.1c-0.1,0-0.3-0.1-0.4-0.2l0.3-0.6c0.1,0,0.2,0.1,0.2,0.1
				c0.1,0,0.2,0,0.2,0c0.2,0,0.4-0.1,0.6-0.3c0.2-0.2,0.4-0.5,0.5-0.9l0.3-0.8l-2.8-6.1h0.9l2.3,5.4l2.1-5.4h0.8l-3,7.2
				c-0.2,0.4-0.3,0.7-0.5,0.9c-0.2,0.2-0.4,0.4-0.6,0.5C-353.6-192.9-353.9-192.9-354.1-192.9z"/>
			<path class="st1" d="M-348.3-195.4v-6.2h3.7v0.7h-2.9v5.5H-348.3z"/>
		</g>
	</g>
	<g>
		<g>
			<path class="st1" d="M-505-279.4v-8.5h0.8v7.4l5.3-7.4h0.8v8.5h-0.8v-7.2l-5.2,7.2H-505z"/>
			<path class="st1" d="M-496.1-279.4v-6.2h0.8v2.7h0.9l2.1-2.7h0.9l-2.4,3l2.7,3.2h-1l-2.4-2.8h-0.9v2.8H-496.1z"/>
			<path class="st1" d="M-487.2-279.3c-0.5,0-0.9-0.1-1.3-0.3s-0.7-0.4-1-0.7c-0.3-0.3-0.5-0.6-0.6-1c-0.2-0.4-0.2-0.8-0.2-1.2
				c0-0.4,0.1-0.9,0.2-1.2c0.2-0.4,0.4-0.7,0.6-1c0.3-0.3,0.6-0.5,1-0.7s0.8-0.3,1.2-0.3c0.4,0,0.9,0.1,1.2,0.3s0.7,0.4,1,0.7
				c0.3,0.3,0.5,0.6,0.6,1c0.2,0.4,0.2,0.8,0.2,1.2c0,0.4-0.1,0.8-0.2,1.2c-0.2,0.4-0.4,0.7-0.6,1c-0.3,0.3-0.6,0.5-1,0.7
				S-486.8-279.3-487.2-279.3z M-489.5-282.5c0,0.5,0.1,0.9,0.3,1.3c0.2,0.4,0.5,0.7,0.8,0.9c0.3,0.2,0.7,0.3,1.1,0.3
				s0.8-0.1,1.1-0.3c0.3-0.2,0.6-0.5,0.8-0.9c0.2-0.4,0.3-0.8,0.3-1.3c0-0.5-0.1-0.9-0.3-1.3c-0.2-0.4-0.5-0.7-0.8-0.9
				c-0.3-0.2-0.7-0.3-1.1-0.3s-0.8,0.1-1.1,0.3c-0.3,0.2-0.6,0.5-0.8,0.9C-489.4-283.4-489.5-283-489.5-282.5z"/>
			<path class="st1" d="M-482.8-279.4v-6.2h0.8v2.7h3.6v-2.7h0.8v6.2h-0.8v-2.8h-3.6v2.8H-482.8z"/>
			<path class="st1" d="M-475.8-279.4v-6.2h0.8v2.7h0.9l2.1-2.7h0.9l-2.4,3l2.7,3.2h-1l-2.4-2.8h-0.9v2.8H-475.8z"/>
			<path class="st1" d="M-469.5-279.4v-6.2h0.8v5.1l3.8-5.1h0.7v6.2h-0.8v-5l-3.7,5H-469.5z"/>
			<path class="st1" d="M-460-278v-2.2h0.1c0.2,0,0.4-0.1,0.5-0.2c0.2-0.1,0.3-0.3,0.4-0.6s0.2-0.7,0.3-1.2s0.1-1.1,0.2-1.9l0.1-1.7
				h4.1v5.5h0.8v2.2h-0.7v-1.5h-5v1.5H-460z M-458.7-280.2h3.4v-4.8h-2.5l0,1.1c0,0.7-0.1,1.4-0.2,1.9c-0.1,0.5-0.2,0.9-0.3,1.2
				C-458.4-280.5-458.5-280.3-458.7-280.2z"/>
			<path class="st1" d="M-453-279.4v-0.7c0.2,0,0.4-0.1,0.6-0.2s0.3-0.3,0.5-0.6s0.2-0.7,0.3-1.1s0.1-1.1,0.2-1.9l0.1-1.7h4.1v6.2
				h-0.8v-5.5h-2.5l0,1.1c0,0.9-0.1,1.6-0.2,2.1c-0.1,0.6-0.2,1-0.4,1.4s-0.4,0.6-0.7,0.7C-452.3-279.5-452.6-279.4-453-279.4z"/>
			<path class="st1" d="M-446-279.4l1.9-2.5c-0.4-0.1-0.8-0.2-1-0.6c-0.3-0.3-0.4-0.7-0.4-1.3c0-0.4,0.1-0.7,0.3-1
				c0.2-0.3,0.4-0.5,0.7-0.7c0.3-0.2,0.7-0.3,1.1-0.3h2.4v6.2h-0.8v-2.4h-1.4l-1.8,2.4H-446z M-443.5-282.5h1.6v-2.5h-1.4
				c-0.4,0-0.7,0.1-1,0.4c-0.2,0.2-0.4,0.5-0.4,0.9c0,0.4,0.1,0.7,0.3,0.9C-444.2-282.6-443.9-282.5-443.5-282.5z"/>
			<path class="st1" d="M-436.3-279.4v-6.2h0.8v2.7h0.9l2.1-2.7h0.9l-2.4,3l2.7,3.2h-1l-2.4-2.8h-0.9v2.8H-436.3z"/>
			<path class="st1" d="M-430.5-281.2c0-0.4,0.1-0.7,0.3-1c0.2-0.3,0.5-0.5,0.9-0.7c0.4-0.2,0.9-0.2,1.4-0.2c0.3,0,0.6,0,0.9,0.1
				c0.3,0,0.6,0.1,0.9,0.2v-0.5c0-0.5-0.2-0.9-0.5-1.3c-0.3-0.3-0.7-0.5-1.3-0.5c-0.3,0-0.7,0.1-1,0.2c-0.3,0.1-0.7,0.3-1,0.5
				l-0.3-0.6c0.4-0.3,0.8-0.5,1.2-0.6c0.4-0.1,0.8-0.2,1.2-0.2c0.8,0,1.4,0.2,1.8,0.7c0.4,0.4,0.7,1,0.7,1.8v2.9
				c0,0.1,0,0.2,0.1,0.2s0.1,0.1,0.2,0.1v0.6c-0.1,0-0.2,0-0.2,0c-0.1,0-0.1,0-0.1,0c-0.2,0-0.4-0.1-0.5-0.2
				c-0.1-0.1-0.2-0.2-0.2-0.4l0-0.5c-0.3,0.4-0.6,0.6-1.1,0.8c-0.4,0.2-0.9,0.3-1.4,0.3c-0.4,0-0.8-0.1-1.1-0.3s-0.6-0.4-0.8-0.7
				C-430.4-280.6-430.5-280.9-430.5-281.2z M-426.3-280.8c0.1-0.1,0.2-0.2,0.2-0.3s0.1-0.2,0.1-0.3v-0.9c-0.3-0.1-0.6-0.2-0.8-0.2
				s-0.6-0.1-0.9-0.1c-0.6,0-1.1,0.1-1.4,0.3c-0.4,0.2-0.5,0.5-0.5,0.9c0,0.2,0.1,0.4,0.2,0.6c0.1,0.2,0.3,0.4,0.5,0.5
				c0.2,0.1,0.5,0.2,0.8,0.2c0.4,0,0.8-0.1,1.1-0.2C-426.8-280.3-426.5-280.5-426.3-280.8z"/>
			<path class="st1" d="M-420.3-279.3c-0.5,0-1-0.1-1.4-0.4c-0.4-0.3-0.7-0.6-1-1v3.8h-0.8v-8.8h0.7v1.2c0.2-0.4,0.6-0.7,1-0.9
				s0.9-0.4,1.3-0.4c0.4,0,0.8,0.1,1.2,0.3c0.4,0.2,0.7,0.4,0.9,0.7s0.5,0.6,0.6,1c0.1,0.4,0.2,0.8,0.2,1.2c0,0.6-0.1,1.1-0.4,1.6
				c-0.2,0.5-0.6,0.9-1,1.2C-419.2-279.5-419.7-279.3-420.3-279.3z M-420.5-280c0.3,0,0.7-0.1,0.9-0.2c0.3-0.1,0.5-0.3,0.7-0.6
				c0.2-0.2,0.3-0.5,0.5-0.8c0.1-0.3,0.2-0.6,0.2-0.9c0-0.3-0.1-0.7-0.2-1s-0.3-0.6-0.5-0.8c-0.2-0.2-0.5-0.4-0.7-0.5
				c-0.3-0.1-0.6-0.2-0.9-0.2c-0.2,0-0.4,0-0.6,0.1c-0.2,0.1-0.4,0.2-0.6,0.3c-0.2,0.1-0.4,0.3-0.5,0.5s-0.2,0.4-0.3,0.6v1.9
				c0.1,0.3,0.3,0.6,0.5,0.8c0.2,0.2,0.5,0.4,0.8,0.6C-421.1-280.1-420.8-280-420.5-280z"/>
			<path class="st1" d="M-414.5-279.4v-5.5h-2.2v-0.7h5.3v0.7h-2.2v5.5H-414.5z"/>
			<path class="st1" d="M-407.7-279.3c-0.5,0-0.9-0.1-1.3-0.3s-0.7-0.4-1-0.7c-0.3-0.3-0.5-0.6-0.6-1c-0.2-0.4-0.2-0.8-0.2-1.2
				c0-0.4,0.1-0.9,0.2-1.2c0.2-0.4,0.4-0.7,0.6-1s0.6-0.5,1-0.7s0.8-0.3,1.2-0.3s0.9,0.1,1.2,0.3s0.7,0.4,1,0.7s0.5,0.6,0.6,1
				c0.2,0.4,0.2,0.8,0.2,1.2c0,0.4-0.1,0.8-0.2,1.2c-0.2,0.4-0.4,0.7-0.6,1c-0.3,0.3-0.6,0.5-1,0.7
				C-406.8-279.4-407.2-279.3-407.7-279.3z M-410-282.5c0,0.5,0.1,0.9,0.3,1.3c0.2,0.4,0.5,0.7,0.8,0.9c0.3,0.2,0.7,0.3,1.1,0.3
				c0.4,0,0.8-0.1,1.1-0.3s0.6-0.5,0.8-0.9c0.2-0.4,0.3-0.8,0.3-1.3c0-0.5-0.1-0.9-0.3-1.3s-0.5-0.7-0.8-0.9
				c-0.3-0.2-0.7-0.3-1.1-0.3c-0.4,0-0.8,0.1-1.1,0.3c-0.3,0.2-0.6,0.5-0.8,0.9C-409.9-283.4-410-283-410-282.5z"/>
			<path class="st1" d="M-399.6-279.4v-2.6c-0.3,0.1-0.5,0.2-0.8,0.3s-0.6,0.1-0.9,0.1c-0.7,0-1.2-0.2-1.6-0.5
				c-0.3-0.4-0.5-0.9-0.5-1.6v-1.8h0.8v1.7c0,0.6,0.1,1,0.3,1.2c0.2,0.3,0.6,0.4,1.1,0.4c0.3,0,0.6,0,0.8-0.1
				c0.3-0.1,0.5-0.1,0.7-0.3v-3h0.8v6.2H-399.6z"/>
			<path class="st1" d="M-394.3-279.3c-0.4,0-0.9-0.1-1.2-0.3c-0.4-0.2-0.7-0.4-1-0.7c-0.3-0.3-0.5-0.6-0.7-1s-0.2-0.8-0.2-1.3
				c0-0.6,0.1-1.1,0.4-1.6c0.3-0.5,0.6-0.9,1.1-1.2c0.5-0.3,1-0.4,1.6-0.4c0.6,0,1.2,0.1,1.6,0.4s0.8,0.7,1.1,1.2
				c0.3,0.5,0.4,1,0.4,1.6c0,0.1,0,0.1,0,0.2s0,0.1,0,0.1h-5.4c0,0.4,0.2,0.8,0.4,1.2s0.5,0.6,0.8,0.8c0.3,0.2,0.7,0.3,1.1,0.3
				c0.4,0,0.8-0.1,1.2-0.3s0.6-0.5,0.8-0.8l0.7,0.2c-0.1,0.3-0.3,0.6-0.6,0.8c-0.3,0.2-0.6,0.4-0.9,0.6
				C-393.5-279.4-393.9-279.3-394.3-279.3z M-396.6-282.9h4.6c0-0.5-0.2-0.8-0.4-1.2c-0.2-0.3-0.5-0.6-0.8-0.8s-0.7-0.3-1.1-0.3
				c-0.4,0-0.8,0.1-1.1,0.3s-0.6,0.5-0.8,0.8C-396.5-283.7-396.6-283.3-396.6-282.9z"/>
			<path class="st1" d="M-390-279.4v-6.2h0.8v2.7h0.9l2.1-2.7h0.9l-2.4,3l2.7,3.2h-1l-2.4-2.8h-0.9v2.8H-390z"/>
			<path class="st1" d="M-380-276.9c-0.1,0-0.3,0-0.4-0.1c-0.1,0-0.3-0.1-0.4-0.2l0.3-0.6c0.1,0,0.2,0.1,0.2,0.1c0.1,0,0.2,0,0.2,0
				c0.2,0,0.4-0.1,0.6-0.3c0.2-0.2,0.4-0.5,0.5-0.9l0.3-0.8l-2.8-6.1h0.9l2.3,5.4l2.1-5.4h0.8l-3,7.2c-0.2,0.4-0.3,0.7-0.5,0.9
				c-0.2,0.2-0.4,0.4-0.6,0.5C-379.6-276.9-379.8-276.9-380-276.9z"/>
			<path class="st1" d="M-371.5-279.3c-0.5,0-0.9-0.1-1.3-0.3c-0.4-0.2-0.7-0.4-1-0.7c-0.3-0.3-0.5-0.6-0.7-1s-0.2-0.8-0.2-1.2
				c0-0.6,0.1-1.1,0.4-1.6c0.3-0.5,0.6-0.9,1.1-1.2c0.5-0.3,1-0.4,1.6-0.4c0.6,0,1.1,0.1,1.5,0.4c0.4,0.3,0.8,0.6,1,1.1l-0.8,0.3
				c-0.2-0.3-0.4-0.6-0.7-0.8c-0.3-0.2-0.7-0.3-1-0.3c-0.4,0-0.8,0.1-1.1,0.3s-0.6,0.5-0.8,0.9c-0.2,0.4-0.3,0.8-0.3,1.3
				c0,0.5,0.1,0.9,0.3,1.3c0.2,0.4,0.5,0.7,0.8,0.9c0.3,0.2,0.7,0.3,1.1,0.3c0.3,0,0.5,0,0.8-0.1c0.3-0.1,0.5-0.2,0.7-0.4
				c0.2-0.2,0.3-0.3,0.4-0.5l0.8,0.2c-0.1,0.3-0.3,0.6-0.6,0.8c-0.3,0.2-0.6,0.4-0.9,0.6C-370.7-279.4-371.1-279.3-371.5-279.3z"/>
			<path class="st1" d="M-368.2-279.4v-0.7c0.2,0,0.4-0.1,0.6-0.2s0.3-0.3,0.5-0.6s0.2-0.7,0.3-1.1s0.1-1.1,0.2-1.9l0.1-1.7h4.1v6.2
				h-0.8v-5.5h-2.5l0,1.1c0,0.9-0.1,1.6-0.2,2.1c-0.1,0.6-0.2,1-0.4,1.4c-0.2,0.3-0.4,0.6-0.7,0.7
				C-367.5-279.5-367.8-279.4-368.2-279.4z"/>
			<path class="st1" d="M-360.1-276.9c-0.1,0-0.3,0-0.4-0.1c-0.1,0-0.3-0.1-0.4-0.2l0.3-0.6c0.1,0,0.2,0.1,0.2,0.1
				c0.1,0,0.2,0,0.2,0c0.2,0,0.4-0.1,0.6-0.3c0.2-0.2,0.4-0.5,0.5-0.9l0.3-0.8l-2.8-6.1h0.9l2.3,5.4l2.1-5.4h0.8l-3,7.2
				c-0.2,0.4-0.3,0.7-0.5,0.9c-0.2,0.2-0.4,0.4-0.6,0.5C-359.6-276.9-359.9-276.9-360.1-276.9z"/>
			<path class="st1" d="M-354.3-279.4v-6.2h3.7v0.7h-2.9v5.5H-354.3z"/>
			<path class="st1" d="M-346.2-288l3,7.5l3-7.5h0.9l-3.5,8.5h-0.8l-3.5-8.5H-346.2z"/>
			<path class="st1" d="M-338.6-279.4c0-0.3,0-0.6,0.1-0.8c0-0.3,0.1-0.6,0.3-0.8c0.1-0.3,0.3-0.5,0.6-0.8c0.3-0.3,0.6-0.5,1-0.7
				c0.2-0.1,0.5-0.2,0.7-0.4c0.2-0.1,0.5-0.2,0.7-0.4c0.2-0.1,0.4-0.3,0.5-0.5s0.2-0.4,0.2-0.6c0-0.2-0.1-0.4-0.2-0.6
				s-0.3-0.4-0.5-0.5c-0.2-0.1-0.5-0.2-0.9-0.2c-0.3,0-0.5,0-0.7,0.1c-0.2,0.1-0.4,0.2-0.6,0.3c-0.2,0.1-0.3,0.2-0.4,0.3
				s-0.2,0.2-0.3,0.3l-0.5-0.6c0,0,0.1-0.1,0.3-0.3c0.1-0.1,0.3-0.3,0.5-0.4c0.2-0.1,0.5-0.3,0.8-0.3c0.3-0.1,0.6-0.1,1-0.1
				c0.5,0,0.9,0.1,1.3,0.3c0.3,0.2,0.6,0.4,0.8,0.7c0.2,0.3,0.3,0.6,0.3,0.9c0,0.3-0.1,0.6-0.2,0.9s-0.3,0.4-0.5,0.6
				c-0.2,0.2-0.4,0.3-0.7,0.5c-0.2,0.1-0.5,0.2-0.6,0.3c-0.4,0.2-0.7,0.4-0.9,0.5c-0.3,0.2-0.5,0.4-0.6,0.5
				c-0.2,0.2-0.3,0.4-0.4,0.5s-0.1,0.4-0.2,0.5h4.3v0.7H-338.6z"/>
		</g>
	</g>
	<g>
		<g>
			<path class="st1" d="M-552-112.9v-8.5h0.8v7.4l5.3-7.4h0.8v8.5h-0.8v-7.2l-5.2,7.2H-552z"/>
			<path class="st1" d="M-543.1-112.9v-6.2h0.8v2.7h0.9l2.1-2.7h0.9l-2.4,3l2.7,3.2h-1l-2.4-2.8h-0.9v2.8H-543.1z"/>
			<path class="st1" d="M-534.2-112.8c-0.5,0-0.9-0.1-1.3-0.3s-0.7-0.4-1-0.7c-0.3-0.3-0.5-0.6-0.6-1c-0.2-0.4-0.2-0.8-0.2-1.2
				c0-0.4,0.1-0.9,0.2-1.2c0.2-0.4,0.4-0.7,0.6-1c0.3-0.3,0.6-0.5,1-0.7s0.8-0.3,1.2-0.3c0.4,0,0.9,0.1,1.2,0.3s0.7,0.4,1,0.7
				c0.3,0.3,0.5,0.6,0.6,1c0.2,0.4,0.2,0.8,0.2,1.2c0,0.4-0.1,0.8-0.2,1.2c-0.2,0.4-0.4,0.7-0.6,1c-0.3,0.3-0.6,0.5-1,0.7
				S-533.7-112.8-534.2-112.8z M-536.5-116c0,0.5,0.1,0.9,0.3,1.3c0.2,0.4,0.5,0.7,0.8,0.9c0.3,0.2,0.7,0.3,1.1,0.3s0.8-0.1,1.1-0.3
				c0.3-0.2,0.6-0.5,0.8-0.9c0.2-0.4,0.3-0.8,0.3-1.3c0-0.5-0.1-0.9-0.3-1.3c-0.2-0.4-0.5-0.7-0.8-0.9c-0.3-0.2-0.7-0.3-1.1-0.3
				s-0.8,0.1-1.1,0.3c-0.3,0.2-0.6,0.5-0.8,0.9C-536.4-116.9-536.5-116.4-536.5-116z"/>
			<path class="st1" d="M-529.7-112.9v-6.2h0.8v2.7h3.6v-2.7h0.8v6.2h-0.8v-2.8h-3.6v2.8H-529.7z"/>
			<path class="st1" d="M-522.7-112.9v-6.2h0.8v2.7h0.9l2.1-2.7h0.9l-2.4,3l2.7,3.2h-1l-2.4-2.8h-0.9v2.8H-522.7z"/>
			<path class="st1" d="M-516.5-112.9v-6.2h0.8v5.1l3.8-5.1h0.7v6.2h-0.8v-5l-3.7,5H-516.5z"/>
			<path class="st1" d="M-506.3-112.9v-6.2h3.1c0.4,0,0.6,0.1,0.9,0.2s0.4,0.3,0.5,0.6s0.2,0.5,0.2,0.7c0,0.3-0.1,0.6-0.2,0.9
				c-0.2,0.3-0.4,0.5-0.7,0.6c0.4,0.1,0.7,0.3,0.9,0.6s0.3,0.6,0.3,1c0,0.3-0.1,0.6-0.2,0.9c-0.2,0.2-0.4,0.4-0.7,0.6
				c-0.3,0.1-0.6,0.2-1,0.2H-506.3z M-505.5-116.3h2.1c0.2,0,0.4-0.1,0.6-0.2c0.2-0.1,0.3-0.3,0.4-0.4s0.1-0.4,0.1-0.5
				c0-0.3-0.1-0.5-0.3-0.8s-0.4-0.3-0.7-0.3h-2.2V-116.3z M-505.5-113.5h2.3c0.2,0,0.4-0.1,0.6-0.2c0.2-0.1,0.3-0.2,0.4-0.4
				s0.1-0.4,0.1-0.5c0-0.2,0-0.4-0.1-0.6c-0.1-0.2-0.2-0.3-0.4-0.4s-0.3-0.2-0.6-0.2h-2.4V-113.5z"/>
			<path class="st1" d="M-499.9-112.9v-6.2h0.8v2.7h3.6v-2.7h0.8v6.2h-0.8v-2.8h-3.6v2.8H-499.9z"/>
			<path class="st1" d="M-492.2-110.3c-0.1,0-0.3,0-0.4-0.1c-0.1,0-0.3-0.1-0.4-0.2l0.3-0.6c0.1,0,0.2,0.1,0.2,0.1
				c0.1,0,0.2,0,0.2,0c0.2,0,0.4-0.1,0.6-0.3s0.4-0.5,0.5-0.9l0.3-0.8l-2.8-6.1h0.9l2.3,5.4l2.1-5.4h0.8l-3,7.2
				c-0.2,0.4-0.3,0.7-0.5,0.9c-0.2,0.2-0.4,0.4-0.6,0.5C-491.8-110.4-492-110.3-492.2-110.3z"/>
			<path class="st1" d="M-484.8-112.9v-5.5h-2.2v-0.7h5.3v0.7h-2.2v5.5H-484.8z"/>
			<path class="st1" d="M-477.5-112.8c-0.5,0-1-0.1-1.4-0.4s-0.7-0.6-1-1v3.8h-0.8v-8.8h0.7v1.2c0.2-0.4,0.6-0.7,1-0.9
				s0.9-0.4,1.3-0.4c0.4,0,0.8,0.1,1.2,0.3c0.4,0.2,0.7,0.4,0.9,0.7s0.5,0.6,0.6,1c0.1,0.4,0.2,0.8,0.2,1.2c0,0.6-0.1,1.1-0.4,1.6
				s-0.6,0.9-1,1.2C-476.4-112.9-476.9-112.8-477.5-112.8z M-477.7-113.5c0.3,0,0.7-0.1,0.9-0.2c0.3-0.1,0.5-0.3,0.7-0.6
				c0.2-0.2,0.3-0.5,0.4-0.8c0.1-0.3,0.2-0.6,0.2-0.9c0-0.3-0.1-0.7-0.2-1c-0.1-0.3-0.3-0.6-0.5-0.8c-0.2-0.2-0.5-0.4-0.7-0.5
				c-0.3-0.1-0.6-0.2-0.9-0.2c-0.2,0-0.4,0-0.6,0.1c-0.2,0.1-0.4,0.2-0.6,0.3c-0.2,0.1-0.4,0.3-0.5,0.5c-0.1,0.2-0.2,0.4-0.3,0.6
				v1.9c0.1,0.3,0.3,0.6,0.5,0.8c0.2,0.2,0.5,0.4,0.8,0.6C-478.3-113.6-478-113.5-477.7-113.5z"/>
			<path class="st1" d="M-473.3-112.9v-6.2h0.8v5.1l3.8-5.1h0.7v6.2h-0.8v-5l-3.7,5H-473.3z"/>
			<path class="st1" d="M-462.4-110.3c-0.1,0-0.3,0-0.4-0.1c-0.1,0-0.3-0.1-0.4-0.2l0.3-0.6c0.1,0,0.2,0.1,0.2,0.1
				c0.1,0,0.2,0,0.2,0c0.2,0,0.4-0.1,0.6-0.3s0.4-0.5,0.5-0.9l0.3-0.8l-2.8-6.1h0.9l2.3,5.4l2.1-5.4h0.8l-3,7.2
				c-0.2,0.4-0.3,0.7-0.5,0.9c-0.2,0.2-0.4,0.4-0.6,0.5C-461.9-110.4-462.1-110.3-462.4-110.3z"/>
			<path class="st1" d="M-453.8-112.8c-0.5,0-0.9-0.1-1.3-0.3c-0.4-0.2-0.7-0.4-1-0.7c-0.3-0.3-0.5-0.6-0.7-1s-0.2-0.8-0.2-1.2
				c0-0.6,0.1-1.1,0.4-1.6c0.3-0.5,0.6-0.9,1.1-1.2c0.5-0.3,1-0.4,1.6-0.4c0.6,0,1.1,0.1,1.5,0.4c0.4,0.3,0.8,0.6,1,1.1l-0.8,0.3
				c-0.2-0.3-0.4-0.6-0.7-0.8c-0.3-0.2-0.7-0.3-1-0.3c-0.4,0-0.8,0.1-1.1,0.3s-0.6,0.5-0.8,0.9c-0.2,0.4-0.3,0.8-0.3,1.3
				c0,0.5,0.1,0.9,0.3,1.3c0.2,0.4,0.5,0.7,0.8,0.9c0.3,0.2,0.7,0.3,1.1,0.3c0.3,0,0.5,0,0.8-0.1c0.3-0.1,0.5-0.2,0.7-0.4
				c0.2-0.2,0.3-0.3,0.4-0.5l0.8,0.2c-0.1,0.3-0.3,0.6-0.6,0.8c-0.3,0.2-0.6,0.4-0.9,0.6C-453.1-112.8-453.4-112.8-453.8-112.8z"/>
			<path class="st1" d="M-450.6-112.9v-0.7c0.2,0,0.4-0.1,0.6-0.2s0.3-0.3,0.5-0.6s0.2-0.7,0.3-1.1s0.1-1.1,0.2-1.9l0.1-1.7h4.1v6.2
				h-0.8v-5.5h-2.5l0,1.1c0,0.9-0.1,1.6-0.2,2.1c-0.1,0.6-0.2,1-0.4,1.4c-0.2,0.3-0.4,0.6-0.7,0.7
				C-449.9-113-450.2-112.9-450.6-112.9z"/>
			<path class="st1" d="M-442.4-110.3c-0.1,0-0.3,0-0.4-0.1c-0.1,0-0.3-0.1-0.4-0.2l0.3-0.6c0.1,0,0.2,0.1,0.2,0.1
				c0.1,0,0.2,0,0.2,0c0.2,0,0.4-0.1,0.6-0.3c0.2-0.2,0.4-0.5,0.5-0.9l0.3-0.8l-2.8-6.1h0.9l2.3,5.4l2.1-5.4h0.8l-3,7.2
				c-0.2,0.4-0.3,0.7-0.5,0.9c-0.2,0.2-0.4,0.4-0.6,0.5C-442-110.4-442.2-110.3-442.4-110.3z"/>
			<path class="st1" d="M-436.6-112.9v-6.2h3.7v0.7h-2.9v5.5H-436.6z"/>
		</g>
	</g>
	<g>
		<g>
			<path class="st1" d="M-60-255.9v-8.5h0.8v7.4l5.3-7.4h0.8v8.5h-0.8v-7.2l-5.2,7.2H-60z"/>
			<path class="st1" d="M-51.1-255.9v-6.2h0.8v2.7h0.9l2.1-2.7h0.9l-2.4,3l2.7,3.2h-1l-2.4-2.8h-0.9v2.8H-51.1z"/>
			<path class="st1" d="M-42.2-255.8c-0.5,0-0.9-0.1-1.3-0.3s-0.7-0.4-1-0.7c-0.3-0.3-0.5-0.6-0.6-1c-0.2-0.4-0.2-0.8-0.2-1.2
				c0-0.4,0.1-0.9,0.2-1.2c0.2-0.4,0.4-0.7,0.6-1s0.6-0.5,1-0.7c0.4-0.2,0.8-0.3,1.2-0.3c0.4,0,0.9,0.1,1.2,0.3s0.7,0.4,1,0.7
				c0.3,0.3,0.5,0.6,0.6,1c0.2,0.4,0.2,0.8,0.2,1.2c0,0.4-0.1,0.8-0.2,1.2c-0.2,0.4-0.4,0.7-0.6,1c-0.3,0.3-0.6,0.5-1,0.7
				S-41.7-255.8-42.2-255.8z M-44.5-259c0,0.5,0.1,0.9,0.3,1.3c0.2,0.4,0.5,0.7,0.8,0.9c0.3,0.2,0.7,0.3,1.1,0.3s0.8-0.1,1.1-0.3
				c0.3-0.2,0.6-0.5,0.8-0.9c0.2-0.4,0.3-0.8,0.3-1.3c0-0.5-0.1-0.9-0.3-1.3c-0.2-0.4-0.5-0.7-0.8-0.9c-0.3-0.2-0.7-0.3-1.1-0.3
				s-0.8,0.1-1.1,0.3c-0.3,0.2-0.6,0.5-0.8,0.9C-44.4-259.9-44.5-259.4-44.5-259z"/>
			<path class="st1" d="M-37.7-255.9v-6.2h0.8v2.7h3.6v-2.7h0.8v6.2h-0.8v-2.8h-3.6v2.8H-37.7z"/>
			<path class="st1" d="M-30.7-255.9v-6.2h0.8v2.7h0.9l2.1-2.7h0.9l-2.4,3l2.7,3.2h-1l-2.4-2.8h-0.9v2.8H-30.7z"/>
			<path class="st1" d="M-24.5-255.9v-6.2h0.8v5.1l3.8-5.1h0.7v6.2H-20v-5l-3.7,5H-24.5z"/>
			<path class="st1" d="M-8.4-255.9v-7.8h-3.5l0,1.8c0,1.2-0.1,2.2-0.3,2.9c-0.1,0.8-0.3,1.4-0.5,1.8c-0.2,0.4-0.5,0.8-0.9,0.9
				c-0.3,0.2-0.7,0.3-1.2,0.3v-0.7c0.3,0,0.6-0.1,0.8-0.2c0.2-0.2,0.4-0.4,0.6-0.8s0.3-1,0.4-1.7c0.1-0.7,0.2-1.6,0.2-2.7l0.1-2.4
				h5.1v8.5H-8.4z"/>
			<path class="st1" d="M-2.9-255.8c-0.5,0-0.9-0.1-1.3-0.3s-0.7-0.4-1-0.7c-0.3-0.3-0.5-0.6-0.6-1c-0.2-0.4-0.2-0.8-0.2-1.2
				c0-0.4,0.1-0.9,0.2-1.2c0.2-0.4,0.4-0.7,0.6-1s0.6-0.5,1-0.7c0.4-0.2,0.8-0.3,1.2-0.3c0.4,0,0.9,0.1,1.2,0.3s0.7,0.4,1,0.7
				c0.3,0.3,0.5,0.6,0.6,1c0.2,0.4,0.2,0.8,0.2,1.2c0,0.4-0.1,0.8-0.2,1.2c-0.2,0.4-0.4,0.7-0.6,1c-0.3,0.3-0.6,0.5-1,0.7
				S-2.4-255.8-2.9-255.8z M-5.2-259c0,0.5,0.1,0.9,0.3,1.3c0.2,0.4,0.5,0.7,0.8,0.9c0.3,0.2,0.7,0.3,1.1,0.3s0.8-0.1,1.1-0.3
				c0.3-0.2,0.6-0.5,0.8-0.9c0.2-0.4,0.3-0.8,0.3-1.3c0-0.5-0.1-0.9-0.3-1.3c-0.2-0.4-0.5-0.7-0.8-0.9c-0.3-0.2-0.7-0.3-1.1-0.3
				s-0.8,0.1-1.1,0.3c-0.3,0.2-0.6,0.5-0.8,0.9C-5.1-259.9-5.2-259.4-5.2-259z"/>
			<path class="st1" d="M1.6-255.9v-6.2h3.7v0.7H2.4v5.5H1.6z"/>
			<path class="st1" d="M6.4-255.9v-6.2h0.8v5.1l3.8-5.1h0.7v6.2H11v-5l-3.7,5H6.4z"/>
			<path class="st1" d="M16.3-255.8c-0.5,0-0.9-0.1-1.3-0.3s-0.7-0.4-1-0.7c-0.3-0.3-0.5-0.6-0.7-1s-0.2-0.8-0.2-1.2
				c0-0.6,0.1-1.1,0.4-1.6s0.6-0.9,1.1-1.2c0.5-0.3,1-0.4,1.6-0.4c0.6,0,1.1,0.1,1.5,0.4s0.8,0.6,1,1.1l-0.8,0.3
				c-0.2-0.3-0.4-0.6-0.7-0.8s-0.7-0.3-1-0.3c-0.4,0-0.8,0.1-1.1,0.3s-0.6,0.5-0.8,0.9c-0.2,0.4-0.3,0.8-0.3,1.3
				c0,0.5,0.1,0.9,0.3,1.3s0.5,0.7,0.8,0.9s0.7,0.3,1.1,0.3c0.3,0,0.5,0,0.8-0.1c0.3-0.1,0.5-0.2,0.7-0.4s0.3-0.3,0.4-0.5l0.8,0.2
				c-0.1,0.3-0.3,0.6-0.6,0.8c-0.3,0.2-0.6,0.4-0.9,0.6C17-255.8,16.7-255.8,16.3-255.8z"/>
			<path class="st1" d="M21.7-255.9v-5.5h-2.2v-0.7h5.3v0.7h-2.2v5.5H21.7z"/>
			<path class="st1" d="M25.9-255.9v-6.2h0.8v5.1l3.8-5.1h0.7v6.2h-0.8v-5l-3.7,5H25.9z"/>
			<path class="st1" d="M33-255.9v-6.2h0.8v2.7h0.9l2.1-2.7h0.9l-2.4,3l2.7,3.2h-1l-2.4-2.8h-0.9v2.8H33z"/>
			<path class="st1" d="M39.2-255.9v-6.2H40v5.1l3.8-5.1h0.7v6.2h-0.8v-5l-3.7,5H39.2z"/>
			<path class="st1" d="M55-258.2c0,0.5-0.1,0.9-0.4,1.3c-0.3,0.4-0.6,0.7-1.1,0.9c-0.5,0.2-0.9,0.3-1.5,0.3c-0.6,0-1.1-0.1-1.5-0.3
				c-0.4-0.2-0.8-0.5-1-0.9c-0.3-0.4-0.4-0.8-0.4-1.3c0-0.4,0.1-0.7,0.3-1c0.2-0.3,0.4-0.5,0.6-0.7s0.5-0.3,0.8-0.4
				c-0.2-0.1-0.5-0.2-0.7-0.4c-0.2-0.2-0.4-0.4-0.5-0.6c-0.1-0.2-0.2-0.5-0.2-0.8c0-0.4,0.1-0.7,0.2-0.9c0.2-0.3,0.4-0.5,0.6-0.7
				c0.3-0.2,0.5-0.3,0.9-0.4c0.3-0.1,0.6-0.1,1-0.1c0.3,0,0.6,0,0.9,0.1c0.3,0.1,0.6,0.2,0.9,0.4s0.5,0.4,0.6,0.7
				c0.2,0.3,0.2,0.6,0.2,0.9c0,0.3-0.1,0.5-0.2,0.8c-0.1,0.2-0.3,0.4-0.5,0.6s-0.5,0.3-0.7,0.4c0.3,0.1,0.6,0.3,0.9,0.5
				c0.3,0.2,0.5,0.5,0.6,0.8S55-258.6,55-258.2z M54.2-258.3c0-0.3-0.1-0.5-0.2-0.8s-0.3-0.4-0.5-0.6c-0.2-0.2-0.4-0.3-0.7-0.3
				s-0.5-0.1-0.8-0.1c-0.3,0-0.7,0.1-1,0.2c-0.3,0.1-0.6,0.4-0.8,0.6c-0.2,0.3-0.3,0.6-0.3,1c0,0.3,0.1,0.5,0.2,0.7s0.3,0.4,0.5,0.6
				c0.2,0.2,0.4,0.3,0.7,0.4c0.3,0.1,0.5,0.1,0.8,0.1c0.3,0,0.7-0.1,1-0.2c0.3-0.1,0.6-0.4,0.8-0.6S54.2-257.9,54.2-258.3z
				 M50.2-262.2c0,0.3,0.1,0.6,0.3,0.8c0.2,0.2,0.4,0.4,0.7,0.5s0.6,0.2,0.8,0.2c0.3,0,0.6-0.1,0.9-0.2c0.3-0.1,0.5-0.3,0.7-0.5
				c0.2-0.2,0.3-0.5,0.3-0.8c0-0.3-0.1-0.6-0.3-0.8s-0.4-0.4-0.7-0.5c-0.3-0.1-0.6-0.2-0.9-0.2c-0.3,0-0.6,0.1-0.9,0.2
				c-0.3,0.1-0.5,0.3-0.7,0.5S50.2-262.5,50.2-262.2z"/>
			<path class="st1" d="M62.3-259.4c0,0.7-0.1,1.3-0.4,1.9s-0.6,1-1.1,1.3c-0.5,0.3-1,0.5-1.6,0.5c-0.6,0-1.1-0.2-1.5-0.5
				c-0.5-0.3-0.8-0.7-1.1-1.3c-0.3-0.5-0.4-1.2-0.4-1.9c0-0.7,0.1-1.3,0.4-1.9c0.3-0.5,0.6-1,1.1-1.3c0.5-0.3,1-0.5,1.5-0.5
				c0.6,0,1.1,0.2,1.6,0.5c0.5,0.3,0.8,0.7,1.1,1.3C62.2-260.7,62.3-260,62.3-259.4z M61.5-259.4c0-0.6-0.1-1-0.3-1.5
				c-0.2-0.4-0.4-0.8-0.8-1s-0.7-0.4-1.1-0.4s-0.8,0.1-1.1,0.4c-0.3,0.2-0.6,0.6-0.8,1c-0.2,0.4-0.3,0.9-0.3,1.5
				c0,0.6,0.1,1,0.3,1.5c0.2,0.4,0.4,0.8,0.8,1c0.3,0.2,0.7,0.4,1.1,0.4s0.8-0.1,1.1-0.4c0.3-0.2,0.6-0.6,0.8-1
				C61.4-258.3,61.5-258.8,61.5-259.4z"/>
			<path class="st1" d="M66.9-255.9v-6.2h0.8v2.7h3.6v-2.7h0.8v6.2h-0.8v-2.8h-3.6v2.8H66.9z"/>
			<path class="st1" d="M73.4-257.7c0-0.4,0.1-0.7,0.3-1c0.2-0.3,0.5-0.5,0.9-0.7c0.4-0.2,0.9-0.2,1.4-0.2c0.3,0,0.6,0,0.9,0.1
				c0.3,0,0.6,0.1,0.9,0.2v-0.5c0-0.5-0.2-0.9-0.5-1.3c-0.3-0.3-0.7-0.5-1.3-0.5c-0.3,0-0.7,0.1-1,0.2c-0.3,0.1-0.7,0.3-1,0.5
				l-0.3-0.6c0.4-0.3,0.8-0.5,1.2-0.6c0.4-0.1,0.8-0.2,1.2-0.2c0.8,0,1.4,0.2,1.8,0.7c0.4,0.4,0.7,1,0.7,1.8v2.9
				c0,0.1,0,0.2,0.1,0.2s0.1,0.1,0.2,0.1v0.6c-0.1,0-0.2,0-0.2,0c-0.1,0-0.1,0-0.1,0c-0.2,0-0.4-0.1-0.5-0.2
				c-0.1-0.1-0.2-0.2-0.2-0.4l0-0.5c-0.3,0.4-0.6,0.6-1.1,0.8c-0.4,0.2-0.9,0.3-1.4,0.3c-0.4,0-0.8-0.1-1.1-0.3s-0.6-0.4-0.8-0.7
				C73.5-257,73.4-257.3,73.4-257.7z M77.6-257.2c0.1-0.1,0.2-0.2,0.2-0.3s0.1-0.2,0.1-0.3v-0.9c-0.3-0.1-0.6-0.2-0.8-0.2
				s-0.6-0.1-0.9-0.1c-0.6,0-1.1,0.1-1.4,0.3c-0.4,0.2-0.5,0.5-0.5,0.9c0,0.2,0.1,0.4,0.2,0.6c0.1,0.2,0.3,0.4,0.5,0.5
				c0.2,0.1,0.5,0.2,0.8,0.2c0.4,0,0.8-0.1,1.1-0.2C77.2-256.8,77.4-257,77.6-257.2z"/>
			<path class="st1" d="M89.2-258.2c0,0.5-0.1,0.9-0.4,1.3c-0.3,0.4-0.6,0.7-1.1,0.9c-0.5,0.2-0.9,0.3-1.5,0.3
				c-0.6,0-1.1-0.1-1.5-0.3c-0.4-0.2-0.8-0.5-1-0.9c-0.3-0.4-0.4-0.8-0.4-1.3c0-0.4,0.1-0.7,0.3-1c0.2-0.3,0.4-0.5,0.6-0.7
				s0.5-0.3,0.8-0.4c-0.2-0.1-0.5-0.2-0.7-0.4c-0.2-0.2-0.4-0.4-0.5-0.6c-0.1-0.2-0.2-0.5-0.2-0.8c0-0.4,0.1-0.7,0.2-0.9
				c0.2-0.3,0.4-0.5,0.6-0.7c0.3-0.2,0.5-0.3,0.9-0.4c0.3-0.1,0.6-0.1,1-0.1c0.3,0,0.6,0,0.9,0.1c0.3,0.1,0.6,0.2,0.9,0.4
				s0.5,0.4,0.6,0.7c0.2,0.3,0.2,0.6,0.2,0.9c0,0.3-0.1,0.5-0.2,0.8c-0.1,0.2-0.3,0.4-0.5,0.6s-0.5,0.3-0.7,0.4
				c0.3,0.1,0.6,0.3,0.9,0.5c0.3,0.2,0.5,0.5,0.6,0.8S89.2-258.6,89.2-258.2z M88.3-258.3c0-0.3-0.1-0.5-0.2-0.8s-0.3-0.4-0.5-0.6
				c-0.2-0.2-0.4-0.3-0.7-0.3s-0.5-0.1-0.8-0.1c-0.3,0-0.7,0.1-1,0.2c-0.3,0.1-0.6,0.4-0.8,0.6c-0.2,0.3-0.3,0.6-0.3,1
				c0,0.3,0.1,0.5,0.2,0.7s0.3,0.4,0.5,0.6c0.2,0.2,0.4,0.3,0.7,0.4c0.3,0.1,0.5,0.1,0.8,0.1c0.3,0,0.7-0.1,1-0.2
				c0.3-0.1,0.6-0.4,0.8-0.6S88.3-257.9,88.3-258.3z M84.4-262.2c0,0.3,0.1,0.6,0.3,0.8c0.2,0.2,0.4,0.4,0.7,0.5s0.6,0.2,0.8,0.2
				c0.3,0,0.6-0.1,0.9-0.2c0.3-0.1,0.5-0.3,0.7-0.5c0.2-0.2,0.3-0.5,0.3-0.8c0-0.3-0.1-0.6-0.3-0.8s-0.4-0.4-0.7-0.5
				c-0.3-0.1-0.6-0.2-0.9-0.2c-0.3,0-0.6,0.1-0.9,0.2c-0.3,0.1-0.5,0.3-0.7,0.5S84.4-262.5,84.4-262.2z"/>
			<path class="st1" d="M96.4-259.4c0,0.7-0.1,1.3-0.4,1.9s-0.6,1-1.1,1.3c-0.5,0.3-1,0.5-1.6,0.5c-0.6,0-1.1-0.2-1.5-0.5
				c-0.5-0.3-0.8-0.7-1.1-1.3c-0.3-0.5-0.4-1.2-0.4-1.9c0-0.7,0.1-1.3,0.4-1.9c0.3-0.5,0.6-1,1.1-1.3c0.5-0.3,1-0.5,1.5-0.5
				c0.6,0,1.1,0.2,1.6,0.5c0.5,0.3,0.8,0.7,1.1,1.3C96.3-260.7,96.4-260,96.4-259.4z M95.6-259.4c0-0.6-0.1-1-0.3-1.5
				c-0.2-0.4-0.4-0.8-0.8-1s-0.7-0.4-1.1-0.4s-0.8,0.1-1.1,0.4c-0.3,0.2-0.6,0.6-0.8,1c-0.2,0.4-0.3,0.9-0.3,1.5
				c0,0.6,0.1,1,0.3,1.5c0.2,0.4,0.4,0.8,0.8,1c0.3,0.2,0.7,0.4,1.1,0.4s0.8-0.1,1.1-0.4c0.3-0.2,0.6-0.6,0.8-1
				C95.5-258.3,95.6-258.8,95.6-259.4z"/>
		</g>
	</g>
</g>
<g id="Shield">
	<path class="st2" d="M-484-100.1c-5.2,1.5-10.8,1.5-16-0.3c-5.2,1.7-10.8,1.8-16,0.3l-1-0.3v14.6c0,11.1,7.1,20.6,17,24.2
		c9.9-3.6,17-13.1,17-24.2v-14.6L-484-100.1z M-489-84.1c0,7.2-4.6,13.4-11,15.7c-6.4-2.3-11-8.5-11-15.7v-9.5l0.6,0.2
		c3.4,1,7,0.9,10.4-0.2c3.4,1.1,7,1.2,10.4,0.2l0.6-0.2V-84.1z"/>
</g>
<g id="Check">
	<path class="st2" d="M-607-102c-11.6,0-21,9.4-21,21c0,11.6,9.4,21,21,21s21-9.4,21-21C-586-92.6-595.4-102-607-102z M-609.3-68
		l-14-12.9l4.1-4.4l9.6,8.8l13.5-14.7l4.4,4.1L-609.3-68z"/>
</g>
<g id="Exclusive_IT">
	<rect x="-383" y="-69" class="st2" width="18" height="4"/>
	<polygon class="st2" points="-381,-87 -381,-82.4 -381.5,-82.2 -403,-72.4 -403,-77.4 -387,-84.7 -403,-92 -403,-97 -381.5,-87.2 	
		"/>
</g>
<g id="LLS__x26__SP">
	<g>
		<polygon class="st3" points="-539.8,-253.5 -539.8,-223 -569.5,-223 -569.5,-263 -548,-263 -548,-253.5 		"/>
		<line class="st4" x1="-562.2" y1="-246" x2="-547" y2="-246"/>
		<line class="st4" x1="-562.2" y1="-255" x2="-555" y2="-255"/>
		<path class="st5" d="M-545.6-247"/>
		<path class="st5" d="M-563.6-247"/>
		<path class="st6" d="M-553.7-252"/>
		<path class="st6" d="M-563.6-252"/>
		<line class="st4" x1="-562.2" y1="-239" x2="-547" y2="-239"/>
		<line class="st4" x1="-562.2" y1="-232" x2="-547" y2="-232"/>
		<polygon class="st7" points="-539.8,-254.4 -539.8,-252.5 -549,-252.5 -549,-263 -547.5,-263 		"/>
	</g>
	<g>
		<polygon class="st3" points="-539.8,-171.5 -539.8,-141 -569.5,-141 -569.5,-181 -548,-181 -548,-171.5 		"/>
		<line class="st6" x1="-562.2" y1="-164" x2="-547" y2="-164"/>
		<line class="st6" x1="-562.2" y1="-173" x2="-554" y2="-173"/>
		<path class="st5" d="M-545.6-165"/>
		<path class="st5" d="M-563.6-165"/>
		<path class="st6" d="M-553.7-170"/>
		<path class="st6" d="M-563.6-170"/>
		<line class="st6" x1="-562.2" y1="-157" x2="-547" y2="-157"/>
		<line class="st6" x1="-562.2" y1="-150" x2="-547" y2="-150"/>
		<polygon class="st7" points="-539.8,-172.4 -539.8,-171.5 -548,-171.5 -548,-181 -547.5,-181 		"/>
	</g>
</g>
<g id="Accounting">
	<g>
		<g>
			<path class="st1" d="M-467.4-222c-2,0-3.6-1.6-3.6-3.6v-34.9c0-2,1.6-3.6,3.6-3.6h24.9c2,0,3.6,1.6,3.6,3.6v34.9
				c0,2-1.6,3.6-3.6,3.6H-467.4z"/>
			<path class="st2" d="M-442.6-262c0.9,0,1.6,0.7,1.6,1.6v34.9c0,0.9-0.7,1.6-1.6,1.6h-24.9c-0.9,0-1.6-0.7-1.6-1.6v-34.9
				c0-0.9,0.7-1.6,1.6-1.6H-442.6 M-442.6-266h-24.9c-3.1,0-5.6,2.5-5.6,5.6v34.9c0,3.1,2.5,5.6,5.6,5.6h24.9c3.1,0,5.6-2.5,5.6-5.6
				v-34.9C-437-263.5-439.5-266-442.6-266L-442.6-266z"/>
		</g>
		<circle class="st2" cx="-463" cy="-246" r="2.5"/>
		<circle class="st2" cx="-455" cy="-246" r="2.5"/>
		<circle class="st2" cx="-447" cy="-246" r="2.5"/>
		<circle class="st2" cx="-463" cy="-238" r="2.5"/>
		<circle class="st2" cx="-455" cy="-238" r="2.5"/>
		<path class="st2" d="M-444.5-238v8c0,1.4-1.1,2.5-2.5,2.5s-2.5-1.1-2.5-2.5v-8c0-1.4,1.1-2.5,2.5-2.5S-444.5-239.4-444.5-238z"/>
		<circle class="st2" cx="-463" cy="-230" r="2.5"/>
		<circle class="st2" cx="-455" cy="-230" r="2.5"/>
		<path class="st8" d="M-444.9-251h-20.1c-0.5,0-0.9-0.4-0.9-0.9v-6.1c0-0.5,0.4-0.9,0.9-0.9h20.1c0.5,0,0.9,0.4,0.9,0.9v6.1
			C-444-251.4-444.4-251-444.9-251z"/>
	</g>
	<g>
		<g>
			<path class="st1" d="M-467.4-140c-2,0-3.6-1.6-3.6-3.6v-34.9c0-2,1.6-3.6,3.6-3.6h24.9c2,0,3.6,1.6,3.6,3.6v34.9
				c0,2-1.6,3.6-3.6,3.6H-467.4z"/>
			<path class="st2" d="M-442.6-180c0.9,0,1.6,0.7,1.6,1.6v34.9c0,0.9-0.7,1.6-1.6,1.6h-24.9c-0.9,0-1.6-0.7-1.6-1.6v-34.9
				c0-0.9,0.7-1.6,1.6-1.6H-442.6 M-442.6-184h-24.9c-3.1,0-5.6,2.5-5.6,5.6v34.9c0,3.1,2.5,5.6,5.6,5.6h24.9c3.1,0,5.6-2.5,5.6-5.6
				v-34.9C-437-181.5-439.5-184-442.6-184L-442.6-184z"/>
		</g>
		<circle class="st2" cx="-463" cy="-164" r="2.5"/>
		<circle class="st2" cx="-455" cy="-164" r="2.5"/>
		<circle class="st2" cx="-447" cy="-164" r="2.5"/>
		<circle class="st2" cx="-463" cy="-156" r="2.5"/>
		<circle class="st2" cx="-455" cy="-156" r="2.5"/>
		<path class="st2" d="M-444.5-156v8c0,1.4-1.1,2.5-2.5,2.5s-2.5-1.1-2.5-2.5v-8c0-1.4,1.1-2.5,2.5-2.5S-444.5-157.4-444.5-156z"/>
		<circle class="st2" cx="-463" cy="-148" r="2.5"/>
		<circle class="st2" cx="-455" cy="-148" r="2.5"/>
		<path class="st2" d="M-444.9-169h-20.1c-0.5,0-0.9-0.4-0.9-0.9v-6.1c0-0.5,0.4-0.9,0.9-0.9h20.1c0.5,0,0.9,0.4,0.9,0.9v6.1
			C-444-169.4-444.4-169-444.9-169z"/>
	</g>
</g>
<g id="Bank_Card">
	<g>
		<g>
			<path class="st1" d="M-417.8-228c-1.8,0-3.2-1.5-3.2-3.2v-22.5c0-1.8,1.5-3.2,3.2-3.2h33.5c1.8,0,3.2,1.5,3.2,3.2v22.5
				c0,1.8-1.5,3.2-3.2,3.2H-417.8z"/>
			<path class="st2" d="M-384.2-255c0.7,0,1.2,0.6,1.2,1.2v22.5c0,0.7-0.6,1.2-1.2,1.2h-33.5c-0.7,0-1.2-0.6-1.2-1.2v-22.5
				c0-0.7,0.6-1.2,1.2-1.2H-384.2 M-384.2-259h-33.5c-2.9,0-5.2,2.4-5.2,5.2v22.5c0,2.9,2.4,5.2,5.2,5.2h33.5c2.9,0,5.2-2.4,5.2-5.2
				v-22.5C-379-256.6-381.4-259-384.2-259L-384.2-259z"/>
		</g>
		<g>
			<line class="st9" x1="-419" y1="-249" x2="-383" y2="-249"/>
		</g>
		<g>
			<line class="st9" x1="-419" y1="-251" x2="-383" y2="-251"/>
		</g>
		<path class="st8" d="M-385-235.6c0,1.9-1.5,3.4-3.4,3.4c-1,0-1.9-0.5-2.6-1.2c-0.6,0.7-1.5,1.2-2.6,1.2c-1.9,0-3.4-1.5-3.4-3.4
			c0-1.9,1.5-3.4,3.4-3.4c1,0,1.9,0.5,2.6,1.2c0.6-0.7,1.5-1.2,2.6-1.2C-386.5-239-385-237.5-385-235.6z"/>
		<line class="st10" x1="-415" y1="-243" x2="-411.9" y2="-243"/>
		<line class="st10" x1="-406.7" y1="-243" x2="-403.6" y2="-243"/>
		<line class="st10" x1="-398.4" y1="-243" x2="-395.3" y2="-243"/>
		<line class="st10" x1="-390.1" y1="-243" x2="-387" y2="-243"/>
		<line class="st10" x1="-415" y1="-235" x2="-401" y2="-235"/>
		<path class="st11" d="M-402-243"/>
		<path class="st11" d="M-408-243"/>
		<path class="st11" d="M-394-243"/>
		<path class="st11" d="M-400-243"/>
		<path class="st11" d="M-386-243"/>
	</g>
	<g>
		<g>
			<path class="st1" d="M-417.8-146c-1.8,0-3.2-1.5-3.2-3.2v-22.5c0-1.8,1.5-3.2,3.2-3.2h33.5c1.8,0,3.2,1.5,3.2,3.2v22.5
				c0,1.8-1.5,3.2-3.2,3.2H-417.8z"/>
			<path class="st2" d="M-384.2-173c0.7,0,1.2,0.6,1.2,1.2v22.5c0,0.7-0.6,1.2-1.2,1.2h-33.5c-0.7,0-1.2-0.6-1.2-1.2v-22.5
				c0-0.7,0.6-1.2,1.2-1.2H-384.2 M-384.2-177h-33.5c-2.9,0-5.2,2.4-5.2,5.2v22.5c0,2.9,2.4,5.2,5.2,5.2h33.5c2.9,0,5.2-2.4,5.2-5.2
				v-22.5C-379-174.6-381.4-177-384.2-177L-384.2-177z"/>
		</g>
		<g>
			<line class="st11" x1="-419" y1="-167" x2="-383" y2="-167"/>
		</g>
		<g>
			<line class="st11" x1="-419" y1="-169" x2="-383" y2="-169"/>
		</g>
		<path class="st2" d="M-385-153.6c0,1.9-1.5,3.4-3.4,3.4c-1,0-1.9-0.5-2.6-1.2c-0.6,0.7-1.5,1.2-2.6,1.2c-1.9,0-3.4-1.5-3.4-3.4
			c0-1.9,1.5-3.4,3.4-3.4c1,0,1.9,0.5,2.6,1.2c0.6-0.7,1.5-1.2,2.6-1.2C-386.5-157-385-155.5-385-153.6z"/>
		<line class="st10" x1="-415" y1="-161" x2="-411.9" y2="-161"/>
		<line class="st10" x1="-406.7" y1="-161" x2="-403.6" y2="-161"/>
		<line class="st10" x1="-398.4" y1="-161" x2="-395.3" y2="-161"/>
		<line class="st10" x1="-390.1" y1="-161" x2="-387" y2="-161"/>
		<line class="st10" x1="-415" y1="-153" x2="-401" y2="-153"/>
		<path class="st11" d="M-402-161"/>
		<path class="st11" d="M-408-161"/>
		<path class="st11" d="M-394-161"/>
		<path class="st11" d="M-400-161"/>
		<path class="st11" d="M-386-161"/>
	</g>
</g>
<g id="Benefit_Check">
	<g>
		<circle class="st12" cx="-333" cy="-80" r="19"/>
		<polyline class="st12" points="-344.8,-82.8 -335.1,-74.1 -310.5,-100.5 		"/>
	</g>
</g>
<g id="Ready-made_companies">
	<g>
		
			<rect id="Main_Building_00000043442078322266672570000013220449264122326666_" x="-614.5" y="-262.5" class="st3" width="18" height="39"/>
		
			<rect id="Secondary_Building_00000093137318064898581800000013720802028784581014_" x="-595.7" y="-246" class="st3" width="11.2" height="22.5"/>
		
			<rect id="Secondary_Building_00000035491003704085616880000010737547193024200620_" x="-625.5" y="-255" class="st3" width="11" height="31.5"/>
		<rect x="-610.5" y="-257" class="st13" width="3" height="4"/>
		<rect x="-603.5" y="-257" class="st13" width="3" height="4"/>
		<rect x="-610.5" y="-249" class="st13" width="3" height="4"/>
		<rect x="-621.5" y="-249" class="st13" width="3" height="4"/>
		<rect x="-621.5" y="-241" class="st13" width="3" height="4"/>
		<rect x="-591.5" y="-241" class="st13" width="3" height="4"/>
		<rect x="-603.5" y="-249" class="st13" width="3" height="4"/>
		<rect x="-610.5" y="-241" class="st13" width="3" height="4"/>
		<rect x="-607.5" y="-233" class="st14" width="4" height="8"/>
		<rect x="-603.5" y="-241" class="st13" width="3" height="4"/>
	</g>
	<g>
		
			<rect id="Main_Building_00000160156838168113692890000003179182174513048465_" x="-614.5" y="-180.5" class="st15" width="18" height="39"/>
		
			<rect id="Secondary_Building_00000042721864257900811600000009433880821438078371_" x="-595.7" y="-163.5" class="st15" width="10.2" height="22"/>
		
			<rect id="Secondary_Building_00000107576201619037250810000000814288114491968701_" x="-624.7" y="-171.5" class="st15" width="10.2" height="30"/>
		<rect x="-610.5" y="-175" class="st14" width="3" height="4"/>
		<rect x="-603.5" y="-175" class="st14" width="3" height="4"/>
		<rect x="-610.5" y="-167" class="st14" width="3" height="4"/>
		<rect x="-620.5" y="-167" class="st14" width="2" height="4"/>
		<rect x="-620.5" y="-159.5" class="st14" width="2" height="4"/>
		<rect x="-591.5" y="-158.5" class="st14" width="2" height="4"/>
		<rect x="-603.5" y="-167" class="st14" width="3" height="4"/>
		<rect x="-610.5" y="-159" class="st14" width="3" height="4"/>
		<rect x="-607.5" y="-151" class="st14" width="4" height="8"/>
		<rect x="-603.5" y="-159" class="st14" width="3" height="4"/>
	</g>
</g>
<g id="Rocket">
	<path class="st2" d="M-577.5-59.4l2.8-10.4v0c1.2-4.6,7-6.2,10.4-2.8v0v0c3.4,3.4,1.8,9.1-2.8,10.4v0L-577.5-59.4z"/>
	<path class="st2" d="M-534-103l-0.7,0c-8.7-0.1-17.1,3.4-23,9.8l-1.2,1.3c-1.2,0-4.1,0.2-8.2,1.7c-5.5,2-8.8,6.3-8.8,6.3l8.5,1.2
		l-1.4,1.5l12.9,12.8l1.5-1.3l0.1,0.2l1,8.5c0,0,4.3-3.2,6.4-8.6c1.8-4.7,1.9-7.9,1.9-8.7l0.9-0.8C-537.3-85.2-533.7-94-534-103z
		 M-546.4-86.1c-2.5,0-4.6-2.1-4.6-4.6c0-2.5,2.1-4.6,4.6-4.6s4.6,2.1,4.6,4.6C-541.8-88.1-543.8-86.1-546.4-86.1z"/>
</g>
<g id="Branches">
	<g>
		<g>
			<circle class="st2" cx="-455" cy="-97" r="7"/>
			<circle class="st2" cx="-455" cy="-65" r="7"/>
			<circle class="st2" cx="-426" cy="-97" r="7"/>
			<line class="st16" x1="-455" y1="-97" x2="-455" y2="-63.5"/>
		</g>
		<path class="st16" d="M-455-65h20.8c4.5,0,8.2-3.7,8.2-8.2V-97"/>
	</g>
</g>
<g id="Residence_Permit">
	<g>
		<circle class="st17" cx="-506" cy="-243" r="14.5"/>
		<circle class="st12" cx="-506" cy="-243" r="18"/>
		<ellipse class="st18" cx="-506" cy="-243" rx="5.8" ry="14"/>
		<line class="st18" x1="-520.5" y1="-243" x2="-491.5" y2="-243"/>
	</g>
	<g>
		<circle class="st19" cx="-506" cy="-161" r="17.5"/>
		<ellipse class="st19" cx="-506" cy="-161" rx="7" ry="17.5"/>
		<line class="st12" x1="-523.5" y1="-161" x2="-488.5" y2="-161"/>
	</g>
</g>
<g id="Social_Card">
	<g>
		<g>
			<path class="st1" d="M-359.7-224c-1.8,0-3.3-1.5-3.3-3.3v-35.4c0-1.8,1.5-3.3,3.3-3.3h25.4c1.8,0,3.3,1.5,3.3,3.3v35.4
				c0,1.8-1.5,3.3-3.3,3.3H-359.7z"/>
			<g>
				<path class="st2" d="M-334.3-264c0.7,0,1.3,0.6,1.3,1.3v35.4c0,0.7-0.6,1.3-1.3,1.3h-25.4c-0.7,0-1.3-0.6-1.3-1.3v-35.4
					c0-0.7,0.6-1.3,1.3-1.3H-334.3 M-334.3-268h-25.4c-2.9,0-5.3,2.4-5.3,5.3v35.4c0,2.9,2.4,5.3,5.3,5.3h25.4
					c2.9,0,5.3-2.4,5.3-5.3v-35.4C-329-265.6-331.4-268-334.3-268L-334.3-268z"/>
			</g>
		</g>
		<g>
			<path class="st8" d="M-340-241c0,1-3.1,1-7,1s-7,0-7-1c0-3.7,1.7-6.8,4.1-8.2c-0.7-0.7-1.1-1.7-1.1-2.8c0-2.2,1.8-4,4-4
				s4,1.8,4,4c0,1.1-0.4,2.1-1.1,2.8C-341.7-247.8-340-244.7-340-241z"/>
		</g>
		<g>
			<g>
				<path class="st2" d="M-347-259c5,0,9,4,9,9s-4,9-9,9s-9-4-9-9S-352-259-347-259 M-347-263c-7.2,0-13,5.8-13,13
					c0,7.2,5.8,13,13,13s13-5.8,13-13C-334-257.2-339.8-263-347-263L-347-263z"/>
			</g>
		</g>
		<g>
			<line class="st4" x1="-356.5" y1="-231.5" x2="-337.5" y2="-231.5"/>
			<line class="st1" x1="-356.5" y1="-231.5" x2="-337.5" y2="-231.5"/>
		</g>
	</g>
	<g>
		<g>
			<path class="st1" d="M-359.7-142c-1.8,0-3.3-1.5-3.3-3.3v-35.4c0-1.8,1.5-3.3,3.3-3.3h25.4c1.8,0,3.3,1.5,3.3,3.3v35.4
				c0,1.8-1.5,3.3-3.3,3.3H-359.7z"/>
			<g>
				<path class="st2" d="M-334.3-182c0.7,0,1.3,0.6,1.3,1.3v35.4c0,0.7-0.6,1.3-1.3,1.3h-25.4c-0.7,0-1.3-0.6-1.3-1.3v-35.4
					c0-0.7,0.6-1.3,1.3-1.3H-334.3 M-334.3-186h-25.4c-2.9,0-5.3,2.4-5.3,5.3v35.4c0,2.9,2.4,5.3,5.3,5.3h25.4
					c2.9,0,5.3-2.4,5.3-5.3v-35.4C-329-183.6-331.4-186-334.3-186L-334.3-186z"/>
			</g>
		</g>
		<g>
			<circle class="st1" cx="-347" cy="-168" r="11"/>
			<g>
				<path class="st2" d="M-347-177c5,0,9,4,9,9s-4,9-9,9s-9-4-9-9S-352-177-347-177 M-347-181c-7.2,0-13,5.8-13,13s5.8,13,13,13
					s13-5.8,13-13S-339.8-181-347-181L-347-181z"/>
			</g>
		</g>
		<g>
			<line class="st6" x1="-356.5" y1="-149.5" x2="-337.5" y2="-149.5"/>
			<line class="st1" x1="-356.5" y1="-149.5" x2="-337.5" y2="-149.5"/>
		</g>
		<g>
			<path class="st2" d="M-340-159c0,1-3.1,1-7,1s-7,0-7-1c0-3.7,1.7-6.8,4.1-8.2c-0.7-0.7-1.1-1.7-1.1-2.8c0-2.2,1.8-4,4-4
				s4,1.8,4,4c0,1.1-0.4,2.1-1.1,2.8C-341.7-165.8-340-162.7-340-159z"/>
		</g>
	</g>
</g>
<g id="Registration">
	<g>
		<path class="st1" d="M-293.5-224H-314v-36.9c0-1.7,1.4-3.1,3.1-3.1h33.9v23.5C-277-231.4-284.4-224-293.5-224z"/>
		<path class="st7" d="M-314-225v-36.7c0-1.5,1.2-2.7,2.7-2.7h33.3"/>
		<rect x="-307" y="-257" class="st7" width="25" height="15"/>
		<line class="st20" x1="-302" y1="-252" x2="-287" y2="-252"/>
		<line class="st20" x1="-302" y1="-247" x2="-295" y2="-247"/>
		<line class="st20" x1="-290" y1="-247" x2="-287" y2="-247"/>
	</g>
	<g>
		<path class="st1" d="M-293.5-142H-314v-36.9c0-1.7,1.4-3.1,3.1-3.1h33.9v23.5C-277-149.4-284.4-142-293.5-142z"/>
		<path class="st7" d="M-314-143v-36.7c0-1.5,1.2-2.7,2.7-2.7h33.3"/>
		<rect x="-307" y="-175" class="st7" width="25" height="15"/>
		<line class="st6" x1="-302" y1="-170" x2="-287" y2="-170"/>
		<line class="st6" x1="-302" y1="-165" x2="-295" y2="-165"/>
		<line class="st6" x1="-290" y1="-165" x2="-287" y2="-165"/>
	</g>
</g>
<g id="Citizenship">
	<g>
		<g>
			<path class="st2" d="M-233.2-140h-28.6c-1.8,0-3.2-1.4-3.2-3.2v-37.6c0-1.8,1.4-3.2,3.2-3.2h28.6c1.8,0,3.2,1.4,3.2,3.2v37.6
				C-230-141.4-231.4-140-233.2-140z"/>
		</g>
		<g>
			<circle class="st21" cx="-247.5" cy="-167" r="11"/>
			<ellipse class="st21" cx="-247.5" cy="-167" rx="4.4" ry="11"/>
			<line class="st22" x1="-258.5" y1="-167" x2="-236.5" y2="-167"/>
		</g>
		<line class="st23" x1="-258.5" y1="-148" x2="-236.5" y2="-148"/>
	</g>
	<g>
		<g>
			<path class="st2" d="M-233.2-223h-28.6c-1.8,0-3.2-1.4-3.2-3.2v-37.6c0-1.8,1.4-3.2,3.2-3.2h28.6c1.8,0,3.2,1.4,3.2,3.2v37.6
				C-230-224.4-231.4-223-233.2-223z"/>
		</g>
		<g>
			<circle class="st24" cx="-247.5" cy="-250" r="11"/>
			<ellipse class="st24" cx="-247.5" cy="-250" rx="4.4" ry="11"/>
			<line class="st22" x1="-258.5" y1="-250" x2="-236.5" y2="-250"/>
		</g>
		<line class="st23" x1="-258.5" y1="-231" x2="-236.5" y2="-231"/>
	</g>
</g>
<g id="log_x5F_kpi-1">
	<g>
		<g>
			<g>
				<path class="st1" d="M-55.8-201.8c-1.2,0-2.2-1-2.2-2.2v-7.1c0-5,4-9,9-9s9,4,9,9v7.1c0,1.2-1,2.2-2.2,2.2H-55.8z"/>
				<path class="st2" d="M-49-218.1c3.9,0,7,3.1,7,7v7.1c0,0.1-0.1,0.2-0.2,0.2h-13.5c-0.1,0-0.2-0.1-0.2-0.2v-7.1
					C-56-215-52.9-218.1-49-218.1 M-49-222.1c-6.1,0-11,4.9-11,11v7.1c0,2.3,1.9,4.2,4.2,4.2h13.5c2.3,0,4.2-1.9,4.2-4.2v-7.1
					C-38-217.2-42.9-222.1-49-222.1L-49-222.1z"/>
			</g>
			<circle class="st19" cx="-49" cy="-225.9" r="5.7"/>
		</g>
		<g>
			<g>
				<path class="st1" d="M-85.8-201.8c-1.2,0-2.2-1-2.2-2.2v-7.1c0-5,4-9,9-9s9,4,9,9v7.1c0,1.2-1,2.2-2.2,2.2H-85.8z"/>
				<path class="st2" d="M-79-218.1c3.9,0,7,3.1,7,7v7.1c0,0.1-0.1,0.2-0.2,0.2h-13.5c-0.1,0-0.2-0.1-0.2-0.2v-7.1
					C-86-215-82.9-218.1-79-218.1 M-79-222.1c-6.1,0-11,4.9-11,11v7.1c0,2.3,1.9,4.2,4.2,4.2h13.5c2.3,0,4.2-1.9,4.2-4.2v-7.1
					C-68-217.2-72.9-222.1-79-222.1L-79-222.1z"/>
			</g>
			<circle class="st19" cx="-79" cy="-225.9" r="5.7"/>
		</g>
		<g>
			<g>
				<path class="st1" d="M-72.2-198c-1.3,0-2.3-1-2.3-2.3v-8.7c0-5.8,4.7-10.5,10.5-10.5s10.5,4.7,10.5,10.5v8.7
					c0,1.3-1,2.3-2.3,2.3H-72.2z"/>
				<path class="st2" d="M-64-217.5c4.7,0,8.5,3.8,8.5,8.5v8.7c0,0.2-0.1,0.3-0.3,0.3h-16.5c-0.2,0-0.3-0.1-0.3-0.3v-8.7
					C-72.5-213.7-68.7-217.5-64-217.5 M-64-221.5c-6.9,0-12.5,5.6-12.5,12.5v8.7c0,2.4,1.9,4.3,4.3,4.3h16.5c2.4,0,4.3-1.9,4.3-4.3
					v-8.7C-51.5-215.9-57.1-221.5-64-221.5L-64-221.5z"/>
			</g>
			<circle class="st19" cx="-64" cy="-227" r="7"/>
		</g>
		<polygon class="st25" points="-64,-191.1 -61.3,-185.7 -55.3,-184.8 -59.7,-180.6 -58.6,-174.6 -64,-177.4 -69.4,-174.6 
			-68.3,-180.6 -72.7,-184.8 -66.7,-185.7 		"/>
		<polygon class="st25" points="-46,-194.5 -43.8,-190.1 -39,-189.4 -42.5,-186 -41.7,-181.2 -46,-183.5 -50.3,-181.2 -49.5,-186 
			-53,-189.4 -48.2,-190.1 		"/>
		<polygon class="st25" points="-82,-194.5 -79.8,-190.1 -75,-189.4 -78.5,-186 -77.7,-181.2 -82,-183.5 -86.3,-181.2 -85.5,-186 
			-89,-189.4 -84.2,-190.1 		"/>
	</g>
</g>
<g id="log-kpi-2">
	<g>
		<g>
			<circle class="st19" cx="19" cy="-200" r="30"/>
			<ellipse class="st19" cx="19" cy="-200" rx="16" ry="30"/>
			<ellipse class="st12" cx="19" cy="-200" rx="30" ry="17"/>
			<line class="st12" x1="-11" y1="-200" x2="49" y2="-200"/>
		</g>
		<g>
			<path class="st1" d="M38.5-192.5c-0.8,0-1.5-0.7-1.5-1.5c0-4.2-1.6-5.9-3.4-7.6c-1.6-1.7-3.5-3.7-3.5-7.5c0-4.6,3.8-8.4,8.4-8.4
				s8.4,3.8,8.4,8.4c0,4.2-1.9,6.2-3.7,7.9c-1.7,1.7-3.2,3.2-3.2,7.2C40-193.2,39.3-192.5,38.5-192.5z M38.5-209.7
				c-0.7,0-1.2,0.6-1.2,1.2s0.6,1.2,1.2,1.2s1.2-0.6,1.2-1.2S39.2-209.7,38.5-209.7z"/>
			<path class="st8" d="M38.5-216c3.8,0,6.9,3.1,6.9,6.9c0,7.6-6.9,6.2-6.9,15.1c0-8.9-6.9-8.2-6.9-15.1
				C31.6-212.9,34.7-216,38.5-216 M38.5-205.7c1.5,0,2.8-1.2,2.8-2.8c0-1.5-1.2-2.8-2.8-2.8s-2.8,1.2-2.8,2.8
				C35.8-206.9,37-205.7,38.5-205.7 M38.5-219c-5.4,0-9.9,4.4-9.9,9.9c0,4.4,2.2,6.7,3.9,8.5c1.7,1.8,2.9,3.1,2.9,6.6
				c0,1.7,1.3,3,3,3s3-1.3,3-3c0-3.4,1.1-4.5,2.8-6.2c1.8-1.8,4.1-4.1,4.1-9C48.4-214.6,43.9-219,38.5-219L38.5-219z"/>
		</g>
		<g>
			<path class="st1" d="M13.5-177.5c-0.8,0-1.5-0.7-1.5-1.5c0-4.2-1.6-5.9-3.4-7.6c-1.6-1.7-3.5-3.7-3.5-7.5c0-4.6,3.8-8.4,8.4-8.4
				s8.4,3.8,8.4,8.4c0,4.2-1.9,6.2-3.7,7.9c-1.7,1.7-3.2,3.2-3.2,7.2C15-178.2,14.3-177.5,13.5-177.5z M13.5-194.7
				c-0.7,0-1.2,0.6-1.2,1.2s0.6,1.2,1.2,1.2s1.2-0.6,1.2-1.2S14.2-194.7,13.5-194.7z"/>
			<path class="st8" d="M13.5-201c3.8,0,6.9,3.1,6.9,6.9c0,7.6-6.9,6.2-6.9,15.1c0-8.9-6.9-8.2-6.9-15.1C6.6-197.9,9.7-201,13.5-201
				 M13.5-190.7c1.5,0,2.8-1.2,2.8-2.8c0-1.5-1.2-2.8-2.8-2.8s-2.8,1.2-2.8,2.8C10.8-191.9,12-190.7,13.5-190.7 M13.5-204
				c-5.4,0-9.9,4.4-9.9,9.9c0,4.4,2.2,6.7,3.9,8.5c1.7,1.8,2.9,3.1,2.9,6.6c0,1.7,1.3,3,3,3s3-1.3,3-3c0-3.4,1.1-4.5,2.8-6.2
				c1.8-1.8,4.1-4.1,4.1-9C23.4-199.6,18.9-204,13.5-204L13.5-204z"/>
		</g>
		<g>
			<path class="st1" d="M-0.5-209.5c-0.8,0-1.5-0.7-1.5-1.5c0-4.2-1.6-5.9-3.4-7.6c-1.6-1.7-3.5-3.7-3.5-7.5c0-4.6,3.8-8.4,8.4-8.4
				s8.4,3.8,8.4,8.4c0,4.2-1.9,6.2-3.7,7.9C2.5-216.5,1-215,1-211C1-210.2,0.3-209.5-0.5-209.5z M-0.5-226.7c-0.7,0-1.2,0.6-1.2,1.2
				s0.6,1.2,1.2,1.2s1.2-0.6,1.2-1.2S0.2-226.7-0.5-226.7z"/>
			<path class="st8" d="M-0.5-233c3.8,0,6.9,3.1,6.9,6.9c0,7.6-6.9,6.2-6.9,15.1c0-8.9-6.9-8.2-6.9-15.1C-7.4-229.9-4.3-233-0.5-233
				 M-0.5-222.7c1.5,0,2.8-1.2,2.8-2.8c0-1.5-1.2-2.8-2.8-2.8s-2.8,1.2-2.8,2.8C-3.2-223.9-2-222.7-0.5-222.7 M-0.5-236
				c-5.4,0-9.9,4.4-9.9,9.9c0,4.4,2.2,6.7,3.9,8.5c1.7,1.8,2.9,3.1,2.9,6.6c0,1.7,1.3,3,3,3s3-1.3,3-3c0-3.4,1.1-4.5,2.8-6.2
				c1.8-1.8,4.1-4.1,4.1-9C9.4-231.6,4.9-236-0.5-236L-0.5-236z"/>
		</g>
	</g>
</g>
<g id="log-kpi-3">
	<g>
		<polygon class="st19" points="61,27 61,67.5 21,67.5 21,12.5 48.1,12.5 		"/>
		<polygon class="st15" points="48.1,27 48.1,12.5 61,27 		"/>
		<g>
			<ellipse class="st1" cx="21.6" cy="27" rx="9" ry="9.5"/>
			<path class="st2" d="M21.6,19c4.1,0,7.5,3.6,7.5,8s-3.4,8-7.5,8c-4.1,0-7.5-3.6-7.5-8S17.4,19,21.6,19 M21.6,16
				c-5.8,0-10.5,5-10.5,11s4.7,11,10.5,11c5.8,0,10.5-5,10.5-11S27.4,16,21.6,16L21.6,16z"/>
		</g>
		<polyline class="st25" points="16.1,27.6 19.9,31.2 27,23 		"/>
		<line class="st26" x1="56.7" y1="43.2" x2="26" y2="43.2"/>
		<line class="st26" x1="56.7" y1="38.2" x2="30.5" y2="38.2"/>
		<line class="st26" x1="56.7" y1="33.2" x2="35" y2="33.2"/>
		<line class="st26" x1="56.7" y1="47.6" x2="26" y2="47.6"/>
		<line class="st26" x1="56.7" y1="52" x2="26" y2="52"/>
		<path class="st27" d="M26,61"/>
		<path class="st27" d="M56.7,61"/>
	</g>
	<line class="st26" x1="57" y1="56.2" x2="26" y2="56.2"/>
	<line class="st26" x1="57" y1="60.6" x2="26" y2="60.6"/>
</g>
</svg>
