<?xml version="1.0" encoding="utf-8"?>
<!-- Generator: Adobe Illustrator 28.1.0, SVG Export Plug-In . SVG Version: 6.00 Build 0)  -->
<svg version="1.1" id="Layer_1" xmlns="http://www.w3.org/2000/svg" xmlns:xlink="http://www.w3.org/1999/xlink" x="0px" y="0px"
	 viewBox="0 0 240.9 155.9" style="enable-background:new 0 0 240.9 155.9;" xml:space="preserve">
<style type="text/css">
	.st0{fill:#FFFFFF;}
	.st1{fill:#2D2F69;}
	.st2{fill:#A62A2C;}
	.st3{fill:#005192;}
	.st4{fill:#008CD1;}
	.st5{fill:#2C2E6B;}
	.st6{fill:#A9262B;}
	.st7{fill:#009EDE;}
	.st8{fill:#2B2F67;}
	.st9{fill:#A22C2E;}
</style>
<path class="st0" d="M74.3,58.2"/>
<path class="st0" d="M191.5,48.7"/>
<path class="st0" d="M204.5,53"/>
<path class="st0" d="M204.6,53.1"/>
<path class="st1" d="M101.9,81.1"/>
<path class="st1" d="M21.3,92.8"/>
<path class="st1" d="M35.7,98.2"/>
<path class="st2" d="M35.9,98.3"/>
<path class="st2" d="M35.6,98.1"/>
<polygon class="st3" points="63.7,120 53.8,26.3 34.3,49.1 36.3,77.6 37.7,97.5 "/>
<polygon class="st3" points="69.6,102.6 82.5,106.2 95.4,109.6 92.8,123.9 "/>
<path class="st3" d="M101.2,92.8v-0.7l2-0.2l7.7-23h0.7l8,23l2.1,0.2v0.7H113v-0.7l2.2-0.2l-1.9-5.8H106l-1.9,5.8l2.2,0.2v0.7H101.2
	z M106.3,85.1l6.6-0.1l-3.3-10h-0.1L106.3,85.1z"/>
<path class="st3" d="M122.4,77.8v-0.7l3.4-0.4l2.3-0.6l0.2,0.5v2.8h0.1c0.2-0.4,0.5-0.9,0.8-1.3c0.3-0.4,0.7-0.8,1-1.1
	c0.4-0.3,0.8-0.6,1.2-0.8s0.9-0.3,1.3-0.3c0.8,0,1.5,0.2,2,0.7s0.7,1,0.7,1.8c0,0.3,0,0.6-0.1,0.9c-0.1,0.3-0.2,0.5-0.4,0.7
	s-0.4,0.3-0.7,0.5c-0.3,0.1-0.5,0.2-0.8,0.2c-0.3,0-0.6-0.1-0.9-0.2s-0.5-0.3-0.7-0.4c-0.2-0.2-0.3-0.4-0.4-0.6
	c-0.1-0.2-0.1-0.5-0.1-0.8c0-0.6,0.1-1,0.4-1.3v-0.1c-0.4,0.1-0.8,0.3-1.1,0.6c-0.4,0.3-0.7,0.8-1,1.3c-0.3,0.6-0.5,1.2-0.7,2
	c-0.2,0.8-0.3,1.7-0.3,2.7V92l1.7,0.2v0.7h-7.3v-0.7l1.7-0.2V77.8H122.4z"/>
<path class="st3" d="M136.5,77.8v-0.7l3.4-0.4l2.3-0.6l0.2,0.5v2.2h0.1c1.3-1.9,2.8-2.8,4.7-2.8c0.4,0,0.7,0,1.1,0.1
	s0.7,0.2,1.1,0.4c0.4,0.2,0.8,0.5,1.1,0.9c0.3,0.4,0.6,0.9,0.8,1.6h0c1.5-2,3.1-3,5.1-3c0.4,0,0.7,0,1.1,0.1
	c0.4,0.1,0.7,0.2,1.2,0.5c0.4,0.2,0.8,0.5,1.1,0.9c0.3,0.4,0.6,0.9,0.8,1.6s0.3,1.5,0.3,2.4V92l1.7,0.2v0.7h-7.3v-0.7l1.7-0.2V80.9
	c0-0.6-0.1-1.2-0.2-1.7c-0.1-0.5-0.2-0.8-0.4-1c-0.1-0.2-0.3-0.4-0.5-0.5s-0.4-0.2-0.5-0.2c-0.1,0-0.3,0-0.4,0
	c-0.7,0-1.4,0.4-2.1,1.2c-0.7,0.8-1,1.9-1,3.3v10l1.7,0.2v0.7h-7.3v-0.7l1.7-0.2V80.9c0-0.6-0.1-1.2-0.2-1.7c-0.1-0.5-0.2-0.8-0.4-1
	c-0.1-0.2-0.3-0.4-0.5-0.5s-0.4-0.2-0.5-0.2c-0.1,0-0.3,0-0.4,0c-0.7,0-1.4,0.5-2,1.4c-0.7,0.9-1,2.1-1,3.4V92l1.7,0.2v0.7h-7.3
	v-0.7l1.7-0.2V77.8H136.5z"/>
<path class="st3" d="M163.6,70.9v-0.7l3.4-0.4l2.3-0.6l0.3,0.5v9h0.1c0.6-1,1.3-1.8,2-2.2c0.7-0.4,1.5-0.6,2.5-0.6
	c0.3,0,0.6,0,0.9,0.1c0.3,0.1,0.6,0.2,1,0.3c0.4,0.2,0.7,0.4,1,0.6s0.6,0.6,1,1c0.3,0.4,0.6,1,0.8,1.5s0.4,1.3,0.5,2.1
	c0.1,0.9,0.2,1.8,0.2,2.8c0,1.2-0.1,2.3-0.4,3.4c-0.3,1-0.6,2-1.2,2.8s-1.2,1.5-2,1.9c-0.8,0.5-1.8,0.7-2.9,0.7
	c-0.6,0-1.2-0.1-1.9-0.4c-0.6-0.3-1.2-0.7-1.6-1.3l-3.3,1.4h-0.7V70.9H163.6z M169.6,89.3c0,0.8,0.3,1.5,0.8,2.1
	c0.5,0.6,1.1,0.9,1.8,0.9c0.4,0,0.8-0.1,1.1-0.3c0.3-0.2,0.6-0.4,0.8-0.7c0.2-0.3,0.4-0.7,0.6-1.2s0.3-0.9,0.4-1.3
	c0.1-0.4,0.1-0.9,0.2-1.5c0-0.6,0.1-1.1,0.1-1.5s0-0.9,0-1.4c0-1.8-0.1-3.3-0.4-4.3s-0.6-1.8-1-2.2c-0.4-0.4-0.9-0.6-1.5-0.6
	c-0.8,0-1.5,0.4-2.1,1.3c-0.6,0.9-0.9,1.8-0.9,2.9V89.3z"/>
<path class="st3" d="M181.9,77.8v-0.7l3.4-0.4l2.3-0.6l0.3,0.5V92l1.7,0.2v0.7h-7.3v-0.7l1.7-0.2V77.8H181.9z M183.7,70.4
	c0-0.3,0.1-0.6,0.2-0.8c0.1-0.3,0.3-0.5,0.5-0.7s0.4-0.3,0.7-0.5c0.3-0.1,0.5-0.2,0.8-0.2s0.6,0.1,0.8,0.2c0.3,0.1,0.5,0.3,0.7,0.5
	s0.4,0.4,0.5,0.7c0.1,0.3,0.2,0.5,0.2,0.8s-0.1,0.6-0.2,0.8c-0.1,0.3-0.3,0.5-0.5,0.7c-0.2,0.2-0.4,0.4-0.7,0.5s-0.5,0.2-0.8,0.2
	s-0.6-0.1-0.8-0.2c-0.3-0.1-0.5-0.3-0.7-0.5s-0.3-0.4-0.5-0.7C183.7,71,183.7,70.7,183.7,70.4z"/>
<path class="st3" d="M191.4,92.4l8.8-15l-4-0.1h-0.2c-0.5,0-0.9,0.1-1.3,0.3c-0.4,0.2-0.7,0.5-1,0.8c-0.2,0.3-0.4,0.7-0.6,1.1
	c-0.2,0.4-0.3,0.9-0.3,1.3s-0.1,0.8-0.1,1.3h-0.7v-5.4h12.5L205,77l-9.2,15l4.6,0.1h0.2c0.5,0,0.9-0.1,1.3-0.3
	c0.4-0.2,0.8-0.5,1-0.8c0.2-0.3,0.4-0.7,0.6-1.1c0.2-0.5,0.2-0.9,0.3-1.3c0-0.4,0.1-0.8,0.1-1.3h0.7v5.4h-12.9L191.4,92.4z"/>
<g>
	<path class="st4" d="M129.7,106.6c0-0.4,0-0.8,0.1-1.2c0.1-0.4,0.2-0.8,0.4-1.2c0.2-0.4,0.4-0.7,0.7-1c0.3-0.3,0.6-0.5,1.1-0.7
		c0.4-0.2,0.9-0.3,1.4-0.3c0.7,0,1.4,0.2,1.9,0.6s0.7,0.9,0.7,1.5c0,0.3-0.1,0.5-0.3,0.7c-0.2,0.2-0.4,0.3-0.7,0.3
		c-0.3,0-0.5-0.1-0.7-0.3c-0.2-0.2-0.3-0.4-0.3-0.7c0-0.3,0.1-0.5,0.3-0.7c0.2-0.2,0.4-0.3,0.7-0.3c0,0,0.1,0,0.2,0v0
		c-0.1-0.1-0.1-0.2-0.2-0.3s-0.2-0.2-0.5-0.3c-0.2-0.1-0.5-0.2-0.7-0.2c-0.5,0-0.9,0.2-1.2,0.5c-0.3,0.4-0.5,0.8-0.6,1.4
		c-0.1,0.6-0.2,1.2-0.2,2c0,2.5,0.7,3.7,2,3.7c0.2,0,0.3,0,0.5,0c0.1,0,0.3-0.1,0.5-0.2s0.4-0.2,0.6-0.4c0.2-0.2,0.4-0.5,0.6-0.8
		l0.3,0.2c-0.7,1.2-1.6,1.8-2.8,1.8C131,110.8,129.7,109.4,129.7,106.6z"/>
	<path class="st4" d="M137.3,106.6c0-0.8,0.2-1.5,0.5-2.2c0.3-0.7,0.8-1.2,1.3-1.6c0.6-0.4,1.2-0.6,1.9-0.6c0.6,0,1.1,0.1,1.6,0.4
		c0.5,0.2,0.9,0.6,1.1,1c0.3,0.4,0.5,0.9,0.7,1.4c0.2,0.5,0.2,1,0.2,1.6c0,0.8-0.2,1.5-0.5,2.2c-0.3,0.7-0.7,1.2-1.3,1.6
		c-0.6,0.4-1.2,0.6-1.9,0.6c-0.6,0-1.2-0.1-1.7-0.3c-0.5-0.2-0.9-0.5-1.2-0.9c-0.3-0.4-0.5-0.8-0.7-1.3
		C137.4,107.7,137.3,107.2,137.3,106.6z M139.4,106.5c0,0.6,0,1.1,0.1,1.6c0.1,0.5,0.2,0.9,0.3,1.2c0.1,0.4,0.3,0.6,0.5,0.8
		c0.2,0.2,0.5,0.3,0.7,0.3c1.1,0,1.6-1.3,1.6-3.9c0-0.6,0-1.2-0.1-1.7c-0.1-0.5-0.1-0.9-0.3-1.2s-0.3-0.6-0.5-0.8s-0.5-0.3-0.8-0.3
		c-0.3,0-0.5,0.1-0.7,0.3c-0.2,0.2-0.4,0.5-0.5,0.8c-0.1,0.4-0.2,0.8-0.3,1.2C139.4,105.4,139.4,105.9,139.4,106.5z"/>
	<path class="st4" d="M145.8,102.8l1.7-0.2l1.1-0.3l0.1,0.2l0,1.1h0c0.6-0.9,1.5-1.4,2.5-1.4c0.2,0,0.4,0,0.6,0
		c0.2,0,0.4,0.1,0.6,0.2c0.2,0.1,0.4,0.3,0.6,0.4c0.2,0.2,0.3,0.4,0.4,0.8c0.1,0.3,0.2,0.7,0.2,1.2v5.2l0.8,0.1v0.3h-3.6v-0.3
		l0.8-0.1v-5.5c0-1.1-0.4-1.7-1.1-1.7c-0.5,0-0.9,0.2-1.2,0.7s-0.5,1-0.5,1.7v4.8l0.8,0.1v0.3h-3.6v-0.3l0.8-0.1v-7.1l-1,0
		L145.8,102.8z"/>
	<path class="st4" d="M158.1,110.4c0.6,0,1.1-0.1,1.4-0.3s0.4-0.5,0.4-0.8c0-0.2,0-0.3-0.1-0.5s-0.1-0.3-0.3-0.4
		c-0.1-0.1-0.3-0.3-0.5-0.4c-0.2-0.1-0.5-0.3-0.8-0.4c-0.3-0.2-0.6-0.3-0.9-0.5s-0.6-0.4-0.8-0.6c-0.3-0.2-0.5-0.5-0.6-0.8
		c-0.2-0.3-0.3-0.6-0.3-1.1c0-0.4,0.1-0.7,0.2-1c0.1-0.3,0.3-0.5,0.6-0.8c0.2-0.2,0.5-0.4,0.9-0.5c0.3-0.1,0.7-0.2,1.1-0.2
		c0.3,0,0.6,0,0.9,0.1s0.6,0.2,0.8,0.4c0.3,0.2,0.5,0.3,0.6,0.6c0.2,0.2,0.2,0.5,0.2,0.8c0,0.1,0,0.2-0.1,0.3s-0.1,0.2-0.2,0.3
		c-0.1,0.1-0.2,0.2-0.3,0.2c-0.1,0.1-0.2,0.1-0.4,0.1c-0.3,0-0.5-0.1-0.7-0.3c-0.2-0.2-0.2-0.4-0.2-0.6c0-0.2,0-0.3,0.1-0.4
		s0.1-0.2,0.2-0.3c0.1-0.1,0.2-0.1,0.2-0.2c0.1,0,0.2-0.1,0.3-0.1h0.1v0c-0.1-0.1-0.1-0.2-0.2-0.2c-0.1-0.1-0.2-0.1-0.4-0.2
		c-0.1-0.1-0.3-0.1-0.5-0.1s-0.4-0.1-0.5-0.1c-0.3,0-0.5,0-0.7,0.1c-0.2,0.1-0.4,0.2-0.5,0.3c-0.1,0.1-0.2,0.2-0.3,0.4
		c-0.1,0.1-0.1,0.3-0.1,0.4c0,0.2,0,0.3,0.1,0.4c0,0.1,0.1,0.2,0.3,0.3c0.1,0.1,0.3,0.2,0.5,0.4s0.5,0.3,0.8,0.5
		c0.3,0.2,0.6,0.3,1,0.5s0.7,0.4,1,0.6c0.3,0.2,0.5,0.5,0.7,0.8c0.2,0.3,0.3,0.7,0.3,1.1c0,0.3-0.1,0.7-0.2,1s-0.3,0.5-0.6,0.7
		c-0.3,0.2-0.6,0.4-1.1,0.5c-0.4,0.1-0.9,0.2-1.5,0.2c-0.3,0-0.6,0-0.9-0.1c-0.3-0.1-0.6-0.2-0.9-0.3c-0.3-0.2-0.5-0.4-0.7-0.6
		c-0.2-0.2-0.3-0.5-0.3-0.9c0-0.2,0-0.3,0.1-0.4c0-0.1,0.1-0.3,0.2-0.4c0.1-0.1,0.2-0.2,0.3-0.3s0.3-0.1,0.4-0.1
		c0.1,0,0.3,0,0.4,0.1c0.1,0.1,0.2,0.1,0.3,0.2c0.1,0.1,0.1,0.2,0.2,0.3c0,0.1,0.1,0.2,0.1,0.4c0,0.2,0,0.3-0.1,0.4
		s-0.1,0.2-0.2,0.3s-0.2,0.1-0.3,0.2s-0.2,0.1-0.3,0.1c0,0,0,0-0.1,0s0,0-0.1,0v0c0,0.1,0.1,0.2,0.2,0.3c0.1,0.1,0.2,0.2,0.4,0.3
		c0.1,0.1,0.3,0.1,0.5,0.2C157.6,110.4,157.9,110.4,158.1,110.4z"/>
	<path class="st4" d="M162.3,103.1v-0.3l1.7-0.2l1.1-0.3l0.2,0.2v5.8c0,0.3,0,0.6,0.1,0.8s0.1,0.4,0.2,0.5c0.1,0.1,0.2,0.2,0.3,0.3
		c0.1,0.1,0.2,0.1,0.3,0.1c0.1,0,0.1,0,0.2,0c0.4,0,0.7-0.2,1-0.7c0.3-0.5,0.5-1.1,0.5-1.8v-4.5h-1v-0.3l1.7-0.2l1.1-0.3l0.1,0.2
		v7.6l0.8,0.1v0.3h-2.5l-0.2-1.2h0c-0.1,0.2-0.3,0.4-0.4,0.5c-0.1,0.1-0.3,0.3-0.5,0.5c-0.2,0.2-0.4,0.3-0.6,0.4
		c-0.2,0.1-0.5,0.1-0.8,0.1c-0.2,0-0.4,0-0.6,0s-0.4-0.1-0.6-0.2c-0.2-0.1-0.4-0.3-0.6-0.4c-0.2-0.2-0.3-0.4-0.4-0.8
		s-0.2-0.7-0.2-1.2v-5H162.3z"/>
	<path class="st4" d="M171.6,99.7v-0.3l1.7-0.2l1.1-0.3l0.1,0.2v11l0.8,0.1v0.3h-3.6v-0.3l0.8-0.1V99.7H171.6z"/>
	<path class="st4" d="M175.9,102.8v-0.3h1.4v-1.8l0.7-0.1l1.1-0.3l0.2,0.2v1.9h1.8v0.3l-1.8,0.1v5.7c0,0.3,0,0.6,0.1,0.8
		c0.1,0.2,0.2,0.4,0.3,0.4c0.1,0.1,0.2,0.1,0.3,0.2c0.1,0,0.2,0,0.2,0c0.2,0,0.3,0,0.5-0.1c0.2-0.1,0.3-0.2,0.4-0.3
		c0.1-0.1,0.2-0.3,0.3-0.4c0.1-0.1,0.2-0.3,0.3-0.4l0.3,0.2c-0.3,0.5-0.5,0.8-0.7,1c-0.5,0.5-1.1,0.8-1.8,0.8c-0.3,0-0.5,0-0.7-0.1
		s-0.4-0.1-0.6-0.2c-0.2-0.1-0.4-0.3-0.5-0.5s-0.3-0.5-0.3-0.8s-0.1-0.7-0.1-1.2v-5.2L175.9,102.8z"/>
	<path class="st4" d="M182.4,103.1v-0.3l1.7-0.2l1.1-0.3l0.1,0.2v7.6l0.8,0.1v0.3h-3.6v-0.3l0.8-0.1v-7H182.4z M183.3,99.5
		c0-0.2,0-0.3,0.1-0.4c0.1-0.1,0.1-0.2,0.2-0.3s0.2-0.2,0.3-0.2s0.3-0.1,0.4-0.1s0.3,0,0.4,0.1c0.1,0.1,0.2,0.1,0.3,0.2
		c0.1,0.1,0.2,0.2,0.2,0.3s0.1,0.3,0.1,0.4c0,0.1,0,0.3-0.1,0.4s-0.1,0.2-0.2,0.3c-0.1,0.1-0.2,0.2-0.3,0.2s-0.3,0.1-0.4,0.1
		s-0.3,0-0.4-0.1s-0.2-0.1-0.3-0.2s-0.2-0.2-0.2-0.3S183.3,99.6,183.3,99.5z"/>
	<path class="st4" d="M187.1,102.8l1.7-0.2l1.1-0.3l0.1,0.2l0,1.1h0c0.6-0.9,1.5-1.4,2.5-1.4c0.2,0,0.4,0,0.6,0
		c0.2,0,0.4,0.1,0.6,0.2c0.2,0.1,0.4,0.3,0.6,0.4c0.2,0.2,0.3,0.4,0.4,0.8c0.1,0.3,0.2,0.7,0.2,1.2v5.2l0.8,0.1v0.3H192v-0.3
		l0.8-0.1v-5.5c0-1.1-0.4-1.7-1.1-1.7c-0.5,0-0.9,0.2-1.2,0.7s-0.5,1-0.5,1.7v4.8l0.8,0.1v0.3h-3.6v-0.3l0.8-0.1v-7.1l-1,0
		L187.1,102.8z"/>
	<path class="st4" d="M196.6,112.6c0-0.3,0.1-0.6,0.2-0.8c0.1-0.2,0.3-0.4,0.5-0.5c0.2-0.1,0.4-0.2,0.6-0.3c0.2-0.1,0.4-0.1,0.5-0.1
		v0c-1-0.3-1.5-0.8-1.5-1.6c0-0.5,0.2-0.9,0.5-1.2c0.3-0.3,0.7-0.6,1.1-0.7v0c-0.5-0.2-0.9-0.5-1.1-1c-0.3-0.4-0.4-0.9-0.4-1.4
		c0-0.8,0.3-1.5,1-2s1.4-0.8,2.4-0.8c0.9,0,1.6,0.2,2.2,0.7c0.4-0.8,1-1.2,1.6-1.2c0.3,0,0.6,0.1,0.7,0.3c0.2,0.2,0.3,0.4,0.3,0.7
		c0,0.2-0.1,0.4-0.2,0.6c-0.1,0.2-0.3,0.2-0.5,0.2c-0.2,0-0.4-0.1-0.6-0.2s-0.2-0.3-0.2-0.6c0-0.2,0-0.3,0.1-0.4v0
		c-0.1,0-0.3,0.1-0.4,0.3s-0.3,0.4-0.4,0.6c0.5,0.5,0.7,1.1,0.7,1.8c0,0.8-0.3,1.5-0.9,2c-0.6,0.5-1.4,0.8-2.3,0.8
		c-0.5,0-1-0.1-1.4-0.2c-0.3,0.1-0.6,0.3-0.8,0.4c-0.2,0.2-0.3,0.3-0.3,0.5c0,0.5,0.9,0.7,2.7,0.7c0.7,0,1.3,0,1.8,0.1
		s0.9,0.2,1.2,0.4c0.3,0.2,0.5,0.4,0.6,0.7c0.1,0.3,0.2,0.7,0.2,1.2c0,0.3,0,0.5-0.1,0.8c-0.1,0.3-0.2,0.5-0.4,0.8
		c-0.2,0.3-0.4,0.5-0.7,0.7s-0.7,0.3-1.1,0.5s-0.9,0.2-1.5,0.2c-0.3,0-0.7,0-1,0c-0.3,0-0.7-0.1-1-0.2c-0.4-0.1-0.7-0.2-0.9-0.3
		c-0.3-0.1-0.5-0.3-0.7-0.6C196.7,113.2,196.6,112.9,196.6,112.6z M198,112.4c0,0.3,0.1,0.6,0.2,0.9c0.2,0.2,0.4,0.4,0.6,0.5
		c0.3,0.1,0.6,0.2,0.9,0.3c0.3,0.1,0.6,0.1,1,0.1c0.8,0,1.5-0.2,2-0.5s0.7-0.7,0.7-1.3c0-0.3-0.1-0.6-0.3-0.8
		c-0.2-0.2-0.5-0.3-0.8-0.4c-0.4-0.1-0.7-0.1-1.1-0.1l-1.3,0c-0.5,0-0.9,0-1.2-0.1l0,0C198.2,111.3,198,111.8,198,112.4z M199,105
		c0,0.8,0.1,1.4,0.3,1.8c0.2,0.4,0.6,0.6,1,0.6c0.9,0,1.3-0.8,1.3-2.4c0-0.8-0.1-1.5-0.3-1.9c-0.2-0.4-0.5-0.6-1-0.6
		c-0.4,0-0.8,0.2-1,0.6C199.1,103.6,199,104.2,199,105z"/>
</g>
<path class="st5" d="M49,107.2"/>
<path class="st5" d="M63.7,120"/>
<path class="st6" d="M63.9,120.2"/>
<path class="st6" d="M63.6,119.9"/>
<g>
	<polygon class="st7" points="69.6,102.6 74.8,107.4 75,107.4 95.4,109.6 	"/>
	<polygon class="st7" points="53.5,26.6 54.2,25.7 67.6,123.6 57.4,114.6 	"/>
</g>
<polygon class="st3" points="95.9,66.8 85,92.6 70.5,100.3 69.3,90.4 76.7,64.7 84.2,35.2 "/>
<polygon class="st7" points="70.5,100.3 75,97.9 84.2,35.2 69.3,90.2 "/>
<path class="st1" d="M84.9,56"/>
<path class="st1" d="M115.6,51.5"/>
<path class="st1" d="M127.6,62"/>
<path class="st2" d="M127.9,62.1"/>
<path class="st2" d="M127.5,61.9"/>
<path class="st5" d="M140.9,71"/>
<path class="st5" d="M155.6,83.8"/>
<path class="st6" d="M155.9,84"/>
<path class="st6" d="M155.5,83.7"/>
<path class="st0" d="M243.8-31.7"/>
<path class="st0" d="M405.1-41.5"/>
<path class="st0" d="M407.3-39.6"/>
<path class="st0" d="M407.3-39.5"/>
<path class="st8" d="M253.6-23.6"/>
<path class="st8" d="M225.8-21.3"/>
<path class="st1" d="M382.9-45.6"/>
<path class="st0" d="M394.8-49.4"/>
<path class="st0" d="M396.6-47.8"/>
<path class="st0" d="M396.6-47.8"/>
<path class="st8" d="M247.6-32.5"/>
<path class="st0" d="M396.2-50.9"/>
<path class="st8" d="M258.5-34.1"/>
<path class="st8" d="M382.5-36.8"/>
<path class="st9" d="M382.5-36.7"/>
<path class="st9" d="M382.4-36.8"/>
<path class="st1" d="M387.2-33.6"/>
<path class="st1" d="M392.4-29"/>
<path class="st2" d="M392.4-38.8"/>
<path class="st8" d="M399.9-51.7"/>
<path class="st0" d="M409.6-51.3"/>
<path class="st0" d="M411.4-49.8"/>
<path class="st0" d="M411.4-49.8"/>
</svg>
