<?xml version="1.0" encoding="utf-8"?>
<!-- Generator: Adobe Illustrator 28.1.0, SVG Export Plug-In . SVG Version: 6.00 Build 0)  -->
<svg version="1.1" xmlns="http://www.w3.org/2000/svg" xmlns:xlink="http://www.w3.org/1999/xlink" x="0px" y="0px"
	 viewBox="0 0 300 150" style="enable-background:new 0 0 300 150;" xml:space="preserve">
<style type="text/css">
	.st0{display:none;}
	.st1{fill:#60A2FF;}
	.st2{fill:#1A6EFF;}
	.st3{fill:#0362E1;}
</style>
<g id="Слой_1" class="st0">
	
		<image style="display:inline;overflow:visible;" width="195" height="139" xlink:href="../png/header-logo.png"  transform="matrix(1.705 0 0 1.705 -20.741 -43)">
	</image>
</g>
<g id="Слой_2">
	<g>
		<polygon class="st1" points="83.5,141.5 40.5,105.5 36.5,36.5 65,3 		"/>
		<polygon class="st1" points="103,14.6 124.7,59 109.7,100 89.2,107.8 86.7,81 102.7,14 		"/>
		<polygon class="st1" points="114.7,138 89.2,111.4 103.6,115.8 		"/>
	</g>
	<g>
		<polygon class="st2" points="68.5,128.9 40.5,105.5 36.5,36.5 62.3,6.2 		"/>
		<polygon class="st2" points="124.7,59 109.7,100 99.8,103.8 103,14.6 		"/>
		<polygon class="st2" points="117.7,120 114.7,138 103.6,115.8 		"/>
	</g>
	<g>
		<path class="st1" d="M155,114c0-0.6,0.1-1.2,0.2-1.8c0.1-0.6,0.4-1.2,0.7-1.7c0.3-0.6,0.7-1.1,1.1-1.5c0.4-0.4,1-0.8,1.6-1
			c0.6-0.3,1.3-0.4,2.1-0.4c1.1,0,2,0.3,2.8,0.9c0.7,0.6,1.1,1.4,1.1,2.2c0,0.4-0.1,0.8-0.4,1.1c-0.3,0.3-0.6,0.4-1.1,0.4
			c-0.4,0-0.8-0.1-1.1-0.4c-0.3-0.3-0.4-0.6-0.4-1.1c0-0.4,0.1-0.7,0.4-1c0.3-0.3,0.6-0.4,1-0.4c0.1,0,0.2,0,0.3,0v-0.1
			c-0.1-0.2-0.2-0.3-0.3-0.4c-0.1-0.1-0.4-0.3-0.7-0.4c-0.3-0.2-0.7-0.2-1.1-0.2c-0.7,0-1.3,0.3-1.7,0.8c-0.5,0.5-0.8,1.2-1,2
			c-0.2,0.8-0.3,1.8-0.3,3c0,3.7,1,5.5,2.9,5.5c0.3,0,0.5,0,0.7-0.1c0.2,0,0.5-0.1,0.8-0.3c0.3-0.1,0.6-0.3,0.9-0.6
			c0.3-0.3,0.6-0.7,0.9-1.1l0.5,0.3c-1,1.8-2.4,2.7-4.2,2.7C156.8,120.3,155,118.2,155,114z"/>
		<path class="st1" d="M166.3,114c0-1.2,0.2-2.3,0.7-3.3c0.5-1,1.1-1.8,2-2.3c0.8-0.6,1.8-0.8,2.9-0.8c0.9,0,1.7,0.2,2.4,0.5
			c0.7,0.4,1.3,0.8,1.7,1.5c0.4,0.6,0.8,1.3,1,2c0.2,0.7,0.3,1.5,0.3,2.3c0,1.2-0.2,2.2-0.7,3.2c-0.4,1-1.1,1.7-1.9,2.3
			c-0.8,0.6-1.8,0.9-2.8,0.9c-0.9,0-1.8-0.2-2.5-0.5c-0.7-0.3-1.3-0.8-1.7-1.4c-0.4-0.6-0.8-1.3-1-2
			C166.4,115.7,166.3,114.9,166.3,114z M169.4,113.8c0,0.9,0,1.7,0.1,2.4c0.1,0.7,0.2,1.3,0.4,1.9c0.2,0.5,0.4,1,0.7,1.2
			c0.3,0.3,0.7,0.4,1.1,0.4c1.6,0,2.4-1.9,2.4-5.7c0-1,0-1.8-0.1-2.5c-0.1-0.7-0.2-1.3-0.4-1.8s-0.4-0.9-0.7-1.2
			c-0.3-0.3-0.7-0.4-1.2-0.4c-0.4,0-0.8,0.1-1.1,0.4c-0.3,0.3-0.6,0.7-0.7,1.2c-0.2,0.5-0.3,1.1-0.4,1.8
			C169.4,112.2,169.4,113,169.4,113.8z"/>
		<path class="st1" d="M178.9,108.4l2.5-0.3l1.7-0.4l0.2,0.3l0,1.6h0c0.9-1.4,2.2-2.1,3.7-2.1c0.3,0,0.6,0,0.8,0.1
			c0.3,0,0.6,0.2,0.9,0.3c0.3,0.2,0.6,0.4,0.8,0.7c0.2,0.3,0.4,0.7,0.6,1.2c0.2,0.5,0.2,1.1,0.2,1.8v7.8l1.2,0.1v0.5h-5.4v-0.5
			l1.2-0.1v-8.1c0-1.7-0.5-2.6-1.6-2.6c-0.7,0-1.3,0.3-1.8,1c-0.5,0.7-0.7,1.5-0.7,2.6v7.1l1.2,0.1v0.5h-5.4v-0.5l1.2-0.1v-10.5
			l-1.4,0L178.9,108.4z"/>
		<path class="st1" d="M197.1,119.7c0.9,0,1.6-0.2,2-0.5s0.7-0.8,0.7-1.3c0-0.3,0-0.5-0.1-0.7s-0.2-0.4-0.4-0.6
			c-0.2-0.2-0.4-0.4-0.7-0.6c-0.3-0.2-0.7-0.4-1.1-0.7c-0.4-0.2-0.8-0.5-1.3-0.7c-0.4-0.3-0.9-0.5-1.2-0.9c-0.4-0.3-0.7-0.7-0.9-1.2
			c-0.3-0.4-0.4-1-0.4-1.6c0-0.5,0.1-1,0.3-1.5c0.2-0.4,0.5-0.8,0.9-1.1c0.4-0.3,0.8-0.5,1.3-0.7c0.5-0.2,1.1-0.3,1.7-0.3
			c0.5,0,0.9,0.1,1.4,0.2c0.5,0.1,0.9,0.3,1.3,0.5c0.4,0.2,0.7,0.5,0.9,0.9c0.2,0.3,0.3,0.7,0.3,1.2c0,0.2,0,0.3-0.1,0.5
			c-0.1,0.2-0.1,0.3-0.3,0.5c-0.1,0.1-0.3,0.2-0.4,0.3c-0.2,0.1-0.4,0.1-0.6,0.1c-0.5,0-0.8-0.1-1-0.4c-0.2-0.3-0.3-0.6-0.3-0.9
			c0-0.2,0-0.4,0.1-0.6c0.1-0.2,0.2-0.3,0.3-0.4c0.1-0.1,0.2-0.2,0.4-0.2c0.1-0.1,0.3-0.1,0.4-0.1h0.1v0c-0.1-0.1-0.2-0.2-0.3-0.4
			c-0.2-0.1-0.3-0.2-0.5-0.3c-0.2-0.1-0.4-0.2-0.7-0.2c-0.3-0.1-0.5-0.1-0.8-0.1c-0.4,0-0.8,0.1-1.1,0.2c-0.3,0.1-0.5,0.3-0.7,0.4
			c-0.2,0.2-0.3,0.4-0.4,0.6c-0.1,0.2-0.1,0.4-0.1,0.6c0,0.2,0,0.4,0.1,0.6c0.1,0.2,0.2,0.3,0.4,0.5c0.2,0.2,0.4,0.4,0.7,0.6
			c0.3,0.2,0.7,0.4,1.2,0.7c0.5,0.2,1,0.5,1.5,0.8c0.5,0.3,1,0.6,1.4,0.9c0.4,0.4,0.8,0.8,1.1,1.2c0.3,0.5,0.4,1,0.4,1.6
			c0,0.5-0.1,1-0.3,1.4c-0.2,0.4-0.5,0.8-0.9,1.1c-0.4,0.3-0.9,0.6-1.6,0.7c-0.6,0.2-1.4,0.3-2.3,0.3c-0.4,0-0.9-0.1-1.3-0.2
			c-0.5-0.1-0.9-0.3-1.3-0.5c-0.4-0.2-0.7-0.5-1-0.9c-0.3-0.4-0.4-0.8-0.4-1.3c0-0.2,0-0.4,0.1-0.6c0.1-0.2,0.2-0.4,0.3-0.6
			c0.1-0.2,0.3-0.3,0.5-0.4s0.4-0.1,0.7-0.1c0.2,0,0.4,0,0.6,0.1c0.2,0.1,0.3,0.2,0.4,0.3c0.1,0.1,0.2,0.3,0.3,0.4
			c0.1,0.2,0.1,0.3,0.1,0.5c0,0.2,0,0.4-0.1,0.6c-0.1,0.2-0.2,0.3-0.3,0.4s-0.3,0.2-0.4,0.3c-0.2,0.1-0.3,0.1-0.5,0.1
			c0,0-0.1,0-0.1,0c0,0-0.1,0-0.1,0v0c0.1,0.2,0.2,0.3,0.3,0.5c0.1,0.2,0.3,0.3,0.5,0.4c0.2,0.1,0.5,0.2,0.8,0.3
			C196.5,119.7,196.8,119.7,197.1,119.7z"/>
		<path class="st1" d="M203.5,108.9v-0.5l2.5-0.3l1.7-0.4l0.2,0.3v8.6c0,0.5,0,0.9,0.1,1.2s0.2,0.6,0.3,0.7c0.1,0.2,0.3,0.3,0.5,0.4
			c0.2,0.1,0.3,0.1,0.4,0.2c0.1,0,0.2,0,0.3,0c0.6,0,1.1-0.4,1.5-1.1c0.5-0.7,0.7-1.6,0.7-2.6v-6.6h-1.5v-0.5l2.5-0.3l1.7-0.4
			l0.2,0.3v11.3l1.2,0.1v0.5h-3.8l-0.4-1.8h0c-0.2,0.3-0.4,0.6-0.6,0.8c-0.2,0.2-0.4,0.4-0.7,0.7c-0.3,0.2-0.6,0.4-1,0.6
			c-0.4,0.1-0.8,0.2-1.2,0.2c-0.3,0-0.6,0-0.8-0.1c-0.3,0-0.6-0.2-0.9-0.3c-0.3-0.2-0.6-0.4-0.9-0.7c-0.2-0.3-0.5-0.7-0.6-1.2
			c-0.2-0.5-0.3-1.1-0.3-1.8v-7.5H203.5z"/>
		<path class="st1" d="M217.2,103.8v-0.5l2.5-0.3l1.7-0.4l0.2,0.3v16.4l1.2,0.1v0.5h-5.4v-0.5l1.2-0.1v-15.5H217.2z"/>
		<path class="st1" d="M223.6,108.4v-0.5h2v-2.6l1-0.1l1.7-0.4l0.2,0.3v2.9h2.6v0.5l-2.6,0.1v8.4c0,0.5,0.1,0.9,0.2,1.2
			c0.1,0.3,0.3,0.5,0.5,0.7c0.2,0.1,0.3,0.2,0.5,0.2c0.1,0,0.2,0,0.4,0c0.2,0,0.5-0.1,0.7-0.2c0.2-0.1,0.4-0.3,0.6-0.5
			c0.2-0.2,0.3-0.4,0.5-0.6c0.1-0.2,0.3-0.4,0.4-0.6l0.5,0.3c-0.4,0.7-0.8,1.2-1.1,1.5c-0.8,0.8-1.6,1.2-2.6,1.2c-0.4,0-0.7,0-1-0.1
			s-0.6-0.2-0.9-0.3c-0.3-0.2-0.6-0.4-0.8-0.7c-0.2-0.3-0.4-0.7-0.5-1.2c-0.1-0.5-0.2-1.1-0.2-1.8v-7.7L223.6,108.4z"/>
		<path class="st1" d="M233.3,108.9v-0.5l2.5-0.3l1.7-0.4l0.2,0.3v11.3l1.2,0.1v0.5h-5.4v-0.5l1.2-0.1v-10.5H233.3z M234.6,103.4
			c0-0.2,0-0.4,0.1-0.6c0.1-0.2,0.2-0.4,0.3-0.5c0.1-0.1,0.3-0.3,0.5-0.3c0.2-0.1,0.4-0.1,0.6-0.1s0.4,0,0.6,0.1
			c0.2,0.1,0.4,0.2,0.5,0.3c0.1,0.1,0.3,0.3,0.3,0.5c0.1,0.2,0.1,0.4,0.1,0.6c0,0.2,0,0.4-0.1,0.6c-0.1,0.2-0.2,0.4-0.3,0.5
			c-0.1,0.1-0.3,0.3-0.5,0.3s-0.4,0.1-0.6,0.1c-0.2,0-0.4,0-0.6-0.1s-0.4-0.2-0.5-0.3c-0.1-0.1-0.3-0.3-0.3-0.5
			C234.6,103.8,234.6,103.6,234.6,103.4z"/>
		<path class="st1" d="M240.3,108.4l2.5-0.3l1.7-0.4l0.2,0.3l0,1.6h0c0.9-1.4,2.2-2.1,3.7-2.1c0.3,0,0.6,0,0.8,0.1
			c0.3,0,0.6,0.2,0.9,0.3c0.3,0.2,0.6,0.4,0.8,0.7c0.2,0.3,0.4,0.7,0.6,1.2c0.2,0.5,0.2,1.1,0.2,1.8v7.8l1.2,0.1v0.5h-5.4v-0.5
			l1.2-0.1v-8.1c0-1.7-0.5-2.6-1.6-2.6c-0.7,0-1.3,0.3-1.8,1c-0.5,0.7-0.7,1.5-0.7,2.6v7.1l1.2,0.1v0.5h-5.4v-0.5l1.2-0.1v-10.5
			l-1.4,0L240.3,108.4z"/>
		<path class="st1" d="M254.3,123c0-0.4,0.1-0.8,0.3-1.2c0.2-0.3,0.5-0.6,0.8-0.8c0.3-0.2,0.6-0.3,0.9-0.4c0.3-0.1,0.5-0.1,0.7-0.1
			v0c-1.5-0.4-2.2-1.2-2.2-2.4c0-0.7,0.2-1.3,0.7-1.8c0.5-0.5,1-0.8,1.6-1v0c-0.7-0.3-1.3-0.8-1.7-1.4c-0.4-0.6-0.6-1.3-0.6-2.1
			c0-1.2,0.5-2.2,1.4-3c1-0.8,2.1-1.2,3.5-1.2c1.3,0,2.4,0.3,3.3,1c0.6-1.2,1.4-1.8,2.3-1.8c0.5,0,0.8,0.1,1.1,0.4
			c0.3,0.3,0.4,0.6,0.4,1c0,0.4-0.1,0.7-0.3,0.9c-0.2,0.2-0.5,0.4-0.8,0.4c-0.4,0-0.7-0.1-0.9-0.3c-0.2-0.2-0.3-0.5-0.3-0.8
			c0-0.2,0-0.4,0.1-0.6v0c-0.2,0-0.4,0.2-0.6,0.4c-0.2,0.3-0.4,0.6-0.5,0.9c0.7,0.8,1.1,1.7,1.1,2.7c0,1.2-0.5,2.2-1.4,2.9
			c-0.9,0.8-2.1,1.1-3.5,1.1c-0.8,0-1.5-0.1-2.1-0.3c-0.5,0.2-0.9,0.4-1.1,0.6c-0.3,0.3-0.4,0.5-0.4,0.8c0,0.7,1.3,1.1,4,1.1
			c1.1,0,2,0.1,2.7,0.2s1.3,0.3,1.7,0.6c0.4,0.3,0.8,0.7,0.9,1.1c0.2,0.5,0.3,1,0.3,1.7c0,0.4-0.1,0.8-0.2,1.2
			c-0.1,0.4-0.3,0.8-0.6,1.1c-0.3,0.4-0.7,0.7-1.1,1c-0.4,0.3-1,0.5-1.6,0.7c-0.7,0.2-1.4,0.3-2.2,0.3c-0.5,0-1,0-1.4-0.1
			c-0.5,0-1-0.1-1.5-0.3c-0.5-0.1-1-0.3-1.4-0.5c-0.4-0.2-0.7-0.5-1-0.8C254.5,123.9,254.3,123.5,254.3,123z M256.5,122.6
			c0,0.5,0.1,0.9,0.4,1.3c0.2,0.4,0.6,0.6,1,0.8c0.4,0.2,0.8,0.3,1.3,0.4c0.4,0.1,0.9,0.1,1.4,0.1c1.2,0,2.2-0.2,2.9-0.7
			c0.7-0.5,1.1-1.1,1.1-1.9c0-0.5-0.1-0.9-0.4-1.2c-0.3-0.3-0.7-0.5-1.2-0.6c-0.5-0.1-1.1-0.1-1.6-0.2l-1.9,0
			c-0.7,0-1.4-0.1-1.8-0.1l0,0C256.8,121.1,256.5,121.8,256.5,122.6z M257.9,111.7c0,1.2,0.2,2,0.5,2.7c0.3,0.6,0.8,0.9,1.5,0.9
			c1.3,0,1.9-1.2,1.9-3.5c0-1.3-0.1-2.2-0.4-2.8c-0.3-0.6-0.8-0.9-1.4-0.9c-0.6,0-1.1,0.3-1.5,0.9
			C258,109.6,257.9,110.5,257.9,111.7z"/>
	</g>
	<g>
		<path class="st3" d="M123.7,98.4v-1l2.7-0.2L137,65.4h1l11,31.7l3,0.2v1h-12v-1l3-0.2l-2.7-8h-10.1l-2.6,8l3,0.2v1H123.7z
			 M130.7,87.7l9.2-0.2l-4.5-13.8h-0.1L130.7,87.7z"/>
		<path class="st3" d="M152.9,77.6v-0.9l4.7-0.5l3.2-0.8l0.3,0.7v3.9h0.1c0.3-0.6,0.7-1.2,1.1-1.8c0.4-0.6,0.9-1.1,1.4-1.5
			c0.5-0.4,1.1-0.8,1.7-1.1c0.6-0.3,1.2-0.4,1.8-0.4c1.2,0,2.1,0.3,2.7,0.9c0.6,0.6,1,1.4,1,2.5c0,0.4-0.1,0.8-0.2,1.2
			c-0.1,0.4-0.3,0.7-0.6,1c-0.2,0.3-0.5,0.5-0.9,0.6c-0.4,0.2-0.7,0.2-1.2,0.2c-0.5,0-0.9-0.1-1.2-0.2c-0.4-0.1-0.7-0.4-0.9-0.6
			c-0.2-0.3-0.4-0.5-0.6-0.9c-0.1-0.3-0.2-0.7-0.2-1.1c0-0.8,0.2-1.4,0.5-1.8v-0.1c-0.5,0.1-1.1,0.4-1.6,0.9c-0.5,0.4-1,1.1-1.4,1.8
			c-0.4,0.8-0.8,1.7-1,2.8c-0.3,1.1-0.4,2.3-0.4,3.7v11.2l2.3,0.2v0.9h-10.1v-0.9l2.3-0.2V77.6H152.9z"/>
		<path class="st3" d="M172.4,77.6v-0.9l4.7-0.5l3.2-0.8l0.3,0.7v3h0.1c1.8-2.6,3.9-3.9,6.4-3.9c0.5,0,1,0.1,1.5,0.2
			c0.5,0.1,1,0.3,1.6,0.6c0.5,0.3,1,0.7,1.5,1.3c0.4,0.6,0.8,1.3,1.1,2.1h0c2-2.8,4.3-4.2,7-4.2c0.5,0,1,0,1.5,0.1
			c0.5,0.1,1,0.3,1.6,0.6c0.6,0.3,1.1,0.8,1.5,1.3c0.4,0.5,0.8,1.3,1.1,2.2c0.3,1,0.4,2.1,0.4,3.3v14.5l2.3,0.2v0.9h-10.1v-0.9
			l2.3-0.2V82c0-0.9-0.1-1.6-0.2-2.3c-0.2-0.6-0.3-1.1-0.5-1.4c-0.2-0.3-0.5-0.6-0.8-0.7c-0.3-0.2-0.5-0.3-0.7-0.3
			c-0.2,0-0.4,0-0.6,0c-1,0-2,0.6-2.9,1.7c-1,1.1-1.4,2.6-1.4,4.6v13.8l2.3,0.2v0.9h-10.1v-0.9l2.3-0.2V82c0-0.9-0.1-1.6-0.2-2.3
			c-0.1-0.6-0.3-1.1-0.5-1.4c-0.2-0.3-0.4-0.6-0.7-0.7c-0.3-0.2-0.5-0.3-0.7-0.3c-0.2,0-0.4,0-0.6,0c-1,0-1.9,0.6-2.8,1.9
			c-0.9,1.3-1.4,2.9-1.4,4.7v13.4l2.3,0.2v0.9h-10.1v-0.9l2.3-0.2V77.6H172.4z"/>
		<path class="st3" d="M209.9,68.1v-0.9l4.7-0.5l3.2-0.8l0.4,0.7V79h0.1c0.9-1.4,1.8-2.4,2.7-3c1-0.5,2.1-0.8,3.5-0.8
			c0.4,0,0.8,0,1.2,0.1c0.4,0.1,0.9,0.2,1.4,0.4c0.5,0.2,1,0.5,1.4,0.8c0.4,0.3,0.9,0.8,1.3,1.4c0.4,0.6,0.8,1.3,1.1,2.1
			c0.3,0.8,0.6,1.8,0.7,3c0.2,1.2,0.3,2.5,0.3,3.9c0,1.7-0.2,3.2-0.5,4.7c-0.4,1.4-0.9,2.7-1.6,3.8c-0.7,1.1-1.6,2-2.8,2.7
			c-1.2,0.6-2.5,1-4,1c-0.8,0-1.7-0.2-2.6-0.6c-0.9-0.4-1.6-1-2.2-1.9l-4.6,2h-0.9V68.1H209.9z M218.1,93.6c0,1.1,0.4,2,1.1,2.9
			c0.7,0.9,1.6,1.3,2.5,1.3c0.6,0,1.1-0.1,1.6-0.4c0.5-0.3,0.9-0.6,1.2-1c0.3-0.4,0.6-0.9,0.8-1.6s0.4-1.3,0.5-1.9
			c0.1-0.6,0.2-1.3,0.3-2.1c0.1-0.8,0.1-1.5,0.1-2.1c0-0.5,0-1.2,0-2c0-2.5-0.2-4.5-0.5-6c-0.3-1.5-0.8-2.5-1.3-3
			c-0.5-0.5-1.2-0.8-2.1-0.8c-1.1,0-2.1,0.6-2.9,1.8c-0.8,1.2-1.2,2.5-1.2,4V93.6z"/>
		<path class="st3" d="M235.1,77.6v-0.9l4.7-0.5l3.2-0.8l0.4,0.7v21.2l2.3,0.2v0.9h-10.1v-0.9l2.3-0.2V77.6H235.1z M237.5,67.4
			c0-0.4,0.1-0.8,0.2-1.2c0.2-0.4,0.4-0.7,0.6-0.9c0.3-0.3,0.6-0.5,0.9-0.6c0.4-0.1,0.7-0.2,1.1-0.2s0.8,0.1,1.1,0.2
			c0.4,0.2,0.7,0.4,1,0.6c0.3,0.3,0.5,0.6,0.7,0.9c0.2,0.4,0.2,0.7,0.2,1.1s-0.1,0.8-0.2,1.1c-0.2,0.4-0.4,0.7-0.6,1
			c-0.3,0.3-0.6,0.5-0.9,0.7c-0.4,0.2-0.7,0.2-1.2,0.2s-0.8-0.1-1.2-0.2c-0.4-0.2-0.7-0.4-0.9-0.6c-0.3-0.3-0.5-0.6-0.6-0.9
			C237.6,68.2,237.5,67.8,237.5,67.4z"/>
		<path class="st3" d="M248.2,97.7L260.4,77l-5.5-0.2h-0.2c-0.6,0-1.2,0.1-1.8,0.4c-0.6,0.3-1,0.6-1.4,1.1c-0.3,0.4-0.6,1-0.8,1.6
			c-0.2,0.6-0.4,1.2-0.4,1.8s-0.1,1.1-0.1,1.8h-0.9v-7.5h17.2l0.4,0.7l-12.7,20.7l6.4,0.2h0.2c0.7,0,1.3-0.1,1.8-0.4
			c0.6-0.3,1.1-0.6,1.4-1.1c0.3-0.4,0.6-1,0.8-1.6c0.2-0.6,0.3-1.2,0.4-1.8c0.1-0.5,0.1-1.1,0.1-1.8h0.9v7.5h-17.8L248.2,97.7z"/>
		<path class="st3" d="M198.8,85.9"/>
		<path class="st3" d="M199.2,86.1"/>
		<path class="st3" d="M198.7,85.8"/>
	</g>
</g>
</svg>
