<?xml version="1.0" encoding="utf-8"?>
<!-- Generator: Adobe Illustrator 28.1.0, SVG Export Plug-In . SVG Version: 6.00 Build 0)  -->
<svg version="1.1" xmlns="http://www.w3.org/2000/svg" xmlns:xlink="http://www.w3.org/1999/xlink" x="0px" y="0px"
	 viewBox="0 0 50 50" style="enable-background:new 0 0 50 50;" xml:space="preserve">
<style type="text/css">
	.st0{fill:#FFFFFF;}
	.st1{fill:#1A6EFF;}
	.st2{fill:none;stroke:#1A6EFF;stroke-width:3;stroke-miterlimit:10;}
	.st3{fill:#FFFFFF;stroke:#1A6EFF;stroke-width:4;stroke-miterlimit:10;}
	.st4{fill:#FFFFFF;stroke:#1A6EFF;stroke-width:3;stroke-linejoin:round;stroke-miterlimit:10;}
	.st5{fill:none;stroke:#60A2FF;stroke-width:3;stroke-miterlimit:10;}
	.st6{fill:none;stroke:#60A2FF;stroke-width:4;stroke-miterlimit:10;}
	.st7{fill:#60A2FF;}
	.st8{fill:#FFFFFF;stroke:#60A2FF;stroke-width:3;stroke-miterlimit:10;}
	.st9{fill:none;stroke:#1A6EFF;stroke-width:4;stroke-miterlimit:10;}
	.st10{fill:url(#SVGID_1_);}
	.st11{fill:none;stroke:#FFFFFF;stroke-width:4;stroke-miterlimit:10;}
	.st12{fill:url(#SVGID_00000070816177950620368180000013456143512776593085_);}
	.st13{fill:url(#SVGID_00000072241706076220291120000012491435682267993251_);}
	.st14{fill:url(#SVGID_00000048492930257220409340000013635675853983784098_);}
	.st15{fill:url(#SVGID_00000129920801359441001560000010768019297830027404_);}
	.st16{fill:none;stroke:#1A6EFF;stroke-linecap:round;stroke-miterlimit:10;}
	.st17{fill:#60A2FF;stroke:#1A6EFF;stroke-linecap:round;stroke-miterlimit:10;}
	.st18{fill:none;stroke:#60A2FF;stroke-width:2;stroke-linecap:round;stroke-miterlimit:10;}
	.st19{fill:#1A6EFF;stroke:#1A6EFF;stroke-linejoin:round;stroke-miterlimit:10;}
	.st20{fill:#FFFFFF;stroke:#1A6EFF;stroke-width:4;stroke-linecap:round;stroke-linejoin:round;stroke-miterlimit:10;}
	.st21{fill:none;stroke:#1A6EFF;stroke-width:4;stroke-linecap:round;stroke-linejoin:round;stroke-miterlimit:10;}
	.st22{fill:#1A6EFF;stroke:#FFFFFF;stroke-width:3;stroke-miterlimit:10;}
	.st23{fill:none;stroke:#FFFFFF;stroke-width:3;stroke-miterlimit:10;}
	.st24{fill:none;stroke:#FFFFFF;stroke-width:4;stroke-linecap:round;stroke-miterlimit:10;}
	.st25{fill:none;stroke:#1A6EFF;stroke-width:3.5;stroke-linejoin:round;stroke-miterlimit:10;}
	.st26{fill:none;stroke:#1A6EFF;stroke-width:3.5;stroke-linecap:round;stroke-linejoin:round;stroke-miterlimit:10;}
	.st27{fill:#FFFFFF;stroke:#1A6EFF;stroke-width:4;stroke-linejoin:round;stroke-miterlimit:10;}
	.st28{fill:none;stroke:#1A6EFF;stroke-width:3;stroke-linecap:round;stroke-linejoin:round;stroke-miterlimit:10;}
	.st29{fill:#60A2FF;stroke:#60A2FF;stroke-linejoin:round;stroke-miterlimit:10;}
	.st30{fill:none;stroke:#60A2FF;stroke-width:3;stroke-linecap:square;stroke-linejoin:round;stroke-miterlimit:10;}
	.st31{fill:#60A2FF;stroke:#FFFFFF;stroke-width:3;stroke-miterlimit:10;}
	.st32{fill:none;stroke:#60A2FF;stroke-width:4;stroke-linecap:round;stroke-linejoin:round;stroke-miterlimit:10;}
	.st33{fill:#60A2FF;stroke:#FFFFFF;stroke-width:4;stroke-miterlimit:10;}
	.st34{fill:none;stroke:#60A2FF;stroke-width:3.5;stroke-linejoin:round;stroke-miterlimit:10;}
</style>
<g id="Названия_монтажных_областей">
	<g>
		<g>
			<path class="st0" d="M393.1-23.4v-6.9L390-25h-0.5l-3.1-5.4v6.9h-0.8V-32h0.9l3.3,5.8L393-32h0.9v8.5H393.1z"/>
			<path class="st0" d="M398.5-23.3c-0.5,0-0.9-0.1-1.3-0.3s-0.7-0.4-1-0.7c-0.3-0.3-0.5-0.6-0.6-1c-0.2-0.4-0.2-0.8-0.2-1.2
				c0-0.4,0.1-0.9,0.2-1.2c0.2-0.4,0.4-0.7,0.6-1c0.3-0.3,0.6-0.5,1-0.7c0.4-0.2,0.8-0.3,1.2-0.3c0.4,0,0.9,0.1,1.2,0.3
				s0.7,0.4,1,0.7c0.3,0.3,0.5,0.6,0.6,1c0.2,0.4,0.2,0.8,0.2,1.2c0,0.4-0.1,0.8-0.2,1.2c-0.2,0.4-0.4,0.7-0.6,1
				c-0.3,0.3-0.6,0.5-1,0.7S399-23.3,398.5-23.3z M396.3-26.5c0,0.5,0.1,0.9,0.3,1.3c0.2,0.4,0.5,0.7,0.8,0.9
				c0.3,0.2,0.7,0.3,1.1,0.3s0.8-0.1,1.1-0.3s0.6-0.5,0.8-0.9c0.2-0.4,0.3-0.8,0.3-1.3c0-0.5-0.1-0.9-0.3-1.3s-0.5-0.7-0.8-0.9
				c-0.3-0.2-0.7-0.3-1.1-0.3s-0.8,0.1-1.1,0.3c-0.3,0.2-0.6,0.5-0.8,0.9C396.4-27.4,396.3-27,396.3-26.5z"/>
			<path class="st0" d="M403-23.4v-6.2h0.8v2.7h3.6v-2.7h0.8v6.2h-0.8v-2.8h-3.6v2.8H403z"/>
			<path class="st0" d="M411.6-23.4v-5.5h-2.2v-0.7h5.3v0.7h-2.2v5.5H411.6z"/>
			<path class="st0" d="M415.2-25.2c0-0.4,0.1-0.7,0.3-1c0.2-0.3,0.5-0.5,0.9-0.7c0.4-0.2,0.9-0.2,1.4-0.2c0.3,0,0.6,0,0.9,0.1
				c0.3,0,0.6,0.1,0.9,0.2v-0.5c0-0.5-0.2-0.9-0.5-1.3c-0.3-0.3-0.7-0.5-1.3-0.5c-0.3,0-0.7,0.1-1,0.2c-0.3,0.1-0.7,0.3-1,0.5
				l-0.3-0.6c0.4-0.3,0.8-0.5,1.2-0.6c0.4-0.1,0.8-0.2,1.2-0.2c0.8,0,1.4,0.2,1.8,0.7c0.4,0.4,0.7,1,0.7,1.8v2.9
				c0,0.1,0,0.2,0.1,0.2s0.1,0.1,0.2,0.1v0.6c-0.1,0-0.2,0-0.2,0c-0.1,0-0.1,0-0.1,0c-0.2,0-0.4-0.1-0.5-0.2
				c-0.1-0.1-0.2-0.2-0.2-0.4l0-0.5c-0.3,0.4-0.6,0.6-1.1,0.8c-0.4,0.2-0.9,0.3-1.4,0.3c-0.4,0-0.8-0.1-1.1-0.3s-0.6-0.4-0.8-0.7
				C415.3-24.6,415.2-24.9,415.2-25.2z M419.4-24.8c0.1-0.1,0.2-0.2,0.2-0.3s0.1-0.2,0.1-0.3v-0.9c-0.3-0.1-0.6-0.2-0.8-0.2
				s-0.6-0.1-0.9-0.1c-0.6,0-1.1,0.1-1.4,0.3c-0.4,0.2-0.5,0.5-0.5,0.9c0,0.2,0.1,0.4,0.2,0.6c0.1,0.2,0.3,0.4,0.5,0.5
				c0.2,0.1,0.5,0.2,0.8,0.2c0.4,0,0.8-0.1,1.1-0.2C419-24.3,419.2-24.5,419.4-24.8z"/>
			<path class="st0" d="M421.8-23.4l2.3-3.2l-2.1-3h0.9l1.9,2.7h0.8v-2.7h0.8v2.7h0.8l1.8-2.7h0.9l-2.1,3l2.4,3.2h-0.9l-2.1-2.8
				h-0.8v2.8h-0.8v-2.8h-0.8l-2.1,2.8H421.8z"/>
			<path class="st0" d="M431.7-23.4v-6.2h0.8v2.7h0.9l2.1-2.7h0.9l-2.4,3l2.7,3.2h-1l-2.4-2.8h-0.9v2.8H431.7z"/>
			<path class="st0" d="M437.5-25.2c0-0.4,0.1-0.7,0.3-1c0.2-0.3,0.5-0.5,0.9-0.7c0.4-0.2,0.9-0.2,1.4-0.2c0.3,0,0.6,0,0.9,0.1
				c0.3,0,0.6,0.1,0.9,0.2v-0.5c0-0.5-0.2-0.9-0.5-1.3c-0.3-0.3-0.7-0.5-1.3-0.5c-0.3,0-0.7,0.1-1,0.2c-0.3,0.1-0.7,0.3-1,0.5
				l-0.3-0.6c0.4-0.3,0.8-0.5,1.2-0.6c0.4-0.1,0.8-0.2,1.2-0.2c0.8,0,1.4,0.2,1.8,0.7c0.4,0.4,0.7,1,0.7,1.8v2.9
				c0,0.1,0,0.2,0.1,0.2s0.1,0.1,0.2,0.1v0.6c-0.1,0-0.2,0-0.2,0c-0.1,0-0.1,0-0.1,0c-0.2,0-0.4-0.1-0.5-0.2
				c-0.1-0.1-0.2-0.2-0.2-0.4l0-0.5c-0.3,0.4-0.6,0.6-1.1,0.8c-0.4,0.2-0.9,0.3-1.4,0.3c-0.4,0-0.8-0.1-1.1-0.3s-0.6-0.4-0.8-0.7
				C437.6-24.6,437.5-24.9,437.5-25.2z M441.7-24.8c0.1-0.1,0.2-0.2,0.2-0.3s0.1-0.2,0.1-0.3v-0.9c-0.3-0.1-0.6-0.2-0.8-0.2
				s-0.6-0.1-0.9-0.1c-0.6,0-1.1,0.1-1.4,0.3c-0.4,0.2-0.5,0.5-0.5,0.9c0,0.2,0.1,0.4,0.2,0.6c0.1,0.2,0.3,0.4,0.5,0.5
				c0.2,0.1,0.5,0.2,0.8,0.2c0.4,0,0.8-0.1,1.1-0.2C441.2-24.3,441.5-24.5,441.7-24.8z"/>
			<path class="st0" d="M453.2-25.8c0,0.5-0.1,0.9-0.4,1.3c-0.3,0.4-0.6,0.7-1.1,0.9c-0.5,0.2-0.9,0.3-1.5,0.3
				c-0.6,0-1.1-0.1-1.5-0.3c-0.4-0.2-0.8-0.5-1-0.9c-0.3-0.4-0.4-0.8-0.4-1.3c0-0.4,0.1-0.7,0.3-1c0.2-0.3,0.4-0.5,0.6-0.7
				s0.5-0.3,0.8-0.4c-0.2-0.1-0.5-0.2-0.7-0.4c-0.2-0.2-0.4-0.4-0.5-0.6c-0.1-0.2-0.2-0.5-0.2-0.8c0-0.4,0.1-0.7,0.2-0.9
				c0.2-0.3,0.4-0.5,0.6-0.7c0.3-0.2,0.5-0.3,0.9-0.4c0.3-0.1,0.6-0.1,1-0.1c0.3,0,0.6,0,0.9,0.1c0.3,0.1,0.6,0.2,0.9,0.4
				s0.5,0.4,0.6,0.7c0.2,0.3,0.2,0.6,0.2,0.9c0,0.3-0.1,0.5-0.2,0.8c-0.1,0.2-0.3,0.4-0.5,0.6s-0.5,0.3-0.7,0.4
				c0.3,0.1,0.6,0.3,0.9,0.5c0.3,0.2,0.5,0.5,0.6,0.8S453.2-26.2,453.2-25.8z M452.4-25.9c0-0.3-0.1-0.5-0.2-0.8s-0.3-0.4-0.5-0.6
				c-0.2-0.2-0.4-0.3-0.7-0.3s-0.5-0.1-0.8-0.1c-0.3,0-0.7,0.1-1,0.2c-0.3,0.1-0.6,0.4-0.8,0.6c-0.2,0.3-0.3,0.6-0.3,1
				c0,0.3,0.1,0.5,0.2,0.7s0.3,0.4,0.5,0.6c0.2,0.2,0.4,0.3,0.7,0.4c0.3,0.1,0.5,0.1,0.8,0.1c0.3,0,0.7-0.1,1-0.2
				c0.3-0.1,0.6-0.4,0.8-0.6S452.4-25.5,452.4-25.9z M448.4-29.8c0,0.3,0.1,0.6,0.3,0.8c0.2,0.2,0.4,0.4,0.7,0.5s0.6,0.2,0.8,0.2
				c0.3,0,0.6-0.1,0.9-0.2c0.3-0.1,0.5-0.3,0.7-0.5c0.2-0.2,0.3-0.5,0.3-0.8c0-0.3-0.1-0.6-0.3-0.8s-0.4-0.4-0.7-0.5
				c-0.3-0.1-0.6-0.2-0.9-0.2c-0.3,0-0.6,0.1-0.9,0.2c-0.3,0.1-0.5,0.3-0.7,0.5S448.4-30.1,448.4-29.8z"/>
			<path class="st0" d="M460.5-26.9c0,0.7-0.1,1.3-0.4,1.9s-0.6,1-1.1,1.3c-0.5,0.3-1,0.5-1.6,0.5c-0.6,0-1.1-0.2-1.5-0.5
				c-0.5-0.3-0.8-0.7-1.1-1.3c-0.3-0.5-0.4-1.2-0.4-1.9c0-0.7,0.1-1.3,0.4-1.9c0.3-0.5,0.6-1,1.1-1.3c0.5-0.3,1-0.5,1.5-0.5
				c0.6,0,1.1,0.2,1.6,0.5c0.5,0.3,0.8,0.7,1.1,1.3C460.3-28.2,460.5-27.6,460.5-26.9z M459.6-26.9c0-0.6-0.1-1-0.3-1.5
				c-0.2-0.4-0.4-0.8-0.8-1s-0.7-0.4-1.1-0.4s-0.8,0.1-1.1,0.4c-0.3,0.2-0.6,0.6-0.8,1c-0.2,0.4-0.3,0.9-0.3,1.5
				c0,0.6,0.1,1,0.3,1.5c0.2,0.4,0.4,0.8,0.8,1c0.3,0.2,0.7,0.4,1.1,0.4s0.8-0.1,1.1-0.4c0.3-0.2,0.6-0.6,0.8-1
				C459.6-25.9,459.6-26.3,459.6-26.9z"/>
			<path class="st0" d="M465.1-23.4v-6.2h0.8v2.7h3.6v-2.7h0.8v6.2h-0.8v-2.8h-3.6v2.8H465.1z"/>
			<path class="st0" d="M471.6-25.2c0-0.4,0.1-0.7,0.3-1c0.2-0.3,0.5-0.5,0.9-0.7c0.4-0.2,0.9-0.2,1.4-0.2c0.3,0,0.6,0,0.9,0.1
				c0.3,0,0.6,0.1,0.9,0.2v-0.5c0-0.5-0.2-0.9-0.5-1.3c-0.3-0.3-0.7-0.5-1.3-0.5c-0.3,0-0.7,0.1-1,0.2c-0.3,0.1-0.7,0.3-1,0.5
				l-0.3-0.6c0.4-0.3,0.8-0.5,1.2-0.6c0.4-0.1,0.8-0.2,1.2-0.2c0.8,0,1.4,0.2,1.8,0.7c0.4,0.4,0.7,1,0.7,1.8v2.9
				c0,0.1,0,0.2,0.1,0.2s0.1,0.1,0.2,0.1v0.6c-0.1,0-0.2,0-0.2,0c-0.1,0-0.1,0-0.1,0c-0.2,0-0.4-0.1-0.5-0.2
				c-0.1-0.1-0.2-0.2-0.2-0.4l0-0.5c-0.3,0.4-0.6,0.6-1.1,0.8c-0.4,0.2-0.9,0.3-1.4,0.3c-0.4,0-0.8-0.1-1.1-0.3s-0.6-0.4-0.8-0.7
				C471.7-24.6,471.6-24.9,471.6-25.2z M475.8-24.8c0.1-0.1,0.2-0.2,0.2-0.3s0.1-0.2,0.1-0.3v-0.9c-0.3-0.1-0.6-0.2-0.8-0.2
				s-0.6-0.1-0.9-0.1c-0.6,0-1.1,0.1-1.4,0.3c-0.4,0.2-0.5,0.5-0.5,0.9c0,0.2,0.1,0.4,0.2,0.6c0.1,0.2,0.3,0.4,0.5,0.5
				c0.2,0.1,0.5,0.2,0.8,0.2c0.4,0,0.8-0.1,1.1-0.2C475.3-24.3,475.6-24.5,475.8-24.8z"/>
			<path class="st0" d="M487.3-25.8c0,0.5-0.1,0.9-0.4,1.3c-0.3,0.4-0.6,0.7-1.1,0.9c-0.5,0.2-0.9,0.3-1.5,0.3
				c-0.6,0-1.1-0.1-1.5-0.3c-0.4-0.2-0.8-0.5-1-0.9c-0.3-0.4-0.4-0.8-0.4-1.3c0-0.4,0.1-0.7,0.3-1c0.2-0.3,0.4-0.5,0.6-0.7
				s0.5-0.3,0.8-0.4c-0.2-0.1-0.5-0.2-0.7-0.4c-0.2-0.2-0.4-0.4-0.5-0.6c-0.1-0.2-0.2-0.5-0.2-0.8c0-0.4,0.1-0.7,0.2-0.9
				c0.2-0.3,0.4-0.5,0.6-0.7c0.3-0.2,0.5-0.3,0.9-0.4c0.3-0.1,0.6-0.1,1-0.1c0.3,0,0.6,0,0.9,0.1c0.3,0.1,0.6,0.2,0.9,0.4
				s0.5,0.4,0.6,0.7c0.2,0.3,0.2,0.6,0.2,0.9c0,0.3-0.1,0.5-0.2,0.8c-0.1,0.2-0.3,0.4-0.5,0.6s-0.5,0.3-0.7,0.4
				c0.3,0.1,0.6,0.3,0.9,0.5c0.3,0.2,0.5,0.5,0.6,0.8S487.3-26.2,487.3-25.8z M486.5-25.9c0-0.3-0.1-0.5-0.2-0.8s-0.3-0.4-0.5-0.6
				c-0.2-0.2-0.4-0.3-0.7-0.3s-0.5-0.1-0.8-0.1c-0.3,0-0.7,0.1-1,0.2c-0.3,0.1-0.6,0.4-0.8,0.6c-0.2,0.3-0.3,0.6-0.3,1
				c0,0.3,0.1,0.5,0.2,0.7s0.3,0.4,0.5,0.6c0.2,0.2,0.4,0.3,0.7,0.4c0.3,0.1,0.5,0.1,0.8,0.1c0.3,0,0.7-0.1,1-0.2
				c0.3-0.1,0.6-0.4,0.8-0.6S486.5-25.5,486.5-25.9z M482.5-29.8c0,0.3,0.1,0.6,0.3,0.8c0.2,0.2,0.4,0.4,0.7,0.5s0.6,0.2,0.8,0.2
				c0.3,0,0.6-0.1,0.9-0.2c0.3-0.1,0.5-0.3,0.7-0.5c0.2-0.2,0.3-0.5,0.3-0.8c0-0.3-0.1-0.6-0.3-0.8s-0.4-0.4-0.7-0.5
				c-0.3-0.1-0.6-0.2-0.9-0.2c-0.3,0-0.6,0.1-0.9,0.2c-0.3,0.1-0.5,0.3-0.7,0.5S482.5-30.1,482.5-29.8z"/>
			<path class="st0" d="M494.6-26.9c0,0.7-0.1,1.3-0.4,1.9s-0.6,1-1.1,1.3c-0.5,0.3-1,0.5-1.6,0.5c-0.6,0-1.1-0.2-1.5-0.5
				c-0.5-0.3-0.8-0.7-1.1-1.3c-0.3-0.5-0.4-1.2-0.4-1.9c0-0.7,0.1-1.3,0.4-1.9c0.3-0.5,0.6-1,1.1-1.3c0.5-0.3,1-0.5,1.5-0.5
				c0.6,0,1.1,0.2,1.6,0.5c0.5,0.3,0.8,0.7,1.1,1.3C494.5-28.2,494.6-27.6,494.6-26.9z M493.8-26.9c0-0.6-0.1-1-0.3-1.5
				c-0.2-0.4-0.4-0.8-0.8-1s-0.7-0.4-1.1-0.4s-0.8,0.1-1.1,0.4c-0.3,0.2-0.6,0.6-0.8,1c-0.2,0.4-0.3,0.9-0.3,1.5
				c0,0.6,0.1,1,0.3,1.5c0.2,0.4,0.4,0.8,0.8,1c0.3,0.2,0.7,0.4,1.1,0.4s0.8-0.1,1.1-0.4c0.3-0.2,0.6-0.6,0.8-1
				C493.7-25.9,493.8-26.3,493.8-26.9z"/>
		</g>
	</g>
	<g>
		<g>
			<path class="st0" d="M-17.9-6.4v-6.9L-21-8h-0.5l-3.1-5.4v6.9h-0.8V-15h0.9l3.3,5.8L-18-15h0.9v8.5H-17.9z"/>
			<path class="st0" d="M-12.5-6.3c-0.5,0-0.9-0.1-1.3-0.3s-0.7-0.4-1-0.7c-0.3-0.3-0.5-0.6-0.6-1c-0.2-0.4-0.2-0.8-0.2-1.2
				c0-0.4,0.1-0.9,0.2-1.2c0.2-0.4,0.4-0.7,0.6-1c0.3-0.3,0.6-0.5,1-0.7s0.8-0.3,1.2-0.3c0.4,0,0.9,0.1,1.2,0.3s0.7,0.4,1,0.7
				c0.3,0.3,0.5,0.6,0.6,1c0.2,0.4,0.2,0.8,0.2,1.2c0,0.4-0.1,0.8-0.2,1.2c-0.2,0.4-0.4,0.7-0.6,1c-0.3,0.3-0.6,0.5-1,0.7
				S-12-6.3-12.5-6.3z M-14.7-9.5c0,0.5,0.1,0.9,0.3,1.3c0.2,0.4,0.5,0.7,0.8,0.9c0.3,0.2,0.7,0.3,1.1,0.3s0.8-0.1,1.1-0.3
				c0.3-0.2,0.6-0.5,0.8-0.9c0.2-0.4,0.3-0.8,0.3-1.3c0-0.5-0.1-0.9-0.3-1.3c-0.2-0.4-0.5-0.7-0.8-0.9c-0.3-0.2-0.7-0.3-1.1-0.3
				s-0.8,0.1-1.1,0.3c-0.3,0.2-0.6,0.5-0.8,0.9C-14.6-10.4-14.7-10-14.7-9.5z"/>
			<path class="st0" d="M-8-6.4v-6.2h0.8v2.7h3.6v-2.7h0.8v6.2h-0.8v-2.8h-3.6v2.8H-8z"/>
			<path class="st0" d="M0.6-6.4v-5.5h-2.2v-0.7h5.3v0.7H1.4v5.5H0.6z"/>
			<path class="st0" d="M4.2-8.2c0-0.4,0.1-0.7,0.3-1c0.2-0.3,0.5-0.5,0.9-0.7c0.4-0.2,0.9-0.2,1.4-0.2c0.3,0,0.6,0,0.9,0.1
				c0.3,0,0.6,0.1,0.9,0.2v-0.5c0-0.5-0.2-0.9-0.5-1.3c-0.3-0.3-0.7-0.5-1.3-0.5c-0.3,0-0.7,0.1-1,0.2c-0.3,0.1-0.7,0.3-1,0.5
				l-0.3-0.6c0.4-0.3,0.8-0.5,1.2-0.6c0.4-0.1,0.8-0.2,1.2-0.2c0.8,0,1.4,0.2,1.8,0.7c0.4,0.4,0.7,1,0.7,1.8v2.9
				c0,0.1,0,0.2,0.1,0.2s0.1,0.1,0.2,0.1v0.6c-0.1,0-0.2,0-0.2,0c-0.1,0-0.1,0-0.1,0C9.2-6.4,9.1-6.5,9-6.6C8.9-6.7,8.8-6.9,8.8-7
				l0-0.5C8.5-7.1,8.2-6.8,7.7-6.6C7.3-6.4,6.8-6.3,6.3-6.3c-0.4,0-0.8-0.1-1.1-0.3S4.7-7,4.5-7.3C4.3-7.6,4.2-7.9,4.2-8.2z
				 M8.4-7.8C8.5-7.9,8.6-8,8.6-8.1s0.1-0.2,0.1-0.3v-0.9C8.4-9.4,8.1-9.4,7.8-9.5S7.3-9.6,7-9.6c-0.6,0-1.1,0.1-1.4,0.3
				C5.2-9,5-8.7,5-8.3c0,0.2,0.1,0.4,0.2,0.6c0.1,0.2,0.3,0.4,0.5,0.5C5.9-7,6.2-6.9,6.5-6.9c0.4,0,0.8-0.1,1.1-0.2
				C8-7.3,8.2-7.5,8.4-7.8z"/>
			<path class="st0" d="M10.8-6.4l2.3-3.2l-2.1-3H12l1.9,2.7h0.8v-2.7h0.8v2.7h0.8l1.8-2.7h0.9l-2.1,3l2.4,3.2h-0.9l-2.1-2.8h-0.8
				v2.8h-0.8v-2.8h-0.8l-2.1,2.8H10.8z"/>
			<path class="st0" d="M20.7-6.4v-6.2h0.8v2.7h0.9l2.1-2.7h0.9l-2.4,3l2.7,3.2h-1l-2.4-2.8h-0.9v2.8H20.7z"/>
			<path class="st0" d="M26.5-8.2c0-0.4,0.1-0.7,0.3-1c0.2-0.3,0.5-0.5,0.9-0.7c0.4-0.2,0.9-0.2,1.4-0.2c0.3,0,0.6,0,0.9,0.1
				c0.3,0,0.6,0.1,0.9,0.2v-0.5c0-0.5-0.2-0.9-0.5-1.3c-0.3-0.3-0.7-0.5-1.3-0.5c-0.3,0-0.7,0.1-1,0.2c-0.3,0.1-0.7,0.3-1,0.5
				l-0.3-0.6c0.4-0.3,0.8-0.5,1.2-0.6c0.4-0.1,0.8-0.2,1.2-0.2c0.8,0,1.4,0.2,1.8,0.7c0.4,0.4,0.7,1,0.7,1.8v2.9
				c0,0.1,0,0.2,0.1,0.2s0.1,0.1,0.2,0.1v0.6c-0.1,0-0.2,0-0.2,0c-0.1,0-0.1,0-0.1,0c-0.2,0-0.4-0.1-0.5-0.2
				c-0.1-0.1-0.2-0.2-0.2-0.4l0-0.5c-0.3,0.4-0.6,0.6-1.1,0.8c-0.4,0.2-0.9,0.3-1.4,0.3c-0.4,0-0.8-0.1-1.1-0.3S26.9-7,26.7-7.3
				C26.6-7.6,26.5-7.9,26.5-8.2z M30.7-7.8c0.1-0.1,0.2-0.2,0.2-0.3s0.1-0.2,0.1-0.3v-0.9c-0.3-0.1-0.6-0.2-0.8-0.2
				s-0.6-0.1-0.9-0.1c-0.6,0-1.1,0.1-1.4,0.3c-0.4,0.2-0.5,0.5-0.5,0.9c0,0.2,0.1,0.4,0.2,0.6c0.1,0.2,0.3,0.4,0.5,0.5
				c0.2,0.1,0.5,0.2,0.8,0.2c0.4,0,0.8-0.1,1.1-0.2C30.2-7.3,30.5-7.5,30.7-7.8z"/>
			<path class="st0" d="M38.8-4.7c-0.6,0-1.1-0.1-1.6-0.5c-0.5-0.3-0.9-0.7-1.1-1.2l0.5-0.4c0.2,0.4,0.5,0.7,0.9,0.9
				c0.4,0.2,0.8,0.4,1.3,0.4c0.4,0,0.8-0.1,1.1-0.3c0.3-0.2,0.6-0.4,0.8-0.7c0.2-0.3,0.3-0.7,0.3-1.1c0-0.4-0.1-0.7-0.3-1
				c-0.2-0.3-0.4-0.5-0.7-0.7c-0.3-0.2-0.7-0.3-1-0.3c-0.4,0-0.7,0.1-1.1,0.2C37.5-9,37.2-8.8,37-8.5h-0.8l0.9-4.8h4.1v0.8h-3.5
				l-0.6,3.1c0.2-0.2,0.5-0.4,0.8-0.5s0.6-0.2,1-0.2c0.5,0,1,0.1,1.4,0.3s0.8,0.6,1,1c0.2,0.4,0.4,0.9,0.4,1.4
				c0,0.6-0.1,1.1-0.4,1.5c-0.3,0.4-0.6,0.8-1.1,1C39.9-4.8,39.4-4.7,38.8-4.7z"/>
			<path class="st0" d="M48.9-9.9c0,0.7-0.1,1.3-0.4,1.9s-0.6,1-1.1,1.3c-0.5,0.3-1,0.5-1.6,0.5c-0.6,0-1.1-0.2-1.5-0.5
				c-0.5-0.3-0.8-0.7-1.1-1.3c-0.3-0.5-0.4-1.2-0.4-1.9c0-0.7,0.1-1.3,0.4-1.9c0.3-0.5,0.6-1,1.1-1.3c0.5-0.3,1-0.5,1.5-0.5
				c0.6,0,1.1,0.2,1.6,0.5c0.5,0.3,0.8,0.7,1.1,1.3C48.8-11.2,48.9-10.6,48.9-9.9z M48.1-9.9c0-0.6-0.1-1-0.3-1.5
				c-0.2-0.4-0.4-0.8-0.8-1s-0.7-0.4-1.1-0.4s-0.8,0.1-1.1,0.4c-0.3,0.2-0.6,0.6-0.8,1c-0.2,0.4-0.3,0.9-0.3,1.5
				c0,0.6,0.1,1,0.3,1.5c0.2,0.4,0.4,0.8,0.8,1c0.3,0.2,0.7,0.4,1.1,0.4s0.8-0.1,1.1-0.4c0.3-0.2,0.6-0.6,0.8-1
				C48-8.9,48.1-9.3,48.1-9.9z"/>
			<path class="st0" d="M53.5-6.4v-6.2h0.8v2.7h3.6v-2.7h0.8v6.2h-0.8v-2.8h-3.6v2.8H53.5z"/>
			<path class="st0" d="M60-8.2c0-0.4,0.1-0.7,0.3-1c0.2-0.3,0.5-0.5,0.9-0.7c0.4-0.2,0.9-0.2,1.4-0.2c0.3,0,0.6,0,0.9,0.1
				c0.3,0,0.6,0.1,0.9,0.2v-0.5c0-0.5-0.2-0.9-0.5-1.3c-0.3-0.3-0.7-0.5-1.3-0.5c-0.3,0-0.7,0.1-1,0.2c-0.3,0.1-0.7,0.3-1,0.5
				l-0.3-0.6c0.4-0.3,0.8-0.5,1.2-0.6c0.4-0.1,0.8-0.2,1.2-0.2c0.8,0,1.4,0.2,1.8,0.7c0.4,0.4,0.7,1,0.7,1.8v2.9
				c0,0.1,0,0.2,0.1,0.2s0.1,0.1,0.2,0.1v0.6c-0.1,0-0.2,0-0.2,0c-0.1,0-0.1,0-0.1,0c-0.2,0-0.4-0.1-0.5-0.2
				c-0.1-0.1-0.2-0.2-0.2-0.4l0-0.5c-0.3,0.4-0.6,0.6-1.1,0.8c-0.4,0.2-0.9,0.3-1.4,0.3c-0.4,0-0.8-0.1-1.1-0.3S60.5-7,60.3-7.3
				C60.1-7.6,60-7.9,60-8.2z M64.2-7.8c0.1-0.1,0.2-0.2,0.2-0.3s0.1-0.2,0.1-0.3v-0.9c-0.3-0.1-0.6-0.2-0.8-0.2S63-9.6,62.7-9.6
				c-0.6,0-1.1,0.1-1.4,0.3C61-9,60.8-8.7,60.8-8.3c0,0.2,0.1,0.4,0.2,0.6c0.1,0.2,0.3,0.4,0.5,0.5C61.7-7,62-6.9,62.3-6.9
				c0.4,0,0.8-0.1,1.1-0.2C63.8-7.3,64-7.5,64.2-7.8z"/>
			<path class="st0" d="M72.4-4.7c-0.6,0-1.1-0.1-1.6-0.5c-0.5-0.3-0.9-0.7-1.1-1.2l0.5-0.4c0.2,0.4,0.5,0.7,0.9,0.9
				c0.4,0.2,0.8,0.4,1.3,0.4c0.4,0,0.8-0.1,1.1-0.3c0.3-0.2,0.6-0.4,0.8-0.7c0.2-0.3,0.3-0.7,0.3-1.1c0-0.4-0.1-0.7-0.3-1
				C74-8.8,73.8-9,73.5-9.2c-0.3-0.2-0.7-0.3-1-0.3c-0.4,0-0.7,0.1-1.1,0.2c-0.3,0.2-0.6,0.4-0.8,0.7h-0.8l0.9-4.8h4.1v0.8h-3.5
				l-0.6,3.1c0.2-0.2,0.5-0.4,0.8-0.5s0.6-0.2,1-0.2c0.5,0,1,0.1,1.4,0.3s0.8,0.6,1,1c0.2,0.4,0.4,0.9,0.4,1.4
				c0,0.6-0.1,1.1-0.4,1.5c-0.3,0.4-0.6,0.8-1.1,1C73.4-4.8,72.9-4.7,72.4-4.7z"/>
			<path class="st0" d="M82.4-9.9c0,0.7-0.1,1.3-0.4,1.9s-0.6,1-1.1,1.3c-0.5,0.3-1,0.5-1.6,0.5c-0.6,0-1.1-0.2-1.5-0.5
				c-0.5-0.3-0.8-0.7-1.1-1.3c-0.3-0.5-0.4-1.2-0.4-1.9c0-0.7,0.1-1.3,0.4-1.9c0.3-0.5,0.6-1,1.1-1.3c0.5-0.3,1-0.5,1.5-0.5
				c0.6,0,1.1,0.2,1.6,0.5c0.5,0.3,0.8,0.7,1.1,1.3C82.3-11.2,82.4-10.6,82.4-9.9z M81.6-9.9c0-0.6-0.1-1-0.3-1.5
				c-0.2-0.4-0.4-0.8-0.8-1s-0.7-0.4-1.1-0.4s-0.8,0.1-1.1,0.4c-0.3,0.2-0.6,0.6-0.8,1c-0.2,0.4-0.3,0.9-0.3,1.5
				c0,0.6,0.1,1,0.3,1.5c0.2,0.4,0.4,0.8,0.8,1c0.3,0.2,0.7,0.4,1.1,0.4s0.8-0.1,1.1-0.4c0.3-0.2,0.6-0.6,0.8-1
				C81.5-8.9,81.6-9.3,81.6-9.9z"/>
		</g>
	</g>
	<g>
		<g>
			<path class="st0" d="M-13-195.4v-8.5h0.8v7.4l5.3-7.4h0.8v8.5H-7v-7.2l-5.2,7.2H-13z"/>
			<path class="st0" d="M-4.1-195.4v-6.2h0.8v2.7h0.9l2.1-2.7h0.9l-2.4,3l2.7,3.2H0l-2.4-2.8h-0.9v2.8H-4.1z"/>
			<path class="st0" d="M4.8-195.3c-0.5,0-0.9-0.1-1.3-0.3s-0.7-0.4-1-0.7c-0.3-0.3-0.5-0.6-0.6-1c-0.2-0.4-0.2-0.8-0.2-1.2
				c0-0.4,0.1-0.9,0.2-1.2c0.2-0.4,0.4-0.7,0.6-1c0.3-0.3,0.6-0.5,1-0.7s0.8-0.3,1.2-0.3c0.4,0,0.9,0.1,1.2,0.3s0.7,0.4,1,0.7
				c0.3,0.3,0.5,0.6,0.6,1c0.2,0.4,0.2,0.8,0.2,1.2c0,0.4-0.1,0.8-0.2,1.2c-0.2,0.4-0.4,0.7-0.6,1c-0.3,0.3-0.6,0.5-1,0.7
				S5.2-195.3,4.8-195.3z M2.5-198.5c0,0.5,0.1,0.9,0.3,1.3c0.2,0.4,0.5,0.7,0.8,0.9c0.3,0.2,0.7,0.3,1.1,0.3s0.8-0.1,1.1-0.3
				c0.3-0.2,0.6-0.5,0.8-0.9c0.2-0.4,0.3-0.8,0.3-1.3c0-0.5-0.1-0.9-0.3-1.3c-0.2-0.4-0.5-0.7-0.8-0.9c-0.3-0.2-0.7-0.3-1.1-0.3
				s-0.8,0.1-1.1,0.3c-0.3,0.2-0.6,0.5-0.8,0.9C2.6-199.4,2.5-199,2.5-198.5z"/>
			<path class="st0" d="M9.2-195.4v-6.2h0.8v2.7h3.6v-2.7h0.8v6.2h-0.8v-2.8h-3.6v2.8H9.2z"/>
			<path class="st0" d="M16.2-195.4v-6.2h0.8v2.7H18l2.1-2.7H21l-2.4,3l2.7,3.2h-1l-2.4-2.8h-0.9v2.8H16.2z"/>
			<path class="st0" d="M22.5-195.4v-6.2h0.8v5.1l3.8-5.1h0.7v6.2H27v-5l-3.7,5H22.5z"/>
			<path class="st0" d="M32-194v-2.2h0.1c0.2,0,0.4-0.1,0.5-0.2c0.2-0.1,0.3-0.3,0.4-0.6s0.2-0.7,0.3-1.2s0.1-1.1,0.2-1.9l0.1-1.7
				h4.1v5.5h0.8v2.2h-0.7v-1.5h-5v1.5H32z M33.3-196.2h3.4v-4.8h-2.5l0,1.1c0,0.7-0.1,1.4-0.2,1.9c-0.1,0.5-0.2,0.9-0.3,1.2
				C33.6-196.5,33.5-196.3,33.3-196.2z"/>
			<path class="st0" d="M39-195.4v-0.7c0.2,0,0.4-0.1,0.6-0.2s0.3-0.3,0.5-0.6s0.2-0.7,0.3-1.1s0.1-1.1,0.2-1.9l0.1-1.7h4.1v6.2
				h-0.8v-5.5h-2.5l0,1.1c0,0.9-0.1,1.6-0.2,2.1c-0.1,0.6-0.2,1-0.4,1.4s-0.4,0.6-0.7,0.7C39.7-195.5,39.4-195.4,39-195.4z"/>
			<path class="st0" d="M46-195.4l1.9-2.5c-0.4-0.1-0.8-0.2-1-0.6c-0.3-0.3-0.4-0.7-0.4-1.3c0-0.4,0.1-0.7,0.3-1
				c0.2-0.3,0.4-0.5,0.7-0.7c0.3-0.2,0.7-0.3,1.1-0.3h2.4v6.2h-0.8v-2.4h-1.4l-1.8,2.4H46z M48.5-198.5h1.6v-2.5h-1.4
				c-0.4,0-0.7,0.1-1,0.4c-0.2,0.2-0.4,0.5-0.4,0.9c0,0.4,0.1,0.7,0.3,0.9C47.8-198.6,48.1-198.5,48.5-198.5z"/>
			<path class="st0" d="M55.7-195.4v-6.2h0.8v2.7h0.9l2.1-2.7h0.9l-2.4,3l2.7,3.2h-1l-2.4-2.8h-0.9v2.8H55.7z"/>
			<path class="st0" d="M61.5-197.2c0-0.4,0.1-0.7,0.3-1c0.2-0.3,0.5-0.5,0.9-0.7c0.4-0.2,0.9-0.2,1.4-0.2c0.3,0,0.6,0,0.9,0.1
				c0.3,0,0.6,0.1,0.9,0.2v-0.5c0-0.5-0.2-0.9-0.5-1.3c-0.3-0.3-0.7-0.5-1.3-0.5c-0.3,0-0.7,0.1-1,0.2c-0.3,0.1-0.7,0.3-1,0.5
				l-0.3-0.6c0.4-0.3,0.8-0.5,1.2-0.6c0.4-0.1,0.8-0.2,1.2-0.2c0.8,0,1.4,0.2,1.8,0.7c0.4,0.4,0.7,1,0.7,1.8v2.9
				c0,0.1,0,0.2,0.1,0.2s0.1,0.1,0.2,0.1v0.6c-0.1,0-0.2,0-0.2,0c-0.1,0-0.1,0-0.1,0c-0.2,0-0.4-0.1-0.5-0.2
				c-0.1-0.1-0.2-0.2-0.2-0.4l0-0.5c-0.3,0.4-0.6,0.6-1.1,0.8c-0.4,0.2-0.9,0.3-1.4,0.3c-0.4,0-0.8-0.1-1.1-0.3s-0.6-0.4-0.8-0.7
				C61.6-196.6,61.5-196.9,61.5-197.2z M65.7-196.8c0.1-0.1,0.2-0.2,0.2-0.3s0.1-0.2,0.1-0.3v-0.9c-0.3-0.1-0.6-0.2-0.8-0.2
				s-0.6-0.1-0.9-0.1c-0.6,0-1.1,0.1-1.4,0.3c-0.4,0.2-0.5,0.5-0.5,0.9c0,0.2,0.1,0.4,0.2,0.6c0.1,0.2,0.3,0.4,0.5,0.5
				c0.2,0.1,0.5,0.2,0.8,0.2c0.4,0,0.8-0.1,1.1-0.2C65.2-196.3,65.5-196.5,65.7-196.8z"/>
			<path class="st0" d="M71.7-195.3c-0.5,0-1-0.1-1.4-0.4c-0.4-0.3-0.7-0.6-1-1v3.8h-0.8v-8.8h0.7v1.2c0.2-0.4,0.6-0.7,1-0.9
				s0.9-0.4,1.3-0.4c0.4,0,0.8,0.1,1.2,0.3c0.4,0.2,0.7,0.4,0.9,0.7s0.5,0.6,0.6,1c0.1,0.4,0.2,0.8,0.2,1.2c0,0.6-0.1,1.1-0.4,1.6
				c-0.2,0.5-0.6,0.9-1,1.2C72.8-195.5,72.3-195.3,71.7-195.3z M71.5-196c0.3,0,0.7-0.1,0.9-0.2c0.3-0.1,0.5-0.3,0.7-0.6
				c0.2-0.2,0.3-0.5,0.5-0.8c0.1-0.3,0.2-0.6,0.2-0.9c0-0.3-0.1-0.7-0.2-1s-0.3-0.6-0.5-0.8c-0.2-0.2-0.5-0.4-0.7-0.5
				c-0.3-0.1-0.6-0.2-0.9-0.2c-0.2,0-0.4,0-0.6,0.1c-0.2,0.1-0.4,0.2-0.6,0.3c-0.2,0.1-0.4,0.3-0.5,0.5s-0.2,0.4-0.3,0.6v1.9
				c0.1,0.3,0.3,0.6,0.5,0.8c0.2,0.2,0.5,0.4,0.8,0.6C70.9-196.1,71.2-196,71.5-196z"/>
			<path class="st0" d="M77.5-195.4v-5.5h-2.2v-0.7h5.3v0.7h-2.2v5.5H77.5z"/>
			<path class="st0" d="M84.3-195.3c-0.5,0-0.9-0.1-1.3-0.3s-0.7-0.4-1-0.7c-0.3-0.3-0.5-0.6-0.6-1c-0.2-0.4-0.2-0.8-0.2-1.2
				c0-0.4,0.1-0.9,0.2-1.2c0.2-0.4,0.4-0.7,0.6-1s0.6-0.5,1-0.7s0.8-0.3,1.2-0.3s0.9,0.1,1.2,0.3s0.7,0.4,1,0.7s0.5,0.6,0.6,1
				c0.2,0.4,0.2,0.8,0.2,1.2c0,0.4-0.1,0.8-0.2,1.2c-0.2,0.4-0.4,0.7-0.6,1c-0.3,0.3-0.6,0.5-1,0.7
				C85.2-195.4,84.8-195.3,84.3-195.3z M82-198.5c0,0.5,0.1,0.9,0.3,1.3c0.2,0.4,0.5,0.7,0.8,0.9c0.3,0.2,0.7,0.3,1.1,0.3
				c0.4,0,0.8-0.1,1.1-0.3s0.6-0.5,0.8-0.9c0.2-0.4,0.3-0.8,0.3-1.3c0-0.5-0.1-0.9-0.3-1.3s-0.5-0.7-0.8-0.9
				c-0.3-0.2-0.7-0.3-1.1-0.3c-0.4,0-0.8,0.1-1.1,0.3c-0.3,0.2-0.6,0.5-0.8,0.9C82.1-199.4,82-199,82-198.5z"/>
			<path class="st0" d="M92.4-195.4v-2.6c-0.3,0.1-0.5,0.2-0.8,0.3s-0.6,0.1-0.9,0.1c-0.7,0-1.2-0.2-1.6-0.5
				c-0.3-0.4-0.5-0.9-0.5-1.6v-1.8h0.8v1.7c0,0.6,0.1,1,0.3,1.2c0.2,0.3,0.6,0.4,1.1,0.4c0.3,0,0.6,0,0.8-0.1
				c0.3-0.1,0.5-0.1,0.7-0.3v-3h0.8v6.2H92.4z"/>
			<path class="st0" d="M97.7-195.3c-0.4,0-0.9-0.1-1.2-0.3c-0.4-0.2-0.7-0.4-1-0.7c-0.3-0.3-0.5-0.6-0.7-1s-0.2-0.8-0.2-1.3
				c0-0.6,0.1-1.1,0.4-1.6c0.3-0.5,0.6-0.9,1.1-1.2c0.5-0.3,1-0.4,1.6-0.4c0.6,0,1.2,0.1,1.6,0.4s0.8,0.7,1.1,1.2
				c0.3,0.5,0.4,1,0.4,1.6c0,0.1,0,0.1,0,0.2s0,0.1,0,0.1h-5.4c0,0.4,0.2,0.8,0.4,1.2s0.5,0.6,0.8,0.8c0.3,0.2,0.7,0.3,1.1,0.3
				c0.4,0,0.8-0.1,1.2-0.3s0.6-0.5,0.8-0.8l0.7,0.2c-0.1,0.3-0.3,0.6-0.6,0.8c-0.3,0.2-0.6,0.4-0.9,0.6
				C98.5-195.4,98.1-195.3,97.7-195.3z M95.4-198.9h4.6c0-0.5-0.2-0.8-0.4-1.2c-0.2-0.3-0.5-0.6-0.8-0.8s-0.7-0.3-1.1-0.3
				c-0.4,0-0.8,0.1-1.1,0.3s-0.6,0.5-0.8,0.8C95.5-199.7,95.4-199.3,95.4-198.9z"/>
			<path class="st0" d="M102-195.4v-6.2h0.8v2.7h0.9l2.1-2.7h0.9l-2.4,3l2.7,3.2h-1l-2.4-2.8h-0.9v2.8H102z"/>
			<path class="st0" d="M112-192.9c-0.1,0-0.3,0-0.4-0.1c-0.1,0-0.3-0.1-0.4-0.2l0.3-0.6c0.1,0,0.2,0.1,0.2,0.1c0.1,0,0.2,0,0.2,0
				c0.2,0,0.4-0.1,0.6-0.3c0.2-0.2,0.4-0.5,0.5-0.9l0.3-0.8l-2.8-6.1h0.9l2.3,5.4l2.1-5.4h0.8l-3,7.2c-0.2,0.4-0.3,0.7-0.5,0.9
				c-0.2,0.2-0.4,0.4-0.6,0.5C112.4-192.9,112.2-192.9,112-192.9z"/>
			<path class="st0" d="M120.5-195.3c-0.5,0-0.9-0.1-1.3-0.3c-0.4-0.2-0.7-0.4-1-0.7c-0.3-0.3-0.5-0.6-0.7-1s-0.2-0.8-0.2-1.2
				c0-0.6,0.1-1.1,0.4-1.6c0.3-0.5,0.6-0.9,1.1-1.2c0.5-0.3,1-0.4,1.6-0.4c0.6,0,1.1,0.1,1.5,0.4c0.4,0.3,0.8,0.6,1,1.1l-0.8,0.3
				c-0.2-0.3-0.4-0.6-0.7-0.8c-0.3-0.2-0.7-0.3-1-0.3c-0.4,0-0.8,0.1-1.1,0.3s-0.6,0.5-0.8,0.9c-0.2,0.4-0.3,0.8-0.3,1.3
				c0,0.5,0.1,0.9,0.3,1.3c0.2,0.4,0.5,0.7,0.8,0.9c0.3,0.2,0.7,0.3,1.1,0.3c0.3,0,0.5,0,0.8-0.1c0.3-0.1,0.5-0.2,0.7-0.4
				c0.2-0.2,0.3-0.3,0.4-0.5l0.8,0.2c-0.1,0.3-0.3,0.6-0.6,0.8c-0.3,0.2-0.6,0.4-0.9,0.6C121.3-195.4,120.9-195.3,120.5-195.3z"/>
			<path class="st0" d="M123.8-195.4v-0.7c0.2,0,0.4-0.1,0.6-0.2s0.3-0.3,0.5-0.6s0.2-0.7,0.3-1.1s0.1-1.1,0.2-1.9l0.1-1.7h4.1v6.2
				h-0.8v-5.5h-2.5l0,1.1c0,0.9-0.1,1.6-0.2,2.1c-0.1,0.6-0.2,1-0.4,1.4c-0.2,0.3-0.4,0.6-0.7,0.7
				C124.5-195.5,124.2-195.4,123.8-195.4z"/>
			<path class="st0" d="M131.9-192.9c-0.1,0-0.3,0-0.4-0.1c-0.1,0-0.3-0.1-0.4-0.2l0.3-0.6c0.1,0,0.2,0.1,0.2,0.1c0.1,0,0.2,0,0.2,0
				c0.2,0,0.4-0.1,0.6-0.3c0.2-0.2,0.4-0.5,0.5-0.9l0.3-0.8l-2.8-6.1h0.9l2.3,5.4l2.1-5.4h0.8l-3,7.2c-0.2,0.4-0.3,0.7-0.5,0.9
				c-0.2,0.2-0.4,0.4-0.6,0.5C132.4-192.9,132.1-192.9,131.9-192.9z"/>
			<path class="st0" d="M137.7-195.4v-6.2h3.7v0.7h-2.9v5.5H137.7z"/>
		</g>
	</g>
	<g>
		<g>
			<path class="st0" d="M-19-279.4v-8.5h0.8v7.4l5.3-7.4h0.8v8.5H-13v-7.2l-5.2,7.2H-19z"/>
			<path class="st0" d="M-10.1-279.4v-6.2h0.8v2.7h0.9l2.1-2.7h0.9l-2.4,3l2.7,3.2h-1l-2.4-2.8h-0.9v2.8H-10.1z"/>
			<path class="st0" d="M-1.2-279.3c-0.5,0-0.9-0.1-1.3-0.3s-0.7-0.4-1-0.7c-0.3-0.3-0.5-0.6-0.6-1c-0.2-0.4-0.2-0.8-0.2-1.2
				c0-0.4,0.1-0.9,0.2-1.2c0.2-0.4,0.4-0.7,0.6-1c0.3-0.3,0.6-0.5,1-0.7s0.8-0.3,1.2-0.3c0.4,0,0.9,0.1,1.2,0.3s0.7,0.4,1,0.7
				c0.3,0.3,0.5,0.6,0.6,1c0.2,0.4,0.2,0.8,0.2,1.2c0,0.4-0.1,0.8-0.2,1.2c-0.2,0.4-0.4,0.7-0.6,1c-0.3,0.3-0.6,0.5-1,0.7
				S-0.8-279.3-1.2-279.3z M-3.5-282.5c0,0.5,0.1,0.9,0.3,1.3c0.2,0.4,0.5,0.7,0.8,0.9c0.3,0.2,0.7,0.3,1.1,0.3s0.8-0.1,1.1-0.3
				c0.3-0.2,0.6-0.5,0.8-0.9c0.2-0.4,0.3-0.8,0.3-1.3c0-0.5-0.1-0.9-0.3-1.3c-0.2-0.4-0.5-0.7-0.8-0.9c-0.3-0.2-0.7-0.3-1.1-0.3
				s-0.8,0.1-1.1,0.3c-0.3,0.2-0.6,0.5-0.8,0.9C-3.4-283.4-3.5-283-3.5-282.5z"/>
			<path class="st0" d="M3.2-279.4v-6.2h0.8v2.7h3.6v-2.7h0.8v6.2H7.6v-2.8H4.1v2.8H3.2z"/>
			<path class="st0" d="M10.2-279.4v-6.2h0.8v2.7H12l2.1-2.7H15l-2.4,3l2.7,3.2h-1l-2.4-2.8h-0.9v2.8H10.2z"/>
			<path class="st0" d="M16.5-279.4v-6.2h0.8v5.1l3.8-5.1h0.7v6.2H21v-5l-3.7,5H16.5z"/>
			<path class="st0" d="M26-278v-2.2h0.1c0.2,0,0.4-0.1,0.5-0.2c0.2-0.1,0.3-0.3,0.4-0.6s0.2-0.7,0.3-1.2s0.1-1.1,0.2-1.9l0.1-1.7
				h4.1v5.5h0.8v2.2h-0.7v-1.5h-5v1.5H26z M27.3-280.2h3.4v-4.8h-2.5l0,1.1c0,0.7-0.1,1.4-0.2,1.9c-0.1,0.5-0.2,0.9-0.3,1.2
				C27.6-280.5,27.5-280.3,27.3-280.2z"/>
			<path class="st0" d="M33-279.4v-0.7c0.2,0,0.4-0.1,0.6-0.2s0.3-0.3,0.5-0.6s0.2-0.7,0.3-1.1s0.1-1.1,0.2-1.9l0.1-1.7h4.1v6.2
				h-0.8v-5.5h-2.5l0,1.1c0,0.9-0.1,1.6-0.2,2.1c-0.1,0.6-0.2,1-0.4,1.4s-0.4,0.6-0.7,0.7C33.7-279.5,33.4-279.4,33-279.4z"/>
			<path class="st0" d="M40-279.4l1.9-2.5c-0.4-0.1-0.8-0.2-1-0.6c-0.3-0.3-0.4-0.7-0.4-1.3c0-0.4,0.1-0.7,0.3-1
				c0.2-0.3,0.4-0.5,0.7-0.7c0.3-0.2,0.7-0.3,1.1-0.3h2.4v6.2h-0.8v-2.4h-1.4l-1.8,2.4H40z M42.5-282.5h1.6v-2.5h-1.4
				c-0.4,0-0.7,0.1-1,0.4c-0.2,0.2-0.4,0.5-0.4,0.9c0,0.4,0.1,0.7,0.3,0.9C41.8-282.6,42.1-282.5,42.5-282.5z"/>
			<path class="st0" d="M49.7-279.4v-6.2h0.8v2.7h0.9l2.1-2.7h0.9l-2.4,3l2.7,3.2h-1l-2.4-2.8h-0.9v2.8H49.7z"/>
			<path class="st0" d="M55.5-281.2c0-0.4,0.1-0.7,0.3-1c0.2-0.3,0.5-0.5,0.9-0.7c0.4-0.2,0.9-0.2,1.4-0.2c0.3,0,0.6,0,0.9,0.1
				c0.3,0,0.6,0.1,0.9,0.2v-0.5c0-0.5-0.2-0.9-0.5-1.3c-0.3-0.3-0.7-0.5-1.3-0.5c-0.3,0-0.7,0.1-1,0.2c-0.3,0.1-0.7,0.3-1,0.5
				l-0.3-0.6c0.4-0.3,0.8-0.5,1.2-0.6c0.4-0.1,0.8-0.2,1.2-0.2c0.8,0,1.4,0.2,1.8,0.7c0.4,0.4,0.7,1,0.7,1.8v2.9
				c0,0.1,0,0.2,0.1,0.2s0.1,0.1,0.2,0.1v0.6c-0.1,0-0.2,0-0.2,0c-0.1,0-0.1,0-0.1,0c-0.2,0-0.4-0.1-0.5-0.2
				c-0.1-0.1-0.2-0.2-0.2-0.4l0-0.5c-0.3,0.4-0.6,0.6-1.1,0.8c-0.4,0.2-0.9,0.3-1.4,0.3c-0.4,0-0.8-0.1-1.1-0.3s-0.6-0.4-0.8-0.7
				C55.6-280.6,55.5-280.9,55.5-281.2z M59.7-280.8c0.1-0.1,0.2-0.2,0.2-0.3s0.1-0.2,0.1-0.3v-0.9c-0.3-0.1-0.6-0.2-0.8-0.2
				s-0.6-0.1-0.9-0.1c-0.6,0-1.1,0.1-1.4,0.3c-0.4,0.2-0.5,0.5-0.5,0.9c0,0.2,0.1,0.4,0.2,0.6c0.1,0.2,0.3,0.4,0.5,0.5
				c0.2,0.1,0.5,0.2,0.8,0.2c0.4,0,0.8-0.1,1.1-0.2C59.2-280.3,59.5-280.5,59.7-280.8z"/>
			<path class="st0" d="M65.7-279.3c-0.5,0-1-0.1-1.4-0.4c-0.4-0.3-0.7-0.6-1-1v3.8h-0.8v-8.8h0.7v1.2c0.2-0.4,0.6-0.7,1-0.9
				s0.9-0.4,1.3-0.4c0.4,0,0.8,0.1,1.2,0.3c0.4,0.2,0.7,0.4,0.9,0.7s0.5,0.6,0.6,1c0.1,0.4,0.2,0.8,0.2,1.2c0,0.6-0.1,1.1-0.4,1.6
				c-0.2,0.5-0.6,0.9-1,1.2C66.8-279.5,66.3-279.3,65.7-279.3z M65.5-280c0.3,0,0.7-0.1,0.9-0.2c0.3-0.1,0.5-0.3,0.7-0.6
				c0.2-0.2,0.3-0.5,0.5-0.8c0.1-0.3,0.2-0.6,0.2-0.9c0-0.3-0.1-0.7-0.2-1s-0.3-0.6-0.5-0.8c-0.2-0.2-0.5-0.4-0.7-0.5
				c-0.3-0.1-0.6-0.2-0.9-0.2c-0.2,0-0.4,0-0.6,0.1c-0.2,0.1-0.4,0.2-0.6,0.3c-0.2,0.1-0.4,0.3-0.5,0.5s-0.2,0.4-0.3,0.6v1.9
				c0.1,0.3,0.3,0.6,0.5,0.8c0.2,0.2,0.5,0.4,0.8,0.6C64.9-280.1,65.2-280,65.5-280z"/>
			<path class="st0" d="M71.5-279.4v-5.5h-2.2v-0.7h5.3v0.7h-2.2v5.5H71.5z"/>
			<path class="st0" d="M78.3-279.3c-0.5,0-0.9-0.1-1.3-0.3s-0.7-0.4-1-0.7c-0.3-0.3-0.5-0.6-0.6-1c-0.2-0.4-0.2-0.8-0.2-1.2
				c0-0.4,0.1-0.9,0.2-1.2c0.2-0.4,0.4-0.7,0.6-1s0.6-0.5,1-0.7s0.8-0.3,1.2-0.3s0.9,0.1,1.2,0.3s0.7,0.4,1,0.7s0.5,0.6,0.6,1
				c0.2,0.4,0.2,0.8,0.2,1.2c0,0.4-0.1,0.8-0.2,1.2c-0.2,0.4-0.4,0.7-0.6,1c-0.3,0.3-0.6,0.5-1,0.7
				C79.2-279.4,78.8-279.3,78.3-279.3z M76-282.5c0,0.5,0.1,0.9,0.3,1.3c0.2,0.4,0.5,0.7,0.8,0.9c0.3,0.2,0.7,0.3,1.1,0.3
				c0.4,0,0.8-0.1,1.1-0.3s0.6-0.5,0.8-0.9c0.2-0.4,0.3-0.8,0.3-1.3c0-0.5-0.1-0.9-0.3-1.3s-0.5-0.7-0.8-0.9
				c-0.3-0.2-0.7-0.3-1.1-0.3c-0.4,0-0.8,0.1-1.1,0.3c-0.3,0.2-0.6,0.5-0.8,0.9C76.1-283.4,76-283,76-282.5z"/>
			<path class="st0" d="M86.4-279.4v-2.6c-0.3,0.1-0.5,0.2-0.8,0.3s-0.6,0.1-0.9,0.1c-0.7,0-1.2-0.2-1.6-0.5
				c-0.3-0.4-0.5-0.9-0.5-1.6v-1.8h0.8v1.7c0,0.6,0.1,1,0.3,1.2c0.2,0.3,0.6,0.4,1.1,0.4c0.3,0,0.6,0,0.8-0.1
				c0.3-0.1,0.5-0.1,0.7-0.3v-3h0.8v6.2H86.4z"/>
			<path class="st0" d="M91.7-279.3c-0.4,0-0.9-0.1-1.2-0.3c-0.4-0.2-0.7-0.4-1-0.7c-0.3-0.3-0.5-0.6-0.7-1s-0.2-0.8-0.2-1.3
				c0-0.6,0.1-1.1,0.4-1.6c0.3-0.5,0.6-0.9,1.1-1.2c0.5-0.3,1-0.4,1.6-0.4c0.6,0,1.2,0.1,1.6,0.4s0.8,0.7,1.1,1.2
				c0.3,0.5,0.4,1,0.4,1.6c0,0.1,0,0.1,0,0.2s0,0.1,0,0.1h-5.4c0,0.4,0.2,0.8,0.4,1.2s0.5,0.6,0.8,0.8c0.3,0.2,0.7,0.3,1.1,0.3
				c0.4,0,0.8-0.1,1.2-0.3s0.6-0.5,0.8-0.8l0.7,0.2c-0.1,0.3-0.3,0.6-0.6,0.8c-0.3,0.2-0.6,0.4-0.9,0.6
				C92.5-279.4,92.1-279.3,91.7-279.3z M89.4-282.9H94c0-0.5-0.2-0.8-0.4-1.2c-0.2-0.3-0.5-0.6-0.8-0.8s-0.7-0.3-1.1-0.3
				c-0.4,0-0.8,0.1-1.1,0.3s-0.6,0.5-0.8,0.8C89.5-283.7,89.4-283.3,89.4-282.9z"/>
			<path class="st0" d="M96-279.4v-6.2h0.8v2.7h0.9l2.1-2.7h0.9l-2.4,3l2.7,3.2h-1l-2.4-2.8h-0.9v2.8H96z"/>
			<path class="st0" d="M106-276.9c-0.1,0-0.3,0-0.4-0.1c-0.1,0-0.3-0.1-0.4-0.2l0.3-0.6c0.1,0,0.2,0.1,0.2,0.1c0.1,0,0.2,0,0.2,0
				c0.2,0,0.4-0.1,0.6-0.3c0.2-0.2,0.4-0.5,0.5-0.9l0.3-0.8l-2.8-6.1h0.9l2.3,5.4l2.1-5.4h0.8l-3,7.2c-0.2,0.4-0.3,0.7-0.5,0.9
				c-0.2,0.2-0.4,0.4-0.6,0.5C106.4-276.9,106.2-276.9,106-276.9z"/>
			<path class="st0" d="M114.5-279.3c-0.5,0-0.9-0.1-1.3-0.3c-0.4-0.2-0.7-0.4-1-0.7c-0.3-0.3-0.5-0.6-0.7-1s-0.2-0.8-0.2-1.2
				c0-0.6,0.1-1.1,0.4-1.6c0.3-0.5,0.6-0.9,1.1-1.2c0.5-0.3,1-0.4,1.6-0.4c0.6,0,1.1,0.1,1.5,0.4c0.4,0.3,0.8,0.6,1,1.1l-0.8,0.3
				c-0.2-0.3-0.4-0.6-0.7-0.8c-0.3-0.2-0.7-0.3-1-0.3c-0.4,0-0.8,0.1-1.1,0.3s-0.6,0.5-0.8,0.9c-0.2,0.4-0.3,0.8-0.3,1.3
				c0,0.5,0.1,0.9,0.3,1.3c0.2,0.4,0.5,0.7,0.8,0.9c0.3,0.2,0.7,0.3,1.1,0.3c0.3,0,0.5,0,0.8-0.1c0.3-0.1,0.5-0.2,0.7-0.4
				c0.2-0.2,0.3-0.3,0.4-0.5l0.8,0.2c-0.1,0.3-0.3,0.6-0.6,0.8c-0.3,0.2-0.6,0.4-0.9,0.6C115.3-279.4,114.9-279.3,114.5-279.3z"/>
			<path class="st0" d="M117.8-279.4v-0.7c0.2,0,0.4-0.1,0.6-0.2s0.3-0.3,0.5-0.6s0.2-0.7,0.3-1.1s0.1-1.1,0.2-1.9l0.1-1.7h4.1v6.2
				h-0.8v-5.5h-2.5l0,1.1c0,0.9-0.1,1.6-0.2,2.1c-0.1,0.6-0.2,1-0.4,1.4c-0.2,0.3-0.4,0.6-0.7,0.7
				C118.5-279.5,118.2-279.4,117.8-279.4z"/>
			<path class="st0" d="M125.9-276.9c-0.1,0-0.3,0-0.4-0.1c-0.1,0-0.3-0.1-0.4-0.2l0.3-0.6c0.1,0,0.2,0.1,0.2,0.1c0.1,0,0.2,0,0.2,0
				c0.2,0,0.4-0.1,0.6-0.3c0.2-0.2,0.4-0.5,0.5-0.9l0.3-0.8l-2.8-6.1h0.9l2.3,5.4l2.1-5.4h0.8l-3,7.2c-0.2,0.4-0.3,0.7-0.5,0.9
				c-0.2,0.2-0.4,0.4-0.6,0.5C126.4-276.9,126.1-276.9,125.9-276.9z"/>
			<path class="st0" d="M131.7-279.4v-6.2h3.7v0.7h-2.9v5.5H131.7z"/>
			<path class="st0" d="M139.8-288l3,7.5l3-7.5h0.9l-3.5,8.5h-0.8l-3.5-8.5H139.8z"/>
			<path class="st0" d="M147.4-279.4c0-0.3,0-0.6,0.1-0.8c0-0.3,0.1-0.6,0.3-0.8c0.1-0.3,0.3-0.5,0.6-0.8c0.3-0.3,0.6-0.5,1-0.7
				c0.2-0.1,0.5-0.2,0.7-0.4c0.2-0.1,0.5-0.2,0.7-0.4c0.2-0.1,0.4-0.3,0.5-0.5s0.2-0.4,0.2-0.6c0-0.2-0.1-0.4-0.2-0.6
				s-0.3-0.4-0.5-0.5c-0.2-0.1-0.5-0.2-0.9-0.2c-0.3,0-0.5,0-0.7,0.1c-0.2,0.1-0.4,0.2-0.6,0.3c-0.2,0.1-0.3,0.2-0.4,0.3
				s-0.2,0.2-0.3,0.3l-0.5-0.6c0,0,0.1-0.1,0.3-0.3c0.1-0.1,0.3-0.3,0.5-0.4c0.2-0.1,0.5-0.3,0.8-0.3c0.3-0.1,0.6-0.1,1-0.1
				c0.5,0,0.9,0.1,1.3,0.3c0.3,0.2,0.6,0.4,0.8,0.7c0.2,0.3,0.3,0.6,0.3,0.9c0,0.3-0.1,0.6-0.2,0.9s-0.3,0.4-0.5,0.6
				c-0.2,0.2-0.4,0.3-0.7,0.5c-0.2,0.1-0.5,0.2-0.6,0.3c-0.4,0.2-0.7,0.4-0.9,0.5c-0.3,0.2-0.5,0.4-0.6,0.5
				c-0.2,0.2-0.3,0.4-0.4,0.5s-0.1,0.4-0.2,0.5h4.3v0.7H147.4z"/>
		</g>
	</g>
	<g>
		<g>
			<path class="st0" d="M-66-112.9v-8.5h0.8v7.4l5.3-7.4h0.8v8.5h-0.8v-7.2l-5.2,7.2H-66z"/>
			<path class="st0" d="M-57.1-112.9v-6.2h0.8v2.7h0.9l2.1-2.7h0.9l-2.4,3l2.7,3.2h-1l-2.4-2.8h-0.9v2.8H-57.1z"/>
			<path class="st0" d="M-48.2-112.8c-0.5,0-0.9-0.1-1.3-0.3s-0.7-0.4-1-0.7c-0.3-0.3-0.5-0.6-0.6-1c-0.2-0.4-0.2-0.8-0.2-1.2
				c0-0.4,0.1-0.9,0.2-1.2c0.2-0.4,0.4-0.7,0.6-1c0.3-0.3,0.6-0.5,1-0.7s0.8-0.3,1.2-0.3c0.4,0,0.9,0.1,1.2,0.3s0.7,0.4,1,0.7
				c0.3,0.3,0.5,0.6,0.6,1c0.2,0.4,0.2,0.8,0.2,1.2c0,0.4-0.1,0.8-0.2,1.2c-0.2,0.4-0.4,0.7-0.6,1c-0.3,0.3-0.6,0.5-1,0.7
				S-47.7-112.8-48.2-112.8z M-50.5-116c0,0.5,0.1,0.9,0.3,1.3c0.2,0.4,0.5,0.7,0.8,0.9c0.3,0.2,0.7,0.3,1.1,0.3s0.8-0.1,1.1-0.3
				c0.3-0.2,0.6-0.5,0.8-0.9c0.2-0.4,0.3-0.8,0.3-1.3c0-0.5-0.1-0.9-0.3-1.3c-0.2-0.4-0.5-0.7-0.8-0.9c-0.3-0.2-0.7-0.3-1.1-0.3
				s-0.8,0.1-1.1,0.3c-0.3,0.2-0.6,0.5-0.8,0.9C-50.4-116.9-50.5-116.4-50.5-116z"/>
			<path class="st0" d="M-43.7-112.9v-6.2h0.8v2.7h3.6v-2.7h0.8v6.2h-0.8v-2.8h-3.6v2.8H-43.7z"/>
			<path class="st0" d="M-36.7-112.9v-6.2h0.8v2.7h0.9l2.1-2.7h0.9l-2.4,3l2.7,3.2h-1l-2.4-2.8h-0.9v2.8H-36.7z"/>
			<path class="st0" d="M-30.5-112.9v-6.2h0.8v5.1l3.8-5.1h0.7v6.2H-26v-5l-3.7,5H-30.5z"/>
			<path class="st0" d="M-20.3-112.9v-6.2h3.1c0.4,0,0.6,0.1,0.9,0.2s0.4,0.3,0.5,0.6s0.2,0.5,0.2,0.7c0,0.3-0.1,0.6-0.2,0.9
				c-0.2,0.3-0.4,0.5-0.7,0.6c0.4,0.1,0.7,0.3,0.9,0.6s0.3,0.6,0.3,1c0,0.3-0.1,0.6-0.2,0.9c-0.2,0.2-0.4,0.4-0.7,0.6
				c-0.3,0.1-0.6,0.2-1,0.2H-20.3z M-19.5-116.3h2.1c0.2,0,0.4-0.1,0.6-0.2c0.2-0.1,0.3-0.3,0.4-0.4s0.1-0.4,0.1-0.5
				c0-0.3-0.1-0.5-0.3-0.8s-0.4-0.3-0.7-0.3h-2.2V-116.3z M-19.5-113.5h2.3c0.2,0,0.4-0.1,0.6-0.2c0.2-0.1,0.3-0.2,0.4-0.4
				s0.1-0.4,0.1-0.5c0-0.2,0-0.4-0.1-0.6c-0.1-0.2-0.2-0.3-0.4-0.4s-0.3-0.2-0.6-0.2h-2.4V-113.5z"/>
			<path class="st0" d="M-13.9-112.9v-6.2h0.8v2.7h3.6v-2.7h0.8v6.2h-0.8v-2.8h-3.6v2.8H-13.9z"/>
			<path class="st0" d="M-6.2-110.3c-0.1,0-0.3,0-0.4-0.1c-0.1,0-0.3-0.1-0.4-0.2l0.3-0.6c0.1,0,0.2,0.1,0.2,0.1c0.1,0,0.2,0,0.2,0
				c0.2,0,0.4-0.1,0.6-0.3s0.4-0.5,0.5-0.9l0.3-0.8l-2.8-6.1h0.9l2.3,5.4l2.1-5.4h0.8l-3,7.2c-0.2,0.4-0.3,0.7-0.5,0.9
				c-0.2,0.2-0.4,0.4-0.6,0.5C-5.8-110.4-6-110.3-6.2-110.3z"/>
			<path class="st0" d="M1.2-112.9v-5.5H-1v-0.7h5.3v0.7H2v5.5H1.2z"/>
			<path class="st0" d="M8.5-112.8c-0.5,0-1-0.1-1.4-0.4s-0.7-0.6-1-1v3.8H5.4v-8.8h0.7v1.2c0.2-0.4,0.6-0.7,1-0.9s0.9-0.4,1.3-0.4
				c0.4,0,0.8,0.1,1.2,0.3c0.4,0.2,0.7,0.4,0.9,0.7s0.5,0.6,0.6,1c0.1,0.4,0.2,0.8,0.2,1.2c0,0.6-0.1,1.1-0.4,1.6s-0.6,0.9-1,1.2
				C9.6-112.9,9.1-112.8,8.5-112.8z M8.3-113.5c0.3,0,0.7-0.1,0.9-0.2c0.3-0.1,0.5-0.3,0.7-0.6c0.2-0.2,0.3-0.5,0.4-0.8
				c0.1-0.3,0.2-0.6,0.2-0.9c0-0.3-0.1-0.7-0.2-1c-0.1-0.3-0.3-0.6-0.5-0.8c-0.2-0.2-0.5-0.4-0.7-0.5c-0.3-0.1-0.6-0.2-0.9-0.2
				c-0.2,0-0.4,0-0.6,0.1c-0.2,0.1-0.4,0.2-0.6,0.3c-0.2,0.1-0.4,0.3-0.5,0.5c-0.1,0.2-0.2,0.4-0.3,0.6v1.9c0.1,0.3,0.3,0.6,0.5,0.8
				c0.2,0.2,0.5,0.4,0.8,0.6C7.7-113.6,8-113.5,8.3-113.5z"/>
			<path class="st0" d="M12.7-112.9v-6.2h0.8v5.1l3.8-5.1h0.7v6.2h-0.8v-5l-3.7,5H12.7z"/>
			<path class="st0" d="M23.6-110.3c-0.1,0-0.3,0-0.4-0.1c-0.1,0-0.3-0.1-0.4-0.2l0.3-0.6c0.1,0,0.2,0.1,0.2,0.1c0.1,0,0.2,0,0.2,0
				c0.2,0,0.4-0.1,0.6-0.3s0.4-0.5,0.5-0.9L25-113l-2.8-6.1h0.9l2.3,5.4l2.1-5.4h0.8l-3,7.2c-0.2,0.4-0.3,0.7-0.5,0.9
				c-0.2,0.2-0.4,0.4-0.6,0.5C24.1-110.4,23.9-110.3,23.6-110.3z"/>
			<path class="st0" d="M32.2-112.8c-0.5,0-0.9-0.1-1.3-0.3c-0.4-0.2-0.7-0.4-1-0.7c-0.3-0.3-0.5-0.6-0.7-1S29-115.6,29-116
				c0-0.6,0.1-1.1,0.4-1.6c0.3-0.5,0.6-0.9,1.1-1.2c0.5-0.3,1-0.4,1.6-0.4c0.6,0,1.1,0.1,1.5,0.4c0.4,0.3,0.8,0.6,1,1.1l-0.8,0.3
				c-0.2-0.3-0.4-0.6-0.7-0.8c-0.3-0.2-0.7-0.3-1-0.3c-0.4,0-0.8,0.1-1.1,0.3s-0.6,0.5-0.8,0.9c-0.2,0.4-0.3,0.8-0.3,1.3
				c0,0.5,0.1,0.9,0.3,1.3c0.2,0.4,0.5,0.7,0.8,0.9c0.3,0.2,0.7,0.3,1.1,0.3c0.3,0,0.5,0,0.8-0.1c0.3-0.1,0.5-0.2,0.7-0.4
				c0.2-0.2,0.3-0.3,0.4-0.5l0.8,0.2c-0.1,0.3-0.3,0.6-0.6,0.8c-0.3,0.2-0.6,0.4-0.9,0.6C32.9-112.8,32.6-112.8,32.2-112.8z"/>
			<path class="st0" d="M35.4-112.9v-0.7c0.2,0,0.4-0.1,0.6-0.2s0.3-0.3,0.5-0.6s0.2-0.7,0.3-1.1s0.1-1.1,0.2-1.9l0.1-1.7h4.1v6.2
				h-0.8v-5.5h-2.5l0,1.1c0,0.9-0.1,1.6-0.2,2.1c-0.1,0.6-0.2,1-0.4,1.4c-0.2,0.3-0.4,0.6-0.7,0.7C36.1-113,35.8-112.9,35.4-112.9z"
				/>
			<path class="st0" d="M43.6-110.3c-0.1,0-0.3,0-0.4-0.1c-0.1,0-0.3-0.1-0.4-0.2l0.3-0.6c0.1,0,0.2,0.1,0.2,0.1c0.1,0,0.2,0,0.2,0
				c0.2,0,0.4-0.1,0.6-0.3c0.2-0.2,0.4-0.5,0.5-0.9l0.3-0.8l-2.8-6.1H43l2.3,5.4l2.1-5.4h0.8l-3,7.2c-0.2,0.4-0.3,0.7-0.5,0.9
				c-0.2,0.2-0.4,0.4-0.6,0.5C44-110.4,43.8-110.3,43.6-110.3z"/>
			<path class="st0" d="M49.4-112.9v-6.2h3.7v0.7h-2.9v5.5H49.4z"/>
		</g>
	</g>
	<g>
		<g>
			<path class="st0" d="M329-358.9v-8.5h0.8v7.4l5.3-7.4h0.8v8.5h-0.8v-7.2l-5.2,7.2H329z"/>
			<path class="st0" d="M337.9-358.9v-6.2h0.8v2.7h0.9l2.1-2.7h0.9l-2.4,3l2.7,3.2h-1l-2.4-2.8h-0.9v2.8H337.9z"/>
			<path class="st0" d="M346.8-358.8c-0.5,0-0.9-0.1-1.3-0.3s-0.7-0.4-1-0.7c-0.3-0.3-0.5-0.6-0.6-1c-0.2-0.4-0.2-0.8-0.2-1.2
				c0-0.4,0.1-0.9,0.2-1.2c0.2-0.4,0.4-0.7,0.6-1s0.6-0.5,1-0.7c0.4-0.2,0.8-0.3,1.2-0.3c0.4,0,0.9,0.1,1.2,0.3s0.7,0.4,1,0.7
				c0.3,0.3,0.5,0.6,0.6,1c0.2,0.4,0.2,0.8,0.2,1.2c0,0.4-0.1,0.8-0.2,1.2c-0.2,0.4-0.4,0.7-0.6,1c-0.3,0.3-0.6,0.5-1,0.7
				S347.3-358.8,346.8-358.8z M344.5-362c0,0.5,0.1,0.9,0.3,1.3c0.2,0.4,0.5,0.7,0.8,0.9c0.3,0.2,0.7,0.3,1.1,0.3s0.8-0.1,1.1-0.3
				c0.3-0.2,0.6-0.5,0.8-0.9c0.2-0.4,0.3-0.8,0.3-1.3c0-0.5-0.1-0.9-0.3-1.3c-0.2-0.4-0.5-0.7-0.8-0.9c-0.3-0.2-0.7-0.3-1.1-0.3
				s-0.8,0.1-1.1,0.3c-0.3,0.2-0.6,0.5-0.8,0.9C344.6-362.9,344.5-362.4,344.5-362z"/>
			<path class="st0" d="M351.3-358.9v-6.2h0.8v2.7h3.6v-2.7h0.8v6.2h-0.8v-2.8h-3.6v2.8H351.3z"/>
			<path class="st0" d="M358.3-358.9v-6.2h0.8v2.7h0.9l2.1-2.7h0.9l-2.4,3l2.7,3.2h-1l-2.4-2.8h-0.9v2.8H358.3z"/>
			<path class="st0" d="M364.5-358.9v-6.2h0.8v5.1l3.8-5.1h0.7v6.2H369v-5l-3.7,5H364.5z"/>
			<path class="st0" d="M380.6-358.9v-7.8h-3.5l0,1.8c0,1.2-0.1,2.2-0.3,2.9c-0.1,0.8-0.3,1.4-0.5,1.8c-0.2,0.4-0.5,0.8-0.9,0.9
				c-0.3,0.2-0.7,0.3-1.2,0.3v-0.7c0.3,0,0.6-0.1,0.8-0.2c0.2-0.2,0.4-0.4,0.6-0.8s0.3-1,0.4-1.7c0.1-0.7,0.2-1.6,0.2-2.7l0.1-2.4
				h5.1v8.5H380.6z"/>
			<path class="st0" d="M386.1-358.8c-0.5,0-0.9-0.1-1.3-0.3s-0.7-0.4-1-0.7c-0.3-0.3-0.5-0.6-0.6-1c-0.2-0.4-0.2-0.8-0.2-1.2
				c0-0.4,0.1-0.9,0.2-1.2c0.2-0.4,0.4-0.7,0.6-1s0.6-0.5,1-0.7c0.4-0.2,0.8-0.3,1.2-0.3c0.4,0,0.9,0.1,1.2,0.3s0.7,0.4,1,0.7
				c0.3,0.3,0.5,0.6,0.6,1c0.2,0.4,0.2,0.8,0.2,1.2c0,0.4-0.1,0.8-0.2,1.2c-0.2,0.4-0.4,0.7-0.6,1c-0.3,0.3-0.6,0.5-1,0.7
				S386.6-358.8,386.1-358.8z M383.8-362c0,0.5,0.1,0.9,0.3,1.3c0.2,0.4,0.5,0.7,0.8,0.9c0.3,0.2,0.7,0.3,1.1,0.3s0.8-0.1,1.1-0.3
				c0.3-0.2,0.6-0.5,0.8-0.9c0.2-0.4,0.3-0.8,0.3-1.3c0-0.5-0.1-0.9-0.3-1.3c-0.2-0.4-0.5-0.7-0.8-0.9c-0.3-0.2-0.7-0.3-1.1-0.3
				s-0.8,0.1-1.1,0.3c-0.3,0.2-0.6,0.5-0.8,0.9C383.9-362.9,383.8-362.4,383.8-362z"/>
			<path class="st0" d="M390.6-358.9v-6.2h3.7v0.7h-2.9v5.5H390.6z"/>
			<path class="st0" d="M395.4-358.9v-6.2h0.8v5.1l3.8-5.1h0.7v6.2H400v-5l-3.7,5H395.4z"/>
			<path class="st0" d="M405.3-358.8c-0.5,0-0.9-0.1-1.3-0.3s-0.7-0.4-1-0.7c-0.3-0.3-0.5-0.6-0.7-1s-0.2-0.8-0.2-1.2
				c0-0.6,0.1-1.1,0.4-1.6s0.6-0.9,1.1-1.2c0.5-0.3,1-0.4,1.6-0.4c0.6,0,1.1,0.1,1.5,0.4s0.8,0.6,1,1.1l-0.8,0.3
				c-0.2-0.3-0.4-0.6-0.7-0.8s-0.7-0.3-1-0.3c-0.4,0-0.8,0.1-1.1,0.3s-0.6,0.5-0.8,0.9c-0.2,0.4-0.3,0.8-0.3,1.3
				c0,0.5,0.1,0.9,0.3,1.3s0.5,0.7,0.8,0.9s0.7,0.3,1.1,0.3c0.3,0,0.5,0,0.8-0.1c0.3-0.1,0.5-0.2,0.7-0.4s0.3-0.3,0.4-0.5l0.8,0.2
				c-0.1,0.3-0.3,0.6-0.6,0.8c-0.3,0.2-0.6,0.4-0.9,0.6C406-358.8,405.7-358.8,405.3-358.8z"/>
			<path class="st0" d="M410.7-358.9v-5.5h-2.2v-0.7h5.3v0.7h-2.2v5.5H410.7z"/>
			<path class="st0" d="M414.9-358.9v-6.2h0.8v5.1l3.8-5.1h0.7v6.2h-0.8v-5l-3.7,5H414.9z"/>
			<path class="st0" d="M422-358.9v-6.2h0.8v2.7h0.9l2.1-2.7h0.9l-2.4,3l2.7,3.2h-1l-2.4-2.8h-0.9v2.8H422z"/>
			<path class="st0" d="M428.2-358.9v-6.2h0.8v5.1l3.8-5.1h0.7v6.2h-0.8v-5l-3.7,5H428.2z"/>
			<path class="st0" d="M444-361.2c0,0.5-0.1,0.9-0.4,1.3c-0.3,0.4-0.6,0.7-1.1,0.9c-0.5,0.2-0.9,0.3-1.5,0.3
				c-0.6,0-1.1-0.1-1.5-0.3c-0.4-0.2-0.8-0.5-1-0.9c-0.3-0.4-0.4-0.8-0.4-1.3c0-0.4,0.1-0.7,0.3-1c0.2-0.3,0.4-0.5,0.6-0.7
				s0.5-0.3,0.8-0.4c-0.2-0.1-0.5-0.2-0.7-0.4c-0.2-0.2-0.4-0.4-0.5-0.6c-0.1-0.2-0.2-0.5-0.2-0.8c0-0.4,0.1-0.7,0.2-0.9
				c0.2-0.3,0.4-0.5,0.6-0.7c0.3-0.2,0.5-0.3,0.9-0.4c0.3-0.1,0.6-0.1,1-0.1c0.3,0,0.6,0,0.9,0.1c0.3,0.1,0.6,0.2,0.9,0.4
				s0.5,0.4,0.6,0.7c0.2,0.3,0.2,0.6,0.2,0.9c0,0.3-0.1,0.5-0.2,0.8c-0.1,0.2-0.3,0.4-0.5,0.6s-0.5,0.3-0.7,0.4
				c0.3,0.1,0.6,0.3,0.9,0.5c0.3,0.2,0.5,0.5,0.6,0.8S444-361.6,444-361.2z M443.2-361.3c0-0.3-0.1-0.5-0.2-0.8s-0.3-0.4-0.5-0.6
				c-0.2-0.2-0.4-0.3-0.7-0.3s-0.5-0.1-0.8-0.1c-0.3,0-0.7,0.1-1,0.2c-0.3,0.1-0.6,0.4-0.8,0.6c-0.2,0.3-0.3,0.6-0.3,1
				c0,0.3,0.1,0.5,0.2,0.7s0.3,0.4,0.5,0.6c0.2,0.2,0.4,0.3,0.7,0.4c0.3,0.1,0.5,0.1,0.8,0.1c0.3,0,0.7-0.1,1-0.2
				c0.3-0.1,0.6-0.4,0.8-0.6S443.2-360.9,443.2-361.3z M439.2-365.2c0,0.3,0.1,0.6,0.3,0.8c0.2,0.2,0.4,0.4,0.7,0.5s0.6,0.2,0.8,0.2
				c0.3,0,0.6-0.1,0.9-0.2c0.3-0.1,0.5-0.3,0.7-0.5c0.2-0.2,0.3-0.5,0.3-0.8c0-0.3-0.1-0.6-0.3-0.8s-0.4-0.4-0.7-0.5
				c-0.3-0.1-0.6-0.2-0.9-0.2c-0.3,0-0.6,0.1-0.9,0.2c-0.3,0.1-0.5,0.3-0.7,0.5S439.2-365.5,439.2-365.2z"/>
			<path class="st0" d="M451.3-362.4c0,0.7-0.1,1.3-0.4,1.9s-0.6,1-1.1,1.3c-0.5,0.3-1,0.5-1.6,0.5c-0.6,0-1.1-0.2-1.5-0.5
				c-0.5-0.3-0.8-0.7-1.1-1.3c-0.3-0.5-0.4-1.2-0.4-1.9c0-0.7,0.1-1.3,0.4-1.9c0.3-0.5,0.6-1,1.1-1.3c0.5-0.3,1-0.5,1.5-0.5
				c0.6,0,1.1,0.2,1.6,0.5c0.5,0.3,0.8,0.7,1.1,1.3C451.2-363.7,451.3-363,451.3-362.4z M450.5-362.4c0-0.6-0.1-1-0.3-1.5
				c-0.2-0.4-0.4-0.8-0.8-1s-0.7-0.4-1.1-0.4s-0.8,0.1-1.1,0.4c-0.3,0.2-0.6,0.6-0.8,1c-0.2,0.4-0.3,0.9-0.3,1.5
				c0,0.6,0.1,1,0.3,1.5c0.2,0.4,0.4,0.8,0.8,1c0.3,0.2,0.7,0.4,1.1,0.4s0.8-0.1,1.1-0.4c0.3-0.2,0.6-0.6,0.8-1
				C450.4-361.3,450.5-361.8,450.5-362.4z"/>
			<path class="st0" d="M455.9-358.9v-6.2h0.8v2.7h3.6v-2.7h0.8v6.2h-0.8v-2.8h-3.6v2.8H455.9z"/>
			<path class="st0" d="M462.4-360.7c0-0.4,0.1-0.7,0.3-1c0.2-0.3,0.5-0.5,0.9-0.7c0.4-0.2,0.9-0.2,1.4-0.2c0.3,0,0.6,0,0.9,0.1
				c0.3,0,0.6,0.1,0.9,0.2v-0.5c0-0.5-0.2-0.9-0.5-1.3c-0.3-0.3-0.7-0.5-1.3-0.5c-0.3,0-0.7,0.1-1,0.2c-0.3,0.1-0.7,0.3-1,0.5
				l-0.3-0.6c0.4-0.3,0.8-0.5,1.2-0.6c0.4-0.1,0.8-0.2,1.2-0.2c0.8,0,1.4,0.2,1.8,0.7c0.4,0.4,0.7,1,0.7,1.8v2.9
				c0,0.1,0,0.2,0.1,0.2s0.1,0.1,0.2,0.1v0.6c-0.1,0-0.2,0-0.2,0c-0.1,0-0.1,0-0.1,0c-0.2,0-0.4-0.1-0.5-0.2
				c-0.1-0.1-0.2-0.2-0.2-0.4l0-0.5c-0.3,0.4-0.6,0.6-1.1,0.8c-0.4,0.2-0.9,0.3-1.4,0.3c-0.4,0-0.8-0.1-1.1-0.3s-0.6-0.4-0.8-0.7
				C462.5-360,462.4-360.3,462.4-360.7z M466.6-360.2c0.1-0.1,0.2-0.2,0.2-0.3s0.1-0.2,0.1-0.3v-0.9c-0.3-0.1-0.6-0.2-0.8-0.2
				s-0.6-0.1-0.9-0.1c-0.6,0-1.1,0.1-1.4,0.3c-0.4,0.2-0.5,0.5-0.5,0.9c0,0.2,0.1,0.4,0.2,0.6c0.1,0.2,0.3,0.4,0.5,0.5
				c0.2,0.1,0.5,0.2,0.8,0.2c0.4,0,0.8-0.1,1.1-0.2C466.2-359.8,466.4-360,466.6-360.2z"/>
			<path class="st0" d="M478.2-361.2c0,0.5-0.1,0.9-0.4,1.3c-0.3,0.4-0.6,0.7-1.1,0.9c-0.5,0.2-0.9,0.3-1.5,0.3
				c-0.6,0-1.1-0.1-1.5-0.3c-0.4-0.2-0.8-0.5-1-0.9c-0.3-0.4-0.4-0.8-0.4-1.3c0-0.4,0.1-0.7,0.3-1c0.2-0.3,0.4-0.5,0.6-0.7
				s0.5-0.3,0.8-0.4c-0.2-0.1-0.5-0.2-0.7-0.4c-0.2-0.2-0.4-0.4-0.5-0.6c-0.1-0.2-0.2-0.5-0.2-0.8c0-0.4,0.1-0.7,0.2-0.9
				c0.2-0.3,0.4-0.5,0.6-0.7c0.3-0.2,0.5-0.3,0.9-0.4c0.3-0.1,0.6-0.1,1-0.1c0.3,0,0.6,0,0.9,0.1c0.3,0.1,0.6,0.2,0.9,0.4
				s0.5,0.4,0.6,0.7c0.2,0.3,0.2,0.6,0.2,0.9c0,0.3-0.1,0.5-0.2,0.8c-0.1,0.2-0.3,0.4-0.5,0.6s-0.5,0.3-0.7,0.4
				c0.3,0.1,0.6,0.3,0.9,0.5c0.3,0.2,0.5,0.5,0.6,0.8S478.2-361.6,478.2-361.2z M477.3-361.3c0-0.3-0.1-0.5-0.2-0.8
				s-0.3-0.4-0.5-0.6c-0.2-0.2-0.4-0.3-0.7-0.3s-0.5-0.1-0.8-0.1c-0.3,0-0.7,0.1-1,0.2c-0.3,0.1-0.6,0.4-0.8,0.6
				c-0.2,0.3-0.3,0.6-0.3,1c0,0.3,0.1,0.5,0.2,0.7s0.3,0.4,0.5,0.6c0.2,0.2,0.4,0.3,0.7,0.4c0.3,0.1,0.5,0.1,0.8,0.1
				c0.3,0,0.7-0.1,1-0.2c0.3-0.1,0.6-0.4,0.8-0.6S477.3-360.9,477.3-361.3z M473.4-365.2c0,0.3,0.1,0.6,0.3,0.8
				c0.2,0.2,0.4,0.4,0.7,0.5s0.6,0.2,0.8,0.2c0.3,0,0.6-0.1,0.9-0.2c0.3-0.1,0.5-0.3,0.7-0.5c0.2-0.2,0.3-0.5,0.3-0.8
				c0-0.3-0.1-0.6-0.3-0.8s-0.4-0.4-0.7-0.5c-0.3-0.1-0.6-0.2-0.9-0.2c-0.3,0-0.6,0.1-0.9,0.2c-0.3,0.1-0.5,0.3-0.7,0.5
				S473.4-365.5,473.4-365.2z"/>
			<path class="st0" d="M485.4-362.4c0,0.7-0.1,1.3-0.4,1.9s-0.6,1-1.1,1.3c-0.5,0.3-1,0.5-1.6,0.5c-0.6,0-1.1-0.2-1.5-0.5
				c-0.5-0.3-0.8-0.7-1.1-1.3c-0.3-0.5-0.4-1.2-0.4-1.9c0-0.7,0.1-1.3,0.4-1.9c0.3-0.5,0.6-1,1.1-1.3c0.5-0.3,1-0.5,1.5-0.5
				c0.6,0,1.1,0.2,1.6,0.5c0.5,0.3,0.8,0.7,1.1,1.3C485.3-363.7,485.4-363,485.4-362.4z M484.6-362.4c0-0.6-0.1-1-0.3-1.5
				c-0.2-0.4-0.4-0.8-0.8-1s-0.7-0.4-1.1-0.4s-0.8,0.1-1.1,0.4c-0.3,0.2-0.6,0.6-0.8,1c-0.2,0.4-0.3,0.9-0.3,1.5
				c0,0.6,0.1,1,0.3,1.5c0.2,0.4,0.4,0.8,0.8,1c0.3,0.2,0.7,0.4,1.1,0.4s0.8-0.1,1.1-0.4c0.3-0.2,0.6-0.6,0.8-1
				C484.5-361.3,484.6-361.8,484.6-362.4z"/>
		</g>
	</g>
	<path class="st1" d="M443-133"/>
	<g>
		<g>
			<path class="st0" d="M337.6-247v-8.5h0.8v7.4l5.3-7.4h0.8v8.5h-0.8v-7.2l-5.2,7.2H337.6z"/>
			<path class="st0" d="M346.5-247v-6.2h0.8v2.7h0.9l2.1-2.7h0.9l-2.4,3l2.7,3.2h-1l-2.4-2.8h-0.9v2.8H346.5z"/>
			<path class="st0" d="M355.4-246.9c-0.5,0-0.9-0.1-1.3-0.3s-0.7-0.4-1-0.7c-0.3-0.3-0.5-0.6-0.6-1c-0.2-0.4-0.2-0.8-0.2-1.2
				c0-0.4,0.1-0.9,0.2-1.2c0.2-0.4,0.4-0.7,0.6-1s0.6-0.5,1-0.7s0.8-0.3,1.2-0.3s0.9,0.1,1.2,0.3s0.7,0.4,1,0.7s0.5,0.6,0.6,1
				c0.2,0.4,0.2,0.8,0.2,1.2c0,0.4-0.1,0.8-0.2,1.2c-0.2,0.4-0.4,0.7-0.6,1c-0.3,0.3-0.6,0.5-1,0.7
				C356.2-247,355.8-246.9,355.4-246.9z M353.1-250.1c0,0.5,0.1,0.9,0.3,1.3c0.2,0.4,0.5,0.7,0.8,0.9c0.3,0.2,0.7,0.3,1.1,0.3
				c0.4,0,0.8-0.1,1.1-0.3s0.6-0.5,0.8-0.9c0.2-0.4,0.3-0.8,0.3-1.3c0-0.5-0.1-0.9-0.3-1.3s-0.5-0.7-0.8-0.9
				c-0.3-0.2-0.7-0.3-1.1-0.3c-0.4,0-0.8,0.1-1.1,0.3c-0.3,0.2-0.6,0.5-0.8,0.9C353.2-251,353.1-250.5,353.1-250.1z"/>
			<path class="st0" d="M359.8-247v-6.2h0.8v2.7h3.6v-2.7h0.8v6.2h-0.8v-2.8h-3.6v2.8H359.8z"/>
			<path class="st0" d="M366.8-247v-6.2h0.8v2.7h0.9l2.1-2.7h0.9l-2.4,3l2.7,3.2h-1l-2.4-2.8h-0.9v2.8H366.8z"/>
			<path class="st0" d="M373.1-247v-6.2h0.8v5.1l3.8-5.1h0.7v6.2h-0.8v-5l-3.7,5H373.1z"/>
			<path class="st0" d="M386-246.9c-0.5,0-0.9-0.1-1.3-0.3c-0.4-0.2-0.7-0.4-1-0.7c-0.3-0.3-0.5-0.6-0.7-1s-0.2-0.8-0.2-1.2
				c0-0.6,0.1-1.1,0.4-1.6c0.3-0.5,0.6-0.9,1.1-1.2c0.5-0.3,1-0.4,1.6-0.4c0.6,0,1.1,0.1,1.5,0.4c0.4,0.3,0.8,0.6,1,1.1l-0.8,0.3
				c-0.2-0.3-0.4-0.6-0.7-0.8c-0.3-0.2-0.7-0.3-1-0.3c-0.4,0-0.8,0.1-1.1,0.3s-0.6,0.5-0.8,0.9c-0.2,0.4-0.3,0.8-0.3,1.3
				c0,0.5,0.1,0.9,0.3,1.3c0.2,0.4,0.5,0.7,0.8,0.9c0.3,0.2,0.7,0.3,1.1,0.3c0.3,0,0.5,0,0.8-0.1c0.3-0.1,0.5-0.2,0.7-0.4
				c0.2-0.2,0.3-0.3,0.4-0.5l0.8,0.2c-0.1,0.3-0.3,0.6-0.6,0.8c-0.3,0.2-0.6,0.4-0.9,0.6C386.8-246.9,386.4-246.9,386-246.9z"/>
			<path class="st0" d="M392.6-246.9c-0.5,0-0.9-0.1-1.3-0.3c-0.4-0.2-0.7-0.4-1-0.7c-0.3-0.3-0.5-0.6-0.7-1s-0.2-0.8-0.2-1.2
				c0-0.6,0.1-1.1,0.4-1.6c0.3-0.5,0.6-0.9,1.1-1.2c0.5-0.3,1-0.4,1.6-0.4c0.6,0,1.1,0.1,1.5,0.4c0.4,0.3,0.8,0.6,1,1.1l-0.8,0.3
				c-0.2-0.3-0.4-0.6-0.7-0.8c-0.3-0.2-0.7-0.3-1-0.3c-0.4,0-0.8,0.1-1.1,0.3s-0.6,0.5-0.8,0.9c-0.2,0.4-0.3,0.8-0.3,1.3
				c0,0.5,0.1,0.9,0.3,1.3c0.2,0.4,0.5,0.7,0.8,0.9c0.3,0.2,0.7,0.3,1.1,0.3c0.3,0,0.5,0,0.8-0.1c0.3-0.1,0.5-0.2,0.7-0.4
				c0.2-0.2,0.3-0.3,0.4-0.5l0.8,0.2c-0.1,0.3-0.3,0.6-0.6,0.8c-0.3,0.2-0.6,0.4-0.9,0.6C393.3-246.9,393-246.9,392.6-246.9z"/>
			<path class="st0" d="M396.4-247v-6.2h0.8v2.2h1.4c0.7,0,1.2,0.2,1.6,0.5c0.4,0.4,0.5,0.8,0.5,1.4c0,0.4-0.1,0.7-0.2,1
				s-0.4,0.6-0.7,0.7c-0.3,0.2-0.7,0.3-1.2,0.3H396.4z M397.2-247.6h1.4c0.3,0,0.6-0.1,0.8-0.2c0.2-0.1,0.3-0.3,0.4-0.5
				c0.1-0.2,0.1-0.4,0.1-0.7c0-0.2,0-0.5-0.1-0.7s-0.2-0.4-0.4-0.5c-0.2-0.1-0.5-0.2-0.8-0.2h-1.3V-247.6z M402-247v-6.2h0.8v6.2
				H402z"/>
			<path class="st0" d="M404-247v-0.7c0.2,0,0.4-0.1,0.6-0.2s0.3-0.3,0.5-0.6s0.2-0.7,0.3-1.1s0.1-1.1,0.2-1.9l0.1-1.7h4.1v6.2h-0.8
				v-5.5h-2.5l0,1.1c0,0.9-0.1,1.6-0.2,2.1c-0.1,0.6-0.2,1-0.4,1.4c-0.2,0.3-0.4,0.6-0.7,0.7C404.6-247.1,404.3-247,404-247z"/>
			<path class="st0" d="M414.1-246.9c-0.5,0-0.9-0.1-1.3-0.3s-0.7-0.4-1-0.7c-0.3-0.3-0.5-0.6-0.6-1c-0.2-0.4-0.2-0.8-0.2-1.2
				c0-0.4,0.1-0.9,0.2-1.2c0.2-0.4,0.4-0.7,0.6-1s0.6-0.5,1-0.7s0.8-0.3,1.2-0.3s0.9,0.1,1.2,0.3s0.7,0.4,1,0.7s0.5,0.6,0.6,1
				c0.2,0.4,0.2,0.8,0.2,1.2c0,0.4-0.1,0.8-0.2,1.2c-0.2,0.4-0.4,0.7-0.6,1c-0.3,0.3-0.6,0.5-1,0.7
				C414.9-247,414.5-246.9,414.1-246.9z M411.8-250.1c0,0.5,0.1,0.9,0.3,1.3c0.2,0.4,0.5,0.7,0.8,0.9c0.3,0.2,0.7,0.3,1.1,0.3
				c0.4,0,0.8-0.1,1.1-0.3s0.6-0.5,0.8-0.9c0.2-0.4,0.3-0.8,0.3-1.3c0-0.5-0.1-0.9-0.3-1.3s-0.5-0.7-0.8-0.9
				c-0.3-0.2-0.7-0.3-1.1-0.3c-0.4,0-0.8,0.1-1.1,0.3c-0.3,0.2-0.6,0.5-0.8,0.9C411.9-251,411.8-250.5,411.8-250.1z"/>
			<path class="st0" d="M418.5-247v-6.2h0.8v2.7h0.9l2.1-2.7h0.9l-2.4,3l2.7,3.2h-1l-2.4-2.8h-0.9v2.8H418.5z"/>
			<path class="st0" d="M427.8-247v-6.2h0.8v5.1l3.8-5.1h0.7v6.2h-0.8v-5l-3.7,5H427.8z"/>
			<path class="st0" d="M438-247v-6.2h5v6.2h-0.8v-5.5h-3.4v5.5H438z"/>
			<path class="st0" d="M445.5-244.4c-0.1,0-0.3,0-0.4-0.1c-0.1,0-0.3-0.1-0.4-0.2l0.3-0.6c0.1,0,0.2,0.1,0.2,0.1c0.1,0,0.2,0,0.2,0
				c0.2,0,0.4-0.1,0.6-0.3c0.2-0.2,0.4-0.5,0.5-0.9l0.3-0.8l-2.8-6.1h0.9l2.3,5.4l2.1-5.4h0.8l-3,7.2c-0.2,0.4-0.3,0.7-0.5,0.9
				c-0.2,0.2-0.4,0.4-0.6,0.5C446-244.5,445.8-244.4,445.5-244.4z"/>
			<path class="st0" d="M451.3-247v-6.2h0.8v2.7h3.6v-2.7h0.8v6.2h-0.8v-2.8h-3.6v2.8H451.3z"/>
			<path class="st0" d="M458.3-247v-6.2h0.8v2.7h0.9l2.1-2.7h0.9l-2.4,3l2.7,3.2h-1l-2.4-2.8h-0.9v2.8H458.3z"/>
			<path class="st0" d="M466.2-247v-5.5h-2.2v-0.7h5.3v0.7H467v5.5H466.2z"/>
			<path class="st0" d="M473-246.9c-0.5,0-0.9-0.1-1.3-0.3s-0.7-0.4-1-0.7c-0.3-0.3-0.5-0.6-0.6-1c-0.2-0.4-0.2-0.8-0.2-1.2
				c0-0.4,0.1-0.9,0.2-1.2c0.2-0.4,0.4-0.7,0.6-1s0.6-0.5,1-0.7s0.8-0.3,1.2-0.3s0.9,0.1,1.2,0.3s0.7,0.4,1,0.7s0.5,0.6,0.6,1
				c0.2,0.4,0.2,0.8,0.2,1.2c0,0.4-0.1,0.8-0.2,1.2c-0.2,0.4-0.4,0.7-0.6,1c-0.3,0.3-0.6,0.5-1,0.7C473.9-247,473.4-246.9,473-246.9
				z M470.7-250.1c0,0.5,0.1,0.9,0.3,1.3c0.2,0.4,0.5,0.7,0.8,0.9c0.3,0.2,0.7,0.3,1.1,0.3c0.4,0,0.8-0.1,1.1-0.3s0.6-0.5,0.8-0.9
				c0.2-0.4,0.3-0.8,0.3-1.3c0-0.5-0.1-0.9-0.3-1.3s-0.5-0.7-0.8-0.9c-0.3-0.2-0.7-0.3-1.1-0.3c-0.4,0-0.8,0.1-1.1,0.3
				c-0.3,0.2-0.6,0.5-0.8,0.9C470.8-251,470.7-250.5,470.7-250.1z"/>
			<path class="st0" d="M477.4-247v-6.2h3.1c0.4,0,0.6,0.1,0.9,0.2c0.2,0.1,0.4,0.3,0.5,0.6s0.2,0.5,0.2,0.7c0,0.3-0.1,0.6-0.2,0.9
				s-0.4,0.5-0.7,0.6c0.4,0.1,0.7,0.3,0.9,0.6c0.2,0.3,0.3,0.6,0.3,1c0,0.3-0.1,0.6-0.2,0.9s-0.4,0.4-0.7,0.6
				c-0.3,0.1-0.6,0.2-1,0.2H477.4z M478.2-250.4h2.1c0.2,0,0.4-0.1,0.6-0.2s0.3-0.3,0.4-0.4s0.1-0.4,0.1-0.5c0-0.3-0.1-0.5-0.3-0.8
				c-0.2-0.2-0.4-0.3-0.7-0.3h-2.2V-250.4z M478.2-247.6h2.3c0.2,0,0.4-0.1,0.6-0.2s0.3-0.2,0.4-0.4s0.2-0.4,0.2-0.5
				c0-0.2,0-0.4-0.1-0.6c-0.1-0.2-0.2-0.3-0.4-0.4s-0.3-0.2-0.6-0.2h-2.4V-247.6z"/>
		</g>
	</g>
</g>
<g id="Inside_services">
	<g id="Shield">
		<path class="st1" d="M2-100.1c-5.2,1.5-10.8,1.5-16-0.3c-5.2,1.7-10.8,1.8-16,0.3l-1-0.3v14.6c0,11.1,7.1,20.6,17,24.2
			c9.9-3.6,17-13.1,17-24.2v-14.6L2-100.1z M-3-84.1c0,7.2-4.6,13.4-11,15.7c-6.4-2.3-11-8.5-11-15.7v-9.5l0.6,0.2
			c3.4,1,7,0.9,10.4-0.2c3.4,1.1,7,1.2,10.4,0.2l0.6-0.2V-84.1z"/>
	</g>
	<g id="Check">
		<path class="st1" d="M-121-102c-11.6,0-21,9.4-21,21c0,11.6,9.4,21,21,21s21-9.4,21-21C-100-92.6-109.4-102-121-102z M-123.3-68
			l-14-12.9l4.1-4.4l9.6,8.8l13.5-14.7l4.4,4.1L-123.3-68z"/>
	</g>
	<g id="Exclusive_IT">
		<rect x="103" y="-69" class="st1" width="18" height="4"/>
		<polygon class="st1" points="105,-87 105,-82.4 104.5,-82.2 83,-72.4 83,-77.4 99,-84.7 83,-92 83,-97 104.5,-87.2 		"/>
	</g>
	<g id="Rocket">
		<path class="st1" d="M-91.5-59.4l2.8-10.4l0,0c1.2-4.6,7-6.2,10.4-2.8l0,0l0,0c3.4,3.4,1.8,9.1-2.8,10.4l0,0L-91.5-59.4z"/>
		<path class="st1" d="M-48-103l-0.7,0c-8.7-0.1-17.1,3.4-23,9.8l-1.2,1.3c-1.2,0-4.1,0.2-8.2,1.7c-5.5,2-8.8,6.3-8.8,6.3l8.5,1.2
			l-1.4,1.5l12.9,12.8l1.5-1.3l0.1,0.2l1,8.5c0,0,4.3-3.2,6.4-8.6c1.8-4.7,1.9-7.9,1.9-8.7l0.9-0.8C-51.3-85.2-47.7-94-48-103z
			 M-60.4-86.1c-2.5,0-4.6-2.1-4.6-4.6c0-2.5,2.1-4.6,4.6-4.6s4.6,2.1,4.6,4.6C-55.8-88.1-57.8-86.1-60.4-86.1z"/>
	</g>
	<g id="Branches">
		<g>
			<g>
				<circle class="st1" cx="31" cy="-97" r="7"/>
				<circle class="st1" cx="31" cy="-65" r="7"/>
				<circle class="st1" cx="60" cy="-97" r="7"/>
				<line class="st2" x1="31" y1="-97" x2="31" y2="-63.5"/>
			</g>
			<path class="st2" d="M31-65h20.8c4.5,0,8.2-3.7,8.2-8.2V-97"/>
		</g>
	</g>
</g>
<g id="Logistics_icons">
	<g id="log-kpi-4">
		<polygon class="st3" points="552,-319 552,-278.5 512,-278.5 512,-333.5 539.1,-333.5 		"/>
		<polygon class="st4" points="539.1,-319 539.1,-333.5 552,-319 		"/>
		<line class="st5" x1="547.7" y1="-310.4" x2="533" y2="-310.4"/>
		<line class="st5" x1="547.7" y1="-305.4" x2="533" y2="-305.4"/>
		<path class="st6" d="M517-285"/>
		<path class="st6" d="M547.7-285"/>
		<line class="st5" x1="547.8" y1="-300.6" x2="533.1" y2="-300.6"/>
		<line class="st5" x1="547.8" y1="-295.6" x2="533.1" y2="-295.6"/>
		<line class="st5" x1="547.8" y1="-290.6" x2="533.1" y2="-290.6"/>
		<line class="st5" x1="547.8" y1="-285.5" x2="533.1" y2="-285.5"/>
		<g>
			<rect x="518.5" y="-325.5" class="st0" width="10" height="10"/>
			<path class="st7" d="M527-324v7h-7v-7H527 M530-327h-3h-7h-3v3v7v3h3h7h3v-3v-7V-327L530-327z"/>
		</g>
		<g>
			<rect x="518.5" y="-310.5" class="st0" width="10" height="10"/>
			<path class="st7" d="M527-309v7h-7v-7H527 M530-312h-3h-7h-3v3v7v3h3h7h3v-3v-7V-312L530-312z"/>
		</g>
		<g>
			<rect x="518.5" y="-295.5" class="st0" width="10" height="10"/>
			<path class="st7" d="M527-294v7h-7v-7H527 M530-297h-3h-7h-3v3v7v3h3h7h3v-3v-7V-297L530-297z"/>
		</g>
		<polyline class="st2" points="518.5,-322.5 522.9,-318.8 530,-327 		"/>
		<polyline class="st2" points="518.5,-307.5 522.9,-303.8 530,-312 		"/>
		<polyline class="st2" points="518.5,-292.5 522.9,-288.8 530,-297 		"/>
	</g>
	<g id="log-kpi-3">
		<g>
			<polygon class="st3" points="490,-319 490,-278.5 450,-278.5 450,-333.5 477.1,-333.5 			"/>
			<polygon class="st4" points="477.1,-319 477.1,-333.5 490,-319 			"/>
			<g>
				<path class="st0" d="M450.6-309.4c-5,0-9-4.3-9-9.5s4-9.5,9-9.5s9,4.3,9,9.5S455.5-309.4,450.6-309.4z"/>
				<path class="st1" d="M450.6-327c4.1,0,7.5,3.6,7.5,8s-3.4,8-7.5,8c-4.1,0-7.5-3.6-7.5-8S446.4-327,450.6-327 M450.6-330
					c-5.8,0-10.5,5-10.5,11s4.7,11,10.5,11s10.5-5,10.5-11S456.4-330,450.6-330L450.6-330z"/>
			</g>
			<polyline class="st8" points="445.1,-318.4 448.9,-314.8 456,-323 			"/>
			<line class="st5" x1="485.7" y1="-302.8" x2="455" y2="-302.8"/>
			<line class="st5" x1="485.7" y1="-307.8" x2="459.5" y2="-307.8"/>
			<line class="st5" x1="485.7" y1="-312.8" x2="464" y2="-312.8"/>
			<line class="st5" x1="485.7" y1="-298.4" x2="455" y2="-298.4"/>
			<line class="st5" x1="485.7" y1="-294" x2="455" y2="-294"/>
			<path class="st6" d="M455-285"/>
			<path class="st6" d="M485.7-285"/>
			<line class="st5" x1="486" y1="-285.4" x2="455" y2="-285.4"/>
			<line class="st5" x1="486" y1="-289.8" x2="455" y2="-289.8"/>
		</g>
	</g>
	<g id="log-kpi-2">
		<g>
			<g>
				<circle class="st3" cx="399" cy="-303.1" r="27.1"/>
				<ellipse class="st3" cx="399" cy="-303.1" rx="14.5" ry="27.1"/>
				<ellipse class="st9" cx="399" cy="-303.1" rx="27.1" ry="15.4"/>
				<line class="st9" x1="371.9" y1="-303.1" x2="426.1" y2="-303.1"/>
			</g>
			<g>
				<path class="st0" d="M416.6-296.2c-0.8,0-1.5-0.7-1.5-1.5c0-3.7-1.4-5.1-3-6.8c-1.5-1.6-3.2-3.4-3.2-6.9c0-4.3,3.5-7.7,7.7-7.7
					s7.7,3.5,7.7,7.7c0,3.9-1.8,5.7-3.4,7.2c-1.5,1.5-2.9,2.9-2.9,6.4C418.1-296.9,417.5-296.2,416.6-296.2z M416.6-311.8
					c-0.5,0-1,0.4-1,1c0,0.5,0.4,1,1,1s1-0.4,1-1C417.6-311.3,417.2-311.8,416.6-311.8z"/>
				<path class="st7" d="M416.6-317.6c3.4,0,6.2,2.8,6.2,6.2c0,6.8-6.2,5.6-6.2,13.7c0-8.1-6.2-7.5-6.2-13.7
					C410.4-314.8,413.2-317.6,416.6-317.6 M416.6-308.3c1.4,0,2.5-1.1,2.5-2.5c0-1.4-1.1-2.5-2.5-2.5c-1.4,0-2.5,1.1-2.5,2.5
					C414.2-309.4,415.3-308.3,416.6-308.3 M416.6-320.6c-5.1,0-9.2,4.1-9.2,9.2c0,4.1,2.1,6.3,3.6,7.9c1.5,1.6,2.6,2.7,2.6,5.8
					c0,1.7,1.3,3,3,3s3-1.3,3-3c0-3,1-3.9,2.4-5.4c1.6-1.6,3.8-3.8,3.8-8.3C425.9-316.5,421.7-320.6,416.6-320.6L416.6-320.6z"/>
			</g>
			<g>
				<path class="st0" d="M394-282.6c-0.8,0-1.5-0.7-1.5-1.5c0-3.7-1.4-5.1-3-6.8c-1.5-1.6-3.2-3.4-3.2-6.9c0-4.3,3.5-7.7,7.7-7.7
					s7.7,3.5,7.7,7.7c0,3.9-1.8,5.7-3.4,7.2c-1.5,1.5-2.9,2.9-2.9,6.4C395.5-283.3,394.9-282.6,394-282.6z M394-298.2
					c-0.5,0-1,0.4-1,1c0,0.5,0.4,1,1,1c0.5,0,1-0.4,1-1C395-297.8,394.6-298.2,394-298.2z"/>
				<path class="st7" d="M394-304c3.4,0,6.2,2.8,6.2,6.2c0,6.8-6.2,5.6-6.2,13.7c0-8.1-6.2-7.5-6.2-13.7
					C387.8-301.3,390.6-304,394-304 M394-294.7c1.4,0,2.5-1.1,2.5-2.5c0-1.4-1.1-2.5-2.5-2.5s-2.5,1.1-2.5,2.5
					C391.5-295.8,392.6-294.7,394-294.7 M394-307c-5.1,0-9.2,4.1-9.2,9.2c0,4.1,2.1,6.3,3.6,7.9c1.5,1.6,2.6,2.7,2.6,5.8
					c0,1.7,1.3,3,3,3s3-1.3,3-3c0-3,1-3.9,2.4-5.4c1.6-1.6,3.8-3.8,3.8-8.3C403.2-302.9,399.1-307,394-307L394-307z"/>
			</g>
			<g>
				<path class="st0" d="M381.4-311.6c-0.8,0-1.5-0.7-1.5-1.5c0-3.7-1.4-5.1-3-6.8c-1.5-1.6-3.2-3.4-3.2-6.9c0-4.3,3.5-7.7,7.7-7.7
					s7.7,3.5,7.7,7.7c0,3.9-1.8,5.7-3.4,7.2c-1.5,1.5-2.9,2.9-2.9,6.4C382.9-312.3,382.2-311.6,381.4-311.6z M381.4-327.1
					c-0.5,0-1,0.4-1,1s0.4,1,1,1s1-0.4,1-1S381.9-327.1,381.4-327.1z"/>
				<path class="st7" d="M381.4-333c3.4,0,6.2,2.8,6.2,6.2c0,6.8-6.2,5.6-6.2,13.7c0-8.1-6.2-7.5-6.2-13.7
					C375.1-330.2,377.9-333,381.4-333 M381.4-323.7c1.4,0,2.5-1.1,2.5-2.5s-1.1-2.5-2.5-2.5s-2.5,1.1-2.5,2.5S380-323.7,381.4-323.7
					 M381.4-336c-5.1,0-9.2,4.1-9.2,9.2c0,4.1,2.1,6.3,3.6,7.9c1.5,1.6,2.6,2.7,2.6,5.8c0,1.7,1.3,3,3,3s3-1.3,3-3
					c0-3,1-3.9,2.4-5.4c1.6-1.6,3.8-3.8,3.8-8.3C390.6-331.9,386.4-336,381.4-336L381.4-336z"/>
			</g>
		</g>
	</g>
	<g id="log_x5F_kpi-1">
		<g>
			<g>
				<g>
					<path class="st0" d="M333.2-304.8c-1.2,0-2.2-1-2.2-2.2v-7.1c0-5,4-9,9-9s9,4,9,9v7.1c0,1.2-1,2.2-2.2,2.2H333.2z"/>
					<path class="st1" d="M340-321.1c3.9,0,7,3.1,7,7v7.1c0,0.1-0.1,0.2-0.2,0.2h-13.5c-0.1,0-0.2-0.1-0.2-0.2v-7.1
						C333-318,336.1-321.1,340-321.1 M340-325.1c-6.1,0-11,4.9-11,11v7.1c0,2.3,1.9,4.2,4.2,4.2h13.5c2.3,0,4.2-1.9,4.2-4.2v-7.1
						C351-320.2,346.1-325.1,340-325.1L340-325.1z"/>
				</g>
				<circle class="st3" cx="340" cy="-328.9" r="5.7"/>
			</g>
			<g>
				<g>
					<path class="st0" d="M303.2-304.8c-1.2,0-2.2-1-2.2-2.2v-7.1c0-5,4-9,9-9s9,4,9,9v7.1c0,1.2-1,2.2-2.2,2.2H303.2z"/>
					<path class="st1" d="M310-321.1c3.9,0,7,3.1,7,7v7.1c0,0.1-0.1,0.2-0.2,0.2h-13.5c-0.1,0-0.2-0.1-0.2-0.2v-7.1
						C303-318,306.1-321.1,310-321.1 M310-325.1c-6.1,0-11,4.9-11,11v7.1c0,2.3,1.9,4.2,4.2,4.2h13.5c2.3,0,4.2-1.9,4.2-4.2v-7.1
						C321-320.2,316.1-325.1,310-325.1L310-325.1z"/>
				</g>
				<circle class="st3" cx="310" cy="-328.9" r="5.7"/>
			</g>
			<g>
				<g>
					<path class="st0" d="M316.8-301c-1.3,0-2.3-1-2.3-2.3v-8.7c0-5.8,4.7-10.5,10.5-10.5s10.5,4.7,10.5,10.5v8.7
						c0,1.3-1,2.3-2.3,2.3H316.8z"/>
					<path class="st1" d="M325-320.5c4.7,0,8.5,3.8,8.5,8.5v8.7c0,0.2-0.1,0.3-0.3,0.3h-16.5c-0.2,0-0.3-0.1-0.3-0.3v-8.7
						C316.5-316.7,320.3-320.5,325-320.5 M325-324.5c-6.9,0-12.5,5.6-12.5,12.5v8.7c0,2.4,1.9,4.3,4.3,4.3h16.5
						c2.4,0,4.3-1.9,4.3-4.3v-8.7C337.5-318.9,331.9-324.5,325-324.5L325-324.5z"/>
				</g>
				<circle class="st3" cx="325" cy="-330" r="7"/>
			</g>
			<polygon class="st8" points="325,-294.1 327.7,-288.7 333.7,-287.8 329.3,-283.6 330.4,-277.6 325,-280.4 319.6,-277.6 
				320.7,-283.6 316.3,-287.8 322.3,-288.7 			"/>
			<polygon class="st8" points="343,-297.5 345.2,-293.1 350,-292.4 346.5,-289 347.3,-284.2 343,-286.5 338.7,-284.2 339.5,-289 
				336,-292.4 340.8,-293.1 			"/>
			<polygon class="st8" points="307,-297.5 309.2,-293.1 314,-292.4 310.5,-289 311.3,-284.2 307,-286.5 302.7,-284.2 303.5,-289 
				300,-292.4 304.8,-293.1 			"/>
		</g>
	</g>
</g>
<g id="Links__x26__Items_icons">
	<g id="Phone_icon_00000054957664150178829120000011579094360277421970_">
		<circle class="st1" cx="372" cy="-221" r="16"/>
		<path class="st0" d="M382.4-215.1c0,0.8-0.5,1.6-1.2,1.8c-2.3,0.8-4.7,0.9-7.1,0.5c-4.3-0.7-8.5-3.7-10.3-7.7
			c-1.1-2.2-1.6-4.5-1.6-6.9c0-0.8,0.6-1.5,1.4-1.7c1.2-0.3,2.1-0.5,3.3-0.6c0.3,0,0.5,0.1,0.6,0.4c0.5,1.4,0.8,2.3,1,3.8
			c0,0.2-0.1,0.5-0.3,0.6c-0.6,0.4-1.2,0.9-1.6,1.6c-0.1,0.2-0.1,0.3,0,0.5c1.4,3.6,5.1,6.3,8.9,6.6c0.2,0,0.4-0.1,0.5-0.2
			c0.5-0.5,0.9-1.2,1-1.9c0.1-0.2,0.3-0.5,0.5-0.5c1.5-0.2,2.5-0.2,3.9-0.1c0.3,0,0.5,0.2,0.6,0.5
			C382.2-217.2,382.3-216.3,382.4-215.1z"/>
	</g>
	<g id="Map_icon">
		<circle class="st1" cx="345" cy="-85" r="37"/>
	</g>
	<g id="Mail_icon_00000039819851716636933630000006972224543821489833_">
		<g>
			<circle class="st1" cx="335" cy="-221" r="16"/>
		</g>
		<path class="st0" d="M344.2-226.1v0.2c0,0.3-0.2,0.5-0.5,0.6l-3,1.2l-5.4,2.1c-0.2,0.1-0.5,0.1-0.8,0l-5.4-2.1l-3-1.2
			c-0.3-0.1-0.5-0.4-0.5-0.6v-0.2c0-1.2,1.2-2.2,2.7-2.2h13.1C343-228.3,344.2-227.3,344.2-226.1z"/>
		<path class="st0" d="M344.2-222.7v7.7c0,1-1,1.8-2.2,1.8h-14c-1.2,0-2.2-0.8-2.2-1.8v-7.7c0-0.2,0.3-0.4,0.6-0.3l2.9,1.1l5.6,2.2
			c0.1,0,0.2,0,0.4,0l5.6-2.2l2.9-1.1C343.9-223.1,344.2-222.9,344.2-222.7z"/>
	</g>
	<g id="Benefit_icon_00000016067401161680361450000017847401824212186527_">
		<circle class="st9" cx="408.5" cy="-221.2" r="13.7"/>
		<polyline class="st9" points="399.9,-223.3 407,-217 424.7,-236 		"/>
	</g>
	<g id="Instagram_icon_00000114754361558881291020000010240735200457166998_">
		<linearGradient id="SVGID_1_" gradientUnits="userSpaceOnUse" x1="481.8464" y1="-146.6266" x2="540.1536" y2="-185.3734">
			<stop  offset="0" style="stop-color:#1A6EFF"/>
			<stop  offset="1" style="stop-color:#20A2FF"/>
		</linearGradient>
		<circle class="st10" cx="511" cy="-166" r="35"/>
		<path class="st11" d="M519.5-145h-17c-6.9,0-12.5-5.6-12.5-12.5v-17c0-6.9,5.6-12.5,12.5-12.5h17c6.9,0,12.5,5.6,12.5,12.5v17
			C532-150.6,526.4-145,519.5-145z"/>
		<g>
			<path class="st0" d="M511-173c3.9,0,7,3.1,7,7s-3.1,7-7,7s-7-3.1-7-7S507.1-173,511-173 M511-177c-6.1,0-11,4.9-11,11
				s4.9,11,11,11s11-4.9,11-11S517.1-177,511-177L511-177z"/>
		</g>
		<g>
			<circle class="st0" cx="523" cy="-178" r="2"/>
		</g>
	</g>
	<g id="Instagram_icon_00000027606648730076143160000001937347657889896833_">
		
			<linearGradient id="SVGID_00000096037378282214756090000016391525044018688908_" gradientUnits="userSpaceOnUse" x1="535.9183" y1="-59.821" x2="487.7076" y2="-110.5728">
			<stop  offset="0" style="stop-color:#3A0094"/>
			<stop  offset="8.568986e-02" style="stop-color:#6306A0"/>
			<stop  offset="0.2725" style="stop-color:#B614B9"/>
			<stop  offset="0.4047" style="stop-color:#EB1CC9"/>
			<stop  offset="0.469" style="stop-color:#FF1FCF"/>
			<stop  offset="0.636" style="stop-color:#FF6695"/>
			<stop  offset="0.8874" style="stop-color:#FFCC41"/>
			<stop  offset="1" style="stop-color:#FFF51F"/>
		</linearGradient>
		<circle style="fill:url(#SVGID_00000096037378282214756090000016391525044018688908_);" cx="512" cy="-85" r="35"/>
		<path class="st11" d="M522.1-66h-20.3c-4.9,0-8.9-4-8.9-8.9v-20.3c0-4.9,4-8.9,8.9-8.9h20.3c4.9,0,8.9,4,8.9,8.9v20.3
			C531-70,527-66,522.1-66z"/>
		<g>
			<path class="st0" d="M512-91.3c3.5,0,6.3,2.8,6.3,6.3s-2.8,6.3-6.3,6.3s-6.3-2.8-6.3-6.3S508.5-91.3,512-91.3 M512-95.3
				c-5.7,0-10.3,4.6-10.3,10.3s4.6,10.3,10.3,10.3s10.3-4.6,10.3-10.3S517.7-95.3,512-95.3L512-95.3z"/>
		</g>
		<g>
			<circle class="st0" cx="522.9" cy="-95.9" r="1.8"/>
		</g>
	</g>
	<g id="Telegram_icon_00000142167503653123431810000012154760401726476730_">
		
			<linearGradient id="SVGID_00000179617661971497695260000002154199249096327100_" gradientUnits="userSpaceOnUse" x1="315.8464" y1="-146.6266" x2="374.1536" y2="-185.3734">
			<stop  offset="0" style="stop-color:#1A6EFF"/>
			<stop  offset="1" style="stop-color:#20A2FF"/>
		</linearGradient>
		<circle style="fill:url(#SVGID_00000179617661971497695260000002154199249096327100_);" cx="345" cy="-166" r="35"/>
		<path class="st0" d="M348-169l-12.8,7.9c-0.1,0.1-0.2,0.1-0.3,0.1l-12.4-2.7c-0.4-0.1-0.5-0.7-0.1-0.8l38-14.6
			c0.3-0.1,0.7,0.1,0.6,0.5l-5.8,31c0,0.3-0.4,0.5-0.7,0.3l-16-12.3c-0.2-0.2-0.2-0.5-0.1-0.7L348-169z"/>
	</g>
	<g id="What_x27_sApp_icon_00000054975667524618226760000016481989638663289252_">
		
			<linearGradient id="SVGID_00000105419925672790394270000017551387813411550875_" gradientUnits="userSpaceOnUse" x1="397.8464" y1="-147.6266" x2="456.1536" y2="-186.3734">
			<stop  offset="0" style="stop-color:#1A6EFF"/>
			<stop  offset="1" style="stop-color:#20A2FF"/>
		</linearGradient>
		<circle style="fill:url(#SVGID_00000105419925672790394270000017551387813411550875_);" cx="427" cy="-167" r="35"/>
		<path id="phone_00000023270639605555868990000002822874425253983372_" class="st0" d="M436.8-160c-0.3,2.2-2.2,4-4.4,3.8
			c-1.9-0.1-3.8-0.5-5.6-1.3c-4.5-1.8-8.2-6.2-9.2-11c-0.4-1.9-0.6-3.8-0.3-5.7c0.3-2.2,2.3-3.8,4.5-3.7c0.5,0,1,0.1,1.6,0.1
			c0.3,0,0.6,0.3,0.6,0.6c0.2,1.6,0.3,2.7,0.1,4.4c0,0.3-0.2,0.5-0.5,0.6c-0.8,0.2-1.5,0.7-2.1,1.3c-0.1,0.1-0.2,0.3-0.2,0.5
			c0.6,4.2,3.9,8.2,8,9.5c0.2,0.1,0.4,0,0.6-0.1c0.7-0.5,1.3-1.1,1.6-1.9c0.1-0.3,0.4-0.4,0.7-0.4c1.7,0.1,2.7,0.4,4.3,0.9
			c0.3,0.1,0.5,0.4,0.5,0.7C436.9-161,436.8-160.5,436.8-160z"/>
		<path id="rounds_00000067956793989262469450000009543275389032854709_" class="st0" d="M427-188c-11.6,0-21,9.4-21,21
			c0,4.8,1.6,9.2,4.3,12.8c-0.9,2.5-1.7,5-2.2,6c2.7-1.4,4-2,5.4-2.7c3.6,3,8.3,4.9,13.4,4.9c11.6,0,21-9.4,21-21S438.6-188,427-188
			z M427-150.2c-9.7,0.1-16.9-7.2-16.8-16.8c0-9.7,7.1-16.8,16.8-16.8c9.7,0,16.8,7.1,16.8,16.8C443.8-157.3,436.7-150.2,427-150.2z
			"/>
	</g>
	<g id="What_x27_sApp_icon_00000036236950421998895600000006495938857610747780_">
		
			<linearGradient id="SVGID_00000150080316361875729900000003995808395148831632_" gradientUnits="userSpaceOnUse" x1="397.8464" y1="-65.6265" x2="456.1536" y2="-104.3735">
			<stop  offset="0" style="stop-color:#4ACD65"/>
			<stop  offset="1" style="stop-color:#00C93E"/>
		</linearGradient>
		<circle style="fill:url(#SVGID_00000150080316361875729900000003995808395148831632_);" cx="427" cy="-85" r="35"/>
		<path id="phone_00000088115034071804158300000015571242386925624979_" class="st0" d="M436.8-78c-0.3,2.2-2.2,4-4.4,3.8
			c-1.9-0.1-3.8-0.5-5.6-1.3c-4.5-1.8-8.2-6.2-9.2-11c-0.4-1.9-0.6-3.8-0.3-5.7c0.3-2.2,2.3-3.8,4.5-3.7c0.5,0,1,0.1,1.6,0.1
			c0.3,0,0.6,0.3,0.6,0.6c0.2,1.6,0.3,2.7,0.1,4.4c0,0.3-0.2,0.5-0.5,0.6c-0.8,0.2-1.5,0.7-2.1,1.3c-0.1,0.1-0.2,0.3-0.2,0.5
			c0.6,4.2,3.9,8.2,8,9.5c0.2,0.1,0.4,0,0.6-0.1c0.7-0.5,1.3-1.1,1.6-1.9c0.1-0.3,0.4-0.4,0.7-0.4c1.7,0.1,2.7,0.4,4.3,0.9
			c0.3,0.1,0.5,0.4,0.5,0.7C436.9-79,436.8-78.5,436.8-78z"/>
		<path id="rounds_00000137108187950637319190000002808239794100297872_" class="st0" d="M427-106c-11.6,0-21,9.4-21,21
			c0,4.8,1.6,9.2,4.3,12.8c-0.9,2.5-1.7,5-2.2,6c2.7-1.4,4-2,5.4-2.7c3.6,3,8.3,4.9,13.4,4.9c11.6,0,21-9.4,21-21S438.6-106,427-106
			z M427-68.2c-9.7,0.1-16.9-7.2-16.8-16.8c0-9.7,7.1-16.8,16.8-16.8c9.7,0,16.8,7.1,16.8,16.8C443.8-75.3,436.7-68.2,427-68.2z"/>
	</g>
	<path class="st0" d="M345-108c-9.2,0-16.7,7.5-16.7,16.7c0,10.8,8.4,20.3,16.7,32.3c8.4-12,16.7-21.5,16.7-32.3
		C361.7-100.5,354.2-108,345-108z M345-84.1c-4,0-7.2-3.2-7.2-7.2c0-4,3.2-7.2,7.2-7.2s7.2,3.2,7.2,7.2
		C352.2-87.3,349-84.1,345-84.1z"/>
	<g id="Door">
		<g>
			<path class="st1" d="M154.8-103h-15.5c-3,0-5.4,2.4-5.4,5.4v35.2c0,3,2.4,5.4,5.4,5.4h15.5c3,0,5.4-2.4,5.4-5.4v-35.2
				C160.1-100.6,157.7-103,154.8-103z M138-78c-1.1,0-2-0.9-2-2c0-1.1,0.9-2,2-2s2,0.9,2,2C140-78.9,139.1-78,138-78z"/>
		</g>
		<g>
			<g>
				<line class="st11" x1="161" y1="-80" x2="151" y2="-80"/>
				<g>
					<polygon class="st0" points="152.3,-84.2 145,-80 152.3,-75.8 					"/>
				</g>
			</g>
		</g>
		<line class="st9" x1="160.1" y1="-80" x2="171.1" y2="-80"/>
	</g>
	<text transform="matrix(1 0 0 1 250 125)" style="font-family:'MyriadPro-Regular'; font-size:12px;">60a2ff </text>
	<g>
		<path class="st1" d="M23,5H8.8C7.3,5,6,6.3,6,7.8V23h17V5z"/>
		<path class="st7" d="M38,45H9V5h26.1C36.7,5,38,6.3,38,7.9V45z"/>
		<line class="st16" x1="13" y1="10" x2="34" y2="10"/>
		<line class="st17" x1="13" y1="14" x2="34" y2="14"/>
		<line class="st16" x1="13" y1="18" x2="34" y2="18"/>
		<line class="st17" x1="13" y1="22" x2="34" y2="22"/>
		<line class="st16" x1="13" y1="26" x2="33.5" y2="26"/>
		<line class="st17" x1="13" y1="30" x2="29" y2="30"/>
		<line class="st16" x1="13" y1="34" x2="28" y2="34"/>
		<line class="st17" x1="13" y1="38" x2="29" y2="38"/>
		<circle class="st1" cx="38" cy="34" r="7"/>
		<line class="st18" x1="41.5" y1="30.5" x2="34.5" y2="37.5"/>
		<line class="st18" x1="34.5" y1="30.5" x2="41.5" y2="37.5"/>
		<path class="st1" d="M34.7,14.8L20.1,32.6l-0.6,4.7l4.5-1.5L38.6,18l0-0.1C38.6,15.8,36.7,14.2,34.7,14.8L34.7,14.8z"/>
	</g>
</g>
<g id="Слой_22">
</g>
<g id="Services-icons_v1">
	<g id="Ready-made_companies">
		
			<rect id="Main_Building_00000160156838168113692890000003179182174513048465_" x="-128.5" y="-180.5" class="st4" width="18" height="39"/>
		
			<rect id="Secondary_Building_00000042721864257900811600000009433880821438078371_" x="-109.7" y="-163.5" class="st4" width="10.2" height="22"/>
		
			<rect id="Secondary_Building_00000107576201619037250810000000814288114491968701_" x="-138.7" y="-171.5" class="st4" width="10.2" height="30"/>
		<rect x="-124.5" y="-175" class="st19" width="3" height="4"/>
		<rect x="-117.5" y="-175" class="st19" width="3" height="4"/>
		<rect x="-124.5" y="-167" class="st19" width="3" height="4"/>
		<rect x="-134.5" y="-167" class="st19" width="2" height="4"/>
		<rect x="-134.5" y="-159.5" class="st19" width="2" height="4"/>
		<rect x="-105.5" y="-158.5" class="st19" width="2" height="4"/>
		<rect x="-117.5" y="-167" class="st19" width="3" height="4"/>
		<rect x="-124.5" y="-159" class="st19" width="3" height="4"/>
		<rect x="-121.5" y="-151" class="st19" width="4" height="8"/>
		<rect x="-117.5" y="-159" class="st19" width="3" height="4"/>
	</g>
	<g id="Registration_00000141453887268364977790000007676876644518126470_">
		<path class="st0" d="M192.5-142H172v-36.9c0-1.7,1.4-3.1,3.1-3.1H209v23.5C209-149.4,201.6-142,192.5-142z"/>
		<path class="st20" d="M172-143v-36.7c0-1.5,1.2-2.7,2.7-2.7H208"/>
		<rect x="179" y="-175" class="st20" width="25" height="15"/>
		<line class="st21" x1="184" y1="-170" x2="199" y2="-170"/>
		<line class="st21" x1="184" y1="-165" x2="191" y2="-165"/>
		<line class="st21" x1="196" y1="-165" x2="199" y2="-165"/>
	</g>
	<g id="Citizenship_00000114794360371073055100000011907917664031115171_">
		<g>
			<path class="st1" d="M252.8-140h-28.6c-1.8,0-3.2-1.4-3.2-3.2v-37.6c0-1.8,1.4-3.2,3.2-3.2h28.6c1.8,0,3.2,1.4,3.2,3.2v37.6
				C256-141.4,254.6-140,252.8-140z"/>
		</g>
		<g>
			<circle class="st22" cx="238.5" cy="-167" r="11"/>
			<ellipse class="st22" cx="238.5" cy="-167" rx="4.4" ry="11"/>
			<line class="st23" x1="227.5" y1="-167" x2="249.5" y2="-167"/>
		</g>
		<line class="st24" x1="227.5" y1="-148" x2="249.5" y2="-148"/>
	</g>
	<g id="Social_card_00000137106092814240135340000004786435733922640796_">
		<g>
			<path class="st0" d="M126.3-142c-1.8,0-3.3-1.5-3.3-3.3v-35.4c0-1.8,1.5-3.3,3.3-3.3h25.4c1.8,0,3.3,1.5,3.3,3.3v35.4
				c0,1.8-1.5,3.3-3.3,3.3H126.3z"/>
			<g>
				<path class="st1" d="M151.7-182c0.7,0,1.3,0.6,1.3,1.3v35.4c0,0.7-0.6,1.3-1.3,1.3h-25.4c-0.7,0-1.3-0.6-1.3-1.3v-35.4
					c0-0.7,0.6-1.3,1.3-1.3H151.7 M151.7-186h-25.4c-2.9,0-5.3,2.4-5.3,5.3v35.4c0,2.9,2.4,5.3,5.3,5.3h25.4c2.9,0,5.3-2.4,5.3-5.3
					v-35.4C157-183.6,154.6-186,151.7-186L151.7-186z"/>
			</g>
		</g>
		<g>
			<circle class="st0" cx="139" cy="-168" r="11"/>
			<g>
				<path class="st1" d="M139-177c5,0,9,4,9,9s-4,9-9,9s-9-4-9-9S134-177,139-177 M139-181c-7.2,0-13,5.8-13,13s5.8,13,13,13
					s13-5.8,13-13S146.2-181,139-181L139-181z"/>
			</g>
		</g>
		<g>
			<line class="st21" x1="129.5" y1="-149.5" x2="148.5" y2="-149.5"/>
			<line class="st0" x1="129.5" y1="-149.5" x2="148.5" y2="-149.5"/>
		</g>
		<g>
			<path class="st1" d="M146-159c0,1-3.1,1-7,1s-7,0-7-1c0-3.7,1.7-6.8,4.1-8.2c-0.7-0.7-1.1-1.7-1.1-2.8c0-2.2,1.8-4,4-4s4,1.8,4,4
				c0,1.1-0.4,2.1-1.1,2.8C144.3-165.8,146-162.7,146-159z"/>
		</g>
	</g>
	<g id="Residence_permit_00000050656663095682367930000012029050043538591122_">
		<circle class="st3" cx="-20" cy="-161" r="17.5"/>
		<ellipse class="st3" cx="-20" cy="-161" rx="7" ry="17.5"/>
		<line class="st9" x1="-37.5" y1="-161" x2="-2.5" y2="-161"/>
	</g>
	<g id="Bank_Cards">
		<g>
			<path class="st0" d="M68.2-146c-1.8,0-3.2-1.5-3.2-3.2v-22.5c0-1.8,1.5-3.2,3.2-3.2h33.5c1.8,0,3.2,1.5,3.2,3.2v22.5
				c0,1.8-1.5,3.2-3.2,3.2H68.2z"/>
			<path class="st1" d="M101.8-173c0.7,0,1.2,0.6,1.2,1.2v22.5c0,0.7-0.6,1.2-1.2,1.2H68.2c-0.7,0-1.2-0.6-1.2-1.2v-22.5
				c0-0.7,0.6-1.2,1.2-1.2H101.8 M101.8-177H68.2c-2.9,0-5.2,2.4-5.2,5.2v22.5c0,2.9,2.4,5.2,5.2,5.2h33.5c2.9,0,5.2-2.4,5.2-5.2
				v-22.5C107-174.6,104.6-177,101.8-177L101.8-177z"/>
		</g>
		<g>
			<line class="st25" x1="67" y1="-167" x2="103" y2="-167"/>
		</g>
		<g>
			<line class="st25" x1="67" y1="-169" x2="103" y2="-169"/>
		</g>
		<path class="st1" d="M101-153.6c0,1.9-1.5,3.4-3.4,3.4c-1,0-1.9-0.5-2.6-1.2c-0.6,0.7-1.5,1.2-2.6,1.2c-1.9,0-3.4-1.5-3.4-3.4
			c0-1.9,1.5-3.4,3.4-3.4c1,0,1.9,0.5,2.6,1.2c0.6-0.7,1.5-1.2,2.6-1.2C99.5-157,101-155.5,101-153.6z"/>
		<line class="st26" x1="71" y1="-161" x2="74.1" y2="-161"/>
		<line class="st26" x1="79.3" y1="-161" x2="82.4" y2="-161"/>
		<line class="st26" x1="87.6" y1="-161" x2="90.7" y2="-161"/>
		<line class="st26" x1="95.9" y1="-161" x2="99" y2="-161"/>
		<line class="st26" x1="71" y1="-153" x2="85" y2="-153"/>
		<path class="st25" d="M84-161"/>
		<path class="st25" d="M78-161"/>
		<path class="st25" d="M92-161"/>
		<path class="st25" d="M86-161"/>
		<path class="st25" d="M100-161"/>
	</g>
	<g id="Accounting_00000008130229437331924810000010323036603874028673_">
		<g>
			<path class="st0" d="M18.6-140c-2,0-3.6-1.6-3.6-3.6v-34.9c0-2,1.6-3.6,3.6-3.6h24.9c2,0,3.6,1.6,3.6,3.6v34.9
				c0,2-1.6,3.6-3.6,3.6H18.6z"/>
			<path class="st1" d="M43.4-180c0.9,0,1.6,0.7,1.6,1.6v34.9c0,0.9-0.7,1.6-1.6,1.6H18.6c-0.9,0-1.6-0.7-1.6-1.6v-34.9
				c0-0.9,0.7-1.6,1.6-1.6H43.4 M43.4-184H18.6c-3.1,0-5.6,2.5-5.6,5.6v34.9c0,3.1,2.5,5.6,5.6,5.6h24.9c3.1,0,5.6-2.5,5.6-5.6
				v-34.9C49-181.5,46.5-184,43.4-184L43.4-184z"/>
		</g>
		<circle class="st1" cx="23" cy="-164" r="2.5"/>
		<circle class="st1" cx="31" cy="-164" r="2.5"/>
		<circle class="st1" cx="39" cy="-164" r="2.5"/>
		<circle class="st1" cx="23" cy="-156" r="2.5"/>
		<circle class="st1" cx="31" cy="-156" r="2.5"/>
		<path class="st1" d="M41.5-156v8c0,1.4-1.1,2.5-2.5,2.5s-2.5-1.1-2.5-2.5v-8c0-1.4,1.1-2.5,2.5-2.5S41.5-157.4,41.5-156z"/>
		<circle class="st1" cx="23" cy="-148" r="2.5"/>
		<circle class="st1" cx="31" cy="-148" r="2.5"/>
		<path class="st1" d="M41.1-169H20.9c-0.5,0-0.9-0.4-0.9-0.9v-6.1c0-0.5,0.4-0.9,0.9-0.9h20.1c0.5,0,0.9,0.4,0.9,0.9v6.1
			C42-169.4,41.6-169,41.1-169z"/>
	</g>
	<g id="LLC__x26__SP_opening_00000047759590847551302180000018053640702145959827_">
		<polygon class="st27" points="-53.8,-171.5 -53.8,-141 -83.5,-141 -83.5,-181 -62,-181 -62,-171.5 		"/>
		<line class="st21" x1="-76.2" y1="-164" x2="-61" y2="-164"/>
		<line class="st21" x1="-76.2" y1="-173" x2="-68" y2="-173"/>
		<path class="st28" d="M-59.6-165"/>
		<path class="st28" d="M-77.6-165"/>
		<path class="st21" d="M-67.7-170"/>
		<path class="st21" d="M-77.6-170"/>
		<line class="st21" x1="-76.2" y1="-157" x2="-61" y2="-157"/>
		<line class="st21" x1="-76.2" y1="-150" x2="-61" y2="-150"/>
		<polygon class="st20" points="-53.8,-172.4 -53.8,-171.5 -62,-171.5 -62,-181 -61.5,-181 		"/>
	</g>
</g>
<g id="Services_icons_v2">
	<g id="Ready-made_companies_00000094583388336020394530000015133377132425698225_">
		
			<rect id="Main_Building_00000043442078322266672570000013220449264122326666_" x="-128.5" y="-262.5" class="st27" width="18" height="39"/>
		
			<rect id="Secondary_Building_00000093137318064898581800000013720802028784581014_" x="-109.7" y="-246" class="st27" width="11.2" height="22.5"/>
		
			<rect id="Secondary_Building_00000035491003704085616880000010737547193024200620_" x="-139.5" y="-255" class="st27" width="11" height="31.5"/>
		<rect x="-124.5" y="-257" class="st29" width="3" height="4"/>
		<rect x="-117.5" y="-257" class="st29" width="3" height="4"/>
		<rect x="-124.5" y="-249" class="st29" width="3" height="4"/>
		<rect x="-135.5" y="-249" class="st29" width="3" height="4"/>
		<rect x="-135.5" y="-241" class="st29" width="3" height="4"/>
		<rect x="-105.5" y="-241" class="st29" width="3" height="4"/>
		<rect x="-117.5" y="-249" class="st29" width="3" height="4"/>
		<rect x="-124.5" y="-241" class="st29" width="3" height="4"/>
		<rect x="-121.5" y="-233" class="st19" width="4" height="8"/>
		<rect x="-117.5" y="-241" class="st29" width="3" height="4"/>
	</g>
	<g id="Registration_00000147931053933134292520000007129316956535847554_">
		<path class="st0" d="M192.5-224H172v-36.9c0-1.7,1.4-3.1,3.1-3.1H209v23.5C209-231.4,201.6-224,192.5-224z"/>
		<path class="st20" d="M172-225v-36.7c0-1.5,1.2-2.7,2.7-2.7H208"/>
		<rect x="179" y="-257" class="st20" width="25" height="15"/>
		<line class="st30" x1="184" y1="-252" x2="199" y2="-252"/>
		<line class="st30" x1="184" y1="-247" x2="191" y2="-247"/>
		<line class="st30" x1="196" y1="-247" x2="199" y2="-247"/>
	</g>
	<g id="Citizenship">
		<g>
			<path class="st1" d="M252.8-223h-28.6c-1.8,0-3.2-1.4-3.2-3.2v-37.6c0-1.8,1.4-3.2,3.2-3.2h28.6c1.8,0,3.2,1.4,3.2,3.2v37.6
				C256-224.4,254.6-223,252.8-223z"/>
		</g>
		<g>
			<circle class="st31" cx="238.5" cy="-250" r="11"/>
			<ellipse class="st31" cx="238.5" cy="-250" rx="4.4" ry="11"/>
			<line class="st23" x1="227.5" y1="-250" x2="249.5" y2="-250"/>
		</g>
		<line class="st24" x1="227.5" y1="-231" x2="249.5" y2="-231"/>
	</g>
	<g id="Social_card">
		<g>
			<path class="st0" d="M126.3-224c-1.8,0-3.3-1.5-3.3-3.3v-35.4c0-1.8,1.5-3.3,3.3-3.3h25.4c1.8,0,3.3,1.5,3.3,3.3v35.4
				c0,1.8-1.5,3.3-3.3,3.3H126.3z"/>
			<g>
				<path class="st1" d="M151.7-264c0.7,0,1.3,0.6,1.3,1.3v35.4c0,0.7-0.6,1.3-1.3,1.3h-25.4c-0.7,0-1.3-0.6-1.3-1.3v-35.4
					c0-0.7,0.6-1.3,1.3-1.3H151.7 M151.7-268h-25.4c-2.9,0-5.3,2.4-5.3,5.3v35.4c0,2.9,2.4,5.3,5.3,5.3h25.4c2.9,0,5.3-2.4,5.3-5.3
					v-35.4C157-265.6,154.6-268,151.7-268L151.7-268z"/>
			</g>
		</g>
		<g>
			<path class="st7" d="M146-241c0,1-3.1,1-7,1s-7,0-7-1c0-3.7,1.7-6.8,4.1-8.2c-0.7-0.7-1.1-1.7-1.1-2.8c0-2.2,1.8-4,4-4s4,1.8,4,4
				c0,1.1-0.4,2.1-1.1,2.8C144.3-247.8,146-244.7,146-241z"/>
		</g>
		<g>
			<g>
				<path class="st1" d="M139-259c5,0,9,4,9,9s-4,9-9,9s-9-4-9-9S134-259,139-259 M139-263c-7.2,0-13,5.8-13,13c0,7.2,5.8,13,13,13
					s13-5.8,13-13C152-257.2,146.2-263,139-263L139-263z"/>
			</g>
		</g>
		<g>
			<line class="st32" x1="129.5" y1="-231.5" x2="148.5" y2="-231.5"/>
			<line class="st0" x1="129.5" y1="-231.5" x2="148.5" y2="-231.5"/>
		</g>
	</g>
	<g id="Residence_permit">
		<circle class="st33" cx="-20" cy="-243" r="14.5"/>
		<circle class="st9" cx="-20" cy="-243" r="18"/>
		<ellipse class="st11" cx="-20" cy="-243" rx="5.8" ry="14"/>
		<line class="st11" x1="-34.5" y1="-243" x2="-5.5" y2="-243"/>
	</g>
	<g id="Bank_Card">
		<g>
			<path class="st0" d="M68.2-228c-1.8,0-3.2-1.5-3.2-3.2v-22.5c0-1.8,1.5-3.2,3.2-3.2h33.5c1.8,0,3.2,1.5,3.2,3.2v22.5
				c0,1.8-1.5,3.2-3.2,3.2H68.2z"/>
			<path class="st1" d="M101.8-255c0.7,0,1.2,0.6,1.2,1.2v22.5c0,0.7-0.6,1.2-1.2,1.2H68.2c-0.7,0-1.2-0.6-1.2-1.2v-22.5
				c0-0.7,0.6-1.2,1.2-1.2H101.8 M101.8-259H68.2c-2.9,0-5.2,2.4-5.2,5.2v22.5c0,2.9,2.4,5.2,5.2,5.2h33.5c2.9,0,5.2-2.4,5.2-5.2
				v-22.5C107-256.6,104.6-259,101.8-259L101.8-259z"/>
		</g>
		<g>
			<line class="st34" x1="67" y1="-249" x2="103" y2="-249"/>
		</g>
		<g>
			<line class="st34" x1="67" y1="-251" x2="103" y2="-251"/>
		</g>
		<path class="st7" d="M101-235.6c0,1.9-1.5,3.4-3.4,3.4c-1,0-1.9-0.5-2.6-1.2c-0.6,0.7-1.5,1.2-2.6,1.2c-1.9,0-3.4-1.5-3.4-3.4
			c0-1.9,1.5-3.4,3.4-3.4c1,0,1.9,0.5,2.6,1.2c0.6-0.7,1.5-1.2,2.6-1.2C99.5-239,101-237.5,101-235.6z"/>
		<line class="st26" x1="71" y1="-243" x2="74.1" y2="-243"/>
		<line class="st26" x1="79.3" y1="-243" x2="82.4" y2="-243"/>
		<line class="st26" x1="87.6" y1="-243" x2="90.7" y2="-243"/>
		<line class="st26" x1="95.9" y1="-243" x2="99" y2="-243"/>
		<line class="st26" x1="71" y1="-235" x2="85" y2="-235"/>
		<path class="st25" d="M84-243"/>
		<path class="st25" d="M78-243"/>
		<path class="st25" d="M92-243"/>
		<path class="st25" d="M86-243"/>
		<path class="st25" d="M100-243"/>
	</g>
	<g id="Accounting">
		<g>
			<path class="st0" d="M18.6-222c-2,0-3.6-1.6-3.6-3.6v-34.9c0-2,1.6-3.6,3.6-3.6h24.9c2,0,3.6,1.6,3.6,3.6v34.9
				c0,2-1.6,3.6-3.6,3.6H18.6z"/>
			<path class="st1" d="M43.4-262c0.9,0,1.6,0.7,1.6,1.6v34.9c0,0.9-0.7,1.6-1.6,1.6H18.6c-0.9,0-1.6-0.7-1.6-1.6v-34.9
				c0-0.9,0.7-1.6,1.6-1.6H43.4 M43.4-266H18.6c-3.1,0-5.6,2.5-5.6,5.6v34.9c0,3.1,2.5,5.6,5.6,5.6h24.9c3.1,0,5.6-2.5,5.6-5.6
				v-34.9C49-263.5,46.5-266,43.4-266L43.4-266z"/>
		</g>
		<circle class="st1" cx="23" cy="-246" r="2.5"/>
		<circle class="st1" cx="31" cy="-246" r="2.5"/>
		<circle class="st1" cx="39" cy="-246" r="2.5"/>
		<circle class="st1" cx="23" cy="-238" r="2.5"/>
		<circle class="st1" cx="31" cy="-238" r="2.5"/>
		<path class="st1" d="M41.5-238v8c0,1.4-1.1,2.5-2.5,2.5s-2.5-1.1-2.5-2.5v-8c0-1.4,1.1-2.5,2.5-2.5S41.5-239.4,41.5-238z"/>
		<circle class="st1" cx="23" cy="-230" r="2.5"/>
		<circle class="st1" cx="31" cy="-230" r="2.5"/>
		<path class="st7" d="M41.1-251H20.9c-0.5,0-0.9-0.4-0.9-0.9v-6.1c0-0.5,0.4-0.9,0.9-0.9h20.1c0.5,0,0.9,0.4,0.9,0.9v6.1
			C42-251.4,41.6-251,41.1-251z"/>
	</g>
	<g id="LLC__x26__SP_opening">
		<polygon class="st27" points="-53.8,-253.5 -53.8,-223 -83.5,-223 -83.5,-263 -62,-263 -62,-253.5 		"/>
		<line class="st32" x1="-76.2" y1="-246" x2="-61" y2="-246"/>
		<line class="st32" x1="-76.2" y1="-255" x2="-69" y2="-255"/>
		<path class="st28" d="M-59.6-247"/>
		<path class="st28" d="M-77.6-247"/>
		<path class="st21" d="M-67.7-252"/>
		<path class="st21" d="M-77.6-252"/>
		<line class="st32" x1="-76.2" y1="-239" x2="-61" y2="-239"/>
		<line class="st32" x1="-76.2" y1="-232" x2="-61" y2="-232"/>
		<polygon class="st20" points="-53.8,-254.4 -53.8,-252.5 -63,-252.5 -63,-263 -61.5,-263 		"/>
	</g>
</g>
</svg>
