<?xml version="1.0" encoding="utf-8"?>
<!-- Generator: Adobe Illustrator 28.1.0, SVG Export Plug-In . SVG Version: 6.00 Build 0)  -->
<svg version="1.1" xmlns="http://www.w3.org/2000/svg" xmlns:xlink="http://www.w3.org/1999/xlink" x="0px" y="0px"
	 viewBox="0 0 500 250" style="enable-background:new 0 0 500 250;" xml:space="preserve">
<style type="text/css">
	.st0{fill:#FFFFFF;}
	.st1{display:none;}
	.st2{display:inline;}
	.st3{opacity:0.79;fill:#FFFFFF;}
	.st4{display:inline;opacity:0.71;}
	.st5{display:inline;opacity:0.69;}
	.st6{display:inline;opacity:0.61;}
	.st7{display:inline;opacity:0.64;}
	.st8{display:inline;opacity:0.75;}
	.st9{display:inline;opacity:0.5;}
	.st10{display:inline;opacity:0.74;}
</style>
<g id="Слой_2">
	<path class="st0" d="M11,60c0,0,64.1,0,71.6,0S94,62,97,78s15,70,15,70l37-88h40l-59,132H90L59,80C59,80,27,62,11,60z"/>
	<polygon class="st0" points="202.2,60 238.3,60 216.1,192 177.9,192 	"/>
	<path class="st0" d="M342,90l6-29c0,0-82-26-96,35c-4,21,21,35,21,35s40.8,21.6,25,29s-27,8-56-4c-5,27-5,31-5,31s81,28,103-27
		c17-43-51-53-50-63C292,78,321,80,342,90z"/>
	<path class="st0" d="M438,60c0,0-15,0-30.5,0C392,60,391,69,391,69l-55.5,123h40.9l7.6-22h45l4.9,22H469L438,60z M394,147l19-50
		l10.4,50H394z"/>
</g>
<g id="Слой_3" class="st1">
	
		<image style="display:inline;overflow:visible;opacity:0.83;" width="512" height="512" xlink:href="58CB9CD8.jpg"  transform="matrix(0.9219 0 0 0.9219 14 -126)">
	</image>
</g>
<g id="Слой_4" class="st1">
	<g class="st2">
		<path class="st0" d="M147,143c12,5,12.4-9,12.4-9S142,136,147,143z M147,143c12,5,12.4-9,12.4-9S142,136,147,143z M147,143
			c12,5,12.4-9,12.4-9S142,136,147,143z M147,143c12,5,12.4-9,12.4-9S142,136,147,143z M147,143c12,5,12.4-9,12.4-9S142,136,147,143
			z M147,143c12,5,12.4-9,12.4-9S142,136,147,143z M147,143c12,5,12.4-9,12.4-9S142,136,147,143z M238.5,121.2
			c-7.5,0-6.5,7.8-6.5,7.8h13C245,129,246,121.2,238.5,121.2z M238.5,121.2c-7.5,0-6.5,7.8-6.5,7.8h13
			C245,129,246,121.2,238.5,121.2z M147,143c12,5,12.4-9,12.4-9S142,136,147,143z M284.4,113.4c-2.9-26.5-15.6-50.1-34.4-67.1
			c-18.8-17-43.7-27.3-71-27.3C120.5,19,73,66.5,73,125c0,58.5,47.5,106,106,106c27.3,0,52.2-10.3,71-27.3
			c16.8-15.2,28.8-35.8,33.2-59c-4.8-6.2-6.5-16.1,0.8-30.7L284.4,113.4z M120.9,152l4.1-31l-12.7,31h-10.7l-4.1-33l-5.3,33H83l8-47
			h17.2l1.8,28l11.2-28H139l-8.6,47H120.9z M158,152v-2.5c0,0-26,10.5-22-9.5c3-16,25-12,25-12s3-10-18-5c0-5,2-9,2-9s27-4,26,7
			s-4.2,31-4.2,31H158z M200,141c-2,8-9,15-30,10c1-8,1-8,1-8s21,4,16-3s-16-6-13-17s13.4-9.7,13.4-9.7h13.6L200,122c0,0-14-3-14,2
			C186,132,203,128,200,141z M210,153c-8,1-8.9-7.2-8.9-7.2L208,106h10.4l-1.3,7.3h5L221,122h-6c0,0-0.8,6-3,16
			c-1.3,6,2.3,6.7,4.8,6.4c1.2-0.1,2.2-0.4,2.2-0.4l-1,6c0,0,0,0,0,0v0C217.9,150.4,217.2,152.1,210,153z M253,135c-14,0-22,0-22,0
			s-2.7,10.2,10.7,9.1c7.6-0.6,9.9-1.2,10.5-1.6c0.4,1.9,1.1,8.7-9.1,9.5c-11.9,1-23.3-1.4-22.7-19.2C221,115,234.8,112.2,239,112
			S260,118,253,135z M278,124c0,0-10-3-12,12s-2,16.7-2,16.7h-10.4L259,114h11v5c0,0,5-7,11-6C280.7,115.7,278,124,278,124z
			 M238.5,121.2c-7.5,0-6.5,7.8-6.5,7.8h13C245,129,246,121.2,238.5,121.2z M147,143c12,5,12.4-9,12.4-9S142,136,147,143z M147,143
			c12,5,12.4-9,12.4-9S142,136,147,143z M238.5,121.2c-7.5,0-6.5,7.8-6.5,7.8h13C245,129,246,121.2,238.5,121.2z M238.5,121.2
			c-7.5,0-6.5,7.8-6.5,7.8h13C245,129,246,121.2,238.5,121.2z M147,143c12,5,12.4-9,12.4-9S142,136,147,143z M147,143
			c12,5,12.4-9,12.4-9S142,136,147,143z M147,143c12,5,12.4-9,12.4-9S142,136,147,143z M147,143c12,5,12.4-9,12.4-9S142,136,147,143
			z M147,143c12,5,12.4-9,12.4-9S142,136,147,143z"/>
		<path class="st3" d="M232,129c0,0-1-7.8,6.5-7.8s6.5,7.8,6.5,7.8H232z"/>
		<path class="st0" d="M324,143c12,5,12.4-9,12.4-9S319,136,324,143z M324,143c12,5,12.4-9,12.4-9S319,136,324,143z M321,19
			c-27.3,0-52.2,10.3-71,27.3c-17,15.4-29,36.2-33.3,59.7h1.7l-1.3,7.3h5L221,122h-6c0,1,0,2,0,3c0,6.6,0.6,13.1,1.8,19.4
			c1.2-0.1,2.2-0.4,2.2-0.4l-1,6c0,0,0,0,0,0v0c5.1,21,16.5,39.6,32,53.6c18.8,17,43.7,27.3,71,27.3c58.5,0,106-47.5,106-106
			C427,66.5,379.5,19,321,19z M266,136c-2,15-2,16.7-2,16.7h-10.4L259,114h11v5c0,0,5-7,11-6c-0.3,2.7-3,11-3,11S268,121,266,136z
			 M243,152c-11.9,1-23.3-1.4-22.7-19.2C221,115,234.8,112.2,239,112s21,6,14,23c-14,0-22,0-22,0s-2.7,10.2,10.7,9.1
			c7.6-0.6,9.9-1.2,10.5-1.6C252.5,144.4,253.2,151.1,243,152z M299.6,152.7c-5.1,0.1-12.1-2.3-16.4-7.9c-4.8-6.2-6.5-16.1,0.8-30.7
			l0.4-0.6c10.2-16.2,32.9-7.4,32.9-7.4l-2.2,9c0,0-21-7-24,12c-4,22,20,14,20,14S313,154,299.6,152.7z M335,152v-2.5
			c0,0-26,10.5-22-9.5c3-16,25-12,25-12s3-10-18-5c0-5,2-9,2-9s27-4,26,7s-4.1,31-4.1,31H335z M360,136c-2,15-2,16.7-2,16.7h-10.4
			L353,114h11v5c0,0,5-7,11-6c-0.3,2.7-3,11-3,11S362,121,360,136z M395.9,152l-3.9-2c0,0-26,11-21-16c9-34,28.9-15,28.9-15l3.1-14
			h9.1l-7.3,47.3L395.9,152z M393,122.7c-3.8-1.3-8.5,2.6-10.5,8.5c-1.9,6-0.4,11.8,3.4,13.1c3.8,1.3,8.5-2.5,10.5-8.5
			C398.4,129.8,396.9,124,393,122.7z M324,143c12,5,12.4-9,12.4-9S319,136,324,143z M324,143c12,5,12.4-9,12.4-9S319,136,324,143z
			 M324,143c12,5,12.4-9,12.4-9S319,136,324,143z"/>
	</g>
</g>
<g id="Слой_5" class="st1">
	<polygon class="st4" points="-294,96 -302.6,143 -312.1,143 -308,112 -320.7,143 -331.3,143 -335.5,110 -340.8,143 -350,143 
		-342,96 -324.8,96 -323,124 -311.8,96 	"/>
	<path class="st5" d="M-288,105c0,0-2,4-2,9c21-5,18,5,18,5s-22-4-25,12c-4,20,22,9.5,22,9.5v2.5h8.8c0,0,3.2-20,4.2-31
		S-288,105-288,105z M-286,134c-5-7,12.4-9,12.4-9S-274,139-286,134z"/>
	<path class="st5" d="M-111,105c0,0-2,4-2,9c21-5,18,5,18,5s-22-4-25,12c-4,20,22,9.5,22,9.5v2.5h8.8c0,0,3.1-20,4.1-31
		S-111,105-111,105z M-109,134c-5-7,12.4-9,12.4-9S-97,139-109,134z"/>
	<path class="st6" d="M-233,132c-2,8-9,15-30,10c1-8,1-8,1-8s21,4,16-3s-16-6-13-17s13.4-9.7,13.4-9.7h13.6l-1.1,8.7c0,0-14-3-14,2
		C-247,123-230,119-233,132z"/>
	<path class="st7" d="M-215,141L-215,141c-0.1,0.3-0.8,2-8,3c-8,1-8.9-7.2-8.9-7.2L-225,97h8.7c-1,5.2-1.5,10.5-1.7,16h0
		c0,0-0.8,6-3,16c-1.3,6,2.3,6.7,4.8,6.4C-215.9,137.3-215.5,139.2-215,141z"/>
	<path class="st7" d="M-214,135l-1,6c0,0,0,0,0,0c-0.5-1.8-0.9-3.7-1.2-5.6C-215,135.3-214,135-214,135z"/>
	<path class="st7" d="M-210.9,104.3l-1.1,8.7h-6c0.2-5.5,0.7-10.8,1.7-16h1.7l-1.3,7.3H-210.9z"/>
	<path class="st8" d="M-180.9,133.5c-0.1-0.3-0.1-0.5-0.1-0.5S-180.5,133.2-180.9,133.5z"/>
	<path class="st8" d="M-180,126c7-17-9.8-23.2-14-23s-18,3-18.7,20.8c-0.7,17.8,10.8,20.2,22.7,19.2c10.2-0.9,9.5-7.6,9.1-9.5
		c-0.6,0.4-2.8,1-10.5,1.6c-13.3,1.1-10.7-9.1-10.7-9.1S-194,126-180,126z M-194.5,112.2c7.5,0,6.5,7.8,6.5,7.8h-13
		C-201,120-202,112.2-194.5,112.2z"/>
	<path class="st9" d="M-152,104c-0.3,2.7-3,11-3,11s-10-3-12,12s-2,16.7-2,16.7h-10.4l5.4-38.7h11v5C-163,110-158,103-152,104z"/>
	<path class="st9" d="M-58,104c-0.3,2.7-3,11-3,11s-10-3-12,12s-2,16.7-2,16.7h-10.4L-80,105h11v5C-69,110-64,103-58,104z"/>
	<path class="st9" d="M-148,116c0,6.8-0.6,13.3-1.8,19.7c-4.8-6.2-6.5-16.1,0.8-30.7l0.4-0.6C-148.2,108.2-148,112.1-148,116z"/>
	<path class="st9" d="M-142,118c-4,22,20,14,20,14s2,13-11.4,11.7c-5.1,0.1-12.1-2.3-16.4-7.9c1.2-6.4,1.8-13,1.8-19.7
		c0-3.9-0.2-7.8-0.6-11.6c10.2-16.2,32.9-7.4,32.9-7.4l-2.2,9C-118,106-139,99-142,118z"/>
	<path class="st10" d="M-30,96l-3.1,14c0,0-19.9-19-28.9,15c-5,27,21,16,21,16l3.9,2l8.9,0.3l7.3-47.3H-30z M-36.5,126.8
		c-2,6-6.7,9.8-10.5,8.5c-3.9-1.3-5.4-7.1-3.4-13.1c2-5.9,6.7-9.8,10.5-8.5C-36.1,115-34.6,120.8-36.5,126.8z"/>
</g>
</svg>
