<?xml version="1.0" encoding="utf-8"?>
<!-- Generator: Adobe Illustrator 28.1.0, SVG Export Plug-In . SVG Version: 6.00 Build 0)  -->
<svg version="1.1" xmlns="http://www.w3.org/2000/svg" xmlns:xlink="http://www.w3.org/1999/xlink" x="0px" y="0px"
	 viewBox="0 0 250 250" style="enable-background:new 0 0 250 250;" xml:space="preserve">
<style type="text/css">
	.st0{display:none;}
	.st1{display:inline;}
	.st2{fill:#66ACFF;stroke:#00288A;stroke-linejoin:round;stroke-miterlimit:10;}
	.st3{fill:#9CDCFF;stroke:#00288A;stroke-linejoin:round;stroke-miterlimit:10;}
	.st4{fill:#FFFFFF;stroke:#00288A;stroke-linecap:round;stroke-linejoin:round;stroke-miterlimit:10;}
	.st5{fill:none;stroke:#00288A;stroke-linecap:round;stroke-linejoin:round;stroke-miterlimit:10;}
	.st6{fill:#00ABFF;stroke:#00288A;stroke-linejoin:round;stroke-miterlimit:10;}
	.st7{fill:#00ABFF;stroke:#00288A;stroke-miterlimit:10;}
	.st8{fill:#006DF0;stroke:#00288A;stroke-miterlimit:10;}
	.st9{display:inline;fill:#D4DCFF;stroke:#00288A;stroke-miterlimit:10;}
	.st10{display:inline;fill:#FFFFFF;stroke:#00288A;stroke-miterlimit:10;}
	.st11{display:inline;fill:#00ABFF;stroke:#00288A;stroke-linejoin:round;stroke-miterlimit:10;}
	.st12{fill:none;stroke:#00288A;stroke-linejoin:round;stroke-miterlimit:10;}
	.st13{opacity:0.1;fill:#002994;}
	.st14{fill:#006DF0;stroke:#00288A;stroke-width:1.5;stroke-linejoin:round;stroke-miterlimit:10;}
	.st15{fill:#00ABFF;stroke:#00288A;stroke-width:1.5;stroke-linejoin:round;stroke-miterlimit:10;}
	.st16{fill:#9CDCFF;stroke:#00288A;stroke-width:1.5;stroke-linejoin:round;stroke-miterlimit:10;}
	.st17{fill:#66ACFF;stroke:#00288A;stroke-width:1.5;stroke-linejoin:round;stroke-miterlimit:10;}
	.st18{fill:#FFFFFF;stroke:#00288A;stroke-width:1.5;stroke-linecap:round;stroke-linejoin:round;stroke-miterlimit:10;}
	.st19{fill:#66ACFF;}
	.st20{fill:#66ACFF;stroke:#00288A;stroke-width:1.5;stroke-linecap:round;stroke-linejoin:round;stroke-miterlimit:10;}
	.st21{display:inline;fill:#00288A;}
	.st22{fill:#00288A;}
	.st23{fill:#00ABFF;stroke:#00288A;stroke-width:1.5;stroke-linecap:round;stroke-linejoin:round;stroke-miterlimit:10;}
	.st24{fill:none;stroke:#00288A;stroke-width:1.5;stroke-linecap:round;stroke-linejoin:round;stroke-miterlimit:10;}
	.st25{fill:#006DF0;stroke:#00288A;stroke-width:1.5;stroke-linecap:round;stroke-linejoin:round;stroke-miterlimit:10;}
	.st26{fill:#3FA9F5;stroke:#00288A;stroke-width:1.5;stroke-linecap:round;stroke-linejoin:round;stroke-miterlimit:10;}
	.st27{fill:#9CDCFF;stroke:#00288A;stroke-width:1.5;stroke-linecap:round;stroke-linejoin:round;stroke-miterlimit:10;}
</style>
<g id="Слой_1" class="st0">
	
		<image style="display:inline;overflow:visible;" width="605" height="404" xlink:href="../png/rmcompanies-illustration.png"  transform="matrix(0.6436 0 0 0.6436 -73.855 0)">
	</image>
</g>
<g id="Слой_2" class="st0">
	<g class="st1">
		<polygon class="st2" points="-84.3,85 -149.3,64 -149.3,16 -84.3,37 		"/>
		<polygon class="st3" points="-39.3,71 -84.3,85 -84.3,37 -39.3,23 		"/>
		<polygon class="st4" points="-103.3,2 -149.3,16 -84.3,37 -39.3,23 		"/>
	</g>
	<g id="paperinfo_00000050622426486951671920000008964967433862240920_" class="st1">
		<line class="st5" x1="-85.8" y1="32.9" x2="-51.3" y2="22"/>
		<line class="st5" x1="-92.3" y1="29.7" x2="-59.5" y2="19.2"/>
		<line class="st5" x1="-123.3" y1="19.7" x2="-89.3" y2="10"/>
		<line class="st5" x1="-128.3" y1="18.7" x2="-94.3" y2="9"/>
		<line class="st5" x1="-132.3" y1="16.7" x2="-98.3" y2="7"/>
		<line class="st5" x1="-88.8" y1="31.3" x2="-72.3" y2="26"/>
		<polygon class="st6" points="-65.3,18 -97.3,28 -118.3,22 -83.3,12 		"/>
	</g>
	<g id="paperfolds" class="st1">
		<line class="st5" x1="-149.3" y1="56" x2="-135.3" y2="60"/>
		<line class="st5" x1="-149.3" y1="61" x2="-121.3" y2="70"/>
		<line class="st5" x1="-149.3" y1="36" x2="-129.3" y2="42"/>
		<line class="st5" x1="-84.3" y1="46" x2="-51.3" y2="36"/>
		<line class="st5" x1="-84.3" y1="48" x2="-118.3" y2="37"/>
		<line class="st5" x1="-84.3" y1="61" x2="-67.3" y2="56"/>
		<line class="st5" x1="-84.3" y1="82" x2="-51.3" y2="72"/>
		<line class="st5" x1="-39.3" y1="63" x2="-70.3" y2="73"/>
		<line class="st5" x1="-84.3" y1="75" x2="-113.3" y2="67"/>
		<line class="st5" x1="-149.3" y1="19" x2="-116.3" y2="30"/>
		<line class="st5" x1="-39.3" y1="28" x2="-65.3" y2="36"/>
		<line class="st5" x1="-84.3" y1="64" x2="-47.3" y2="53"/>
	</g>
	<g id="base" class="st1">
		<g id="Base">
			<path class="st7" d="M-118.4,75.3C-126.1,68.7-128,61-128,61s-12.4-44.9-14.4-49.8c-1.3-3.1-4.3-2.9-4.3-2.9l-13.4,2.3l-1.2-4.6
				c0.8-0.1,1.2-0.2,1.2-0.2l15.2-2.9c0,0,3.9-1.3,6.1,4.5C-137.1,12-123.9,57.2-118.4,75.3z"/>
			<path class="st8" d="M-114.2,88.9c-0.7,1.9-2.8,3.9-7.7,4.8c-10,1.9-45.8,10.3-54.9,12.5c-1.6,0.4-3.4,0.2-4.9-0.5
				c-1.9-0.9-4.3-2.4-5.2-4.8c-1.3-3.8-18.5-63.1-22.8-78.1c-0.8-2.9,0-6.1,2.4-8c0.7-0.6,1.5-1,2.4-1.2c0.4-0.1,1.1-0.2,2.2-0.4
				c-1,0.2-5.3,1.4-4,6.5c1.4,5.8,22.9,80.1,22.9,80.1s1.6,5,8.8,2.9c8.7-2.2,14.2-3.6,14.2-3.6c0.6,0.4,1,0.7,1,0.7L-114.2,88.9z"
				/>
			<path class="st7" d="M-160.4,99.7c0,0-5.5,1.4-14.2,3.6c-2.8,0.8-4.8,0.4-6.3-0.5c0,0,0,0,0,0c-0.6-0.4-1.2-0.8-1.6-1.2
				c-0.3-0.3-0.6-0.7-0.9-1.1c0,0,0,0,0,0c-0.5-0.8-0.9-1.6-1.1-2.5c-2.7-9.1-21.4-73.3-22.7-78.7c-0.6-2.6,0.1-4.2,1.2-5.1
				c0,0,0,0,0,0c1-1,2.3-1.3,2.8-1.4c0.1,0,0.2,0,0.2,0l0.2,0l1-0.2l3.1-0.5l11.9-1.9l3-0.5l0,0.1l0.5,4.3h0l-0.1,0l-0.1,0
				c-0.3,0.1-0.9,0.2-1.7,0.3l-0.3,0c-2.5,0.5-6.7,1.2-10.4,1.8c-0.4,0.1-0.9,0.1-1.3,0.2h0c-0.8,0.1-1.5,0.2-2,0.3
				c-0.2,0-0.4,0.1-0.5,0.1c-1.7,0.5-1.7,1.1-1.9,1.5c-0.1,0.3,0,0.4,0,0.4c3.8,11.1,8.5,24.9,12.6,45.3c0.2,0.9,0.4,1.8,0.6,2.8
				c3.4,12.9,9.2,29.7,10.6,31.8c0.7,0.2,6.9-1.2,10.4-2.1c0.4-0.1,0.8-0.2,1.1-0.3c0.8-0.2,1.3-0.3,1.3-0.3s-0.8-0.9-0.5-0.6
				c0,0,1,1,1,1c0.7,0.5,1.8,1.2,2.7,1.9c0.4,0.3,0.8,0.7,1.1,0.9C-160.6,99.4-160.5,99.6-160.4,99.7z"/>
		</g>
	</g>
	<path class="st9" d="M-166.6,96.3c-0.3,0.1-0.7,0.2-1.1,0.3c-3.5,0.8-9.8,2.3-10.4,2.1c-1.4-2.1-7.1-18.8-10.6-31.8
		c-0.2-0.9-0.4-1.9-0.6-2.8c0.3,0.9,0.6,1.9,0.8,2.8c3.5,11.6,8.7,20.2,15.8,25.9c0,0,4.2,2.8,4.2,2.8c0,0,0,0,0,0
		C-167.7,95.9-167.1,96.1-166.6,96.3z"/>
	<path class="st10" d="M-103.2,85.6l-11.5,2.8l-45.5,11l0,0c-0.1-0.1-0.3-0.4-0.9-0.7c-0.3-0.1-0.5-0.2-0.8-0.3
		c-1.5-0.6-2.7-1.2-4.6-2c-0.5-0.2-1.1-0.5-1.8-0.7c0,0,0,0,0,0c0,0-4.2-2.8-4.2-2.8c-7.1-5.7-12.3-14.4-15.8-25.9
		c-0.3-0.9-0.5-1.8-0.8-2.8C-194.3,47.2-202,20-202,20s-0.2-0.5-0.2-1.2c0-0.1,0-0.3,0-0.4c0.1-0.5,0.3-1,0.9-1.3l1.4-0.2l0.8-0.1
		l2.1-0.3h0l1-0.2l10.4-1.8l0.3,0l2-0.3l0.1,0l0.1,0h0l23-3.9l1-0.2l0.6-0.1l12.8-2.2c0,0,2.9-0.7,4.3,3.6c0.1,0.3,0.2,0.8,0.4,1.3
		c2.4,8.1,10.8,40,10.8,40s1.1,3.6,3.1,8c0,0,0,0,0,0c2,4.5,4.9,10,8.4,13.6c0.3,0.3,0.6,0.6,0.8,0.8c0.1,0.1,0.3,0.3,0.5,0.4
		c0.9,0.8,2,1.6,3.1,2.4C-103.9,84.9-103.2,85.6-103.2,85.6z"/>
	<path id="clip" class="st11" d="M-156.9,13l-27,4c-0.1-1.6-0.7-6.5-2.1-7.2c-0.1-0.1-0.7,0-1.4,0c4.1-0.5,22.8-3.4,25.7-4
		c2.9-0.6,3.5,2.6,3.5,2.6C-157.7,10-157.4,11.4-156.9,13z"/>
	<g id="Paperinfo" class="st1">
		<g>
			
				<ellipse id="paperinfo" transform="matrix(0.943 -0.3329 0.3329 0.943 -20.7599 -60.1437)" class="st12" cx="-185.9" cy="30.5" rx="6.4" ry="6.9"/>
			<line class="st5" x1="-188.1" y1="31.6" x2="-185.3" y2="33.7"/>
			<line class="st5" x1="-183.9" y1="27.5" x2="-185.3" y2="33.7"/>
		</g>
		<g>
			
				<ellipse id="paperinfo_00000160881039937329729820000010991645109105484977_" transform="matrix(0.943 -0.3329 0.3329 0.943 -26.2538 -57.5393)" class="st12" cx="-181.1" cy="47.9" rx="6.4" ry="6.9"/>
			<line class="st5" x1="-183.2" y1="49" x2="-180.5" y2="51.1"/>
			<line class="st5" x1="-179.1" y1="44.8" x2="-180.5" y2="51.1"/>
		</g>
		<g>
			<line class="st5" x1="-176.3" y1="27.5" x2="-149.9" y2="22.6"/>
			<line class="st5" x1="-175.6" y1="30.3" x2="-160.3" y2="27.5"/>
		</g>
		<g>
			<line class="st5" x1="-160.9" y1="91.3" x2="-136.1" y2="85.7"/>
		</g>
		<g>
			<line class="st5" x1="-172" y1="42.5" x2="-145.6" y2="37.6"/>
			<line class="st5" x1="-170.4" y1="48.1" x2="-155.1" y2="45.4"/>
			<line class="st5" x1="-171.1" y1="45.4" x2="-155.8" y2="42.6"/>
		</g>
		<g>
			<line class="st5" x1="-182.5" y1="60.1" x2="-138.2" y2="51.8"/>
			<line class="st5" x1="-180.1" y1="66.2" x2="-140.3" y2="58.7"/>
			<line class="st5" x1="-181.4" y1="62.9" x2="-148.2" y2="56.6"/>
			<line class="st5" x1="-178" y1="73.3" x2="-148.6" y2="67.7"/>
		</g>
	</g>
</g>
<g id="Shadows">
	<polygon class="st13" points="39,225 1.6,205.3 37.7,186.9 75.4,205.7 	"/>
	<polygon class="st13" points="87,227 68,217 103,198 123.4,207.7 	"/>
	<polygon class="st13" points="149,194 110.6,175.3 146.7,156.9 185.4,175.7 	"/>
	<polygon class="st13" points="192,231 144,205 184,184 241,204 	"/>
</g>
<g id="Building">
	<g id="base_00000080919998830392855830000004367153044261071772_">
		<g>
			<g>
				<g>
					<polygon class="st14" points="85,193 32,165 32,156 85,184 					"/>
				</g>
			</g>
			<g>
				<polygon class="st15" points="85,184 32,156 86,128 139,156 				"/>
			</g>
			<g>
				<g>
					<polygon class="st15" points="85,192.9 139,165.1 139,156 85,184.1 					"/>
				</g>
			</g>
		</g>
	</g>
	<g id="buil">
		<g>
			<polygon class="st16" points="85,174 48,155 48,90 85,109 			"/>
		</g>
		<g>
			<polygon class="st17" points="85,109 48,90 85,71 122,90 			"/>
		</g>
		<g>
			<polygon class="st18" points="85,174 122,155.2 122,90.2 85,109.2 			"/>
		</g>
	</g>
	<g id="Glass">
		<polygon class="st15" points="101,123.9 95,127.1 95,114.1 101,110.9 		"/>
		<polygon class="st15" points="115,116.9 109,120.1 109,107.1 115,103.9 		"/>
		<polygon class="st15" points="101,143.9 95,147.1 95,134.1 101,130.9 		"/>
		<polygon class="st15" points="115,136.9 109,140.1 109,127.1 115,123.9 		"/>
	</g>
	<g id="Glass_00000028315473525861049810000000347873154376619648_">
		<polygon class="st15" points="70,124.9 76,128.1 76,115.1 70,111.9 		"/>
		<polygon class="st15" points="56,117.9 62,121.1 62,108.1 56,104.9 		"/>
		<polygon class="st15" points="70,144.9 76,148.1 76,135.1 70,131.9 		"/>
		<polygon class="st15" points="56,137.9 62,141.1 62,128.1 56,124.9 		"/>
	</g>
	<polygon id="Door" class="st17" points="109,161.8 101,165.8 101,152.1 109,147.9 	"/>
</g>
<g id="LLC_00000181786185796022119690000000475239119133596061_">
	<g id="LLC_00000103966136727290967270000000154284926232805304_">
		<g>
			<g>
				<polygon class="st16" points="85,99 48,80 48,49 85,68 				"/>
			</g>
			<g>
				<polygon class="st18" points="85,68 48,49 85,30 122,49 				"/>
			</g>
			<g>
				<polygon class="st18" points="85,99 122,80.2 122,49.2 85,68.2 				"/>
			</g>
		</g>
	</g>
	<polygon class="st15" points="70,82.9 76,86.1 76,72.1 70,68.9 	"/>
	<polygon class="st15" points="56,75.9 62,79.1 62,65.1 56,61.9 	"/>
	<polygon class="st15" points="100,83.4 94,86.5 94,72.5 100,69.4 	"/>
	<polygon class="st15" points="114,76.4 108,79.5 108,65.5 114,62.4 	"/>
</g>
<g id="Слой_8">
	<g>
		<g>
			<path class="st19" d="M70,50.5l8.9,4.5l4.6-2.3L86,54L79,57.6l-11.5-5.8L70,50.5z"/>
			<path class="st19" d="M77.7,46.6l8.9,4.5l4.6-2.3l2.7,1.3l-7.1,3.6l-11.5-5.8L77.7,46.6z"/>
			<path class="st19" d="M99.2,47.5c-3.8,1.9-6,1.8-10.7-0.6c-4.8-2.4-5-3.5-1.1-5.4s5.8-1.9,9.8,0.1L94.5,43
				c-2.3-1.2-2.7-1.2-4.6-0.2c-1.9,1-1.8,1.3,1.3,2.8c3.1,1.6,3.6,1.6,5.6,0.6c1.9-1,1.9-1.2-0.4-2.4l2.6-1.3
				C103,44.5,103,45.5,99.2,47.5z"/>
		</g>
	</g>
</g>
<g id="Docs">
	<g id="LLC_00000057124073214058326020000017996796985837199744_">
		<g>
			<g>
				<polygon class="st16" points="51.4,217.4 22.7,202.7 22.7,160.7 51.4,175.4 				"/>
			</g>
			<g>
				<polygon class="st18" points="51.4,175.4 22.7,160.7 51.4,146 80,160.7 				"/>
			</g>
			<g>
				<polygon class="st18" points="51.4,217.4 80,202.8 80,160.9 51.4,175.6 				"/>
			</g>
		</g>
	</g>
	<g id="LLC_00000052076809681803127480000011939767142791188367_">
		<g>
			<g>
				<polygon class="st16" points="156.4,189.4 127.7,174.7 127.7,139.7 156.4,154.4 				"/>
			</g>
			<g>
				<polygon class="st18" points="156.4,154.4 127.7,139.7 156.4,125 185,139.7 				"/>
			</g>
			<g>
				<polygon class="st18" points="156.4,189.4 185,174.8 185,139.9 156.4,154.6 				"/>
			</g>
		</g>
	</g>
	<g>
		<polygon class="st20" points="74.6,178.2 74.6,196 58.4,204.3 58.4,182 70.1,176 		"/>
		<g>
			<line class="st20" x1="61.4" y1="189.5" x2="71.6" y2="184.4"/>
			<line class="st20" x1="61.4" y1="192.6" x2="71.6" y2="187.4"/>
			<line class="st20" x1="61.4" y1="195.6" x2="71.6" y2="190.5"/>
		</g>
	</g>
	<g>
		<g class="st0">
			<path class="st21" d="M50.8,216.6l0-5.3l1.9-1c0.6-0.3,1-0.4,1.4-0.4c0.4,0,0.7,0.2,0.9,0.5c0.2,0.3,0.3,0.7,0.3,1.2
				c0,0.5-0.1,1.1-0.3,1.6c-0.2,0.5-0.5,1-0.9,1.4c-0.4,0.4-0.8,0.8-1.4,1.1L50.8,216.6z M54.2,212.1c0-0.3-0.1-0.6-0.2-0.8
				c-0.1-0.2-0.3-0.3-0.5-0.3c-0.2,0-0.5,0.1-0.8,0.2l-0.9,0.5l0,3.5l0.9-0.5c0.3-0.2,0.6-0.4,0.8-0.7s0.4-0.6,0.5-0.9
				C54.2,212.8,54.2,212.4,54.2,212.1z"/>
			<path class="st21" d="M57.7,212.9c-0.3,0.2-0.6,0.3-0.8,0.3c-0.2,0-0.5,0-0.6-0.1c-0.2-0.1-0.3-0.2-0.4-0.4
				c-0.1-0.2-0.1-0.4-0.1-0.7c0-0.3,0-0.6,0.1-0.8c0.1-0.3,0.2-0.6,0.4-0.9c0.2-0.3,0.4-0.5,0.6-0.8c0.2-0.2,0.5-0.4,0.8-0.6
				c0.3-0.2,0.6-0.3,0.8-0.3c0.2,0,0.5,0,0.6,0.1c0.2,0.1,0.3,0.2,0.4,0.4c0.1,0.2,0.1,0.4,0.1,0.7c0,0.3,0,0.5-0.1,0.8
				c-0.1,0.3-0.2,0.6-0.4,0.9c-0.2,0.3-0.4,0.5-0.6,0.8C58.3,212.6,58.1,212.8,57.7,212.9z M56.7,211.5c0,0.2,0,0.4,0.1,0.5
				c0.1,0.1,0.2,0.2,0.4,0.2c0.2,0,0.3,0,0.5-0.1c0.2-0.1,0.4-0.2,0.5-0.4c0.2-0.2,0.3-0.4,0.4-0.6c0.1-0.2,0.1-0.4,0.1-0.7
				c0-0.2,0-0.4-0.1-0.5s-0.2-0.2-0.4-0.2s-0.3,0-0.5,0.1c-0.2,0.1-0.4,0.2-0.5,0.4c-0.2,0.2-0.3,0.4-0.4,0.6S56.7,211.3,56.7,211.5
				z"/>
			<path class="st21" d="M62.2,210.5c-0.3,0.2-0.6,0.3-0.8,0.3c-0.2,0-0.5,0-0.6-0.1c-0.2-0.1-0.3-0.2-0.4-0.4
				c-0.1-0.2-0.1-0.4-0.1-0.7c0-0.4,0.1-0.7,0.2-1.1s0.4-0.8,0.7-1.1s0.7-0.6,1.1-0.9c0.4-0.2,0.8-0.3,1.1-0.3
				c0.3,0,0.5,0.1,0.7,0.4l-1,0.8c-0.1-0.1-0.2-0.2-0.3-0.2c-0.1,0-0.3,0-0.5,0.1c-0.2,0.1-0.3,0.2-0.5,0.4
				c-0.2,0.2-0.3,0.4-0.4,0.6c-0.1,0.2-0.1,0.4-0.1,0.7c0,0.2,0,0.4,0.1,0.5c0.1,0.1,0.2,0.2,0.4,0.2c0.2,0,0.3,0,0.5-0.1
				c0.1-0.1,0.2-0.1,0.3-0.2c0.1-0.1,0.2-0.2,0.3-0.3c0.1-0.1,0.1-0.2,0.2-0.3l1-0.2c-0.1,0.2-0.2,0.5-0.4,0.7
				c-0.2,0.2-0.4,0.5-0.6,0.7C62.7,210.2,62.5,210.4,62.2,210.5z"/>
			<path class="st21" d="M65.9,208.5c-0.3,0.2-0.6,0.3-0.9,0.3c-0.3,0.1-0.6,0-0.8-0.1l0.4-0.8c0.2,0.1,0.4,0.1,0.7,0.1
				s0.4-0.1,0.6-0.2c0.2-0.1,0.3-0.2,0.5-0.3c0.1-0.1,0.2-0.3,0.2-0.4c0-0.1,0-0.2-0.1-0.2c-0.1,0-0.2,0-0.3,0s-0.3,0.1-0.4,0.1
				c-0.3,0.1-0.5,0.1-0.7,0.1c-0.2,0-0.3,0-0.4-0.1c-0.1-0.1-0.1-0.2-0.1-0.4c0-0.3,0.1-0.5,0.2-0.8c0.1-0.3,0.3-0.5,0.5-0.7
				c0.2-0.2,0.5-0.4,0.8-0.6c0.3-0.1,0.5-0.2,0.8-0.3c0.2,0,0.5,0,0.7,0.1l-0.4,0.9c-0.2-0.1-0.4-0.1-0.5,0s-0.4,0.1-0.5,0.2
				c-0.1,0.1-0.2,0.1-0.3,0.2c-0.1,0.1-0.2,0.2-0.2,0.2s-0.1,0.2-0.1,0.3c0,0.1,0,0.1,0.1,0.2c0.1,0,0.1,0,0.2,0
				c0.1,0,0.2,0,0.4-0.1c0.3-0.1,0.6-0.1,0.8-0.2c0.2,0,0.4,0,0.5,0.1s0.2,0.2,0.2,0.5c0,0.4-0.1,0.8-0.4,1.1S66.4,208.3,65.9,208.5
				z"/>
		</g>
	</g>
	<g>
		<g class="st0">
			<path class="st21" d="M158,187c0,0.3-0.1,0.6-0.2,0.9c-0.2,0.3-0.4,0.5-0.6,0.8c-0.3,0.2-0.5,0.4-0.8,0.6l-2.5,1.4l0-5.3l2.8-1.5
				c0.2-0.1,0.5-0.2,0.6-0.1s0.3,0.1,0.4,0.3c0.1,0.2,0.1,0.3,0.1,0.6c0,0.3-0.1,0.5-0.2,0.8c-0.1,0.3-0.3,0.6-0.6,0.8
				c0.3-0.1,0.5,0,0.7,0.1C157.9,186.4,158,186.6,158,187z M154.8,185.6l0,1.3l1.3-0.7c0.1-0.1,0.2-0.1,0.3-0.2s0.2-0.2,0.2-0.4
				c0.1-0.1,0.1-0.3,0.1-0.4c0-0.1,0-0.2-0.1-0.3c-0.1-0.1-0.1-0.1-0.2-0.1c-0.1,0-0.2,0-0.3,0.1L154.8,185.6z M157,187.3
				c0-0.1,0-0.2-0.1-0.3c-0.1-0.1-0.1-0.1-0.2-0.1s-0.2,0-0.3,0.1l-1.6,0.8l0,1.4l1.5-0.8c0.1-0.1,0.2-0.2,0.3-0.3
				c0.1-0.1,0.2-0.2,0.2-0.4C157,187.6,157,187.5,157,187.3z"/>
			<path class="st21" d="M158.4,187c0-0.3,0.1-0.5,0.2-0.8c0.1-0.3,0.3-0.5,0.6-0.7c0.2-0.2,0.5-0.4,0.9-0.6
				c0.2-0.1,0.3-0.2,0.5-0.2s0.3-0.1,0.4-0.1l0-0.2c0-0.2-0.1-0.4-0.2-0.4s-0.4,0-0.6,0.1c-0.2,0.1-0.4,0.3-0.6,0.4
				c-0.2,0.2-0.4,0.4-0.6,0.6l-0.3-0.5c0.2-0.3,0.5-0.6,0.8-0.8c0.3-0.2,0.5-0.4,0.8-0.6c0.5-0.3,1-0.4,1.3-0.3
				c0.3,0.1,0.5,0.4,0.5,0.9l0,1.2c0,0.1,0,0.2,0.1,0.2c0,0,0.1,0,0.2,0l0,0.8c-0.1,0.1-0.2,0.1-0.2,0.2s-0.1,0.1-0.2,0.1
				c-0.2,0.1-0.3,0.1-0.4,0.1c-0.1,0-0.2-0.1-0.2-0.2l0-0.2c-0.2,0.3-0.4,0.6-0.6,0.8c-0.2,0.3-0.5,0.4-0.8,0.6
				c-0.3,0.1-0.5,0.2-0.7,0.2c-0.2,0-0.4-0.1-0.5-0.2S158.4,187.2,158.4,187z M160.8,185.9c0.1-0.1,0.1-0.2,0.1-0.2
				c0-0.1,0.1-0.1,0.1-0.2l0-0.4c-0.1,0-0.2,0-0.4,0.1s-0.3,0.1-0.4,0.2c-0.3,0.1-0.5,0.3-0.6,0.5c-0.2,0.2-0.2,0.4-0.2,0.6
				c0,0.1,0,0.2,0.1,0.2c0.1,0.1,0.1,0.1,0.2,0.1c0.1,0,0.2,0,0.4-0.1c0.1-0.1,0.3-0.2,0.4-0.3C160.6,186.1,160.7,186,160.8,185.9z"
				/>
			<path class="st21" d="M166.5,183.8l-1,0.5l0-2.2c0-0.3-0.1-0.5-0.2-0.6c-0.1-0.1-0.3-0.1-0.5,0c-0.1,0.1-0.3,0.2-0.4,0.3
				c-0.1,0.1-0.3,0.3-0.4,0.5c-0.1,0.2-0.2,0.4-0.2,0.5l0,2.3l-1,0.5l0-3.9l0.9-0.5l0,0.7c0.1-0.2,0.2-0.4,0.4-0.6
				c0.2-0.2,0.3-0.4,0.5-0.5c0.2-0.2,0.4-0.3,0.6-0.4c0.2-0.1,0.4-0.2,0.6-0.2c0.2,0,0.3,0.1,0.4,0.2c0.1,0.1,0.1,0.2,0.2,0.4
				s0,0.3,0,0.5L166.5,183.8z"/>
			<path class="st21" d="M169.9,181.9l-1.1-1.1l-0.5,0.8l0,1.2l-1,0.5l0-5.4l1-0.5l0,3.3l1.5-2.6l1-0.6l-1.4,2.4l1.5,1.4
				L169.9,181.9z"/>
			<path class="st21" d="M172.8,180.4c-0.3,0.2-0.6,0.3-0.9,0.3c-0.3,0.1-0.6,0-0.8-0.1l0.4-0.8c0.2,0.1,0.4,0.1,0.7,0.1
				c0.2,0,0.4-0.1,0.6-0.2c0.2-0.1,0.3-0.2,0.5-0.3c0.1-0.1,0.2-0.3,0.2-0.4c0-0.1,0-0.2-0.1-0.2c-0.1,0-0.2,0-0.3,0
				c-0.1,0-0.3,0.1-0.4,0.1c-0.3,0.1-0.5,0.1-0.7,0.1c-0.2,0-0.3,0-0.4-0.1s-0.1-0.2-0.1-0.4c0-0.3,0.1-0.5,0.2-0.8
				c0.1-0.3,0.3-0.5,0.5-0.7c0.2-0.2,0.5-0.4,0.8-0.6c0.3-0.1,0.5-0.2,0.8-0.3c0.2,0,0.5,0,0.7,0.1l-0.4,0.9
				c-0.2-0.1-0.4-0.1-0.5-0.1c-0.2,0-0.4,0.1-0.5,0.2c-0.1,0.1-0.2,0.1-0.3,0.2c-0.1,0.1-0.2,0.2-0.2,0.2c-0.1,0.1-0.1,0.2-0.1,0.3
				c0,0.1,0,0.1,0.1,0.2c0.1,0,0.1,0,0.2,0c0.1,0,0.2,0,0.4-0.1c0.3-0.1,0.6-0.1,0.8-0.2c0.2,0,0.4,0,0.5,0.1s0.2,0.2,0.2,0.5
				c0,0.4-0.1,0.8-0.4,1.1C173.7,179.8,173.3,180.2,172.8,180.4z"/>
		</g>
	</g>
	<g>
		
			<ellipse transform="matrix(0.5063 -0.8624 0.8624 0.5063 -57.4023 228.6646)" class="st20" cx="171" cy="164.5" rx="13.5" ry="8.7"/>
		<g>
			<g>
				<path class="st22" d="M174.3,159.6c-0.1-0.1-0.2-0.1-0.4-0.1c-0.2,0-0.4-0.1-0.7-0.1c-0.3,0-0.5,0-0.9,0.1
					c-0.3,0.1-0.6,0.2-1,0.3c-0.6,0.3-1,0.6-1.3,0.9c-0.3,0.4-0.4,0.8-0.4,1.2c0,0.3,0.1,0.6,0.3,0.7c0.2,0.1,0.5,0.2,0.8,0.1
					c0.4,0,0.8-0.1,1.3-0.2c0.7-0.1,1.3-0.2,1.8-0.1c0.5,0,0.9,0.2,1.2,0.6c0.3,0.3,0.4,0.9,0.4,1.6c0,0.6-0.1,1.2-0.3,1.8
					s-0.5,1.1-0.9,1.5c-0.4,0.5-0.8,0.9-1.3,1.2c-0.5,0.3-1,0.6-1.5,0.9c-0.5,0.2-1.1,0.4-1.6,0.5c-0.5,0.1-1,0.2-1.5,0.2
					c-0.5,0-0.9-0.1-1.3-0.2l0.9-2.5c0.1,0.1,0.2,0.1,0.5,0.2s0.5,0.1,0.8,0.1c0.3,0,0.7,0,1.1-0.1c0.4-0.1,0.8-0.2,1.2-0.4
					c0.6-0.3,1-0.6,1.3-0.9c0.3-0.3,0.4-0.7,0.4-1.1c0-0.4-0.1-0.6-0.3-0.7c-0.2-0.1-0.5-0.1-1-0.1c-0.4,0-0.9,0.1-1.5,0.2
					c-0.7,0.1-1.2,0.1-1.7,0s-0.8-0.3-1-0.6c-0.2-0.3-0.3-0.8-0.3-1.4c0-0.8,0.2-1.6,0.5-2.3c0.3-0.7,0.8-1.4,1.4-1.9
					c0.6-0.6,1.2-1,2-1.3c0.5-0.2,1-0.4,1.4-0.5c0.4-0.1,0.9-0.1,1.3-0.1c0.4,0,0.7,0.1,1,0.2L174.3,159.6z M171,156.2l1-0.5v2.8
					l-1,0.6V156.2z M171,169l1-0.5v3.1l-1,0.5V169z M171.1,168.7v-9.3l0.7-0.5v9.6L171.1,168.7z"/>
			</g>
		</g>
	</g>
</g>
<g id="Seals">
	<g id="Seal_00000009548110349573515470000001918261214929622719_">
		<g>
			<g>
				<polygon class="st16" points="99.4,219.4 83.7,211.7 83.7,179.7 99.4,187.4 				"/>
			</g>
			<g>
				<polygon class="st18" points="99.4,187.4 83.7,179.7 108.4,167 124,174.7 				"/>
			</g>
			<g>
				<polygon class="st18" points="99.4,219.4 124,206.8 124,174.9 99.4,187.4 				"/>
			</g>
		</g>
	</g>
	<path class="st20" d="M120,195.4v5.2l-16,8.1v-5.2c0-0.6,0.5-1.4,1.1-1.7l3.9-1.9l0.3-0.5c0.8-1.2,1.1-2.4,0.8-3.3
		c-1-0.1-1.7-0.9-1.7-2.2c0-2,1.6-4.4,3.6-5.3s3.6-0.2,3.6,1.8c0,1.3-0.7,2.7-1.7,3.9c-0.2,1.1,0.1,2.1,0.8,2.5l0.3,0.2l3.9-1.9
		C119.5,194.6,120,194.8,120,195.4z"/>
	<g>
		<g class="st0">
			<path class="st21" d="M99,215.1c0,0-0.1,0-0.2,0c-0.1,0-0.2,0-0.3,0c-0.1,0-0.3,0-0.4,0.1c-0.2,0-0.3,0.1-0.5,0.2
				c-0.3,0.1-0.5,0.3-0.6,0.5c-0.1,0.2-0.2,0.4-0.2,0.5c0,0.1,0,0.2,0.1,0.3c0.1,0,0.2,0,0.4,0s0.4-0.1,0.7-0.1
				c0.3-0.1,0.6-0.1,0.9-0.1c0.2,0,0.4,0.1,0.6,0.2c0.1,0.1,0.2,0.4,0.2,0.7c0,0.3-0.1,0.5-0.2,0.8c-0.1,0.2-0.2,0.5-0.4,0.7
				s-0.4,0.4-0.6,0.6c-0.2,0.2-0.5,0.3-0.7,0.5c-0.3,0.1-0.5,0.2-0.8,0.3s-0.5,0.1-0.7,0.1c-0.2,0-0.5,0-0.7,0l0.4-1.1
				c0,0,0.1,0,0.2,0.1s0.2,0,0.4,0c0.2,0,0.3,0,0.5-0.1c0.2,0,0.4-0.1,0.6-0.2c0.3-0.1,0.5-0.3,0.6-0.5c0.1-0.2,0.2-0.3,0.2-0.5
				c0-0.2-0.1-0.3-0.2-0.3s-0.3,0-0.5,0c-0.2,0-0.4,0.1-0.7,0.2c-0.3,0.1-0.6,0.1-0.8,0.1c-0.2,0-0.4-0.1-0.5-0.2
				c-0.1-0.1-0.2-0.3-0.2-0.6c0-0.4,0.1-0.7,0.3-1c0.2-0.3,0.4-0.6,0.7-0.9c0.3-0.3,0.6-0.5,1-0.7c0.2-0.1,0.5-0.2,0.7-0.3
				c0.2-0.1,0.4-0.1,0.6-0.1c0.2,0,0.4,0,0.5,0L99,215.1z"/>
			<path class="st21" d="M102.1,217.6c-0.3,0.2-0.6,0.2-0.8,0.3s-0.5,0-0.6-0.1c-0.2-0.1-0.3-0.2-0.4-0.4c-0.1-0.2-0.1-0.4-0.1-0.7
				c0-0.4,0.1-0.7,0.2-1.1s0.4-0.8,0.7-1.1c0.3-0.3,0.7-0.6,1.1-0.8c0.4-0.2,0.8-0.3,1.1-0.3c0.3,0,0.5,0.2,0.7,0.4
				c0.2,0.2,0.2,0.5,0.2,0.9c0,0.1,0,0.1,0,0.2c0,0.1,0,0.1,0,0.2l-3,1.5c0,0.2,0.1,0.3,0.2,0.4c0.1,0.1,0.2,0.1,0.4,0.1
				c0.2,0,0.3,0,0.5-0.1c0.2-0.1,0.4-0.2,0.6-0.4c0.2-0.2,0.3-0.4,0.4-0.6l0.8-0.2c-0.1,0.2-0.2,0.5-0.4,0.7
				c-0.2,0.2-0.4,0.5-0.6,0.7C102.6,217.2,102.4,217.4,102.1,217.6z M101.1,215.8l2-1c0-0.2-0.1-0.3-0.2-0.4
				c-0.1-0.1-0.2-0.1-0.4-0.2c-0.1,0-0.3,0-0.5,0.1c-0.2,0.1-0.3,0.2-0.5,0.4c-0.1,0.2-0.3,0.3-0.4,0.5
				C101.1,215.4,101.1,215.6,101.1,215.8z"/>
			<path class="st21" d="M104.4,215.2c0-0.2,0.1-0.5,0.2-0.8c0.1-0.3,0.3-0.5,0.6-0.7c0.2-0.2,0.5-0.4,0.9-0.6
				c0.2-0.1,0.3-0.2,0.5-0.2c0.2-0.1,0.3-0.1,0.4-0.1l0-0.2c0-0.2-0.1-0.4-0.2-0.4c-0.1-0.1-0.4,0-0.6,0.1c-0.2,0.1-0.4,0.2-0.6,0.4
				c-0.2,0.2-0.4,0.4-0.6,0.6l-0.3-0.5c0.2-0.3,0.5-0.6,0.8-0.8c0.3-0.2,0.5-0.4,0.8-0.5c0.5-0.3,1-0.4,1.3-0.2
				c0.3,0.1,0.5,0.4,0.5,0.9l0,1.2c0,0.1,0,0.2,0.1,0.2s0.1,0,0.2,0l0,0.8c-0.1,0.1-0.2,0.1-0.2,0.2s-0.1,0.1-0.2,0.1
				c-0.2,0.1-0.3,0.1-0.4,0.1c-0.1,0-0.2-0.1-0.2-0.2l0-0.2c-0.2,0.3-0.4,0.6-0.6,0.8c-0.2,0.2-0.5,0.4-0.8,0.6
				c-0.3,0.1-0.5,0.2-0.7,0.2c-0.2,0-0.4-0.1-0.5-0.2C104.5,215.6,104.4,215.4,104.4,215.2z M106.8,214.1c0.1-0.1,0.1-0.2,0.1-0.2
				c0-0.1,0.1-0.1,0.1-0.2l0-0.4c-0.1,0-0.2,0-0.4,0.1c-0.1,0-0.3,0.1-0.4,0.2c-0.3,0.1-0.5,0.3-0.6,0.5c-0.2,0.2-0.2,0.4-0.2,0.6
				c0,0.1,0,0.2,0.1,0.2c0.1,0.1,0.1,0.1,0.2,0.1c0.1,0,0.2,0,0.4-0.1s0.3-0.2,0.4-0.3C106.6,214.4,106.7,214.3,106.8,214.1z"/>
			<path class="st21" d="M108.9,208.6l1-0.5l0,4.2c0,0.2,0,0.3,0.1,0.3c0.1,0,0.1,0,0.2,0c0.1,0,0.2-0.1,0.3-0.2
				c0.1-0.1,0.2-0.1,0.2-0.2l0.1,0.7c-0.1,0.1-0.3,0.3-0.5,0.4c-0.2,0.1-0.3,0.2-0.5,0.3c-0.3,0.2-0.5,0.2-0.7,0.1
				c-0.2-0.1-0.3-0.3-0.3-0.6L108.9,208.6z"/>
			<path class="st21" d="M112.6,212.2c-0.3,0.2-0.6,0.3-0.9,0.3c-0.3,0-0.6,0-0.8-0.1l0.4-0.8c0.2,0.1,0.4,0.1,0.7,0.1
				c0.2,0,0.4-0.1,0.6-0.2c0.2-0.1,0.3-0.2,0.5-0.3c0.1-0.1,0.2-0.3,0.2-0.4c0-0.1,0-0.2-0.1-0.2c-0.1,0-0.2,0-0.3,0
				c-0.1,0-0.3,0.1-0.4,0.1c-0.3,0.1-0.5,0.1-0.7,0.1c-0.2,0-0.3,0-0.4-0.1s-0.1-0.2-0.1-0.4c0-0.3,0.1-0.5,0.2-0.8
				c0.1-0.3,0.3-0.5,0.5-0.7c0.2-0.2,0.5-0.4,0.8-0.6c0.3-0.1,0.5-0.2,0.8-0.3c0.2,0,0.5,0,0.7,0.1l-0.4,0.8
				c-0.2-0.1-0.4-0.1-0.6-0.1c-0.2,0-0.4,0.1-0.5,0.2c-0.1,0.1-0.2,0.1-0.3,0.2c-0.1,0.1-0.2,0.1-0.2,0.2c-0.1,0.1-0.1,0.2-0.1,0.3
				c0,0.1,0,0.1,0.1,0.2c0.1,0,0.1,0,0.2,0c0.1,0,0.2,0,0.4-0.1c0.3-0.1,0.6-0.1,0.8-0.1c0.2,0,0.4,0,0.5,0.1s0.2,0.2,0.2,0.5
				c0,0.4-0.1,0.8-0.4,1.1C113.5,211.7,113.1,212,112.6,212.2z"/>
		</g>
	</g>
</g>
<g id="Crane">
	<g>
		<line class="st18" x1="204" y1="219.2" x2="204" y2="218.9"/>
		<polygon class="st23" points="241.9,191.6 204,212.3 166.1,191.6 204,171 		"/>
		<polygon class="st23" points="242,191.7 242,203.3 241.9,203.3 204,223.9 204,212.3 		"/>
		<line class="st24" x1="122" y1="49" x2="85.5" y2="26.5"/>
		<line class="st24" x1="49" y1="49" x2="84.5" y2="26.5"/>
		<polygon class="st25" points="204,212.3 204,223.9 166.1,203.3 166,203.2 166,191.7 166.1,191.6 		"/>
		<polygon class="st18" points="187.9,46.8 187.9,56.2 187.8,56.2 177,61.9 177,52.5 		"/>
		<g>
			<polyline class="st24" points="218.3,161.9 204.1,171 218.3,179.1 204.1,201.5 			"/>
			<polyline class="st24" points="218.3,130.9 204.1,140 218.3,146.1 204.1,170.5 			"/>
			<polyline class="st24" points="218.3,99.9 204.1,109 218.3,115.1 204.1,139.5 			"/>
			<polyline class="st24" points="219.3,68.9 204.1,75 218.3,84.1 204.1,108.5 			"/>
		</g>
		<g>
			<polyline class="st24" points="188.8,162 204,171.1 188.8,179.2 204,201.6 			"/>
			<polyline class="st24" points="188.8,131 204,140.1 188.8,148.2 204,170.6 			"/>
			<polyline class="st24" points="188.8,100 204,109.1 188.8,117.2 204,139.6 			"/>
			<polyline class="st24" points="188.8,69 204,75.1 188.8,86.2 204,108.6 			"/>
		</g>
		<g>
			<line class="st24" x1="85" y1="26" x2="85" y2="68"/>
			<polygon class="st26" points="190.8,40.7 180,46.5 80.4,25.6 85.5,23.5 			"/>
			<polygon class="st26" points="180.5,46.5 177,61.9 77.5,28.5 77.5,28.5 80.5,25.5 83.5,26.5 			"/>
		</g>
		<g>
			<polygon class="st24" points="219,67.2 219,193.4 218.9,193.5 204.1,201.5 204.1,75.2 			"/>
			<polygon class="st24" points="204,75.3 204,201.6 188.9,193.4 188.8,193.4 188.8,67 188.9,67 			"/>
		</g>
		<g>
			<polygon class="st18" points="228.8,31.7 207,47.5 189.2,38.7 208,31 			"/>
			<polygon class="st18" points="228.9,31.8 228.9,65.2 228.8,65.2 207,76.9 207,41.5 			"/>
			<path class="st27" d="M207,41.5v35.4l-30.8-12.7l-0.1-0.1V53.8c0-2.8,1.2-5.5,3.3-7.3l9.1-6.9l1-1L207,41.5z"/>
			<path class="st25" d="M201,44.9v14.4l-16.8-5.5l-0.1,0v-2.1c0-1.5,0.7-3,1.8-4l2.6-2.1l2.9-2.3L201,44.9z"/>
		</g>
	</g>
</g>
</svg>
