<?xml version="1.0" encoding="utf-8"?>
<!-- Generator: Adobe Illustrator 28.1.0, SVG Export Plug-In . SVG Version: 6.00 Build 0)  -->
<svg version="1.1" xmlns="http://www.w3.org/2000/svg" xmlns:xlink="http://www.w3.org/1999/xlink" x="0px" y="0px"
	 viewBox="0 0 250 250" style="enable-background:new 0 0 250 250;" xml:space="preserve">
<style type="text/css">
	.st0{display:none;}
	.st1{display:inline;}
	.st2{fill:#66ACFF;stroke:#00288A;stroke-linejoin:round;stroke-miterlimit:10;}
	.st3{fill:#9CDCFF;stroke:#00288A;stroke-linejoin:round;stroke-miterlimit:10;}
	.st4{fill:#FFFFFF;stroke:#00288A;stroke-linecap:round;stroke-linejoin:round;stroke-miterlimit:10;}
	.st5{fill:none;stroke:#00288A;stroke-linecap:round;stroke-linejoin:round;stroke-miterlimit:10;}
	.st6{fill:#00ABFF;stroke:#00288A;stroke-linejoin:round;stroke-miterlimit:10;}
	.st7{fill:#00ABFF;stroke:#00288A;stroke-miterlimit:10;}
	.st8{fill:#006DF0;stroke:#00288A;stroke-miterlimit:10;}
	.st9{display:inline;fill:#D4DCFF;stroke:#00288A;stroke-miterlimit:10;}
	.st10{display:inline;fill:#FFFFFF;stroke:#00288A;stroke-miterlimit:10;}
	.st11{display:inline;fill:#00ABFF;stroke:#00288A;stroke-linejoin:round;stroke-miterlimit:10;}
	.st12{fill:none;stroke:#00288A;stroke-linejoin:round;stroke-miterlimit:10;}
	.st13{opacity:0.1;fill:#002994;}
	.st14{fill:#006DF0;stroke:#00288A;stroke-width:1.5;stroke-linejoin:round;stroke-miterlimit:10;}
	.st15{fill:#00ABFF;stroke:#00288A;stroke-width:1.5;stroke-linejoin:round;stroke-miterlimit:10;}
	.st16{fill:#9CDCFF;stroke:#00288A;stroke-width:1.2;stroke-linejoin:round;stroke-miterlimit:10;}
	.st17{fill:#66ACFF;stroke:#00288A;stroke-width:1.2;stroke-linejoin:round;stroke-miterlimit:10;}
	.st18{fill:#FFFFFF;stroke:#00288A;stroke-width:1.2;stroke-linecap:round;stroke-linejoin:round;stroke-miterlimit:10;}
	.st19{fill:#00ABFF;stroke:#00288A;stroke-width:1.2;stroke-linejoin:round;stroke-miterlimit:10;}
	.st20{fill:#66ACFF;}
	.st21{fill:#66ACFF;stroke:#00288A;stroke-width:1.2;stroke-linecap:round;stroke-linejoin:round;stroke-miterlimit:10;}
	.st22{display:inline;fill:#00288A;}
	.st23{fill:#00288A;}
	.st24{fill:#00ABFF;stroke:#00288A;stroke-width:1.2;stroke-linecap:round;stroke-linejoin:round;stroke-miterlimit:10;}
	.st25{fill:none;stroke:#00288A;stroke-width:1.2;stroke-linecap:round;stroke-linejoin:round;stroke-miterlimit:10;}
	.st26{fill:#006DF0;stroke:#00288A;stroke-width:1.2;stroke-linecap:round;stroke-linejoin:round;stroke-miterlimit:10;}
	.st27{fill:#3FA9F5;stroke:#00288A;stroke-width:1.2;stroke-linecap:round;stroke-linejoin:round;stroke-miterlimit:10;}
	.st28{fill:#9CDCFF;stroke:#00288A;stroke-width:1.2;stroke-linecap:round;stroke-linejoin:round;stroke-miterlimit:10;}
</style>
<g id="Слой_1" class="st0">
	
		<image style="display:inline;overflow:visible;" width="605" height="404" xlink:href="../png/rmcompanies-illustration.png"  transform="matrix(0.6436 0 0 0.6436 -73.855 0)">
	</image>
</g>
<g id="Слой_2" class="st0">
	<g class="st1">
		<polygon class="st2" points="-84.3,85 -149.3,64 -149.3,16 -84.3,37 		"/>
		<polygon class="st3" points="-39.3,71 -84.3,85 -84.3,37 -39.3,23 		"/>
		<polygon class="st4" points="-103.3,2 -149.3,16 -84.3,37 -39.3,23 		"/>
	</g>
	<g id="paperinfo_00000050622426486951671920000008964967433862240920_" class="st1">
		<line class="st5" x1="-85.8" y1="32.9" x2="-51.3" y2="22"/>
		<line class="st5" x1="-92.3" y1="29.7" x2="-59.5" y2="19.2"/>
		<line class="st5" x1="-123.3" y1="19.7" x2="-89.3" y2="10"/>
		<line class="st5" x1="-128.3" y1="18.7" x2="-94.3" y2="9"/>
		<line class="st5" x1="-132.3" y1="16.7" x2="-98.3" y2="7"/>
		<line class="st5" x1="-88.8" y1="31.3" x2="-72.3" y2="26"/>
		<polygon class="st6" points="-65.3,18 -97.3,28 -118.3,22 -83.3,12 		"/>
	</g>
	<g id="paperfolds" class="st1">
		<line class="st5" x1="-149.3" y1="56" x2="-135.3" y2="60"/>
		<line class="st5" x1="-149.3" y1="61" x2="-121.3" y2="70"/>
		<line class="st5" x1="-149.3" y1="36" x2="-129.3" y2="42"/>
		<line class="st5" x1="-84.3" y1="46" x2="-51.3" y2="36"/>
		<line class="st5" x1="-84.3" y1="48" x2="-118.3" y2="37"/>
		<line class="st5" x1="-84.3" y1="61" x2="-67.3" y2="56"/>
		<line class="st5" x1="-84.3" y1="82" x2="-51.3" y2="72"/>
		<line class="st5" x1="-39.3" y1="63" x2="-70.3" y2="73"/>
		<line class="st5" x1="-84.3" y1="75" x2="-113.3" y2="67"/>
		<line class="st5" x1="-149.3" y1="19" x2="-116.3" y2="30"/>
		<line class="st5" x1="-39.3" y1="28" x2="-65.3" y2="36"/>
		<line class="st5" x1="-84.3" y1="64" x2="-47.3" y2="53"/>
	</g>
	<g id="base" class="st1">
		<g id="Base">
			<path class="st7" d="M-118.4,75.3C-126.1,68.7-128,61-128,61s-12.4-44.9-14.4-49.8c-1.3-3.1-4.3-2.9-4.3-2.9l-13.4,2.3l-1.2-4.6
				c0.8-0.1,1.2-0.2,1.2-0.2l15.2-2.9c0,0,3.9-1.3,6.1,4.5C-137.1,12-123.9,57.2-118.4,75.3z"/>
			<path class="st8" d="M-114.2,88.9c-0.7,1.9-2.8,3.9-7.7,4.8c-10,1.9-45.8,10.3-54.9,12.5c-1.6,0.4-3.4,0.2-4.9-0.5
				c-1.9-0.9-4.3-2.4-5.2-4.8c-1.3-3.8-18.5-63.1-22.8-78.1c-0.8-2.9,0-6.1,2.4-8c0.7-0.6,1.5-1,2.4-1.2c0.4-0.1,1.1-0.2,2.2-0.4
				c-1,0.2-5.3,1.4-4,6.5c1.4,5.8,22.9,80.1,22.9,80.1s1.6,5,8.8,2.9c8.7-2.2,14.2-3.6,14.2-3.6c0.6,0.4,1,0.7,1,0.7L-114.2,88.9z"
				/>
			<path class="st7" d="M-160.4,99.7c0,0-5.5,1.4-14.2,3.6c-2.8,0.8-4.8,0.4-6.3-0.5c0,0,0,0,0,0c-0.6-0.4-1.2-0.8-1.6-1.2
				c-0.3-0.3-0.6-0.7-0.9-1.1c0,0,0,0,0,0c-0.5-0.8-0.9-1.6-1.1-2.5c-2.7-9.1-21.4-73.3-22.7-78.7c-0.6-2.6,0.1-4.2,1.2-5.1
				c0,0,0,0,0,0c1-1,2.3-1.3,2.8-1.4c0.1,0,0.2,0,0.2,0l0.2,0l1-0.2l3.1-0.5l11.9-1.9l3-0.5l0,0.1l0.5,4.3h0l-0.1,0l-0.1,0
				c-0.3,0.1-0.9,0.2-1.7,0.3l-0.3,0c-2.5,0.5-6.7,1.2-10.4,1.8c-0.4,0.1-0.9,0.1-1.3,0.2h0c-0.8,0.1-1.5,0.2-2,0.3
				c-0.2,0-0.4,0.1-0.5,0.1c-1.7,0.5-1.7,1.1-1.9,1.5c-0.1,0.3,0,0.4,0,0.4c3.8,11.1,8.5,24.9,12.6,45.3c0.2,0.9,0.4,1.8,0.6,2.8
				c3.4,12.9,9.2,29.7,10.6,31.8c0.7,0.2,6.9-1.2,10.4-2.1c0.4-0.1,0.8-0.2,1.1-0.3c0.8-0.2,1.3-0.3,1.3-0.3s-0.8-0.9-0.5-0.6
				c0,0,1,1,1,1c0.7,0.5,1.8,1.2,2.7,1.9c0.4,0.3,0.8,0.7,1.1,0.9C-160.6,99.4-160.5,99.6-160.4,99.7z"/>
		</g>
	</g>
	<path class="st9" d="M-166.6,96.3c-0.3,0.1-0.7,0.2-1.1,0.3c-3.5,0.8-9.8,2.3-10.4,2.1c-1.4-2.1-7.1-18.8-10.6-31.8
		c-0.2-0.9-0.4-1.9-0.6-2.8c0.3,0.9,0.6,1.9,0.8,2.8c3.5,11.6,8.7,20.2,15.8,25.9c0,0,4.2,2.8,4.2,2.8c0,0,0,0,0,0
		C-167.7,95.9-167.1,96.1-166.6,96.3z"/>
	<path class="st10" d="M-103.2,85.6l-11.5,2.8l-45.5,11l0,0c-0.1-0.1-0.3-0.4-0.9-0.7c-0.3-0.1-0.5-0.2-0.8-0.3
		c-1.5-0.6-2.7-1.2-4.6-2c-0.5-0.2-1.1-0.5-1.8-0.7c0,0,0,0,0,0c0,0-4.2-2.8-4.2-2.8c-7.1-5.7-12.3-14.4-15.8-25.9
		c-0.3-0.9-0.5-1.8-0.8-2.8C-194.3,47.2-202,20-202,20s-0.2-0.5-0.2-1.2c0-0.1,0-0.3,0-0.4c0.1-0.5,0.3-1,0.9-1.3l1.4-0.2l0.8-0.1
		l2.1-0.3h0l1-0.2l10.4-1.8l0.3,0l2-0.3l0.1,0l0.1,0h0l23-3.9l1-0.2l0.6-0.1l12.8-2.2c0,0,2.9-0.7,4.3,3.6c0.1,0.3,0.2,0.8,0.4,1.3
		c2.4,8.1,10.8,40,10.8,40s1.1,3.6,3.1,8c0,0,0,0,0,0c2,4.5,4.9,10,8.4,13.6c0.3,0.3,0.6,0.6,0.8,0.8c0.1,0.1,0.3,0.3,0.5,0.4
		c0.9,0.8,2,1.6,3.1,2.4C-103.9,84.9-103.2,85.6-103.2,85.6z"/>
	<path id="clip" class="st11" d="M-156.9,13l-27,4c-0.1-1.6-0.7-6.5-2.1-7.2c-0.1-0.1-0.7,0-1.4,0c4.1-0.5,22.8-3.4,25.7-4
		c2.9-0.6,3.5,2.6,3.5,2.6C-157.7,10-157.4,11.4-156.9,13z"/>
	<g id="Paperinfo" class="st1">
		<g>
			
				<ellipse id="paperinfo" transform="matrix(0.943 -0.3329 0.3329 0.943 -20.7599 -60.1437)" class="st12" cx="-185.9" cy="30.5" rx="6.4" ry="6.9"/>
			<line class="st5" x1="-188.1" y1="31.6" x2="-185.3" y2="33.7"/>
			<line class="st5" x1="-183.9" y1="27.5" x2="-185.3" y2="33.7"/>
		</g>
		<g>
			
				<ellipse id="paperinfo_00000160881039937329729820000010991645109105484977_" transform="matrix(0.943 -0.3329 0.3329 0.943 -26.2538 -57.5393)" class="st12" cx="-181.1" cy="47.9" rx="6.4" ry="6.9"/>
			<line class="st5" x1="-183.2" y1="49" x2="-180.5" y2="51.1"/>
			<line class="st5" x1="-179.1" y1="44.8" x2="-180.5" y2="51.1"/>
		</g>
		<g>
			<line class="st5" x1="-176.3" y1="27.5" x2="-149.9" y2="22.6"/>
			<line class="st5" x1="-175.6" y1="30.3" x2="-160.3" y2="27.5"/>
		</g>
		<g>
			<line class="st5" x1="-160.9" y1="91.3" x2="-136.1" y2="85.7"/>
		</g>
		<g>
			<line class="st5" x1="-172" y1="42.5" x2="-145.6" y2="37.6"/>
			<line class="st5" x1="-170.4" y1="48.1" x2="-155.1" y2="45.4"/>
			<line class="st5" x1="-171.1" y1="45.4" x2="-155.8" y2="42.6"/>
		</g>
		<g>
			<line class="st5" x1="-182.5" y1="60.1" x2="-138.2" y2="51.8"/>
			<line class="st5" x1="-180.1" y1="66.2" x2="-140.3" y2="58.7"/>
			<line class="st5" x1="-181.4" y1="62.9" x2="-148.2" y2="56.6"/>
			<line class="st5" x1="-178" y1="73.3" x2="-148.6" y2="67.7"/>
		</g>
	</g>
</g>
<g id="Shadows">
	<path class="st13" d="M48.1,213.5l-30.9-16.2c-0.7-0.4-0.7-1.4,0-1.8l29.7-15.2c0.3-0.1,0.6-0.1,0.9,0L79,195.7
		c0.7,0.4,0.8,1.4,0,1.8l-30,15.9C48.7,213.6,48.4,213.6,48.1,213.5z"/>
	<path class="st13" d="M90.6,215.3l-14.7-7.7c-0.7-0.4-0.7-1.4,0-1.8l28.8-15.7c0.3-0.2,0.6-0.2,0.9,0l15.8,7.5
		c0.8,0.4,0.8,1.4,0,1.8l-29.9,15.9C91.2,215.4,90.9,215.4,90.6,215.3z"/>
	<path class="st13" d="M145.4,186.1l-31.7-15.4c-0.8-0.4-0.8-1.4,0-1.8l29.6-15.1c0.3-0.1,0.6-0.1,0.9,0l32,15.4
		c0.8,0.4,0.8,1.4,0,1.8l-29.9,15.1C146.1,186.2,145.7,186.2,145.4,186.1z"/>
	<path class="st13" d="M183.5,218.8L143.1,197c-0.7-0.4-0.7-1.4,0-1.8l33.3-17.5c0.2-0.1,0.5-0.2,0.8-0.1l47.9,16.8
		c0.8,0.3,0.9,1.4,0.2,1.8l-40.9,22.5C184.1,219,183.8,219,183.5,218.8z"/>
</g>
<g id="Building">
	<g id="base_00000080919998830392855830000004367153044261071772_">
		<g>
			<g>
				<g>
					<polygon class="st14" points="89.3,185.4 42.4,160.7 42.4,152.7 89.3,177.5 					"/>
				</g>
			</g>
			<g>
				<polygon class="st15" points="89.3,177.5 42.4,152.7 90.2,127.9 137,152.7 				"/>
			</g>
			<g>
				<g>
					<polygon class="st15" points="89.3,185.3 137,160.7 137,152.7 89.3,177.5 					"/>
				</g>
			</g>
		</g>
	</g>
	<g id="buil">
		<g>
			<polygon class="st16" points="89.3,168.6 56.5,151.8 56.5,94.3 89.3,111.1 			"/>
		</g>
		<g>
			<polygon class="st17" points="89.3,111.1 56.5,94.3 89.3,77.5 122,94.3 			"/>
		</g>
		<g>
			<polygon class="st18" points="89.3,168.6 122,152 122,94.4 89.3,111.3 			"/>
		</g>
	</g>
	<g id="Glass">
		<polygon class="st19" points="103.4,124.3 98.1,127.1 98.1,115.6 103.4,112.8 		"/>
		<polygon class="st19" points="115.8,118.1 110.5,120.9 110.5,109.4 115.8,106.6 		"/>
		<polygon class="st19" points="103.4,142 98.1,144.8 98.1,133.3 103.4,130.5 		"/>
		<polygon class="st19" points="115.8,135.8 110.5,138.6 110.5,127.1 115.8,124.3 		"/>
	</g>
	<g id="Glass_00000028315473525861049810000000347873154376619648_">
		<polygon class="st19" points="76,125.2 81.3,128 81.3,116.5 76,113.7 		"/>
		<polygon class="st19" points="63.6,119 68.9,121.8 68.9,110.3 63.6,107.5 		"/>
		<polygon class="st19" points="76,142.9 81.3,145.7 81.3,134.2 76,131.4 		"/>
		<polygon class="st19" points="63.6,136.7 68.9,139.5 68.9,128 63.6,125.2 		"/>
	</g>
	<polygon id="Door" class="st17" points="110.5,157.8 103.4,161.4 103.4,149.2 110.5,145.6 	"/>
</g>
<g id="LLC_00000181786185796022119690000000475239119133596061_">
	<g id="LLC_00000103966136727290967270000000154284926232805304_">
		<g>
			<g>
				<polygon class="st16" points="89.3,102.2 56.5,85.4 56.5,58 89.3,74.8 				"/>
			</g>
			<g>
				<polygon class="st18" points="89.3,74.8 56.5,58 89.3,41.2 122,58 				"/>
			</g>
			<g>
				<polygon class="st18" points="89.3,102.2 122,85.6 122,58.2 89.3,75 				"/>
			</g>
		</g>
	</g>
	<polygon class="st19" points="76,88 81.3,90.8 81.3,78.4 76,75.7 	"/>
	<polygon class="st19" points="63.6,81.8 68.9,84.6 68.9,72.2 63.6,69.5 	"/>
	<polygon class="st19" points="102.5,88.4 97.2,91.2 97.2,78.8 102.5,76 	"/>
	<polygon class="st19" points="114.9,82.2 109.6,85 109.6,72.6 114.9,69.8 	"/>
</g>
<g id="Слой_8">
	<g>
		<g>
			<path class="st20" d="M76,59.3l7.8,3.9l4-2l2.4,1.2l-6.3,3.2l-10.2-5.1L76,59.3z"/>
			<path class="st20" d="M82.8,55.8l7.8,3.9l4-2l2.4,1.2l-6.3,3.2L80.6,57L82.8,55.8z"/>
			<path class="st20" d="M101.8,56.7c-3.4,1.7-5.3,1.6-9.5-0.5c-4.2-2.1-4.4-3.1-1-4.8c3.4-1.7,5.1-1.7,8.7,0.1l-2.3,1.2
				c-2-1-2.4-1-4.1-0.2c-1.7,0.9-1.6,1.1,1.1,2.5c2.7,1.4,3.2,1.4,4.9,0.6c1.7-0.9,1.7-1.1-0.4-2.1l2.3-1.2
				C105.1,54.1,105.2,54.9,101.8,56.7z"/>
		</g>
	</g>
</g>
<g id="Docs">
	<g id="LLC_00000057124073214058326020000017996796985837199744_">
		<g>
			<g>
				<polygon class="st16" points="59.5,207 34.2,194 34.2,156.9 59.5,169.9 				"/>
			</g>
			<g>
				<polygon class="st18" points="59.5,169.9 34.2,156.9 59.5,143.8 84.8,156.9 				"/>
			</g>
			<g>
				<polygon class="st18" points="59.5,207 84.8,194.1 84.8,157 59.5,170 				"/>
			</g>
		</g>
	</g>
	<g id="LLC_00000052076809681803127480000011939767142791188367_">
		<g>
			<g>
				<polygon class="st16" points="152.4,182.2 127.1,169.2 127.1,138.3 152.4,151.3 				"/>
			</g>
			<g>
				<polygon class="st18" points="152.4,151.3 127.1,138.3 152.4,125.3 177.8,138.3 				"/>
			</g>
			<g>
				<polygon class="st18" points="152.4,182.2 177.8,169.4 177.8,138.4 152.4,151.4 				"/>
			</g>
		</g>
	</g>
	<g>
		<polygon class="st21" points="80.1,172.3 80.1,188.1 65.7,195.4 65.7,175.7 76.1,170.4 		"/>
		<g>
			<line class="st21" x1="68.4" y1="182.4" x2="77.4" y2="177.8"/>
			<line class="st21" x1="68.4" y1="185.1" x2="77.4" y2="180.5"/>
			<line class="st21" x1="68.4" y1="187.7" x2="77.4" y2="183.2"/>
		</g>
	</g>
	<g>
		<g class="st0">
			<path class="st22" d="M50.8,216.6l0-5.3l1.9-1c0.6-0.3,1-0.4,1.4-0.4c0.4,0,0.7,0.2,0.9,0.5c0.2,0.3,0.3,0.7,0.3,1.2
				c0,0.5-0.1,1.1-0.3,1.6c-0.2,0.5-0.5,1-0.9,1.4c-0.4,0.4-0.8,0.8-1.4,1.1L50.8,216.6z M54.2,212.1c0-0.3-0.1-0.6-0.2-0.8
				c-0.1-0.2-0.3-0.3-0.5-0.3c-0.2,0-0.5,0.1-0.8,0.2l-0.9,0.5l0,3.5l0.9-0.5c0.3-0.2,0.6-0.4,0.8-0.7s0.4-0.6,0.5-0.9
				C54.2,212.8,54.2,212.4,54.2,212.1z"/>
			<path class="st22" d="M57.7,212.9c-0.3,0.2-0.6,0.3-0.8,0.3c-0.2,0-0.5,0-0.6-0.1c-0.2-0.1-0.3-0.2-0.4-0.4
				c-0.1-0.2-0.1-0.4-0.1-0.7c0-0.3,0-0.6,0.1-0.8c0.1-0.3,0.2-0.6,0.4-0.9c0.2-0.3,0.4-0.5,0.6-0.8c0.2-0.2,0.5-0.4,0.8-0.6
				c0.3-0.2,0.6-0.3,0.8-0.3c0.2,0,0.5,0,0.6,0.1c0.2,0.1,0.3,0.2,0.4,0.4c0.1,0.2,0.1,0.4,0.1,0.7c0,0.3,0,0.5-0.1,0.8
				c-0.1,0.3-0.2,0.6-0.4,0.9c-0.2,0.3-0.4,0.5-0.6,0.8C58.3,212.6,58.1,212.8,57.7,212.9z M56.7,211.5c0,0.2,0,0.4,0.1,0.5
				c0.1,0.1,0.2,0.2,0.4,0.2c0.2,0,0.3,0,0.5-0.1c0.2-0.1,0.4-0.2,0.5-0.4c0.2-0.2,0.3-0.4,0.4-0.6c0.1-0.2,0.1-0.4,0.1-0.7
				c0-0.2,0-0.4-0.1-0.5s-0.2-0.2-0.4-0.2s-0.3,0-0.5,0.1c-0.2,0.1-0.4,0.2-0.5,0.4c-0.2,0.2-0.3,0.4-0.4,0.6S56.7,211.3,56.7,211.5
				z"/>
			<path class="st22" d="M62.2,210.5c-0.3,0.2-0.6,0.3-0.8,0.3c-0.2,0-0.5,0-0.6-0.1c-0.2-0.1-0.3-0.2-0.4-0.4
				c-0.1-0.2-0.1-0.4-0.1-0.7c0-0.4,0.1-0.7,0.2-1.1s0.4-0.8,0.7-1.1s0.7-0.6,1.1-0.9c0.4-0.2,0.8-0.3,1.1-0.3
				c0.3,0,0.5,0.1,0.7,0.4l-1,0.8c-0.1-0.1-0.2-0.2-0.3-0.2c-0.1,0-0.3,0-0.5,0.1c-0.2,0.1-0.3,0.2-0.5,0.4
				c-0.2,0.2-0.3,0.4-0.4,0.6c-0.1,0.2-0.1,0.4-0.1,0.7c0,0.2,0,0.4,0.1,0.5c0.1,0.1,0.2,0.2,0.4,0.2c0.2,0,0.3,0,0.5-0.1
				c0.1-0.1,0.2-0.1,0.3-0.2c0.1-0.1,0.2-0.2,0.3-0.3c0.1-0.1,0.1-0.2,0.2-0.3l1-0.2c-0.1,0.2-0.2,0.5-0.4,0.7
				c-0.2,0.2-0.4,0.5-0.6,0.7C62.7,210.2,62.5,210.4,62.2,210.5z"/>
			<path class="st22" d="M65.9,208.5c-0.3,0.2-0.6,0.3-0.9,0.3c-0.3,0.1-0.6,0-0.8-0.1l0.4-0.8c0.2,0.1,0.4,0.1,0.7,0.1
				s0.4-0.1,0.6-0.2c0.2-0.1,0.3-0.2,0.5-0.3c0.1-0.1,0.2-0.3,0.2-0.4c0-0.1,0-0.2-0.1-0.2c-0.1,0-0.2,0-0.3,0s-0.3,0.1-0.4,0.1
				c-0.3,0.1-0.5,0.1-0.7,0.1c-0.2,0-0.3,0-0.4-0.1c-0.1-0.1-0.1-0.2-0.1-0.4c0-0.3,0.1-0.5,0.2-0.8c0.1-0.3,0.3-0.5,0.5-0.7
				c0.2-0.2,0.5-0.4,0.8-0.6c0.3-0.1,0.5-0.2,0.8-0.3c0.2,0,0.5,0,0.7,0.1l-0.4,0.9c-0.2-0.1-0.4-0.1-0.5,0s-0.4,0.1-0.5,0.2
				c-0.1,0.1-0.2,0.1-0.3,0.2c-0.1,0.1-0.2,0.2-0.2,0.2s-0.1,0.2-0.1,0.3c0,0.1,0,0.1,0.1,0.2c0.1,0,0.1,0,0.2,0
				c0.1,0,0.2,0,0.4-0.1c0.3-0.1,0.6-0.1,0.8-0.2c0.2,0,0.4,0,0.5,0.1s0.2,0.2,0.2,0.5c0,0.4-0.1,0.8-0.4,1.1S66.4,208.3,65.9,208.5
				z"/>
		</g>
	</g>
	<g>
		<g class="st0">
			<path class="st22" d="M158,187c0,0.3-0.1,0.6-0.2,0.9c-0.2,0.3-0.4,0.5-0.6,0.8c-0.3,0.2-0.5,0.4-0.8,0.6l-2.5,1.4l0-5.3l2.8-1.5
				c0.2-0.1,0.5-0.2,0.6-0.1s0.3,0.1,0.4,0.3c0.1,0.2,0.1,0.3,0.1,0.6c0,0.3-0.1,0.5-0.2,0.8c-0.1,0.3-0.3,0.6-0.6,0.8
				c0.3-0.1,0.5,0,0.7,0.1C157.9,186.4,158,186.6,158,187z M154.8,185.6l0,1.3l1.3-0.7c0.1-0.1,0.2-0.1,0.3-0.2s0.2-0.2,0.2-0.4
				c0.1-0.1,0.1-0.3,0.1-0.4c0-0.1,0-0.2-0.1-0.3c-0.1-0.1-0.1-0.1-0.2-0.1c-0.1,0-0.2,0-0.3,0.1L154.8,185.6z M157,187.3
				c0-0.1,0-0.2-0.1-0.3c-0.1-0.1-0.1-0.1-0.2-0.1s-0.2,0-0.3,0.1l-1.6,0.8l0,1.4l1.5-0.8c0.1-0.1,0.2-0.2,0.3-0.3
				c0.1-0.1,0.2-0.2,0.2-0.4C157,187.6,157,187.5,157,187.3z"/>
			<path class="st22" d="M158.4,187c0-0.3,0.1-0.5,0.2-0.8c0.1-0.3,0.3-0.5,0.6-0.7c0.2-0.2,0.5-0.4,0.9-0.6
				c0.2-0.1,0.3-0.2,0.5-0.2s0.3-0.1,0.4-0.1l0-0.2c0-0.2-0.1-0.4-0.2-0.4s-0.4,0-0.6,0.1c-0.2,0.1-0.4,0.3-0.6,0.4
				c-0.2,0.2-0.4,0.4-0.6,0.6l-0.3-0.5c0.2-0.3,0.5-0.6,0.8-0.8c0.3-0.2,0.5-0.4,0.8-0.6c0.5-0.3,1-0.4,1.3-0.3
				c0.3,0.1,0.5,0.4,0.5,0.9l0,1.2c0,0.1,0,0.2,0.1,0.2c0,0,0.1,0,0.2,0l0,0.8c-0.1,0.1-0.2,0.1-0.2,0.2s-0.1,0.1-0.2,0.1
				c-0.2,0.1-0.3,0.1-0.4,0.1c-0.1,0-0.2-0.1-0.2-0.2l0-0.2c-0.2,0.3-0.4,0.6-0.6,0.8c-0.2,0.3-0.5,0.4-0.8,0.6
				c-0.3,0.1-0.5,0.2-0.7,0.2c-0.2,0-0.4-0.1-0.5-0.2S158.4,187.2,158.4,187z M160.8,185.9c0.1-0.1,0.1-0.2,0.1-0.2
				c0-0.1,0.1-0.1,0.1-0.2l0-0.4c-0.1,0-0.2,0-0.4,0.1s-0.3,0.1-0.4,0.2c-0.3,0.1-0.5,0.3-0.6,0.5c-0.2,0.2-0.2,0.4-0.2,0.6
				c0,0.1,0,0.2,0.1,0.2c0.1,0.1,0.1,0.1,0.2,0.1c0.1,0,0.2,0,0.4-0.1c0.1-0.1,0.3-0.2,0.4-0.3C160.6,186.1,160.7,186,160.8,185.9z"
				/>
			<path class="st22" d="M166.5,183.8l-1,0.5l0-2.2c0-0.3-0.1-0.5-0.2-0.6c-0.1-0.1-0.3-0.1-0.5,0c-0.1,0.1-0.3,0.2-0.4,0.3
				c-0.1,0.1-0.3,0.3-0.4,0.5c-0.1,0.2-0.2,0.4-0.2,0.5l0,2.3l-1,0.5l0-3.9l0.9-0.5l0,0.7c0.1-0.2,0.2-0.4,0.4-0.6
				c0.2-0.2,0.3-0.4,0.5-0.5c0.2-0.2,0.4-0.3,0.6-0.4c0.2-0.1,0.4-0.2,0.6-0.2c0.2,0,0.3,0.1,0.4,0.2c0.1,0.1,0.1,0.2,0.2,0.4
				s0,0.3,0,0.5L166.5,183.8z"/>
			<path class="st22" d="M169.9,181.9l-1.1-1.1l-0.5,0.8l0,1.2l-1,0.5l0-5.4l1-0.5l0,3.3l1.5-2.6l1-0.6l-1.4,2.4l1.5,1.4
				L169.9,181.9z"/>
			<path class="st22" d="M172.8,180.4c-0.3,0.2-0.6,0.3-0.9,0.3c-0.3,0.1-0.6,0-0.8-0.1l0.4-0.8c0.2,0.1,0.4,0.1,0.7,0.1
				c0.2,0,0.4-0.1,0.6-0.2c0.2-0.1,0.3-0.2,0.5-0.3c0.1-0.1,0.2-0.3,0.2-0.4c0-0.1,0-0.2-0.1-0.2c-0.1,0-0.2,0-0.3,0
				c-0.1,0-0.3,0.1-0.4,0.1c-0.3,0.1-0.5,0.1-0.7,0.1c-0.2,0-0.3,0-0.4-0.1s-0.1-0.2-0.1-0.4c0-0.3,0.1-0.5,0.2-0.8
				c0.1-0.3,0.3-0.5,0.5-0.7c0.2-0.2,0.5-0.4,0.8-0.6c0.3-0.1,0.5-0.2,0.8-0.3c0.2,0,0.5,0,0.7,0.1l-0.4,0.9
				c-0.2-0.1-0.4-0.1-0.5-0.1c-0.2,0-0.4,0.1-0.5,0.2c-0.1,0.1-0.2,0.1-0.3,0.2c-0.1,0.1-0.2,0.2-0.2,0.2c-0.1,0.1-0.1,0.2-0.1,0.3
				c0,0.1,0,0.1,0.1,0.2c0.1,0,0.1,0,0.2,0c0.1,0,0.2,0,0.4-0.1c0.3-0.1,0.6-0.1,0.8-0.2c0.2,0,0.4,0,0.5,0.1s0.2,0.2,0.2,0.5
				c0,0.4-0.1,0.8-0.4,1.1C173.7,179.8,173.3,180.2,172.8,180.4z"/>
		</g>
	</g>
	<g>
		
			<ellipse transform="matrix(0.5063 -0.8624 0.8624 0.5063 -56.4871 221.6874)" class="st21" cx="165.4" cy="160.2" rx="12" ry="7.7"/>
		<g>
			<g>
				<path class="st23" d="M168.3,155.9c-0.1,0-0.2-0.1-0.3-0.1s-0.4-0.1-0.6-0.1s-0.5,0-0.8,0s-0.6,0.1-0.8,0.3
					c-0.5,0.2-0.9,0.5-1.1,0.8c-0.3,0.3-0.4,0.7-0.4,1.1c0,0.3,0.1,0.5,0.2,0.6c0.2,0.1,0.4,0.1,0.7,0.1c0.3,0,0.7-0.1,1.2-0.1
					c0.6-0.1,1.2-0.2,1.6-0.1s0.8,0.2,1,0.5c0.2,0.3,0.4,0.8,0.4,1.4c0,0.6-0.1,1.1-0.3,1.6c-0.2,0.5-0.4,0.9-0.8,1.3
					c-0.3,0.4-0.7,0.8-1.1,1.1c-0.4,0.3-0.9,0.6-1.3,0.8c-0.5,0.2-0.9,0.4-1.4,0.5c-0.5,0.1-0.9,0.2-1.4,0.1c-0.4,0-0.8-0.1-1.2-0.2
					l0.8-2.2c0.1,0.1,0.2,0.1,0.4,0.2c0.2,0.1,0.4,0.1,0.7,0.1c0.3,0,0.6,0,1-0.1s0.7-0.2,1.1-0.3c0.5-0.2,0.9-0.5,1.1-0.8
					s0.4-0.6,0.4-1c0-0.3-0.1-0.5-0.3-0.6c-0.2-0.1-0.5-0.1-0.8-0.1c-0.4,0-0.8,0.1-1.3,0.2c-0.6,0.1-1.1,0.1-1.5,0
					c-0.4-0.1-0.7-0.2-0.9-0.5c-0.2-0.3-0.3-0.7-0.3-1.2c0-0.7,0.2-1.4,0.5-2.1c0.3-0.6,0.7-1.2,1.2-1.7c0.5-0.5,1.1-0.9,1.7-1.2
					c0.4-0.2,0.9-0.3,1.3-0.4c0.4-0.1,0.8-0.1,1.1-0.1c0.3,0,0.7,0.1,0.9,0.2L168.3,155.9z M165.4,152.8l0.9-0.4v2.5l-0.9,0.5V152.8
					z M165.4,164.2l0.9-0.4v2.7l-0.9,0.4V164.2z M165.5,163.9v-8.3l0.6-0.5v8.5L165.5,163.9z"/>
			</g>
		</g>
	</g>
</g>
<g id="Seals">
	<g id="Seal_00000009548110349573515470000001918261214929622719_">
		<g>
			<g>
				<polygon class="st16" points="102,208.8 88.2,202 88.2,173.7 102,180.5 				"/>
			</g>
			<g>
				<polygon class="st18" points="102,180.5 88.2,173.7 109.9,162.4 123.8,169.2 				"/>
			</g>
			<g>
				<polygon class="st18" points="102,208.8 123.8,197.7 123.8,169.4 102,180.5 				"/>
			</g>
		</g>
	</g>
	<path class="st21" d="M120.2,187.6v4.6l-14.2,7.1v-4.6c0-0.6,0.4-1.2,1-1.5l3.4-1.7l0.3-0.4c0.7-1,1-2.1,0.7-2.9
		c-0.9-0.1-1.5-0.8-1.5-1.9c0-1.7,1.4-3.9,3.1-4.7c1.7-0.9,3.1-0.2,3.1,1.6c0,1.1-0.6,2.4-1.5,3.4c-0.2,1,0.1,1.8,0.7,2.2l0.3,0.1
		l3.4-1.7C119.8,186.8,120.2,187,120.2,187.6z"/>
	<g>
		<g class="st0">
			<path class="st22" d="M99,215.1c0,0-0.1,0-0.2,0c-0.1,0-0.2,0-0.3,0c-0.1,0-0.3,0-0.4,0.1c-0.2,0-0.3,0.1-0.5,0.2
				c-0.3,0.1-0.5,0.3-0.6,0.5c-0.1,0.2-0.2,0.4-0.2,0.5c0,0.1,0,0.2,0.1,0.3c0.1,0,0.2,0,0.4,0s0.4-0.1,0.7-0.1
				c0.3-0.1,0.6-0.1,0.9-0.1c0.2,0,0.4,0.1,0.6,0.2c0.1,0.1,0.2,0.4,0.2,0.7c0,0.3-0.1,0.5-0.2,0.8c-0.1,0.2-0.2,0.5-0.4,0.7
				s-0.4,0.4-0.6,0.6c-0.2,0.2-0.5,0.3-0.7,0.5c-0.3,0.1-0.5,0.2-0.8,0.3s-0.5,0.1-0.7,0.1c-0.2,0-0.5,0-0.7,0l0.4-1.1
				c0,0,0.1,0,0.2,0.1s0.2,0,0.4,0c0.2,0,0.3,0,0.5-0.1c0.2,0,0.4-0.1,0.6-0.2c0.3-0.1,0.5-0.3,0.6-0.5c0.1-0.2,0.2-0.3,0.2-0.5
				c0-0.2-0.1-0.3-0.2-0.3s-0.3,0-0.5,0c-0.2,0-0.4,0.1-0.7,0.2c-0.3,0.1-0.6,0.1-0.8,0.1c-0.2,0-0.4-0.1-0.5-0.2
				c-0.1-0.1-0.2-0.3-0.2-0.6c0-0.4,0.1-0.7,0.3-1c0.2-0.3,0.4-0.6,0.7-0.9c0.3-0.3,0.6-0.5,1-0.7c0.2-0.1,0.5-0.2,0.7-0.3
				c0.2-0.1,0.4-0.1,0.6-0.1c0.2,0,0.4,0,0.5,0L99,215.1z"/>
			<path class="st22" d="M102.1,217.6c-0.3,0.2-0.6,0.2-0.8,0.3s-0.5,0-0.6-0.1c-0.2-0.1-0.3-0.2-0.4-0.4c-0.1-0.2-0.1-0.4-0.1-0.7
				c0-0.4,0.1-0.7,0.2-1.1s0.4-0.8,0.7-1.1c0.3-0.3,0.7-0.6,1.1-0.8c0.4-0.2,0.8-0.3,1.1-0.3c0.3,0,0.5,0.2,0.7,0.4
				c0.2,0.2,0.2,0.5,0.2,0.9c0,0.1,0,0.1,0,0.2c0,0.1,0,0.1,0,0.2l-3,1.5c0,0.2,0.1,0.3,0.2,0.4c0.1,0.1,0.2,0.1,0.4,0.1
				c0.2,0,0.3,0,0.5-0.1c0.2-0.1,0.4-0.2,0.6-0.4c0.2-0.2,0.3-0.4,0.4-0.6l0.8-0.2c-0.1,0.2-0.2,0.5-0.4,0.7
				c-0.2,0.2-0.4,0.5-0.6,0.7C102.6,217.2,102.4,217.4,102.1,217.6z M101.1,215.8l2-1c0-0.2-0.1-0.3-0.2-0.4
				c-0.1-0.1-0.2-0.1-0.4-0.2c-0.1,0-0.3,0-0.5,0.1c-0.2,0.1-0.3,0.2-0.5,0.4c-0.1,0.2-0.3,0.3-0.4,0.5
				C101.1,215.4,101.1,215.6,101.1,215.8z"/>
			<path class="st22" d="M104.4,215.2c0-0.2,0.1-0.5,0.2-0.8c0.1-0.3,0.3-0.5,0.6-0.7c0.2-0.2,0.5-0.4,0.9-0.6
				c0.2-0.1,0.3-0.2,0.5-0.2c0.2-0.1,0.3-0.1,0.4-0.1l0-0.2c0-0.2-0.1-0.4-0.2-0.4c-0.1-0.1-0.4,0-0.6,0.1c-0.2,0.1-0.4,0.2-0.6,0.4
				c-0.2,0.2-0.4,0.4-0.6,0.6l-0.3-0.5c0.2-0.3,0.5-0.6,0.8-0.8c0.3-0.2,0.5-0.4,0.8-0.5c0.5-0.3,1-0.4,1.3-0.2
				c0.3,0.1,0.5,0.4,0.5,0.9l0,1.2c0,0.1,0,0.2,0.1,0.2s0.1,0,0.2,0l0,0.8c-0.1,0.1-0.2,0.1-0.2,0.2s-0.1,0.1-0.2,0.1
				c-0.2,0.1-0.3,0.1-0.4,0.1c-0.1,0-0.2-0.1-0.2-0.2l0-0.2c-0.2,0.3-0.4,0.6-0.6,0.8c-0.2,0.2-0.5,0.4-0.8,0.6
				c-0.3,0.1-0.5,0.2-0.7,0.2c-0.2,0-0.4-0.1-0.5-0.2C104.5,215.6,104.4,215.4,104.4,215.2z M106.8,214.1c0.1-0.1,0.1-0.2,0.1-0.2
				c0-0.1,0.1-0.1,0.1-0.2l0-0.4c-0.1,0-0.2,0-0.4,0.1c-0.1,0-0.3,0.1-0.4,0.2c-0.3,0.1-0.5,0.3-0.6,0.5c-0.2,0.2-0.2,0.4-0.2,0.6
				c0,0.1,0,0.2,0.1,0.2c0.1,0.1,0.1,0.1,0.2,0.1c0.1,0,0.2,0,0.4-0.1s0.3-0.2,0.4-0.3C106.6,214.4,106.7,214.3,106.8,214.1z"/>
			<path class="st22" d="M108.9,208.6l1-0.5l0,4.2c0,0.2,0,0.3,0.1,0.3c0.1,0,0.1,0,0.2,0c0.1,0,0.2-0.1,0.3-0.2
				c0.1-0.1,0.2-0.1,0.2-0.2l0.1,0.7c-0.1,0.1-0.3,0.3-0.5,0.4c-0.2,0.1-0.3,0.2-0.5,0.3c-0.3,0.2-0.5,0.2-0.7,0.1
				c-0.2-0.1-0.3-0.3-0.3-0.6L108.9,208.6z"/>
			<path class="st22" d="M112.6,212.2c-0.3,0.2-0.6,0.3-0.9,0.3c-0.3,0-0.6,0-0.8-0.1l0.4-0.8c0.2,0.1,0.4,0.1,0.7,0.1
				c0.2,0,0.4-0.1,0.6-0.2c0.2-0.1,0.3-0.2,0.5-0.3c0.1-0.1,0.2-0.3,0.2-0.4c0-0.1,0-0.2-0.1-0.2c-0.1,0-0.2,0-0.3,0
				c-0.1,0-0.3,0.1-0.4,0.1c-0.3,0.1-0.5,0.1-0.7,0.1c-0.2,0-0.3,0-0.4-0.1s-0.1-0.2-0.1-0.4c0-0.3,0.1-0.5,0.2-0.8
				c0.1-0.3,0.3-0.5,0.5-0.7c0.2-0.2,0.5-0.4,0.8-0.6c0.3-0.1,0.5-0.2,0.8-0.3c0.2,0,0.5,0,0.7,0.1l-0.4,0.8
				c-0.2-0.1-0.4-0.1-0.6-0.1c-0.2,0-0.4,0.1-0.5,0.2c-0.1,0.1-0.2,0.1-0.3,0.2c-0.1,0.1-0.2,0.1-0.2,0.2c-0.1,0.1-0.1,0.2-0.1,0.3
				c0,0.1,0,0.1,0.1,0.2c0.1,0,0.1,0,0.2,0c0.1,0,0.2,0,0.4-0.1c0.3-0.1,0.6-0.1,0.8-0.1c0.2,0,0.4,0,0.5,0.1s0.2,0.2,0.2,0.5
				c0,0.4-0.1,0.8-0.4,1.1C113.5,211.7,113.1,212,112.6,212.2z"/>
		</g>
	</g>
</g>
<g id="Crane">
	<g>
		<line class="st18" x1="194.6" y1="208.6" x2="194.6" y2="208.4"/>
		<polygon class="st24" points="228.1,184.2 194.6,202.5 161.1,184.2 194.6,166 		"/>
		<polygon class="st24" points="228.2,184.3 228.2,194.5 228.1,194.6 194.6,212.8 194.6,202.5 		"/>
		<line class="st25" x1="122" y1="58" x2="89.7" y2="38.1"/>
		<line class="st25" x1="57.4" y1="58" x2="88.8" y2="38.1"/>
		<polygon class="st26" points="194.6,202.5 194.6,212.8 161.1,194.6 160.9,194.5 160.9,184.3 161.1,184.2 		"/>
		<polygon class="st18" points="180.3,56 180.3,64.4 180.2,64.4 170.7,69.4 170.7,61.1 		"/>
		<g>
			<line class="st25" x1="89.3" y1="37.7" x2="89.3" y2="74.8"/>
			<polygon class="st27" points="182.8,50.7 173.3,55.8 85.2,37.3 89.7,35.4 			"/>
			<polygon class="st27" points="173.8,55.8 170.7,69.4 82.6,39.9 82.6,39.9 85.3,37.2 87.9,38.1 			"/>
		</g>
		<g>
			<polygon class="st25" points="207.8,74.1 207.8,185.8 207.8,185.8 194.7,193 194.7,81.2 			"/>
			<polygon class="st25" points="194.5,81.2 194.5,193.1 181.2,185.8 181.1,185.8 181.1,74 181.2,73.9 			"/>
		</g>
		<g>
			<polyline class="st25" points="181.1,145.6 194.6,174 181.1,165.3 194.5,193.1 			"/>
			<polyline class="st25" points="181.1,104.9 194.6,133.3 181.1,125.4 194.5,153.2 			"/>
			<polyline class="st25" points="181.1,64.2 194.6,92.6 181.1,84.7 194.5,112.5 			"/>
			<path class="st25" d="M194.5,165.6"/>
			<line class="st25" x1="181.1" y1="145.6" x2="194.5" y2="153.6"/>
			<line class="st25" x1="181.1" y1="104.9" x2="194.5" y2="112.9"/>
		</g>
		<g>
			<polyline class="st25" points="208,144.9 195,173.4 208,164.6 195,192.4 			"/>
			<polyline class="st25" points="208,104.2 195,132.6 208,124.8 195,152.6 			"/>
			<polyline class="st25" points="208,63.5 195,91.9 208,84.1 195,111.9 			"/>
			<path class="st25" d="M195,165"/>
			<line class="st25" x1="208" y1="144.9" x2="195" y2="152.9"/>
			<line class="st25" x1="208" y1="104.2" x2="195" y2="112.2"/>
		</g>
		<g>
			<path class="st18" d="M216.5,42.7l-19.3,14l-15.7-7.2l13.7-6.2c1.9-0.8,3.9-1.1,6-1.1L216.5,42.7z"/>
			<polygon class="st18" points="216.6,42.7 216.6,72.3 216.5,72.4 197.2,82.7 197.2,51.4 			"/>
			<path class="st28" d="M197.2,51.4v31.3L170,71.5l-0.1,0v-9.2c0-2.5,1.1-4.8,2.9-6.5l8-6.1l0,0c0.6-0.6,1.3-0.8,2.1-0.7
				L197.2,51.4z"/>
			<path class="st26" d="M191.9,54.3V67L177,62.2l-0.1,0v-1.9c0-1.4,0.6-2.6,1.6-3.5l2.3-1.8l2.6-2L191.9,54.3z"/>
		</g>
	</g>
</g>
</svg>
