<?xml version="1.0" encoding="UTF-8"?>
<svg id="Ready-Made_Companies" data-name="Ready-Made Companies" xmlns="http://www.w3.org/2000/svg" viewBox="0 0 380.44 288.44">
  <defs>
    <style>
      .cls-1 {
        fill: #66acff;
      }

      .cls-1, .cls-2, .cls-3 {
        stroke-width: 0px;
      }

      .cls-4 {
        stroke-miterlimit: 10;
      }

      .cls-4, .cls-5, .cls-6, .cls-7, .cls-8, .cls-9, .cls-10 {
        stroke: #0032b8;
        stroke-width: 2px;
      }

      .cls-4, .cls-9 {
        fill: #3fc6ff;
      }

      .cls-5 {
        fill: none;
      }

      .cls-5, .cls-6, .cls-7, .cls-8, .cls-9, .cls-11, .cls-10 {
        stroke-linejoin: round;
      }

      .cls-6 {
        fill: #0362e1;
      }

      .cls-6, .cls-8, .cls-9, .cls-11 {
        stroke-linecap: round;
      }

      .cls-7, .cls-11 {
        fill: #fff;
      }

      .cls-8 {
        fill: #96e1fe;
      }

      .cls-11 {
        stroke: #00288a;
        stroke-width: 1.2px;
      }

      .cls-2 {
        fill: #002994;
        opacity: .1;
      }

      .cls-3 {
        fill: #0032b8;
      }

      .cls-10 {
        fill: #59abff;
      }
    </style>
  </defs>
  <path class="cls-2" d="M88.59,262.22l-42.21-22.19c-1-.52-.99-1.95.01-2.47l40.61-20.72c.39-.2.85-.2,1.25,0l42.59,21.12c1.01.5,1.03,1.94.03,2.47l-40.99,21.79c-.41.22-.89.22-1.3,0Z"/>
  <path class="cls-2" d="M146.66,264.64l-20.04-10.55c-.98-.52-.99-1.92-.02-2.45l39.44-21.41c.39-.21.86-.22,1.26-.03l21.54,10.19c1.03.49,1.07,1.94.06,2.48l-40.94,21.76c-.41.22-.89.22-1.3,0Z"/>
  <path class="cls-2" d="M221.69,224.76l-43.32-21.05c-1.03-.5-1.05-1.96-.02-2.49l40.53-20.68c.39-.2.84-.2,1.23-.01l43.7,21.11c1.04.5,1.05,1.97.02,2.49l-40.9,20.62c-.39.19-.84.2-1.23,0Z"/>
  <path class="cls-2" d="M273.66,269.46l-55.11-29.85c-.98-.53-.97-1.93.02-2.45l45.55-23.91c.34-.18.74-.21,1.1-.08l65.45,22.97c1.13.4,1.26,1.95.21,2.53l-55.89,30.8c-.41.23-.92.23-1.33,0Z"/>
  <g id="base">
    <g>
      <polygon class="cls-6" points="144.89 223.86 80.78 189.98 80.78 179.1 144.89 212.97 144.89 223.86"/>
      <polygon class="cls-9" points="144.89 212.97 80.78 179.1 146.1 145.23 210.21 179.1 144.89 212.97"/>
      <polygon class="cls-9" points="144.89 223.74 210.21 190.1 210.21 179.1 144.89 213.08 144.89 223.74"/>
    </g>
  </g>
  <g id="buil">
    <polygon class="cls-8" points="144.89 200.87 100.13 177.89 100.13 99.26 144.89 122.24 144.89 200.87"/>
    <polygon class="cls-10" points="144.89 122.24 100.13 99.26 144.89 76.27 189.65 99.26 144.89 122.24"/>
    <polygon class="cls-7" points="144.89 200.87 189.65 178.11 189.65 99.48 144.89 122.47 144.89 200.87"/>
  </g>
  <g id="Glass">
    <polygon class="cls-4" points="164.24 140.32 156.99 144.08 156.99 128.36 164.24 124.59 164.24 140.32"/>
    <polygon class="cls-4" points="181.18 131.85 173.92 135.62 173.92 119.89 181.18 116.13 181.18 131.85"/>
    <polygon class="cls-4" points="164.24 164.51 156.99 168.28 156.99 152.55 164.24 148.79 164.24 164.51"/>
    <polygon class="cls-4" points="181.18 156.05 173.92 159.81 173.92 144.08 181.18 140.32 181.18 156.05"/>
  </g>
  <g id="Glass-2" data-name="Glass">
    <polygon class="cls-4" points="126.74 141.53 134 145.29 134 129.57 126.74 125.8 126.74 141.53"/>
    <polygon class="cls-4" points="109.81 133.06 117.07 136.83 117.07 121.1 109.81 117.34 109.81 133.06"/>
    <polygon class="cls-4" points="126.74 165.72 134 169.49 134 153.76 126.74 150 126.74 165.72"/>
    <polygon class="cls-4" points="109.81 157.26 117.07 161.02 117.07 145.29 109.81 141.53 109.81 157.26"/>
  </g>
  <polygon id="Door" class="cls-10" points="173.92 186.11 164.24 190.95 164.24 174.33 173.92 169.35 173.92 186.11"/>
  <g id="LLC">
    <g>
      <polygon class="cls-8" points="144.89 110.15 100.13 87.16 100.13 49.66 144.89 72.65 144.89 110.15"/>
      <polygon class="cls-7" points="144.89 72.65 100.13 49.66 144.89 26.68 189.65 49.66 144.89 72.65"/>
      <polygon class="cls-7" points="144.89 110.15 189.65 87.39 189.65 49.89 144.89 72.87 144.89 110.15"/>
    </g>
  </g>
  <polygon class="cls-4" points="126.74 90.72 134 94.49 134 77.55 126.74 73.79 126.74 90.72"/>
  <polygon class="cls-4" points="109.81 82.26 117.07 86.02 117.07 69.08 109.81 65.32 109.81 82.26"/>
  <polygon class="cls-4" points="163.03 91.22 155.78 94.98 155.78 78.04 163.03 74.28 163.03 91.22"/>
  <polygon class="cls-4" points="179.97 82.75 172.71 86.51 172.71 69.58 179.97 65.81 179.97 82.75"/>
  <g>
    <path class="cls-1" d="M126.7,51.46l10.72,5.39,5.52-2.8,3.22,1.62-8.57,4.35-13.94-7.01,3.05-1.55Z"/>
    <path class="cls-1" d="M136.07,46.7l10.72,5.39,5.52-2.8,3.22,1.62-8.57,4.35-13.94-7.01,3.05-1.55Z"/>
    <path class="cls-1" d="M162.05,47.82c-4.64,2.35-7.23,2.22-12.98-.67s-6.02-4.2-1.39-6.55,7-2.32,11.85.15l-3.2,1.62c-2.72-1.4-3.29-1.42-5.61-.24-2.34,1.19-2.19,1.53,1.54,3.4,3.73,1.88,4.41,1.95,6.75.77s2.28-1.46-.53-2.85l3.2-1.62c4.93,2.45,5.01,3.65.38,6Z"/>
  </g>
  <g id="LLC-2" data-name="LLC">
    <g>
      <polygon class="cls-8" points="104.21 253.37 69.57 235.59 69.57 184.8 104.21 202.58 104.21 253.37"/>
      <polygon class="cls-7" points="104.21 202.58 69.57 184.8 104.21 167.01 138.84 184.8 104.21 202.58"/>
      <polygon class="cls-7" points="104.21 253.37 138.84 235.76 138.84 184.97 104.21 202.75 104.21 253.37"/>
    </g>
  </g>
  <g id="LLC-3" data-name="LLC">
    <g>
      <polygon class="cls-8" points="231.22 219.5 196.59 201.71 196.59 159.39 231.22 177.18 231.22 219.5"/>
      <polygon class="cls-7" points="231.22 177.18 196.59 159.39 231.22 141.61 265.86 159.39 231.22 177.18"/>
      <polygon class="cls-7" points="231.22 219.5 265.86 201.89 265.86 159.57 231.22 177.35 231.22 219.5"/>
    </g>
  </g>
  <g>
    <polygon class="cls-10" points="132.32 205.97 132.32 227.49 112.7 237.48 112.7 210.5 126.86 203.29 132.32 205.97"/>
    <g>
      <line class="cls-10" x1="116.38" y1="219.67" x2="128.64" y2="213.42"/>
      <line class="cls-10" x1="116.38" y1="223.35" x2="128.64" y2="217.1"/>
      <line class="cls-10" x1="116.38" y1="227.03" x2="128.64" y2="220.78"/>
    </g>
  </g>
  <g>
    <ellipse class="cls-10" cx="248.92" cy="189.34" rx="16.35" ry="10.51" transform="translate(-40.38 308.14) rotate(-59.58)"/>
    <path class="cls-3" d="M253.03,183.46c-.07-.06-.22-.12-.45-.18-.23-.05-.5-.09-.82-.11-.32-.02-.66,0-1.04.06-.38.06-.76.18-1.15.36-.68.31-1.19.68-1.53,1.12-.35.44-.52.93-.52,1.47,0,.4.11.67.33.8.22.13.55.19.99.15.44-.04.98-.1,1.61-.19.87-.16,1.61-.21,2.23-.16.62.06,1.09.28,1.42.68.33.39.5,1.05.5,1.96,0,.77-.13,1.49-.38,2.16-.25.67-.6,1.28-1.05,1.83-.45.56-.96,1.04-1.53,1.46-.57.42-1.18.77-1.8,1.06-.64.29-1.29.51-1.93.65-.65.14-1.26.21-1.85.19-.59-.02-1.13-.11-1.62-.29l1.11-2.97c.11.07.3.15.58.22.28.07.61.12,1.01.14.39.02.83,0,1.31-.09.48-.08.96-.23,1.44-.45.68-.31,1.19-.67,1.54-1.08s.53-.87.53-1.37c0-.44-.14-.73-.42-.86-.28-.13-.66-.17-1.16-.13s-1.08.11-1.76.21c-.81.11-1.49.12-2.04.04-.55-.08-.96-.31-1.22-.68-.26-.37-.39-.93-.39-1.67,0-1.01.21-1.95.63-2.82.42-.87.99-1.65,1.71-2.33.72-.68,1.51-1.22,2.37-1.61.6-.27,1.18-.46,1.71-.55.54-.09,1.04-.12,1.52-.09.47.03.89.11,1.27.23l-1.11,2.82ZM249.02,179.27l1.21-.55v3.44l-1.21.74v-3.62ZM249.02,194.81l1.21-.55v3.75l-1.21.55v-3.75ZM249.18,194.38v-11.3l.87-.62v11.59l-.87.33Z"/>
  </g>
  <g id="Seal">
    <g>
      <polygon class="cls-8" points="162.27 255.79 143.37 246.47 143.37 207.78 162.27 217.1 162.27 255.79"/>
      <polygon class="cls-7" points="162.27 217.1 143.37 207.78 173.16 192.41 192.07 201.73 162.27 217.1"/>
      <polygon class="cls-7" points="162.27 255.79 192.07 240.6 192.07 201.9 162.27 217.08 162.27 255.79"/>
    </g>
  </g>
  <path class="cls-10" d="M187.23,226.81v6.24l-19.35,9.76v-6.24c0-.75.6-1.66,1.35-2.04l4.67-2.35.38-.57c.92-1.39,1.3-2.9,1.02-4.01-1.23-.13-2.04-1.08-2.04-2.63,0-2.38,1.92-5.27,4.3-6.47,2.38-1.2,4.3-.25,4.3,2.13,0,1.55-.82,3.32-2.04,4.69-.28,1.39.1,2.52,1.02,2.98l.38.19,4.67-2.35c.75-.38,1.35-.08,1.35.67Z"/>
  <g>
    <line class="cls-11" x1="288.84" y1="255.5" x2="288.84" y2="255.22"/>
    <polygon class="cls-9" points="334.64 222.18 288.84 247.2 243.04 222.18 288.84 197.3 334.64 222.18"/>
    <polygon class="cls-9" points="334.81 222.25 334.81 236.26 334.64 236.33 288.84 261.21 288.84 247.2 334.81 222.25"/>
    <line class="cls-10" x1="189.65" y1="49.66" x2="145.49" y2="22.44"/>
    <line class="cls-10" x1="101.34" y1="49.66" x2="144.28" y2="22.44"/>
    <polygon class="cls-6" points="288.84 247.2 288.84 261.22 243.04 236.33 242.87 236.25 242.87 222.26 243.04 222.18 288.84 247.2"/>
    <polygon class="cls-11" points="269.33 46.95 269.33 58.34 269.19 58.39 256.18 65.3 256.18 53.92 269.33 46.95"/>
    <g>
      <line class="cls-10" x1="144.89" y1="21.84" x2="144.89" y2="72.65"/>
      <polygon class="cls-10" points="272.82 39.64 259.81 46.66 139.34 21.32 145.49 18.81 272.82 39.64"/>
      <polygon class="cls-10" points="260.41 46.64 256.18 65.3 135.82 24.86 135.82 24.86 139.44 21.23 143.07 22.44 260.41 46.64"/>
    </g>
    <g>
      <polygon class="cls-5" points="306.99 71.64 306.99 224.39 306.92 224.41 289 234.15 289 81.4 306.99 71.64"/>
      <polygon class="cls-5" points="288.82 81.44 288.82 234.29 270.54 224.37 270.47 224.33 270.47 71.48 270.54 71.45 288.82 81.44"/>
    </g>
    <g>
      <polyline class="cls-5" points="270.47 169.42 288.84 208.26 270.47 196.29 288.82 234.29"/>
      <polyline class="cls-5" points="270.47 113.77 288.84 152.62 270.47 141.85 288.82 179.86"/>
      <polyline class="cls-5" points="270.47 58.13 288.84 96.97 270.47 86.21 288.82 124.21"/>
      <line class="cls-5" x1="270.47" y1="169.42" x2="288.82" y2="180.31"/>
      <line class="cls-5" x1="270.47" y1="113.77" x2="288.82" y2="124.66"/>
    </g>
    <g>
      <polyline class="cls-5" points="307.21 168.51 289.44 207.35 307.21 195.37 289.46 233.38"/>
      <polyline class="cls-5" points="307.21 112.86 289.44 151.71 307.21 140.94 289.46 178.95"/>
      <polyline class="cls-5" points="307.21 57.22 289.44 96.06 307.21 85.29 289.46 123.3"/>
      <line class="cls-5" x1="307.21" y1="168.51" x2="289.46" y2="179.39"/>
      <line class="cls-5" x1="307.21" y1="112.86" x2="289.46" y2="123.75"/>
    </g>
    <g>
      <path class="cls-7" d="M318.79,28.75l-26.32,19.12-21.49-9.83,18.79-8.54c2.58-1.06,5.35-1.56,8.13-1.46l20.89.72Z"/>
      <polygon class="cls-7" points="318.93 28.81 318.93 69.22 318.79 69.28 292.47 83.45 292.47 40.61 318.93 28.81"/>
      <path class="cls-8" d="M292.47,40.61v42.84l-37.21-15.38-.14-.07v-12.57c0-3.39,1.45-6.61,3.98-8.86l10.99-8.41h0c.76-.76,1.84-1.1,2.9-.92l19.48,3.36Z"/>
      <path class="cls-6" d="M285.21,44.66v17.37l-20.34-6.65-.08-.04v-2.58c0-1.85.79-3.61,2.18-4.84l3.12-2.49,3.55-2.77,11.57,1.99Z"/>
    </g>
  </g>
</svg>