<?xml version="1.0" encoding="utf-8"?>
<!-- Generator: Adobe Illustrator 28.1.0, SVG Export Plug-In . SVG Version: 6.00 Build 0)  -->
<svg version="1.1" id="Слой_1" xmlns="http://www.w3.org/2000/svg" xmlns:xlink="http://www.w3.org/1999/xlink" x="0px" y="0px"
	 viewBox="0 0 380.4 288.4" style="enable-background:new 0 0 380.4 288.4;" xml:space="preserve">
<style type="text/css">
	.st0{display:none;}
	.st1{display:inline;}
	.st2{fill:#59ABFF;stroke:#0032B8;stroke-width:2;stroke-miterlimit:10;}
	.st3{fill:#59ABFF;stroke:#0032B8;stroke-width:2;stroke-linejoin:round;stroke-miterlimit:10;}
	.st4{fill:#0099FF;stroke:#0032B8;stroke-width:2;stroke-miterlimit:10;}
	.st5{fill:#FFFFFF;stroke:#0032B8;stroke-width:2;stroke-miterlimit:10;}
	.st6{fill:#FFFFFF;stroke:#0032B8;stroke-width:2;stroke-miterlimit:10;stroke-dasharray:5,4,4,4,4,4;}
	.st7{fill:none;stroke:#0032B8;stroke-width:2;stroke-linecap:round;stroke-linejoin:round;stroke-miterlimit:10;}
	.st8{fill:#C0DFFF;}
	.st9{fill:#0387FF;}
	.st10{fill:#3FC6FF;stroke:#0032B8;stroke-width:2;stroke-miterlimit:10;}
	.st11{fill:#96E1FE;stroke:#0032B8;stroke-width:2;stroke-linecap:round;stroke-linejoin:round;stroke-miterlimit:10;}
	.st12{fill:#0362E1;stroke:#0032B8;stroke-width:2;stroke-linecap:round;stroke-linejoin:round;stroke-miterlimit:10;}
	.st13{fill:#139BFF;stroke:#0032B8;stroke-width:2;stroke-miterlimit:10;}
	.st14{fill:#60D7FF;}
	.st15{fill:#0387FF;stroke:#0032B8;stroke-width:2;stroke-miterlimit:10;}
	.st16{fill:none;stroke:#0032B8;stroke-width:2;stroke-linecap:round;stroke-miterlimit:10;}
</style>
<g id="Doc" class="st0">
	<g class="st1">
		<path class="st2" d="M85.3,214.1l-5.3,7.7c-0.7,1-2.1,0.9-2.8-0.1L25,156.2l0,0c-1.5-2.5-1.9-5.5-0.9-8.2l1.5-4.1c0,0,0,0,0.1-0.1
			c-0.2,1.2,0.1,2.9,1.4,5.1l0.3,0.6c0.3,0.6,0.7,1.2,1.1,1.7l47.8,59c1.8,2.2,4.5,3.5,7.3,3.5c0.4,0,0.8,0,1.2-0.1L85.3,214.1z"/>
		<path class="st3" d="M286.2,224.5v7.2c0,0.1-0.1,0.3-0.2,0.3l-119.7,40.2c-3.6,1.2-7.6,0.8-10.9-1.2L81,225.4c0,0,0,0-0.1-0.1
			c-0.8-0.7-1.2-1.7-1.1-2.8l0.6-6.1c0.2-0.5,0.3,0.1,0.3,0c0,0.3-0.1,0.6,0.3,0.8l76.8,47.3c2,1.2,4.4,1.5,6.6,0.8l121-40.6
			c0.3-0.1,0.6-0.4,0.7-0.7C286.2,224.2,286.2,224.3,286.2,224.5z"/>
		<path class="st4" d="M160.2,253.8"/>
		<path class="st5" d="M286.1,224.1c-0.1,0.3-0.4,0.5-0.7,0.7l-121,40.6c-2.2,0.8-4.6,0.5-6.6-0.8L81,217.3
			c-0.3-0.2-0.5-0.5-0.5-0.9c0-0.5,0.2-1,0.8-1.2l120.5-36c0.6-0.2,1.2-0.1,1.7,0.2l82.2,43.2C286.1,222.9,286.3,223.5,286.1,224.1z
			"/>
		<path class="st6" d="M248.7,229.2l-83.4,28.2c-0.5,0.2-1.1,0.1-1.6-0.2l-40.3-23.1c-0.5-0.3-0.4-1,0.1-1.1l84.1-24.4
			c0.5-0.1,1-0.1,1.4,0.1l39.7,18.8C249.6,227.9,249.5,229,248.7,229.2z"/>
		<path class="st5" d="M195.4,181.1L86.3,213.3c-0.5,0.1,0,0-1.5,0.5c-1.4,0.5-1,0.3-1.4,0.5c-3.5,1.2-3.5-0.2-7.1-4l-47.8-59
			c-0.4-0.5-0.8-1.1-1.1-1.7l-0.3-0.6c-1.3-2.2-1.6-3.9-1.4-5.1c0.4-1.9,2.1-2.8,4-3.4l110.5-30.1c2.6-0.6,5.4,0.3,7,2.5l51.6,61.6
			C203.3,179.7,201.9,179.2,195.4,181.1z"/>
		<line class="st7" x1="123.1" y1="184.3" x2="180" y2="168.1"/>
		<path class="st7" d="M156,200.5"/>
		<path class="st7" d="M99.4,217.3"/>
		<line class="st7" x1="105.4" y1="221.6" x2="161.6" y2="204.9"/>
		<line class="st7" x1="113" y1="225.9" x2="169.9" y2="209.7"/>
		<line class="st7" x1="119.2" y1="178.7" x2="175.1" y2="162.8"/>
		<line class="st7" x1="114.6" y1="172.5" x2="169.8" y2="156.8"/>
		<line class="st7" x1="110.7" y1="167.3" x2="135.8" y2="160.2"/>
		<path class="st7" d="M180.4,167.8"/>
		<path class="st7" d="M123.5,183.7"/>
		<path class="st7" d="M175.4,161.8"/>
		<path class="st7" d="M118.8,177.7"/>
		<path class="st7" d="M169.5,151.8"/>
		<path class="st7" d="M133.1,162"/>
		<path class="st7" d="M165.9,145.6"/>
		<path class="st7" d="M129.5,155.9"/>
		<path class="st2" d="M68.8,175.8c7.5-2.2,23.3-6.3,30-8.3c2-0.6,4.2,0.1,5.4,1.9l11.4,14.5c1,1.4,0.3,3.4-1.4,4.5L84.3,197
			c-1.9,0-4.1-0.8-5.3-2.5l-11.5-14.9C66.4,178.3,67.1,176.3,68.8,175.8z"/>
		<path class="st2" d="M46.4,147.8c7.5-2.2,85.7-22.9,92.4-24.9c2-0.6,4.2,0.1,5.4,1.9l11.4,14.5c1,1.4,0.3,3.4-1.4,4.5L62,169
			c-1.9,0-4.1-0.8-5.3-2.5l-11.5-14.9C44.1,150.3,44.8,148.3,46.4,147.8z"/>
		<path class="st8" d="M78.4,210c0,0,0.9,0.3,5.6-0.7c15-3.2,114.4-33.9,114.4-33.9l0.7,0.8c1.8,2.3,2.2,2-0.1,2.9L87.2,212
			c-7.9,2.7-5.6,2.5-10-2.3L78.4,210z"/>
	</g>
</g>
<g id="Слой_4">
	<polygon class="st8" points="234.6,228.8 165.6,249.9 140.4,234.7 204.8,214.7 	"/>
	<g>
		<path class="st9" d="M152.8,234.1l23.3,9.9l-1.9,0.6l-4.8-2l-2.4,0.7l3.9,2.3l-1.5,0.5l-18.7-11.3L152.8,234.1z M163.7,241.2
			l1.6-0.5l-8.2-3.5L163.7,241.2z"/>
		<path class="st9" d="M170.9,239.2l7.8,3.9l-1.8,0.5l-21-10.6l2.9-0.9c0.6-0.2,1.3-0.3,2.1-0.2c0.7,0.1,1.8,0.4,3,0.8
			c1.3,0.4,2.7,1,4.1,1.8c1,0.5,2,1.1,2.8,1.6c0.8,0.5,1.4,1,1.7,1.4c0.3,0.4,0.4,0.6,0.4,0.8c-0.1,0.2-0.4,0.3-0.9,0.5L170.9,239.2
			z M167,237.3l1.1-0.3c0.4-0.1,0.4-0.4,0.1-0.7c-0.4-0.3-1-0.7-1.7-1.1c-0.9-0.4-1.6-0.7-2.3-0.9c-0.7-0.2-1.2-0.2-1.6-0.1
			l-1.1,0.3L167,237.3z"/>
		<path class="st9" d="M177.6,237.2l7.8,3.9l-1.8,0.5l-21-10.6l2.9-0.9c0.6-0.2,1.3-0.3,2.1-0.2c0.7,0.1,1.8,0.4,3,0.8
			c1.3,0.4,2.7,1,4.1,1.8c1,0.5,2,1.1,2.8,1.6c0.8,0.5,1.4,1,1.7,1.4c0.3,0.4,0.4,0.6,0.4,0.8c-0.1,0.2-0.4,0.3-0.9,0.5L177.6,237.2
			z M173.7,235.3l1.1-0.3c0.4-0.1,0.4-0.4,0.1-0.7c-0.4-0.3-1-0.7-1.7-1.1c-0.9-0.4-1.6-0.7-2.3-0.9c-0.7-0.2-1.2-0.2-1.6-0.1
			l-1.1,0.3L173.7,235.3z"/>
		<path class="st9" d="M183.7,234.8l8.3,4.2l-1.7,0.5l-21-10.6l3.2-1c0.6-0.2,1.3-0.2,2-0.1s1.8,0.4,3.1,0.8c1.3,0.5,2.6,1,3.9,1.7
			c2.5,1.3,3.9,2.3,4.2,3.1l10.7,4.3l-1.9,0.6l-9.5-3.8L183.7,234.8z M174.7,230.3l5.4,2.7l1.1-0.3c0.3-0.1,0.5-0.2,0.5-0.3
			c0-0.1-0.2-0.3-0.5-0.6c-0.4-0.3-0.8-0.6-1.5-0.9c-0.6-0.3-1.2-0.5-1.8-0.7c-0.6-0.2-1-0.3-1.3-0.3c-0.3,0-0.6,0-1,0.2
			L174.7,230.3z"/>
		<path class="st9" d="M200.5,236.6c-1,0.3-2.8,0-5.5-0.9c-2.7-0.9-5.5-2.1-8.5-3.6c-3.1-1.5-5.4-2.9-6.9-4.1
			c-1.5-1.2-1.7-2-0.7-2.3c1-0.3,2.9,0,5.6,0.9c2.7,0.9,5.5,2.1,8.3,3.6c3.1,1.5,5.4,2.9,6.9,4.1
			C201.3,235.6,201.5,236.3,200.5,236.6z M182.9,227.7c-0.9,0.3,0.9,1.6,5.5,3.9c4.5,2.3,7.3,3.3,8.2,3c0.9-0.3-1-1.6-5.5-3.8
			C186.5,228.5,183.8,227.5,182.9,227.7z"/>
		<path class="st9" d="M188.8,222.9l18.8,11.3l-1.9,0.6l-23.2-9.9l1.8-0.6l16.5,7.1l-13.5-8.1L188.8,222.9z"/>
		<path class="st9" d="M198.7,223.1l-3.5,1.1l4.3,2.2l2.8-0.9l4,2l-2.8,0.9l4.6,2.3l3.5-1.1l4.2,2.1l-5.3,1.6l-21-10.6l5.3-1.6
			L198.7,223.1z"/>
		<path class="st9" d="M195.7,220.7l2.2-0.7c0.9-0.3,2-0.3,3.1-0.1c1.2,0.2,2.7,0.7,4.6,1.4c1.9,0.7,4.1,1.6,6.5,2.8
			c3,1.5,5.2,2.9,6.6,4.1s1.5,2,0.5,2.3l-2.5,0.8L195.7,220.7z M201.3,222.1l13.2,6.7l0.7-0.2c0.6-0.2,0.4-0.7-0.6-1.5
			c-1-0.8-2.5-1.6-4.3-2.5c-1.3-0.6-2.5-1.2-3.8-1.7c-1.3-0.5-2.2-0.8-2.9-0.9c-0.7-0.1-1.2-0.2-1.6,0L201.3,222.1z"/>
	</g>
</g>
<g id="Moving_Parts" class="st0">
	<g class="st1">
		<path class="st10" d="M351.4,182.3l-34-16.3c-1.2-0.7-2.6-0.8-3.9-0.4L243.7,187c-1.9,0.7-3.9-0.7-3.9-2.7v-46l4.6-2V176
			l63.4-19.9c2-0.6,3.3-2.4,3.3-4.5v-20l18.3-5.4v7.6c0,0.6-0.3,1.2-0.8,1.6c-1.1,0.8-2.9,3-2.9,8.7c0,6.4,3.2,10.3,4.4,11.5
			c0.3,0.3,0.5,0.7,0.5,1.1v5.6c0,0.3,0.2,0.7,0.5,0.8l3.4,1.9c0.4,0.2,0.9-0.1,0.9-0.6v-6.1c0-0.3,0.2-0.6,0.5-0.6
			c1.2-0.1,3.8-2.5,3.8-7.7c0-5.4-0.8-8.9-1.9-11.2c-1.2-2.4-2.4-6.4-2.4-9.1v-3.3L333,125l13.2-3.9l2.3,1.9l1.7,5.8v45.3l2.8,6.8
			C353.5,181.9,352.4,182.9,351.4,182.3z"/>
		<path class="st11" d="M239.9,139.5v46c0,6.7,0.6,6.9,1.7,7.6l31.7,16.9v-51.9L239.9,139.5z M257.5,182.2c-0.2,0.1-0.4,0.4-0.4,0.7
			v5.5c0,1-1.1,1.6-1.9,1l-2.1-1.4c-0.5-0.3-0.7-0.8-0.7-1.4v-5.3c0-0.5-0.2-0.9-0.5-1.2c-1.3-1.3-4.4-5.1-4.4-11.5
			c0-6.3,2.3-8.3,3.3-8.9c0.2-0.1,0.4-0.4,0.4-0.7v-11.3l5.6,3.2c0.3,0.1,0.4,0.4,0.4,0.7v9.5c0,0.2,0.1,0.4,0.2,0.6
			c0.9,0.9,4.1,4.6,4.1,12.6C261.4,179.5,258.6,181.6,257.5,182.2z"/>
		<path class="st5" d="M273.6,111.8l-0.3,98.2c0,0,1.3,0.9,3,0.5c1.6-0.4,63.3-21.4,75.9-25.7c1.3-0.5,2.2-1.7,2.2-3.1V92.3
			L273.6,111.8z M346.9,172.1c0,2.3-1.5,4.3-3.6,5.1l-53.1,18c-3.5,1.2-7.1-1.4-7.1-5.1v-36.5c0-2.4,1.5-4.4,3.8-5.1l56.7-17
			c1.7-0.5,3.4,0.8,3.4,2.5L346.9,172.1L346.9,172.1z"/>
		<path class="st12" d="M283,129.5v9c0,0.6,0.4,1.1,0.9,0.9l62.3-18.3c0.4-0.2,0.6-0.6,0.6-1.2v-8.8c0-0.7-0.5-1.2-1-1.1l-62,17.8
			C283.4,128.2,283,128.8,283,129.5z"/>
	</g>
</g>
<g id="Main_Parts" class="st0">
	<g class="st1">
		<path class="st13" d="M361,48.1c-0.1-1.1-0.7-2.1-1.5-2.9c-0.9-0.9-2.1-1.4-3.5-1.3c-6.5,0.2-18.8,1.9-35.5,6.3
			C291,58,280.8,62.6,273.3,65.5c-1.9,0.7-3.1,3.4-3.1,5.4h-0.1c-0.2-2.1-1.4-7.5-7.5-12.9c-1.1-1-2.4-2-3.8-2.9
			c-11.7-7.8-19-9.6-21.6-8.8c-1.7,0.5-3.4,1.4-4.4,3.6l0,0c0,0,2.8-11.3,15.3-15.7c12.6-4.4,22-6.6,35.7-10.1
			c9.9-2.5,24.6-4.9,24.6-4.9s5.1-1.4,10.8,0.4c5.8,1.8,16.8,5.7,20.9,7.8c4.1,2,14.8,6.8,17.2,9.6C359.6,39.3,360.8,40.5,361,48.1z
			"/>
		<path class="st14" d="M359.5,45.2c-0.9-0.9-2.1-1.4-3.5-1.3c-6.5,0.2-18.8,1.9-35.5,6.3C291,58,280.8,62.6,273.3,65.5
			c-1.9,0.7-3.1,3.4-3.1,5.4v0.5l0,0c-0.1-1.7-1-7.6-7.5-13.4l0,0c0,0,4.6,2.2,14.2,0s28.1-8.1,38.7-10.7
			c10.6-2.6,30.3-6.3,34.5-6.9c5.5-0.8,5.7-3.5,6.3-2.8c0.3,0.4,0.7,0.7,1,1c1.2,1.4,1.9,3.2,2,5.1v0.2L359.5,45.2z"/>
		<path class="st15" d="M270.3,71.8v85.3c0,3-1.5,2.1-1.5,2.1s-30.1-17-33.9-19.2c-2.8-1.7-2.7-6.3-2.7-6.3s-0.2-73-0.2-78.9
			c0-2.2,0.4-3.8,0.9-5.1c1-2.1,2.7-3.1,4.4-3.6c2.7-0.8,10,1,21.6,8.8c1.4,1,2.7,2,3.8,2.9c6,5.4,7.2,10.8,7.5,12.9
			c0,0.2,0,0.3,0,0.5C270.3,71.6,270.3,71.7,270.3,71.8z"/>
		<path class="st13" d="M361,51.2V132c0,3.8-1.3,3.7-1.3,3.7s-4.6,2.1-6.1,2.6s-1.1-2.6-1.1-2.6s0-30.1,0-33.7s-1.8-2.6-1.8-2.6
			s-67.6,19.2-70.5,20.1c-2.9,0.9-2.6,3.4-2.6,3.4s0,28.6,0,31.5s-1.7,3.3-1.7,3.3l-5.6,1.7c-0.5,0.2,0,0,0-0.5v-88
			c0-2,1.2-4.7,3.1-5.4c7.5-2.9,17.7-7.6,47.2-15.3c16.7-4.4,29-6.1,35.5-6.3c1.4-0.1,2.6,0.5,3.5,1.3c0.8,0.8,1.3,1.8,1.5,2.9
			C361,49.1,361,50.1,361,51.2z"/>
		<path class="st5" d="M249.1,33.9c-0.6,0.2-0.6,1,0.1,1.1c3.7,0.7,13.2,4.8,18.7,7.7c6.4,3.4,10,5,11.5,6.1
			c0.4,0.3,1.2,0.3,1.2,0.3c10.2-3.2,20.1-5.8,31.9-8.4c8.5-1.9,16.8-3.5,24.6-4.8c0.2-0.1,0.6-0.2,0.8-0.5c0.1-0.2,0.2-0.4,0.2-0.7
			c0-1.8-13.4-7.1-18.4-8.9c-4.8-1.8-14-4.1-17.7-4.6c-1.1-0.1-3.5,0.2-4.6,0.4c-3.3,0.5-6.3,1.5-16.1,3.8
			C271.2,27.7,254.4,32.5,249.1,33.9z"/>
		<line class="st16" x1="238.3" y1="67" x2="259" y2="76.7"/>
		<line class="st16" x1="238.3" y1="75.4" x2="259" y2="85.1"/>
		<path class="st12" d="M241.2,134l17.4,9c0.9,0.4,1.6-0.3,1.6-1.3c0-4.7-3.3-14.3-9.2-17.4c-6.6-3.4-10.4,4.3-10.3,8.4
			C240.7,133.2,240.7,133.7,241.2,134z"/>
	</g>
</g>
</svg>
