<?xml version="1.0" encoding="utf-8"?>
<!-- Generator: Adobe Illustrator 28.1.0, SVG Export Plug-In . SVG Version: 6.00 Build 0)  -->
<svg version="1.1" xmlns="http://www.w3.org/2000/svg" xmlns:xlink="http://www.w3.org/1999/xlink" x="0px" y="0px"
	 viewBox="0 0 380.4 288.4" style="enable-background:new 0 0 380.4 288.4;" xml:space="preserve">
<style type="text/css">
	.st0{fill:#59ABFF;stroke:#0032B8;stroke-width:2;stroke-miterlimit:10;}
	.st1{fill:#0099FF;stroke:#0032B8;stroke-width:2;stroke-miterlimit:10;}
	.st2{fill:#FFFFFF;stroke:#0032B8;stroke-width:2;stroke-miterlimit:10;}
	.st3{fill:#FFFFFF;stroke:#0032B8;stroke-width:2;stroke-miterlimit:10;stroke-dasharray:5,4,4,4,4,4;}
	.st4{fill:none;stroke:#0032B8;stroke-width:2;stroke-linecap:round;stroke-linejoin:round;stroke-miterlimit:10;}
	.st5{fill:#C0DFFF;}
	.st6{fill:#3FC6FF;stroke:#0032B8;stroke-width:2;stroke-miterlimit:10;}
	.st7{fill:#96E1FE;stroke:#0032B8;stroke-width:2;stroke-linecap:round;stroke-linejoin:round;stroke-miterlimit:10;}
	.st8{fill:#0362E1;stroke:#0032B8;stroke-width:2;stroke-linecap:round;stroke-linejoin:round;stroke-miterlimit:10;}
	.st9{fill:#139BFF;stroke:#0032B8;stroke-width:2;stroke-miterlimit:10;}
	.st10{fill:#60D7FF;}
	.st11{fill:#0387FF;stroke:#0032B8;stroke-width:2;stroke-miterlimit:10;}
	.st12{fill:none;stroke:#0032B8;stroke-width:2;stroke-linecap:round;stroke-miterlimit:10;}
</style>
<g id="Doc">
	<g>
		<path class="st0" d="M83.8,215.1l-5.4,7.8c-0.7,1-2.2,1-2.8-0.1l-53-66.4c0,0,0,0,0,0c-1.5-2.5-1.9-5.5-0.9-8.3l1.6-4.1
			c0,0,0-0.1,0.1-0.1c-0.3,1.3,0.1,2.9,1.4,5.2l0.3,0.6c0.3,0.6,0.7,1.2,1.1,1.7l48.4,59.8c1.8,2.3,4.6,3.5,7.4,3.5
			c0.4,0,0.8,0,1.2-0.1L83.8,215.1z"/>
		<path class="st0" d="M287.5,225.5v7.3c0,0.1-0.1,0.3-0.2,0.3l-121.3,40.8c-3.7,1.2-7.7,0.8-11.1-1.2l-75.4-46.2c0,0,0,0-0.1-0.1
			c-0.8-0.7-1.2-1.8-1.1-2.8l0.6-6.2c0.2-0.5,0.3,0.1,0.3,0c0,0.4-0.1,0.6,0.3,0.8l77.9,47.9c2,1.2,4.5,1.5,6.7,0.8l122.6-41.2
			c0.4-0.1,0.6-0.4,0.7-0.7C287.4,225.2,287.5,225.4,287.5,225.5z"/>
		<path class="st1" d="M159.7,255.3"/>
		<path class="st2" d="M287.4,225.1c-0.1,0.3-0.4,0.6-0.7,0.7L164.1,267c-2.3,0.8-4.7,0.5-6.7-0.8l-77.9-47.9
			c-0.3-0.2-0.5-0.6-0.5-0.9c0-0.5,0.3-1,0.8-1.2l122.1-36.5c0.6-0.2,1.2-0.1,1.7,0.2l83.3,43.8C287.4,224,287.6,224.6,287.4,225.1z
			"/>
		<path class="st3" d="M249.5,230.4L165,259c-0.5,0.2-1.1,0.1-1.6-0.2l-40.8-23.5c-0.5-0.3-0.4-1,0.2-1.1l85.3-24.8
			c0.5-0.1,1-0.1,1.4,0.1l40.2,19.1C250.4,229,250.3,230.1,249.5,230.4z"/>
		<path class="st2" d="M195.4,181.6L84.8,214.3c-0.5,0.1,0,0-1.5,0.5c-1.4,0.5-1.1,0.3-1.4,0.5c-3.6,1.3-3.6-0.2-7.2-4.1l-48.4-59.8
			c-0.4-0.5-0.8-1.1-1.1-1.7l-0.3-0.6c-1.3-2.3-1.6-3.9-1.4-5.2c0.4-1.9,2.2-2.9,4.1-3.4l112-30.5c2.7-0.7,5.5,0.3,7.1,2.5
			l52.3,62.5C203.4,180.1,202,179.6,195.4,181.6z"/>
		<line class="st4" x1="122.1" y1="184.8" x2="179.9" y2="168.4"/>
		<path class="st4" d="M155.5,201.2"/>
		<path class="st4" d="M98.2,218.3"/>
		<line class="st4" x1="104.2" y1="222.6" x2="161.1" y2="205.8"/>
		<line class="st4" x1="111.9" y1="227" x2="169.6" y2="210.6"/>
		<line class="st4" x1="118.2" y1="179.2" x2="174.9" y2="163"/>
		<line class="st4" x1="113.5" y1="172.9" x2="169.5" y2="157"/>
		<line class="st4" x1="109.6" y1="167.6" x2="135" y2="160.3"/>
		<path class="st4" d="M180.3,168.1"/>
		<path class="st4" d="M122.6,184.2"/>
		<path class="st4" d="M175.1,162"/>
		<path class="st4" d="M117.8,178.1"/>
		<path class="st4" d="M169.2,151.9"/>
		<path class="st4" d="M132.3,162.3"/>
		<path class="st4" d="M165.5,145.6"/>
		<path class="st4" d="M128.6,156"/>
		<path class="st0" d="M67.1,176.3c7.6-2.2,23.6-6.4,30.4-8.5c2.1-0.6,4.3,0.1,5.5,1.9l11.5,14.7c1,1.4,0.3,3.4-1.4,4.6l-30.3,8.8
			c-2,0-4.2-0.8-5.4-2.5l-11.7-15.1C64.7,178.8,65.4,176.7,67.1,176.3z"/>
		<path class="st0" d="M44.4,147.8c7.6-2.2,86.9-23.2,93.7-25.3c2.1-0.6,4.3,0.1,5.5,1.9l11.5,14.7c1,1.4,0.3,3.4-1.4,4.6
			l-93.5,25.6c-2,0-4.2-0.8-5.4-2.5l-11.7-15.1C42.1,150.4,42.7,148.3,44.4,147.8z"/>
		<path class="st5" d="M76.8,210.9c0,0,0.9,0.3,5.7-0.7c15.2-3.3,115.9-34.3,115.9-34.3l0.7,0.8c1.8,2.3,2.2,2.1-0.1,2.9L85.7,212.9
			c-8,2.7-5.6,2.5-10.1-2.3L76.8,210.9z"/>
	</g>
</g>
<g id="Moving_Parts">
	<g>
		<path class="st6" d="M353.6,182.8l-34.4-16.5c-1.2-0.7-2.6-0.8-3.9-0.4l-70.8,21.6c-1.9,0.7-3.9-0.7-3.9-2.8v-46.6l4.7-2v40.2
			l64.2-20.2c2-0.6,3.3-2.5,3.3-4.6v-20.3l18.6-5.4v7.7c0,0.6-0.3,1.2-0.8,1.6c-1.1,0.8-2.9,3.1-2.9,8.8c0,6.5,3.3,10.4,4.5,11.7
			c0.3,0.3,0.5,0.7,0.5,1.1l0,5.7c0,0.4,0.2,0.7,0.5,0.9l3.4,1.9c0.4,0.2,1-0.1,1-0.6v-6.2c0-0.3,0.2-0.6,0.5-0.6
			c1.2-0.1,3.8-2.6,3.8-7.8c0-5.5-0.8-9.1-1.9-11.3c-1.2-2.4-2.4-6.5-2.4-9.2v-3.3l-2.5-1.4l13.4-3.9l2.4,1.9l1.7,5.8v45.9l2.9,6.9
			C355.7,182.4,354.6,183.4,353.6,182.8z"/>
		<path class="st7" d="M240.5,139.4V186c0,6.8,0.6,7,1.7,7.7l32.2,17.1v-52.6L240.5,139.4z M258.4,182.7c-0.2,0.1-0.4,0.4-0.4,0.7
			v5.6c0,1-1.1,1.6-2,1l-2.1-1.5c-0.5-0.3-0.7-0.8-0.7-1.4v-5.3c0-0.5-0.2-0.9-0.5-1.2c-1.3-1.3-4.4-5.2-4.4-11.7
			c0-6.4,2.3-8.5,3.3-9c0.2-0.1,0.4-0.4,0.4-0.7v-11.4l5.7,3.2c0.3,0.1,0.4,0.4,0.4,0.7v9.6c0,0.2,0.1,0.4,0.2,0.6
			c0.9,0.9,4.1,4.7,4.1,12.8C262.4,179.9,259.5,182.1,258.4,182.7z"/>
		<path class="st2" d="M274.7,111.3l-0.3,99.6c0,0,1.3,0.9,3.1,0.5c1.6-0.4,64.2-21.7,76.9-26c1.3-0.5,2.2-1.7,2.2-3.1V91.5
			L274.7,111.3z M349,172.4c0,2.3-1.5,4.4-3.7,5.1l-53.9,18.3c-3.5,1.2-7.2-1.4-7.2-5.1v-36.9c0-2.4,1.6-4.5,3.9-5.2l57.4-17.2
			c1.7-0.5,3.4,0.8,3.4,2.5V172.4z"/>
		<path class="st8" d="M284.3,129.3v9.1c0,0.7,0.4,1.1,0.9,1l63.1-18.6c0.4-0.2,0.7-0.7,0.7-1.2v-8.9c0-0.7-0.5-1.3-1-1.1
			l-62.8,18.1C284.6,127.9,284.3,128.6,284.3,129.3z"/>
	</g>
</g>
<g id="Main_Parts">
	<g>
		<path class="st9" d="M363.3,46.8c-0.1-1.2-0.7-2.2-1.5-2.9c-0.9-0.9-2.2-1.4-3.5-1.3c-6.6,0.2-19,1.9-36,6.4
			c-29.9,7.9-40.3,12.6-47.9,15.5c-1.9,0.7-3.1,3.5-3.1,5.5l-0.1,0c-0.2-2.2-1.5-7.6-7.6-13.1c-1.1-1-2.4-2-3.8-3
			c-11.8-8-19.2-9.7-21.9-8.9c-1.7,0.5-3.4,1.4-4.4,3.6v0c0,0,2.8-11.5,15.5-15.9c12.7-4.5,22.3-6.7,36.2-10.2c10-2.5,25-5,25-5
			s5.2-1.5,11,0.4c5.8,1.8,17,5.8,21.2,7.9c4.2,2,15,6.9,17.5,9.7C361.8,37.8,363,39.1,363.3,46.8z"/>
		<path class="st10" d="M361.8,43.9c-0.9-0.9-2.2-1.4-3.5-1.3c-6.6,0.2-19,1.9-36,6.4c-29.9,7.9-40.3,12.6-47.9,15.5
			c-1.9,0.7-3.1,3.5-3.1,5.5v0.5h0c-0.1-1.8-1-7.7-7.6-13.6c0,0,0,0,0,0s4.7,2.2,14.4,0c9.8-2.2,28.4-8.2,39.2-10.8
			c10.8-2.6,30.7-6.4,34.9-7c5.6-0.8,5.8-3.6,6.4-2.8c0.3,0.4,0.7,0.7,1,1.1c1.2,1.4,1.9,3.2,2,5.1v0.2L361.8,43.9z"/>
		<path class="st11" d="M271.3,70.8v86.5c0,3.1-1.5,2.1-1.5,2.1s-30.5-17.2-34.4-19.4c-2.9-1.7-2.7-6.4-2.7-6.4s-0.2-74-0.2-80
			c0-2.2,0.4-3.9,1-5.1c1-2.2,2.7-3.1,4.4-3.6c2.7-0.8,10.1,1,21.9,8.9c1.5,1,2.7,2,3.8,3c6.1,5.5,7.3,10.9,7.6,13.1
			c0,0.2,0,0.3,0,0.5C271.3,70.6,271.3,70.7,271.3,70.8z"/>
		<path class="st9" d="M363.3,50v81.9c0,3.9-1.3,3.7-1.3,3.7s-4.7,2.1-6.2,2.6c-1.5,0.5-1.1-2.6-1.1-2.6s0-30.5,0-34.1
			c0-3.6-1.8-2.6-1.8-2.6s-68.5,19.4-71.4,20.4c-3,0.9-2.7,3.4-2.7,3.4s0,29,0,31.9c0,3-1.7,3.4-1.7,3.4l-5.7,1.8
			c-0.5,0.2,0,0,0-0.6V69.9c0-2,1.2-4.8,3.1-5.5c7.6-2.9,18-7.7,47.9-15.5c16.9-4.5,29.4-6.1,36-6.4c1.4-0.1,2.6,0.5,3.5,1.3
			c0.8,0.8,1.3,1.8,1.5,2.9C363.3,47.7,363.3,48.8,363.3,50z"/>
		<path class="st2" d="M249.8,32.4c-0.6,0.2-0.6,1,0.1,1.1c3.8,0.7,13.4,4.8,19,7.8c6.5,3.4,10.2,5.1,11.7,6.2
			c0.5,0.3,1.2,0.3,1.2,0.3c10.4-3.2,20.3-5.9,32.3-8.6c8.6-1.9,17-3.6,25-4.9c0.2-0.1,0.6-0.2,0.8-0.5c0.1-0.2,0.2-0.4,0.2-0.7
			c0-1.8-13.6-7.2-18.7-9c-4.9-1.8-14.2-4.2-18-4.6c-1.1-0.1-3.5,0.2-4.6,0.4c-3.3,0.5-6.4,1.5-16.3,3.9
			C272.3,26.1,255.2,31,249.8,32.4z"/>
		<line class="st12" x1="238.9" y1="65.9" x2="259.9" y2="75.8"/>
		<line class="st12" x1="238.9" y1="74.4" x2="259.9" y2="84.3"/>
		<path class="st8" d="M241.9,133.8l17.6,9.1c0.9,0.4,1.6-0.3,1.6-1.3c0-4.8-3.3-14.5-9.3-17.6c-6.7-3.4-10.6,4.4-10.5,8.5
			C241.3,133,241.4,133.5,241.9,133.8z"/>
	</g>
</g>
</svg>
