<?xml version="1.0" encoding="UTF-8"?>
<svg id="Ready-Made_Companies" data-name="Ready-Made Companies" xmlns="http://www.w3.org/2000/svg" viewBox="0 0 380.44 288.44">
  <defs>
    <style>
      .cls-1 {
        stroke-miterlimit: 10;
      }

      .cls-1, .cls-2, .cls-3, .cls-4, .cls-5, .cls-6 {
        stroke: #0032b8;
        stroke-width: 2px;
      }

      .cls-1, .cls-5 {
        fill: #3fc6ff;
      }

      .cls-2 {
        fill: #0362e1;
      }

      .cls-2, .cls-3, .cls-4, .cls-5, .cls-6 {
        stroke-linejoin: round;
      }

      .cls-2, .cls-4, .cls-5 {
        stroke-linecap: round;
      }

      .cls-3 {
        fill: #fff;
      }

      .cls-4 {
        fill: #96e1fe;
      }

      .cls-6 {
        fill: #59abff;
      }
    </style>
  </defs>
  <g>
    <g id="base">
      <g>
        <polygon class="cls-2" points="144.89 223.86 80.78 189.98 80.78 179.1 144.89 212.97 144.89 223.86"/>
        <polygon class="cls-5" points="144.89 212.97 80.78 179.1 146.1 145.23 210.21 179.1 144.89 212.97"/>
        <polygon class="cls-5" points="144.89 223.74 210.21 190.1 210.21 179.1 144.89 213.08 144.89 223.74"/>
      </g>
    </g>
    <g id="buil">
      <polygon class="cls-4" points="144.89 200.87 100.13 177.89 100.13 99.26 144.89 122.24 144.89 200.87"/>
      <polygon class="cls-6" points="144.89 122.24 100.13 99.26 144.89 76.27 189.65 99.26 144.89 122.24"/>
      <polygon class="cls-3" points="144.89 200.87 189.65 178.11 189.65 99.48 144.89 122.47 144.89 200.87"/>
    </g>
    <polygon id="Door" class="cls-6" points="173.92 186.11 164.24 190.95 164.24 174.33 173.92 169.35 173.92 186.11"/>
  </g>
  <g id="Glass">
    <polygon class="cls-1" points="164.24 135.52 156.99 139.28 156.99 123.55 164.24 119.79 164.24 135.52"/>
    <polygon class="cls-1" points="181.18 127.05 173.92 130.81 173.92 115.09 181.18 111.32 181.18 127.05"/>
    <polygon class="cls-1" points="164.24 165.89 156.99 169.66 156.99 153.93 164.24 150.17 164.24 165.89"/>
    <polygon class="cls-1" points="181.18 157.43 173.92 161.19 173.92 145.46 181.18 141.7 181.18 157.43"/>
  </g>
  <g id="Glass-2" data-name="Glass">
    <polygon class="cls-1" points="126.74 136.73 134 140.49 134 124.76 126.74 121 126.74 136.73"/>
    <polygon class="cls-1" points="109.81 128.26 117.07 132.02 117.07 116.3 109.81 112.53 109.81 128.26"/>
    <polygon class="cls-1" points="126.74 167.1 134 170.87 134 155.14 126.74 151.38 126.74 167.1"/>
    <polygon class="cls-1" points="109.81 158.64 117.07 162.4 117.07 146.67 109.81 142.91 109.81 158.64"/>
  </g>
</svg>