<?xml version="1.0" encoding="utf-8"?>
<!-- Generator: Adobe Illustrator 28.1.0, SVG Export Plug-In . SVG Version: 6.00 Build 0)  -->
<svg version="1.1" xmlns="http://www.w3.org/2000/svg" xmlns:xlink="http://www.w3.org/1999/xlink" x="0px" y="0px"
	 viewBox="0 0 50 50" style="enable-background:new 0 0 50 50;" xml:space="preserve">
<style type="text/css">
	.st0{display:none;}
	.st1{fill:#1A6EFF;}
	.st2{fill:none;stroke:#1A6EFF;stroke-width:3;stroke-miterlimit:10;}
</style>
<g id="back" class="st0">
</g>
<g id="Слой_4">
	<path class="st1" d="M41-48.1c-5.2,1.5-10.8,1.5-16-0.3c-5.2,1.7-10.8,1.8-16,0.3l-1-0.3v14.6c0,11.1,7.1,20.6,17,24.2
		c9.9-3.6,17-13.1,17-24.2v-14.6L41-48.1z M36-32.1c0,7.2-4.6,13.4-11,15.7c-6.4-2.3-11-8.5-11-15.7v-9.5l0.6,0.2
		c3.4,1,7,0.9,10.4-0.2c3.4,1.1,7,1.2,10.4,0.2l0.6-0.2V-32.1z"/>
	<g>
		<circle class="st1" cx="11" cy="9" r="7"/>
		<circle class="st1" cx="11" cy="41" r="7"/>
		<circle class="st1" cx="40" cy="9" r="7"/>
		<line class="st2" x1="11" y1="9" x2="11" y2="42.5"/>
	</g>
	<path class="st2" d="M11,41h20.8c4.5,0,8.2-3.7,8.2-8.2V9"/>
</g>
<g id="Check">
	<path class="st1" d="M-103-51c-11.6,0-21,9.4-21,21c0,11.6,9.4,21,21,21s21-9.4,21-21C-82-41.6-91.4-51-103-51z M-105.3-17
		l-14-12.9l4.1-4.4l9.6,8.8l13.5-14.7l4.4,4.1L-105.3-17z"/>
</g>
<g id="Rocket">
	<path class="st1" d="M-57.5-7.4l2.8-10.4l0,0c1.2-4.6,7-6.2,10.4-2.8l0,0l0,0c3.4,3.4,1.8,9.1-2.8,10.4l0,0L-57.5-7.4z"/>
	<path class="st1" d="M-14-51l-0.7,0c-8.7-0.1-17.1,3.4-23,9.8l-1.2,1.3c-1.2,0-4.1,0.2-8.2,1.7c-5.5,2-8.8,6.3-8.8,6.3l8.5,1.2
		l-1.4,1.5l12.9,12.8l1.5-1.3l0.1,0.2l1,8.5c0,0,4.3-3.2,6.4-8.6c1.8-4.7,1.9-7.9,1.9-8.7l0.9-0.8C-17.3-33.2-13.7-42-14-51z
		 M-26.4-34.1c-2.5,0-4.6-2.1-4.6-4.6s2.1-4.6,4.6-4.6s4.6,2.1,4.6,4.6S-23.8-34.1-26.4-34.1z"/>
</g>
<g id="Слой_5">
</g>
</svg>
