<?xml version="1.0" encoding="UTF-8"?>
<svg id="Ready-Made_Companies" data-name="Ready-Made Companies" xmlns="http://www.w3.org/2000/svg" viewBox="0 0 380.44 288.44">
  <defs>
    <style>
      .cls-1 {
        fill: #fff;
      }

      .cls-1, .cls-2, .cls-3 {
        stroke: #0032b8;
        stroke-linejoin: round;
        stroke-width: 2px;
      }

      .cls-2 {
        fill: #96e1fe;
        stroke-linecap: round;
      }

      .cls-3 {
        fill: #59abff;
      }
    </style>
  </defs>
  <g id="Seal">
    <g>
      <polygon class="cls-2" points="167.27 253.87 148.36 244.55 148.36 205.86 167.27 215.17 167.27 253.87"/>
      <polygon class="cls-1" points="167.27 215.17 148.36 205.86 178.15 190.49 197.06 199.81 167.27 215.17"/>
      <polygon class="cls-1" points="167.27 253.87 197.06 238.68 197.06 199.98 167.27 215.16 167.27 253.87"/>
    </g>
  </g>
  <path class="cls-3" d="M192.22,224.89v6.24l-19.35,9.76v-6.24c0-.75.6-1.66,1.35-2.04l4.67-2.35.38-.57c.92-1.39,1.3-2.9,1.02-4.01-1.23-.13-2.04-1.08-2.04-2.63,0-2.38,1.92-5.27,4.3-6.47,2.38-1.2,4.3-.25,4.3,2.13,0,1.55-.82,3.32-2.04,4.69-.28,1.39.1,2.52,1.02,2.98l.38.19,4.67-2.35c.75-.38,1.35-.08,1.35.67Z"/>
</svg>