<?xml version="1.0" encoding="utf-8"?>
<!-- Generator: Adobe Illustrator 28.1.0, SVG Export Plug-In . SVG Version: 6.00 Build 0)  -->
<svg version="1.1" xmlns="http://www.w3.org/2000/svg" xmlns:xlink="http://www.w3.org/1999/xlink" x="0px" y="0px"
	 viewBox="0 0 50 50" style="enable-background:new 0 0 50 50;" xml:space="preserve">
<style type="text/css">
	.st0{fill:#1A6EFF;}
	.st1{display:none;fill:none;stroke:#000000;stroke-width:6;stroke-miterlimit:10;}
</style>
<g id="Слой_1">
</g>
<g id="Слой_2">
	<path class="st0" d="M25,4C13.4,4,4,13.4,4,25c0,11.6,9.4,21,21,21s21-9.4,21-21C46,13.4,36.6,4,25,4z M22.7,38l-14-12.9l4.1-4.4
		l9.6,8.8l13.5-14.7l4.4,4.1L22.7,38z"/>
	<polyline class="st1" points="12,24 22,33 38,17 	"/>
	<path class="st0" d="M-36,4c-11.6,0-21,9.4-21,21c0,11.6,9.4,21,21,21s21-9.4,21-21C-15,13.4-24.4,4-36,4z M-38.3,38l-14-12.9
		l4.1-4.4l9.6,8.8l13.5-14.7l4.4,4.1L-38.3,38z"/>
	<polygon points="-20.7,18.9 -38.3,38 -52.3,25.1 -48.2,20.7 -38.7,29.5 -25.1,14.8 	"/>
</g>
</svg>
