<?xml version="1.0" encoding="UTF-8"?>
<svg id="Ready-Made_Companies" data-name="Ready-Made Companies" xmlns="http://www.w3.org/2000/svg" viewBox="0 0 380.44 288.44">
  <defs>
    <style>
      .cls-1 {
        fill: #fff;
      }

      .cls-1, .cls-2, .cls-3 {
        stroke: #0032b8;
        stroke-linejoin: round;
        stroke-width: 2px;
      }

      .cls-2 {
        fill: #96e1fe;
        stroke-linecap: round;
      }

      .cls-4 {
        fill: #0032b8;
        stroke-width: 0px;
      }

      .cls-3 {
        fill: #59abff;
      }
    </style>
  </defs>
  <g id="LLC">
    <g>
      <polygon class="cls-2" points="232.75 219.25 198.11 201.47 198.11 159.15 232.75 176.93 232.75 219.25"/>
      <polygon class="cls-1" points="232.75 176.93 198.11 159.15 232.75 141.36 267.38 159.15 232.75 176.93"/>
      <polygon class="cls-1" points="232.75 219.25 267.38 201.64 267.38 159.32 232.75 177.1 232.75 219.25"/>
    </g>
  </g>
  <g>
    <ellipse class="cls-3" cx="250.44" cy="189.09" rx="16.35" ry="10.51" transform="translate(-39.42 309.33) rotate(-59.58)"/>
    <path class="cls-4" d="M254.59,183.2c-.07-.06-.22-.12-.45-.18-.23-.05-.5-.09-.82-.11-.31-.02-.66,0-1.04.06-.38.06-.76.18-1.15.36-.68.31-1.19.68-1.53,1.12-.35.44-.52.93-.52,1.47,0,.4.11.67.33.8.22.13.55.19.99.15.44-.04.98-.1,1.61-.19.87-.16,1.61-.21,2.23-.16.62.06,1.09.28,1.42.68.33.39.5,1.05.5,1.96,0,.77-.13,1.49-.38,2.16-.25.67-.61,1.28-1.05,1.83s-.96,1.04-1.53,1.46-1.18.77-1.8,1.06c-.64.29-1.29.51-1.93.65-.65.14-1.26.21-1.85.19-.59-.02-1.13-.11-1.62-.29l1.11-2.97c.11.07.3.15.58.22.28.07.61.12,1.01.14.39.02.83,0,1.31-.09.48-.08.96-.23,1.44-.45.68-.31,1.19-.67,1.54-1.08s.53-.87.53-1.37c0-.44-.14-.73-.42-.86-.28-.13-.66-.17-1.16-.13s-1.08.11-1.76.21c-.81.11-1.49.12-2.04.04-.55-.08-.96-.31-1.22-.68-.26-.37-.39-.93-.39-1.68,0-1.01.21-1.95.63-2.82.42-.87.99-1.65,1.71-2.33.72-.68,1.51-1.22,2.37-1.61.6-.27,1.18-.46,1.71-.55.54-.09,1.04-.12,1.51-.09s.9.11,1.27.23l-1.11,2.82ZM250.58,179l1.21-.55v3.44l-1.21.74v-3.62ZM250.58,194.55l1.21-.55v3.75l-1.21.55v-3.75ZM250.74,194.12v-11.3l.87-.62v11.59l-.87.33Z"/>
  </g>
</svg>