<?xml version="1.0" encoding="UTF-8"?>
<svg id="Ready-Made_Companies" data-name="Ready-Made Companies" xmlns="http://www.w3.org/2000/svg" viewBox="0 0 380.44 288.44">
  <defs>
    <style>
      .cls-1 {
        fill: #66acff;
        stroke-width: 0px;
      }

      .cls-2 {
        stroke-miterlimit: 10;
      }

      .cls-2, .cls-3, .cls-4, .cls-5, .cls-6, .cls-7 {
        stroke: #0032b8;
        stroke-width: 2px;
      }

      .cls-2, .cls-6 {
        fill: #3fc6ff;
      }

      .cls-3 {
        fill: #0362e1;
      }

      .cls-3, .cls-4, .cls-5, .cls-6, .cls-7 {
        stroke-linejoin: round;
      }

      .cls-3, .cls-5, .cls-6 {
        stroke-linecap: round;
      }

      .cls-4 {
        fill: #fff;
      }

      .cls-5 {
        fill: #96e1fe;
      }

      .cls-7 {
        fill: #59abff;
      }
    </style>
  </defs>
  <g>
    <g id="base">
      <g>
        <polygon class="cls-3" points="144.89 223.97 80.78 190.1 80.78 179.21 144.89 213.08 144.89 223.97"/>
        <polygon class="cls-6" points="144.89 213.08 80.78 179.21 146.1 145.34 210.21 179.21 144.89 213.08"/>
        <polygon class="cls-6" points="144.89 223.86 210.21 190.21 210.21 179.21 144.89 213.19 144.89 223.86"/>
      </g>
    </g>
    <g id="buil">
      <polygon class="cls-5" points="144.89 200.98 100.13 178 100.13 62.69 144.89 85.67 144.89 200.98"/>
      <polygon class="cls-4" points="144.89 200.98 189.65 178.22 189.65 62.47 144.89 85.45 144.89 200.98"/>
    </g>
    <g id="Glass">
      <polygon class="cls-2" points="164.24 135.59 156.99 139.36 156.99 123.63 164.24 119.87 164.24 135.59"/>
      <polygon class="cls-2" points="181.18 127.13 173.92 130.89 173.92 115.16 181.18 111.4 181.18 127.13"/>
      <polygon class="cls-2" points="164.24 165.97 156.99 169.73 156.99 154.01 164.24 150.24 164.24 165.97"/>
      <polygon class="cls-2" points="181.18 157.5 173.92 161.27 173.92 145.54 181.18 141.78 181.18 157.5"/>
    </g>
    <g id="Glass-2" data-name="Glass">
      <polygon class="cls-2" points="126.74 136.8 134 140.57 134 124.84 126.74 121.08 126.74 136.8"/>
      <polygon class="cls-2" points="109.81 128.34 117.07 132.1 117.07 116.37 109.81 112.61 109.81 128.34"/>
      <polygon class="cls-2" points="126.74 167.18 134 170.94 134 155.22 126.74 151.45 126.74 167.18"/>
      <polygon class="cls-2" points="109.81 158.71 117.07 162.48 117.07 146.75 109.81 142.99 109.81 158.71"/>
    </g>
    <polygon id="Door" class="cls-7" points="173.92 186.23 164.24 191.06 164.24 174.44 173.92 169.46 173.92 186.23"/>
  </g>
  <g>
    <g id="LLC">
      <polygon class="cls-4" points="144.89 85.45 100.13 62.47 144.89 39.48 189.65 62.47 144.89 85.45"/>
    </g>
    <polygon class="cls-2" points="126.74 103.53 134 107.29 134 90.36 126.74 86.59 126.74 103.53"/>
    <polygon class="cls-2" points="109.81 95.06 117.07 98.82 117.07 81.89 109.81 78.12 109.81 95.06"/>
    <polygon class="cls-2" points="163.03 104.02 155.78 107.78 155.78 90.85 163.03 87.09 163.03 104.02"/>
    <polygon class="cls-2" points="179.97 95.55 172.71 99.32 172.71 82.38 179.97 78.62 179.97 95.55"/>
    <g>
      <path class="cls-1" d="M126.7,64.26l10.72,5.39,5.52-2.8,3.22,1.62-8.57,4.35-13.94-7.01,3.05-1.55Z"/>
      <path class="cls-1" d="M136.07,59.51l10.72,5.39,5.52-2.8,3.22,1.62-8.57,4.35-13.94-7.01,3.05-1.55Z"/>
      <path class="cls-1" d="M162.05,60.63c-4.64,2.35-7.23,2.22-12.98-.67s-6.02-4.2-1.39-6.55,7-2.32,11.85.15l-3.2,1.62c-2.72-1.4-3.29-1.42-5.61-.24-2.34,1.19-2.19,1.53,1.54,3.4,3.73,1.88,4.41,1.95,6.75.77s2.28-1.46-.53-2.85l3.2-1.62c4.93,2.45,5.01,3.65.38,6Z"/>
    </g>
  </g>
</svg>