<?xml version="1.0" encoding="UTF-8"?>
<svg id="Residence_permit" data-name="Residence permit" xmlns="http://www.w3.org/2000/svg" viewBox="0 0 380.44 288.44">
  <defs>
    <style>
      .cls-1 {
        stroke-dasharray: 0 0 5.1 5.1;
      }

      .cls-1, .cls-2, .cls-3, .cls-4 {
        fill: none;
        stroke: #0032b8;
        stroke-linecap: round;
        stroke-miterlimit: 10;
        stroke-width: 2px;
      }

      .cls-2 {
        stroke-dasharray: 0 0 5.14 5.14;
      }

      .cls-4 {
        stroke-dasharray: 0 0 4.85 4.85;
      }
    </style>
  </defs>
  <g id="Dashed-path">
    <g>
      <path class="cls-3" d="M101.54,149.5c-.82.16-1.63.33-2.45.5"/>
      <path class="cls-4" d="M94.34,151.01c-24.05,5.33-48.01,13.47-58.65,22.47-14.6,12.36-16.69,25.11,2.59,28.87"/>
      <path class="cls-3" d="M40.69,202.76c.8.12,1.62.22,2.48.3"/>
    </g>
    <g>
      <path class="cls-3" d="M287.54,119.32c.81-.04,1.64-.08,2.5-.11"/>
      <path class="cls-2" d="M295.16,119.06c24.05-.49,58.21,2.13,60.01,20.8.6,6.17-1.24,13.21-5.28,20.52"/>
      <path class="cls-3" d="M348.6,162.6c-.43.7-.88,1.4-1.34,2.11"/>
    </g>
    <g>
      <path class="cls-3" d="M116.34,209.45c.82.16,1.64.33,2.45.5"/>
      <path class="cls-1" d="M123.77,211.04c25.27,5.81,47.7,14.32,101.87,11.02,16.95-1.04,32.56-3.94,46.63-8.15"/>
      <path class="cls-3" d="M274.71,213.15c.8-.25,1.59-.51,2.38-.77"/>
    </g>
  </g>
</svg>