<?xml version="1.0" encoding="utf-8"?>
<!-- Generator: Adobe Illustrator 28.1.0, SVG Export Plug-In . SVG Version: 6.00 Build 0)  -->
<svg version="1.1" id="Residence_permit" xmlns="http://www.w3.org/2000/svg" xmlns:xlink="http://www.w3.org/1999/xlink" x="0px"
	 y="0px" viewBox="0 0 380.4 288.4" style="enable-background:new 0 0 380.4 288.4;" xml:space="preserve">
<style type="text/css">
	.st0{display:none;}
	.st1{display:inline;}
	.st2{fill:none;stroke:#0032B8;stroke-width:2;stroke-linecap:round;stroke-miterlimit:10;}
	.st3{fill:none;stroke:#0032B8;stroke-width:2;stroke-linecap:round;stroke-miterlimit:10;stroke-dasharray:5.0467,5.0467;}
	.st4{display:inline;fill:none;stroke:#0032B8;stroke-width:2;stroke-linecap:round;stroke-miterlimit:10;stroke-dasharray:5;}
	
		.st5{display:inline;fill:#0362E1;stroke:#0032B8;stroke-width:2;stroke-linecap:round;stroke-linejoin:round;stroke-miterlimit:10;}
	
		.st6{display:inline;fill:#139BFF;stroke:#0032B8;stroke-width:2;stroke-linecap:round;stroke-linejoin:round;stroke-miterlimit:10;}
	.st7{display:inline;fill:#FFFFFF;stroke:#0032B8;stroke-width:2;stroke-miterlimit:10;}
	.st8{fill:#0032B8;}
	
		.st9{display:inline;fill:#0032B8;stroke:#0362E1;stroke-width:4;stroke-linecap:round;stroke-linejoin:round;stroke-miterlimit:10;}
	.st10{display:inline;fill:#0362E1;}
	
		.st11{display:inline;fill:#96E1FE;stroke:#0032B8;stroke-width:2;stroke-linecap:round;stroke-linejoin:round;stroke-miterlimit:10;}
	.st12{display:inline;fill:#139BFF;stroke:#0032B8;stroke-width:2;stroke-miterlimit:10;}
	.st13{display:inline;fill:none;stroke:#FFFFFF;stroke-width:4;stroke-linecap:round;stroke-linejoin:round;stroke-miterlimit:10;}
	.st14{display:inline;fill:none;stroke:#3FC6FF;stroke-width:2;stroke-linecap:round;stroke-miterlimit:10;}
	.st15{display:inline;fill:#D4DCFF;stroke:#0032B8;stroke-width:2;stroke-linejoin:round;stroke-miterlimit:10;}
	.st16{display:inline;fill:#FFFFFF;stroke:#0032B8;stroke-width:2;stroke-linejoin:round;stroke-miterlimit:10;}
	.st17{display:inline;fill:#0032B8;}
	.st18{display:inline;fill:#59ABFF;stroke:#0032B8;stroke-width:2;stroke-linejoin:round;stroke-miterlimit:10;}
	.st19{display:inline;fill:none;stroke:#FFFFFF;stroke-width:2;stroke-linecap:round;stroke-miterlimit:10;}
	.st20{display:inline;fill:none;stroke:#139BFF;stroke-width:2;stroke-linecap:round;stroke-miterlimit:10;}
	.st21{display:none;opacity:0.39;fill:#59ABFF;}
	.st22{opacity:0.39;fill:#59ABFF;}
</style>
<g id="Dashed-path" class="st0">
	<g class="st1">
		<g>
			<path class="st2" d="M104.2,151.9c-0.8,0.2-1.6,0.3-2.4,0.5"/>
			<path class="st3" d="M96.8,153.5c-22.7,5.1-45.2,12.8-55.3,21.3c-13.8,11.7-15.9,23.7,2.1,27.4"/>
			<path class="st2" d="M46.1,202.6c0.8,0.1,1.6,0.2,2.5,0.3"/>
		</g>
	</g>
	<path class="st4" d="M281.1,123.2c22.5-1.1,62.5-0.2,64.4,19.5c0.7,7-2,15.2-7.5,23.7"/>
	<path class="st4" d="M118.2,209c27.3,5.4,47.5,15.4,104,12c18-1.1,34.4-4.4,49-9.2"/>
</g>
<g id="Card" class="st0">
	<path class="st5" d="M295.3,179.5l-22.5,3.6l-144.1,23.2c-2.5,0.4-4.9-1-5.7-3.3l-18.8-51.1l-16.5-44.7c-1.1-3.1,2.4-11.8,5.7-12.4
		c-2.6,1-4,3.9-3,6.7l16.5,44.7l18.8,51.1c0.9,2.3,3.3,3.8,5.7,3.3l144.1-23.2l22.5-3.6c2.7-0.4,4.5-2.8,4.4-5.3l0,0
		C303.5,171.6,298.5,179,295.3,179.5z"/>
	<path class="st6" d="M302.4,168.5c0.1,2.5-1.7,4.9-4.4,5.3l-22.5,3.6l-144.1,23.2c-2.5,0.4-4.9-1-5.7-3.3l-18.8-51.1L99,125
		l177.1-28.5l7.8,21.1l13.8,37.6l4.3,11.8C302.2,167.4,302.4,167.9,302.4,168.5z"/>
	<path class="st7" d="M276.1,96.4L99,125l-8.7-23.5c-1-2.7,0.4-5.6,3-6.7c0.4-0.1,0.7-0.2,1.1-0.3L261,67.7c2.5-0.4,4.9,1,5.7,3.4
		L276.1,96.4z"/>
	<g class="st1">
		<g>
			<path class="st8" d="M111.6,113.7l-4.4-12.1l5.2-0.9c0.6-0.1,1.1-0.1,1.7,0.1c0.6,0.2,1.1,0.4,1.5,0.7c0.5,0.3,0.9,0.7,1.3,1.2
				c0.4,0.5,0.6,0.9,0.8,1.5c0.2,0.5,0.3,1,0.3,1.5c0,0.5-0.1,0.9-0.2,1.3c-0.2,0.4-0.4,0.7-0.7,1l4.2,4.1l-2.9,0.5l-3.6-3.5
				l-1.8,0.3l1.4,3.9L111.6,113.7z M111.9,106.9l2.5-0.4c0.2,0,0.4-0.1,0.5-0.3c0.1-0.2,0.2-0.4,0.2-0.6c0-0.3,0-0.6-0.1-0.9
				c-0.1-0.3-0.3-0.6-0.5-0.8c-0.2-0.2-0.4-0.4-0.7-0.5c-0.2-0.1-0.5-0.1-0.7-0.1l-2.4,0.4L111.9,106.9z"/>
			<path class="st8" d="M129.7,108.1l0.9,2.5l-8.1,1.3l-4.4-12.1l8-1.3l0.9,2.5l-5.3,0.9l0.8,2.4l4.6-0.8l0.8,2.3l-4.6,0.8l0.9,2.6
				L129.7,108.1z"/>
			<path class="st8" d="M136.1,100.6c0,0-0.2-0.1-0.4-0.2c-0.2-0.1-0.5-0.2-0.9-0.3s-0.7-0.2-1.1-0.2c-0.4,0-0.7,0-1.1,0
				c-0.5,0.1-0.8,0.2-1,0.4c-0.2,0.2-0.2,0.5-0.1,0.8c0.1,0.3,0.3,0.5,0.5,0.6c0.2,0.1,0.6,0.2,1,0.3s0.9,0.1,1.5,0.2
				c0.8,0.1,1.5,0.2,2.2,0.4c0.6,0.2,1.2,0.5,1.6,0.9c0.5,0.4,0.8,1,1.1,1.7c0.2,0.7,0.3,1.3,0.3,1.8c-0.1,0.5-0.2,1-0.6,1.3
				c-0.3,0.4-0.7,0.6-1.2,0.9c-0.5,0.2-1,0.4-1.5,0.5c-0.6,0.1-1.2,0.1-1.8,0.1c-0.6,0-1.3-0.1-1.9-0.2c-0.6-0.1-1.2-0.3-1.8-0.5
				l0.3-2.6c0.1,0.1,0.3,0.1,0.6,0.3c0.3,0.1,0.6,0.2,1.1,0.3c0.4,0.1,0.9,0.2,1.3,0.2c0.5,0.1,0.9,0.1,1.4,0c0.5-0.1,0.8-0.2,1-0.4
				c0.2-0.2,0.2-0.4,0.1-0.7c-0.1-0.3-0.3-0.5-0.6-0.6c-0.3-0.1-0.7-0.2-1.2-0.3c-0.5-0.1-1-0.1-1.6-0.2c-0.8-0.1-1.5-0.3-2-0.5
				c-0.6-0.2-1-0.5-1.4-0.9c-0.4-0.4-0.7-0.9-0.9-1.5c-0.3-0.9-0.4-1.6-0.2-2.3c0.2-0.6,0.5-1.2,1.1-1.6c0.5-0.4,1.2-0.7,2-0.8
				c0.6-0.1,1.1-0.1,1.7-0.1c0.5,0.1,1.1,0.1,1.6,0.3c0.5,0.1,1,0.3,1.4,0.4L136.1,100.6z"/>
			<path class="st8" d="M142.2,108.7l-4.4-12.1l2.7-0.4l4.4,12.1L142.2,108.7z"/>
			<path class="st8" d="M147.1,107.9l-4.4-12.1l4.3-0.7c1.3-0.2,2.4-0.1,3.5,0.3c1.1,0.4,2,1,2.7,1.9c0.8,0.8,1.3,1.8,1.7,2.9
				c0.4,1.2,0.6,2.3,0.4,3.3c-0.1,1-0.6,1.8-1.2,2.4c-0.7,0.6-1.6,1.1-2.8,1.2L147.1,107.9z M152.3,100.6c-0.3-0.7-0.6-1.3-1-1.8
				c-0.4-0.5-0.9-0.9-1.5-1.1c-0.6-0.2-1.2-0.3-1.8-0.2l-1.6,0.3l2.6,7.2l1.6-0.3c0.7-0.1,1.1-0.4,1.5-0.7c0.3-0.4,0.5-0.9,0.6-1.5
				C152.6,101.9,152.5,101.3,152.3,100.6z"/>
			<path class="st8" d="M166,102.2l0.9,2.5l-8.1,1.3l-4.4-12.1l8-1.3l0.9,2.5l-5.3,0.9l0.8,2.4l4.6-0.8l0.8,2.3l-4.6,0.8l0.9,2.6
				L166,102.2z"/>
			<path class="st8" d="M168.7,97l2.5,6.9l-2.7,0.4l-4.4-12.1l2.1-0.3l7.9,6.2l-2.6-7.1l2.7-0.4l4.4,12.1l-2.2,0.4L168.7,97z"/>
			<path class="st8" d="M177.9,96.3c-0.3-0.7-0.4-1.5-0.4-2.2c0-0.8,0.1-1.5,0.4-2.1c0.3-0.7,0.7-1.2,1.3-1.7s1.3-0.8,2.2-0.9
				c1.1-0.2,2.1-0.1,3.1,0.3c1,0.4,1.8,0.9,2.5,1.6l-1.5,1.9c-0.3-0.4-0.7-0.7-1-0.9c-0.4-0.2-0.8-0.3-1.1-0.4c-0.4,0-0.7,0-1.1,0
				c-0.5,0.1-0.9,0.3-1.2,0.5c-0.3,0.3-0.5,0.6-0.6,1c-0.1,0.4-0.2,0.8-0.1,1.3c0,0.5,0.1,0.9,0.3,1.3c0.2,0.5,0.4,0.9,0.7,1.4
				c0.3,0.4,0.7,0.8,1,1.1s0.8,0.5,1.3,0.7c0.4,0.1,0.9,0.2,1.4,0.1c0.3-0.1,0.6-0.2,0.9-0.3c0.3-0.2,0.5-0.4,0.7-0.7
				s0.3-0.7,0.3-1.1l2.7,1c0,0.6-0.2,1.2-0.6,1.7c-0.4,0.5-0.8,0.9-1.4,1.3c-0.6,0.3-1.2,0.5-1.8,0.7c-0.8,0.1-1.7,0.1-2.5-0.2
				c-0.8-0.2-1.6-0.6-2.3-1.1c-0.7-0.5-1.4-1.1-1.9-1.8C178.6,97.8,178.2,97,177.9,96.3z"/>
			<path class="st8" d="M199.3,96.7l0.9,2.5l-8.1,1.3l-4.4-12.1l8-1.3l0.9,2.5l-5.3,0.9l0.8,2.4l4.6-0.8l0.8,2.3l-4.6,0.8l0.9,2.6
				L199.3,96.7z"/>
			<path class="st8" d="M205.6,98.2l-4.4-12.1l4.9-0.8c0.6-0.1,1.1-0.1,1.6,0.1c0.5,0.2,1.1,0.4,1.5,0.7c0.5,0.3,0.9,0.7,1.3,1.2
				c0.4,0.5,0.6,0.9,0.8,1.5c0.2,0.7,0.3,1.4,0.2,2c-0.1,0.7-0.3,1.3-0.7,1.7c-0.4,0.5-1,0.8-1.7,0.9l-2.4,0.4l1.4,3.9L205.6,98.2z
				 M205.9,91.4l2.2-0.4c0.2,0,0.4-0.1,0.5-0.3c0.1-0.1,0.2-0.4,0.2-0.6c0-0.3,0-0.6-0.2-0.9c-0.1-0.4-0.3-0.7-0.5-0.9
				c-0.2-0.2-0.4-0.4-0.7-0.5s-0.4-0.1-0.7-0.1l-2.1,0.3L205.9,91.4z"/>
			<path class="st8" d="M222.9,92.8l0.9,2.5l-8.1,1.3l-4.4-12.1l8-1.3l0.9,2.5l-5.3,0.9l0.8,2.4l4.6-0.8l0.8,2.3l-4.6,0.8l0.9,2.6
				L222.9,92.8z"/>
			<path class="st8" d="M225.4,95l-4.4-12.1l5.2-0.9c0.6-0.1,1.1-0.1,1.7,0.1c0.6,0.2,1.1,0.4,1.5,0.7c0.5,0.3,0.9,0.7,1.3,1.2
				c0.4,0.5,0.6,0.9,0.8,1.5c0.2,0.5,0.3,1,0.3,1.5c0,0.5-0.1,0.9-0.2,1.3c-0.2,0.4-0.4,0.7-0.7,1l4.2,4.1l-2.9,0.5l-3.6-3.5
				l-1.8,0.3l1.4,3.9L225.4,95z M225.8,88.2l2.5-0.4c0.2,0,0.4-0.1,0.5-0.3c0.1-0.2,0.2-0.4,0.2-0.6c0-0.3,0-0.6-0.1-0.9
				c-0.1-0.3-0.3-0.6-0.5-0.8c-0.2-0.2-0.4-0.4-0.7-0.5c-0.2-0.1-0.5-0.1-0.7-0.1l-2.4,0.4L225.8,88.2z"/>
			<path class="st8" d="M245.4,91.7l-2.6-7.2l-0.6,5.7l-1.4,0.2l-4.4-4.8l2.6,7.2l-2.7,0.4L232,81.1l2.9-0.5l5.3,5.8l0.7-6.8
				l2.9-0.5l4.4,12.1L245.4,91.7z"/>
			<path class="st8" d="M250.3,90.8l-4.4-12.1l2.7-0.4l4.4,12.1L250.3,90.8z"/>
			<path class="st8" d="M260.5,78.9l-3.5,0.6l3.5,9.6l-2.7,0.4l-3.5-9.6l-3.5,0.6l-0.9-2.5l9.7-1.6L260.5,78.9z"/>
		</g>
	</g>
	<path class="st7" d="M281.4,163.7l-31.2,4.8c-2.3,0.4-4.5-1-5.3-3.1l-12.8-34.8c-1.1-2.9,0.8-6,3.8-6.5l31.2-4.8
		c2.3-0.4,4.5,1,5.3,3.1l12.8,34.8C286.3,160.1,284.4,163.2,281.4,163.7z"/>
	<line class="st9" x1="169.9" y1="127.6" x2="266.2" y2="112.3"/>
	<line class="st9" x1="174.3" y1="137.2" x2="223" y2="129.5"/>
	<line class="st9" x1="122.2" y1="155" x2="226.3" y2="138.5"/>
	<line class="st9" x1="125.9" y1="164.7" x2="229.4" y2="148.2"/>
	<line class="st9" x1="128.4" y1="174.1" x2="232.3" y2="157.5"/>
	<line class="st9" x1="132.2" y1="182.9" x2="236.1" y2="166.4"/>
	<path class="st1" d="M470.2,199.6c-0.2,1-0.4,1.8-0.6,2.3c-0.1,0.4-0.2,0.6-0.2,0.8l0.2-0.8L470.2,199.6z"/>
	<path class="st1" d="M580.2,201.9l0.2,0.8C580.3,202.5,580.3,202.3,580.2,201.9c-0.2-0.5-0.4-1.3-0.6-2.3L580.2,201.9z"/>
	<path class="st10" d="M275.7,149c-0.2,0.6-1.1,2.2-2.5,0.7c0.2,6.5,3,11.6,4,13.4l0,0.1c0.1,0.2,0.2,0.3,0.3,0.4l-20.7,3.2
		c0-0.1,0-0.2,0-0.4l0-0.1c-0.2-1.9-1-7.3-4.9-13.2c-0.3,1.8-2.2,0.6-2.7,0.1c-0.8-0.8-7.2-10.2-1.8-6.9c0.3,0.2,0.6-0.1,0.5-0.4
		c-1.5-4.1-3.1-9-3-9.8c0-0.9,0.9-6.9,9.8-8.3c8.9-1.4,13.6,3.8,14.1,4.6c0.5,0.7,2.4,5.8,3.6,9.9c0.1,0.3,0.5,0.3,0.6,0.1
		C275.6,137.6,275.9,148.1,275.7,149z"/>
</g>
<g id="Shield" class="st0">
	<path class="st11" d="M78.5,98.7v17.1c0,13.8-8.2,26.3-20.8,31.8l-3.6,1.6l-3.6-1.6c-12.6-5.5-20.8-18-20.8-31.8V98.7
		c12.2,0,24.4-5.9,24.4-5.9S68.1,98.7,78.5,98.7z"/>
	<path class="st12" d="M69.3,107.1v10.6c0,8.6-5.1,16.4-13,19.8l-2.2,1l-2.2-1c-7.9-3.4-13-11.2-13-19.8v-10.6
		c7.6,0,15.2-3.6,15.2-3.6S62.8,107.1,69.3,107.1z"/>
	<polyline class="st13" points="46.6,121.6 51.8,127.8 61.6,114.1 	"/>
</g>
<g id="GPS_Marker" class="st0">
	<path class="st5" d="M314.4,67.6c-9.6,0-17.3,7.8-17.3,17.3c0,15,17.3,27.1,17.3,27.1s17.3-12.2,17.3-27.1
		C331.7,75.4,324,67.6,314.4,67.6z M314.4,92c-4.6,0-8.4-3.8-8.4-8.4c0-4.7,3.8-8.4,8.4-8.4c4.6,0,8.4,3.8,8.4,8.4
		C322.8,88.3,319,92,314.4,92z"/>
	<path class="st14" d="M302.6,88.6c-0.7-1.5-1-3.2-1-5c0-7.1,5.7-12.8,12.8-12.8c1.4,0,2.8,0.2,4.1,0.7"/>
</g>
<g id="City" class="st0">
	<rect x="312" y="200.5" class="st15" width="12.5" height="25.5"/>
	<polygon class="st16" points="314.5,189.6 314.5,225.9 288.5,225.9 288.5,214.4 297.4,214.4 297.4,189.6 	"/>
	<polygon class="st16" points="341.6,177.2 341.6,226 334.2,226 334.2,225.9 320.8,225.9 320.8,177.2 	"/>
	<rect x="325.7" y="182.6" class="st17" width="3.9" height="7"/>
	<rect x="332.8" y="182.6" class="st17" width="3.9" height="7"/>
	<rect x="300.8" y="194.8" class="st17" width="3.9" height="7"/>
	<rect x="307.1" y="194.8" class="st17" width="3.9" height="7"/>
	<rect x="300.8" y="204.3" class="st17" width="3.9" height="7"/>
	<rect x="307.1" y="204.3" class="st17" width="3.9" height="7"/>
	<rect x="300.8" y="213.7" class="st17" width="3.9" height="7"/>
	<rect x="307.1" y="213.7" class="st17" width="3.9" height="7"/>
	<rect x="325.7" y="194.1" class="st17" width="3.9" height="7"/>
	<rect x="332.8" y="194.1" class="st17" width="3.9" height="7"/>
	<rect x="325.7" y="206.4" class="st17" width="3.9" height="7"/>
	<rect x="293.3" y="219" class="st18" width="3.9" height="7"/>
	<rect x="332.8" y="206.4" class="st17" width="3.9" height="7"/>
	<rect x="325.7" y="219.9" class="st18" width="10.9" height="6.1"/>
	<line class="st19" x1="33.2" y1="102.5" x2="33.2" y2="117"/>
</g>
<g id="Prints" class="st0">
	<g class="st1">
		
			<image style="overflow:visible;" width="127" height="133" xlink:href="ECA39FC6.png"  transform="matrix(1 0 0 1 19.723 142.6967)">
		</image>
	</g>
	<path class="st20" d="M60.6,200.7c1.9-8.2,7.2-17.1,21-18.5c15.5-1.6,22.2,9.7,24.6,21.8"/>
	<path class="st20" d="M105.4,219.5c-0.5,1.2-0.2,6.3-0.8,7.3"/>
	<path class="st20" d="M106.4,210.3c0,1.8-0.1,3.6-0.3,5.2"/>
	<path class="st20" d="M60,215.5c0,0-0.6-3.5-0.3-8.2"/>
	<path class="st20" d="M66.5,198.6c2.2-5.6,6.9-10.2,16.6-10.2c12,0,16.7,8.9,17.8,18.9"/>
	<path class="st20" d="M97.9,230.8c1.7-4.1,3.1-10.9,3.2-17.9"/>
	<path class="st20" d="M59.6,223.6c0,0,4.2-1.8,4.9-6.1c0.3-1.9-0.4-7.6,0.6-13.5"/>
	<path class="st20" d="M94.6,225.5c-0.9,3.8-2.2,7.2-3.9,9.7"/>
	<path class="st20" d="M64.2,228c0,0,4.6-3.4,5.5-8.9c0.9-5.4-1.5-25.2,13.9-25.2c11.2,0,14,15.9,11.7,29"/>
	<path class="st20" d="M82.9,238.9c0.4-3,2.3-5.7,5.4-14.6c0.4-1.2,0.7-2.4,1-3.6"/>
	<path class="st20" d="M69.7,232.6c0,0,6.4-6.9,6.6-16.9c0.1-10,1.3-16.1,6.9-16c5.6,0.1,6.1,4.3,6.1,4.3s1.1,5.5,0.7,11.9"/>
	<path class="st20" d="M83.5,205.7c0,0,1.3,6.7-0.9,17.1"/>
	<path class="st20" d="M74.6,237c0,0,3.6-3.6,6-8.6"/>
</g>
<g id="Stars">
	<path class="st21" d="M357.3,119.7l0.9,3c0.5,1.7,1.8,3,3.3,3.5l2.7,0.9l-2.7,0.9c-1.6,0.5-2.8,1.8-3.3,3.5l-0.9,3l-0.9-3
		c-0.5-1.7-1.8-3-3.3-3.5l-2.7-0.9l2.7-0.9c1.6-0.5,2.8-1.8,3.3-3.5L357.3,119.7z"/>
	<path class="st21" d="M316.2,149.1l0.6,2.2c0.4,1.2,1.3,2.2,2.4,2.6l1.9,0.6l-1.9,0.6c-1.1,0.4-2.1,1.3-2.4,2.6l-0.6,2.2l-0.6-2.2
		c-0.4-1.2-1.3-2.2-2.4-2.6l-1.9-0.6l1.9-0.6c1.1-0.4,2.1-1.3,2.4-2.6L316.2,149.1z"/>
	<path class="st21" d="M265,192.3l0.9,3c0.5,1.7,1.8,3,3.3,3.5l2.7,0.9l-2.7,0.9c-1.6,0.5-2.8,1.8-3.3,3.5l-0.9,3l-0.9-3
		c-0.5-1.7-1.8-3-3.3-3.5l-2.7-0.9l2.7-0.9c1.6-0.5,2.8-1.8,3.3-3.5L265,192.3z"/>
	<path class="st21" d="M140.9,245.9l0.7,2.3c0.4,1.3,1.4,2.3,2.6,2.7l2.1,0.7l-2.1,0.7c-1.2,0.4-2.2,1.4-2.6,2.7l-0.7,2.3l-0.7-2.3
		c-0.4-1.3-1.4-2.3-2.6-2.7l-2.1-0.7l2.1-0.7c1.2-0.4,2.2-1.4,2.6-2.7L140.9,245.9z"/>
	<path class="st21" d="M188.3,48.2l0.7,2.3c0.4,1.3,1.4,2.3,2.6,2.7l2.1,0.7l-2.1,0.7c-1.2,0.4-2.2,1.4-2.6,2.7l-0.7,2.3l-0.7-2.3
		c-0.4-1.3-1.4-2.3-2.6-2.7L183,54l2.1-0.7c1.2-0.4,2.2-1.4,2.6-2.7L188.3,48.2z"/>
	<path class="st22" d="M96.6,71l0.7,2.3c0.4,1.3,1.4,2.3,2.6,2.7l2.1,0.7l-2.1,0.7c-1.2,0.4-2.2,1.4-2.6,2.7l-0.7,2.3l-0.7-2.3
		c-0.4-1.3-1.4-2.3-2.6-2.7l-2.1-0.7l2.1-0.7c1.2-0.4,2.2-1.4,2.6-2.7L96.6,71z"/>
	<path class="st21" d="M57.6,70.8l0.8,2.7c0.5,1.5,1.6,2.8,3,3.2l2.4,0.8l-2.4,0.8c-1.4,0.5-2.6,1.7-3,3.2l-0.8,2.7l-0.8-2.7
		c-0.5-1.5-1.6-2.8-3-3.2l-2.4-0.8l2.4-0.8c1.4-0.5,2.6-1.7,3-3.2L57.6,70.8z"/>
	<path class="st21" d="M29.4,149.8l0.8,2.6c0.5,1.5,1.6,2.6,3.1,3l2.5,0.7l-2.5,0.7c-1.5,0.4-2.6,1.6-3.1,3l-0.8,2.6l-0.8-2.6
		c-0.5-1.5-1.6-2.6-3.1-3l-2.5-0.7l2.5-0.7c1.5-0.4,2.6-1.6,3.1-3L29.4,149.8z"/>
</g>
</svg>
