<?xml version="1.0" encoding="UTF-8"?>
<svg id="Residence_permit" data-name="Residence permit" xmlns="http://www.w3.org/2000/svg" viewBox="0 0 380.44 288.44">
  <defs>
    <style>
      .cls-1 {
        fill: none;
        stroke: #139bff;
        stroke-linecap: round;
        stroke-miterlimit: 10;
        stroke-width: 2px;
      }

      .cls-2 {
        fill: #96e1fe;
        opacity: .43;
        stroke-width: 0px;
      }
    </style>
  </defs>
  <g id="Prints">
    <ellipse class="cls-2" cx="79.54" cy="209.9" rx="31.67" ry="33.94"/>
    <path class="cls-1" d="M55.81,200.72c2.02-8.63,7.61-17.93,22.08-19.45,16.25-1.72,23.37,10.24,25.88,22.92"/>
    <path class="cls-1" d="M102.9,220.5c-.49,1.26-.2,6.64-.88,7.63"/>
    <path class="cls-1" d="M103.95,210.85c.01,1.89-.11,3.74-.35,5.5"/>
    <path class="cls-1" d="M55.16,216.3s-.6-3.64-.33-8.58"/>
    <path class="cls-1" d="M61.95,198.58c2.31-5.9,7.21-10.77,17.41-10.77,12.61,0,17.57,9.36,18.74,19.89"/>
    <path class="cls-1" d="M95.01,232.41c1.77-4.32,3.29-11.49,3.36-18.81"/>
    <path class="cls-1" d="M54.76,224.82s4.4-1.87,5.11-6.42c.3-1.98-.43-8.02.59-14.22"/>
    <path class="cls-1" d="M91.51,226.85c-.94,3.95-2.33,7.54-4.09,10.24"/>
    <path class="cls-1" d="M59.51,229.5s4.79-3.63,5.73-9.34c.94-5.73-1.52-26.51,14.6-26.51,11.8,0,14.71,16.67,12.25,30.46"/>
    <path class="cls-1" d="M79.25,240.93c.47-3.15,2.46-5.95,5.73-15.29.43-1.24.77-2.52,1.02-3.83"/>
    <path class="cls-1" d="M65.35,234.28s6.77-7.24,6.89-17.75c.12-10.51,1.4-16.93,7.23-16.81,5.84.12,6.43,4.48,6.43,4.48,0,0,1.11,5.79.73,12.45"/>
    <path class="cls-1" d="M79.84,206.02s1.32,7.02-.98,17.99"/>
    <path class="cls-1" d="M70.49,238.96s3.77-3.78,6.35-9.06"/>
  </g>
</svg>