<?xml version="1.0" encoding="UTF-8"?>
<svg id="Residence_permit" data-name="Residence permit" xmlns="http://www.w3.org/2000/svg" viewBox="0 0 380.44 288.44">
  <defs>
    <style>
      .cls-1 {
        fill: #fff;
      }

      .cls-1, .cls-2, .cls-3, .cls-4 {
        stroke-width: 2px;
      }

      .cls-1, .cls-2, .cls-4 {
        stroke: #0032b8;
        stroke-linejoin: round;
      }

      .cls-2 {
        fill: #d4dcff;
      }

      .cls-3 {
        fill: none;
        stroke: #fff;
        stroke-linecap: round;
        stroke-miterlimit: 10;
      }

      .cls-5 {
        fill: #0032b8;
        stroke-width: 0px;
      }

      .cls-4 {
        fill: #59abff;
      }
    </style>
  </defs>
  <g id="City">
    <rect class="cls-2" x="320.02" y="200.54" width="13.13" height="26.76"/>
    <polygon class="cls-1" points="322.63 189.06 322.63 227.3 295.32 227.3 295.32 215.13 304.61 215.13 304.61 189.06 322.63 189.06"/>
    <polygon class="cls-1" points="351.04 176.09 351.04 227.31 343.26 227.31 343.26 227.3 329.2 227.3 329.2 176.09 351.04 176.09"/>
    <rect class="cls-5" x="334.39" y="181.74" width="4.05" height="7.32"/>
    <rect class="cls-5" x="341.78" y="181.74" width="4.05" height="7.32"/>
    <rect class="cls-5" x="308.16" y="194.62" width="4.05" height="7.32"/>
    <rect class="cls-5" x="314.83" y="194.62" width="4.05" height="7.32"/>
    <rect class="cls-5" x="308.16" y="204.52" width="4.05" height="7.32"/>
    <rect class="cls-5" x="314.83" y="204.52" width="4.05" height="7.32"/>
    <rect class="cls-5" x="308.16" y="214.42" width="4.05" height="7.32"/>
    <rect class="cls-5" x="314.83" y="214.42" width="4.05" height="7.32"/>
    <rect class="cls-5" x="334.39" y="193.84" width="4.05" height="7.32"/>
    <rect class="cls-5" x="341.78" y="193.84" width="4.05" height="7.32"/>
    <rect class="cls-5" x="334.39" y="206.77" width="4.05" height="7.32"/>
    <rect class="cls-4" x="300.29" y="219.98" width="4.05" height="7.32"/>
    <rect class="cls-5" x="341.78" y="206.77" width="4.05" height="7.32"/>
    <rect class="cls-4" x="334.39" y="220.95" width="11.44" height="6.36"/>
    <line class="cls-3" x1="26.94" y1="97.55" x2="26.94" y2="112.84"/>
  </g>
</svg>