<?xml version="1.0" encoding="UTF-8"?>
<svg id="Residence_permit" data-name="Residence permit" xmlns="http://www.w3.org/2000/svg" viewBox="0 0 380.44 288.44">
  <defs>
    <style>
      .cls-1, .cls-2 {
        fill: #0362e1;
      }

      .cls-1, .cls-3, .cls-4 {
        stroke: #0032b8;
        stroke-width: 2px;
      }

      .cls-1, .cls-5, .cls-4 {
        stroke-linecap: round;
        stroke-linejoin: round;
      }

      .cls-2, .cls-6 {
        stroke-width: 0px;
      }

      .cls-3 {
        fill: #fff;
        stroke-miterlimit: 10;
      }

      .cls-5 {
        stroke: #0362e1;
        stroke-width: 4px;
      }

      .cls-5, .cls-6 {
        fill: #0032b8;
      }

      .cls-4 {
        fill: #139bff;
      }
    </style>
  </defs>
  <g id="Card">
    <path class="cls-1" d="M302.39,178.49l-23.62,3.8-151.42,24.41c-2.59.42-5.11-1.06-6.02-3.52l-19.79-53.68-17.33-46.99c-1.2-3.25,2.55-12.43,5.96-12.99-2.69,1.07-4.16,4.14-3.11,7l17.33,46.99,19.79,53.68c.91,2.46,3.44,3.94,6.02,3.52l151.42-24.41,23.62-3.8c2.81-.45,4.7-2.92,4.6-5.6h.01c1.2,3.26-4.06,11.05-7.46,11.59Z"/>
    <path class="cls-4" d="M309.84,166.9c.09,2.68-1.8,5.15-4.6,5.6l-23.62,3.8-151.42,24.41c-2.59.42-5.11-1.06-6.02-3.52l-19.79-53.68-8.23-22.32,186.07-29.98,8.16,22.12,14.56,39.49,4.56,12.36c.21.57.33,1.16.34,1.71Z"/>
    <path class="cls-3" d="M282.23,91.21l-186.07,29.98-9.1-24.66c-1.05-2.86.42-5.93,3.11-7,.37-.15.76-.26,1.17-.33l175.03-28.21c2.6-.42,5.12,1.05,6.02,3.52l9.85,26.69Z"/>
    <g>
      <path class="cls-6" d="M109.34,109.38l-4.59-12.72,5.45-.9c.58-.1,1.16-.06,1.74.11.58.17,1.12.43,1.61.78.49.35.93.76,1.32,1.24.39.48.67.99.87,1.53.19.51.28,1.02.29,1.53,0,.5-.07.97-.23,1.38-.16.42-.4.78-.71,1.09l4.37,4.29-3.09.51-3.8-3.72-1.9.31,1.48,4.1-2.8.46ZM109.73,102.24l2.58-.43c.22-.04.39-.14.51-.31.13-.17.2-.4.22-.68.02-.28-.03-.59-.15-.92-.13-.36-.31-.65-.53-.89-.22-.23-.46-.41-.71-.52-.25-.11-.48-.15-.68-.11l-2.48.41,1.25,3.46Z"/>
      <path class="cls-6" d="M128.39,103.51l.93,2.58-8.53,1.41-4.59-12.72,8.38-1.38.93,2.58-5.57.92.89,2.47,4.79-.79.86,2.38-4.79.79.98,2.71,5.73-.94Z"/>
      <path class="cls-6" d="M135.07,95.61s-.2-.1-.46-.2c-.26-.1-.57-.2-.92-.29-.35-.09-.73-.16-1.13-.2-.4-.04-.78-.03-1.15.03-.48.08-.82.23-1.02.45-.2.22-.24.5-.11.85.1.27.28.48.54.62.26.14.6.24,1.02.3.42.06.93.13,1.54.19.86.1,1.62.25,2.3.46.68.21,1.25.52,1.73.95.47.42.85,1.03,1.13,1.81.25.7.35,1.32.28,1.86-.06.54-.26,1-.59,1.38s-.74.67-1.23.9c-.49.23-1.03.39-1.61.48-.59.1-1.22.13-1.89.1-.67-.03-1.33-.12-1.99-.26-.66-.15-1.28-.33-1.87-.56l.28-2.78c.08.06.28.15.58.26.31.11.68.23,1.11.34.43.11.9.2,1.41.26.5.06.99.05,1.44-.02.51-.08.86-.23,1.05-.44.18-.21.22-.46.12-.75-.11-.31-.33-.53-.65-.67-.32-.14-.73-.25-1.22-.33-.49-.08-1.05-.15-1.68-.22-.83-.13-1.54-.3-2.13-.51-.59-.21-1.08-.51-1.47-.9-.39-.39-.7-.9-.92-1.52-.33-.9-.4-1.69-.21-2.37.18-.68.56-1.23,1.13-1.66.57-.43,1.26-.71,2.07-.84.58-.1,1.16-.11,1.74-.06.58.06,1.14.15,1.68.29.54.14,1.03.29,1.45.46l-.35,2.6Z"/>
      <path class="cls-6" d="M141.54,104.07l-4.59-12.72,2.8-.46,4.59,12.72-2.8.46Z"/>
      <path class="cls-6" d="M146.67,103.22l-4.59-12.72,4.53-.75c1.33-.22,2.55-.12,3.66.3,1.1.42,2.05,1.07,2.85,1.96.8.89,1.41,1.92,1.83,3.09.46,1.29.62,2.45.46,3.49-.16,1.04-.59,1.9-1.31,2.57-.72.67-1.68,1.11-2.9,1.31l-4.53.75ZM152.09,95.57c-.27-.74-.63-1.37-1.08-1.9-.46-.53-.98-.91-1.57-1.14-.59-.24-1.23-.3-1.9-.19l-1.73.28,2.73,7.56,1.73-.28c.68-.11,1.2-.37,1.56-.78.35-.41.55-.92.59-1.54.04-.62-.07-1.29-.33-2Z"/>
      <path class="cls-6" d="M166.51,97.22l.93,2.58-8.53,1.41-4.59-12.72,8.38-1.38.93,2.58-5.57.92.89,2.47,4.79-.79.86,2.38-4.79.79.98,2.71,5.73-.94Z"/>
      <path class="cls-6" d="M169.32,91.76l2.63,7.29-2.8.46-4.59-12.72,2.22-.37,8.32,6.56-2.7-7.49,2.79-.46,4.59,12.72-2.27.38-8.19-6.37Z"/>
      <path class="cls-6" d="M179.08,91.01c-.28-.76-.42-1.54-.42-2.33,0-.79.15-1.54.46-2.24.31-.7.77-1.3,1.39-1.79.62-.49,1.4-.81,2.35-.97,1.14-.19,2.22-.09,3.24.28,1.02.38,1.89.94,2.61,1.7l-1.6,1.95c-.33-.43-.7-.74-1.09-.95s-.79-.33-1.19-.37c-.39-.04-.76-.04-1.11.02-.53.09-.95.27-1.27.56-.32.29-.54.64-.67,1.05-.13.41-.18.86-.14,1.33.03.47.13.93.29,1.38.19.51.44.99.76,1.43.32.44.69.82,1.09,1.13.41.31.85.54,1.32.69.47.14.95.18,1.44.09.34-.06.67-.17.98-.34.31-.17.57-.41.78-.73s.31-.7.32-1.15l2.82,1.05c-.03.66-.23,1.26-.62,1.79-.39.53-.88.97-1.48,1.32-.6.35-1.24.57-1.93.69-.88.14-1.75.09-2.61-.17-.87-.26-1.68-.65-2.44-1.19-.76-.54-1.43-1.17-2-1.91-.57-.73-1-1.51-1.3-2.32Z"/>
      <path class="cls-6" d="M201.48,91.45l.93,2.58-8.53,1.41-4.59-12.72,8.38-1.38.93,2.58-5.57.92.89,2.47,4.79-.79.86,2.38-4.79.79.98,2.71,5.73-.94Z"/>
      <path class="cls-6" d="M208.1,93.09l-4.59-12.72,5.18-.85c.58-.1,1.16-.06,1.73.11.57.17,1.11.43,1.61.78.51.35.95.76,1.33,1.24.38.48.67.99.86,1.53.26.72.34,1.43.26,2.15-.08.72-.34,1.33-.77,1.83-.43.51-1.03.82-1.8.95l-2.48.41,1.48,4.1-2.8.46ZM208.49,85.95l2.29-.38c.22-.04.39-.13.52-.29.13-.15.21-.37.23-.65.02-.28-.04-.61-.17-.98-.15-.41-.33-.73-.55-.96-.22-.24-.45-.4-.69-.48-.24-.09-.47-.11-.69-.08l-2.19.36,1.25,3.46Z"/>
      <path class="cls-6" d="M226.35,87.35l.93,2.58-8.53,1.41-4.59-12.72,8.38-1.38.93,2.58-5.57.92.89,2.47,4.79-.79.86,2.38-4.79.79.98,2.71,5.73-.94Z"/>
      <path class="cls-6" d="M228.99,89.64l-4.59-12.72,5.45-.9c.58-.1,1.16-.06,1.74.11.58.17,1.12.43,1.61.78.49.35.93.76,1.32,1.24.38.48.67.99.87,1.53.19.51.28,1.02.29,1.53,0,.5-.07.97-.23,1.38s-.4.78-.71,1.08l4.37,4.29-3.09.51-3.8-3.72-1.9.31,1.48,4.1-2.8.46ZM229.38,82.5l2.58-.43c.22-.04.39-.14.51-.31.12-.17.2-.4.22-.68.02-.28-.03-.59-.15-.92-.13-.36-.31-.65-.53-.89-.22-.23-.46-.41-.71-.52-.25-.11-.48-.15-.69-.11l-2.48.41,1.25,3.46Z"/>
      <path class="cls-6" d="M250.01,86.17l-2.74-7.59-.64,5.95-1.52.25-4.6-5.08,2.74,7.59-2.8.46-4.59-12.72,3.04-.5,5.54,6.13.75-7.16,3.04-.5,4.59,12.72-2.8.46Z"/>
      <path class="cls-6" d="M255.14,85.33l-4.59-12.72,2.8-.46,4.59,12.72-2.8.46Z"/>
      <path class="cls-6" d="M265.86,72.82l-3.69.61,3.66,10.14-2.8.46-3.66-10.14-3.71.61-.93-2.58,10.21-1.68.93,2.58Z"/>
    </g>
    <path class="cls-3" d="M287.81,161.89l-32.78,5.09c-2.4.37-4.73-1-5.56-3.28l-13.48-36.55c-1.1-3.02.83-6.29,4-6.78l32.78-5.09c2.4-.37,4.73,1,5.56,3.28l13.48,36.55c1.1,3.02-.83,6.29-4,6.78Z"/>
    <line class="cls-5" x1="170.66" y1="123.96" x2="271.87" y2="107.85"/>
    <line class="cls-5" x1="175.24" y1="134.07" x2="226.46" y2="125.92"/>
    <line class="cls-5" x1="120.52" y1="152.78" x2="229.95" y2="135.37"/>
    <line class="cls-5" x1="124.39" y1="162.93" x2="233.12" y2="145.63"/>
    <line class="cls-5" x1="127.03" y1="172.79" x2="236.22" y2="155.42"/>
    <line class="cls-5" x1="131.01" y1="182.08" x2="240.2" y2="164.71"/>
    <path class="cls-2" d="M281.81,146.42c-.16.65-1.12,2.33-2.63.76.21,6.81,3.14,12.23,4.24,14.04l.04.07c.11.18.2.32.26.42l-21.79,3.36c0-.11-.01-.26-.03-.45v-.07c-.18-1.95-1.02-7.7-5.21-13.89-.36,1.86-2.3.63-2.86.09-.83-.79-7.56-10.71-1.93-7.28.29.18.64-.1.52-.42-1.58-4.31-3.21-9.48-3.2-10.33.01-.92.9-7.3,10.27-8.75,9.37-1.45,14.27,4.04,14.87,4.87.57.78,2.47,6.07,3.82,10.45.09.29.48.33.64.06,2.89-4.88,3.21,6.11,2.97,7.07Z"/>
  </g>
</svg>