<?xml version="1.0" encoding="UTF-8"?>
<svg id="Residence_permit" data-name="Residence permit" xmlns="http://www.w3.org/2000/svg" viewBox="0 0 380.44 288.44">
  <defs>
    <style>
      .cls-1 {
        fill: none;
        stroke: #139bff;
        stroke-linecap: round;
        stroke-miterlimit: 10;
        stroke-width: 2px;
      }

      .cls-2 {
        fill: #96e1fe;
        opacity: .43;
        stroke-width: 0px;
      }
    </style>
  </defs>
  <g id="Prints">
    <g>
      <ellipse class="cls-2" cx="57.21" cy="209.05" rx="26.87" ry="28.8"/>
      <path class="cls-1" d="M37.08,201.26c1.71-7.32,6.46-15.21,18.73-16.51,13.79-1.46,19.83,8.68,21.96,19.45"/>
      <path class="cls-1" d="M77.03,218.05c-.42,1.07-.17,5.64-.74,6.47"/>
      <path class="cls-1" d="M77.92,209.86c0,1.61-.09,3.17-.29,4.66"/>
      <path class="cls-1" d="M36.53,214.48s-.51-3.09-.28-7.28"/>
      <path class="cls-1" d="M42.29,199.45c1.96-5,6.12-9.14,14.78-9.14,10.7,0,14.91,7.94,15.9,16.88"/>
      <path class="cls-1" d="M70.34,228.15c1.5-3.66,2.79-9.75,2.85-15.96"/>
      <path class="cls-1" d="M36.19,221.71s3.74-1.59,4.33-5.45c.26-1.68-.37-6.8.5-12.06"/>
      <path class="cls-1" d="M67.37,223.43c-.79,3.35-1.98,6.39-3.47,8.68"/>
      <path class="cls-1" d="M40.22,225.68s4.07-3.08,4.86-7.93c.79-4.86-1.29-22.5,12.39-22.5,10.01,0,12.48,14.14,10.4,25.84"/>
      <path class="cls-1" d="M56.96,235.38c.4-2.68,2.09-5.05,4.86-12.97.37-1.05.65-2.14.86-3.25"/>
      <path class="cls-1" d="M45.18,229.74s5.74-6.14,5.85-15.06c.1-8.92,1.19-14.37,6.13-14.27,4.96.1,5.46,3.8,5.46,3.8,0,0,.95,4.91.62,10.57"/>
      <path class="cls-1" d="M57.46,205.76s1.12,5.96-.83,15.27"/>
      <path class="cls-1" d="M49.54,233.7s3.2-3.21,5.39-7.69"/>
    </g>
  </g>
</svg>