<?xml version="1.0" encoding="UTF-8"?>
<svg id="Residence_permit" data-name="Residence permit" xmlns="http://www.w3.org/2000/svg" viewBox="0 0 380.44 288.44">
  <defs>
    <style>
      .cls-1 {
        fill: #0362e1;
        stroke: #0032b8;
        stroke-linejoin: round;
      }

      .cls-1, .cls-2 {
        stroke-linecap: round;
        stroke-width: 2px;
      }

      .cls-2 {
        fill: none;
        stroke: #3fc6ff;
        stroke-miterlimit: 10;
      }
    </style>
  </defs>
  <g id="GPS_Marker" data-name="GPS Marker">
    <path class="cls-1" d="M322.48,60.92c-10.07,0-18.22,8.16-18.22,18.21,0,15.72,18.22,28.49,18.22,28.49,0,0,18.21-12.77,18.21-28.49,0-10.06-8.16-18.21-18.21-18.21ZM322.48,86.57c-4.89,0-8.84-3.96-8.84-8.84s3.95-8.84,8.84-8.84,8.83,3.95,8.83,8.84-3.95,8.84-8.83,8.84Z"/>
    <path class="cls-2" d="M310.08,83.01c-.69-1.62-1.07-3.4-1.07-5.28,0-7.44,6.02-13.47,13.47-13.47,1.5,0,2.95.24,4.31.7"/>
  </g>
</svg>