<?xml version="1.0" encoding="utf-8"?>
<!-- Generator: Adobe Illustrator 28.1.0, SVG Export Plug-In . SVG Version: 6.00 Build 0)  -->
<svg version="1.1" xmlns="http://www.w3.org/2000/svg" xmlns:xlink="http://www.w3.org/1999/xlink" x="0px" y="0px"
	 viewBox="0 0 50 50" style="enable-background:new 0 0 50 50;" xml:space="preserve">
<style type="text/css">
	.st0{display:none;}
	.st1{fill:#1A6EFF;}
	.st2{fill:none;stroke:#1A6EFF;stroke-width:3;stroke-linejoin:round;stroke-miterlimit:10;}
	.st3{fill:none;stroke:#1A6EFF;stroke-width:2.5;stroke-linecap:round;stroke-linejoin:round;stroke-miterlimit:10;}
	.st4{fill:none;stroke:#1A6EFF;stroke-width:3;stroke-linecap:round;stroke-linejoin:round;stroke-miterlimit:10;}
	.st5{fill:#FFFFFF;stroke:#1A6EFF;stroke-width:3;stroke-linejoin:round;stroke-miterlimit:10;}
	.st6{fill:#1A6EFF;stroke:#1A6EFF;stroke-linejoin:round;stroke-miterlimit:10;}
	.st7{fill:none;stroke:#1A6EFF;stroke-width:3;stroke-miterlimit:10;}
</style>
<g id="back" class="st0">
</g>
<g id="Shield">
	<path class="st1" d="M36-48.1c-5.2,1.5-10.8,1.5-16-0.3c-5.2,1.7-10.8,1.8-16,0.3l-1-0.3v14.6c0,11.1,7.1,20.6,17,24.2
		c9.9-3.6,17-13.1,17-24.2v-14.6L36-48.1z M31-32.1c0,7.2-4.6,13.4-11,15.7c-6.4-2.3-11-8.5-11-15.7v-9.5l0.6,0.2
		c3.4,1,7,0.9,10.4-0.2c3.4,1.1,7,1.2,10.4,0.2l0.6-0.2V-32.1z"/>
</g>
<g id="Exclusive_IT">
	<rect x="138" y="-18" class="st1" width="18" height="4"/>
	<polygon class="st1" points="140,-36 140,-31.4 139.5,-31.2 118,-21.4 118,-26.4 134,-33.7 118,-41 118,-46 139.5,-36.2 	"/>
</g>
<g id="LLS__x26__SP">
	<g>
		<polygon class="st2" points="203.6,-40.8 203.6,-9.5 173.2,-9.5 173.2,-50.5 195.2,-50.5 195.2,-40.8 		"/>
		<line class="st3" x1="178.7" y1="-28.9" x2="198.1" y2="-28.9"/>
		<line class="st3" x1="178.7" y1="-34.3" x2="198.1" y2="-34.3"/>
		<line class="st3" x1="178.7" y1="-42.9" x2="189.4" y2="-42.9"/>
		<path class="st3" d="M189.4-39.7"/>
		<path class="st3" d="M178.7-39.7"/>
		<line class="st3" x1="178.7" y1="-23.5" x2="198.1" y2="-23.5"/>
		<line class="st3" x1="178.7" y1="-18.1" x2="198.1" y2="-18.1"/>
		<polygon class="st4" points="203.6,-41.7 203.6,-40.8 195.2,-40.8 195.2,-50.5 195.7,-50.5 		"/>
	</g>
</g>
<g id="Ready-made_companies">
	<rect id="Main_Building" x="16.5" y="5.5" class="st5" width="18" height="39"/>
	<rect id="Secondary_Building" x="35.3" y="22.5" class="st5" width="10.2" height="22"/>
	
		<rect id="Secondary_Building_00000145025641933129799070000005152112036950290326_" x="6.3" y="14.5" class="st5" width="10.2" height="30"/>
	<rect x="20.5" y="11" class="st6" width="3" height="4"/>
	<rect x="27.5" y="11" class="st6" width="3" height="4"/>
	<rect x="20.5" y="19" class="st6" width="3" height="4"/>
	<rect x="10.5" y="19" class="st6" width="2" height="4"/>
	<rect x="10.5" y="26.5" class="st6" width="2" height="4"/>
	<rect x="39.5" y="27.5" class="st6" width="2" height="4"/>
	<rect x="27.5" y="19" class="st6" width="3" height="4"/>
	<rect x="20.5" y="27" class="st6" width="3" height="4"/>
	<rect x="23.5" y="35" class="st6" width="4" height="8"/>
	<rect x="27.5" y="27" class="st6" width="3" height="4"/>
</g>
<g id="Check">
	<path class="st1" d="M-90-51c-11.6,0-21,9.4-21,21c0,11.6,9.4,21,21,21s21-9.4,21-21C-69-41.6-78.4-51-90-51z M-92.3-17l-14-12.9
		l4.1-4.4l9.6,8.8l13.5-14.7l4.4,4.1L-92.3-17z"/>
</g>
<g id="Rocket">
	<path class="st1" d="M-57.5-7.4l2.8-10.4l0,0c1.2-4.6,7-6.2,10.4-2.8l0,0l0,0c3.4,3.4,1.8,9.1-2.8,10.4l0,0L-57.5-7.4z"/>
	<path class="st1" d="M-14-51l-0.7,0c-8.7-0.1-17.1,3.4-23,9.8l-1.2,1.3c-1.2,0-4.1,0.2-8.2,1.7c-5.5,2-8.8,6.3-8.8,6.3l8.5,1.2
		l-1.4,1.5l12.9,12.8l1.5-1.3l0.1,0.2l1,8.5c0,0,4.3-3.2,6.4-8.6c1.8-4.7,1.9-7.9,1.9-8.7l0.9-0.8C-17.3-33.2-13.7-42-14-51z
		 M-26.4-34.1c-2.5,0-4.6-2.1-4.6-4.6s2.1-4.6,4.6-4.6s4.6,2.1,4.6,4.6S-23.8-34.1-26.4-34.1z"/>
</g>
<g id="Branches">
	<g>
		<g>
			<circle class="st1" cx="66" cy="-45" r="7"/>
			<circle class="st1" cx="66" cy="-13" r="7"/>
			<circle class="st1" cx="95" cy="-45" r="7"/>
			<line class="st7" x1="66" y1="-45" x2="66" y2="-11.5"/>
		</g>
		<path class="st7" d="M66-13h20.8c4.5,0,8.2-3.7,8.2-8.2V-45"/>
	</g>
</g>
</svg>
