<?xml version="1.0" encoding="utf-8"?>
<!-- Generator: Adobe Illustrator 28.1.0, SVG Export Plug-In . SVG Version: 6.00 Build 0)  -->
<svg version="1.1" xmlns="http://www.w3.org/2000/svg" xmlns:xlink="http://www.w3.org/1999/xlink" x="0px" y="0px"
	 viewBox="0 0 50 50" style="enable-background:new 0 0 50 50;" xml:space="preserve">
<style type="text/css">
	.st0{display:none;}
	.st1{fill:#1A6EFF;}
	.st2{fill:#FFFFFF;stroke:#1A6EFF;stroke-width:4;stroke-linejoin:round;stroke-miterlimit:10;}
	.st3{fill:none;stroke:#1A6EFF;stroke-width:4;stroke-linecap:round;stroke-linejoin:round;stroke-miterlimit:10;}
	.st4{fill:none;stroke:#1A6EFF;stroke-width:3;stroke-linecap:round;stroke-linejoin:round;stroke-miterlimit:10;}
	.st5{fill:#FFFFFF;stroke:#1A6EFF;stroke-width:4;stroke-linecap:round;stroke-linejoin:round;stroke-miterlimit:10;}
	.st6{fill:#FFFFFF;}
	.st7{fill:none;stroke:#1A6EFF;stroke-width:3.5;stroke-linejoin:round;stroke-miterlimit:10;}
	.st8{fill:none;stroke:#1A6EFF;stroke-width:3.5;stroke-linecap:round;stroke-linejoin:round;stroke-miterlimit:10;}
	.st9{fill:#FFFFFF;stroke:#1A6EFF;stroke-width:3;stroke-linejoin:round;stroke-miterlimit:10;}
	.st10{fill:#1A6EFF;stroke:#1A6EFF;stroke-linejoin:round;stroke-miterlimit:10;}
	.st11{fill:none;stroke:#1A6EFF;stroke-width:3;stroke-miterlimit:10;}
	.st12{fill:#FFFFFF;stroke:#1A6EFF;stroke-width:4;stroke-miterlimit:10;}
	.st13{fill:none;stroke:#1A6EFF;stroke-width:4;stroke-miterlimit:10;}
</style>
<g id="back" class="st0">
</g>
<g id="Shield">
	<path class="st1" d="M36-55.1c-5.2,1.5-10.8,1.5-16-0.3c-5.2,1.7-10.8,1.8-16,0.3l-1-0.3v14.6c0,11.1,7.1,20.6,17,24.2
		c9.9-3.6,17-13.1,17-24.2v-14.6L36-55.1z M31-39.1c0,7.2-4.6,13.4-11,15.7c-6.4-2.3-11-8.5-11-15.7v-9.5l0.6,0.2
		c3.4,1,7,0.9,10.4-0.2c3.4,1.1,7,1.2,10.4,0.2l0.6-0.2V-39.1z"/>
</g>
<g id="Exclusive_IT">
	<rect x="138" y="-25" class="st1" width="18" height="4"/>
	<polygon class="st1" points="140,-43 140,-38.4 139.5,-38.2 118,-28.4 118,-33.4 134,-40.7 118,-48 118,-53 139.5,-43.2 	"/>
</g>
<g id="LLS__x26__SP">
	<g>
		<polygon class="st2" points="-18.8,-108.5 -18.8,-78 -48.5,-78 -48.5,-118 -27,-118 -27,-108.5 		"/>
		<line class="st3" x1="-41.2" y1="-101" x2="-26" y2="-101"/>
		<line class="st3" x1="-41.2" y1="-110" x2="-33" y2="-110"/>
		<path class="st4" d="M-24.6-102"/>
		<path class="st4" d="M-42.6-102"/>
		<path class="st3" d="M-32.7-107"/>
		<path class="st3" d="M-42.6-107"/>
		<line class="st3" x1="-41.2" y1="-94" x2="-26" y2="-94"/>
		<line class="st3" x1="-41.2" y1="-87" x2="-26" y2="-87"/>
		<polygon class="st5" points="-18.8,-109.4 -18.8,-108.5 -27,-108.5 -27,-118 -26.5,-118 		"/>
	</g>
</g>
<g id="Accounting">
	<g>
		<g>
			<path class="st6" d="M53.6-77c-2,0-3.6-1.6-3.6-3.6v-34.9c0-2,1.6-3.6,3.6-3.6h24.9c2,0,3.6,1.6,3.6,3.6v34.9
				c0,2-1.6,3.6-3.6,3.6H53.6z"/>
			<path class="st1" d="M78.4-117c0.9,0,1.6,0.7,1.6,1.6v34.9c0,0.9-0.7,1.6-1.6,1.6H53.6c-0.9,0-1.6-0.7-1.6-1.6v-34.9
				c0-0.9,0.7-1.6,1.6-1.6H78.4 M78.4-121H53.6c-3.1,0-5.6,2.5-5.6,5.6v34.9c0,3.1,2.5,5.6,5.6,5.6h24.9c3.1,0,5.6-2.5,5.6-5.6
				v-34.9C84-118.5,81.5-121,78.4-121L78.4-121z"/>
		</g>
		<circle class="st1" cx="58" cy="-101" r="2.5"/>
		<circle class="st1" cx="66" cy="-101" r="2.5"/>
		<circle class="st1" cx="74" cy="-101" r="2.5"/>
		<circle class="st1" cx="58" cy="-93" r="2.5"/>
		<circle class="st1" cx="66" cy="-93" r="2.5"/>
		<path class="st1" d="M76.5-93v8c0,1.4-1.1,2.5-2.5,2.5s-2.5-1.1-2.5-2.5v-8c0-1.4,1.1-2.5,2.5-2.5S76.5-94.4,76.5-93z"/>
		<circle class="st1" cx="58" cy="-85" r="2.5"/>
		<circle class="st1" cx="66" cy="-85" r="2.5"/>
		<path class="st1" d="M76.1-106H55.9c-0.5,0-0.9-0.4-0.9-0.9v-6.1c0-0.5,0.4-0.9,0.9-0.9h20.1c0.5,0,0.9,0.4,0.9,0.9v6.1
			C77-106.4,76.6-106,76.1-106z"/>
	</g>
</g>
<g id="Bank_Card">
	<g>
		<path class="st6" d="M8.2,40C6.5,40,5,38.5,5,36.8V14.2C5,12.5,6.5,11,8.2,11h33.5c1.8,0,3.2,1.5,3.2,3.2v22.5
			c0,1.8-1.5,3.2-3.2,3.2H8.2z"/>
		<path class="st1" d="M41.8,13c0.7,0,1.2,0.6,1.2,1.2v22.5c0,0.7-0.6,1.2-1.2,1.2H8.2C7.6,38,7,37.4,7,36.8V14.2
			C7,13.6,7.6,13,8.2,13H41.8 M41.8,9H8.2C5.4,9,3,11.4,3,14.2v22.5C3,39.6,5.4,42,8.2,42h33.5c2.9,0,5.2-2.4,5.2-5.2V14.2
			C47,11.4,44.6,9,41.8,9L41.8,9z"/>
	</g>
	<g>
		<line class="st7" x1="7" y1="19" x2="43" y2="19"/>
	</g>
	<g>
		<line class="st7" x1="7" y1="17" x2="43" y2="17"/>
	</g>
	<path class="st1" d="M41,32.4c0,1.9-1.5,3.4-3.4,3.4c-1,0-1.9-0.5-2.6-1.2c-0.6,0.7-1.5,1.2-2.6,1.2c-1.9,0-3.4-1.5-3.4-3.4
		c0-1.9,1.5-3.4,3.4-3.4c1,0,1.9,0.5,2.6,1.2c0.6-0.7,1.5-1.2,2.6-1.2C39.5,29,41,30.5,41,32.4z"/>
	<line class="st8" x1="11" y1="25" x2="14.1" y2="25"/>
	<line class="st8" x1="19.3" y1="25" x2="22.4" y2="25"/>
	<line class="st8" x1="27.6" y1="25" x2="30.7" y2="25"/>
	<line class="st8" x1="35.9" y1="25" x2="39" y2="25"/>
	<line class="st8" x1="11" y1="33" x2="25" y2="33"/>
	<path class="st7" d="M24,25"/>
	<path class="st7" d="M18,25"/>
	<path class="st7" d="M32,25"/>
	<path class="st7" d="M26,25"/>
	<path class="st7" d="M40,25"/>
</g>
<g id="Ready-made_companies">
	<g>
		
			<rect id="Main_Building_00000073699631731635222940000011624297267142875315_" x="-93.5" y="-115.5" class="st9" width="18" height="39"/>
		
			<rect id="Secondary_Building_00000132790520117776870060000001056851078004684417_" x="-74.7" y="-98.5" class="st9" width="10.2" height="22"/>
		
			<rect id="Secondary_Building_00000122696405533923072250000017963474300077117342_" x="-103.7" y="-106.5" class="st9" width="10.2" height="30"/>
		<rect x="-89.5" y="-110" class="st10" width="3" height="4"/>
		<rect x="-82.5" y="-110" class="st10" width="3" height="4"/>
		<rect x="-89.5" y="-102" class="st10" width="3" height="4"/>
		<rect x="-99.5" y="-102" class="st10" width="2" height="4"/>
		<rect x="-99.5" y="-94.5" class="st10" width="2" height="4"/>
		<rect x="-70.5" y="-93.5" class="st10" width="2" height="4"/>
		<rect x="-82.5" y="-102" class="st10" width="3" height="4"/>
		<rect x="-89.5" y="-94" class="st10" width="3" height="4"/>
		<rect x="-86.5" y="-86" class="st10" width="4" height="8"/>
		<rect x="-82.5" y="-94" class="st10" width="3" height="4"/>
	</g>
</g>
<g id="Check">
	<path class="st1" d="M-90-58c-11.6,0-21,9.4-21,21c0,11.6,9.4,21,21,21s21-9.4,21-21C-69-48.6-78.4-58-90-58z M-92.3-24l-14-12.9
		l4.1-4.4l9.6,8.8l13.5-14.7l4.4,4.1L-92.3-24z"/>
</g>
<g id="Rocket">
	<path class="st1" d="M-57.5-14.4l2.8-10.4l0,0c1.2-4.6,7-6.2,10.4-2.8l0,0l0,0c3.4,3.4,1.8,9.1-2.8,10.4l0,0L-57.5-14.4z"/>
	<path class="st1" d="M-14-58l-0.7,0c-8.7-0.1-17.1,3.4-23,9.8l-1.2,1.3c-1.2,0-4.1,0.2-8.2,1.7c-5.5,2-8.8,6.3-8.8,6.3l8.5,1.2
		l-1.4,1.5l12.9,12.8l1.5-1.3l0.1,0.2l1,8.5c0,0,4.3-3.2,6.4-8.6c1.8-4.7,1.9-7.9,1.9-8.7l0.9-0.8C-17.3-40.2-13.7-49-14-58z
		 M-26.4-41.1c-2.5,0-4.6-2.1-4.6-4.6s2.1-4.6,4.6-4.6s4.6,2.1,4.6,4.6S-23.8-41.1-26.4-41.1z"/>
</g>
<g id="Branches">
	<g>
		<g>
			<circle class="st1" cx="66" cy="-52" r="7"/>
			<circle class="st1" cx="66" cy="-20" r="7"/>
			<circle class="st1" cx="95" cy="-52" r="7"/>
			<line class="st11" x1="66" y1="-52" x2="66" y2="-18.5"/>
		</g>
		<path class="st11" d="M66-20h20.8c4.5,0,8.2-3.7,8.2-8.2V-52"/>
	</g>
</g>
<g id="Residence_Permit">
	<g>
		<circle class="st12" cx="15" cy="-98" r="17.5"/>
		<ellipse class="st12" cx="15" cy="-98" rx="7" ry="17.5"/>
		<line class="st13" x1="-2.5" y1="-98" x2="32.5" y2="-98"/>
	</g>
</g>
</svg>
