<?xml version="1.0" encoding="utf-8"?>
<!-- Generator: Adobe Illustrator 28.1.0, SVG Export Plug-In . SVG Version: 6.00 Build 0)  -->
<svg version="1.1" xmlns="http://www.w3.org/2000/svg" xmlns:xlink="http://www.w3.org/1999/xlink" x="0px" y="0px"
	 viewBox="0 0 50 50" style="enable-background:new 0 0 50 50;" xml:space="preserve">
<style type="text/css">
	.st0{display:none;}
	.st1{fill:none;stroke:#1A6EFF;stroke-width:4;stroke-miterlimit:10;}
	.st2{fill:#FFFFFF;}
	.st3{fill:#1A6EFF;}
	.st4{fill:#FFFFFF;stroke:#1A6EFF;stroke-width:4;stroke-linejoin:round;stroke-miterlimit:10;}
	.st5{fill:none;stroke:#60A2FF;stroke-width:4;stroke-linecap:round;stroke-linejoin:round;stroke-miterlimit:10;}
	.st6{fill:none;stroke:#1A6EFF;stroke-width:3;stroke-linecap:round;stroke-linejoin:round;stroke-miterlimit:10;}
	.st7{fill:none;stroke:#1A6EFF;stroke-width:4;stroke-linecap:round;stroke-linejoin:round;stroke-miterlimit:10;}
	.st8{fill:#FFFFFF;stroke:#1A6EFF;stroke-width:4;stroke-linecap:round;stroke-linejoin:round;stroke-miterlimit:10;}
	.st9{fill:#60A2FF;}
	.st10{fill:none;stroke:#60A2FF;stroke-width:3.5;stroke-linejoin:round;stroke-miterlimit:10;}
	.st11{fill:none;stroke:#1A6EFF;stroke-width:3.5;stroke-linecap:round;stroke-linejoin:round;stroke-miterlimit:10;}
	.st12{fill:none;stroke:#1A6EFF;stroke-width:3.5;stroke-linejoin:round;stroke-miterlimit:10;}
	.st13{fill:#60A2FF;stroke:#60A2FF;stroke-linejoin:round;stroke-miterlimit:10;}
	.st14{fill:#1A6EFF;stroke:#1A6EFF;stroke-linejoin:round;stroke-miterlimit:10;}
	.st15{fill:#FFFFFF;stroke:#1A6EFF;stroke-width:3;stroke-linejoin:round;stroke-miterlimit:10;}
	.st16{fill:none;stroke:#1A6EFF;stroke-width:3;stroke-miterlimit:10;}
	.st17{fill:#60A2FF;stroke:#FFFFFF;stroke-width:4;stroke-miterlimit:10;}
	.st18{fill:none;stroke:#FFFFFF;stroke-width:4;stroke-miterlimit:10;}
	.st19{fill:#FFFFFF;stroke:#1A6EFF;stroke-width:4;stroke-miterlimit:10;}
	.st20{fill:none;stroke:#60A2FF;stroke-width:3;stroke-linecap:square;stroke-linejoin:round;stroke-miterlimit:10;}
	.st21{fill:#1A6EFF;stroke:#FFFFFF;stroke-width:3;stroke-miterlimit:10;}
	.st22{fill:none;stroke:#FFFFFF;stroke-width:3;stroke-miterlimit:10;}
	.st23{fill:none;stroke:#FFFFFF;stroke-width:4;stroke-linecap:round;stroke-miterlimit:10;}
	.st24{fill:#60A2FF;stroke:#FFFFFF;stroke-width:3;stroke-miterlimit:10;}
</style>
<g id="back" class="st0">
</g>
<g id="Save_mont">
</g>
<g id="Названия_монтажных_областей">
</g>
<g id="Shield">
</g>
<g id="Check">
</g>
<g id="Exclusive_IT">
</g>
<g id="LLS__x26__SP">
</g>
<g id="Accounting">
	<g>
		<g>
			<path class="st2" d="M12.6,46c-2,0-3.6-1.6-3.6-3.6V7.6c0-2,1.6-3.6,3.6-3.6h24.9c2,0,3.6,1.6,3.6,3.6v34.9c0,2-1.6,3.6-3.6,3.6
				H12.6z"/>
			<path class="st3" d="M37.4,6C38.3,6,39,6.7,39,7.6v34.9c0,0.9-0.7,1.6-1.6,1.6H12.6c-0.9,0-1.6-0.7-1.6-1.6V7.6
				C11,6.7,11.7,6,12.6,6H37.4 M37.4,2H12.6C9.5,2,7,4.5,7,7.6v34.9c0,3.1,2.5,5.6,5.6,5.6h24.9c3.1,0,5.6-2.5,5.6-5.6V7.6
				C43,4.5,40.5,2,37.4,2L37.4,2z"/>
		</g>
		<circle class="st3" cx="17" cy="22" r="2.5"/>
		<circle class="st3" cx="25" cy="22" r="2.5"/>
		<circle class="st3" cx="33" cy="22" r="2.5"/>
		<circle class="st3" cx="17" cy="30" r="2.5"/>
		<circle class="st3" cx="25" cy="30" r="2.5"/>
		<path class="st3" d="M35.5,30v8c0,1.4-1.1,2.5-2.5,2.5s-2.5-1.1-2.5-2.5v-8c0-1.4,1.1-2.5,2.5-2.5S35.5,28.6,35.5,30z"/>
		<circle class="st3" cx="17" cy="38" r="2.5"/>
		<circle class="st3" cx="25" cy="38" r="2.5"/>
		<path class="st9" d="M35.1,17H14.9c-0.5,0-0.9-0.4-0.9-0.9V9.9C14,9.4,14.4,9,14.9,9h20.1C35.6,9,36,9.4,36,9.9v6.1
			C36,16.6,35.6,17,35.1,17z"/>
	</g>
</g>
<g id="Bank_Card">
</g>
<g id="Ready-made_companies">
</g>
<g id="Rocket">
</g>
<g id="Branches">
</g>
<g id="Residence_Permit">
</g>
<g id="Social_Card">
</g>
<g id="Registration">
</g>
<g id="Citizenship">
</g>
</svg>
