<?xml version="1.0" encoding="utf-8"?>
<!-- Generator: Adobe Illustrator 28.1.0, SVG Export Plug-In . SVG Version: 6.00 Build 0)  -->
<svg version="1.1" xmlns="http://www.w3.org/2000/svg" xmlns:xlink="http://www.w3.org/1999/xlink" x="0px" y="0px"
	 viewBox="0 0 50 50" style="enable-background:new 0 0 50 50;" xml:space="preserve">
<style type="text/css">
	.st0{display:none;}
	.st1{fill:none;stroke:#1A6EFF;stroke-width:4;stroke-miterlimit:10;}
	.st2{fill:#FFFFFF;}
	.st3{fill:#1A6EFF;}
	.st4{fill:#FFFFFF;stroke:#1A6EFF;stroke-width:4;stroke-linejoin:round;stroke-miterlimit:10;}
	.st5{fill:none;stroke:#60A2FF;stroke-width:4;stroke-linecap:round;stroke-linejoin:round;stroke-miterlimit:10;}
	.st6{fill:none;stroke:#1A6EFF;stroke-width:3;stroke-linecap:round;stroke-linejoin:round;stroke-miterlimit:10;}
	.st7{fill:none;stroke:#1A6EFF;stroke-width:4;stroke-linecap:round;stroke-linejoin:round;stroke-miterlimit:10;}
	.st8{fill:#FFFFFF;stroke:#1A6EFF;stroke-width:4;stroke-linecap:round;stroke-linejoin:round;stroke-miterlimit:10;}
	.st9{fill:#60A2FF;}
	.st10{fill:none;stroke:#60A2FF;stroke-width:3.5;stroke-linejoin:round;stroke-miterlimit:10;}
	.st11{fill:none;stroke:#1A6EFF;stroke-width:3.5;stroke-linecap:round;stroke-linejoin:round;stroke-miterlimit:10;}
	.st12{fill:none;stroke:#1A6EFF;stroke-width:3.5;stroke-linejoin:round;stroke-miterlimit:10;}
	.st13{fill:#60A2FF;stroke:#60A2FF;stroke-linejoin:round;stroke-miterlimit:10;}
	.st14{fill:#1A6EFF;stroke:#1A6EFF;stroke-linejoin:round;stroke-miterlimit:10;}
	.st15{fill:#FFFFFF;stroke:#1A6EFF;stroke-width:3;stroke-linejoin:round;stroke-miterlimit:10;}
	.st16{fill:none;stroke:#1A6EFF;stroke-width:3;stroke-miterlimit:10;}
	.st17{fill:#60A2FF;stroke:#FFFFFF;stroke-width:4;stroke-miterlimit:10;}
	.st18{fill:none;stroke:#FFFFFF;stroke-width:4;stroke-miterlimit:10;}
	.st19{fill:#FFFFFF;stroke:#1A6EFF;stroke-width:4;stroke-miterlimit:10;}
	.st20{fill:none;stroke:#60A2FF;stroke-width:3;stroke-linecap:square;stroke-linejoin:round;stroke-miterlimit:10;}
	.st21{fill:#1A6EFF;stroke:#FFFFFF;stroke-width:3;stroke-miterlimit:10;}
	.st22{fill:none;stroke:#FFFFFF;stroke-width:3;stroke-miterlimit:10;}
	.st23{fill:none;stroke:#FFFFFF;stroke-width:4;stroke-linecap:round;stroke-miterlimit:10;}
	.st24{fill:#60A2FF;stroke:#FFFFFF;stroke-width:3;stroke-miterlimit:10;}
</style>
<g id="back" class="st0">
</g>
<g id="Save_mont">
</g>
<g id="Названия_монтажных_областей">
</g>
<g id="Shield">
</g>
<g id="Check">
</g>
<g id="Exclusive_IT">
</g>
<g id="LLS__x26__SP">
</g>
<g id="Accounting">
</g>
<g id="Bank_Card">
</g>
<g id="Ready-made_companies">
</g>
<g id="Rocket">
</g>
<g id="Branches">
</g>
<g id="Residence_Permit">
</g>
<g id="Social_Card">
	<g>
		<g>
			<path class="st2" d="M12.3,46C10.5,46,9,44.5,9,42.7V7.3C9,5.5,10.5,4,12.3,4h25.4C39.5,4,41,5.5,41,7.3v35.4
				c0,1.8-1.5,3.3-3.3,3.3H12.3z"/>
			<g>
				<path class="st3" d="M37.7,6C38.4,6,39,6.6,39,7.3v35.4c0,0.7-0.6,1.3-1.3,1.3H12.3c-0.7,0-1.3-0.6-1.3-1.3V7.3
					C11,6.6,11.6,6,12.3,6H37.7 M37.7,2H12.3C9.4,2,7,4.4,7,7.3v35.4c0,2.9,2.4,5.3,5.3,5.3h25.4c2.9,0,5.3-2.4,5.3-5.3V7.3
					C43,4.4,40.6,2,37.7,2L37.7,2z"/>
			</g>
		</g>
		<g>
			<path class="st9" d="M32,29c0,1-3.1,1-7,1s-7,0-7-1c0-3.7,1.7-6.8,4.1-8.2C21.4,20.1,21,19.1,21,18c0-2.2,1.8-4,4-4s4,1.8,4,4
				c0,1.1-0.4,2.1-1.1,2.8C30.3,22.2,32,25.3,32,29z"/>
		</g>
		<g>
			<g>
				<path class="st3" d="M25,11c5,0,9,4,9,9s-4,9-9,9s-9-4-9-9S20,11,25,11 M25,7c-7.2,0-13,5.8-13,13c0,7.2,5.8,13,13,13
					s13-5.8,13-13C38,12.8,32.2,7,25,7L25,7z"/>
			</g>
		</g>
		<g>
			<line class="st5" x1="15.5" y1="38.5" x2="34.5" y2="38.5"/>
		</g>
	</g>
</g>
<g id="Registration">
</g>
<g id="Citizenship">
</g>
</svg>
