<?xml version="1.0" encoding="UTF-8"?>
<svg id="Social_Card" data-name="Social Card" xmlns="http://www.w3.org/2000/svg" viewBox="0 0 380.44 288.44">
  <defs>
    <style>
      .cls-1, .cls-2 {
        fill: #fff;
        stroke: #0032b8;
        stroke-width: 2px;
      }

      .cls-1, .cls-2, .cls-3 {
        stroke-linejoin: round;
      }

      .cls-1, .cls-3 {
        stroke-linecap: round;
      }

      .cls-3 {
        fill: #0032b8;
        stroke: #0362e1;
        stroke-width: 3px;
      }
    </style>
  </defs>
  <path class="cls-1" d="M230.28,181.31l87.91,17.11c1.03.2,2.03-.47,2.22-1.5l21.86-113.99c.2-1.03-.48-2.03-1.51-2.23l-87.91-17.11c-1.03-.2-2.03.47-2.22,1.5l-21.86,113.99c-.2,1.03.48,2.03,1.51,2.23Z"/>
  <path class="cls-1" d="M232.23,178.68l87.02,21.19c1.02.25,2.05-.38,2.29-1.4l27.15-112.85c.25-1.02-.38-2.05-1.4-2.3l-87.02-21.19c-1.02-.25-2.05.38-2.29,1.4l-27.15,112.85c-.25,1.02.38,2.05,1.4,2.3Z"/>
  <path class="cls-1" d="M232.65,184.46l87.91,17.11c1.03.2,2.03-.47,2.22-1.5l21.86-113.99c.2-1.03-.48-2.03-1.51-2.23l-87.91-17.11c-1.03-.2-2.03.47-2.22,1.5l-21.86,113.99c-.2,1.03.48,2.03,1.51,2.23Z"/>
  <polygon class="cls-2" points="279.42 107.9 260.81 104.28 264.38 85.66 282.99 89.29 279.42 107.9"/>
  <line class="cls-3" x1="292.94" y1="96.88" x2="328.14" y2="103.73"/>
  <line class="cls-3" x1="292" y1="102.11" x2="315.84" y2="106.75"/>
  <line class="cls-3" x1="286.56" y1="130.13" x2="321.77" y2="136.98"/>
  <line class="cls-3" x1="285.58" y1="134.98" x2="309.42" y2="139.62"/>
  <line class="cls-3" x1="284.69" y1="140.35" x2="308.52" y2="144.99"/>
  <line class="cls-3" x1="250.46" y1="161.24" x2="314.09" y2="173.63"/>
  <line class="cls-3" x1="251.35" y1="155.93" x2="303.93" y2="166.16"/>
  <line class="cls-3" x1="252.4" y1="150.85" x2="304.98" y2="161.08"/>
  <polygon class="cls-2" points="272.98 141.47 254.37 137.85 257.94 119.23 276.55 122.85 272.98 141.47"/>
</svg>