<?xml version="1.0" encoding="UTF-8"?>
<svg id="Social_Card" data-name="Social Card" xmlns="http://www.w3.org/2000/svg" viewBox="0 0 380.44 288.44">
  <defs>
    <style>
      .cls-1 {
        fill: #96e1fe;
      }

      .cls-1, .cls-2, .cls-3, .cls-4, .cls-5 {
        stroke-width: 0px;
      }

      .cls-6, .cls-7, .cls-8 {
        stroke: #0032b8;
        stroke-width: 2px;
      }

      .cls-6, .cls-4 {
        fill: #0362e1;
      }

      .cls-6, .cls-9 {
        stroke-linecap: round;
        stroke-linejoin: round;
      }

      .cls-7 {
        fill: #139bff;
      }

      .cls-7, .cls-8 {
        stroke-miterlimit: 10;
      }

      .cls-2 {
        fill: #59abff;
      }

      .cls-3, .cls-8 {
        fill: #fff;
      }

      .cls-9 {
        fill: #0032b8;
        stroke: #0362e1;
        stroke-width: 3px;
      }

      .cls-5 {
        fill: #3fc6ff;
      }
    </style>
  </defs>
  <g id="Base">
    <path class="cls-6" d="M237.05,71.2c-.89-.27-1.86-.35-2.85-.21l-1.61.24-184.39,27.43c-6.62.98-11.53,6.67-11.53,13.36v107.91c0,.76.14,1.49.38,2.17.53,1.49,1.6,2.71,2.95,3.46l-3.32-1.46-2.5-1.19c-1.51-1.16-2.49-2.98-2.49-5.07v-107.9c0-6.7,5-15.35,12.82-15.96l181.08-26.94c1.06-.16,2.1-.04,3.04.28l1.16.53,7.26,3.34Z"/>
    <path class="cls-7" d="M241.58,77.34v107.9c0,6.7-4.9,12.38-11.53,13.37l-186,27.67c-1.29.19-2.54-.01-3.62-.52l-.42-.2c-1.36-.75-2.42-1.97-2.95-3.46-.24-.68-.38-1.41-.38-2.17v-107.91c0-6.7,4.9-12.38,11.53-13.36l184.39-27.43,1.61-.24c.99-.15,1.96-.06,2.85.21l.05.02c.48.16.93.35,1.35.62h.02c1.85,1.13,3.11,3.15,3.11,5.51Z"/>
  </g>
  <g>
    <path class="cls-8" d="M73.34,114.21c-13.02,1.24-23.57,12.8-23.57,25.82,0,7.32,3.33,13.54,8.56,17.36,4.07,2.99,9.31,4.51,15.01,3.97,5.71-.54,10.93-3.06,15.01-6.83,5.23-4.82,8.57-11.67,8.57-18.99,0-13.02-10.55-22.57-23.58-21.33Z"/>
    <path class="cls-4" d="M81.69,128.6c0,3.18-1.77,6.11-4.38,7.77-1.18.75-2.53,1.24-3.96,1.38-1.43.13-2.77-.1-3.96-.62-2.61-1.16-4.38-3.76-4.38-6.94,0-4.61,3.74-8.71,8.34-9.14s8.34,2.95,8.34,7.55Z"/>
    <path class="cls-4" d="M88.56,149.81v1.57c-3.94,4.09-9.43,6.94-15.25,7.48-5.59.53-10.37-.82-14.77-4.08v-2.11c0-5.77,3.66-11.1,8.9-13.81,1.72,1.01,3.83,1.5,6.11,1.28,2.28-.22,4.39-1.11,6.11-2.45,1.69.55,3.22,1.4,4.51,2.5,2.71,2.31,4.39,5.7,4.39,9.61Z"/>
  </g>
  <path class="cls-2" d="M174.62,98.92l-67,9.69c-.6.09-1.03.69-1.03,1.43v5.79c0,.92.68,1.66,1.42,1.56l67-9.69c.6-.09,1.03-.69,1.03-1.43v-5.79c0-.92-.68-1.66-1.42-1.56Z"/>
  <path class="cls-4" d="M174.62,111.78l-67,9.81c-.6.1-1.03.71-1.03,1.45v33.36c0,.92.68,1.65,1.42,1.53l67-10.34c.6-.1,1.03-.71,1.03-1.45v-32.83c0-.92-.68-1.65-1.42-1.53Z"/>
  <path class="cls-5" d="M94.39,165.78l-42.05,6.41c-.6.1-1.03.71-1.03,1.45v33.36c0,.92.68,1.65,1.42,1.53l42.05-6.94c.6-.1,1.03-.71,1.03-1.45v-32.83c0-.92-.68-1.65-1.42-1.53Z"/>
  <path class="cls-1" d="M87.07,173.07l-27.71,4.22c-.39.06-.68.47-.68.96v21.99c0,.61.44,1.09.94,1.01l27.71-4.57c.39-.06.68-.47.68-.96v-21.64c0-.61-.44-1.09-.94-1.01Z"/>
  <g>
    <path class="cls-1" d="M210.64,121.49v3.06l4.1-.61v-3.06l-4.1.61ZM210.64,121.49v3.06l4.1-.61v-3.06l-4.1.61ZM210.64,121.49v3.06l4.1-.61v-3.06l-4.1.61ZM210.64,121.49v3.06l4.1-.61v-3.06l-4.1.61ZM210.64,121.49v3.06l4.1-.61v-3.06l-4.1.61ZM210.64,121.49v3.06l4.1-.61v-3.06l-4.1.61ZM210.64,121.49v3.06l4.1-.61v-3.06l-4.1.61ZM210.64,121.49v3.06l4.1-.61v-3.06l-4.1.61ZM210.64,121.49v3.06l4.1-.61v-3.06l-4.1.61ZM210.64,121.49v3.06l4.1-.61v-3.06l-4.1.61ZM210.64,121.49v3.06l4.1-.61v-3.06l-4.1.61ZM210.64,121.49v3.06l4.1-.61v-3.06l-4.1.61ZM210.64,121.49v3.06l4.1-.61v-3.06l-4.1.61ZM210.64,121.49v3.06l4.1-.61v-3.06l-4.1.61ZM210.64,121.49v3.06l4.1-.61v-3.06l-4.1.61ZM210.64,121.49v3.06l4.1-.61v-3.06l-4.1.61ZM210.64,121.49v3.06l4.1-.61v-3.06l-4.1.61ZM210.64,121.49v3.06l4.1-.61v-3.06l-4.1.61ZM210.64,121.49v3.06l4.1-.61v-3.06l-4.1.61ZM210.64,121.49v3.06l4.1-.61v-3.06l-4.1.61ZM210.64,121.49v3.06l4.1-.61v-3.06l-4.1.61ZM210.64,121.49v3.06l4.1-.61v-3.06l-4.1.61ZM210.64,121.49v3.06l4.1-.61v-3.06l-4.1.61ZM210.64,121.49v3.06l4.1-.61v-3.06l-4.1.61ZM210.64,121.49v3.06l4.1-.61v-3.06l-4.1.61ZM210.64,121.49v3.06l4.1-.61v-3.06l-4.1.61ZM210.64,121.49v3.06l4.1-.61v-3.06l-4.1.61ZM210.64,121.49v3.06l4.1-.61v-3.06l-4.1.61ZM210.64,121.49v3.06l4.1-.61v-3.06l-4.1.61ZM210.64,121.49v3.06l4.1-.61v-3.06l-4.1.61ZM210.64,121.49v3.06l4.1-.61v-3.06l-4.1.61ZM210.64,121.49v3.06l4.1-.61v-3.06l-4.1.61ZM210.64,121.49v3.06l4.1-.61v-3.06l-4.1.61ZM210.64,121.49v3.06l4.1-.61v-3.06l-4.1.61ZM186.18,98.67v43.99l43.99-6.53v-43.99l-43.99,6.53ZM215.65,104.09l1.79-.27v1.79l-1.79.27v-1.79ZM189.61,101.68l7.15-1.06v7.16l-7.15,1.06v-7.16ZM189.61,114.22l5.4-.8v-3.9l3.58-.53v6.22l-7.24,1.07v1.79l-1.74.26v-4.11ZM193.51,127.09v2.44l-2.43.36v-2.44l2.43-.36ZM196.76,138.3l-7.15,1.06v-7.16l7.15-1.06v7.16ZM205.33,137.03l-3.36.5v-2.36l3.36-.5v2.36ZM200.64,132.92v-1.66l1.74-.26v1.66l-1.74.26ZM223.45,133.3l-17.12,2.54v-2.55l3.02-.45v-1.84l2.37-.35v1.84l3.04-.45v-5.87l-4.1.61v2.63l-4.32.64v-2.43l-1.39.21v-1.22l1.39-.21v-1.22l1.86-.28v-6.1l-2.13.32v2.2l-2.2.33v5.14l-2.71.4v-2.55l-7.04,1.05v-3.28l-2.03.3v-2.32l2.03-.3v-1.45l7.04-1.05v-17.64l2.71-.4v1.74l3.51-.52v3.51l-2.02.3v3.39l-1.48.22v2.38l2.18-.32v6.62l2.15-.32v-11.05l5.58-.83v5.58l-3.12.46v5.47l4.1-.61v-3.24l2.32-.34v2.79l2.8-.42v3.73l-2.8.42v5.07l1.43-.21v-1.45l1.37-.2v-1.61l2.12-.31v1.61l-1.06.16v1.45l2.54-.38v10.66ZM223.8,117.52l-1.83.27v-1.83l1.83-.27v1.83ZM224.23,109.6l-2.49.37v-2.49l2.49-.37v2.49ZM227.01,103.28l-7.15,1.06v-7.16l7.15-1.06v7.16ZM210.64,124.54l4.1-.61v-3.06l-4.1.61v3.06ZM210.64,121.49v3.06l4.1-.61v-3.06l-4.1.61ZM210.64,121.49v3.06l4.1-.61v-3.06l-4.1.61ZM210.64,121.49v3.06l4.1-.61v-3.06l-4.1.61ZM210.64,121.49v3.06l4.1-.61v-3.06l-4.1.61ZM210.64,121.49v3.06l4.1-.61v-3.06l-4.1.61ZM210.64,121.49v3.06l4.1-.61v-3.06l-4.1.61ZM210.64,121.49v3.06l4.1-.61v-3.06l-4.1.61ZM210.64,121.49v3.06l4.1-.61v-3.06l-4.1.61ZM210.64,121.49v3.06l4.1-.61v-3.06l-4.1.61ZM210.64,121.49v3.06l4.1-.61v-3.06l-4.1.61ZM210.64,121.49v3.06l4.1-.61v-3.06l-4.1.61ZM210.64,121.49v3.06l4.1-.61v-3.06l-4.1.61ZM210.64,121.49v3.06l4.1-.61v-3.06l-4.1.61ZM210.64,121.49v3.06l4.1-.61v-3.06l-4.1.61ZM210.64,121.49v3.06l4.1-.61v-3.06l-4.1.61ZM210.64,121.49v3.06l4.1-.61v-3.06l-4.1.61ZM210.64,121.49v3.06l4.1-.61v-3.06l-4.1.61ZM210.64,121.49v3.06l4.1-.61v-3.06l-4.1.61ZM210.64,121.49v3.06l4.1-.61v-3.06l-4.1.61ZM210.64,121.49v3.06l4.1-.61v-3.06l-4.1.61ZM210.64,121.49v3.06l4.1-.61v-3.06l-4.1.61ZM210.64,121.49v3.06l4.1-.61v-3.06l-4.1.61ZM210.64,121.49v3.06l4.1-.61v-3.06l-4.1.61ZM210.64,121.49v3.06l4.1-.61v-3.06l-4.1.61ZM210.64,121.49v3.06l4.1-.61v-3.06l-4.1.61ZM210.64,121.49v3.06l4.1-.61v-3.06l-4.1.61ZM210.64,121.49v3.06l4.1-.61v-3.06l-4.1.61ZM210.64,121.49v3.06l4.1-.61v-3.06l-4.1.61ZM210.64,121.49v3.06l4.1-.61v-3.06l-4.1.61ZM210.64,121.49v3.06l4.1-.61v-3.06l-4.1.61ZM210.64,121.49v3.06l4.1-.61v-3.06l-4.1.61ZM210.64,121.49v3.06l4.1-.61v-3.06l-4.1.61ZM210.64,121.49v3.06l4.1-.61v-3.06l-4.1.61ZM210.64,121.49v3.06l4.1-.61v-3.06l-4.1.61Z"/>
    <polygon class="cls-1" points="195.02 106.29 191.35 106.83 191.35 103.16 195.02 102.62 195.02 106.29"/>
    <polygon class="cls-1" points="195.02 136.81 191.35 137.36 191.35 133.69 195.02 133.14 195.02 136.81"/>
    <polygon class="cls-1" points="225.27 101.8 221.61 102.34 221.61 98.67 225.27 98.13 225.27 101.8"/>
  </g>
  <g>
    <path class="cls-3" d="M228.29,146.7l-119.97,17.43c-1,.16-1.74,1.02-1.74,2.04v31.21c0,1.27,1.13,2.24,2.39,2.04l119.97-18.16c1-.16,1.74-1.02,1.74-2.04v-30.49c0-1.27-1.13-2.24-2.39-2.04Z"/>
    <line class="cls-9" x1="113.83" y1="170.68" x2="221.61" y2="154.8"/>
    <line class="cls-9" x1="113.83" y1="176.13" x2="213.34" y2="161.47"/>
    <line class="cls-9" x1="113.83" y1="181.22" x2="218.19" y2="165.85"/>
    <line class="cls-9" x1="113.8" y1="186.32" x2="210.64" y2="172.05"/>
    <line class="cls-9" x1="113.8" y1="191.11" x2="221.58" y2="175.23"/>
  </g>
</svg>