<?xml version="1.0" encoding="UTF-8"?>
<svg id="Social_Card" data-name="Social Card" xmlns="http://www.w3.org/2000/svg" viewBox="0 0 380.44 288.44">
  <defs>
    <style>
      .cls-1, .cls-2, .cls-3, .cls-4, .cls-5, .cls-6, .cls-7 {
        stroke: #0032b8;
        stroke-width: 2px;
      }

      .cls-1, .cls-3, .cls-5, .cls-8, .cls-9, .cls-7 {
        stroke-linejoin: round;
      }

      .cls-1, .cls-3, .cls-8 {
        stroke-linecap: round;
      }

      .cls-1, .cls-6 {
        fill: #fff;
      }

      .cls-2 {
        fill: #3fc6ff;
      }

      .cls-2, .cls-4, .cls-6 {
        stroke-miterlimit: 10;
      }

      .cls-10 {
        fill: #96e1fe;
      }

      .cls-10, .cls-11 {
        stroke-width: 0px;
      }

      .cls-3, .cls-5, .cls-11 {
        fill: #0362e1;
      }

      .cls-4 {
        fill: #139bff;
      }

      .cls-8 {
        fill: #0032b8;
        stroke: #0362e1;
        stroke-width: 3px;
      }

      .cls-9 {
        stroke: #fff;
      }

      .cls-9, .cls-7 {
        fill: #59abff;
      }
    </style>
  </defs>
  <g>
    <path class="cls-1" d="M240.26,182.27l87.91,17.11c1.03.2,2.03-.47,2.22-1.5l21.86-113.99c.2-1.03-.48-2.03-1.51-2.23l-87.91-17.11c-1.03-.2-2.03.47-2.22,1.5l-21.86,113.99c-.2,1.03.48,2.03,1.51,2.23Z"/>
    <path class="cls-1" d="M242.21,179.64l87.02,21.19c1.02.25,2.05-.38,2.29-1.4l27.15-112.85c.25-1.02-.38-2.05-1.4-2.3l-87.02-21.19c-1.02-.25-2.05.38-2.29,1.4l-27.15,112.85c-.25,1.02.38,2.05,1.4,2.3Z"/>
    <path class="cls-1" d="M242.63,185.41l87.91,17.11c1.03.2,2.03-.47,2.22-1.5l21.86-113.99c.2-1.03-.48-2.03-1.51-2.23l-87.91-17.11c-1.03-.2-2.03.47-2.22,1.5l-21.86,113.99c-.2,1.03.48,2.03,1.51,2.23Z"/>
    <polygon class="cls-5" points="289.4 108.86 270.79 105.24 274.36 86.62 292.97 90.24 289.4 108.86"/>
    <line class="cls-8" x1="302.92" y1="97.84" x2="338.12" y2="104.69"/>
    <line class="cls-8" x1="301.98" y1="103.06" x2="325.82" y2="107.7"/>
    <line class="cls-8" x1="296.54" y1="131.08" x2="331.74" y2="137.93"/>
    <line class="cls-8" x1="295.56" y1="135.94" x2="319.4" y2="140.58"/>
    <line class="cls-8" x1="294.67" y1="141.3" x2="318.5" y2="145.94"/>
    <line class="cls-8" x1="260.44" y1="162.2" x2="324.07" y2="174.58"/>
    <line class="cls-8" x1="261.33" y1="156.89" x2="313.91" y2="167.12"/>
    <line class="cls-8" x1="262.38" y1="151.8" x2="314.96" y2="162.03"/>
    <polygon class="cls-9" points="296.5 89.79 298.81 93.41 283.59 103.71 278.15 96.21 281.81 93.37 285.01 97.56 296.5 89.79"/>
    <polygon class="cls-5" points="282.96 142.43 264.35 138.81 267.92 120.19 286.53 123.81 282.96 142.43"/>
    <polygon class="cls-9" points="290.06 123.35 292.37 126.98 277.15 137.28 271.71 129.77 275.37 126.94 278.57 131.13 290.06 123.35"/>
  </g>
  <g id="Base">
    <path class="cls-3" d="M247.03,72.15c-.89-.27-1.86-.35-2.85-.21l-1.61.24-184.39,27.43c-6.62.98-11.53,6.67-11.53,13.36v107.91c0,.76.14,1.49.38,2.17.53,1.49,1.6,2.71,2.95,3.46l-3.32-1.46-2.5-1.19c-1.51-1.16-2.49-2.98-2.49-5.07v-107.9c0-6.7,5-15.35,12.82-15.96l181.08-26.94c1.06-.16,2.1-.04,3.04.28l1.16.53,7.26,3.34Z"/>
    <path class="cls-4" d="M251.56,78.29v107.9c0,6.7-4.9,12.38-11.53,13.37l-186,27.67c-1.29.19-2.54-.01-3.62-.52l-.42-.2c-1.36-.75-2.42-1.97-2.95-3.46-.24-.68-.38-1.41-.38-2.17v-107.91c0-6.7,4.9-12.38,11.53-13.36l184.39-27.43,1.61-.24c.99-.15,1.96-.06,2.85.21l.05.02c.48.16.93.35,1.35.62h.02c1.85,1.13,3.11,3.15,3.11,5.51Z"/>
  </g>
  <g>
    <path class="cls-6" d="M83.32,115.16c-13.02,1.24-23.57,12.8-23.57,25.82,0,7.32,3.33,13.54,8.56,17.36,4.07,2.99,9.31,4.51,15.01,3.97,5.71-.54,10.93-3.06,15.01-6.83,5.23-4.82,8.57-11.67,8.57-18.99,0-13.02-10.55-22.57-23.58-21.33Z"/>
    <path class="cls-11" d="M91.67,129.56c0,3.18-1.77,6.11-4.38,7.77-1.18.75-2.53,1.24-3.96,1.38-1.43.13-2.77-.1-3.96-.62-2.61-1.16-4.38-3.76-4.38-6.94,0-4.61,3.74-8.71,8.34-9.14s8.34,2.95,8.34,7.55Z"/>
    <path class="cls-11" d="M98.54,150.77v1.57c-3.94,4.09-9.43,6.94-15.25,7.48-5.59.53-10.37-.82-14.77-4.08v-2.11c0-5.77,3.66-11.1,8.9-13.81,1.72,1.01,3.83,1.5,6.11,1.28s4.39-1.11,6.11-2.45c1.69.55,3.22,1.4,4.51,2.5,2.71,2.31,4.39,5.7,4.39,9.61Z"/>
  </g>
  <path class="cls-7" d="M184.6,99.87l-67,9.69c-.6.09-1.03.69-1.03,1.43v5.79c0,.92.68,1.66,1.42,1.56l67-9.69c.6-.09,1.03-.69,1.03-1.43v-5.79c0-.92-.68-1.66-1.42-1.56Z"/>
  <path class="cls-3" d="M184.6,112.73l-67,9.81c-.6.1-1.03.71-1.03,1.45v33.36c0,.92.68,1.65,1.42,1.53l67-10.34c.6-.1,1.03-.71,1.03-1.45v-32.83c0-.92-.68-1.65-1.42-1.53Z"/>
  <path class="cls-2" d="M104.36,166.74l-42.05,6.41c-.6.1-1.03.71-1.03,1.45v33.36c0,.92.68,1.65,1.42,1.53l42.05-6.94c.6-.1,1.03-.71,1.03-1.45v-32.83c0-.92-.68-1.65-1.42-1.53Z"/>
  <path class="cls-10" d="M97.05,174.03l-27.71,4.22c-.39.06-.68.47-.68.96v21.99c0,.61.44,1.09.94,1.01l27.71-4.57c.39-.06.68-.47.68-.96v-21.64c0-.61-.44-1.09-.94-1.01Z"/>
  <g>
    <path class="cls-10" d="M220.62,122.44v3.06l4.1-.61v-3.06l-4.1.61ZM220.62,122.44v3.06l4.1-.61v-3.06l-4.1.61ZM220.62,122.44v3.06l4.1-.61v-3.06l-4.1.61ZM220.62,122.44v3.06l4.1-.61v-3.06l-4.1.61ZM220.62,122.44v3.06l4.1-.61v-3.06l-4.1.61ZM220.62,122.44v3.06l4.1-.61v-3.06l-4.1.61ZM220.62,122.44v3.06l4.1-.61v-3.06l-4.1.61ZM220.62,122.44v3.06l4.1-.61v-3.06l-4.1.61ZM220.62,122.44v3.06l4.1-.61v-3.06l-4.1.61ZM220.62,122.44v3.06l4.1-.61v-3.06l-4.1.61ZM220.62,122.44v3.06l4.1-.61v-3.06l-4.1.61ZM220.62,122.44v3.06l4.1-.61v-3.06l-4.1.61ZM220.62,122.44v3.06l4.1-.61v-3.06l-4.1.61ZM220.62,122.44v3.06l4.1-.61v-3.06l-4.1.61ZM220.62,122.44v3.06l4.1-.61v-3.06l-4.1.61ZM220.62,122.44v3.06l4.1-.61v-3.06l-4.1.61ZM220.62,122.44v3.06l4.1-.61v-3.06l-4.1.61ZM220.62,122.44v3.06l4.1-.61v-3.06l-4.1.61ZM220.62,122.44v3.06l4.1-.61v-3.06l-4.1.61ZM220.62,122.44v3.06l4.1-.61v-3.06l-4.1.61ZM220.62,122.44v3.06l4.1-.61v-3.06l-4.1.61ZM220.62,122.44v3.06l4.1-.61v-3.06l-4.1.61ZM220.62,122.44v3.06l4.1-.61v-3.06l-4.1.61ZM220.62,122.44v3.06l4.1-.61v-3.06l-4.1.61ZM220.62,122.44v3.06l4.1-.61v-3.06l-4.1.61ZM220.62,122.44v3.06l4.1-.61v-3.06l-4.1.61ZM220.62,122.44v3.06l4.1-.61v-3.06l-4.1.61ZM220.62,122.44v3.06l4.1-.61v-3.06l-4.1.61ZM220.62,122.44v3.06l4.1-.61v-3.06l-4.1.61ZM220.62,122.44v3.06l4.1-.61v-3.06l-4.1.61ZM220.62,122.44v3.06l4.1-.61v-3.06l-4.1.61ZM220.62,122.44v3.06l4.1-.61v-3.06l-4.1.61ZM220.62,122.44v3.06l4.1-.61v-3.06l-4.1.61ZM220.62,122.44v3.06l4.1-.61v-3.06l-4.1.61ZM196.16,99.63v43.99l43.99-6.53v-43.99l-43.99,6.53ZM225.63,105.05l1.79-.27v1.79l-1.79.27v-1.79ZM199.59,102.63l7.15-1.06v7.16l-7.15,1.06v-7.16ZM199.59,115.17l5.4-.8v-3.9l3.58-.53v6.22l-7.24,1.07v1.79l-1.74.26v-4.11ZM203.49,128.04v2.44l-2.43.36v-2.44l2.43-.36ZM206.74,139.25l-7.15,1.06v-7.16l7.15-1.06v7.16ZM215.31,137.98l-3.36.5v-2.36l3.36-.5v2.36ZM210.62,133.88v-1.66l1.74-.26v1.66l-1.74.26ZM233.42,134.26l-17.12,2.54v-2.55l3.02-.45v-1.84l2.37-.35v1.84l3.04-.45v-5.87l-4.1.61v2.63l-4.32.64v-2.43l-1.39.21v-1.22l1.39-.21v-1.22l1.86-.28v-6.1l-2.13.32v2.2l-2.2.33v5.14l-2.71.4v-2.55l-7.04,1.05v-3.28l-2.03.3v-2.32l2.03-.3v-1.45l7.04-1.05v-17.64l2.71-.4v1.74l3.51-.52v3.51l-2.02.3v3.39l-1.48.22v2.38l2.18-.32v6.62l2.15-.32v-11.05l5.58-.83v5.58l-3.12.46v5.47l4.1-.61v-3.24l2.32-.34v2.79l2.8-.42v3.73l-2.8.42v5.07l1.43-.21v-1.45l1.37-.2v-1.61l2.12-.31v1.61l-1.06.16v1.45l2.54-.38v10.66ZM233.78,118.47l-1.83.27v-1.83l1.83-.27v1.83ZM234.21,110.55l-2.49.37v-2.49l2.49-.37v2.49ZM236.99,104.24l-7.15,1.06v-7.16l7.15-1.06v7.16ZM220.62,125.5l4.1-.61v-3.06l-4.1.61v3.06ZM220.62,122.44v3.06l4.1-.61v-3.06l-4.1.61ZM220.62,122.44v3.06l4.1-.61v-3.06l-4.1.61ZM220.62,122.44v3.06l4.1-.61v-3.06l-4.1.61ZM220.62,122.44v3.06l4.1-.61v-3.06l-4.1.61ZM220.62,122.44v3.06l4.1-.61v-3.06l-4.1.61ZM220.62,122.44v3.06l4.1-.61v-3.06l-4.1.61ZM220.62,122.44v3.06l4.1-.61v-3.06l-4.1.61ZM220.62,122.44v3.06l4.1-.61v-3.06l-4.1.61ZM220.62,122.44v3.06l4.1-.61v-3.06l-4.1.61ZM220.62,122.44v3.06l4.1-.61v-3.06l-4.1.61ZM220.62,122.44v3.06l4.1-.61v-3.06l-4.1.61ZM220.62,122.44v3.06l4.1-.61v-3.06l-4.1.61ZM220.62,122.44v3.06l4.1-.61v-3.06l-4.1.61ZM220.62,122.44v3.06l4.1-.61v-3.06l-4.1.61ZM220.62,122.44v3.06l4.1-.61v-3.06l-4.1.61ZM220.62,122.44v3.06l4.1-.61v-3.06l-4.1.61ZM220.62,122.44v3.06l4.1-.61v-3.06l-4.1.61ZM220.62,122.44v3.06l4.1-.61v-3.06l-4.1.61ZM220.62,122.44v3.06l4.1-.61v-3.06l-4.1.61ZM220.62,122.44v3.06l4.1-.61v-3.06l-4.1.61ZM220.62,122.44v3.06l4.1-.61v-3.06l-4.1.61ZM220.62,122.44v3.06l4.1-.61v-3.06l-4.1.61ZM220.62,122.44v3.06l4.1-.61v-3.06l-4.1.61ZM220.62,122.44v3.06l4.1-.61v-3.06l-4.1.61ZM220.62,122.44v3.06l4.1-.61v-3.06l-4.1.61ZM220.62,122.44v3.06l4.1-.61v-3.06l-4.1.61ZM220.62,122.44v3.06l4.1-.61v-3.06l-4.1.61ZM220.62,122.44v3.06l4.1-.61v-3.06l-4.1.61ZM220.62,122.44v3.06l4.1-.61v-3.06l-4.1.61ZM220.62,122.44v3.06l4.1-.61v-3.06l-4.1.61ZM220.62,122.44v3.06l4.1-.61v-3.06l-4.1.61ZM220.62,122.44v3.06l4.1-.61v-3.06l-4.1.61ZM220.62,122.44v3.06l4.1-.61v-3.06l-4.1.61ZM220.62,122.44v3.06l4.1-.61v-3.06l-4.1.61Z"/>
    <polygon class="cls-10" points="205 107.24 201.33 107.79 201.33 104.12 205 103.57 205 107.24"/>
    <polygon class="cls-10" points="205 137.77 201.33 138.31 201.33 134.64 205 134.1 205 137.77"/>
    <polygon class="cls-10" points="235.25 102.75 231.59 103.3 231.59 99.63 235.25 99.08 235.25 102.75"/>
  </g>
  <g>
    <path class="cls-6" d="M238.27,147.66l-119.97,17.43c-1,.16-1.74,1.02-1.74,2.04v31.21c0,1.27,1.13,2.24,2.39,2.04l119.97-18.16c1-.16,1.74-1.02,1.74-2.04v-30.49c0-1.27-1.13-2.24-2.39-2.04Z"/>
    <line class="cls-8" x1="123.81" y1="171.64" x2="231.59" y2="155.76"/>
    <line class="cls-8" x1="123.81" y1="177.08" x2="223.32" y2="162.42"/>
    <line class="cls-8" x1="123.81" y1="182.18" x2="228.17" y2="166.8"/>
    <line class="cls-8" x1="123.78" y1="187.27" x2="220.62" y2="173"/>
    <line class="cls-8" x1="123.78" y1="192.07" x2="231.56" y2="176.19"/>
  </g>
</svg>