<?xml version="1.0" encoding="utf-8"?>
<!-- Generator: Adobe Illustrator 28.1.0, SVG Export Plug-In . SVG Version: 6.00 Build 0)  -->
<svg version="1.1" xmlns="http://www.w3.org/2000/svg" xmlns:xlink="http://www.w3.org/1999/xlink" x="0px" y="0px"
	 viewBox="0 0 80 80" style="enable-background:new 0 0 80 80;" xml:space="preserve">
<style type="text/css">
	.st0{fill:#FFFFFF;}
	.st1{fill:#1A6EFF;}
	.st2{fill:none;stroke:#1A6EFF;stroke-width:3;stroke-miterlimit:10;}
	.st3{fill:#FFFFFF;stroke:#1A6EFF;stroke-width:4;stroke-miterlimit:10;}
	.st4{fill:#FFFFFF;stroke:#1A6EFF;stroke-width:3;stroke-linejoin:round;stroke-miterlimit:10;}
	.st5{fill:none;stroke:#60A2FF;stroke-width:3;stroke-miterlimit:10;}
	.st6{fill:none;stroke:#60A2FF;stroke-width:4;stroke-miterlimit:10;}
	.st7{fill:#60A2FF;}
	.st8{fill:#FFFFFF;stroke:#60A2FF;stroke-width:3;stroke-miterlimit:10;}
	.st9{fill:none;stroke:#1A6EFF;stroke-width:4;stroke-miterlimit:10;}
	.st10{fill:url(#SVGID_1_);}
	.st11{fill:none;stroke:#FFFFFF;stroke-width:4;stroke-miterlimit:10;}
	.st12{fill:url(#SVGID_00000134956353218472321050000006725663970815454086_);}
	.st13{fill:url(#SVGID_00000152975895737419230770000016891241904200513453_);}
	.st14{fill:url(#SVGID_00000160908290875355024540000012920137263411806081_);}
	.st15{fill:url(#SVGID_00000179622979459558895100000009981144212983128205_);}
	.st16{fill:url(#SVGID_00000074406687005423426030000001486205733838862755_);}
	.st17{fill:#1A6EFF;stroke:#1A6EFF;stroke-linejoin:round;stroke-miterlimit:10;}
	.st18{fill:#FFFFFF;stroke:#1A6EFF;stroke-width:4;stroke-linecap:round;stroke-linejoin:round;stroke-miterlimit:10;}
	.st19{fill:none;stroke:#1A6EFF;stroke-width:4;stroke-linecap:round;stroke-linejoin:round;stroke-miterlimit:10;}
	.st20{fill:#1A6EFF;stroke:#FFFFFF;stroke-width:3;stroke-miterlimit:10;}
	.st21{fill:none;stroke:#FFFFFF;stroke-width:3;stroke-miterlimit:10;}
	.st22{fill:none;stroke:#FFFFFF;stroke-width:4;stroke-linecap:round;stroke-miterlimit:10;}
	.st23{fill:none;stroke:#1A6EFF;stroke-width:3.5;stroke-linejoin:round;stroke-miterlimit:10;}
	.st24{fill:none;stroke:#1A6EFF;stroke-width:3.5;stroke-linecap:round;stroke-linejoin:round;stroke-miterlimit:10;}
	.st25{fill:#FFFFFF;stroke:#1A6EFF;stroke-width:4;stroke-linejoin:round;stroke-miterlimit:10;}
	.st26{fill:none;stroke:#1A6EFF;stroke-width:3;stroke-linecap:round;stroke-linejoin:round;stroke-miterlimit:10;}
	.st27{fill:#60A2FF;stroke:#60A2FF;stroke-linejoin:round;stroke-miterlimit:10;}
	.st28{fill:none;stroke:#60A2FF;stroke-width:3;stroke-linecap:square;stroke-linejoin:round;stroke-miterlimit:10;}
	.st29{fill:#60A2FF;stroke:#FFFFFF;stroke-width:3;stroke-miterlimit:10;}
	.st30{fill:none;stroke:#60A2FF;stroke-width:4;stroke-linecap:round;stroke-linejoin:round;stroke-miterlimit:10;}
	.st31{fill:#60A2FF;stroke:#FFFFFF;stroke-width:4;stroke-miterlimit:10;}
	.st32{fill:none;stroke:#60A2FF;stroke-width:3.5;stroke-linejoin:round;stroke-miterlimit:10;}
</style>
<g id="Названия_монтажных_областей">
	<g>
		<g>
			<path class="st0" d="M-7.9-8.4v-6.9L-11-10h-0.5l-3.1-5.4v6.9h-0.8V-17h0.9l3.3,5.8L-8-17h0.9v8.5H-7.9z"/>
			<path class="st0" d="M-2.5-8.3c-0.5,0-0.9-0.1-1.3-0.3s-0.7-0.4-1-0.7c-0.3-0.3-0.5-0.6-0.6-1c-0.2-0.4-0.2-0.8-0.2-1.2
				c0-0.4,0.1-0.9,0.2-1.2c0.2-0.4,0.4-0.7,0.6-1c0.3-0.3,0.6-0.5,1-0.7c0.4-0.2,0.8-0.3,1.2-0.3c0.4,0,0.9,0.1,1.2,0.3
				s0.7,0.4,1,0.7c0.3,0.3,0.5,0.6,0.6,1c0.2,0.4,0.2,0.8,0.2,1.2c0,0.4-0.1,0.8-0.2,1.2C0.3-9.9,0-9.6-0.2-9.3
				c-0.3,0.3-0.6,0.5-1,0.7S-2-8.3-2.5-8.3z M-4.7-11.5c0,0.5,0.1,0.9,0.3,1.3C-4.2-9.9-4-9.6-3.6-9.4C-3.3-9.2-2.9-9-2.5-9
				s0.8-0.1,1.1-0.3s0.6-0.5,0.8-0.9c0.2-0.4,0.3-0.8,0.3-1.3c0-0.5-0.1-0.9-0.3-1.3s-0.5-0.7-0.8-0.9C-1.7-13.9-2.1-14-2.5-14
				s-0.8,0.1-1.1,0.3c-0.3,0.2-0.6,0.5-0.8,0.9C-4.6-12.4-4.7-12-4.7-11.5z"/>
			<path class="st0" d="M2-8.4v-6.2h0.8v2.7h3.6v-2.7h0.8v6.2H6.4v-2.8H2.8v2.8H2z"/>
			<path class="st0" d="M10.6-8.4v-5.5H8.3v-0.7h5.3v0.7h-2.2v5.5H10.6z"/>
			<path class="st0" d="M14.2-10.2c0-0.4,0.1-0.7,0.3-1c0.2-0.3,0.5-0.5,0.9-0.7c0.4-0.2,0.9-0.2,1.4-0.2c0.3,0,0.6,0,0.9,0.1
				c0.3,0,0.6,0.1,0.9,0.2v-0.5c0-0.5-0.2-0.9-0.5-1.3c-0.3-0.3-0.7-0.5-1.3-0.5c-0.3,0-0.7,0.1-1,0.2c-0.3,0.1-0.7,0.3-1,0.5
				l-0.3-0.6c0.4-0.3,0.8-0.5,1.2-0.6c0.4-0.1,0.8-0.2,1.2-0.2c0.8,0,1.4,0.2,1.8,0.7c0.4,0.4,0.7,1,0.7,1.8v2.9
				c0,0.1,0,0.2,0.1,0.2s0.1,0.1,0.2,0.1v0.6c-0.1,0-0.2,0-0.2,0c-0.1,0-0.1,0-0.1,0c-0.2,0-0.4-0.1-0.5-0.2
				c-0.1-0.1-0.2-0.2-0.2-0.4l0-0.5c-0.3,0.4-0.6,0.6-1.1,0.8c-0.4,0.2-0.9,0.3-1.4,0.3c-0.4,0-0.8-0.1-1.1-0.3S14.7-9,14.5-9.3
				C14.3-9.6,14.2-9.9,14.2-10.2z M18.4-9.8c0.1-0.1,0.2-0.2,0.2-0.3s0.1-0.2,0.1-0.3v-0.9c-0.3-0.1-0.6-0.2-0.8-0.2
				s-0.6-0.1-0.9-0.1c-0.6,0-1.1,0.1-1.4,0.3C15.2-11,15-10.7,15-10.3c0,0.2,0.1,0.4,0.2,0.6c0.1,0.2,0.3,0.4,0.5,0.5
				c0.2,0.1,0.5,0.2,0.8,0.2c0.4,0,0.8-0.1,1.1-0.2C18-9.3,18.2-9.5,18.4-9.8z"/>
			<path class="st0" d="M20.8-8.4l2.3-3.2l-2.1-3H22l1.9,2.7h0.8v-2.7h0.8v2.7h0.8l1.8-2.7h0.9l-2.1,3l2.4,3.2h-0.9l-2.1-2.8h-0.8
				v2.8h-0.8v-2.8h-0.8l-2.1,2.8H20.8z"/>
			<path class="st0" d="M30.7-8.4v-6.2h0.8v2.7h0.9l2.1-2.7h0.9l-2.4,3l2.7,3.2h-1l-2.4-2.8h-0.9v2.8H30.7z"/>
			<path class="st0" d="M36.5-10.2c0-0.4,0.1-0.7,0.3-1c0.2-0.3,0.5-0.5,0.9-0.7c0.4-0.2,0.9-0.2,1.4-0.2c0.3,0,0.6,0,0.9,0.1
				c0.3,0,0.6,0.1,0.9,0.2v-0.5c0-0.5-0.2-0.9-0.5-1.3c-0.3-0.3-0.7-0.5-1.3-0.5c-0.3,0-0.7,0.1-1,0.2c-0.3,0.1-0.7,0.3-1,0.5
				l-0.3-0.6c0.4-0.3,0.8-0.5,1.2-0.6c0.4-0.1,0.8-0.2,1.2-0.2c0.8,0,1.4,0.2,1.8,0.7c0.4,0.4,0.7,1,0.7,1.8v2.9
				c0,0.1,0,0.2,0.1,0.2s0.1,0.1,0.2,0.1v0.6c-0.1,0-0.2,0-0.2,0c-0.1,0-0.1,0-0.1,0c-0.2,0-0.4-0.1-0.5-0.2
				c-0.1-0.1-0.2-0.2-0.2-0.4l0-0.5c-0.3,0.4-0.6,0.6-1.1,0.8c-0.4,0.2-0.9,0.3-1.4,0.3c-0.4,0-0.8-0.1-1.1-0.3S36.9-9,36.7-9.3
				C36.6-9.6,36.5-9.9,36.5-10.2z M40.7-9.8c0.1-0.1,0.2-0.2,0.2-0.3s0.1-0.2,0.1-0.3v-0.9c-0.3-0.1-0.6-0.2-0.8-0.2
				s-0.6-0.1-0.9-0.1c-0.6,0-1.1,0.1-1.4,0.3c-0.4,0.2-0.5,0.5-0.5,0.9c0,0.2,0.1,0.4,0.2,0.6c0.1,0.2,0.3,0.4,0.5,0.5
				c0.2,0.1,0.5,0.2,0.8,0.2c0.4,0,0.8-0.1,1.1-0.2C40.2-9.3,40.5-9.5,40.7-9.8z"/>
			<path class="st0" d="M52.2-10.8c0,0.5-0.1,0.9-0.4,1.3c-0.3,0.4-0.6,0.7-1.1,0.9c-0.5,0.2-0.9,0.3-1.5,0.3
				c-0.6,0-1.1-0.1-1.5-0.3c-0.4-0.2-0.8-0.5-1-0.9c-0.3-0.4-0.4-0.8-0.4-1.3c0-0.4,0.1-0.7,0.3-1c0.2-0.3,0.4-0.5,0.6-0.7
				s0.5-0.3,0.8-0.4c-0.2-0.1-0.5-0.2-0.7-0.4c-0.2-0.2-0.4-0.4-0.5-0.6c-0.1-0.2-0.2-0.5-0.2-0.8c0-0.4,0.1-0.7,0.2-0.9
				c0.2-0.3,0.4-0.5,0.6-0.7c0.3-0.2,0.5-0.3,0.9-0.4c0.3-0.1,0.6-0.1,1-0.1c0.3,0,0.6,0,0.9,0.1c0.3,0.1,0.6,0.2,0.9,0.4
				s0.5,0.4,0.6,0.7c0.2,0.3,0.2,0.6,0.2,0.9c0,0.3-0.1,0.5-0.2,0.8c-0.1,0.2-0.3,0.4-0.5,0.6s-0.5,0.3-0.7,0.4
				c0.3,0.1,0.6,0.3,0.9,0.5c0.3,0.2,0.5,0.5,0.6,0.8S52.2-11.2,52.2-10.8z M51.4-10.9c0-0.3-0.1-0.5-0.2-0.8s-0.3-0.4-0.5-0.6
				c-0.2-0.2-0.4-0.3-0.7-0.3s-0.5-0.1-0.8-0.1c-0.3,0-0.7,0.1-1,0.2c-0.3,0.1-0.6,0.4-0.8,0.6c-0.2,0.3-0.3,0.6-0.3,1
				c0,0.3,0.1,0.5,0.2,0.7s0.3,0.4,0.5,0.6c0.2,0.2,0.4,0.3,0.7,0.4c0.3,0.1,0.5,0.1,0.8,0.1c0.3,0,0.7-0.1,1-0.2
				c0.3-0.1,0.6-0.4,0.8-0.6S51.4-10.5,51.4-10.9z M47.4-14.8c0,0.3,0.1,0.6,0.3,0.8c0.2,0.2,0.4,0.4,0.7,0.5s0.6,0.2,0.8,0.2
				c0.3,0,0.6-0.1,0.9-0.2c0.3-0.1,0.5-0.3,0.7-0.5c0.2-0.2,0.3-0.5,0.3-0.8c0-0.3-0.1-0.6-0.3-0.8s-0.4-0.4-0.7-0.5
				c-0.3-0.1-0.6-0.2-0.9-0.2c-0.3,0-0.6,0.1-0.9,0.2c-0.3,0.1-0.5,0.3-0.7,0.5S47.4-15.1,47.4-14.8z"/>
			<path class="st0" d="M59.5-11.9c0,0.7-0.1,1.3-0.4,1.9s-0.6,1-1.1,1.3c-0.5,0.3-1,0.5-1.6,0.5c-0.6,0-1.1-0.2-1.5-0.5
				c-0.5-0.3-0.8-0.7-1.1-1.3c-0.3-0.5-0.4-1.2-0.4-1.9c0-0.7,0.1-1.3,0.4-1.9c0.3-0.5,0.6-1,1.1-1.3c0.5-0.3,1-0.5,1.5-0.5
				c0.6,0,1.1,0.2,1.6,0.5c0.5,0.3,0.8,0.7,1.1,1.3C59.3-13.2,59.5-12.6,59.5-11.9z M58.6-11.9c0-0.6-0.1-1-0.3-1.5
				c-0.2-0.4-0.4-0.8-0.8-1s-0.7-0.4-1.1-0.4s-0.8,0.1-1.1,0.4c-0.3,0.2-0.6,0.6-0.8,1c-0.2,0.4-0.3,0.9-0.3,1.5
				c0,0.6,0.1,1,0.3,1.5c0.2,0.4,0.4,0.8,0.8,1c0.3,0.2,0.7,0.4,1.1,0.4s0.8-0.1,1.1-0.4c0.3-0.2,0.6-0.6,0.8-1
				C58.6-10.9,58.6-11.3,58.6-11.9z"/>
			<path class="st0" d="M64.1-8.4v-6.2h0.8v2.7h3.6v-2.7h0.8v6.2h-0.8v-2.8h-3.6v2.8H64.1z"/>
			<path class="st0" d="M70.6-10.2c0-0.4,0.1-0.7,0.3-1c0.2-0.3,0.5-0.5,0.9-0.7c0.4-0.2,0.9-0.2,1.4-0.2c0.3,0,0.6,0,0.9,0.1
				c0.3,0,0.6,0.1,0.9,0.2v-0.5c0-0.5-0.2-0.9-0.5-1.3c-0.3-0.3-0.7-0.5-1.3-0.5c-0.3,0-0.7,0.1-1,0.2c-0.3,0.1-0.7,0.3-1,0.5
				L71-13.9c0.4-0.3,0.8-0.5,1.2-0.6c0.4-0.1,0.8-0.2,1.2-0.2c0.8,0,1.4,0.2,1.8,0.7c0.4,0.4,0.7,1,0.7,1.8v2.9c0,0.1,0,0.2,0.1,0.2
				s0.1,0.1,0.2,0.1v0.6c-0.1,0-0.2,0-0.2,0c-0.1,0-0.1,0-0.1,0c-0.2,0-0.4-0.1-0.5-0.2c-0.1-0.1-0.2-0.2-0.2-0.4l0-0.5
				c-0.3,0.4-0.6,0.6-1.1,0.8c-0.4,0.2-0.9,0.3-1.4,0.3c-0.4,0-0.8-0.1-1.1-0.3S71-9,70.9-9.3C70.7-9.6,70.6-9.9,70.6-10.2z
				 M74.8-9.8c0.1-0.1,0.2-0.2,0.2-0.3s0.1-0.2,0.1-0.3v-0.9c-0.3-0.1-0.6-0.2-0.8-0.2s-0.6-0.1-0.9-0.1c-0.6,0-1.1,0.1-1.4,0.3
				c-0.4,0.2-0.5,0.5-0.5,0.9c0,0.2,0.1,0.4,0.2,0.6c0.1,0.2,0.3,0.4,0.5,0.5c0.2,0.1,0.5,0.2,0.8,0.2c0.4,0,0.8-0.1,1.1-0.2
				C74.3-9.3,74.6-9.5,74.8-9.8z"/>
			<path class="st0" d="M86.3-10.8c0,0.5-0.1,0.9-0.4,1.3c-0.3,0.4-0.6,0.7-1.1,0.9c-0.5,0.2-0.9,0.3-1.5,0.3
				c-0.6,0-1.1-0.1-1.5-0.3c-0.4-0.2-0.8-0.5-1-0.9c-0.3-0.4-0.4-0.8-0.4-1.3c0-0.4,0.1-0.7,0.3-1c0.2-0.3,0.4-0.5,0.6-0.7
				s0.5-0.3,0.8-0.4c-0.2-0.1-0.5-0.2-0.7-0.4c-0.2-0.2-0.4-0.4-0.5-0.6c-0.1-0.2-0.2-0.5-0.2-0.8c0-0.4,0.1-0.7,0.2-0.9
				c0.2-0.3,0.4-0.5,0.6-0.7c0.3-0.2,0.5-0.3,0.9-0.4c0.3-0.1,0.6-0.1,1-0.1c0.3,0,0.6,0,0.9,0.1c0.3,0.1,0.6,0.2,0.9,0.4
				s0.5,0.4,0.6,0.7c0.2,0.3,0.2,0.6,0.2,0.9c0,0.3-0.1,0.5-0.2,0.8c-0.1,0.2-0.3,0.4-0.5,0.6s-0.5,0.3-0.7,0.4
				c0.3,0.1,0.6,0.3,0.9,0.5c0.3,0.2,0.5,0.5,0.6,0.8S86.3-11.2,86.3-10.8z M85.5-10.9c0-0.3-0.1-0.5-0.2-0.8S85-12,84.8-12.2
				c-0.2-0.2-0.4-0.3-0.7-0.3s-0.5-0.1-0.8-0.1c-0.3,0-0.7,0.1-1,0.2c-0.3,0.1-0.6,0.4-0.8,0.6c-0.2,0.3-0.3,0.6-0.3,1
				c0,0.3,0.1,0.5,0.2,0.7s0.3,0.4,0.5,0.6c0.2,0.2,0.4,0.3,0.7,0.4c0.3,0.1,0.5,0.1,0.8,0.1c0.3,0,0.7-0.1,1-0.2
				c0.3-0.1,0.6-0.4,0.8-0.6S85.5-10.5,85.5-10.9z M81.5-14.8c0,0.3,0.1,0.6,0.3,0.8c0.2,0.2,0.4,0.4,0.7,0.5s0.6,0.2,0.8,0.2
				c0.3,0,0.6-0.1,0.9-0.2c0.3-0.1,0.5-0.3,0.7-0.5c0.2-0.2,0.3-0.5,0.3-0.8c0-0.3-0.1-0.6-0.3-0.8s-0.4-0.4-0.7-0.5
				c-0.3-0.1-0.6-0.2-0.9-0.2c-0.3,0-0.6,0.1-0.9,0.2c-0.3,0.1-0.5,0.3-0.7,0.5S81.5-15.1,81.5-14.8z"/>
			<path class="st0" d="M93.6-11.9c0,0.7-0.1,1.3-0.4,1.9s-0.6,1-1.1,1.3c-0.5,0.3-1,0.5-1.6,0.5c-0.6,0-1.1-0.2-1.5-0.5
				c-0.5-0.3-0.8-0.7-1.1-1.3c-0.3-0.5-0.4-1.2-0.4-1.9c0-0.7,0.1-1.3,0.4-1.9c0.3-0.5,0.6-1,1.1-1.3c0.5-0.3,1-0.5,1.5-0.5
				c0.6,0,1.1,0.2,1.6,0.5c0.5,0.3,0.8,0.7,1.1,1.3C93.5-13.2,93.6-12.6,93.6-11.9z M92.8-11.9c0-0.6-0.1-1-0.3-1.5
				c-0.2-0.4-0.4-0.8-0.8-1s-0.7-0.4-1.1-0.4s-0.8,0.1-1.1,0.4c-0.3,0.2-0.6,0.6-0.8,1c-0.2,0.4-0.3,0.9-0.3,1.5
				c0,0.6,0.1,1,0.3,1.5c0.2,0.4,0.4,0.8,0.8,1c0.3,0.2,0.7,0.4,1.1,0.4s0.8-0.1,1.1-0.4c0.3-0.2,0.6-0.6,0.8-1
				C92.7-10.9,92.8-11.3,92.8-11.9z"/>
		</g>
	</g>
	<g>
		<g>
			<path class="st0" d="M-418.9,8.6V1.6L-422,7h-0.5l-3.1-5.4v6.9h-0.8V0h0.9l3.3,5.8L-419,0h0.9v8.5H-418.9z"/>
			<path class="st0" d="M-413.5,8.7c-0.5,0-0.9-0.1-1.3-0.3s-0.7-0.4-1-0.7c-0.3-0.3-0.5-0.6-0.6-1c-0.2-0.4-0.2-0.8-0.2-1.2
				c0-0.4,0.1-0.9,0.2-1.2c0.2-0.4,0.4-0.7,0.6-1c0.3-0.3,0.6-0.5,1-0.7s0.8-0.3,1.2-0.3c0.4,0,0.9,0.1,1.2,0.3s0.7,0.4,1,0.7
				c0.3,0.3,0.5,0.6,0.6,1c0.2,0.4,0.2,0.8,0.2,1.2c0,0.4-0.1,0.8-0.2,1.2c-0.2,0.4-0.4,0.7-0.6,1c-0.3,0.3-0.6,0.5-1,0.7
				S-413,8.7-413.5,8.7z M-415.7,5.5c0,0.5,0.1,0.9,0.3,1.3c0.2,0.4,0.5,0.7,0.8,0.9c0.3,0.2,0.7,0.3,1.1,0.3s0.8-0.1,1.1-0.3
				c0.3-0.2,0.6-0.5,0.8-0.9c0.2-0.4,0.3-0.8,0.3-1.3c0-0.5-0.1-0.9-0.3-1.3c-0.2-0.4-0.5-0.7-0.8-0.9c-0.3-0.2-0.7-0.3-1.1-0.3
				s-0.8,0.1-1.1,0.3c-0.3,0.2-0.6,0.5-0.8,0.9C-415.6,4.6-415.7,5-415.7,5.5z"/>
			<path class="st0" d="M-409,8.6V2.3h0.8V5h3.6V2.3h0.8v6.2h-0.8V5.7h-3.6v2.8H-409z"/>
			<path class="st0" d="M-400.4,8.6V3.1h-2.2V2.3h5.3v0.7h-2.2v5.5H-400.4z"/>
			<path class="st0" d="M-396.8,6.8c0-0.4,0.1-0.7,0.3-1c0.2-0.3,0.5-0.5,0.9-0.7c0.4-0.2,0.9-0.2,1.4-0.2c0.3,0,0.6,0,0.9,0.1
				c0.3,0,0.6,0.1,0.9,0.2V4.6c0-0.5-0.2-0.9-0.5-1.3c-0.3-0.3-0.7-0.5-1.3-0.5c-0.3,0-0.7,0.1-1,0.2c-0.3,0.1-0.7,0.3-1,0.5
				l-0.3-0.6c0.4-0.3,0.8-0.5,1.2-0.6c0.4-0.1,0.8-0.2,1.2-0.2c0.8,0,1.4,0.2,1.8,0.7c0.4,0.4,0.7,1,0.7,1.8v2.9
				c0,0.1,0,0.2,0.1,0.2s0.1,0.1,0.2,0.1v0.6c-0.1,0-0.2,0-0.2,0c-0.1,0-0.1,0-0.1,0c-0.2,0-0.4-0.1-0.5-0.2
				c-0.1-0.1-0.2-0.2-0.2-0.4l0-0.5c-0.3,0.4-0.6,0.6-1.1,0.8c-0.4,0.2-0.9,0.3-1.4,0.3c-0.4,0-0.8-0.1-1.1-0.3s-0.6-0.4-0.8-0.7
				C-396.7,7.4-396.8,7.1-396.8,6.8z M-392.6,7.2c0.1-0.1,0.2-0.2,0.2-0.3s0.1-0.2,0.1-0.3V5.7c-0.3-0.1-0.6-0.2-0.8-0.2
				s-0.6-0.1-0.9-0.1c-0.6,0-1.1,0.1-1.4,0.3c-0.4,0.2-0.5,0.5-0.5,0.9c0,0.2,0.1,0.4,0.2,0.6c0.1,0.2,0.3,0.4,0.5,0.5
				c0.2,0.1,0.5,0.2,0.8,0.2c0.4,0,0.8-0.1,1.1-0.2C-393,7.7-392.8,7.5-392.6,7.2z"/>
			<path class="st0" d="M-390.2,8.6l2.3-3.2l-2.1-3h0.9l1.9,2.7h0.8V2.3h0.8V5h0.8l1.8-2.7h0.9l-2.1,3l2.4,3.2h-0.9l-2.1-2.8h-0.8
				v2.8h-0.8V5.7h-0.8l-2.1,2.8H-390.2z"/>
			<path class="st0" d="M-380.3,8.6V2.3h0.8V5h0.9l2.1-2.7h0.9l-2.4,3l2.7,3.2h-1l-2.4-2.8h-0.9v2.8H-380.3z"/>
			<path class="st0" d="M-374.5,6.8c0-0.4,0.1-0.7,0.3-1c0.2-0.3,0.5-0.5,0.9-0.7c0.4-0.2,0.9-0.2,1.4-0.2c0.3,0,0.6,0,0.9,0.1
				c0.3,0,0.6,0.1,0.9,0.2V4.6c0-0.5-0.2-0.9-0.5-1.3c-0.3-0.3-0.7-0.5-1.3-0.5c-0.3,0-0.7,0.1-1,0.2c-0.3,0.1-0.7,0.3-1,0.5
				l-0.3-0.6c0.4-0.3,0.8-0.5,1.2-0.6c0.4-0.1,0.8-0.2,1.2-0.2c0.8,0,1.4,0.2,1.8,0.7c0.4,0.4,0.7,1,0.7,1.8v2.9
				c0,0.1,0,0.2,0.1,0.2s0.1,0.1,0.2,0.1v0.6c-0.1,0-0.2,0-0.2,0c-0.1,0-0.1,0-0.1,0c-0.2,0-0.4-0.1-0.5-0.2
				c-0.1-0.1-0.2-0.2-0.2-0.4l0-0.5c-0.3,0.4-0.6,0.6-1.1,0.8c-0.4,0.2-0.9,0.3-1.4,0.3c-0.4,0-0.8-0.1-1.1-0.3s-0.6-0.4-0.8-0.7
				C-374.4,7.4-374.5,7.1-374.5,6.8z M-370.3,7.2c0.1-0.1,0.2-0.2,0.2-0.3s0.1-0.2,0.1-0.3V5.7c-0.3-0.1-0.6-0.2-0.8-0.2
				s-0.6-0.1-0.9-0.1c-0.6,0-1.1,0.1-1.4,0.3c-0.4,0.2-0.5,0.5-0.5,0.9c0,0.2,0.1,0.4,0.2,0.6c0.1,0.2,0.3,0.4,0.5,0.5
				c0.2,0.1,0.5,0.2,0.8,0.2c0.4,0,0.8-0.1,1.1-0.2C-370.8,7.7-370.5,7.5-370.3,7.2z"/>
			<path class="st0" d="M-362.2,10.3c-0.6,0-1.1-0.1-1.6-0.5c-0.5-0.3-0.9-0.7-1.1-1.2l0.5-0.4c0.2,0.4,0.5,0.7,0.9,0.9
				c0.4,0.2,0.8,0.4,1.3,0.4c0.4,0,0.8-0.1,1.1-0.3c0.3-0.2,0.6-0.4,0.8-0.7c0.2-0.3,0.3-0.7,0.3-1.1c0-0.4-0.1-0.7-0.3-1
				c-0.2-0.3-0.4-0.5-0.7-0.7c-0.3-0.2-0.7-0.3-1-0.3c-0.4,0-0.7,0.1-1.1,0.2c-0.3,0.2-0.6,0.4-0.8,0.7h-0.8l0.9-4.8h4.1v0.8h-3.5
				l-0.6,3.1c0.2-0.2,0.5-0.4,0.8-0.5s0.6-0.2,1-0.2c0.5,0,1,0.1,1.4,0.3s0.8,0.6,1,1c0.2,0.4,0.4,0.9,0.4,1.4
				c0,0.6-0.1,1.1-0.4,1.5c-0.3,0.4-0.6,0.8-1.1,1C-361.1,10.2-361.6,10.3-362.2,10.3z"/>
			<path class="st0" d="M-352.1,5.1c0,0.7-0.1,1.3-0.4,1.9s-0.6,1-1.1,1.3c-0.5,0.3-1,0.5-1.6,0.5c-0.6,0-1.1-0.2-1.5-0.5
				c-0.5-0.3-0.8-0.7-1.1-1.3c-0.3-0.5-0.4-1.2-0.4-1.9c0-0.7,0.1-1.3,0.4-1.9c0.3-0.5,0.6-1,1.1-1.3c0.5-0.3,1-0.5,1.5-0.5
				c0.6,0,1.1,0.2,1.6,0.5c0.5,0.3,0.8,0.7,1.1,1.3C-352.2,3.8-352.1,4.4-352.1,5.1z M-352.9,5.1c0-0.6-0.1-1-0.3-1.5
				c-0.2-0.4-0.4-0.8-0.8-1s-0.7-0.4-1.1-0.4s-0.8,0.1-1.1,0.4c-0.3,0.2-0.6,0.6-0.8,1c-0.2,0.4-0.3,0.9-0.3,1.5
				c0,0.6,0.1,1,0.3,1.5c0.2,0.4,0.4,0.8,0.8,1c0.3,0.2,0.7,0.4,1.1,0.4s0.8-0.1,1.1-0.4c0.3-0.2,0.6-0.6,0.8-1
				C-353,6.1-352.9,5.7-352.9,5.1z"/>
			<path class="st0" d="M-347.5,8.6V2.3h0.8V5h3.6V2.3h0.8v6.2h-0.8V5.7h-3.6v2.8H-347.5z"/>
			<path class="st0" d="M-341,6.8c0-0.4,0.1-0.7,0.3-1c0.2-0.3,0.5-0.5,0.9-0.7c0.4-0.2,0.9-0.2,1.4-0.2c0.3,0,0.6,0,0.9,0.1
				c0.3,0,0.6,0.1,0.9,0.2V4.6c0-0.5-0.2-0.9-0.5-1.3c-0.3-0.3-0.7-0.5-1.3-0.5c-0.3,0-0.7,0.1-1,0.2c-0.3,0.1-0.7,0.3-1,0.5
				l-0.3-0.6c0.4-0.3,0.8-0.5,1.2-0.6c0.4-0.1,0.8-0.2,1.2-0.2c0.8,0,1.4,0.2,1.8,0.7c0.4,0.4,0.7,1,0.7,1.8v2.9
				c0,0.1,0,0.2,0.1,0.2s0.1,0.1,0.2,0.1v0.6c-0.1,0-0.2,0-0.2,0c-0.1,0-0.1,0-0.1,0c-0.2,0-0.4-0.1-0.5-0.2
				c-0.1-0.1-0.2-0.2-0.2-0.4l0-0.5c-0.3,0.4-0.6,0.6-1.1,0.8c-0.4,0.2-0.9,0.3-1.4,0.3c-0.4,0-0.8-0.1-1.1-0.3s-0.6-0.4-0.8-0.7
				C-340.9,7.4-341,7.1-341,6.8z M-336.8,7.2c0.1-0.1,0.2-0.2,0.2-0.3s0.1-0.2,0.1-0.3V5.7c-0.3-0.1-0.6-0.2-0.8-0.2
				s-0.6-0.1-0.9-0.1c-0.6,0-1.1,0.1-1.4,0.3c-0.4,0.2-0.5,0.5-0.5,0.9c0,0.2,0.1,0.4,0.2,0.6c0.1,0.2,0.3,0.4,0.5,0.5
				c0.2,0.1,0.5,0.2,0.8,0.2c0.4,0,0.8-0.1,1.1-0.2C-337.2,7.7-337,7.5-336.8,7.2z"/>
			<path class="st0" d="M-328.6,10.3c-0.6,0-1.1-0.1-1.6-0.5c-0.5-0.3-0.9-0.7-1.1-1.2l0.5-0.4c0.2,0.4,0.5,0.7,0.9,0.9
				c0.4,0.2,0.8,0.4,1.3,0.4c0.4,0,0.8-0.1,1.1-0.3c0.3-0.2,0.6-0.4,0.8-0.7c0.2-0.3,0.3-0.7,0.3-1.1c0-0.4-0.1-0.7-0.3-1
				c-0.2-0.3-0.4-0.5-0.7-0.7c-0.3-0.2-0.7-0.3-1-0.3c-0.4,0-0.7,0.1-1.1,0.2c-0.3,0.2-0.6,0.4-0.8,0.7h-0.8l0.9-4.8h4.1v0.8h-3.5
				l-0.6,3.1c0.2-0.2,0.5-0.4,0.8-0.5s0.6-0.2,1-0.2c0.5,0,1,0.1,1.4,0.3s0.8,0.6,1,1c0.2,0.4,0.4,0.9,0.4,1.4
				c0,0.6-0.1,1.1-0.4,1.5c-0.3,0.4-0.6,0.8-1.1,1C-327.6,10.2-328.1,10.3-328.6,10.3z"/>
			<path class="st0" d="M-318.6,5.1c0,0.7-0.1,1.3-0.4,1.9s-0.6,1-1.1,1.3c-0.5,0.3-1,0.5-1.6,0.5c-0.6,0-1.1-0.2-1.5-0.5
				c-0.5-0.3-0.8-0.7-1.1-1.3c-0.3-0.5-0.4-1.2-0.4-1.9c0-0.7,0.1-1.3,0.4-1.9c0.3-0.5,0.6-1,1.1-1.3c0.5-0.3,1-0.5,1.5-0.5
				c0.6,0,1.1,0.2,1.6,0.5c0.5,0.3,0.8,0.7,1.1,1.3C-318.7,3.8-318.6,4.4-318.6,5.1z M-319.4,5.1c0-0.6-0.1-1-0.3-1.5
				c-0.2-0.4-0.4-0.8-0.8-1s-0.7-0.4-1.1-0.4s-0.8,0.1-1.1,0.4c-0.3,0.2-0.6,0.6-0.8,1c-0.2,0.4-0.3,0.9-0.3,1.5
				c0,0.6,0.1,1,0.3,1.5c0.2,0.4,0.4,0.8,0.8,1c0.3,0.2,0.7,0.4,1.1,0.4s0.8-0.1,1.1-0.4c0.3-0.2,0.6-0.6,0.8-1
				C-319.5,6.1-319.4,5.7-319.4,5.1z"/>
		</g>
	</g>
	<g>
		<g>
			<path class="st0" d="M-414-180.4v-8.5h0.8v7.4l5.3-7.4h0.8v8.5h-0.8v-7.2l-5.2,7.2H-414z"/>
			<path class="st0" d="M-405.1-180.4v-6.2h0.8v2.7h0.9l2.1-2.7h0.9l-2.4,3l2.7,3.2h-1l-2.4-2.8h-0.9v2.8H-405.1z"/>
			<path class="st0" d="M-396.2-180.3c-0.5,0-0.9-0.1-1.3-0.3s-0.7-0.4-1-0.7c-0.3-0.3-0.5-0.6-0.6-1c-0.2-0.4-0.2-0.8-0.2-1.2
				c0-0.4,0.1-0.9,0.2-1.2c0.2-0.4,0.4-0.7,0.6-1c0.3-0.3,0.6-0.5,1-0.7s0.8-0.3,1.2-0.3c0.4,0,0.9,0.1,1.2,0.3s0.7,0.4,1,0.7
				c0.3,0.3,0.5,0.6,0.6,1c0.2,0.4,0.2,0.8,0.2,1.2c0,0.4-0.1,0.8-0.2,1.2c-0.2,0.4-0.4,0.7-0.6,1c-0.3,0.3-0.6,0.5-1,0.7
				S-395.8-180.3-396.2-180.3z M-398.5-183.5c0,0.5,0.1,0.9,0.3,1.3c0.2,0.4,0.5,0.7,0.8,0.9c0.3,0.2,0.7,0.3,1.1,0.3
				s0.8-0.1,1.1-0.3c0.3-0.2,0.6-0.5,0.8-0.9c0.2-0.4,0.3-0.8,0.3-1.3c0-0.5-0.1-0.9-0.3-1.3c-0.2-0.4-0.5-0.7-0.8-0.9
				c-0.3-0.2-0.7-0.3-1.1-0.3s-0.8,0.1-1.1,0.3c-0.3,0.2-0.6,0.5-0.8,0.9C-398.4-184.4-398.5-184-398.5-183.5z"/>
			<path class="st0" d="M-391.8-180.4v-6.2h0.8v2.7h3.6v-2.7h0.8v6.2h-0.8v-2.8h-3.6v2.8H-391.8z"/>
			<path class="st0" d="M-384.8-180.4v-6.2h0.8v2.7h0.9l2.1-2.7h0.9l-2.4,3l2.7,3.2h-1l-2.4-2.8h-0.9v2.8H-384.8z"/>
			<path class="st0" d="M-378.5-180.4v-6.2h0.8v5.1l3.8-5.1h0.7v6.2h-0.8v-5l-3.7,5H-378.5z"/>
			<path class="st0" d="M-369-179v-2.2h0.1c0.2,0,0.4-0.1,0.5-0.2c0.2-0.1,0.3-0.3,0.4-0.6s0.2-0.7,0.3-1.2s0.1-1.1,0.2-1.9l0.1-1.7
				h4.1v5.5h0.8v2.2h-0.7v-1.5h-5v1.5H-369z M-367.7-181.2h3.4v-4.8h-2.5l0,1.1c0,0.7-0.1,1.4-0.2,1.9c-0.1,0.5-0.2,0.9-0.3,1.2
				C-367.4-181.5-367.5-181.3-367.7-181.2z"/>
			<path class="st0" d="M-362-180.4v-0.7c0.2,0,0.4-0.1,0.6-0.2s0.3-0.3,0.5-0.6s0.2-0.7,0.3-1.1s0.1-1.1,0.2-1.9l0.1-1.7h4.1v6.2
				h-0.8v-5.5h-2.5l0,1.1c0,0.9-0.1,1.6-0.2,2.1c-0.1,0.6-0.2,1-0.4,1.4s-0.4,0.6-0.7,0.7C-361.3-180.5-361.6-180.4-362-180.4z"/>
			<path class="st0" d="M-355-180.4l1.9-2.5c-0.4-0.1-0.8-0.2-1-0.6c-0.3-0.3-0.4-0.7-0.4-1.3c0-0.4,0.1-0.7,0.3-1
				c0.2-0.3,0.4-0.5,0.7-0.7c0.3-0.2,0.7-0.3,1.1-0.3h2.4v6.2h-0.8v-2.4h-1.4l-1.8,2.4H-355z M-352.5-183.5h1.6v-2.5h-1.4
				c-0.4,0-0.7,0.1-1,0.4c-0.2,0.2-0.4,0.5-0.4,0.9c0,0.4,0.1,0.7,0.3,0.9C-353.2-183.6-352.9-183.5-352.5-183.5z"/>
			<path class="st0" d="M-345.3-180.4v-6.2h0.8v2.7h0.9l2.1-2.7h0.9l-2.4,3l2.7,3.2h-1l-2.4-2.8h-0.9v2.8H-345.3z"/>
			<path class="st0" d="M-339.5-182.2c0-0.4,0.1-0.7,0.3-1c0.2-0.3,0.5-0.5,0.9-0.7c0.4-0.2,0.9-0.2,1.4-0.2c0.3,0,0.6,0,0.9,0.1
				c0.3,0,0.6,0.1,0.9,0.2v-0.5c0-0.5-0.2-0.9-0.5-1.3c-0.3-0.3-0.7-0.5-1.3-0.5c-0.3,0-0.7,0.1-1,0.2c-0.3,0.1-0.7,0.3-1,0.5
				l-0.3-0.6c0.4-0.3,0.8-0.5,1.2-0.6c0.4-0.1,0.8-0.2,1.2-0.2c0.8,0,1.4,0.2,1.8,0.7c0.4,0.4,0.7,1,0.7,1.8v2.9
				c0,0.1,0,0.2,0.1,0.2s0.1,0.1,0.2,0.1v0.6c-0.1,0-0.2,0-0.2,0c-0.1,0-0.1,0-0.1,0c-0.2,0-0.4-0.1-0.5-0.2
				c-0.1-0.1-0.2-0.2-0.2-0.4l0-0.5c-0.3,0.4-0.6,0.6-1.1,0.8c-0.4,0.2-0.9,0.3-1.4,0.3c-0.4,0-0.8-0.1-1.1-0.3s-0.6-0.4-0.8-0.7
				C-339.4-181.6-339.5-181.9-339.5-182.2z M-335.3-181.8c0.1-0.1,0.2-0.2,0.2-0.3s0.1-0.2,0.1-0.3v-0.9c-0.3-0.1-0.6-0.2-0.8-0.2
				s-0.6-0.1-0.9-0.1c-0.6,0-1.1,0.1-1.4,0.3c-0.4,0.2-0.5,0.5-0.5,0.9c0,0.2,0.1,0.4,0.2,0.6c0.1,0.2,0.3,0.4,0.5,0.5
				c0.2,0.1,0.5,0.2,0.8,0.2c0.4,0,0.8-0.1,1.1-0.2C-335.8-181.3-335.5-181.5-335.3-181.8z"/>
			<path class="st0" d="M-329.3-180.3c-0.5,0-1-0.1-1.4-0.4c-0.4-0.3-0.7-0.6-1-1v3.8h-0.8v-8.8h0.7v1.2c0.2-0.4,0.6-0.7,1-0.9
				s0.9-0.4,1.3-0.4c0.4,0,0.8,0.1,1.2,0.3c0.4,0.2,0.7,0.4,0.9,0.7s0.5,0.6,0.6,1c0.1,0.4,0.2,0.8,0.2,1.2c0,0.6-0.1,1.1-0.4,1.6
				c-0.2,0.5-0.6,0.9-1,1.2C-328.2-180.5-328.7-180.3-329.3-180.3z M-329.5-181c0.3,0,0.7-0.1,0.9-0.2c0.3-0.1,0.5-0.3,0.7-0.6
				c0.2-0.2,0.3-0.5,0.5-0.8c0.1-0.3,0.2-0.6,0.2-0.9c0-0.3-0.1-0.7-0.2-1s-0.3-0.6-0.5-0.8c-0.2-0.2-0.5-0.4-0.7-0.5
				c-0.3-0.1-0.6-0.2-0.9-0.2c-0.2,0-0.4,0-0.6,0.1c-0.2,0.1-0.4,0.2-0.6,0.3c-0.2,0.1-0.4,0.3-0.5,0.5s-0.2,0.4-0.3,0.6v1.9
				c0.1,0.3,0.3,0.6,0.5,0.8c0.2,0.2,0.5,0.4,0.8,0.6C-330.1-181.1-329.8-181-329.5-181z"/>
			<path class="st0" d="M-323.5-180.4v-5.5h-2.2v-0.7h5.3v0.7h-2.2v5.5H-323.5z"/>
			<path class="st0" d="M-316.7-180.3c-0.5,0-0.9-0.1-1.3-0.3s-0.7-0.4-1-0.7c-0.3-0.3-0.5-0.6-0.6-1c-0.2-0.4-0.2-0.8-0.2-1.2
				c0-0.4,0.1-0.9,0.2-1.2c0.2-0.4,0.4-0.7,0.6-1s0.6-0.5,1-0.7s0.8-0.3,1.2-0.3s0.9,0.1,1.2,0.3s0.7,0.4,1,0.7s0.5,0.6,0.6,1
				c0.2,0.4,0.2,0.8,0.2,1.2c0,0.4-0.1,0.8-0.2,1.2c-0.2,0.4-0.4,0.7-0.6,1c-0.3,0.3-0.6,0.5-1,0.7
				C-315.8-180.4-316.2-180.3-316.7-180.3z M-319-183.5c0,0.5,0.1,0.9,0.3,1.3c0.2,0.4,0.5,0.7,0.8,0.9c0.3,0.2,0.7,0.3,1.1,0.3
				c0.4,0,0.8-0.1,1.1-0.3s0.6-0.5,0.8-0.9c0.2-0.4,0.3-0.8,0.3-1.3c0-0.5-0.1-0.9-0.3-1.3s-0.5-0.7-0.8-0.9
				c-0.3-0.2-0.7-0.3-1.1-0.3c-0.4,0-0.8,0.1-1.1,0.3c-0.3,0.2-0.6,0.5-0.8,0.9C-318.9-184.4-319-184-319-183.5z"/>
			<path class="st0" d="M-308.6-180.4v-2.6c-0.3,0.1-0.5,0.2-0.8,0.3s-0.6,0.1-0.9,0.1c-0.7,0-1.2-0.2-1.6-0.5
				c-0.3-0.4-0.5-0.9-0.5-1.6v-1.8h0.8v1.7c0,0.6,0.1,1,0.3,1.2c0.2,0.3,0.6,0.4,1.1,0.4c0.3,0,0.6,0,0.8-0.1
				c0.3-0.1,0.5-0.1,0.7-0.3v-3h0.8v6.2H-308.6z"/>
			<path class="st0" d="M-303.3-180.3c-0.4,0-0.9-0.1-1.2-0.3c-0.4-0.2-0.7-0.4-1-0.7c-0.3-0.3-0.5-0.6-0.7-1s-0.2-0.8-0.2-1.3
				c0-0.6,0.1-1.1,0.4-1.6c0.3-0.5,0.6-0.9,1.1-1.2c0.5-0.3,1-0.4,1.6-0.4c0.6,0,1.2,0.1,1.6,0.4s0.8,0.7,1.1,1.2
				c0.3,0.5,0.4,1,0.4,1.6c0,0.1,0,0.1,0,0.2s0,0.1,0,0.1h-5.4c0,0.4,0.2,0.8,0.4,1.2s0.5,0.6,0.8,0.8c0.3,0.2,0.7,0.3,1.1,0.3
				c0.4,0,0.8-0.1,1.2-0.3s0.6-0.5,0.8-0.8l0.7,0.2c-0.1,0.3-0.3,0.6-0.6,0.8c-0.3,0.2-0.6,0.4-0.9,0.6
				C-302.5-180.4-302.9-180.3-303.3-180.3z M-305.6-183.9h4.6c0-0.5-0.2-0.8-0.4-1.2c-0.2-0.3-0.5-0.6-0.8-0.8s-0.7-0.3-1.1-0.3
				c-0.4,0-0.8,0.1-1.1,0.3s-0.6,0.5-0.8,0.8C-305.5-184.7-305.6-184.3-305.6-183.9z"/>
			<path class="st0" d="M-299-180.4v-6.2h0.8v2.7h0.9l2.1-2.7h0.9l-2.4,3l2.7,3.2h-1l-2.4-2.8h-0.9v2.8H-299z"/>
			<path class="st0" d="M-289-177.9c-0.1,0-0.3,0-0.4-0.1c-0.1,0-0.3-0.1-0.4-0.2l0.3-0.6c0.1,0,0.2,0.1,0.2,0.1c0.1,0,0.2,0,0.2,0
				c0.2,0,0.4-0.1,0.6-0.3c0.2-0.2,0.4-0.5,0.5-0.9l0.3-0.8l-2.8-6.1h0.9l2.3,5.4l2.1-5.4h0.8l-3,7.2c-0.2,0.4-0.3,0.7-0.5,0.9
				c-0.2,0.2-0.4,0.4-0.6,0.5C-288.6-177.9-288.8-177.9-289-177.9z"/>
			<path class="st0" d="M-280.5-180.3c-0.5,0-0.9-0.1-1.3-0.3c-0.4-0.2-0.7-0.4-1-0.7c-0.3-0.3-0.5-0.6-0.7-1s-0.2-0.8-0.2-1.2
				c0-0.6,0.1-1.1,0.4-1.6c0.3-0.5,0.6-0.9,1.1-1.2c0.5-0.3,1-0.4,1.6-0.4c0.6,0,1.1,0.1,1.5,0.4c0.4,0.3,0.8,0.6,1,1.1l-0.8,0.3
				c-0.2-0.3-0.4-0.6-0.7-0.8c-0.3-0.2-0.7-0.3-1-0.3c-0.4,0-0.8,0.1-1.1,0.3s-0.6,0.5-0.8,0.9c-0.2,0.4-0.3,0.8-0.3,1.3
				c0,0.5,0.1,0.9,0.3,1.3c0.2,0.4,0.5,0.7,0.8,0.9c0.3,0.2,0.7,0.3,1.1,0.3c0.3,0,0.5,0,0.8-0.1c0.3-0.1,0.5-0.2,0.7-0.4
				c0.2-0.2,0.3-0.3,0.4-0.5l0.8,0.2c-0.1,0.3-0.3,0.6-0.6,0.8c-0.3,0.2-0.6,0.4-0.9,0.6C-279.7-180.4-280.1-180.3-280.5-180.3z"/>
			<path class="st0" d="M-277.2-180.4v-0.7c0.2,0,0.4-0.1,0.6-0.2s0.3-0.3,0.5-0.6s0.2-0.7,0.3-1.1s0.1-1.1,0.2-1.9l0.1-1.7h4.1v6.2
				h-0.8v-5.5h-2.5l0,1.1c0,0.9-0.1,1.6-0.2,2.1c-0.1,0.6-0.2,1-0.4,1.4c-0.2,0.3-0.4,0.6-0.7,0.7
				C-276.5-180.5-276.8-180.4-277.2-180.4z"/>
			<path class="st0" d="M-269.1-177.9c-0.1,0-0.3,0-0.4-0.1c-0.1,0-0.3-0.1-0.4-0.2l0.3-0.6c0.1,0,0.2,0.1,0.2,0.1
				c0.1,0,0.2,0,0.2,0c0.2,0,0.4-0.1,0.6-0.3c0.2-0.2,0.4-0.5,0.5-0.9l0.3-0.8l-2.8-6.1h0.9l2.3,5.4l2.1-5.4h0.8l-3,7.2
				c-0.2,0.4-0.3,0.7-0.5,0.9c-0.2,0.2-0.4,0.4-0.6,0.5C-268.6-177.9-268.9-177.9-269.1-177.9z"/>
			<path class="st0" d="M-263.3-180.4v-6.2h3.7v0.7h-2.9v5.5H-263.3z"/>
		</g>
	</g>
	<g>
		<g>
			<path class="st0" d="M-420-264.4v-8.5h0.8v7.4l5.3-7.4h0.8v8.5h-0.8v-7.2l-5.2,7.2H-420z"/>
			<path class="st0" d="M-411.1-264.4v-6.2h0.8v2.7h0.9l2.1-2.7h0.9l-2.4,3l2.7,3.2h-1l-2.4-2.8h-0.9v2.8H-411.1z"/>
			<path class="st0" d="M-402.2-264.3c-0.5,0-0.9-0.1-1.3-0.3s-0.7-0.4-1-0.7c-0.3-0.3-0.5-0.6-0.6-1c-0.2-0.4-0.2-0.8-0.2-1.2
				c0-0.4,0.1-0.9,0.2-1.2c0.2-0.4,0.4-0.7,0.6-1c0.3-0.3,0.6-0.5,1-0.7s0.8-0.3,1.2-0.3c0.4,0,0.9,0.1,1.2,0.3s0.7,0.4,1,0.7
				c0.3,0.3,0.5,0.6,0.6,1c0.2,0.4,0.2,0.8,0.2,1.2c0,0.4-0.1,0.8-0.2,1.2c-0.2,0.4-0.4,0.7-0.6,1c-0.3,0.3-0.6,0.5-1,0.7
				S-401.8-264.3-402.2-264.3z M-404.5-267.5c0,0.5,0.1,0.9,0.3,1.3c0.2,0.4,0.5,0.7,0.8,0.9c0.3,0.2,0.7,0.3,1.1,0.3
				s0.8-0.1,1.1-0.3c0.3-0.2,0.6-0.5,0.8-0.9c0.2-0.4,0.3-0.8,0.3-1.3c0-0.5-0.1-0.9-0.3-1.3c-0.2-0.4-0.5-0.7-0.8-0.9
				c-0.3-0.2-0.7-0.3-1.1-0.3s-0.8,0.1-1.1,0.3c-0.3,0.2-0.6,0.5-0.8,0.9C-404.4-268.4-404.5-268-404.5-267.5z"/>
			<path class="st0" d="M-397.8-264.4v-6.2h0.8v2.7h3.6v-2.7h0.8v6.2h-0.8v-2.8h-3.6v2.8H-397.8z"/>
			<path class="st0" d="M-390.8-264.4v-6.2h0.8v2.7h0.9l2.1-2.7h0.9l-2.4,3l2.7,3.2h-1l-2.4-2.8h-0.9v2.8H-390.8z"/>
			<path class="st0" d="M-384.5-264.4v-6.2h0.8v5.1l3.8-5.1h0.7v6.2h-0.8v-5l-3.7,5H-384.5z"/>
			<path class="st0" d="M-375-263v-2.2h0.1c0.2,0,0.4-0.1,0.5-0.2c0.2-0.1,0.3-0.3,0.4-0.6s0.2-0.7,0.3-1.2s0.1-1.1,0.2-1.9l0.1-1.7
				h4.1v5.5h0.8v2.2h-0.7v-1.5h-5v1.5H-375z M-373.7-265.2h3.4v-4.8h-2.5l0,1.1c0,0.7-0.1,1.4-0.2,1.9c-0.1,0.5-0.2,0.9-0.3,1.2
				C-373.4-265.5-373.5-265.3-373.7-265.2z"/>
			<path class="st0" d="M-368-264.4v-0.7c0.2,0,0.4-0.1,0.6-0.2s0.3-0.3,0.5-0.6s0.2-0.7,0.3-1.1s0.1-1.1,0.2-1.9l0.1-1.7h4.1v6.2
				h-0.8v-5.5h-2.5l0,1.1c0,0.9-0.1,1.6-0.2,2.1c-0.1,0.6-0.2,1-0.4,1.4s-0.4,0.6-0.7,0.7C-367.3-264.5-367.6-264.4-368-264.4z"/>
			<path class="st0" d="M-361-264.4l1.9-2.5c-0.4-0.1-0.8-0.2-1-0.6c-0.3-0.3-0.4-0.7-0.4-1.3c0-0.4,0.1-0.7,0.3-1
				c0.2-0.3,0.4-0.5,0.7-0.7c0.3-0.2,0.7-0.3,1.1-0.3h2.4v6.2h-0.8v-2.4h-1.4l-1.8,2.4H-361z M-358.5-267.5h1.6v-2.5h-1.4
				c-0.4,0-0.7,0.1-1,0.4c-0.2,0.2-0.4,0.5-0.4,0.9c0,0.4,0.1,0.7,0.3,0.9C-359.2-267.6-358.9-267.5-358.5-267.5z"/>
			<path class="st0" d="M-351.3-264.4v-6.2h0.8v2.7h0.9l2.1-2.7h0.9l-2.4,3l2.7,3.2h-1l-2.4-2.8h-0.9v2.8H-351.3z"/>
			<path class="st0" d="M-345.5-266.2c0-0.4,0.1-0.7,0.3-1c0.2-0.3,0.5-0.5,0.9-0.7c0.4-0.2,0.9-0.2,1.4-0.2c0.3,0,0.6,0,0.9,0.1
				c0.3,0,0.6,0.1,0.9,0.2v-0.5c0-0.5-0.2-0.9-0.5-1.3c-0.3-0.3-0.7-0.5-1.3-0.5c-0.3,0-0.7,0.1-1,0.2c-0.3,0.1-0.7,0.3-1,0.5
				l-0.3-0.6c0.4-0.3,0.8-0.5,1.2-0.6c0.4-0.1,0.8-0.2,1.2-0.2c0.8,0,1.4,0.2,1.8,0.7c0.4,0.4,0.7,1,0.7,1.8v2.9
				c0,0.1,0,0.2,0.1,0.2s0.1,0.1,0.2,0.1v0.6c-0.1,0-0.2,0-0.2,0c-0.1,0-0.1,0-0.1,0c-0.2,0-0.4-0.1-0.5-0.2
				c-0.1-0.1-0.2-0.2-0.2-0.4l0-0.5c-0.3,0.4-0.6,0.6-1.1,0.8c-0.4,0.2-0.9,0.3-1.4,0.3c-0.4,0-0.8-0.1-1.1-0.3s-0.6-0.4-0.8-0.7
				C-345.4-265.6-345.5-265.9-345.5-266.2z M-341.3-265.8c0.1-0.1,0.2-0.2,0.2-0.3s0.1-0.2,0.1-0.3v-0.9c-0.3-0.1-0.6-0.2-0.8-0.2
				s-0.6-0.1-0.9-0.1c-0.6,0-1.1,0.1-1.4,0.3c-0.4,0.2-0.5,0.5-0.5,0.9c0,0.2,0.1,0.4,0.2,0.6c0.1,0.2,0.3,0.4,0.5,0.5
				c0.2,0.1,0.5,0.2,0.8,0.2c0.4,0,0.8-0.1,1.1-0.2C-341.8-265.3-341.5-265.5-341.3-265.8z"/>
			<path class="st0" d="M-335.3-264.3c-0.5,0-1-0.1-1.4-0.4c-0.4-0.3-0.7-0.6-1-1v3.8h-0.8v-8.8h0.7v1.2c0.2-0.4,0.6-0.7,1-0.9
				s0.9-0.4,1.3-0.4c0.4,0,0.8,0.1,1.2,0.3c0.4,0.2,0.7,0.4,0.9,0.7s0.5,0.6,0.6,1c0.1,0.4,0.2,0.8,0.2,1.2c0,0.6-0.1,1.1-0.4,1.6
				c-0.2,0.5-0.6,0.9-1,1.2C-334.2-264.5-334.7-264.3-335.3-264.3z M-335.5-265c0.3,0,0.7-0.1,0.9-0.2c0.3-0.1,0.5-0.3,0.7-0.6
				c0.2-0.2,0.3-0.5,0.5-0.8c0.1-0.3,0.2-0.6,0.2-0.9c0-0.3-0.1-0.7-0.2-1s-0.3-0.6-0.5-0.8c-0.2-0.2-0.5-0.4-0.7-0.5
				c-0.3-0.1-0.6-0.2-0.9-0.2c-0.2,0-0.4,0-0.6,0.1c-0.2,0.1-0.4,0.2-0.6,0.3c-0.2,0.1-0.4,0.3-0.5,0.5s-0.2,0.4-0.3,0.6v1.9
				c0.1,0.3,0.3,0.6,0.5,0.8c0.2,0.2,0.5,0.4,0.8,0.6C-336.1-265.1-335.8-265-335.5-265z"/>
			<path class="st0" d="M-329.5-264.4v-5.5h-2.2v-0.7h5.3v0.7h-2.2v5.5H-329.5z"/>
			<path class="st0" d="M-322.7-264.3c-0.5,0-0.9-0.1-1.3-0.3s-0.7-0.4-1-0.7c-0.3-0.3-0.5-0.6-0.6-1c-0.2-0.4-0.2-0.8-0.2-1.2
				c0-0.4,0.1-0.9,0.2-1.2c0.2-0.4,0.4-0.7,0.6-1s0.6-0.5,1-0.7s0.8-0.3,1.2-0.3s0.9,0.1,1.2,0.3s0.7,0.4,1,0.7s0.5,0.6,0.6,1
				c0.2,0.4,0.2,0.8,0.2,1.2c0,0.4-0.1,0.8-0.2,1.2c-0.2,0.4-0.4,0.7-0.6,1c-0.3,0.3-0.6,0.5-1,0.7
				C-321.8-264.4-322.2-264.3-322.7-264.3z M-325-267.5c0,0.5,0.1,0.9,0.3,1.3c0.2,0.4,0.5,0.7,0.8,0.9c0.3,0.2,0.7,0.3,1.1,0.3
				c0.4,0,0.8-0.1,1.1-0.3s0.6-0.5,0.8-0.9c0.2-0.4,0.3-0.8,0.3-1.3c0-0.5-0.1-0.9-0.3-1.3s-0.5-0.7-0.8-0.9
				c-0.3-0.2-0.7-0.3-1.1-0.3c-0.4,0-0.8,0.1-1.1,0.3c-0.3,0.2-0.6,0.5-0.8,0.9C-324.9-268.4-325-268-325-267.5z"/>
			<path class="st0" d="M-314.6-264.4v-2.6c-0.3,0.1-0.5,0.2-0.8,0.3s-0.6,0.1-0.9,0.1c-0.7,0-1.2-0.2-1.6-0.5
				c-0.3-0.4-0.5-0.9-0.5-1.6v-1.8h0.8v1.7c0,0.6,0.1,1,0.3,1.2c0.2,0.3,0.6,0.4,1.1,0.4c0.3,0,0.6,0,0.8-0.1
				c0.3-0.1,0.5-0.1,0.7-0.3v-3h0.8v6.2H-314.6z"/>
			<path class="st0" d="M-309.3-264.3c-0.4,0-0.9-0.1-1.2-0.3c-0.4-0.2-0.7-0.4-1-0.7c-0.3-0.3-0.5-0.6-0.7-1s-0.2-0.8-0.2-1.3
				c0-0.6,0.1-1.1,0.4-1.6c0.3-0.5,0.6-0.9,1.1-1.2c0.5-0.3,1-0.4,1.6-0.4c0.6,0,1.2,0.1,1.6,0.4s0.8,0.7,1.1,1.2
				c0.3,0.5,0.4,1,0.4,1.6c0,0.1,0,0.1,0,0.2s0,0.1,0,0.1h-5.4c0,0.4,0.2,0.8,0.4,1.2s0.5,0.6,0.8,0.8c0.3,0.2,0.7,0.3,1.1,0.3
				c0.4,0,0.8-0.1,1.2-0.3s0.6-0.5,0.8-0.8l0.7,0.2c-0.1,0.3-0.3,0.6-0.6,0.8c-0.3,0.2-0.6,0.4-0.9,0.6
				C-308.5-264.4-308.9-264.3-309.3-264.3z M-311.6-267.9h4.6c0-0.5-0.2-0.8-0.4-1.2c-0.2-0.3-0.5-0.6-0.8-0.8s-0.7-0.3-1.1-0.3
				c-0.4,0-0.8,0.1-1.1,0.3s-0.6,0.5-0.8,0.8C-311.5-268.7-311.6-268.3-311.6-267.9z"/>
			<path class="st0" d="M-305-264.4v-6.2h0.8v2.7h0.9l2.1-2.7h0.9l-2.4,3l2.7,3.2h-1l-2.4-2.8h-0.9v2.8H-305z"/>
			<path class="st0" d="M-295-261.9c-0.1,0-0.3,0-0.4-0.1c-0.1,0-0.3-0.1-0.4-0.2l0.3-0.6c0.1,0,0.2,0.1,0.2,0.1c0.1,0,0.2,0,0.2,0
				c0.2,0,0.4-0.1,0.6-0.3c0.2-0.2,0.4-0.5,0.5-0.9l0.3-0.8l-2.8-6.1h0.9l2.3,5.4l2.1-5.4h0.8l-3,7.2c-0.2,0.4-0.3,0.7-0.5,0.9
				c-0.2,0.2-0.4,0.4-0.6,0.5C-294.6-261.9-294.8-261.9-295-261.9z"/>
			<path class="st0" d="M-286.5-264.3c-0.5,0-0.9-0.1-1.3-0.3c-0.4-0.2-0.7-0.4-1-0.7c-0.3-0.3-0.5-0.6-0.7-1s-0.2-0.8-0.2-1.2
				c0-0.6,0.1-1.1,0.4-1.6c0.3-0.5,0.6-0.9,1.1-1.2c0.5-0.3,1-0.4,1.6-0.4c0.6,0,1.1,0.1,1.5,0.4c0.4,0.3,0.8,0.6,1,1.1l-0.8,0.3
				c-0.2-0.3-0.4-0.6-0.7-0.8c-0.3-0.2-0.7-0.3-1-0.3c-0.4,0-0.8,0.1-1.1,0.3s-0.6,0.5-0.8,0.9c-0.2,0.4-0.3,0.8-0.3,1.3
				c0,0.5,0.1,0.9,0.3,1.3c0.2,0.4,0.5,0.7,0.8,0.9c0.3,0.2,0.7,0.3,1.1,0.3c0.3,0,0.5,0,0.8-0.1c0.3-0.1,0.5-0.2,0.7-0.4
				c0.2-0.2,0.3-0.3,0.4-0.5l0.8,0.2c-0.1,0.3-0.3,0.6-0.6,0.8c-0.3,0.2-0.6,0.4-0.9,0.6C-285.7-264.4-286.1-264.3-286.5-264.3z"/>
			<path class="st0" d="M-283.2-264.4v-0.7c0.2,0,0.4-0.1,0.6-0.2s0.3-0.3,0.5-0.6s0.2-0.7,0.3-1.1s0.1-1.1,0.2-1.9l0.1-1.7h4.1v6.2
				h-0.8v-5.5h-2.5l0,1.1c0,0.9-0.1,1.6-0.2,2.1c-0.1,0.6-0.2,1-0.4,1.4c-0.2,0.3-0.4,0.6-0.7,0.7
				C-282.5-264.5-282.8-264.4-283.2-264.4z"/>
			<path class="st0" d="M-275.1-261.9c-0.1,0-0.3,0-0.4-0.1c-0.1,0-0.3-0.1-0.4-0.2l0.3-0.6c0.1,0,0.2,0.1,0.2,0.1
				c0.1,0,0.2,0,0.2,0c0.2,0,0.4-0.1,0.6-0.3c0.2-0.2,0.4-0.5,0.5-0.9l0.3-0.8l-2.8-6.1h0.9l2.3,5.4l2.1-5.4h0.8l-3,7.2
				c-0.2,0.4-0.3,0.7-0.5,0.9c-0.2,0.2-0.4,0.4-0.6,0.5C-274.6-261.9-274.9-261.9-275.1-261.9z"/>
			<path class="st0" d="M-269.3-264.4v-6.2h3.7v0.7h-2.9v5.5H-269.3z"/>
			<path class="st0" d="M-261.2-273l3,7.5l3-7.5h0.9l-3.5,8.5h-0.8l-3.5-8.5H-261.2z"/>
			<path class="st0" d="M-253.6-264.4c0-0.3,0-0.6,0.1-0.8c0-0.3,0.1-0.6,0.3-0.8c0.1-0.3,0.3-0.5,0.6-0.8c0.3-0.3,0.6-0.5,1-0.7
				c0.2-0.1,0.5-0.2,0.7-0.4c0.2-0.1,0.5-0.2,0.7-0.4c0.2-0.1,0.4-0.3,0.5-0.5s0.2-0.4,0.2-0.6c0-0.2-0.1-0.4-0.2-0.6
				s-0.3-0.4-0.5-0.5c-0.2-0.1-0.5-0.2-0.9-0.2c-0.3,0-0.5,0-0.7,0.1c-0.2,0.1-0.4,0.2-0.6,0.3c-0.2,0.1-0.3,0.2-0.4,0.3
				s-0.2,0.2-0.3,0.3l-0.5-0.6c0,0,0.1-0.1,0.3-0.3c0.1-0.1,0.3-0.3,0.5-0.4c0.2-0.1,0.5-0.3,0.8-0.3c0.3-0.1,0.6-0.1,1-0.1
				c0.5,0,0.9,0.1,1.3,0.3c0.3,0.2,0.6,0.4,0.8,0.7c0.2,0.3,0.3,0.6,0.3,0.9c0,0.3-0.1,0.6-0.2,0.9s-0.3,0.4-0.5,0.6
				c-0.2,0.2-0.4,0.3-0.7,0.5c-0.2,0.1-0.5,0.2-0.6,0.3c-0.4,0.2-0.7,0.4-0.9,0.5c-0.3,0.2-0.5,0.4-0.6,0.5
				c-0.2,0.2-0.3,0.4-0.4,0.5s-0.1,0.4-0.2,0.5h4.3v0.7H-253.6z"/>
		</g>
	</g>
	<g>
		<g>
			<path class="st0" d="M-467-97.9v-8.5h0.8v7.4l5.3-7.4h0.8v8.5h-0.8v-7.2l-5.2,7.2H-467z"/>
			<path class="st0" d="M-458.1-97.9v-6.2h0.8v2.7h0.9l2.1-2.7h0.9l-2.4,3l2.7,3.2h-1l-2.4-2.8h-0.9v2.8H-458.1z"/>
			<path class="st0" d="M-449.2-97.8c-0.5,0-0.9-0.1-1.3-0.3s-0.7-0.4-1-0.7c-0.3-0.3-0.5-0.6-0.6-1c-0.2-0.4-0.2-0.8-0.2-1.2
				c0-0.4,0.1-0.9,0.2-1.2c0.2-0.4,0.4-0.7,0.6-1c0.3-0.3,0.6-0.5,1-0.7s0.8-0.3,1.2-0.3c0.4,0,0.9,0.1,1.2,0.3s0.7,0.4,1,0.7
				c0.3,0.3,0.5,0.6,0.6,1c0.2,0.4,0.2,0.8,0.2,1.2c0,0.4-0.1,0.8-0.2,1.2c-0.2,0.4-0.4,0.7-0.6,1c-0.3,0.3-0.6,0.5-1,0.7
				S-448.7-97.8-449.2-97.8z M-451.5-101c0,0.5,0.1,0.9,0.3,1.3c0.2,0.4,0.5,0.7,0.8,0.9c0.3,0.2,0.7,0.3,1.1,0.3s0.8-0.1,1.1-0.3
				c0.3-0.2,0.6-0.5,0.8-0.9c0.2-0.4,0.3-0.8,0.3-1.3c0-0.5-0.1-0.9-0.3-1.3c-0.2-0.4-0.5-0.7-0.8-0.9c-0.3-0.2-0.7-0.3-1.1-0.3
				s-0.8,0.1-1.1,0.3c-0.3,0.2-0.6,0.5-0.8,0.9C-451.4-101.9-451.5-101.4-451.5-101z"/>
			<path class="st0" d="M-444.7-97.9v-6.2h0.8v2.7h3.6v-2.7h0.8v6.2h-0.8v-2.8h-3.6v2.8H-444.7z"/>
			<path class="st0" d="M-437.7-97.9v-6.2h0.8v2.7h0.9l2.1-2.7h0.9l-2.4,3l2.7,3.2h-1l-2.4-2.8h-0.9v2.8H-437.7z"/>
			<path class="st0" d="M-431.5-97.9v-6.2h0.8v5.1l3.8-5.1h0.7v6.2h-0.8v-5l-3.7,5H-431.5z"/>
			<path class="st0" d="M-421.3-97.9v-6.2h3.1c0.4,0,0.6,0.1,0.9,0.2s0.4,0.3,0.5,0.6s0.2,0.5,0.2,0.7c0,0.3-0.1,0.6-0.2,0.9
				c-0.2,0.3-0.4,0.5-0.7,0.6c0.4,0.1,0.7,0.3,0.9,0.6s0.3,0.6,0.3,1c0,0.3-0.1,0.6-0.2,0.9c-0.2,0.2-0.4,0.4-0.7,0.6
				c-0.3,0.1-0.6,0.2-1,0.2H-421.3z M-420.5-101.3h2.1c0.2,0,0.4-0.1,0.6-0.2c0.2-0.1,0.3-0.3,0.4-0.4s0.1-0.4,0.1-0.5
				c0-0.3-0.1-0.5-0.3-0.8s-0.4-0.3-0.7-0.3h-2.2V-101.3z M-420.5-98.5h2.3c0.2,0,0.4-0.1,0.6-0.2c0.2-0.1,0.3-0.2,0.4-0.4
				s0.1-0.4,0.1-0.5c0-0.2,0-0.4-0.1-0.6c-0.1-0.2-0.2-0.3-0.4-0.4s-0.3-0.2-0.6-0.2h-2.4V-98.5z"/>
			<path class="st0" d="M-414.9-97.9v-6.2h0.8v2.7h3.6v-2.7h0.8v6.2h-0.8v-2.8h-3.6v2.8H-414.9z"/>
			<path class="st0" d="M-407.2-95.3c-0.1,0-0.3,0-0.4-0.1c-0.1,0-0.3-0.1-0.4-0.2l0.3-0.6c0.1,0,0.2,0.1,0.2,0.1c0.1,0,0.2,0,0.2,0
				c0.2,0,0.4-0.1,0.6-0.3s0.4-0.5,0.5-0.9l0.3-0.8l-2.8-6.1h0.9l2.3,5.4l2.1-5.4h0.8l-3,7.2c-0.2,0.4-0.3,0.7-0.5,0.9
				c-0.2,0.2-0.4,0.4-0.6,0.5C-406.8-95.4-407-95.3-407.2-95.3z"/>
			<path class="st0" d="M-399.8-97.9v-5.5h-2.2v-0.7h5.3v0.7h-2.2v5.5H-399.8z"/>
			<path class="st0" d="M-392.5-97.8c-0.5,0-1-0.1-1.4-0.4s-0.7-0.6-1-1v3.8h-0.8v-8.8h0.7v1.2c0.2-0.4,0.6-0.7,1-0.9
				s0.9-0.4,1.3-0.4c0.4,0,0.8,0.1,1.2,0.3c0.4,0.2,0.7,0.4,0.9,0.7s0.5,0.6,0.6,1c0.1,0.4,0.2,0.8,0.2,1.2c0,0.6-0.1,1.1-0.4,1.6
				s-0.6,0.9-1,1.2C-391.4-97.9-391.9-97.8-392.5-97.8z M-392.7-98.5c0.3,0,0.7-0.1,0.9-0.2c0.3-0.1,0.5-0.3,0.7-0.6
				c0.2-0.2,0.3-0.5,0.4-0.8c0.1-0.3,0.2-0.6,0.2-0.9c0-0.3-0.1-0.7-0.2-1c-0.1-0.3-0.3-0.6-0.5-0.8c-0.2-0.2-0.5-0.4-0.7-0.5
				c-0.3-0.1-0.6-0.2-0.9-0.2c-0.2,0-0.4,0-0.6,0.1c-0.2,0.1-0.4,0.2-0.6,0.3c-0.2,0.1-0.4,0.3-0.5,0.5c-0.1,0.2-0.2,0.4-0.3,0.6
				v1.9c0.1,0.3,0.3,0.6,0.5,0.8c0.2,0.2,0.5,0.4,0.8,0.6C-393.3-98.6-393-98.5-392.7-98.5z"/>
			<path class="st0" d="M-388.3-97.9v-6.2h0.8v5.1l3.8-5.1h0.7v6.2h-0.8v-5l-3.7,5H-388.3z"/>
			<path class="st0" d="M-377.4-95.3c-0.1,0-0.3,0-0.4-0.1c-0.1,0-0.3-0.1-0.4-0.2l0.3-0.6c0.1,0,0.2,0.1,0.2,0.1c0.1,0,0.2,0,0.2,0
				c0.2,0,0.4-0.1,0.6-0.3s0.4-0.5,0.5-0.9l0.3-0.8l-2.8-6.1h0.9l2.3,5.4l2.1-5.4h0.8l-3,7.2c-0.2,0.4-0.3,0.7-0.5,0.9
				c-0.2,0.2-0.4,0.4-0.6,0.5C-376.9-95.4-377.1-95.3-377.4-95.3z"/>
			<path class="st0" d="M-368.8-97.8c-0.5,0-0.9-0.1-1.3-0.3c-0.4-0.2-0.7-0.4-1-0.7c-0.3-0.3-0.5-0.6-0.7-1s-0.2-0.8-0.2-1.2
				c0-0.6,0.1-1.1,0.4-1.6c0.3-0.5,0.6-0.9,1.1-1.2c0.5-0.3,1-0.4,1.6-0.4c0.6,0,1.1,0.1,1.5,0.4c0.4,0.3,0.8,0.6,1,1.1l-0.8,0.3
				c-0.2-0.3-0.4-0.6-0.7-0.8c-0.3-0.2-0.7-0.3-1-0.3c-0.4,0-0.8,0.1-1.1,0.3s-0.6,0.5-0.8,0.9c-0.2,0.4-0.3,0.8-0.3,1.3
				c0,0.5,0.1,0.9,0.3,1.3c0.2,0.4,0.5,0.7,0.8,0.9c0.3,0.2,0.7,0.3,1.1,0.3c0.3,0,0.5,0,0.8-0.1c0.3-0.1,0.5-0.2,0.7-0.4
				c0.2-0.2,0.3-0.3,0.4-0.5l0.8,0.2c-0.1,0.3-0.3,0.6-0.6,0.8c-0.3,0.2-0.6,0.4-0.9,0.6C-368.1-97.8-368.4-97.8-368.8-97.8z"/>
			<path class="st0" d="M-365.6-97.9v-0.7c0.2,0,0.4-0.1,0.6-0.2s0.3-0.3,0.5-0.6s0.2-0.7,0.3-1.1s0.1-1.1,0.2-1.9l0.1-1.7h4.1v6.2
				h-0.8v-5.5h-2.5l0,1.1c0,0.9-0.1,1.6-0.2,2.1c-0.1,0.6-0.2,1-0.4,1.4c-0.2,0.3-0.4,0.6-0.7,0.7C-364.9-98-365.2-97.9-365.6-97.9z
				"/>
			<path class="st0" d="M-357.4-95.3c-0.1,0-0.3,0-0.4-0.1c-0.1,0-0.3-0.1-0.4-0.2l0.3-0.6c0.1,0,0.2,0.1,0.2,0.1c0.1,0,0.2,0,0.2,0
				c0.2,0,0.4-0.1,0.6-0.3c0.2-0.2,0.4-0.5,0.5-0.9l0.3-0.8l-2.8-6.1h0.9l2.3,5.4l2.1-5.4h0.8l-3,7.2c-0.2,0.4-0.3,0.7-0.5,0.9
				c-0.2,0.2-0.4,0.4-0.6,0.5C-357-95.4-357.2-95.3-357.4-95.3z"/>
			<path class="st0" d="M-351.6-97.9v-6.2h3.7v0.7h-2.9v5.5H-351.6z"/>
		</g>
	</g>
	<g>
		<g>
			<path class="st0" d="M-72-343.9v-8.5h0.8v7.4l5.3-7.4h0.8v8.5h-0.8v-7.2l-5.2,7.2H-72z"/>
			<path class="st0" d="M-63.1-343.9v-6.2h0.8v2.7h0.9l2.1-2.7h0.9l-2.4,3l2.7,3.2h-1l-2.4-2.8h-0.9v2.8H-63.1z"/>
			<path class="st0" d="M-54.2-343.8c-0.5,0-0.9-0.1-1.3-0.3s-0.7-0.4-1-0.7c-0.3-0.3-0.5-0.6-0.6-1c-0.2-0.4-0.2-0.8-0.2-1.2
				c0-0.4,0.1-0.9,0.2-1.2c0.2-0.4,0.4-0.7,0.6-1s0.6-0.5,1-0.7c0.4-0.2,0.8-0.3,1.2-0.3c0.4,0,0.9,0.1,1.2,0.3s0.7,0.4,1,0.7
				c0.3,0.3,0.5,0.6,0.6,1c0.2,0.4,0.2,0.8,0.2,1.2c0,0.4-0.1,0.8-0.2,1.2c-0.2,0.4-0.4,0.7-0.6,1c-0.3,0.3-0.6,0.5-1,0.7
				S-53.7-343.8-54.2-343.8z M-56.5-347c0,0.5,0.1,0.9,0.3,1.3c0.2,0.4,0.5,0.7,0.8,0.9c0.3,0.2,0.7,0.3,1.1,0.3s0.8-0.1,1.1-0.3
				c0.3-0.2,0.6-0.5,0.8-0.9c0.2-0.4,0.3-0.8,0.3-1.3c0-0.5-0.1-0.9-0.3-1.3c-0.2-0.4-0.5-0.7-0.8-0.9c-0.3-0.2-0.7-0.3-1.1-0.3
				s-0.8,0.1-1.1,0.3c-0.3,0.2-0.6,0.5-0.8,0.9C-56.4-347.9-56.5-347.4-56.5-347z"/>
			<path class="st0" d="M-49.7-343.9v-6.2h0.8v2.7h3.6v-2.7h0.8v6.2h-0.8v-2.8h-3.6v2.8H-49.7z"/>
			<path class="st0" d="M-42.7-343.9v-6.2h0.8v2.7h0.9l2.1-2.7h0.9l-2.4,3l2.7,3.2h-1l-2.4-2.8h-0.9v2.8H-42.7z"/>
			<path class="st0" d="M-36.5-343.9v-6.2h0.8v5.1l3.8-5.1h0.7v6.2H-32v-5l-3.7,5H-36.5z"/>
			<path class="st0" d="M-20.4-343.9v-7.8h-3.5l0,1.8c0,1.2-0.1,2.2-0.3,2.9c-0.1,0.8-0.3,1.4-0.5,1.8c-0.2,0.4-0.5,0.8-0.9,0.9
				c-0.3,0.2-0.7,0.3-1.2,0.3v-0.7c0.3,0,0.6-0.1,0.8-0.2c0.2-0.2,0.4-0.4,0.6-0.8s0.3-1,0.4-1.7c0.1-0.7,0.2-1.6,0.2-2.7l0.1-2.4
				h5.1v8.5H-20.4z"/>
			<path class="st0" d="M-14.9-343.8c-0.5,0-0.9-0.1-1.3-0.3s-0.7-0.4-1-0.7c-0.3-0.3-0.5-0.6-0.6-1c-0.2-0.4-0.2-0.8-0.2-1.2
				c0-0.4,0.1-0.9,0.2-1.2c0.2-0.4,0.4-0.7,0.6-1s0.6-0.5,1-0.7c0.4-0.2,0.8-0.3,1.2-0.3c0.4,0,0.9,0.1,1.2,0.3s0.7,0.4,1,0.7
				c0.3,0.3,0.5,0.6,0.6,1c0.2,0.4,0.2,0.8,0.2,1.2c0,0.4-0.1,0.8-0.2,1.2c-0.2,0.4-0.4,0.7-0.6,1c-0.3,0.3-0.6,0.5-1,0.7
				S-14.4-343.8-14.9-343.8z M-17.2-347c0,0.5,0.1,0.9,0.3,1.3c0.2,0.4,0.5,0.7,0.8,0.9c0.3,0.2,0.7,0.3,1.1,0.3s0.8-0.1,1.1-0.3
				c0.3-0.2,0.6-0.5,0.8-0.9c0.2-0.4,0.3-0.8,0.3-1.3c0-0.5-0.1-0.9-0.3-1.3c-0.2-0.4-0.5-0.7-0.8-0.9c-0.3-0.2-0.7-0.3-1.1-0.3
				s-0.8,0.1-1.1,0.3c-0.3,0.2-0.6,0.5-0.8,0.9C-17.1-347.9-17.2-347.4-17.2-347z"/>
			<path class="st0" d="M-10.4-343.9v-6.2h3.7v0.7h-2.9v5.5H-10.4z"/>
			<path class="st0" d="M-5.6-343.9v-6.2h0.8v5.1l3.8-5.1h0.7v6.2H-1v-5l-3.7,5H-5.6z"/>
			<path class="st0" d="M4.3-343.8c-0.5,0-0.9-0.1-1.3-0.3s-0.7-0.4-1-0.7c-0.3-0.3-0.5-0.6-0.7-1s-0.2-0.8-0.2-1.2
				c0-0.6,0.1-1.1,0.4-1.6s0.6-0.9,1.1-1.2c0.5-0.3,1-0.4,1.6-0.4c0.6,0,1.1,0.1,1.5,0.4s0.8,0.6,1,1.1L6-348.5
				c-0.2-0.3-0.4-0.6-0.7-0.8s-0.7-0.3-1-0.3c-0.4,0-0.8,0.1-1.1,0.3s-0.6,0.5-0.8,0.9C2.1-347.9,2-347.5,2-347
				c0,0.5,0.1,0.9,0.3,1.3s0.5,0.7,0.8,0.9s0.7,0.3,1.1,0.3c0.3,0,0.5,0,0.8-0.1c0.3-0.1,0.5-0.2,0.7-0.4s0.3-0.3,0.4-0.5l0.8,0.2
				c-0.1,0.3-0.3,0.6-0.6,0.8c-0.3,0.2-0.6,0.4-0.9,0.6C5-343.8,4.7-343.8,4.3-343.8z"/>
			<path class="st0" d="M9.7-343.9v-5.5H7.5v-0.7h5.3v0.7h-2.2v5.5H9.7z"/>
			<path class="st0" d="M13.9-343.9v-6.2h0.8v5.1l3.8-5.1h0.7v6.2h-0.8v-5l-3.7,5H13.9z"/>
			<path class="st0" d="M21-343.9v-6.2h0.8v2.7h0.9l2.1-2.7h0.9l-2.4,3l2.7,3.2h-1l-2.4-2.8h-0.9v2.8H21z"/>
			<path class="st0" d="M27.2-343.9v-6.2H28v5.1l3.8-5.1h0.7v6.2h-0.8v-5l-3.7,5H27.2z"/>
			<path class="st0" d="M43-346.2c0,0.5-0.1,0.9-0.4,1.3c-0.3,0.4-0.6,0.7-1.1,0.9c-0.5,0.2-0.9,0.3-1.5,0.3c-0.6,0-1.1-0.1-1.5-0.3
				c-0.4-0.2-0.8-0.5-1-0.9c-0.3-0.4-0.4-0.8-0.4-1.3c0-0.4,0.1-0.7,0.3-1c0.2-0.3,0.4-0.5,0.6-0.7s0.5-0.3,0.8-0.4
				c-0.2-0.1-0.5-0.2-0.7-0.4c-0.2-0.2-0.4-0.4-0.5-0.6c-0.1-0.2-0.2-0.5-0.2-0.8c0-0.4,0.1-0.7,0.2-0.9c0.2-0.3,0.4-0.5,0.6-0.7
				c0.3-0.2,0.5-0.3,0.9-0.4c0.3-0.1,0.6-0.1,1-0.1c0.3,0,0.6,0,0.9,0.1c0.3,0.1,0.6,0.2,0.9,0.4s0.5,0.4,0.6,0.7
				c0.2,0.3,0.2,0.6,0.2,0.9c0,0.3-0.1,0.5-0.2,0.8c-0.1,0.2-0.3,0.4-0.5,0.6s-0.5,0.3-0.7,0.4c0.3,0.1,0.6,0.3,0.9,0.5
				c0.3,0.2,0.5,0.5,0.6,0.8S43-346.6,43-346.2z M42.2-346.3c0-0.3-0.1-0.5-0.2-0.8s-0.3-0.4-0.5-0.6c-0.2-0.2-0.4-0.3-0.7-0.3
				s-0.5-0.1-0.8-0.1c-0.3,0-0.7,0.1-1,0.2c-0.3,0.1-0.6,0.4-0.8,0.6c-0.2,0.3-0.3,0.6-0.3,1c0,0.3,0.1,0.5,0.2,0.7s0.3,0.4,0.5,0.6
				c0.2,0.2,0.4,0.3,0.7,0.4c0.3,0.1,0.5,0.1,0.8,0.1c0.3,0,0.7-0.1,1-0.2c0.3-0.1,0.6-0.4,0.8-0.6S42.2-345.9,42.2-346.3z
				 M38.2-350.2c0,0.3,0.1,0.6,0.3,0.8c0.2,0.2,0.4,0.4,0.7,0.5s0.6,0.2,0.8,0.2c0.3,0,0.6-0.1,0.9-0.2c0.3-0.1,0.5-0.3,0.7-0.5
				c0.2-0.2,0.3-0.5,0.3-0.8c0-0.3-0.1-0.6-0.3-0.8s-0.4-0.4-0.7-0.5c-0.3-0.1-0.6-0.2-0.9-0.2c-0.3,0-0.6,0.1-0.9,0.2
				c-0.3,0.1-0.5,0.3-0.7,0.5S38.2-350.5,38.2-350.2z"/>
			<path class="st0" d="M50.3-347.4c0,0.7-0.1,1.3-0.4,1.9s-0.6,1-1.1,1.3c-0.5,0.3-1,0.5-1.6,0.5c-0.6,0-1.1-0.2-1.5-0.5
				c-0.5-0.3-0.8-0.7-1.1-1.3c-0.3-0.5-0.4-1.2-0.4-1.9c0-0.7,0.1-1.3,0.4-1.9c0.3-0.5,0.6-1,1.1-1.3c0.5-0.3,1-0.5,1.5-0.5
				c0.6,0,1.1,0.2,1.6,0.5c0.5,0.3,0.8,0.7,1.1,1.3C50.2-348.7,50.3-348,50.3-347.4z M49.5-347.4c0-0.6-0.1-1-0.3-1.5
				c-0.2-0.4-0.4-0.8-0.8-1s-0.7-0.4-1.1-0.4s-0.8,0.1-1.1,0.4c-0.3,0.2-0.6,0.6-0.8,1c-0.2,0.4-0.3,0.9-0.3,1.5
				c0,0.6,0.1,1,0.3,1.5c0.2,0.4,0.4,0.8,0.8,1c0.3,0.2,0.7,0.4,1.1,0.4s0.8-0.1,1.1-0.4c0.3-0.2,0.6-0.6,0.8-1
				C49.4-346.3,49.5-346.8,49.5-347.4z"/>
			<path class="st0" d="M54.9-343.9v-6.2h0.8v2.7h3.6v-2.7h0.8v6.2h-0.8v-2.8h-3.6v2.8H54.9z"/>
			<path class="st0" d="M61.4-345.7c0-0.4,0.1-0.7,0.3-1c0.2-0.3,0.5-0.5,0.9-0.7c0.4-0.2,0.9-0.2,1.4-0.2c0.3,0,0.6,0,0.9,0.1
				c0.3,0,0.6,0.1,0.9,0.2v-0.5c0-0.5-0.2-0.9-0.5-1.3c-0.3-0.3-0.7-0.5-1.3-0.5c-0.3,0-0.7,0.1-1,0.2c-0.3,0.1-0.7,0.3-1,0.5
				l-0.3-0.6c0.4-0.3,0.8-0.5,1.2-0.6c0.4-0.1,0.8-0.2,1.2-0.2c0.8,0,1.4,0.2,1.8,0.7c0.4,0.4,0.7,1,0.7,1.8v2.9
				c0,0.1,0,0.2,0.1,0.2s0.1,0.1,0.2,0.1v0.6c-0.1,0-0.2,0-0.2,0c-0.1,0-0.1,0-0.1,0c-0.2,0-0.4-0.1-0.5-0.2
				c-0.1-0.1-0.2-0.2-0.2-0.4l0-0.5c-0.3,0.4-0.6,0.6-1.1,0.8c-0.4,0.2-0.9,0.3-1.4,0.3c-0.4,0-0.8-0.1-1.1-0.3s-0.6-0.4-0.8-0.7
				C61.5-345,61.4-345.3,61.4-345.7z M65.6-345.2c0.1-0.1,0.2-0.2,0.2-0.3s0.1-0.2,0.1-0.3v-0.9c-0.3-0.1-0.6-0.2-0.8-0.2
				s-0.6-0.1-0.9-0.1c-0.6,0-1.1,0.1-1.4,0.3c-0.4,0.2-0.5,0.5-0.5,0.9c0,0.2,0.1,0.4,0.2,0.6c0.1,0.2,0.3,0.4,0.5,0.5
				c0.2,0.1,0.5,0.2,0.8,0.2c0.4,0,0.8-0.1,1.1-0.2C65.2-344.8,65.4-345,65.6-345.2z"/>
			<path class="st0" d="M77.2-346.2c0,0.5-0.1,0.9-0.4,1.3c-0.3,0.4-0.6,0.7-1.1,0.9c-0.5,0.2-0.9,0.3-1.5,0.3
				c-0.6,0-1.1-0.1-1.5-0.3c-0.4-0.2-0.8-0.5-1-0.9c-0.3-0.4-0.4-0.8-0.4-1.3c0-0.4,0.1-0.7,0.3-1c0.2-0.3,0.4-0.5,0.6-0.7
				s0.5-0.3,0.8-0.4c-0.2-0.1-0.5-0.2-0.7-0.4c-0.2-0.2-0.4-0.4-0.5-0.6c-0.1-0.2-0.2-0.5-0.2-0.8c0-0.4,0.1-0.7,0.2-0.9
				c0.2-0.3,0.4-0.5,0.6-0.7c0.3-0.2,0.5-0.3,0.9-0.4c0.3-0.1,0.6-0.1,1-0.1c0.3,0,0.6,0,0.9,0.1c0.3,0.1,0.6,0.2,0.9,0.4
				s0.5,0.4,0.6,0.7c0.2,0.3,0.2,0.6,0.2,0.9c0,0.3-0.1,0.5-0.2,0.8c-0.1,0.2-0.3,0.4-0.5,0.6s-0.5,0.3-0.7,0.4
				c0.3,0.1,0.6,0.3,0.9,0.5c0.3,0.2,0.5,0.5,0.6,0.8S77.2-346.6,77.2-346.2z M76.3-346.3c0-0.3-0.1-0.5-0.2-0.8s-0.3-0.4-0.5-0.6
				c-0.2-0.2-0.4-0.3-0.7-0.3s-0.5-0.1-0.8-0.1c-0.3,0-0.7,0.1-1,0.2c-0.3,0.1-0.6,0.4-0.8,0.6c-0.2,0.3-0.3,0.6-0.3,1
				c0,0.3,0.1,0.5,0.2,0.7s0.3,0.4,0.5,0.6c0.2,0.2,0.4,0.3,0.7,0.4c0.3,0.1,0.5,0.1,0.8,0.1c0.3,0,0.7-0.1,1-0.2
				c0.3-0.1,0.6-0.4,0.8-0.6S76.3-345.9,76.3-346.3z M72.4-350.2c0,0.3,0.1,0.6,0.3,0.8c0.2,0.2,0.4,0.4,0.7,0.5s0.6,0.2,0.8,0.2
				c0.3,0,0.6-0.1,0.9-0.2c0.3-0.1,0.5-0.3,0.7-0.5c0.2-0.2,0.3-0.5,0.3-0.8c0-0.3-0.1-0.6-0.3-0.8s-0.4-0.4-0.7-0.5
				c-0.3-0.1-0.6-0.2-0.9-0.2c-0.3,0-0.6,0.1-0.9,0.2c-0.3,0.1-0.5,0.3-0.7,0.5S72.4-350.5,72.4-350.2z"/>
			<path class="st0" d="M84.4-347.4c0,0.7-0.1,1.3-0.4,1.9s-0.6,1-1.1,1.3c-0.5,0.3-1,0.5-1.6,0.5c-0.6,0-1.1-0.2-1.5-0.5
				c-0.5-0.3-0.8-0.7-1.1-1.3c-0.3-0.5-0.4-1.2-0.4-1.9c0-0.7,0.1-1.3,0.4-1.9c0.3-0.5,0.6-1,1.1-1.3c0.5-0.3,1-0.5,1.5-0.5
				c0.6,0,1.1,0.2,1.6,0.5c0.5,0.3,0.8,0.7,1.1,1.3C84.3-348.7,84.4-348,84.4-347.4z M83.6-347.4c0-0.6-0.1-1-0.3-1.5
				c-0.2-0.4-0.4-0.8-0.8-1s-0.7-0.4-1.1-0.4s-0.8,0.1-1.1,0.4c-0.3,0.2-0.6,0.6-0.8,1c-0.2,0.4-0.3,0.9-0.3,1.5
				c0,0.6,0.1,1,0.3,1.5c0.2,0.4,0.4,0.8,0.8,1c0.3,0.2,0.7,0.4,1.1,0.4s0.8-0.1,1.1-0.4c0.3-0.2,0.6-0.6,0.8-1
				C83.5-346.3,83.6-346.8,83.6-347.4z"/>
		</g>
	</g>
	<path class="st1" d="M56,73"/>
	<path class="st1" d="M42-118"/>
	<path class="st1" d="M56,73"/>
	<g>
		<g>
			<path class="st0" d="M-63.4-229v-8.5h0.8v7.4l5.3-7.4h0.8v8.5h-0.8v-7.2l-5.2,7.2H-63.4z"/>
			<path class="st0" d="M-54.5-229v-6.2h0.8v2.7h0.9l2.1-2.7h0.9l-2.4,3l2.7,3.2h-1l-2.4-2.8h-0.9v2.8H-54.5z"/>
			<path class="st0" d="M-45.6-228.9c-0.5,0-0.9-0.1-1.3-0.3s-0.7-0.4-1-0.7c-0.3-0.3-0.5-0.6-0.6-1c-0.2-0.4-0.2-0.8-0.2-1.2
				c0-0.4,0.1-0.9,0.2-1.2c0.2-0.4,0.4-0.7,0.6-1s0.6-0.5,1-0.7s0.8-0.3,1.2-0.3s0.9,0.1,1.2,0.3s0.7,0.4,1,0.7s0.5,0.6,0.6,1
				c0.2,0.4,0.2,0.8,0.2,1.2c0,0.4-0.1,0.8-0.2,1.2c-0.2,0.4-0.4,0.7-0.6,1c-0.3,0.3-0.6,0.5-1,0.7C-44.8-229-45.2-228.9-45.6-228.9
				z M-47.9-232.1c0,0.5,0.1,0.9,0.3,1.3c0.2,0.4,0.5,0.7,0.8,0.9c0.3,0.2,0.7,0.3,1.1,0.3c0.4,0,0.8-0.1,1.1-0.3s0.6-0.5,0.8-0.9
				c0.2-0.4,0.3-0.8,0.3-1.3c0-0.5-0.1-0.9-0.3-1.3s-0.5-0.7-0.8-0.9c-0.3-0.2-0.7-0.3-1.1-0.3c-0.4,0-0.8,0.1-1.1,0.3
				c-0.3,0.2-0.6,0.5-0.8,0.9C-47.8-233-47.9-232.5-47.9-232.1z"/>
			<path class="st0" d="M-41.2-229v-6.2h0.8v2.7h3.6v-2.7h0.8v6.2h-0.8v-2.8h-3.6v2.8H-41.2z"/>
			<path class="st0" d="M-34.2-229v-6.2h0.8v2.7h0.9l2.1-2.7h0.9l-2.4,3l2.7,3.2h-1l-2.4-2.8h-0.9v2.8H-34.2z"/>
			<path class="st0" d="M-27.9-229v-6.2h0.8v5.1l3.8-5.1h0.7v6.2h-0.8v-5l-3.7,5H-27.9z"/>
			<path class="st0" d="M-15-228.9c-0.5,0-0.9-0.1-1.3-0.3c-0.4-0.2-0.7-0.4-1-0.7c-0.3-0.3-0.5-0.6-0.7-1s-0.2-0.8-0.2-1.2
				c0-0.6,0.1-1.1,0.4-1.6c0.3-0.5,0.6-0.9,1.1-1.2c0.5-0.3,1-0.4,1.6-0.4c0.6,0,1.1,0.1,1.5,0.4c0.4,0.3,0.8,0.6,1,1.1l-0.8,0.3
				c-0.2-0.3-0.4-0.6-0.7-0.8c-0.3-0.2-0.7-0.3-1-0.3c-0.4,0-0.8,0.1-1.1,0.3s-0.6,0.5-0.8,0.9c-0.2,0.4-0.3,0.8-0.3,1.3
				c0,0.5,0.1,0.9,0.3,1.3c0.2,0.4,0.5,0.7,0.8,0.9c0.3,0.2,0.7,0.3,1.1,0.3c0.3,0,0.5,0,0.8-0.1c0.3-0.1,0.5-0.2,0.7-0.4
				c0.2-0.2,0.3-0.3,0.4-0.5l0.8,0.2c-0.1,0.3-0.3,0.6-0.6,0.8c-0.3,0.2-0.6,0.4-0.9,0.6C-14.2-228.9-14.6-228.9-15-228.9z"/>
			<path class="st0" d="M-8.4-228.9c-0.5,0-0.9-0.1-1.3-0.3c-0.4-0.2-0.7-0.4-1-0.7c-0.3-0.3-0.5-0.6-0.7-1s-0.2-0.8-0.2-1.2
				c0-0.6,0.1-1.1,0.4-1.6c0.3-0.5,0.6-0.9,1.1-1.2c0.5-0.3,1-0.4,1.6-0.4c0.6,0,1.1,0.1,1.5,0.4c0.4,0.3,0.8,0.6,1,1.1l-0.8,0.3
				c-0.2-0.3-0.4-0.6-0.7-0.8c-0.3-0.2-0.7-0.3-1-0.3c-0.4,0-0.8,0.1-1.1,0.3s-0.6,0.5-0.8,0.9c-0.2,0.4-0.3,0.8-0.3,1.3
				c0,0.5,0.1,0.9,0.3,1.3c0.2,0.4,0.5,0.7,0.8,0.9c0.3,0.2,0.7,0.3,1.1,0.3c0.3,0,0.5,0,0.8-0.1c0.3-0.1,0.5-0.2,0.7-0.4
				c0.2-0.2,0.3-0.3,0.4-0.5l0.8,0.2c-0.1,0.3-0.3,0.6-0.6,0.8c-0.3,0.2-0.6,0.4-0.9,0.6C-7.7-228.9-8-228.9-8.4-228.9z"/>
			<path class="st0" d="M-4.6-229v-6.2h0.8v2.2h1.4c0.7,0,1.2,0.2,1.6,0.5c0.4,0.4,0.5,0.8,0.5,1.4c0,0.4-0.1,0.7-0.2,1
				s-0.4,0.6-0.7,0.7c-0.3,0.2-0.7,0.3-1.2,0.3H-4.6z M-3.8-229.6h1.4c0.3,0,0.6-0.1,0.8-0.2c0.2-0.1,0.3-0.3,0.4-0.5
				c0.1-0.2,0.1-0.4,0.1-0.7c0-0.2,0-0.5-0.1-0.7s-0.2-0.4-0.4-0.5c-0.2-0.1-0.5-0.2-0.8-0.2h-1.3V-229.6z M1-229v-6.2h0.8v6.2H1z"
				/>
			<path class="st0" d="M3-229v-0.7c0.2,0,0.4-0.1,0.6-0.2s0.3-0.3,0.5-0.6s0.2-0.7,0.3-1.1s0.1-1.1,0.2-1.9l0.1-1.7h4.1v6.2H7.8
				v-5.5H5.3l0,1.1c0,0.9-0.1,1.6-0.2,2.1c-0.1,0.6-0.2,1-0.4,1.4c-0.2,0.3-0.4,0.6-0.7,0.7C3.6-229.1,3.3-229,3-229z"/>
			<path class="st0" d="M13.1-228.9c-0.5,0-0.9-0.1-1.3-0.3s-0.7-0.4-1-0.7c-0.3-0.3-0.5-0.6-0.6-1c-0.2-0.4-0.2-0.8-0.2-1.2
				c0-0.4,0.1-0.9,0.2-1.2c0.2-0.4,0.4-0.7,0.6-1s0.6-0.5,1-0.7s0.8-0.3,1.2-0.3s0.9,0.1,1.2,0.3s0.7,0.4,1,0.7s0.5,0.6,0.6,1
				c0.2,0.4,0.2,0.8,0.2,1.2c0,0.4-0.1,0.8-0.2,1.2c-0.2,0.4-0.4,0.7-0.6,1c-0.3,0.3-0.6,0.5-1,0.7C13.9-229,13.5-228.9,13.1-228.9z
				 M10.8-232.1c0,0.5,0.1,0.9,0.3,1.3c0.2,0.4,0.5,0.7,0.8,0.9c0.3,0.2,0.7,0.3,1.1,0.3c0.4,0,0.8-0.1,1.1-0.3s0.6-0.5,0.8-0.9
				c0.2-0.4,0.3-0.8,0.3-1.3c0-0.5-0.1-0.9-0.3-1.3s-0.5-0.7-0.8-0.9c-0.3-0.2-0.7-0.3-1.1-0.3c-0.4,0-0.8,0.1-1.1,0.3
				c-0.3,0.2-0.6,0.5-0.8,0.9C10.9-233,10.8-232.5,10.8-232.1z"/>
			<path class="st0" d="M17.5-229v-6.2h0.8v2.7h0.9l2.1-2.7h0.9l-2.4,3l2.7,3.2h-1l-2.4-2.8h-0.9v2.8H17.5z"/>
			<path class="st0" d="M26.8-229v-6.2h0.8v5.1l3.8-5.1h0.7v6.2h-0.8v-5l-3.7,5H26.8z"/>
			<path class="st0" d="M37-229v-6.2h5v6.2h-0.8v-5.5h-3.4v5.5H37z"/>
			<path class="st0" d="M44.5-226.4c-0.1,0-0.3,0-0.4-0.1c-0.1,0-0.3-0.1-0.4-0.2l0.3-0.6c0.1,0,0.2,0.1,0.2,0.1c0.1,0,0.2,0,0.2,0
				c0.2,0,0.4-0.1,0.6-0.3c0.2-0.2,0.4-0.5,0.5-0.9l0.3-0.8l-2.8-6.1H44l2.3,5.4l2.1-5.4h0.8l-3,7.2c-0.2,0.4-0.3,0.7-0.5,0.9
				c-0.2,0.2-0.4,0.4-0.6,0.5C45-226.5,44.8-226.4,44.5-226.4z"/>
			<path class="st0" d="M50.3-229v-6.2h0.8v2.7h3.6v-2.7h0.8v6.2h-0.8v-2.8h-3.6v2.8H50.3z"/>
			<path class="st0" d="M57.3-229v-6.2h0.8v2.7h0.9l2.1-2.7h0.9l-2.4,3l2.7,3.2h-1l-2.4-2.8h-0.9v2.8H57.3z"/>
			<path class="st0" d="M65.2-229v-5.5h-2.2v-0.7h5.3v0.7H66v5.5H65.2z"/>
			<path class="st0" d="M72-228.9c-0.5,0-0.9-0.1-1.3-0.3s-0.7-0.4-1-0.7c-0.3-0.3-0.5-0.6-0.6-1c-0.2-0.4-0.2-0.8-0.2-1.2
				c0-0.4,0.1-0.9,0.2-1.2c0.2-0.4,0.4-0.7,0.6-1s0.6-0.5,1-0.7s0.8-0.3,1.2-0.3s0.9,0.1,1.2,0.3s0.7,0.4,1,0.7s0.5,0.6,0.6,1
				c0.2,0.4,0.2,0.8,0.2,1.2c0,0.4-0.1,0.8-0.2,1.2c-0.2,0.4-0.4,0.7-0.6,1c-0.3,0.3-0.6,0.5-1,0.7C72.9-229,72.4-228.9,72-228.9z
				 M69.7-232.1c0,0.5,0.1,0.9,0.3,1.3c0.2,0.4,0.5,0.7,0.8,0.9c0.3,0.2,0.7,0.3,1.1,0.3c0.4,0,0.8-0.1,1.1-0.3s0.6-0.5,0.8-0.9
				c0.2-0.4,0.3-0.8,0.3-1.3c0-0.5-0.1-0.9-0.3-1.3s-0.5-0.7-0.8-0.9c-0.3-0.2-0.7-0.3-1.1-0.3c-0.4,0-0.8,0.1-1.1,0.3
				c-0.3,0.2-0.6,0.5-0.8,0.9C69.8-233,69.7-232.5,69.7-232.1z"/>
			<path class="st0" d="M76.4-229v-6.2h3.1c0.4,0,0.6,0.1,0.9,0.2c0.2,0.1,0.4,0.3,0.5,0.6s0.2,0.5,0.2,0.7c0,0.3-0.1,0.6-0.2,0.9
				s-0.4,0.5-0.7,0.6c0.4,0.1,0.7,0.3,0.9,0.6c0.2,0.3,0.3,0.6,0.3,1c0,0.3-0.1,0.6-0.2,0.9s-0.4,0.4-0.7,0.6
				c-0.3,0.1-0.6,0.2-1,0.2H76.4z M77.2-232.4h2.1c0.2,0,0.4-0.1,0.6-0.2s0.3-0.3,0.4-0.4s0.1-0.4,0.1-0.5c0-0.3-0.1-0.5-0.3-0.8
				c-0.2-0.2-0.4-0.3-0.7-0.3h-2.2V-232.4z M77.2-229.6h2.3c0.2,0,0.4-0.1,0.6-0.2s0.3-0.2,0.4-0.4s0.2-0.4,0.2-0.5
				c0-0.2,0-0.4-0.1-0.6c-0.1-0.2-0.2-0.3-0.4-0.4s-0.3-0.2-0.6-0.2h-2.4V-229.6z"/>
		</g>
	</g>
</g>
<g id="Inside_services">
	<g id="Shield">
		<path class="st1" d="M-399-85.1c-5.2,1.5-10.8,1.5-16-0.3c-5.2,1.7-10.8,1.8-16,0.3l-1-0.3v14.6c0,11.1,7.1,20.6,17,24.2
			c9.9-3.6,17-13.1,17-24.2v-14.6L-399-85.1z M-404-69.1c0,7.2-4.6,13.4-11,15.7c-6.4-2.3-11-8.5-11-15.7v-9.5l0.6,0.2
			c3.4,1,7,0.9,10.4-0.2c3.4,1.1,7,1.2,10.4,0.2l0.6-0.2V-69.1z"/>
	</g>
	<g id="Check">
		<path class="st1" d="M-522-87c-11.6,0-21,9.4-21,21c0,11.6,9.4,21,21,21s21-9.4,21-21C-501-77.6-510.4-87-522-87z M-524.3-53
			l-14-12.9l4.1-4.4l9.6,8.8l13.5-14.7l4.4,4.1L-524.3-53z"/>
	</g>
	<g id="Exclusive_IT">
		<rect x="-298" y="-54" class="st1" width="18" height="4"/>
		<polygon class="st1" points="-296,-72 -296,-67.4 -296.5,-67.2 -318,-57.4 -318,-62.4 -302,-69.7 -318,-77 -318,-82 -296.5,-72.2 
					"/>
	</g>
	<g id="Rocket">
		<path class="st1" d="M-492.5-44.4l2.8-10.4v0c1.2-4.6,7-6.2,10.4-2.8l0,0v0c3.4,3.4,1.8,9.1-2.8,10.4v0L-492.5-44.4z"/>
		<path class="st1" d="M-449-88l-0.7,0c-8.7-0.1-17.1,3.4-23,9.8l-1.2,1.3c-1.2,0-4.1,0.2-8.2,1.7c-5.5,2-8.8,6.3-8.8,6.3l8.5,1.2
			l-1.4,1.5l12.9,12.8l1.5-1.3l0.1,0.2l1,8.5c0,0,4.3-3.2,6.4-8.6c1.8-4.7,1.9-7.9,1.9-8.7l0.9-0.8C-452.3-70.2-448.7-79-449-88z
			 M-461.4-71.1c-2.5,0-4.6-2.1-4.6-4.6c0-2.5,2.1-4.6,4.6-4.6c2.5,0,4.6,2.1,4.6,4.6C-456.8-73.1-458.8-71.1-461.4-71.1z"/>
	</g>
	<g id="Branches">
		<g>
			<g>
				<circle class="st1" cx="-370" cy="-82" r="7"/>
				<circle class="st1" cx="-370" cy="-50" r="7"/>
				<circle class="st1" cx="-341" cy="-82" r="7"/>
				<line class="st2" x1="-370" y1="-82" x2="-370" y2="-48.5"/>
			</g>
			<path class="st2" d="M-370-50h20.8c4.5,0,8.2-3.7,8.2-8.2V-82"/>
		</g>
	</g>
</g>
<g id="Logistics_icons">
	<g id="log-kpi-4">
		<polygon class="st3" points="151,-304 151,-263.5 111,-263.5 111,-318.5 138.1,-318.5 		"/>
		<polygon class="st4" points="138.1,-304 138.1,-318.5 151,-304 		"/>
		<line class="st5" x1="146.7" y1="-295.4" x2="132" y2="-295.4"/>
		<line class="st5" x1="146.7" y1="-290.4" x2="132" y2="-290.4"/>
		<path class="st6" d="M116-270"/>
		<path class="st6" d="M146.7-270"/>
		<line class="st5" x1="146.8" y1="-285.6" x2="132.1" y2="-285.6"/>
		<line class="st5" x1="146.8" y1="-280.6" x2="132.1" y2="-280.6"/>
		<line class="st5" x1="146.8" y1="-275.6" x2="132.1" y2="-275.6"/>
		<line class="st5" x1="146.8" y1="-270.5" x2="132.1" y2="-270.5"/>
		<g>
			<rect x="117.5" y="-310.5" class="st0" width="10" height="10"/>
			<path class="st7" d="M126-309v7h-7v-7H126 M129-312h-3h-7h-3v3v7v3h3h7h3v-3v-7V-312L129-312z"/>
		</g>
		<g>
			<rect x="117.5" y="-295.5" class="st0" width="10" height="10"/>
			<path class="st7" d="M126-294v7h-7v-7H126 M129-297h-3h-7h-3v3v7v3h3h7h3v-3v-7V-297L129-297z"/>
		</g>
		<g>
			<rect x="117.5" y="-280.5" class="st0" width="10" height="10"/>
			<path class="st7" d="M126-279v7h-7v-7H126 M129-282h-3h-7h-3v3v7v3h3h7h3v-3v-7V-282L129-282z"/>
		</g>
		<polyline class="st2" points="117.5,-307.5 121.9,-303.8 129,-312 		"/>
		<polyline class="st2" points="117.5,-292.5 121.9,-288.8 129,-297 		"/>
		<polyline class="st2" points="117.5,-277.5 121.9,-273.8 129,-282 		"/>
	</g>
	<g id="log-kpi-3">
		<g>
			<polygon class="st3" points="89,-304 89,-263.5 49,-263.5 49,-318.5 76.1,-318.5 			"/>
			<polygon class="st4" points="76.1,-304 76.1,-318.5 89,-304 			"/>
			<g>
				<path class="st0" d="M49.6-294.4c-5,0-9-4.3-9-9.5s4-9.5,9-9.5s9,4.3,9,9.5S54.5-294.4,49.6-294.4z"/>
				<path class="st1" d="M49.6-312c4.1,0,7.5,3.6,7.5,8s-3.4,8-7.5,8c-4.1,0-7.5-3.6-7.5-8S45.4-312,49.6-312 M49.6-315
					c-5.8,0-10.5,5-10.5,11s4.7,11,10.5,11s10.5-5,10.5-11S55.4-315,49.6-315L49.6-315z"/>
			</g>
			<polyline class="st8" points="44.1,-303.4 47.9,-299.8 55,-308 			"/>
			<line class="st5" x1="84.7" y1="-287.8" x2="54" y2="-287.8"/>
			<line class="st5" x1="84.7" y1="-292.8" x2="58.5" y2="-292.8"/>
			<line class="st5" x1="84.7" y1="-297.8" x2="63" y2="-297.8"/>
			<line class="st5" x1="84.7" y1="-283.4" x2="54" y2="-283.4"/>
			<line class="st5" x1="84.7" y1="-279" x2="54" y2="-279"/>
			<path class="st6" d="M54-270"/>
			<path class="st6" d="M84.7-270"/>
			<line class="st5" x1="85" y1="-270.4" x2="54" y2="-270.4"/>
			<line class="st5" x1="85" y1="-274.8" x2="54" y2="-274.8"/>
		</g>
	</g>
	<g id="log-kpi-2">
		<g>
			<g>
				<circle class="st3" cx="-2" cy="-288.1" r="27.1"/>
				<ellipse class="st3" cx="-2" cy="-288.1" rx="14.5" ry="27.1"/>
				<ellipse class="st9" cx="-2" cy="-288.1" rx="27.1" ry="15.4"/>
				<line class="st9" x1="-29.1" y1="-288.1" x2="25.1" y2="-288.1"/>
			</g>
			<g>
				<path class="st0" d="M15.6-281.2c-0.8,0-1.5-0.7-1.5-1.5c0-3.7-1.4-5.1-3-6.8c-1.5-1.6-3.2-3.4-3.2-6.9c0-4.3,3.5-7.7,7.7-7.7
					s7.7,3.5,7.7,7.7c0,3.9-1.8,5.7-3.4,7.2c-1.5,1.5-2.9,2.9-2.9,6.4C17.1-281.9,16.5-281.2,15.6-281.2z M15.6-296.8
					c-0.5,0-1,0.4-1,1c0,0.5,0.4,1,1,1s1-0.4,1-1C16.6-296.3,16.2-296.8,15.6-296.8z"/>
				<path class="st7" d="M15.6-302.6c3.4,0,6.2,2.8,6.2,6.2c0,6.8-6.2,5.6-6.2,13.7c0-8.1-6.2-7.5-6.2-13.7
					C9.4-299.8,12.2-302.6,15.6-302.6 M15.6-293.3c1.4,0,2.5-1.1,2.5-2.5c0-1.4-1.1-2.5-2.5-2.5c-1.4,0-2.5,1.1-2.5,2.5
					C13.2-294.4,14.3-293.3,15.6-293.3 M15.6-305.6c-5.1,0-9.2,4.1-9.2,9.2c0,4.1,2.1,6.3,3.6,7.9c1.5,1.6,2.6,2.7,2.6,5.8
					c0,1.7,1.3,3,3,3s3-1.3,3-3c0-3,1-3.9,2.4-5.4c1.6-1.6,3.8-3.8,3.8-8.3C24.9-301.5,20.7-305.6,15.6-305.6L15.6-305.6z"/>
			</g>
			<g>
				<path class="st0" d="M-7-267.6c-0.8,0-1.5-0.7-1.5-1.5c0-3.7-1.4-5.1-3-6.8c-1.5-1.6-3.2-3.4-3.2-6.9c0-4.3,3.5-7.7,7.7-7.7
					s7.7,3.5,7.7,7.7c0,3.9-1.8,5.7-3.4,7.2c-1.5,1.5-2.9,2.9-2.9,6.4C-5.5-268.3-6.1-267.6-7-267.6z M-7-283.2c-0.5,0-1,0.4-1,1
					c0,0.5,0.4,1,1,1c0.5,0,1-0.4,1-1C-6-282.8-6.4-283.2-7-283.2z"/>
				<path class="st7" d="M-7-289c3.4,0,6.2,2.8,6.2,6.2c0,6.8-6.2,5.6-6.2,13.7c0-8.1-6.2-7.5-6.2-13.7C-13.2-286.3-10.4-289-7-289
					 M-7-279.7c1.4,0,2.5-1.1,2.5-2.5c0-1.4-1.1-2.5-2.5-2.5s-2.5,1.1-2.5,2.5C-9.5-280.8-8.4-279.7-7-279.7 M-7-292
					c-5.1,0-9.2,4.1-9.2,9.2c0,4.1,2.1,6.3,3.6,7.9c1.5,1.6,2.6,2.7,2.6,5.8c0,1.7,1.3,3,3,3s3-1.3,3-3c0-3,1-3.9,2.4-5.4
					c1.6-1.6,3.8-3.8,3.8-8.3C2.2-287.9-1.9-292-7-292L-7-292z"/>
			</g>
			<g>
				<path class="st0" d="M-19.6-296.6c-0.8,0-1.5-0.7-1.5-1.5c0-3.7-1.4-5.1-3-6.8c-1.5-1.6-3.2-3.4-3.2-6.9c0-4.3,3.5-7.7,7.7-7.7
					s7.7,3.5,7.7,7.7c0,3.9-1.8,5.7-3.4,7.2c-1.5,1.5-2.9,2.9-2.9,6.4C-18.1-297.3-18.8-296.6-19.6-296.6z M-19.6-312.1
					c-0.5,0-1,0.4-1,1s0.4,1,1,1s1-0.4,1-1S-19.1-312.1-19.6-312.1z"/>
				<path class="st7" d="M-19.6-318c3.4,0,6.2,2.8,6.2,6.2c0,6.8-6.2,5.6-6.2,13.7c0-8.1-6.2-7.5-6.2-13.7
					C-25.9-315.2-23.1-318-19.6-318 M-19.6-308.7c1.4,0,2.5-1.1,2.5-2.5s-1.1-2.5-2.5-2.5s-2.5,1.1-2.5,2.5S-21-308.7-19.6-308.7
					 M-19.6-321c-5.1,0-9.2,4.1-9.2,9.2c0,4.1,2.1,6.3,3.6,7.9c1.5,1.6,2.6,2.7,2.6,5.8c0,1.7,1.3,3,3,3s3-1.3,3-3
					c0-3,1-3.9,2.4-5.4c1.6-1.6,3.8-3.8,3.8-8.3C-10.4-316.9-14.6-321-19.6-321L-19.6-321z"/>
			</g>
		</g>
	</g>
	<g id="log_x5F_kpi-1">
		<g>
			<g>
				<g>
					<path class="st0" d="M-67.8-289.8c-1.2,0-2.2-1-2.2-2.2v-7.1c0-5,4-9,9-9s9,4,9,9v7.1c0,1.2-1,2.2-2.2,2.2H-67.8z"/>
					<path class="st1" d="M-61-306.1c3.9,0,7,3.1,7,7v7.1c0,0.1-0.1,0.2-0.2,0.2h-13.5c-0.1,0-0.2-0.1-0.2-0.2v-7.1
						C-68-303-64.9-306.1-61-306.1 M-61-310.1c-6.1,0-11,4.9-11,11v7.1c0,2.3,1.9,4.2,4.2,4.2h13.5c2.3,0,4.2-1.9,4.2-4.2v-7.1
						C-50-305.2-54.9-310.1-61-310.1L-61-310.1z"/>
				</g>
				<circle class="st3" cx="-61" cy="-313.9" r="5.7"/>
			</g>
			<g>
				<g>
					<path class="st0" d="M-97.8-289.8c-1.2,0-2.2-1-2.2-2.2v-7.1c0-5,4-9,9-9s9,4,9,9v7.1c0,1.2-1,2.2-2.2,2.2H-97.8z"/>
					<path class="st1" d="M-91-306.1c3.9,0,7,3.1,7,7v7.1c0,0.1-0.1,0.2-0.2,0.2h-13.5c-0.1,0-0.2-0.1-0.2-0.2v-7.1
						C-98-303-94.9-306.1-91-306.1 M-91-310.1c-6.1,0-11,4.9-11,11v7.1c0,2.3,1.9,4.2,4.2,4.2h13.5c2.3,0,4.2-1.9,4.2-4.2v-7.1
						C-80-305.2-84.9-310.1-91-310.1L-91-310.1z"/>
				</g>
				<circle class="st3" cx="-91" cy="-313.9" r="5.7"/>
			</g>
			<g>
				<g>
					<path class="st0" d="M-84.2-286c-1.3,0-2.3-1-2.3-2.3v-8.7c0-5.8,4.7-10.5,10.5-10.5s10.5,4.7,10.5,10.5v8.7
						c0,1.3-1,2.3-2.3,2.3H-84.2z"/>
					<path class="st1" d="M-76-305.5c4.7,0,8.5,3.8,8.5,8.5v8.7c0,0.2-0.1,0.3-0.3,0.3h-16.5c-0.2,0-0.3-0.1-0.3-0.3v-8.7
						C-84.5-301.7-80.7-305.5-76-305.5 M-76-309.5c-6.9,0-12.5,5.6-12.5,12.5v8.7c0,2.4,1.9,4.3,4.3,4.3h16.5c2.4,0,4.3-1.9,4.3-4.3
						v-8.7C-63.5-303.9-69.1-309.5-76-309.5L-76-309.5z"/>
				</g>
				<circle class="st3" cx="-76" cy="-315" r="7"/>
			</g>
			<polygon class="st8" points="-76,-279.1 -73.3,-273.7 -67.3,-272.8 -71.7,-268.6 -70.6,-262.6 -76,-265.4 -81.4,-262.6 
				-80.3,-268.6 -84.7,-272.8 -78.7,-273.7 			"/>
			<polygon class="st8" points="-58,-282.5 -55.8,-278.1 -51,-277.4 -54.5,-274 -53.7,-269.2 -58,-271.5 -62.3,-269.2 -61.5,-274 
				-65,-277.4 -60.2,-278.1 			"/>
			<polygon class="st8" points="-94,-282.5 -91.8,-278.1 -87,-277.4 -90.5,-274 -89.7,-269.2 -94,-271.5 -98.3,-269.2 -97.5,-274 
				-101,-277.4 -96.2,-278.1 			"/>
		</g>
	</g>
</g>
<g id="Links__x26__Items_icons">
	<g id="Phone_icon_00000054957664150178829120000011579094360277421970_">
		<circle class="st1" cx="-40" cy="-206" r="16"/>
		<path class="st0" d="M-29.6-200.1c0,0.8-0.5,1.6-1.2,1.8c-2.3,0.8-4.7,0.9-7.1,0.5c-4.3-0.7-8.5-3.7-10.3-7.7
			c-1.1-2.2-1.6-4.5-1.6-6.9c0-0.8,0.6-1.5,1.4-1.7c1.2-0.3,2.1-0.5,3.3-0.6c0.3,0,0.5,0.1,0.6,0.4c0.5,1.4,0.8,2.3,1,3.8
			c0,0.2-0.1,0.5-0.3,0.6c-0.6,0.4-1.2,0.9-1.6,1.6c-0.1,0.2-0.1,0.3,0,0.5c1.4,3.6,5.1,6.3,8.9,6.6c0.2,0,0.4-0.1,0.5-0.2
			c0.5-0.5,0.9-1.2,1-1.9c0.1-0.2,0.3-0.5,0.5-0.5c1.5-0.2,2.5-0.2,3.9-0.1c0.3,0,0.5,0.2,0.6,0.5
			C-29.8-202.2-29.7-201.3-29.6-200.1z"/>
	</g>
	<g id="Mail_icon_00000039819851716636933630000006972224543821489833_">
		<g>
			<circle class="st1" cx="-77" cy="-206" r="16"/>
		</g>
		<path class="st0" d="M-67.8-211.1v0.2c0,0.3-0.2,0.5-0.5,0.6l-3,1.2l-5.4,2.1c-0.2,0.1-0.5,0.1-0.8,0l-5.4-2.1l-3-1.2
			c-0.3-0.1-0.5-0.4-0.5-0.6v-0.2c0-1.2,1.2-2.2,2.7-2.2h13.1C-69-213.3-67.8-212.3-67.8-211.1z"/>
		<path class="st0" d="M-67.8-207.7v7.7c0,1-1,1.8-2.2,1.8h-14c-1.2,0-2.2-0.8-2.2-1.8v-7.7c0-0.2,0.3-0.4,0.6-0.3l2.9,1.1l5.6,2.2
			c0.1,0,0.2,0,0.4,0l5.6-2.2l2.9-1.1C-68.1-208.1-67.8-207.9-67.8-207.7z"/>
	</g>
	<g id="Benefit_icon_00000016067401161680361450000017847401824212186527_">
		<circle class="st9" cx="-3.5" cy="-206.2" r="13.7"/>
		<polyline class="st9" points="-12.1,-208.3 -5,-202 12.7,-221 		"/>
	</g>
	<g id="Instagram_icon_00000114754361558881291020000010240735200457166998_">
		<linearGradient id="SVGID_1_" gradientUnits="userSpaceOnUse" x1="80.8464" y1="-131.6266" x2="139.1536" y2="-170.3734">
			<stop  offset="0" style="stop-color:#1A6EFF"/>
			<stop  offset="1" style="stop-color:#20A2FF"/>
		</linearGradient>
		<circle class="st10" cx="110" cy="-151" r="35"/>
		<path class="st11" d="M118.5-130h-17c-6.9,0-12.5-5.6-12.5-12.5v-17c0-6.9,5.6-12.5,12.5-12.5h17c6.9,0,12.5,5.6,12.5,12.5v17
			C131-135.6,125.4-130,118.5-130z"/>
		<g>
			<path class="st0" d="M110-158c3.9,0,7,3.1,7,7s-3.1,7-7,7s-7-3.1-7-7S106.1-158,110-158 M110-162c-6.1,0-11,4.9-11,11
				s4.9,11,11,11s11-4.9,11-11S116.1-162,110-162L110-162z"/>
		</g>
		<g>
			<circle class="st0" cx="122" cy="-163" r="2"/>
		</g>
	</g>
	<g id="Instagram_icon_00000027606648730076143160000001937347657889896833_">
		
			<linearGradient id="SVGID_00000003791314233655792880000016659107547843767463_" gradientUnits="userSpaceOnUse" x1="134.9183" y1="-44.821" x2="86.7076" y2="-95.5728">
			<stop  offset="0" style="stop-color:#3A0094"/>
			<stop  offset="8.568986e-02" style="stop-color:#6306A0"/>
			<stop  offset="0.2725" style="stop-color:#B614B9"/>
			<stop  offset="0.4047" style="stop-color:#EB1CC9"/>
			<stop  offset="0.469" style="stop-color:#FF1FCF"/>
			<stop  offset="0.636" style="stop-color:#FF6695"/>
			<stop  offset="0.8874" style="stop-color:#FFCC41"/>
			<stop  offset="1" style="stop-color:#FFF51F"/>
		</linearGradient>
		<circle style="fill:url(#SVGID_00000003791314233655792880000016659107547843767463_);" cx="111" cy="-70" r="35"/>
		<path class="st11" d="M121.1-51h-20.3C96-51,92-55,92-59.9v-20.3c0-4.9,4-8.9,8.9-8.9h20.3c4.9,0,8.9,4,8.9,8.9v20.3
			C130-55,126-51,121.1-51z"/>
		<g>
			<path class="st0" d="M111-76.3c3.5,0,6.3,2.8,6.3,6.3s-2.8,6.3-6.3,6.3s-6.3-2.8-6.3-6.3S107.5-76.3,111-76.3 M111-80.3
				c-5.7,0-10.3,4.6-10.3,10.3s4.6,10.3,10.3,10.3s10.3-4.6,10.3-10.3S116.7-80.3,111-80.3L111-80.3z"/>
		</g>
		<g>
			<circle class="st0" cx="121.9" cy="-80.9" r="1.8"/>
		</g>
	</g>
	<g id="What_x27_sApp_icon_00000142161033162459574960000009638862335661008811_">
		
			<linearGradient id="SVGID_00000072981137082929023010000008428515386792250536_" gradientUnits="userSpaceOnUse" x1="-3.1536" y1="-131.6266" x2="55.1536" y2="-170.3734">
			<stop  offset="0" style="stop-color:#1A6EFF"/>
			<stop  offset="1" style="stop-color:#20A2FF"/>
		</linearGradient>
		<circle style="fill:url(#SVGID_00000072981137082929023010000008428515386792250536_);" cx="26" cy="-151" r="35"/>
		<path id="phone_00000054245472310925184700000006942967853880391560_" class="st0" d="M35.8-143.8c-0.3,2.3-2.3,4.1-4.6,4
			c-2-0.1-3.9-0.6-5.7-1.3c-4.6-1.9-8.5-6.5-9.5-11.3c-0.5-1.9-0.6-4-0.3-5.9c0.3-2.3,2.4-3.9,4.7-3.8c0.5,0,1.1,0.1,1.7,0.1
			c0.3,0,0.6,0.3,0.6,0.6c0.2,1.7,0.3,2.8,0.1,4.5c0,0.3-0.2,0.6-0.5,0.6c-0.8,0.2-1.6,0.7-2.2,1.3c-0.1,0.1-0.2,0.4-0.2,0.6
			c0.6,4.4,4,8.5,8.2,9.8c0.2,0.1,0.4,0,0.6-0.1c0.7-0.5,1.3-1.1,1.7-1.9c0.1-0.3,0.4-0.4,0.7-0.4c1.8,0.1,2.8,0.4,4.4,0.9
			c0.3,0.1,0.5,0.4,0.5,0.7C35.9-144.8,35.8-144.3,35.8-143.8z"/>
		<path id="rounds_00000080902886747358347080000002723358698053698224_" class="st0" d="M26-176c-13.8,0-25,11.2-25,25
			c0,5.7,1.9,11,5.2,15.2c-1,3-2.1,5.9-2.6,7.2c3.2-1.6,4.8-2.4,6.4-3.2c4.3,3.6,9.9,5.8,16,5.8c13.8,0,25-11.2,25-25
			S39.8-176,26-176z M26-131c-11.5,0.1-20.1-8.5-20-20c0-11.6,8.4-20,20-20s20,8.4,20,20C46-139.4,37.6-131,26-131z"/>
	</g>
	<g id="Telegram_icon_00000142167503653123431810000012154760401726476730_">
		
			<linearGradient id="SVGID_00000090988216705837372340000001874819286551664034_" gradientUnits="userSpaceOnUse" x1="-87.1536" y1="-131.6266" x2="-28.8464" y2="-170.3734">
			<stop  offset="0" style="stop-color:#1A6EFF"/>
			<stop  offset="1" style="stop-color:#20A2FF"/>
		</linearGradient>
		<circle style="fill:url(#SVGID_00000090988216705837372340000001874819286551664034_);" cx="-58" cy="-151" r="35"/>
		<path class="st0" d="M-55-154l-12.8,7.9c-0.1,0.1-0.2,0.1-0.3,0.1l-12.4-2.7c-0.4-0.1-0.5-0.7-0.1-0.8l38-14.6
			c0.3-0.1,0.7,0.1,0.6,0.5l-5.8,31c0,0.3-0.4,0.5-0.7,0.3l-16-12.3c-0.2-0.2-0.2-0.5-0.1-0.7L-55-154z"/>
	</g>
	<g id="What_x27_sApp_icon_00000101806907738237055520000012737864371691718837_">
		
			<linearGradient id="SVGID_00000125589497654457168600000008094007690569324161_" gradientUnits="userSpaceOnUse" x1="10.8464" y1="59.3734" x2="69.1536" y2="20.6266">
			<stop  offset="0" style="stop-color:#1A6EFF"/>
			<stop  offset="1" style="stop-color:#20A2FF"/>
		</linearGradient>
		<circle style="fill:url(#SVGID_00000125589497654457168600000008094007690569324161_);" cx="40" cy="40" r="35"/>
		<path id="phone_00000076593678714915036150000004497552958298859431_" class="st0" d="M49.8,47c-0.3,2.2-2.2,4-4.4,3.8
			c-1.9-0.1-3.8-0.5-5.6-1.3c-4.5-1.8-8.2-6.2-9.2-11c-0.4-1.9-0.6-3.8-0.3-5.7c0.3-2.2,2.3-3.8,4.5-3.7c0.5,0,1,0.1,1.6,0.1
			c0.3,0,0.6,0.3,0.6,0.6c0.2,1.6,0.3,2.7,0.1,4.4c0,0.3-0.2,0.5-0.5,0.6c-0.8,0.2-1.5,0.7-2.1,1.3c-0.1,0.1-0.2,0.3-0.2,0.5
			c0.6,4.2,3.9,8.2,8,9.5c0.2,0.1,0.4,0,0.6-0.1c0.7-0.5,1.3-1.1,1.6-1.9c0.1-0.3,0.4-0.4,0.7-0.4c1.7,0.1,2.7,0.4,4.3,0.9
			c0.3,0.1,0.5,0.4,0.5,0.7C49.9,46,49.8,46.5,49.8,47z"/>
		<path id="rounds_00000151502931038255504340000001373830244678074024_" class="st0" d="M40,19c-11.6,0-21,9.4-21,21
			c0,4.8,1.6,9.2,4.3,12.8c-0.9,2.5-1.7,5-2.2,6c2.7-1.4,4-2,5.4-2.7c3.6,3,8.3,4.9,13.4,4.9c11.6,0,21-9.4,21-21S51.6,19,40,19z
			 M40,56.8c-9.7,0.1-16.9-7.2-16.8-16.8c0-9.7,7.1-16.8,16.8-16.8S56.8,30.3,56.8,40C56.8,49.7,49.7,56.8,40,56.8z"/>
	</g>
	<g id="What_x27_sApp_icon_00000036236950421998895600000006495938857610747780_">
		
			<linearGradient id="SVGID_00000123419558136470449300000004300307240856984740_" gradientUnits="userSpaceOnUse" x1="-3.1536" y1="-50.6266" x2="55.1536" y2="-89.3735">
			<stop  offset="0" style="stop-color:#4ACD65"/>
			<stop  offset="1" style="stop-color:#00C93E"/>
		</linearGradient>
		<circle style="fill:url(#SVGID_00000123419558136470449300000004300307240856984740_);" cx="26" cy="-70" r="35"/>
		<path id="phone_00000088115034071804158300000015571242386925624979_" class="st0" d="M35.8-63c-0.3,2.2-2.2,4-4.4,3.8
			c-1.9-0.1-3.8-0.5-5.6-1.3c-4.5-1.8-8.2-6.2-9.2-11c-0.4-1.9-0.6-3.8-0.3-5.7c0.3-2.2,2.3-3.8,4.5-3.7c0.5,0,1,0.1,1.6,0.1
			c0.3,0,0.6,0.3,0.6,0.6c0.2,1.6,0.3,2.7,0.1,4.4c0,0.3-0.2,0.5-0.5,0.6c-0.8,0.2-1.5,0.7-2.1,1.3c-0.1,0.1-0.2,0.3-0.2,0.5
			c0.6,4.2,3.9,8.2,8,9.5c0.2,0.1,0.4,0,0.6-0.1c0.7-0.5,1.3-1.1,1.6-1.9c0.1-0.3,0.4-0.4,0.7-0.4c1.7,0.1,2.7,0.4,4.3,0.9
			c0.3,0.1,0.5,0.4,0.5,0.7C35.9-64,35.8-63.5,35.8-63z"/>
		<path id="rounds_00000137108187950637319190000002808239794100297872_" class="st0" d="M26-91C14.4-91,5-81.6,5-70
			c0,4.8,1.6,9.2,4.3,12.8c-0.9,2.5-1.7,5-2.2,6c2.7-1.4,4-2,5.4-2.7c3.6,3,8.3,4.9,13.4,4.9c11.6,0,21-9.4,21-21S37.6-91,26-91z
			 M26-53.2C16.3-53.1,9.1-60.4,9.2-70c0-9.7,7.1-16.8,16.8-16.8S42.8-79.7,42.8-70C42.8-60.3,35.7-53.2,26-53.2z"/>
	</g>
</g>
<g id="Слой_22">
</g>
<g id="Services-icons_v1">
	<g id="Ready-made_companies">
		
			<rect id="Main_Building_00000160156838168113692890000003179182174513048465_" x="-529.5" y="-165.5" class="st4" width="18" height="39"/>
		
			<rect id="Secondary_Building_00000042721864257900811600000009433880821438078371_" x="-510.7" y="-148.5" class="st4" width="10.2" height="22"/>
		
			<rect id="Secondary_Building_00000107576201619037250810000000814288114491968701_" x="-539.7" y="-156.5" class="st4" width="10.2" height="30"/>
		<rect x="-525.5" y="-160" class="st17" width="3" height="4"/>
		<rect x="-518.5" y="-160" class="st17" width="3" height="4"/>
		<rect x="-525.5" y="-152" class="st17" width="3" height="4"/>
		<rect x="-535.5" y="-152" class="st17" width="2" height="4"/>
		<rect x="-535.5" y="-144.5" class="st17" width="2" height="4"/>
		<rect x="-506.5" y="-143.5" class="st17" width="2" height="4"/>
		<rect x="-518.5" y="-152" class="st17" width="3" height="4"/>
		<rect x="-525.5" y="-144" class="st17" width="3" height="4"/>
		<rect x="-522.5" y="-136" class="st17" width="4" height="8"/>
		<rect x="-518.5" y="-144" class="st17" width="3" height="4"/>
	</g>
	<g id="Registration_00000141453887268364977790000007676876644518126470_">
		<path class="st0" d="M-208.5-127H-229v-36.9c0-1.7,1.4-3.1,3.1-3.1h33.9v23.5C-192-134.4-199.4-127-208.5-127z"/>
		<path class="st18" d="M-229-128v-36.7c0-1.5,1.2-2.7,2.7-2.7h33.3"/>
		<rect x="-222" y="-160" class="st18" width="25" height="15"/>
		<line class="st19" x1="-217" y1="-155" x2="-202" y2="-155"/>
		<line class="st19" x1="-217" y1="-150" x2="-210" y2="-150"/>
		<line class="st19" x1="-205" y1="-150" x2="-202" y2="-150"/>
	</g>
	<g id="Citizenship_00000114794360371073055100000011907917664031115171_">
		<g>
			<path class="st1" d="M-148.2-125h-28.6c-1.8,0-3.2-1.4-3.2-3.2v-37.6c0-1.8,1.4-3.2,3.2-3.2h28.6c1.8,0,3.2,1.4,3.2,3.2v37.6
				C-145-126.4-146.4-125-148.2-125z"/>
		</g>
		<g>
			<circle class="st20" cx="-162.5" cy="-152" r="11"/>
			<ellipse class="st20" cx="-162.5" cy="-152" rx="4.4" ry="11"/>
			<line class="st21" x1="-173.5" y1="-152" x2="-151.5" y2="-152"/>
		</g>
		<line class="st22" x1="-173.5" y1="-133" x2="-151.5" y2="-133"/>
	</g>
	<g id="Social_card_00000137106092814240135340000004786435733922640796_">
		<g>
			<path class="st0" d="M-274.7-127c-1.8,0-3.3-1.5-3.3-3.3v-35.4c0-1.8,1.5-3.3,3.3-3.3h25.4c1.8,0,3.3,1.5,3.3,3.3v35.4
				c0,1.8-1.5,3.3-3.3,3.3H-274.7z"/>
			<g>
				<path class="st1" d="M-249.3-167c0.7,0,1.3,0.6,1.3,1.3v35.4c0,0.7-0.6,1.3-1.3,1.3h-25.4c-0.7,0-1.3-0.6-1.3-1.3v-35.4
					c0-0.7,0.6-1.3,1.3-1.3H-249.3 M-249.3-171h-25.4c-2.9,0-5.3,2.4-5.3,5.3v35.4c0,2.9,2.4,5.3,5.3,5.3h25.4
					c2.9,0,5.3-2.4,5.3-5.3v-35.4C-244-168.6-246.4-171-249.3-171L-249.3-171z"/>
			</g>
		</g>
		<g>
			<circle class="st0" cx="-262" cy="-153" r="11"/>
			<g>
				<path class="st1" d="M-262-162c5,0,9,4,9,9s-4,9-9,9s-9-4-9-9S-267-162-262-162 M-262-166c-7.2,0-13,5.8-13,13s5.8,13,13,13
					c7.2,0,13-5.8,13-13S-254.8-166-262-166L-262-166z"/>
			</g>
		</g>
		<g>
			<line class="st19" x1="-271.5" y1="-134.5" x2="-252.5" y2="-134.5"/>
			<line class="st0" x1="-271.5" y1="-134.5" x2="-252.5" y2="-134.5"/>
		</g>
		<g>
			<path class="st1" d="M-255-144c0,1-3.1,1-7,1s-7,0-7-1c0-3.7,1.7-6.8,4.1-8.2c-0.7-0.7-1.1-1.7-1.1-2.8c0-2.2,1.8-4,4-4
				s4,1.8,4,4c0,1.1-0.4,2.1-1.1,2.8C-256.7-150.8-255-147.7-255-144z"/>
		</g>
	</g>
	<g id="Residence_permit_00000050656663095682367930000012029050043538591122_">
		<circle class="st3" cx="-421" cy="-146" r="17.5"/>
		<ellipse class="st3" cx="-421" cy="-146" rx="7" ry="17.5"/>
		<line class="st9" x1="-438.5" y1="-146" x2="-403.5" y2="-146"/>
	</g>
	<g id="Bank_Cards">
		<g>
			<path class="st0" d="M-332.8-131c-1.8,0-3.2-1.5-3.2-3.2v-22.5c0-1.8,1.5-3.2,3.2-3.2h33.5c1.8,0,3.2,1.5,3.2,3.2v22.5
				c0,1.8-1.5,3.2-3.2,3.2H-332.8z"/>
			<path class="st1" d="M-299.2-158c0.7,0,1.2,0.6,1.2,1.2v22.5c0,0.7-0.6,1.2-1.2,1.2h-33.5c-0.7,0-1.2-0.6-1.2-1.2v-22.5
				c0-0.7,0.6-1.2,1.2-1.2H-299.2 M-299.2-162h-33.5c-2.9,0-5.2,2.4-5.2,5.2v22.5c0,2.9,2.4,5.2,5.2,5.2h33.5c2.9,0,5.2-2.4,5.2-5.2
				v-22.5C-294-159.6-296.4-162-299.2-162L-299.2-162z"/>
		</g>
		<g>
			<line class="st23" x1="-334" y1="-152" x2="-298" y2="-152"/>
		</g>
		<g>
			<line class="st23" x1="-334" y1="-154" x2="-298" y2="-154"/>
		</g>
		<path class="st1" d="M-300-138.6c0,1.9-1.5,3.4-3.4,3.4c-1,0-1.9-0.5-2.6-1.2c-0.6,0.7-1.5,1.2-2.6,1.2c-1.9,0-3.4-1.5-3.4-3.4
			c0-1.9,1.5-3.4,3.4-3.4c1,0,1.9,0.5,2.6,1.2c0.6-0.7,1.5-1.2,2.6-1.2C-301.5-142-300-140.5-300-138.6z"/>
		<line class="st24" x1="-330" y1="-146" x2="-326.9" y2="-146"/>
		<line class="st24" x1="-321.7" y1="-146" x2="-318.6" y2="-146"/>
		<line class="st24" x1="-313.4" y1="-146" x2="-310.3" y2="-146"/>
		<line class="st24" x1="-305.1" y1="-146" x2="-302" y2="-146"/>
		<line class="st24" x1="-330" y1="-138" x2="-316" y2="-138"/>
		<path class="st23" d="M-317-146"/>
		<path class="st23" d="M-323-146"/>
		<path class="st23" d="M-309-146"/>
		<path class="st23" d="M-315-146"/>
		<path class="st23" d="M-301-146"/>
	</g>
	<g id="Accounting_00000008130229437331924810000010323036603874028673_">
		<g>
			<path class="st0" d="M-382.4-125c-2,0-3.6-1.6-3.6-3.6v-34.9c0-2,1.6-3.6,3.6-3.6h24.9c2,0,3.6,1.6,3.6,3.6v34.9
				c0,2-1.6,3.6-3.6,3.6H-382.4z"/>
			<path class="st1" d="M-357.6-165c0.9,0,1.6,0.7,1.6,1.6v34.9c0,0.9-0.7,1.6-1.6,1.6h-24.9c-0.9,0-1.6-0.7-1.6-1.6v-34.9
				c0-0.9,0.7-1.6,1.6-1.6H-357.6 M-357.6-169h-24.9c-3.1,0-5.6,2.5-5.6,5.6v34.9c0,3.1,2.5,5.6,5.6,5.6h24.9c3.1,0,5.6-2.5,5.6-5.6
				v-34.9C-352-166.5-354.5-169-357.6-169L-357.6-169z"/>
		</g>
		<circle class="st1" cx="-378" cy="-149" r="2.5"/>
		<circle class="st1" cx="-370" cy="-149" r="2.5"/>
		<circle class="st1" cx="-362" cy="-149" r="2.5"/>
		<circle class="st1" cx="-378" cy="-141" r="2.5"/>
		<circle class="st1" cx="-370" cy="-141" r="2.5"/>
		<path class="st1" d="M-359.5-141v8c0,1.4-1.1,2.5-2.5,2.5s-2.5-1.1-2.5-2.5v-8c0-1.4,1.1-2.5,2.5-2.5S-359.5-142.4-359.5-141z"/>
		<circle class="st1" cx="-378" cy="-133" r="2.5"/>
		<circle class="st1" cx="-370" cy="-133" r="2.5"/>
		<path class="st1" d="M-359.9-154h-20.1c-0.5,0-0.9-0.4-0.9-0.9v-6.1c0-0.5,0.4-0.9,0.9-0.9h20.1c0.5,0,0.9,0.4,0.9,0.9v6.1
			C-359-154.4-359.4-154-359.9-154z"/>
	</g>
	<g id="LLC__x26__SP_opening_00000047759590847551302180000018053640702145959827_">
		<polygon class="st25" points="-454.8,-156.5 -454.8,-126 -484.5,-126 -484.5,-166 -463,-166 -463,-156.5 		"/>
		<line class="st19" x1="-477.2" y1="-149" x2="-462" y2="-149"/>
		<line class="st19" x1="-477.2" y1="-158" x2="-469" y2="-158"/>
		<path class="st26" d="M-460.6-150"/>
		<path class="st26" d="M-478.6-150"/>
		<path class="st19" d="M-468.7-155"/>
		<path class="st19" d="M-478.6-155"/>
		<line class="st19" x1="-477.2" y1="-142" x2="-462" y2="-142"/>
		<line class="st19" x1="-477.2" y1="-135" x2="-462" y2="-135"/>
		<polygon class="st18" points="-454.8,-157.4 -454.8,-156.5 -463,-156.5 -463,-166 -462.5,-166 		"/>
	</g>
</g>
<g id="Services_icons_v2">
	<g id="Ready-made_companies_00000094583388336020394530000015133377132425698225_">
		
			<rect id="Main_Building_00000043442078322266672570000013220449264122326666_" x="-529.5" y="-247.5" class="st25" width="18" height="39"/>
		
			<rect id="Secondary_Building_00000093137318064898581800000013720802028784581014_" x="-510.7" y="-231" class="st25" width="11.2" height="22.5"/>
		
			<rect id="Secondary_Building_00000035491003704085616880000010737547193024200620_" x="-540.5" y="-240" class="st25" width="11" height="31.5"/>
		<rect x="-525.5" y="-242" class="st27" width="3" height="4"/>
		<rect x="-518.5" y="-242" class="st27" width="3" height="4"/>
		<rect x="-525.5" y="-234" class="st27" width="3" height="4"/>
		<rect x="-536.5" y="-234" class="st27" width="3" height="4"/>
		<rect x="-536.5" y="-226" class="st27" width="3" height="4"/>
		<rect x="-506.5" y="-226" class="st27" width="3" height="4"/>
		<rect x="-518.5" y="-234" class="st27" width="3" height="4"/>
		<rect x="-525.5" y="-226" class="st27" width="3" height="4"/>
		<rect x="-522.5" y="-218" class="st17" width="4" height="8"/>
		<rect x="-518.5" y="-226" class="st27" width="3" height="4"/>
	</g>
	<g id="Registration_00000147931053933134292520000007129316956535847554_">
		<path class="st0" d="M-208.5-209H-229v-36.9c0-1.7,1.4-3.1,3.1-3.1h33.9v23.5C-192-216.4-199.4-209-208.5-209z"/>
		<path class="st18" d="M-229-210v-36.7c0-1.5,1.2-2.7,2.7-2.7h33.3"/>
		<rect x="-222" y="-242" class="st18" width="25" height="15"/>
		<line class="st28" x1="-217" y1="-237" x2="-202" y2="-237"/>
		<line class="st28" x1="-217" y1="-232" x2="-210" y2="-232"/>
		<line class="st28" x1="-205" y1="-232" x2="-202" y2="-232"/>
	</g>
	<g id="Citizenship">
		<g>
			<path class="st1" d="M-148.2-208h-28.6c-1.8,0-3.2-1.4-3.2-3.2v-37.6c0-1.8,1.4-3.2,3.2-3.2h28.6c1.8,0,3.2,1.4,3.2,3.2v37.6
				C-145-209.4-146.4-208-148.2-208z"/>
		</g>
		<g>
			<circle class="st29" cx="-162.5" cy="-235" r="11"/>
			<ellipse class="st29" cx="-162.5" cy="-235" rx="4.4" ry="11"/>
			<line class="st21" x1="-173.5" y1="-235" x2="-151.5" y2="-235"/>
		</g>
		<line class="st22" x1="-173.5" y1="-216" x2="-151.5" y2="-216"/>
	</g>
	<g id="Social_card">
		<g>
			<path class="st0" d="M-274.7-209c-1.8,0-3.3-1.5-3.3-3.3v-35.4c0-1.8,1.5-3.3,3.3-3.3h25.4c1.8,0,3.3,1.5,3.3,3.3v35.4
				c0,1.8-1.5,3.3-3.3,3.3H-274.7z"/>
			<g>
				<path class="st1" d="M-249.3-249c0.7,0,1.3,0.6,1.3,1.3v35.4c0,0.7-0.6,1.3-1.3,1.3h-25.4c-0.7,0-1.3-0.6-1.3-1.3v-35.4
					c0-0.7,0.6-1.3,1.3-1.3H-249.3 M-249.3-253h-25.4c-2.9,0-5.3,2.4-5.3,5.3v35.4c0,2.9,2.4,5.3,5.3,5.3h25.4
					c2.9,0,5.3-2.4,5.3-5.3v-35.4C-244-250.6-246.4-253-249.3-253L-249.3-253z"/>
			</g>
		</g>
		<g>
			<path class="st7" d="M-255-226c0,1-3.1,1-7,1s-7,0-7-1c0-3.7,1.7-6.8,4.1-8.2c-0.7-0.7-1.1-1.7-1.1-2.8c0-2.2,1.8-4,4-4
				s4,1.8,4,4c0,1.1-0.4,2.1-1.1,2.8C-256.7-232.8-255-229.7-255-226z"/>
		</g>
		<g>
			<g>
				<path class="st1" d="M-262-244c5,0,9,4,9,9s-4,9-9,9s-9-4-9-9S-267-244-262-244 M-262-248c-7.2,0-13,5.8-13,13
					c0,7.2,5.8,13,13,13s13-5.8,13-13C-249-242.2-254.8-248-262-248L-262-248z"/>
			</g>
		</g>
		<g>
			<line class="st30" x1="-271.5" y1="-216.5" x2="-252.5" y2="-216.5"/>
			<line class="st0" x1="-271.5" y1="-216.5" x2="-252.5" y2="-216.5"/>
		</g>
	</g>
	<g id="Residence_permit">
		<circle class="st31" cx="-421" cy="-228" r="14.5"/>
		<circle class="st9" cx="-421" cy="-228" r="18"/>
		<ellipse class="st11" cx="-421" cy="-228" rx="5.8" ry="14"/>
		<line class="st11" x1="-435.5" y1="-228" x2="-406.5" y2="-228"/>
	</g>
	<g id="Bank_Card">
		<g>
			<path class="st0" d="M-332.8-213c-1.8,0-3.2-1.5-3.2-3.2v-22.5c0-1.8,1.5-3.2,3.2-3.2h33.5c1.8,0,3.2,1.5,3.2,3.2v22.5
				c0,1.8-1.5,3.2-3.2,3.2H-332.8z"/>
			<path class="st1" d="M-299.2-240c0.7,0,1.2,0.6,1.2,1.2v22.5c0,0.7-0.6,1.2-1.2,1.2h-33.5c-0.7,0-1.2-0.6-1.2-1.2v-22.5
				c0-0.7,0.6-1.2,1.2-1.2H-299.2 M-299.2-244h-33.5c-2.9,0-5.2,2.4-5.2,5.2v22.5c0,2.9,2.4,5.2,5.2,5.2h33.5c2.9,0,5.2-2.4,5.2-5.2
				v-22.5C-294-241.6-296.4-244-299.2-244L-299.2-244z"/>
		</g>
		<g>
			<line class="st32" x1="-334" y1="-234" x2="-298" y2="-234"/>
		</g>
		<g>
			<line class="st32" x1="-334" y1="-236" x2="-298" y2="-236"/>
		</g>
		<path class="st7" d="M-300-220.6c0,1.9-1.5,3.4-3.4,3.4c-1,0-1.9-0.5-2.6-1.2c-0.6,0.7-1.5,1.2-2.6,1.2c-1.9,0-3.4-1.5-3.4-3.4
			c0-1.9,1.5-3.4,3.4-3.4c1,0,1.9,0.5,2.6,1.2c0.6-0.7,1.5-1.2,2.6-1.2C-301.5-224-300-222.5-300-220.6z"/>
		<line class="st24" x1="-330" y1="-228" x2="-326.9" y2="-228"/>
		<line class="st24" x1="-321.7" y1="-228" x2="-318.6" y2="-228"/>
		<line class="st24" x1="-313.4" y1="-228" x2="-310.3" y2="-228"/>
		<line class="st24" x1="-305.1" y1="-228" x2="-302" y2="-228"/>
		<line class="st24" x1="-330" y1="-220" x2="-316" y2="-220"/>
		<path class="st23" d="M-317-228"/>
		<path class="st23" d="M-323-228"/>
		<path class="st23" d="M-309-228"/>
		<path class="st23" d="M-315-228"/>
		<path class="st23" d="M-301-228"/>
	</g>
	<g id="Accounting">
		<g>
			<path class="st0" d="M-382.4-207c-2,0-3.6-1.6-3.6-3.6v-34.9c0-2,1.6-3.6,3.6-3.6h24.9c2,0,3.6,1.6,3.6,3.6v34.9
				c0,2-1.6,3.6-3.6,3.6H-382.4z"/>
			<path class="st1" d="M-357.6-247c0.9,0,1.6,0.7,1.6,1.6v34.9c0,0.9-0.7,1.6-1.6,1.6h-24.9c-0.9,0-1.6-0.7-1.6-1.6v-34.9
				c0-0.9,0.7-1.6,1.6-1.6H-357.6 M-357.6-251h-24.9c-3.1,0-5.6,2.5-5.6,5.6v34.9c0,3.1,2.5,5.6,5.6,5.6h24.9c3.1,0,5.6-2.5,5.6-5.6
				v-34.9C-352-248.5-354.5-251-357.6-251L-357.6-251z"/>
		</g>
		<circle class="st1" cx="-378" cy="-231" r="2.5"/>
		<circle class="st1" cx="-370" cy="-231" r="2.5"/>
		<circle class="st1" cx="-362" cy="-231" r="2.5"/>
		<circle class="st1" cx="-378" cy="-223" r="2.5"/>
		<circle class="st1" cx="-370" cy="-223" r="2.5"/>
		<path class="st1" d="M-359.5-223v8c0,1.4-1.1,2.5-2.5,2.5s-2.5-1.1-2.5-2.5v-8c0-1.4,1.1-2.5,2.5-2.5S-359.5-224.4-359.5-223z"/>
		<circle class="st1" cx="-378" cy="-215" r="2.5"/>
		<circle class="st1" cx="-370" cy="-215" r="2.5"/>
		<path class="st7" d="M-359.9-236h-20.1c-0.5,0-0.9-0.4-0.9-0.9v-6.1c0-0.5,0.4-0.9,0.9-0.9h20.1c0.5,0,0.9,0.4,0.9,0.9v6.1
			C-359-236.4-359.4-236-359.9-236z"/>
	</g>
	<g id="LLC__x26__SP_opening">
		<polygon class="st25" points="-454.8,-238.5 -454.8,-208 -484.5,-208 -484.5,-248 -463,-248 -463,-238.5 		"/>
		<line class="st30" x1="-477.2" y1="-231" x2="-462" y2="-231"/>
		<line class="st30" x1="-477.2" y1="-240" x2="-470" y2="-240"/>
		<path class="st26" d="M-460.6-232"/>
		<path class="st26" d="M-478.6-232"/>
		<path class="st19" d="M-468.7-237"/>
		<path class="st19" d="M-478.6-237"/>
		<line class="st30" x1="-477.2" y1="-224" x2="-462" y2="-224"/>
		<line class="st30" x1="-477.2" y1="-217" x2="-462" y2="-217"/>
		<polygon class="st18" points="-454.8,-239.4 -454.8,-237.5 -464,-237.5 -464,-248 -462.5,-248 		"/>
	</g>
</g>
</svg>
