<?xml version="1.0" encoding="UTF-8"?>
<svg id="Bank_Card" data-name="Bank Card" xmlns="http://www.w3.org/2000/svg" xmlns:xlink="http://www.w3.org/1999/xlink" viewBox="0 0 380.44 288.44">
  <defs>
    <style>
      .cls-1, .cls-2, .cls-3, .cls-4, .cls-5, .cls-6, .cls-7 {
        stroke: #0032b8;
        stroke-width: 2px;
      }

      .cls-1, .cls-2, .cls-3, .cls-4, .cls-6, .cls-7, .cls-8 {
        stroke-linecap: round;
        stroke-linejoin: round;
      }

      .cls-1, .cls-9 {
        fill: #fff;
      }

      .cls-10, .cls-6 {
        fill: #96e1fe;
      }

      .cls-10, .cls-9, .cls-11, .cls-12 {
        stroke-width: 0px;
      }

      .cls-2, .cls-11 {
        fill: #0362e1;
      }

      .cls-13 {
        filter: url(#drop-shadow-4);
      }

      .cls-3 {
        fill: #135aff;
      }

      .cls-4 {
        stroke-dasharray: 0 10;
      }

      .cls-4, .cls-8 {
        fill: none;
      }

      .cls-14 {
        filter: url(#drop-shadow-3);
      }

      .cls-15 {
        filter: url(#drop-shadow-1);
      }

      .cls-5 {
        stroke-miterlimit: 10;
      }

      .cls-5, .cls-7 {
        fill: #139bff;
      }

      .cls-16 {
        filter: url(#drop-shadow-5);
      }

      .cls-17 {
        filter: url(#drop-shadow-2);
      }

      .cls-12 {
        fill: #0032b8;
      }

      .cls-8 {
        stroke: #fff;
        stroke-width: 4px;
      }
    </style>
    <filter id="drop-shadow-1" filterUnits="userSpaceOnUse">
      <feOffset dx="5" dy="5"/>
      <feGaussianBlur result="blur" stdDeviation="10"/>
      <feFlood flood-color="#3668cc" flood-opacity=".7"/>
      <feComposite in2="blur" operator="in"/>
      <feComposite in="SourceGraphic"/>
    </filter>
    <filter id="drop-shadow-2" filterUnits="userSpaceOnUse">
      <feOffset dx="5" dy="5"/>
      <feGaussianBlur result="blur-2" stdDeviation="10"/>
      <feFlood flood-color="#3668cc" flood-opacity=".6"/>
      <feComposite in2="blur-2" operator="in"/>
      <feComposite in="SourceGraphic"/>
    </filter>
    <filter id="drop-shadow-3" filterUnits="userSpaceOnUse">
      <feOffset dx="5" dy="5"/>
      <feGaussianBlur result="blur-3" stdDeviation="10"/>
      <feFlood flood-color="#3668cc" flood-opacity=".6"/>
      <feComposite in2="blur-3" operator="in"/>
      <feComposite in="SourceGraphic"/>
    </filter>
    <filter id="drop-shadow-4" filterUnits="userSpaceOnUse">
      <feOffset dx="5" dy="5"/>
      <feGaussianBlur result="blur-4" stdDeviation="10"/>
      <feFlood flood-color="#3668cc" flood-opacity=".6"/>
      <feComposite in2="blur-4" operator="in"/>
      <feComposite in="SourceGraphic"/>
    </filter>
    <filter id="drop-shadow-5" filterUnits="userSpaceOnUse">
      <feOffset dx="5" dy="5"/>
      <feGaussianBlur result="blur-5" stdDeviation="10"/>
      <feFlood flood-color="#3668cc" flood-opacity=".6"/>
      <feComposite in2="blur-5" operator="in"/>
      <feComposite in="SourceGraphic"/>
    </filter>
  </defs>
  <path class="cls-4" d="M65.66,147.26c16.62.45,34.78,0,54.19-1.93,51.57-5.11,94.53-18.81,126.96-32.52"/>
  <path class="cls-4" d="M104.44,59.26s83.89-20.78,119.56,39.71"/>
  <path class="cls-4" d="M94.59,232.63s28.3,5.37,52.46-8.97c10.2-6.06,116.95-93.3,116.95-93.3"/>
  <g id="Earth" class="cls-15">
    <path class="cls-3" d="M201.77,43.38c1.55-.67,3.12-1.3,4.71-1.88,0,0-.65,3.77-1.98,4.66-1.34.88-4.67,3.55-7.34,3.55s-1.11-1.55-1.11-1.55c0,0,2-1.56,3.78-1.56.75,0,1.42-1.49,1.94-3.22Z"/>
    <path class="cls-3" d="M206.48,41.5c3.26-1.19,6.6-2.21,10.02-3.02,0,0,.89,3.01,0,4.34-.89,1.34-2,1.34-4.22,1.34s0,0-1.78-1.56l-1.34.44-2.68-1.54Z"/>
    <path class="cls-3" d="M323.51,97.72c-.76-2.25-1.6-4.47-2.54-6.64-1.94.48-3.58.85-3.58.85,0,0-3.11-1.11-5.56-1.33-2.44-.22,0,2,.22,6.22.23,4.22,2.67,5.34,4.89,8.67,2.22,3.33,2.22,5.33,2.67,7.33.44,2-1.11,2.22-2.89,5-1.78,2.77-5.11,1.22-19.11,3.67-14,2.44-13.56-.45-23.33-.44-9.78,0-5.12-1.34-11.34-1.78-6.22-.45-7.55-.89-16.89-2.45-9.33-1.55-8-1.55-9.77-2.89-1.78-1.33-2.67-3.33-4.23-7.33-1.55-4,2.45-2.89,4.67-3.56,2.22-.66,3.33-1.11,6.22-1.87,2.89-.76,2.67-2.13,5.34-3.46,2.67-1.33,4-.67,5.77-.67s1.56.67,1.91,2.97c.34,2.3,2.54.59,5.87,0,3.33-.59,3.11-.74,5.78-1.41,2.67-.67,3.55-.22,7.11-1.56,3.56-1.33,4-1.11,5.78-2,1.78-.88,2-1.33,3.55-2.66,1.56-1.34.23-1.34-.22-2.89-.44-1.56-1.78-2-3.33-2.89-1.56-.89-1.11.22-4.22,1.4-3.12,1.18-2,.38-2.45-1.4-.44-1.78.45-2.44,1.56-4,1.11-1.56.22-1.33,1.55-3.78,1.34-2.44,1.78-.66,4.45-1.11,2.66-.44,2.89-.22,6-1.11,3.11-.89,1.55-1.56,1.33-3.11-.22-1.56-2.67-2.67-6.89-3.33-4.22-.67-6.67.44-10.67,2-4,1.55-1.33,2.44-.88,5.33.44,2.89.88,2.89,1.77,6.67.89,3.77,0,1.77,0,3.84s-2.66-.29-4.44-1.18c-1.78-.89-1.11-1.55-2.46-4-1.36-2.44-2.87-2.44-5.54-3.11-2.67-.67,3.11,2.67,4,4.45.89,1.77,2,4.66,1.33,5.11-.66.44-1.78-.23-2.44-2.23-.67-2-4.45-2-6.67-3.33-2.22-1.33-4.22-.44-5.55.22-1.34.67-3.34,1.56-5.78,2.89-2.45,1.34-1.11,3.34-1.78,4.89-.67,1.56-1.11,4.22-1.91,6.89-.8,2.67-3.65.89-6.76,0-3.11-.89-1.55-4.67-1.55-7.33s1.11-3.11,2-5.34c.89-2.22,2,0,3.13,0s1.76-.22,3.18-1.77c1.42-1.56.8-1.34,0-2.23-.8-.89-1.42,0-3.18,0s-3.58-.22-4.24-2c-.67-1.77-2-1.33-2-1.33,0,0-.67,1.11-.89,3.11-.22,2-1.56.22-2.67,0-1.11-.22,0-1.55.67-3.55.66-2,0,0-2.09-.45-2.08-.44-3.02-1.78-3.69-3.78s1.78-.22,3.56-1.11c1.77-.89,0,0,1.55-1.55s2-1.56,2.68-2.45c.67-.89,3.54,1.34,3.54,1.34h-1.77s.44,2.44,2,3.77c1.55,1.34,1.11,1.34,3.35,1.56,2.24.22.65-1.11,0-2.67-.09-.22,3.09.22,5.98-.89,2.89-1.11,1.11-1.11,1.15-1.77.04-.67,1.52,0,2.4,0s2-.45,3.34-1.78c1.33-1.34,0,0-2.22-2.6-2.22-2.6.88-1.18,2-2.51,1.11-1.34-.23-1.56-.23-1.56,0,0-1.33.89-2.66,2-1.34,1.11-1.78-.44-2.63-1.78-.85-1.33,1.29-2.44,0-3.55-1.3-1.11-1.37.66-3.82,2-2.44,1.33.22,1.78,1.56,2.89,1.33,1.11.89,1.55,2.26,2.51s.85,1.04-.48,3.26c-1.34,2.23-2.89-.44-2.89-.44l-.45-.63c-.44-.63-1.33-.7-3.31-1.37-1.98-.67-2.02-.22-3.58-1.78-1.55-1.55-.44-1.78,0-2.66.45-.89.89-1.34,1.11-2.89.23-1.56,0-1.78.67-3.11.67-1.34,1.56-.67,2.67-1.21,1.11-.54,2.22.54,4,0,1.78-.54,1.33-.79,2.26-1.91.93-1.11.63-1.55,1.74-2.66,1.11-1.11,1.78-.22,1.78-.22,0,0,.44,2.66,1.55,4.22,1.11,1.55,3.78-.45,4.45-1.56.66-1.11-1.34-.66-2.89-2-1.56-1.33-.67-2.89-.67-2.89,0,0,2.22.67,6.44,0,4.23-.66,0,0-.88-.83-.89-.83-2-.28-3.34-.15-1.33.13-2.22.32-3.78-.13-1.55-.44-1.77.45-3.55,0-1.78-.44-1.33-1.33-1.33-1.33,0,0,2-1.11,3.11-1.78,1.11-.67,0,0-.89-.44-.89-.45-2.89,0-2.89,0,0,0-.45-2.23-1.11-3.56-.67-1.33-1.56,0-1.56,0,0,0-5.11-1.55-5.78-1.55s-4.46-1.88-4.65-1.88c-4.79.37-9.47,1.11-14.01,2.2l4,2.12s.66.44,0,1.11c-.67.67.66,1.11,2,1.33,1.33.23,2.44.89,2.44.89,0,0,2-.66,1.34,1.11-.67,1.78-2.89,2.45-3.56,2.23-.67-.23-2-1.11-2-1.11,0,0-.89-.89-1.78,0-.89.88,1.56.66-.89.88-2.44.23-2-.88-3.55-.88s-6,1.33-6,1.33c0,0-.45,2.44,1.33,2.22,1.78-.22,2.45-.64,3.11.02.67.65,1.34.65,1.56,2.65.22,2-.67,3.11-1.11,5.11-.45,2-.67,5.55-.67,5.55,0,0-9.56,2.23-9.56,4.67s-4,3.78-4.88,4.22c-.89.45-2.91,3.34-2.68,0,.23-3.33.9-8.89,1.34-10,.45-1.11,3.11-2.89,3.78-4,.67-1.11,2.22-2.89,1.11-3.33s-3.55-.64-4.67,1.24c-1.11,1.87-2.22,2.98-3.55,3.87-1.33.89-2.45,1.78-4,2.45-1.56.66-2.45,1.11-4.22,1.77-1.78.67-4,.89-4.67.67s.67-1.56-.67-.22c-1.33,1.33-.89,1.11-2.66,3.55-1.78,2.45-2,1.56-4,4.67s-2.45,4-2.23,4.67c.23.66,1.12,2,1.12,2,0,0,4-1.34,5.55-4,1.56-2.67,1.11-4.45,2.45-5.34,1.33-.89,3.33-1.77,4-1.77s2.22-2.98,2.88-2.38c.67.6,4.23,1.71,2.45,4.38-1.78,2.66-2.89,3.55-2.89,5.55s-.67,2.67.67,4.89c1.33,2.22,2.66,1.11,2.22,3.78-.45,2.66,0,4.44-1.56,4.66-1.55.23-2.44-1.11-3.55-3.11-1.11-2-.22-3.11-2.45-3.11s-3.77.45-5.11,1.34c-1.33.88-4.44.44-1.33,2.88,3.11,2.45,5.33.89,4.44,3.12-.89,2.22,2.89,2.44-4.44,3.55-7.33,1.11-10,1.11-10.89,1.33-.89.23-1.11.23-1.11,2s2.67,1.34,0,4c-2.67,2.67-2.67,2.89-4.45,3.78-1.77.89-2.44-.22-3.77,1.56-1.34,1.78-.89.44-1.34,1.78-.14.41-.19.54-.22.58-.02.04-.07.2-.22.75-.45,1.55-2.22,3.33-2.22,3.33l-3.26-.25c-.09.57-.17,1.15-.25,1.72-.55,4.02-.83,8.12-.83,12.29,0,2.67.12,5.32.35,7.94,1.51-1.55,3.45-3.3,6.43-4.81.82-.41,4.14-2.04,5.33-.89.62.59.19,1.46.89,2.08,1.02.88,3.33.32,4.74-.89,1.26-1.07.9-1.87,1.78-2.67,2.63-2.38,9.51,1.21,9.78.59.17-.39-2.58-1.72-2.37-2.37.26-.8,4.72.29,5.04-.59.3-.84-3.58-2.22-3.56-4.15.02-1.34,1.94-2.29,3.85-3.26,1.18-.59,2.56-1.3,3.19-.74.46.42.47,1.51,0,2-.37.39-.88.26-1.11.67-.24.43.06,1.02.11,1.11.52.97,1.92,1.16,3.22,1.33.71.1,1.08.14,1.44,0,1.04-.39,1.46-1.67,1.56-2,.15-.45.06-.44.22-1.11.2-.79.4-1.6.89-2.11.54-.56,1.28-.59,2.78-.67.84-.04,2.02-.08,3.44.34,1.32.39,1.76.85,2.89,1.44,2.25,1.18,2.84.54,6.11,1.56,1.78.55,1.76.78,5,2.11,3.32,1.35,3.72,1.76,4.78,1.78,2.12.04,2.78-1.15,4.67-1.67,4.24-1.16,10.1,2.3,10.11,5,0,1.96-3.09,3.51-6.33,4.89-12.77,5.42-24.02,6.54-30.67,7.55-11.19,1.7-19.75,3-28.11,8-4.95,2.96-8.52,6.44-11.27,9.78,12.44,35.16,45.98,60.34,85.4,60.34,50.02,0,90.58-40.55,90.58-90.58,0-10.09-1.65-19.79-4.7-28.86ZM220.05,70.16l-3.77-1.12h-3.34v-2.29l3.34-.97,4.88,1.93-1.11,2.45Z"/>
  </g>
  <g id="Land">
    <path class="cls-7" d="M226.28,45.04c-.67,1.78-2.89,2.45-3.56,2.23-.67-.23-2-1.11-2-1.11,0,0-.89-.89-1.78,0-.89.88,1.56.66-.89.88-2.44.23-2-.88-3.55-.88s-6,1.33-6,1.33c0,0-.45,2.44,1.33,2.22,1.78-.22,2.45-.64,3.11.02.67.65,1.34.65,1.56,2.65.22,2-.67,3.11-1.11,5.11-.45,2-.67,5.55-.67,5.55,0,0-9.56,2.23-9.56,4.67s-4,3.78-4.88,4.22c-.89.45-2.91,3.34-2.68,0,.23-3.33.9-8.89,1.34-10,.45-1.11,3.11-2.89,3.78-4,.67-1.11,2.22-2.89,1.11-3.33s-3.55-.64-4.67,1.24c-1.11,1.87-2.22,2.98-3.55,3.87-1.33.89-2.45,1.78-4,2.45-1.56.66-2.45,1.11-4.22,1.77-1.78.67-4,.89-4.67.67s.67-1.56-.67-.22c-1.33,1.33-.89,1.11-2.66,3.55-1.78,2.45-2,1.56-4,4.67s-2.45,4-2.23,4.67c.23.66,1.12,2,1.12,2,0,0,4-1.34,5.55-4,1.56-2.67,1.11-4.45,2.45-5.34,1.33-.89,3.33-1.77,4-1.77s2.22-2.98,2.88-2.38c.67.6,4.23,1.71,2.45,4.38-1.78,2.66-2.89,3.55-2.89,5.55s-.67,2.67.67,4.89c1.33,2.22,2.66,1.11,2.22,3.78-.45,2.66,0,4.44-1.56,4.66-1.55.23-2.44-1.11-3.55-3.11-1.11-2-.22-3.11-2.45-3.11s-3.77.45-5.11,1.34c-1.33.88-4.44.44-1.33,2.88,3.11,2.45,5.33.89,4.44,3.12-.89,2.22,2.89,2.44-4.44,3.55-7.33,1.11-10,1.11-10.89,1.33-.89.23-1.11.23-1.11,2s2.67,1.34,0,4c-2.67,2.67-2.67,2.89-4.45,3.78-1.77.89-2.44-.22-3.77,1.56-1.34,1.78-.89.44-1.34,1.78-.14.41-.19.54-.22.58-.02.04-.07.2-.22.75-.45,1.55-2.22,3.33-2.22,3.33l-3.26-.25c4.83-31.17,25.56-57.08,53.64-69.19-.52,1.73-1.19,3.22-1.94,3.22-1.78,0-3.78,1.56-3.78,1.56,0,0-1.55,1.55,1.11,1.55s6-2.67,7.34-3.55c1.33-.89,1.98-4.66,1.98-4.66l2.68,1.54,1.34-.44c1.78,1.56-.45,1.56,1.78,1.56s3.33,0,4.22-1.34c.89-1.33,0-4.34,0-4.34l4,2.12s.66.44,0,1.11c-.67.67.66,1.11,2,1.33,1.33.23,2.44.89,2.44.89,0,0,2-.66,1.34,1.11Z"/>
    <polygon class="cls-7" points="221.16 67.71 220.05 70.16 216.28 69.04 212.94 69.04 212.94 66.75 216.28 65.78 221.16 67.71"/>
    <path class="cls-7" d="M319.61,112.82c.44,2-1.11,2.22-2.89,5-1.78,2.77-5.11,1.22-19.11,3.67-14,2.44-13.56-.45-23.33-.44-9.78,0-5.12-1.34-11.34-1.78-6.22-.45-7.55-.89-16.89-2.45-9.33-1.55-8-1.55-9.77-2.89-1.78-1.33-2.67-3.33-4.23-7.33-1.55-4,2.45-2.89,4.67-3.56,2.22-.66,3.33-1.11,6.22-1.87,2.89-.76,2.67-2.13,5.34-3.46,2.67-1.33,4-.67,5.77-.67s1.56.67,1.91,2.97c.34,2.3,2.54.59,5.87,0,3.33-.59,3.11-.74,5.78-1.41,2.67-.67,3.55-.22,7.11-1.56,3.56-1.33,4-1.11,5.78-2,1.78-.88,2-1.33,3.55-2.66,1.56-1.34.23-1.34-.22-2.89-.44-1.56-1.78-2-3.33-2.89-1.56-.89-1.11.22-4.22,1.4-3.12,1.18-2,.38-2.45-1.4-.44-1.78.45-2.44,1.56-4,1.11-1.56.22-1.33,1.55-3.78,1.34-2.44,1.78-.66,4.45-1.11,2.66-.44,2.89-.22,6-1.11,3.11-.89,1.55-1.56,1.33-3.11-.22-1.56-2.67-2.67-6.89-3.33-4.22-.67-6.67.44-10.67,2-4,1.55-1.33,2.44-.88,5.33.44,2.89.88,2.89,1.77,6.67.89,3.77,0,1.77,0,3.84s-2.66-.29-4.44-1.18c-1.78-.89-1.11-1.55-2.46-4-1.36-2.44-2.87-2.44-5.54-3.11-2.67-.67,3.11,2.67,4,4.45.89,1.77,2,4.66,1.33,5.11-.66.44-1.78-.23-2.44-2.23-.67-2-4.45-2-6.67-3.33-2.22-1.33-4.22-.44-5.55.22-1.34.67-3.34,1.56-5.78,2.89-2.45,1.34-1.11,3.34-1.78,4.89-.67,1.56-1.11,4.22-1.91,6.89-.8,2.67-3.65.89-6.76,0-3.11-.89-1.55-4.67-1.55-7.33s1.11-3.11,2-5.34c.89-2.22,2,0,3.13,0s1.76-.22,3.18-1.77c1.42-1.56.8-1.34,0-2.23-.8-.89-1.42,0-3.18,0s-3.58-.22-4.24-2c-.67-1.77-2-1.33-2-1.33,0,0-.67,1.11-.89,3.11-.22,2-1.56.22-2.67,0-1.11-.22,0-1.55.67-3.55.66-2,0,0-2.09-.45-2.08-.44-3.02-1.78-3.69-3.78s1.78-.22,3.56-1.11c1.77-.89,0,0,1.55-1.55s2-1.56,2.68-2.45c.67-.89,3.54,1.34,3.54,1.34h-1.77s.44,2.44,2,3.77c1.55,1.34,1.11,1.34,3.35,1.56,2.24.22.65-1.11,0-2.67-.09-.22,3.09.22,5.98-.89,2.89-1.11,1.11-1.11,1.15-1.77.04-.67,1.52,0,2.4,0s2-.45,3.34-1.78c1.33-1.34,0,0-2.22-2.6-2.22-2.6.88-1.18,2-2.51,1.11-1.34-.23-1.56-.23-1.56,0,0-1.33.89-2.66,2-1.34,1.11-1.78-.44-2.63-1.78-.85-1.33,1.29-2.44,0-3.55-1.3-1.11-1.37.66-3.82,2-2.44,1.33.22,1.78,1.56,2.89,1.33,1.11.89,1.55,2.26,2.51s.85,1.04-.48,3.26c-1.34,2.23-2.89-.44-2.89-.44l-.45-.63c-.44-.63-1.33-.7-3.31-1.37-1.98-.67-2.02-.22-3.58-1.78-1.55-1.55-.44-1.78,0-2.66.45-.89.89-1.34,1.11-2.89.23-1.56,0-1.78.67-3.11.67-1.34,1.56-.67,2.67-1.21,1.11-.54,2.22.54,4,0,1.78-.54,1.33-.79,2.26-1.91.93-1.11.63-1.55,1.74-2.66,1.11-1.11,1.78-.22,1.78-.22,0,0,.44,2.66,1.55,4.22,1.11,1.55,3.78-.45,4.45-1.56.66-1.11-1.34-.66-2.89-2-1.56-1.33-.67-2.89-.67-2.89,0,0,2.22.67,6.44,0,4.23-.66,0,0-.88-.83-.89-.83-2-.28-3.34-.15-1.33.13-2.22.32-3.78-.13-1.55-.44-1.77.45-3.55,0-1.78-.44-1.33-1.33-1.33-1.33,0,0,2-1.11,3.11-1.78,1.11-.67,0,0-.89-.44-.89-.45-2.89,0-2.89,0,0,0-.45-2.23-1.11-3.56-.67-1.33-1.56,0-1.56,0,0,0-5.11-1.55-5.78-1.55s-4.46-1.88-4.65-1.88c2.35-.19,4.72-.28,7.12-.28.9,0,1.8,0,2.7.04,10.83.32,21.19,2.54,30.75,6.35,16.24,6.44,30.16,17.46,40.19,31.45,3.83,5.34,7.1,11.12,9.7,17.24-1.94.48-3.58.85-3.58.85,0,0-3.11-1.11-5.56-1.33-2.44-.22,0,2,.22,6.22.23,4.22,2.67,5.34,4.89,8.67,2.22,3.33,2.22,5.33,2.67,7.33Z"/>
    <path class="cls-7" d="M228.61,126.6c0,1.96-3.09,3.51-6.33,4.89-12.77,5.42-24.02,6.54-30.67,7.55-11.19,1.7-19.75,3-28.11,8-4.95,2.96-8.52,6.44-11.27,9.78-2.14-6.02-3.65-12.34-4.47-18.87-.14-1.14-.27-2.28-.36-3.43,1.51-1.55,3.45-3.3,6.43-4.81.82-.41,4.14-2.04,5.33-.89.62.59.19,1.46.89,2.08,1.02.88,3.33.32,4.74-.89,1.26-1.07.9-1.87,1.78-2.67,2.63-2.38,9.51,1.21,9.78.59.17-.39-2.58-1.72-2.37-2.37.26-.8,4.72.29,5.04-.59.3-.84-3.58-2.22-3.56-4.15.02-1.34,1.94-2.29,3.85-3.26,1.18-.59,2.56-1.3,3.19-.74.46.42.47,1.51,0,2-.37.39-.88.26-1.11.67-.24.43.06,1.02.11,1.11.52.97,1.92,1.16,3.22,1.33.71.1,1.08.14,1.44,0,1.04-.39,1.46-1.67,1.56-2,.15-.45.06-.44.22-1.11.2-.79.4-1.6.89-2.11.54-.56,1.28-.59,2.78-.67.84-.04,2.02-.08,3.44.34,1.32.39,1.76.85,2.89,1.44,2.25,1.18,2.84.54,6.11,1.56,1.78.55,1.76.78,5,2.11,3.32,1.35,3.72,1.76,4.78,1.78,2.12.04,2.78-1.15,4.67-1.67,4.24-1.16,10.1,2.3,10.11,5Z"/>
  </g>
  <g id="Card-2" data-name="Card" class="cls-17">
    <g id="Card-3" data-name="Card">
      <path class="cls-2" d="M351.71,226.05l-24.03,3.87-154,24.83c-2.63.43-5.19-1.08-6.12-3.58l-20.13-54.6-17.63-47.79c-1.22-3.3,2.6-12.64,6.06-13.21-2.74,1.09-4.23,4.21-3.16,7.12l17.63,47.79,20.13,54.6c.93,2.5,3.5,4.01,6.12,3.58l154-24.83,24.03-3.87c2.85-.46,4.78-2.97,4.68-5.7h.01c1.22,3.31-4.13,11.23-7.59,11.79Z"/>
      <path class="cls-7" d="M359.29,214.26c.1,2.73-1.83,5.24-4.68,5.7l-24.03,3.87-154,24.83c-2.63.43-5.19-1.08-6.12-3.58l-20.13-54.6-8.37-22.7-9.26-25.09c-1.07-2.91.43-6.03,3.16-7.12.37-.15.77-.27,1.19-.33l178.02-28.69c2.64-.43,5.21,1.07,6.12,3.58l10.02,27.15,8.29,22.5,14.8,40.17,4.64,12.57c.21.58.33,1.18.34,1.74Z"/>
      <g>
        <path class="cls-9" d="M166.65,158.67c.27.75.3,1.4.1,1.94s-.58.99-1.13,1.33c-.55.35-1.22.58-2.01.7l-6.05.94-4.6-12.87,6.91-1.07c.58-.09,1.15,0,1.69.25.54.25,1.02.62,1.43,1.09.41.47.71.98.91,1.52.21.59.27,1.19.17,1.8-.1.61-.4,1.09-.9,1.45.79.11,1.49.41,2.11.9.61.49,1.07,1.17,1.38,2.02ZM156.74,152.81l.95,2.67,2.81-.44c.22-.03.41-.11.56-.24.15-.13.25-.29.29-.5s0-.47-.1-.77c-.11-.3-.25-.54-.41-.72-.17-.18-.35-.31-.55-.38-.2-.08-.41-.1-.63-.06l-2.91.45ZM163.53,158.54c-.1-.27-.23-.5-.42-.7-.18-.2-.38-.35-.6-.45s-.44-.13-.69-.09l-3.3.51,1,2.81,3.17-.49c.26-.04.46-.13.62-.29.16-.15.25-.34.29-.56.04-.22,0-.47-.09-.73Z"/>
        <path class="cls-9" d="M167.81,148.41l3.09-.48,8.92,12.2-2.95.46-1.88-2.75-4.11.64.18,3.01-2.95.46-.31-13.54ZM173.67,155.9l-3.23-4.74.31,5.2,2.92-.45Z"/>
        <path class="cls-9" d="M181.26,152.12l2.64,7.38-2.88.45-4.6-12.87,2.28-.35,8.48,6.68-2.71-7.58,2.86-.44,4.6,12.87-2.33.36-8.34-6.49Z"/>
        <path class="cls-9" d="M194.33,157.87l-4.6-12.87,2.88-.45,1.98,5.55,2.58-6.26,3.23-.5-2.61,6.47,7.53,6.35-3.3.51-5.35-4.62-.8,1.58,1.35,3.79-2.88.45Z"/>
        <path class="cls-9" d="M207.04,148.97c-.28-.77-.41-1.56-.41-2.36,0-.8.17-1.55.49-2.26.32-.71.8-1.3,1.44-1.79.64-.49,1.44-.81,2.42-.96,1.17-.18,2.28-.08,3.32.31,1.05.39,1.93.96,2.66,1.73l-1.65,1.96c-.34-.43-.71-.75-1.11-.97-.4-.21-.81-.34-1.21-.39-.4-.04-.78-.04-1.13.01-.54.08-.97.27-1.3.55-.33.29-.56.64-.7,1.06-.13.42-.19.87-.16,1.35.03.48.12.94.28,1.39.19.52.44,1,.77,1.45.33.45.7.83,1.11,1.15.42.32.86.55,1.34.7.48.15.97.18,1.47.11.35-.05.69-.17,1.01-.34.32-.17.59-.41.8-.73.21-.31.33-.7.33-1.16l2.89,1.08c-.03.67-.25,1.27-.65,1.8-.4.54-.91.97-1.53,1.32-.62.34-1.28.57-1.98.68-.9.14-1.79.08-2.68-.19-.88-.26-1.71-.67-2.49-1.22-.78-.55-1.46-1.2-2.04-1.94-.58-.75-1.02-1.53-1.31-2.35Z"/>
        <path class="cls-9" d="M220.51,140.22l3.09-.48,8.92,12.2-2.95.46-1.87-2.75-4.11.64.18,3.02-2.95.46-.31-13.54ZM226.37,147.71l-3.23-4.74.31,5.19,2.92-.45Z"/>
        <path class="cls-9" d="M233.73,151.75l-4.6-12.87,5.59-.87c.6-.09,1.19-.05,1.78.12.59.18,1.14.44,1.65.8.5.35.95.78,1.34,1.27.39.49.68,1,.88,1.55.19.52.28,1.03.28,1.54s-.08.98-.25,1.4c-.17.42-.42.79-.74,1.09l4.45,4.36-3.17.49-3.87-3.78-1.95.3,1.49,4.15-2.88.45ZM234.18,144.54l2.65-.41c.22-.03.4-.14.53-.31.13-.17.21-.4.23-.69.02-.28-.03-.59-.15-.93-.13-.36-.31-.66-.54-.9-.23-.24-.47-.42-.73-.53-.26-.11-.49-.15-.7-.12l-2.54.4,1.25,3.5Z"/>
        <path class="cls-9" d="M245.47,149.93l-4.6-12.87,4.65-.72c1.37-.21,2.62-.1,3.74.33,1.13.43,2.1,1.1,2.91,2,.81.9,1.43,1.94,1.85,3.13.47,1.31.62,2.48.45,3.53-.17,1.05-.62,1.91-1.36,2.58-.74.68-1.73,1.11-2.98,1.31l-4.65.72ZM251.09,142.24c-.27-.75-.63-1.39-1.1-1.93-.46-.53-1-.92-1.6-1.17-.61-.24-1.25-.31-1.94-.21l-1.77.28,2.74,7.65,1.77-.28c.7-.11,1.23-.37,1.6-.78.37-.41.57-.92.62-1.55.05-.63-.06-1.3-.32-2.03Z"/>
      </g>
    </g>
    <g id="Chip">
      <path class="cls-9" d="M173.67,173.41l1.32,3.39c.22.56-.13,1.17-.72,1.28l-10.97,1.91-.49-1.26c-.85-2.17.72-4.32,3.49-4.8l6.32-1.1c.44-.08.88.17,1.04.59Z"/>
      <path class="cls-9" d="M176.4,180.42l1.21,3.11c.34.88-.2,1.84-1.13,2.01l-9.12,1.59c-.7.12-1.38-.27-1.64-.92l-1.21-3.11c-.34-.88.2-1.84,1.13-2.01l9.12-1.59c.7-.12,1.38.27,1.64.92Z"/>
      <path class="cls-9" d="M179.11,187.35l1.55,3.98c.22.56-.13,1.17-.72,1.28l-5.94,1.03c-2.78.48-5.71-.88-6.56-3.05l-.3-.78c-.22-.56.13-1.17.72-1.28l10.21-1.78c.44-.08.88.17,1.04.59Z"/>
      <path class="cls-9" d="M184.02,171.74l6.87,17.62c.25.65-.15,1.37-.84,1.49l-6.28,1.09c-.52.09-1.03-.2-1.22-.69l-6.87-17.62c-.25-.65.15-1.37.84-1.49l6.28-1.09c.52-.09,1.03.2,1.22.69Z"/>
      <path class="cls-9" d="M198.88,172.44l.49,1.26-10.99,1.91c-.5.09-1-.19-1.18-.67l-1.23-3.15c-.25-.63.15-1.33.81-1.45l5.54-.96c2.78-.48,5.71.88,6.56,3.05Z"/>
      <path class="cls-9" d="M200.14,175.65l1.79,4.59c.16.42-.1.88-.54.96l-10.43,1.82c-.33.06-.66-.13-.78-.44l-1.79-4.59c-.16-.42.1-.88.54-.96l10.43-1.82c.33-.06.66.13.78.44Z"/>
      <path class="cls-9" d="M202.19,182.56c.35-.06.7.13.83.47l.5,1.28c.85,2.17-.72,4.32-3.49,4.8l-6.22,1.08c-.35.06-.7-.13-.83-.47l-1.7-4.35c-.17-.44.1-.93.57-1.01l10.34-1.8Z"/>
    </g>
    <g id="Info">
      <path class="cls-10" d="M210.59,205.5l-34.83,5.31c-1.02.16-2.15-.66-2.51-1.83l-1.4-4.51c-.36-1.16.17-2.23,1.2-2.39l34.83-5.31c1.02-.16,2.15.66,2.51,1.83l1.4,4.51c.36,1.16-.17,2.23-1.2,2.39Z"/>
      <path class="cls-10" d="M253.54,199.13l-34.83,5.31c-1.02.16-2.15-.66-2.51-1.83l-1.4-4.51c-.36-1.16.17-2.23,1.2-2.39l34.83-5.31c1.02-.16,2.15.66,2.51,1.83l1.4,4.51c.36,1.16-.17,2.23-1.2,2.39Z"/>
      <path class="cls-10" d="M295.35,192.85l-34.83,5.31c-1.02.16-2.15-.66-2.51-1.83l-1.4-4.51c-.36-1.16.17-2.23,1.2-2.39l34.83-5.31c1.02-.16,2.15.66,2.51,1.83l1.4,4.51c.36,1.16-.17,2.23-1.2,2.39Z"/>
      <path class="cls-10" d="M337.63,186.83l-34.83,5.31c-1.02.16-2.15-.66-2.51-1.83l-1.4-4.51c-.36-1.16.17-2.23,1.2-2.39l34.83-5.31c1.02-.16,2.15.66,2.51,1.83l1.4,4.51c.36,1.16-.17,2.23-1.2,2.39Z"/>
      <path class="cls-10" d="M300.98,202.28l-120.88,17.89c-1,.15-1.55,1.53-1.12,2.82l1.58,4.78c.31.93,1.03,1.5,1.75,1.4l120.88-17.89c1-.15,1.55-1.53,1.12-2.82l-1.58-4.78c-.31-.93-1.03-1.5-1.75-1.4Z"/>
    </g>
  </g>
  <g id="Shield-2" data-name="Shield" class="cls-14">
    <path class="cls-5" d="M59.43,126.88v15.07c0,12.18-7.2,23.2-18.36,28.08l-3.15,1.38-3.15-1.38c-11.15-4.88-18.36-15.91-18.36-28.08v-15.07c10.81,0,21.52-5.17,21.52-5.17,0,0,12.39,5.17,21.52,5.17Z"/>
    <path class="cls-2" d="M51.32,134.3v9.39c0,7.59-4.49,14.46-11.44,17.5l-1.96.86-1.96-.86c-6.95-3.04-11.44-9.91-11.44-17.5v-9.39c6.74,0,13.41-3.22,13.41-3.22,0,0,7.72,3.22,13.41,3.22Z"/>
    <polyline class="cls-8" points="31.31 147.16 35.88 152.58 44.52 140.55"/>
  </g>
  <g id="Bank" class="cls-13">
    <g>
      <rect class="cls-2" x="44.9" y="51.72" width="6.48" height="21.88"/>
      <rect class="cls-2" x="58.6" y="51.72" width="6.67" height="21.88"/>
      <rect class="cls-2" x="72.49" y="51.72" width="6.22" height="21.88"/>
    </g>
    <rect class="cls-5" x="34.49" y="73.81" width="54.78" height="9.92"/>
    <rect class="cls-1" x="34.49" y="45.29" width="54.78" height="6.54"/>
    <polygon class="cls-1" points="61.88 33.62 74.42 39.46 86.96 45.29 61.88 45.29 36.79 45.29 49.34 39.46 61.88 33.62"/>
    <g>
      <g>
        <rect class="cls-6" x="38.23" y="54.54" width="6.48" height="16.25"/>
        <rect class="cls-1" x="36.6" y="69.19" width="9.74" height="4.49"/>
        <rect class="cls-1" x="36.6" y="51.96" width="9.74" height="3.88"/>
      </g>
      <g>
        <rect class="cls-6" x="51.58" y="54.54" width="6.48" height="16.25"/>
        <rect class="cls-1" x="49.95" y="69.19" width="9.74" height="4.49"/>
        <rect class="cls-1" x="49.95" y="51.96" width="9.74" height="3.88"/>
      </g>
      <g>
        <rect class="cls-6" x="65.66" y="54.54" width="6.48" height="16.25"/>
        <rect class="cls-1" x="64.03" y="69.19" width="9.74" height="4.49"/>
        <rect class="cls-1" x="64.03" y="51.96" width="9.74" height="3.88"/>
      </g>
      <g>
        <rect class="cls-6" x="78.85" y="54.54" width="6.48" height="16.25"/>
        <rect class="cls-1" x="77.22" y="69.19" width="9.74" height="4.49"/>
        <rect class="cls-1" x="77.22" y="51.96" width="9.74" height="3.88"/>
      </g>
    </g>
  </g>
  <g id="Lock" class="cls-16">
    <path class="cls-5" d="M77.22,227.23v22.89c0,2.19-1.77,3.97-3.96,3.97h-33.56c-2.19,0-3.96-1.78-3.96-3.97v-22.89c0-2.19,1.77-3.97,3.96-3.97h33.56c2.19,0,3.96,1.78,3.96,3.97Z"/>
    <path class="cls-5" d="M71.03,223.26h-6.13c0-8.05-.2-13.85-8.41-13.85s-8.41,5.21-8.41,13.85h-6.13c0-8.03,0-19.99,14.55-19.99s14.55,11.96,14.55,19.99Z"/>
    <g>
      <path class="cls-11" d="M54.77,246.64l-.03-6.83c0-.36-.19-.69-.5-.87-1.35-.78-2.2-2.24-2.2-3.8,0-2.45,1.99-4.44,4.44-4.44s4.44,1.99,4.44,4.44c0,1.57-.84,3.02-2.2,3.8-.31.18-.5.51-.5.87v6.79l-.04.04h-3.41Z"/>
      <path class="cls-12" d="M56.48,231.71c1.9,0,3.44,1.54,3.44,3.44,0,1.23-.63,2.32-1.7,2.93-.62.36-1,1.02-1,1.73v5.83h-1.48v-5.83c0-.72-.38-1.38-1-1.73-1.06-.61-1.7-1.71-1.7-2.93,0-1.9,1.54-3.44,3.44-3.44M56.48,229.71c-3,0-5.44,2.44-5.44,5.44,0,2,1.08,3.74,2.7,4.67v6.79c0,.57.46,1.04,1.03,1.04h3.41c.58,0,1.04-.47,1.04-1.04v-6.79c1.62-.93,2.7-2.67,2.7-4.67,0-3-2.44-5.44-5.44-5.44h0Z"/>
    </g>
  </g>
</svg>