<?xml version="1.0" encoding="UTF-8"?>
<svg id="Citizenship" xmlns="http://www.w3.org/2000/svg" xmlns:xlink="http://www.w3.org/1999/xlink" viewBox="0 0 380.44 288.44">
  <defs>
    <style>
      .cls-1 {
        fill: #0362e1;
      }

      .cls-1, .cls-2 {
        stroke: #0032b8;
        stroke-linecap: round;
        stroke-linejoin: round;
        stroke-width: 2px;
      }

      .cls-3 {
        filter: url(#drop-shadow-1);
      }

      .cls-4, .cls-5 {
        fill: #fff;
        stroke-width: 0px;
      }

      .cls-5 {
        fill-rule: evenodd;
      }

      .cls-2 {
        fill: #139bff;
      }
    </style>
    <filter id="drop-shadow-1" filterUnits="userSpaceOnUse">
      <feOffset dx="5" dy="5"/>
      <feGaussianBlur result="blur" stdDeviation="10"/>
      <feFlood flood-color="#3668cc" flood-opacity=".7"/>
      <feComposite in2="blur" operator="in"/>
      <feComposite in="SourceGraphic"/>
    </filter>
  </defs>
  <g class="cls-3">
    <rect class="cls-2" x="107.9" y="29.63" width="13.34" height="231.11" rx="3.19" ry="3.19"/>
    <path class="cls-1" d="M116,29.63h150.96c7.2,0,13.04,5.84,13.04,13.04v205.04c0,7.2-5.84,13.04-13.04,13.04H116c-1.76,0-3.19-1.43-3.19-3.19V32.81c0-1.76,1.43-3.19,3.19-3.19Z"/>
  </g>
  <g>
    <path class="cls-4" d="M129.2,224.44v-8.59h3.65c.92,0,1.58.08,2,.23s.75.43,1,.82.38.85.38,1.35c0,.64-.19,1.18-.57,1.6s-.95.68-1.7.79c.38.22.68.46.93.72s.57.73.99,1.39l1.05,1.68h-2.07l-1.25-1.87c-.45-.67-.75-1.09-.91-1.26s-.34-.29-.52-.36-.47-.1-.87-.1h-.35v3.59h-1.73ZM130.94,219.49h1.28c.83,0,1.35-.04,1.56-.11s.37-.19.49-.36.18-.39.18-.64c0-.29-.08-.52-.23-.7s-.37-.29-.65-.34c-.14-.02-.56-.03-1.27-.03h-1.35v2.18Z"/>
    <path class="cls-4" d="M137.86,224.44v-8.59h6.37v1.45h-4.63v1.9h4.31v1.45h-4.31v2.34h4.8v1.45h-6.53Z"/>
    <path class="cls-4" d="M145.86,224.44v-8.59h2.78c1.05,0,1.74.04,2.06.13.49.13.9.41,1.24.84s.5.99.5,1.67c0,.53-.1.97-.29,1.33s-.43.64-.73.85-.59.34-.9.41c-.41.08-1.01.12-1.8.12h-1.13v3.24h-1.73ZM147.6,217.31v2.44h.95c.68,0,1.14-.04,1.37-.13s.41-.23.54-.42.2-.41.2-.67c0-.31-.09-.57-.28-.77s-.42-.33-.7-.38c-.21-.04-.62-.06-1.25-.06h-.84Z"/>
    <path class="cls-4" d="M153.86,215.85h1.73v4.65c0,.74.02,1.22.06,1.44.07.35.25.63.53.85s.66.32,1.15.32.86-.1,1.11-.3.4-.45.45-.74.08-.78.08-1.46v-4.75h1.73v4.51c0,1.03-.05,1.76-.14,2.19s-.27.79-.52,1.08-.59.53-1.01.7-.97.26-1.65.26c-.82,0-1.44-.09-1.87-.28s-.76-.44-1-.74-.41-.62-.49-.95c-.11-.49-.17-1.22-.17-2.18v-4.58Z"/>
    <path class="cls-4" d="M162.54,215.85h3.43c.68,0,1.19.03,1.52.08s.63.17.9.35.48.42.66.72.26.63.26,1c0,.4-.11.77-.33,1.11s-.51.59-.88.76c.52.15.93.41,1.21.78s.42.8.42,1.29c0,.39-.09.77-.27,1.14s-.43.66-.74.88-.7.36-1.16.41c-.29.03-.99.05-2.09.06h-2.92v-8.59ZM164.28,217.28v1.99h1.14c.68,0,1.1,0,1.26-.03.3-.04.53-.14.7-.31s.25-.39.25-.67-.07-.48-.22-.65-.36-.27-.65-.3c-.17-.02-.67-.03-1.48-.03h-1ZM164.28,220.7v2.3h1.61c.62,0,1.02-.02,1.19-.05.26-.05.47-.16.63-.34s.24-.42.24-.73c0-.26-.06-.48-.19-.66s-.31-.31-.54-.39-.75-.12-1.54-.12h-1.4Z"/>
    <path class="cls-4" d="M171.25,224.44v-8.52h1.73v7.07h4.31v1.45h-6.05Z"/>
    <path class="cls-4" d="M178.48,224.44v-8.59h1.73v8.59h-1.73Z"/>
    <path class="cls-4" d="M187.36,221.29l1.68.53c-.26.94-.69,1.63-1.29,2.09s-1.36.68-2.28.68c-1.14,0-2.08-.39-2.81-1.17s-1.1-1.84-1.1-3.2c0-1.43.37-2.54,1.11-3.33s1.71-1.19,2.91-1.19c1.05,0,1.9.31,2.56.93.39.37.68.89.88,1.58l-1.72.41c-.1-.45-.31-.8-.64-1.05s-.71-.39-1.17-.39c-.64,0-1.15.23-1.55.69s-.59,1.2-.59,2.22c0,1.09.2,1.86.59,2.32s.9.69,1.52.69c.46,0,.86-.15,1.19-.44s.57-.75.71-1.38Z"/>
    <path class="cls-4" d="M193.51,220.2c0-.88.13-1.61.39-2.2.2-.44.46-.83.8-1.18s.71-.61,1.11-.77c.54-.23,1.15-.34,1.85-.34,1.27,0,2.28.39,3.04,1.18s1.14,1.88,1.14,3.28-.38,2.47-1.13,3.25-1.76,1.17-3.02,1.17-2.29-.39-3.05-1.17-1.13-1.85-1.13-3.22ZM195.3,220.14c0,.97.22,1.71.67,2.21s1.02.75,1.71.75,1.26-.25,1.7-.75.67-1.25.67-2.24-.22-1.72-.65-2.2-1-.73-1.72-.73-1.29.25-1.73.74-.66,1.23-.66,2.22Z"/>
    <path class="cls-4" d="M203.21,224.44v-8.59h5.89v1.45h-4.15v2.03h3.59v1.45h-3.59v3.65h-1.73Z"/>
    <path class="cls-4" d="M221.16,224.44h-1.89l-.75-1.95h-3.43l-.71,1.95h-1.84l3.35-8.59h1.83l3.44,8.59ZM217.97,221.05l-1.18-3.19-1.16,3.19h2.34Z"/>
    <path class="cls-4" d="M222.09,224.44v-8.59h3.65c.92,0,1.58.08,2,.23s.75.43,1,.82.38.85.38,1.35c0,.64-.19,1.18-.57,1.6s-.95.68-1.7.79c.38.22.68.46.93.72s.57.73.99,1.39l1.05,1.68h-2.07l-1.25-1.87c-.45-.67-.75-1.09-.91-1.26s-.34-.29-.52-.36-.47-.1-.87-.1h-.35v3.59h-1.73ZM223.82,219.49h1.28c.83,0,1.35-.04,1.56-.11s.37-.19.49-.36.18-.39.18-.64c0-.29-.08-.52-.23-.7s-.37-.29-.65-.34c-.14-.02-.56-.03-1.27-.03h-1.35v2.18Z"/>
    <path class="cls-4" d="M230.73,224.44v-8.59h2.6l1.56,5.86,1.54-5.86h2.6v8.59h-1.61v-6.76l-1.71,6.76h-1.67l-1.7-6.76v6.76h-1.61Z"/>
    <path class="cls-4" d="M240.75,224.44v-8.59h6.37v1.45h-4.63v1.9h4.31v1.45h-4.31v2.34h4.8v1.45h-6.53Z"/>
    <path class="cls-4" d="M248.77,224.44v-8.59h1.69l3.52,5.74v-5.74h1.61v8.59h-1.74l-3.46-5.6v5.6h-1.61Z"/>
    <path class="cls-4" d="M257.36,224.44v-8.59h1.73v8.59h-1.73Z"/>
    <path class="cls-4" d="M268.5,224.44h-1.89l-.75-1.95h-3.43l-.71,1.95h-1.84l3.35-8.59h1.83l3.44,8.59ZM265.3,221.05l-1.18-3.19-1.16,3.19h2.34Z"/>
    <path class="cls-4" d="M166.52,238.84v-8.59h2.78c1.05,0,1.74.04,2.06.13.49.13.9.41,1.24.84s.5.99.5,1.67c0,.53-.1.97-.29,1.33s-.43.64-.73.85-.59.34-.9.41c-.41.08-1.01.12-1.8.12h-1.13v3.24h-1.73ZM168.26,231.71v2.44h.95c.68,0,1.14-.04,1.37-.13s.41-.23.54-.42.2-.41.2-.67c0-.31-.09-.57-.28-.77s-.42-.33-.7-.38c-.21-.04-.62-.06-1.25-.06h-.84Z"/>
    <path class="cls-4" d="M181.38,238.84h-1.89l-.75-1.95h-3.43l-.71,1.95h-1.84l3.35-8.59h1.83l3.44,8.59ZM178.19,235.45l-1.18-3.19-1.16,3.19h2.34Z"/>
    <path class="cls-4" d="M181.86,236.05l1.69-.16c.1.57.31.98.62,1.25s.73.4,1.26.4c.56,0,.98-.12,1.26-.35s.42-.51.42-.83c0-.2-.06-.38-.18-.52s-.33-.27-.62-.37c-.2-.07-.67-.2-1.39-.38-.93-.23-1.58-.51-1.96-.85-.53-.47-.79-1.05-.79-1.73,0-.44.12-.85.37-1.23s.61-.67,1.07-.87,1.03-.3,1.69-.3c1.08,0,1.89.24,2.43.71s.83,1.1.86,1.89l-1.73.08c-.07-.44-.23-.76-.48-.95s-.61-.29-1.1-.29-.9.1-1.18.31c-.18.13-.28.31-.28.53,0,.2.09.38.26.52.22.18.75.38,1.59.57s1.47.41,1.87.62.72.5.95.87.34.83.34,1.37c0,.49-.14.95-.41,1.38s-.66.75-1.16.96-1.12.31-1.87.31c-1.09,0-1.92-.25-2.5-.75s-.93-1.23-1.04-2.19Z"/>
    <path class="cls-4" d="M189.87,236.05l1.69-.16c.1.57.31.98.62,1.25s.73.4,1.26.4c.56,0,.98-.12,1.26-.35s.42-.51.42-.83c0-.2-.06-.38-.18-.52s-.33-.27-.62-.37c-.2-.07-.67-.2-1.39-.38-.93-.23-1.58-.51-1.96-.85-.53-.47-.79-1.05-.79-1.73,0-.44.12-.85.37-1.23s.61-.67,1.07-.87,1.03-.3,1.69-.3c1.08,0,1.89.24,2.43.71s.83,1.1.86,1.89l-1.73.08c-.07-.44-.23-.76-.48-.95s-.61-.29-1.1-.29-.9.1-1.18.31c-.18.13-.28.31-.28.53,0,.2.09.38.26.52.22.18.75.38,1.59.57s1.47.41,1.87.62.72.5.95.87.34.83.34,1.37c0,.49-.14.95-.41,1.38s-.66.75-1.16.96-1.12.31-1.87.31c-1.09,0-1.92-.25-2.5-.75s-.93-1.23-1.04-2.19Z"/>
    <path class="cls-4" d="M198.31,238.84v-8.59h2.78c1.05,0,1.74.04,2.06.13.49.13.9.41,1.24.84s.5.99.5,1.67c0,.53-.1.97-.29,1.33s-.43.64-.73.85-.59.34-.9.41c-.41.08-1.01.12-1.8.12h-1.13v3.24h-1.73ZM200.04,231.71v2.44h.95c.68,0,1.14-.04,1.37-.13s.41-.23.54-.42.2-.41.2-.67c0-.31-.09-.57-.28-.77s-.42-.33-.7-.38c-.21-.04-.62-.06-1.25-.06h-.84Z"/>
    <path class="cls-4" d="M205.96,234.6c0-.88.13-1.61.39-2.2.2-.44.46-.83.8-1.18s.71-.61,1.11-.77c.54-.23,1.15-.34,1.85-.34,1.27,0,2.28.39,3.04,1.18s1.14,1.88,1.14,3.28-.38,2.47-1.13,3.25-1.76,1.17-3.02,1.17-2.29-.39-3.05-1.17-1.13-1.85-1.13-3.22ZM207.75,234.54c0,.97.22,1.71.67,2.21s1.02.75,1.71.75,1.26-.25,1.7-.75.67-1.25.67-2.24-.22-1.72-.65-2.2-1-.73-1.72-.73-1.29.25-1.73.74-.66,1.23-.66,2.22Z"/>
    <path class="cls-4" d="M215.65,238.84v-8.59h3.65c.92,0,1.58.08,2,.23s.75.43,1,.82.38.85.38,1.35c0,.64-.19,1.18-.57,1.6s-.95.68-1.7.79c.38.22.68.46.93.72s.57.73.99,1.39l1.05,1.68h-2.07l-1.25-1.87c-.45-.67-.75-1.09-.91-1.26s-.34-.29-.52-.36-.47-.1-.87-.1h-.35v3.59h-1.73ZM217.39,233.89h1.28c.83,0,1.35-.04,1.56-.11s.37-.19.49-.36.18-.39.18-.64c0-.29-.08-.52-.23-.7s-.37-.29-.65-.34c-.14-.02-.56-.03-1.27-.03h-1.35v2.18Z"/>
    <path class="cls-4" d="M226.25,238.84v-7.14h-2.55v-1.45h6.83v1.45h-2.54v7.14h-1.73Z"/>
  </g>
  <g id="Gerb">
    <g id="g2886">
      <g id="g2892">
        <path class="cls-5" d="M266.35,125.37c.56-1.35,1.02-2.79.68-4.26-.19-.07-.48-.14-.68-.06.78-1.19.44-3.12-.57-4.1-.84-.74-2.39-.66-2.97.37-.88-2.78-13.42-23.98-6.67-22.97-.42,1.14.12,1.96,1.3,2.15,3.65.37,4.36-4.34,2.09-6.48.09-1.42-.44-2.76-1.69-3.51-.06-.69.29-1.56-.19-2.12-.35-.09-.71-.15-1.06-.23-.31-1.59-1.27-3-2.95-3.28-.54-1.15-.55-2.58-1.78-3.32-1.25-.99-3.25-1.33-4.56-.26-1.51,1.26.34,3.85,2.05,3.02-.19,4.12-.63,8.25-.38,12.38-.33-.35-.93-.38-1.38-.4-.15-.82-.22-1.79-.93-2.33-1.18-.72-3.1-.54-3.47,1.01-3.13-2.88-5.62-6.59-9.9-7.86-.79-1.2-2.21-3.9-.26-4.67l.2-.05.22-.03h.25c1.57-.12,3.64,1.91,4.71-.04.51-.93.48-2.07.99-3,1.15-1.02,1.75-2.48,2.07-3.95,3.65-4.09-3.22-6.1-4.99-8.92-1.69-1.28-4.11-1.58-5.32-3.42-.17-.18-.55-.51-.75-.66-1.51-1.1-3.46-.94-5.22-.83-.17-1.29-1.71-1.89-2.75-1.13-.84-.33-1.85-.17-2.3.68-1.19-.26-2.25.43-2.54,1.61-.44-.05-.86-.32-1.31-.17-.07.4.13.78.14,1.17-4.85,1.86-9.45,5.3-11.71,10.04-.43.67-.97,1.31-1.69,1.68l-.35.15-.37.1c-6.72.05-4.89,8.42-6.35,12.8-.99-2.51-2.1-4.97-3.18-7.45l.18-.07.35-.22-.16-.44c-.29-.74-.68-1.44-1.06-2.13-.33-.58-.66-1.16-.98-1.74-.44-.79-.89-1.59-1.25-2.42-.09-.23-.23-.5-.15-.76.05-.13.14-.25.21-.37l-.46-.64c-.67-.95-1.33-1.9-1.95-2.89-.45-.73-.87-1.47-1.27-2.22-.06-.13-.02-.3-.01-.44.02-.18.02-.35.02-.53-5.21-2.21-15.23-8.41-20.08-3.32-1.54.38-3.08.77-4.5,1.5-2.49,2.37-1.27,5.91,1.58,7.32l.12-.45.06-.09c.05-.38.1-.75.21-1.12,2.3,0,5.04.98,6.07,3.18.3,1.32.47,2.75.51,4.1.16,4.59-1.32,10.41-6.29,11.82,1.79-3.05,3.92-6.71,2.45-10.29-.68-1.9-2.31-3.42-4.26-3.94-5.21-1.24-10.73.99-14.94,4-12.28,8.93-19.12,25.12-18.48,40.13.43,6.97,2.56,13.8,5.04,20.29,4.01,9.68,7.76,19.55,10.69,29.58,2.25-.91,3.66-3.12,3.94-5.48.1.67.35,1.45.57,2.09,1.09-.31,2.09-.86,2.97-1.57-.36,2.39-.51,4.98.61,7.2,1.71-.58,3.13-1.77,4.08-3.29.09,3.09.27,6.26,1.87,9,1.56-1.58,3.08-3.25,4.11-5.24.09,2.69.55,5.55,2.71,7.39,2.07-1.54,3.4-3.85,3.95-6.35.45,2.43,2.01,4.45,4.02,5.83,2.53-1.16,2.58-4.6,3.24-6.97,1.28,1.98,2.24,4.87,4.62,5.7,2.96-8.02.4-16.53-.76-24.64.25.23.5.45.76.67l-.47-.04c.44,2.26,1.29,4.44,2.52,6.38-.42-.26-.84-.5-1.26-.75l.03.77c.77,1.46,1.75,2.84,2.63,4.24-.34-.15-.68-.31-1.02-.46-.71,1.73,1.46,2.95,2.41,4.11-.42-.15-.84-.33-1.29-.39l-1.05-.03c1.04,1.21,2.37,2.17,3.21,3.54-.98.96-1.97,2.08-1.91,3.54-1.34,1.29-2.68,2.58-4.01,3.88-.27-.01-.53-.06-.8-.11-3.38.59-6.81.62-10.24.67-2.66.74-1.62,1.8-2.24,3.77-3.23-1.12-6.09-3.38-8.6-5.66-.76,1.63,1.02,3.01,1.48,4.49-2.62-.99-5.05-2.44-7.48-3.8,4.13,5.17,9.81,10.42,16.78,10.66,3.07-.01,3.5-.63,3.79-3.57.39-.06.76.02,1.06.28.41,0,.76-.35,1.18-.25-.3.31-.57.64-.85.97.55.38.88,1.19,1.56,1.3.17.14,2.72-2.19,2.88-2.29h4.41c-.27.23-.55.45-.82.67-1.08.87-2.2,1.69-3.32,2.5.07,2.86,2.52,4.47,4.72,5.81,2.2-1.01,3.91-2.98,5.87-4.4,1.32-.24,1.51-2.1,2.97-2.03.87-.84,1.51-1.94,2.62-2.5v5.15l-1.36,1.28c1.29,2.94,6.16,3.22,7.05-.11-.45-.39-.9-.77-1.35-1.15v-3.26c3.34,1.34,6.87,2.2,10.46,2.52,1.93,1.18,3.82,2.42,5.65,3.77.96-.22,2.06-.86,2.44-1.8-3.02-1.99-6.58-3.5-8.91-6.34h6.1c.95.83,2.06,1.58,2.78,2.63.56-.46,1.27-.85,1.62-1.5-.09-.45-.45-.79-.73-1.13h3.45c.28,1.08,0,2.38.76,3.29,1.1.55,2.43.72,3.65.61,5.91-.9,10.71-5.13,14.97-9.05-.04-.32-.21-.64-.58-.57-1.96,1.61-4.39,2.52-6.81,3.21.58-1.02,1.19-2.05,1.39-3.21.32-.26.6-.57.95-.81,1.11-.04,2.24-.28,3.08-1.05,3.09-.14,4.97-2.18,5.65-5.08,3.75-.33,2.86-4.89,2.78-7.53,1.2-1.09,2.72-2.34,2.61-4.12h-.49c.98-.85,1.45-2.11,1.35-3.4-.29.16-.57.34-.86.48.87-1.02,1.44-3.11.06-3.95-.97-.57-2.6.09-2.46,1.33-.61-.17-.37-.76-.75-1.38-.95-1.54-2.69-.73-4.08-.49-3.5-1.29-4.46-4.76-4.05-8.17,6.05,5.63,13.63,7.15,19.97,1.02,1.58.07,3.12.8,4.72.45-.07-1.52-1.71-2.56-2.53-3.77-.08-2.57,4.14-2.93,4.13-6.5l-.58.18c.61-.98,1.02-2.11.97-3.27l-.72.29c.79-1.37,1.31-2.91,1.2-4.51-.37.29-.75.59-1.14.85ZM248.31,159.64c-.05-.95.68-1.23,1.3-1.79,0,0-.07-.04-.07-.07q-.99.33-1.21.33c-.2-.16-.07-.38-.07-.46.73-.16,1.52-.37,2.36-.55.35.66-2.02,2.44-2.31,2.55ZM248.26,156.93c0-1.72,1.67-.72,2.01-1.91-.6.09-1.28.18-1.88.26-.26-.26-.13-.71-.13-.71.51-.28,2.43-.22,3.33-.44-.4,1.27-2.16,2.44-3.33,2.8ZM248.26,153.16c.57-.16,1.43-.35,2.01-.88-.66,0-1.28.04-1.94.09,0-.28.06-.42.15-.61.64-.05,1.46-.16,2.18-.6-1.35-.64,0-2.03,1.03-.73,0,2.2-1.26,3.35-3.37,3.35-.18,0-.05-.49-.05-.62ZM254.45,101.44c0,.68-.57,1.26-1.27,1.26s-1.25-.59-1.25-1.26.57-1.23,1.25-1.23,1.27.59,1.27,1.23ZM252.06,87.98c-.18.42-.35.77-.51,1.12,4.3,3.17.16,4.45.46,8.41-.04.62.22,1.52.46,2.2-.26.18-.79.71-1.04.66-2-6.56-1.76-11.1-1.23-17.73,0-1.19,0-2.35.07-3.5,1.56.51,1.41,4.05.94,5.6,0,.77,1.54,1.21.86,3.24ZM253.18,96.18q.16,1.04.62,3.59h-.71c-1.03-.51-.64-4.76.19-5.74,1.01-1.43,3.09-2.23,4.26-.35-.04.11-.07.2-.07.29-2.33-1.41-3.74-.02-4.29,2.2ZM257.21,87.45c1.05,0,1.45,1.21,1.36,2.33h-.15c-.16-.06-.35-.15-.53-.19.11-1.32-.68-1.41-.86-1.61-.09-.09.02-.33.18-.53ZM260.05,92.52c-.04,1.78.05,2.99-2.25,3.22h0c-1.01-.14-1.3-.8-.69-1.44.37-.13.62-.06.79.16,0-1.94-1.36-2.12-2.75-2.27,0-3.86,4.03-2.6,4.91.33ZM256.86,85.33c0,1.57-.79,3.15-1.83,4.45h-.2c-.38-.29-.66-.48-.71-.68.62-.51,1.98-2.21,1.76-3.06-.55,0-1.12-.09-1.63-.09-.11-.28-.13-.48-.22-.7.26-.26,2.27,0,2.84.07ZM255.49,84.59c-.05,0-.18,0-.35.02-.16-.02-.33-.11-.49-.13-.16-1.1-.77-1.25-1.47-1.61-.05-.29-.09-.62-.09-.93,1.65.2,2.23.77,2.4,2.66ZM248.33,79.65c-.77-.24-1.34-1.56,0-2.12,1.08-.4,2.36-.04,3.46.88,1.23,1.76,1.06,3.62.92,5.95,1.41,1.15,1.46,2.67.33,4.27v.13c1.08.75,2.29,1.7,1.7,3.59-.26,0-.46,0-.62.03-.07-.31-.09-.59-.09-.97-.53-1.45-.95-1.91-2.01-2.47v-.13c1.06-1.58,1.01-2.64-.18-3.81.26-3.55.62-5.13-2.42-6.91q-.05,0-.11.05v.13c.86.86-.2,1.59-.97,1.37ZM249.69,97.97c.04-.11.08-.22.12-.34,1.56,7.53,6.9,13.68,8.88,21.12,1.51,4.86,1.99,10.24.46,15.15-4.79-7.35-9.01-15.2-13.02-22.99,1.59-3,3.17-6.14,3.41-9.58-.38-.58-.86-1.13-1.08-1.79.55-.4.96-.95,1.22-1.58ZM248.6,120.98h-.13c-3.13-.17-5.22-1.34-7.07-3.43-.77-1.17-.66-.93.37-1.79.02.04.13.09.15.09,1.3,2.12,3.06,3.33,5.81,3.53.33.49.6.99.93,1.5,0,.02-.02.06-.05.09ZM258.2,136.24c.57.33,1.08,1.15,1.58,1.88-.07.02-.11.07-.16.09-3.41-2.09-5.69-5.42-7.93-8.39-1.15-1.72-5.68-8.08-5.49-8.65.22.07.51.09.86.15,3.15,5.15,6.47,10.46,11.15,14.91ZM241.73,131.29c2.22,1.43,3.1,2.71,5.99,3.1.22.24,1.13.88,1.37,1.5-.31.09-.97.04-1.15.04h0c-2.03-.24-7.07-2.05-6.21-4.63ZM240.64,128.18h.11c.88.93,1.81,2,2.86,3,1.86,1.28,3.44,2.14,3.18,2.53h-.2c-3.04-.8-5.17-2.93-5.95-5.53ZM245.09,135.89c2.66.93,4.34.31,7.14,2.03.84.36,3.94.88,4.4,1.28-.72,1.46-4.95,2-6.27,2-3.75-.88-6.5-3.39-7.58-6.76.28,0,1.77,1.17,2.31,1.45ZM256,138.4h-.33c-7.41-.79-12.62-10.22-15.44-15.71.51.11,1.08.47,1.92.47,2.37,3.92,6.5,12.36,12.09,13.15.59.68,1.25,1.32,1.83,1.98-.02.02-.07.09-.07.11ZM253.53,135.65c-2.64-.95-4.27-2.93-5.81-4.84-1.04-1.26-5.22-7.07-5-7.65h.62c2.84,4.18,4.78,8.02,9.01,11.26.57.33.82.44,1.43,1.19-.09,0-.19,0-.26.04ZM242.67,122.39c-2.4-.24-3.99-1.08-4.71-3.27.24-.22.4-.51.84-.51,1.79,2.05,2.18,2.38,5.06,2.21,0,.02.93,1.12.88,1.47-.73.02-1.41.11-2.07.11ZM239.01,118.18c.33-.26.75-.9,1.28-.9.95,1.01,1.92,1.91,3.18,2.95v.15c-.55.16-1.3.2-1.7.28-1.03-.28-2.76-1.78-2.76-2.47ZM247.21,118.88c-1.96-.19-2.93-.66-4.1-1.91-1.21-1.63-1.32-1.28-.06-2.66,1.15.42,1.43,2.66,3.54,2.97.22.46.51.9.77,1.6h-.14ZM240.01,116.97c-1.58,1.37-7,5.73-7,8.3,1.32,1.13.66,3.33-.7,4.28,0,.26.02.48.02.7-.61.07-.9.07-1.23.37.35.84-.51.95-1.17,1.08-.02-.02-.11-.02-.13-.02.29-2.56,3.86-2.86,1.79-6.04.13-.71,1.89-3.78,1.89-3.88-.66.83-2.36,3-2.36,4.17,1.13,1.08-.53,3.7-1.36,4.49-.37-.09-.71-.15-1.06-.16-.16.07-.11.18-.11.57-.46.37-.95.28-1.34.28-.02-.02-.06-.05-.06-.05,1.45-1.41,3.59-2.86,2.47-4.91,0-.9,2.21-3.41,2.07-3.74-.79,1.04-2.16,2.38-2.56,3.74.86,2.23-.22,3.55-2.6,4.28q-.6,0-.86-.09v-.26c.26-.16.59-.31.88-.6-.4-2.22-1.94-2.05.24-3.85.29-.16.6-.35.95-.49.57-2.84,2.82-2.8,4.8-4.71.49-2.18,2.03-3.52,4.52-2.67,1.81,0,7.75-14.78,8.3-15.93.61-.57,1.37-.22,1.52.8.99-.79-1.79-2.38-1.89-2.4,0-.68,3.85-.68,3.63,2.07-1.12,6.17-4.27,10.18-8.66,14.69ZM235.42,124.97c.15-.09.33-.11.49-.19,1.98,2.47-.26,3.28-1.1,5.86h.11c.49-.58.99-1.17,1.48-1.74.9,0,1.06.9,1.06,1.87-1.3,4.92-7.55,5.29-10.51,8.86-.64,0-.75-.35-1.02-.42-.02.07-.11.14-.11.2,2,2.71,1.08,7.49.79,10.8.75,2.09,1.68,3.97,3.65,5.9,0,.09.05.16.05.24-5.82,1.01-1.3,8.92-5.59,10.29-1.37,0-1.26-.09-1.65-.99-.49.59.53,1.27.73,1.46-2.75,1.32-5.05.37-7.8-.29-1.71.19-2.05,1.12-2.82,2.55h-.24c-.46-.33-.99-.62-1.47-.94-.05-.27.62-.2.84-.44.88-3.13,3.08-1.54,5.9-1.41,2.69-.09,3.3-.48,4.92-2.73,4.03-7.98-1.5-10.05-5.44-15.68-.86-2.64-1.12-2.99,1.14-5.04,3.59-4.27,4.94-7.07,6.32-12.09.26,0,.42-.04.93.04,0,.22,0,.47.02.75.73,0,1.76-.28,2.67-.4-.03.13-.03.29-.07.4,1.34,1.04,4.21,0,4.21-1.96,2.73-2.33.86-3.22,1.01-5.79.11-.46,1.05-2.53,1.56-2.27.18,1.1.28,1.65-.11,3.02.04,0,.04.02.04.11ZM215.14,171.13c-.78-.61-1.68-1.03-1.68-1.72.38-.35.77-.02,1.3-.37-.02-.38-.13-.71-.13-1.02,1.23-1.28,2.05-.26,3.24.51.09-.15.11-.27.19-.42,3,0,7.25.37,8.9-3.06.26-1.28.31-1.87.46-3.68.13-1.74.49-4.56,3.28-4.52,2.27,1.17-2.44,8.65-3.39,10.24-3.28,2.69-5.15,2.75-8.74,1.85-1.79,0-1.98.29-2.75,1.85-.24.07-.47.35-.68.35ZM215.67,172.04c.66.27,1.03.53,1.14.84.07.29,0,.62-.48,1.23h-.18c-.57-.78-.75-1.41-.48-2.07ZM206.37,175.54h.53c.75,1.5,1.39,3.15,2.02,4.91-.02,0-.07.06-.07.06-.95-1.54-2.07-3.65-2.47-4.96ZM207.32,179.46h-.31c-.82-.31-1.1-1.52-1.01-2,.33.4,1.05,1.23,1.32,2ZM188.72,174.92v-2.75l2.11.92h14.87l2.01-.94v2.77h-18.99ZM205.87,178.08h-.14l-.4-.44c-.26-.23-.87-1.89-.94-2.11.86,0,1.23,1.45,1.48,2.54ZM204.04,178.6c-1.37-.82-2.73-1.61-4.12-2.36v-.22s.02-.02.07-.02c1.58.66,2.64,1.17,4.1,2.45,0,.05-.02.13-.05.15ZM205.77,180.57h-.44c-1.63-.35-5.24-1.58-5.4-3.04,0-.02.02-.07.07-.07q5.82,3.06,5.77,3.11ZM199.25,175.63v9.95l-1.19-.84-1.15.84v-9.95h2.35ZM189.63,179.15c.71-.64,4.03-4.05,5.04-3.53-1.01.93-3.84,3.15-4.85,4.08-.26,0-.16-.24-.18-.55ZM189.12,178.03c-.66-.68,2-2.49,2.97-2.49v.09c-.47.38-2.45,2.4-2.97,2.4ZM190.67,180.39c.7-.62,3.33-2.97,4.01-2.8-.62.57-3.1,3.11-3.72,3.11-.14-.07-.2-.13-.29-.18v-.13ZM187.93,174.86c-1.69,0-3.17-.04-4.87-.04.16-.24,3.26-2.75,3.6-3.21,1.8.53,1.14,1.05,1.27,3.24ZM187.8,171.4q-.73-.07-.82-.11c-.04-.13-.04-.24-.04-.28.05-.09.18-.18.31-.24,2.12,0,4.59-4.36,6.33-5.06.26-.09.48-.02.75.09-1.3,1.21-5.25,5.34-6.54,5.58ZM187.07,169.2c0-.28.3-.62.8-1.02.84.85,1.76.93.1,2.17-.13-.02-.2-.02-.31-.02.57-.9.37-1.25-.59-1.14ZM191.72,166.23l.34.3c-.19.12-.41.26-.57.48-.47-.35-.96-.79-1.14-1.01.69-.47,1.2.18,1.38.23ZM191.61,164.88c.13,0,.27-.2.35-.26.28,0,.68.68,1.04,1.1-.13.15-.18.19-.37.19-.55-.33-.93-.73-1.02-1.03ZM190.89,167.42c-.09.14-.09.26-.16.37-.16,0-.26,0-.4.04-.35-.22-.68-.49-1.01-.73v-.35c.37-.39,1.07.15,1.58.68ZM190.04,168.25c-.04.13-.08.32-.2.38-.73.1-1.04-.36-1.52-.86.35-.26.38-.25.58-.29.33.22.75.49,1.14.77ZM191.09,157.87c.44.25,1.54,3.27,2.04,4.36-.09.06-.12.06-.21.14-.09-.05-.23-.06-.33-.05-.65-1.06-1.79-3.47-1.5-4.44ZM191.3,162.85s-.48.15-.55.14c-1.04-1.83-3.04-6.69-3.74-9.14.91.06,4.2,7.84,4.29,9ZM192.99,158.75l-.02.24c-.58-.93-1.18-1.85-1.91-2.67-.24-.26-.5-.5-.75-.74l-.18.78c-.02.1-.03.2-.04.3-.3-.57-.61-1.11-.96-1.66-.14-.22-.29-.43-.43-.65-.35-.49-.72-.97-1.15-1.4,1.2.51,2.42.95,3.67,1.35,1.04.32,2.09.61,3.16.85v4.72c-.2-.19-.39-.39-.59-.57-.25-.21-.53-.37-.8-.55ZM194.84,163.57c-.07,0-.09,0-.09.04-.61-1.01-1.04-1.92-1.04-2.78.4-.11,1.15,1.92,1.13,2.75ZM202.67,164.53l-.04.66-9.47.09-.02-.75h9.52ZM176.02,137.64l-.3-.59c-.37-.8-.71-1.6-1.04-2.41-.32-.85-.61-1.7-.89-2.56l-.05-.18.56.15,1.03-.18c.34.16.7.34,1.07.45-.1.96-.19,1.91-.29,2.86-.06.64-.14,1.3-.15,1.94,0,.18.02.35.05.52ZM172.5,126.06c-.18-1.41-.3-2.82-.3-4.24h5.23c-1.93,1.02-2.07,3.43-1.45,5.29-1.09-.52-2.22-1.16-3.48-1.05ZM173.22,128.1l-.37.15-.12-.72c.16.19.33.38.49.57ZM184,123.01c.16,2.46,1.37,4.87,2.9,6.77-.28,0-.59.04-.79.24l.02-.18-.61-.28c-.82-.33-1.82-.1-2.45.51v-.03c-.49.25-1.05.49-1.48.85.02-.54.02-1.08,0-1.62-.04-1-.13-2.03-.66-2.91.15,0,.34.02.47.1.03.03.04.05.06.09l.22.97c.36-.05.74-.07,1.1-.18l.74-.03c.39-2.35-.65-4.31-3.28-3.85-.09-.63-.32-1.26-.84-1.65h4.57c0,.3,0,.9.02,1.19ZM170.36,132.06c.13.92-1.23,2.27-2.16,1.96-.07-.4-.11-.79-.13-1.14.13-.04.29-.04.44-.04t.06-.05c-.72-1.46-2.03-1.1-1.23-3.11.26-.22.51-.46.75-.7-.49-1.3-1.23-3.2-1.92-4.19-1.52-1.46-2.05-2.05-2.18-1.83,1.43,1.19,3.52,3.77,3.52,5.97-2.25,2.82.35,2.53.09,5.09-.18.22-.92.07-1.01.07,0-.7.11-.75.27-1.19-.97-1.21-1.9-1.37-.69-3.1.99-.73-1.27-4.43-2.02-5.04-.53-.37-1.04-.68-1.58-1.03v.09c2.31,1.61,2.78,2.64,3.5,5.62-2.42,2.4.86,2.89-.13,4.56-.35.14-.69.13-1.02.13,0-.64.33-.64.38-1.03-2.45-1.59.37-2.87.37-4.23-1.01-4.56-8.5-4.98-6.87-9.89.29,0,.86.37,1.5.37,1.52-.48,1.03-1.19,1.25-2.29,1.5,1.24,2.6,2.36,4.98,2.1,0,0,0-.04.03-.07-3.99-2.95,2.49-6.76,2.75-2.95,0,0-.02.02-.07.02-.48-.38-.79-.84-1.17-.44,1.58,1.06-.07,1.74.95,2.77,1.08,1.65.93,2.38-.94,3.33,0,.84,1.46,2.38,1.61,4.16-.05,1.01-.4,2.35.02,3.55.84,1.06.48.95.2,2.31.09.09.28.11.44.2ZM167.91,135.96c.09-.04.29-.04.49-.04,0,.39-.44,3.61.42,4.05,1.28-1.59.31-4.58,1.61-5.04.26.49.62,10.6-1.93,11.57-1.17-2.95-1.58-7.86-.6-10.55ZM167.95,134.53c.71.53,1.11.68.05.8-1.54-.22-1.3-1.1-.05-.8ZM169.85,134.42c-.2-.03-.4-.05-.62-.09v-.16c.29-.14.7-.51,1.05-.51.09.09.35.35.35.73-.26,0-.51.03-.77.03ZM159.38,134.28c2.02-2.05,2.93-5.07,3.95-7.64.07-.07.16-.07.26-.07.36,1.61-3.63,10.64-5.84,12.56,0-5.13,2.12-9.25,4.05-13.95h.15c.09.09.16.26.31.36-1.12,2.82-2.42,5.57-2.97,8.7t.09.04ZM164.12,127.24h.15c.11.11.22.22.22.61-1.08,3.02-2.12,5.92-1.96,9.5.71,0,1.37-3.02,1.46-3.33.06-.02.13-.02.24-.02.92,1.39-1.65,6.94-2.67,8.46h-.22c-1.03-4.78,1.01-10.97,2.78-15.22ZM164.89,135.56c.73,0,.24,2.58.6,3.65.59-.61.72-2.46.88-3.08.09,0,.22,0,.4.04,0,2.87-.18,6.23-2.01,8.72h-.19c-1.46-2.67-.31-6.74.31-9.32ZM165.13,134.55c.29-.02.69-.02,1.04-.02,0,.29.04.61.13.94-.22,0-.4.05-.62.09-.66-.35-.55-.64-.55-1.01ZM151.48,128.25c-.22-1.61-.44-3.2-.62-4.8q.37-.13.84-.22c.51,1.26,1.65,8.09-.57,9.12-.03-.4,0-1.03-.03-1.27.51-.68.35-1.79.38-2.84ZM152.14,123.12c.33-.31.47-.57.88-.69.68,3.7,2.21,8.86-1.41,11.72-.07,0-.13.02-.2.02,0-.42-.04-.88-.13-1.28,2.42-2.38,1.25-6.35.86-9.76ZM150.4,122.48c-4.58-.66-.22-5.02.49-1.46,1.35-.97,1.35-4.43,2.05-5.88,1.56-1.67,2.6-4.16,2.82-6.57.73-.13.94-.39,1.83-.94,1.78-1.41,1.96-3.22,2.07-5.11.37-.31.73-.62,1.1-.9,0,3.52-.59,8.08-3.5,10.57.15,2.31-.47,2.54-1.78,5.02-1.02,3.11-1.5,5.18-5.09,5.27ZM145.92,123.75c.22-.11.4-.68.64-1.36.28.3.61,1.36.81,1.98,1.01,3.33,3.3,9.89,1.01,13.33,0-.02-.06-.02-.06-.07-.13-.7-.31-1.5-.46-2.22,1.74-2.34-2.09-10.75-1.94-11.67ZM146.08,145.7c.14-2.33-.46-4.19-1.25-7.23-1.14-4.25-2.26-7.14-3.52-10.4.2-.86.77-1.17.93-1.83.28.29,3.44,11.01,4.14,13.76.92,3.59.53,7.65.16,7.01h0c-.07-.46-.49-.86-.47-1.3ZM140.35,128.6h-.13c-.44-1.15-.71-1.78-.57-1.87,1.78-1.81,1.96-3.41,2.1-5.71.4-4.93-.14-10.24-.26-15.04.4-.28,1.25-.79,1.5-1.26h.14c0,6,.37,12.07-.14,18.07-.22,1.81-1.6,4.14-2.66,5.81ZM139.5,106.46c.46-.09.94-.19,1.43-.24.36,4.76.36,9.87.42,14.96-.15,1.14-.79,4.25-1.92,5.06-.06-.95-.19-1.79-.19-1.87.24-.38.47-.92.53-1.15.37-.93.18-1.94.29-2.93-.18-4.6-.64-9.41-.57-13.83ZM136.58,106.46c-.06,0-.11-.02-.15-.02.57-.6,1.06-1.25,1.65-1.83,5.62-.8,5.82-5.51,7.84-10.4.64-1.24,1.32-2.42,1.96-3.68.31,0,1.21.11,1.92.11-.95,1.61-1.94,3.17-2.73,4.87-2.54,6.96-3.09,9.81-10.49,10.95ZM134.23,107.83c.44-.26,1.1-.42,1.61-.81.11,5.55.26,11.37.62,16.98,0,1.89-.51,6.16-.94,5.29-1.02-2.62-.42-2.31-.42-4.8-.44-5.62-.88-11.19-.88-16.66ZM144.16,87.74c2.22-.44,3.83-2.23,5.31-3.94q.07,0,.13.04c-1.52,2.45-3.22,4.58-6.12,4.78-4.28-1.17.29-5.99,1.69-7.47,0,1.56-4.6,5.86-1.01,6.59ZM146.52,82.63c.92,1.26,5.4-1.48,5.69-1.37-1.72,1.61-3.3,2.54-5.51,2.54-3.68-1.03.82-5.15,2.05-6.28h.16c-.47,1.96-3.35,3.83-2.4,5.11ZM154.08,78.77c.5-.46.92-.86,1.47-1.3t.02.06c-1.79,2.4-2,2.95-4.91,3.3-2.29-.53-1.61-2.25-1.12-3.9.16-.04.44-.04.68-.04.06.04.06.11.16.15-1.78,3.33,1.37,3.08,3.7,1.74ZM155.73,78.05c.64-.51.44-.84,1.27-.53-.13.79-3.04,3.13,0,3.48,1.9,0,2.38-1.32,3.77-2.03.11.15.05,0,.26.44-1.65,1.59-2.86,2.4-5.11,2.4-2.38-.46-1.23-2.25-.35-3.53,0,.02.29-.23.16-.23ZM161.13,83.38q.37-.15.62-.15c-.09.31-.2.49-.33.61-.24.38-1.06.31-1.26.31-2.2-1.08.61-5.24,1.39-4.61,0,.46-2.89,3.41-.42,3.85ZM167.51,88.33c.79,0,1.26-.26,1.88-.95h.13c.07.16.68.95.68,1.46-.95.73-1.58.88-2.68.94-.07,0-.18-.06-.27-.06-.95-1.92-2.95-2.16-.09-3.13,0,.62-.7,1.3.35,1.74ZM172.38,88.71c1.17,1.74,2.05-1.41,2.22-2.23.33.4.57.75,1.26,1.23,0,1.65-1.92,3.46-3.62,3.46-1.78-.71-1.93-3.86-2.12-5.22.64-.57,1.25-1.1,1.92-1.67.11,1.48-.26,2.75.35,4.43ZM171.17,75.4c0-.36.05-.73.09-1.08h.57c.46-1.23.4-2.23.31-3.33.24-.14.59-.09.92-.09.46,1.28.6,4.83-1.89,4.5ZM170.46,78.97c.16-.92.29-1.88.61-2.62.24-.11.46-.18.68-.18.55.82-.64,2.33-1.28,2.8ZM173.28,74.92h.24c.05,1.43,1.17,4.05,1.98,1.12-.04-.71-.09-1.5-.09-2.23.46.07.86.15,1.32.18.11,2.11.07,4.65-2.64,4.78-1.02-.37-1.79-2.03-1.85-2.79.44-.29.79-.66,1.04-1.06ZM176.39,69.06c.22-.09.44-.28.92-.19.51,1.17,1.61,4.4-1.04,4.4-1.06-.28-2.71-1.41-2.71-2.29.2-.18.24-.44.6-.44.49.59,1.56,2.27,2.71,1.25.46-.9-.22-2-.47-2.73ZM181.19,66.17h1.01c.79,1.87,2.21,4.51-.75,5.06-.97-.15-3.17-1.32-3.17-2,.4-.26.55-.35.97-.44.47.4.93.88,1.68,1.25,2.2,0,.49-3.06.26-3.86ZM185.09,69.23c0-.09,0-.16.04-.24.48-.02.99-.09,1.52-.09.86,1.78,2.12,5.26-1.21,5.26h0c-.95-.35-3.04-1.52-3.04-2.49.47-.37.77-.73,1.1-1.25.59.66.86,2.47,2.42,2.47.73-.75-.53-3.53-.82-3.66ZM188.79,76.17c2.45,0,3.79,4.76.2,5.35-1.23-.31-2.85-1.52-3.11-2.25.19-.7.44-1.28.68-1.91.29.49,1.65,3,2.91,2.51.53-1.32-.22-2.78-.68-3.7ZM192.08,85.1c1.58.51,2.56,5.26.16,5.59-1.58-.33-3-1.6-3.26-2.95q.31-.61.53-1.19c.59.75.9,1.98,2.14,2.2,1.04-.68.51-2.89.42-3.65ZM177.45,86.73c.73-.35.97-.95,1.17-1.63h.13c.38,1.17.71,2.54,2,3.46,1.45-.16.7-3.41.6-4.21.28,0,.84.44,1.56.49.82,1.58,0,5.33-2.07,5.68-1.59-.66-3.06-2.49-3.39-3.79ZM178.62,89.87c-.28.49-.28.95-1.3.99-.99-.04-2-.04-1.98-.38.11-.51.31-.97.68-2.07.24,0,1.14,1.46,1.56-.15.59,0,.84.97,1.04,1.61ZM178.02,76.26c.49.2,1.12.49,1.79.73.66,1.41-.09,4.41-2.12,4.41-1.13-.47-1.98-1.55-2.2-2.44.37-.31.73-.88.95-1.23.39.62.44,2.18,1.81,2.18.97-.31-.18-3.24-.24-3.66ZM182.38,84.22c-1.13-.16-1.63-.68-2.21-1.17-1.63-1.89-1.03-1.39-.07-3.01.38.15,1.19,3.41,2.62,2.46.51-1.06-.07-2.86-.42-3.59.44,0,.84.49,1.63.7.61,1.83,1.04,4.34-1.54,4.61ZM183.73,74.15c.75,0,1.3.22,1.7.62,1.03,1.39.73,4.34-1.08,4.51-1.7-.37-2.31-1.3-3.17-2.31.33-.42.75-1.01.86-1.44.02-.06.06-.06.15-.06.2.49,1.37,3.08,2.51,2.22.16-1.52-.44-2.47-.97-3.53ZM183.57,86.62c.13,0,2.49,3.92,2.89,1.34.2,0,.88.29,1.35.44,0,2.42-.47,2.42-2.84,2.42-1.92-.79-1.54-2.78-1.41-4.19ZM187.43,87.82c-1.65-.33-3.02-2.23-3.7-3.34.51-.77.75-.93,1.03-1.87.11,0,.13,0,.2.02.4,1.04.95,2.56,2.2,3.22,1.54,0,.51-3.66.29-4.41.35,0,.88.47,1.61.59.75,1.69.66,5.42-1.63,5.79ZM179.98,75.25c1.71,0-.11-3.46-.36-3.85.38.11.71.29,1.41.37.79,1.59,1.77,4.91-1.21,4.91-1.1-.51-2.23-1.68-2.54-2.6.38-.31.55-.92.71-1.27.33.46,1.23,2.22,2,2.44ZM176.34,85.19c.86-.71.75-2.82.6-3.68.07,0,.09-.04.2-.04.42.37.73.16,1.28.55,0,2.38.14,4.67-2.84,4.67h0c-1.44-.66-1.83-1.89-2.43-3.04,0-.31,1.28-1.92,1.28-1.92.11.66.53,3.46,1.91,3.46ZM157.82,112.54c.35-.14.42-.27.94-.27.42,1.08.62,2.87-1.12,2.87-.04-.02-.04-.06-.04-.06.46-.92.46-1.67.22-2.54ZM160.4,107.8c.13-.49.26-1.01.37-1.52,0-.02.03-.02.05-.02.24,2.18-.37,4.87,1.61,6.59-.07,0-.07.02-.07.09-.26.02-.53.09-.8.11-4.69-.47-2.03-2.75-1.15-5.25ZM159.71,114.2h.11c.16.44,2.43,4.45.35,4.45-1.74-.48-2.2-1.52-2.45-2.89,1.19.18,1.52-.4,2-1.56ZM159.83,113.03c.73.28,1.3.51,2.42.68.37,1.28.79,2.66,1.8,3.77v.24c-.06,0-.09,0-.15.02-1.7-.46-4.38-3.24-4.07-4.71ZM162.31,104.81c-.06-.09-.06-.14-.06-.2-1.79-.71-1.12-2.99-.22-3.9,0,2.07-1.04,2,1.34,3.61,0,.35-1.03,2.82-1.28,3.66,0,2.58,1.12,6.32,4.78,5.29.39-.26.39-.59.4-.81-.49-.82-1.1-.14-1.1-1.72,1.34-1.94,4.14,1.85.04,3.24h-1.06c-4.38-1.26-4.07-5.82-2.84-9.18ZM165.49,110.3c0-1.5.22-2.6.42-3.84h.16c.49,1.37,1.65,2.99-.59,3.84ZM167.27,101.06c0-.07.07-.07.07-.07.51,1.28-.48,5.13,1.98,3.92h.13c0,.73,0,1.47.02,2.22-.49.2-1.01.2-1.37.2-2.73-.62-1.39-4.61-.82-6.26ZM168.3,109.96c.53-.37.84-.75,1.36-.93,0,.75,0,1.44.05,2.1-.19.13-.53.37-.73.29-.14-.64-.6-1.21-.68-1.46ZM169.65,101.68h-.26c-2.18-.88-1.76-4.05-1.1-5.55.84,0,.47,2.45,1.41,3.57-.05.6-.05,1.28-.05,1.98ZM165.82,104.5c-.46,2.4-2.19,6.74,1.04,7.95,0,1.36-2.75.13-3.15-.18-2.4-3.24-.88-4.96.33-8.04-1.47-.86-1.87-1.52-1.61-2.97.93-2.4,1.45-3.94,1.06-6.32-.13,0-.24,0-.29.04.29,3.7-.27,4.4-3.44,6.85-.27.2-.66.44-.66.81.07,1.17-.09,2.25-.82,3.35-1.17,1.56-2.03,1.23-2.8,2.29-.66,4.08-2.71,8.64-7.29,8.35-4.16-1.08-1.06-4.91,0-2.82.37.79-.18,1.28-.77,1.54,3.24,2.14,6.45-2.99,6.83-5.18.15-.95.33-1.81.51-2.73,2.71-1.21,3.85-2.25,3.85-5.31,2.38-2.38,4.8-2.86,3.48-6.89,0-.07-.05-.07-.09-.07-.24.29-.24.07-.24.51,1.3,2.89-1.58,4.73-3.64,6.14-.06,3.57-.33,3.65-3.72,5.33-.28,1.21-.53,2.36-.77,3.61-1.1,3.2-3.04,4.91-5.44,4.6.11-.4.26-.49.48-.77,3.81-7.27,2.6-27.18,14.19-27.18,7.38,1.7,4.08,12.03,2.97,17.1ZM151.92,116.09c0,1.3-.05,2.14-.47,3.55h-.07c-.27-1.43-1.19-3.37.55-3.55ZM150.9,119.39h-.13c-.49-.24-.75-.37-.97-.38-.11-.57-.44-1.61-.37-1.94.28-.09.49-.28.97-.16q.46,2.05.49,2.49ZM150.22,89.41c1.01-.3,3.73-2.75,3.89-2.9-1.26,1.84-3.02,3.8-5.27,3.8-3.41-.95.7-6.25,1.81-6.85,0,.71-4.84,6.41-.44,5.95ZM153.46,85.2c1.74.13,4.87-3.48,5.31-3.54-1.67,2.14-3.13,4.25-5.97,4.29-3.76-.79-.79-3.92.95-5.39t.02.05c-.71,1.23-3,4-.31,4.58ZM153.35,90.36c1.15,1.19,3.08-.49,4.01-1.46q.06.03.11.09c-1.23,1.37-2.09,2.6-3.9,2.6-2.8-1.23.9-5.55,1.74-5.75-.44,1.46-2.4,2.64-1.96,4.52ZM152.62,91.79c-1.87,3.35-2.69,8.15-6.9,8.85.16-.71.24-1.26.66-1.59.33-.28,1.37-.44,1.92-1.5,1.17-2.4,1.92-4.96,3.46-7.01.33,0,.72.6.86,1.26ZM153.06,91.9c.57.04,1.26-.04,1.81.04-2.58,4.16-3.17,8.64-8,10.6-.86.22-1.7.48-2.66.73.44-.61.73-1.45,1.12-1.94,5.25-1.48,5.07-5.06,7.73-9.43ZM152.09,98.51c0,1.12-.68,3.26-.95,4.58-.59,3.28-1.15,7.54-2.58,10.71h-.07c-.26-.49-.68-.95-.81-1.12,1.55-4.18,2.03-7.8,2.8-12.05.62-.61,1.15-1.27,1.61-2.13ZM147.05,103.05c.02-.07.94-.53,1.7-.77-.64,3.41-1.15,6.65-1.43,10.18-.2.19-1.12.68-1.32.59-.24-2.09.2-4.71.37-6.66l.68-3.33ZM157.18,87.74c-2.86-.92.42-4.56,1.58-5.37t.02.05c-.53.92-1.85,2.42-1.67,3.81,1.21,1.52,2.62-.48,3.46-.61-.11.2-.28.55-.46.7-.82.9-1.58,1.41-2.93,1.41ZM147.42,90.53c0,.11-1.04,2.09-1.85,3.55-2.01,4.18-2.21,8.89-7.22,9.98.35-.77.84-1.63.9-1.67.44-.29,1.41-.72,1.96-1.72,1.83-3.88,3.48-7.73,5.66-11.45.07-.02.18-.02.26-.02l.29,1.32ZM142.64,88.8c-.29,1.47-2.07,4.12-2.89,5.6-.46,1.03-3.46,10.31-5.77,10.31-.02-.49.02-.92.13-1.34.49-.55.84-1.28,1.32-2.07,1.78-4.76,3.33-8.97,6.08-13.13.26,0,.73.29,1.14.62ZM134.01,105.38c.62-.28,1.36-.77,2.27-1.93,1.85-3.42,3-7.16,4.78-10.59.62-1.28,1.35-2.51,2.05-3.77h1.7c-1.46,2.69-2.82,5.28-4.1,8.04-1.23,3.53-3,8.9-7.12,10.28.2-.77.27-1.72.42-2.03ZM136.96,126.84c.13-4.56-.53-16.76-.62-19.71.35-.16.62-.11,1.68-.35,0,6.26.86,12.75.73,19.21-.24,2.36-.73,4.38-1.91,6.61h-.22c-1.21-2.78-.2-3.13.33-5.77ZM143.66,120.52c.55-1.17.73-2.71.73-4.36,0-3.81-.38-9.14.77-12.6.33-.28.84-.35,1.44-.44-.53,2.16-.84,4.36-1.04,6.76-.03,2.56.75,10.49-2.07,12.8.02-.64.02-1.52.16-2.16ZM144.69,122.04c1.03-2.01,1.32-3.92,1.32-5.95.22,0,.84.59,1.26.88.15,1.91-.9,7.25-3.06,7.95-.66-1.96-.81-1.46.47-2.87ZM146.94,121.93c.11-.61.29-.88.48-1.28,1.43,1.44,2.8,8.13,3.19,10.38.16,1.61.44,8.17-1.65,9.23-.11-.53-.16-1.1-.2-1.67,2.66-5.27-.09-11.88-1.81-16.66ZM154.47,121.51c-.07-.35.35-.62.6-.93,1.06,3.06,1.06,7.6-.75,8.4.02-.46.07-.88.15-1.3,1.17-2.05.11-5.11,0-6.17ZM154.47,129.48c2.71-2.14,1.67-6.32,1.01-8.9,0-.61.16-1.04.26-1.48.04,0,.13,0,.19.02,1.08,2.73,2.36,10-1.6,11.3,0-.42,0-.66.15-.94ZM157.18,116.38c.46,1.17,1.45,3.3.64,4.87-.03-.07-.03-.09-.03-.09-.15-.35-2.91-5.37-.61-4.78ZM158.59,122.6c.05,0,.2,0,.33.02.57.93-.64,1.88-1.46,2.07-.16-1.13.53-1.19,1.13-2.09ZM169.59,95.51c-.14.02-.29.09-.46.13-.24-.19-.51-.38-.77-.49,0-3.24-1.78-4.52,1.7-5.64-.26,2.05-.48,3.7-.48,6.01ZM170.07,91.49h27.27s0,13.65,0,13.65h-.95l.04-12.52h-25.36s0,25.02,0,25.02h12.92v1.23h-13.91v-27.38ZM184.61,103.09c-.95.66-2.67,1.82-3.56,1.82-.09-.1-.16-.25-.27-.34h-.07c0,3.29-1.81,3.77-3.71,6.31.05,2.13.61,4.11-2.14,4.71,0-1.81,1.73-2.01,1.31-3.61-2.22-2.07,1.22-2.38.52-5.06-.04-.05-.04-.07-.09-.11-.79.79-1.59,1.61-2.77,1.54-3.35-1.48,1.66-6.48-.32-8.44-1.4-.59-1.52-.34-1.22-1.66,1.32-.66,2.33,1.79,2.38,3.01-.18,1.04-3.31,7.17.2,6.35.14-.16.29-.25.41-.41,1.25-2.86,3.86-4.47,6.26-6.51-.09-2.45-.5-3.94,1.18-5.69,1.72-1.04,2.23-1.52,3.99-.03-.02.03-.02.18-.02.29-.14,0-2.45-1.43-1.88-.36,3.01.84-.38,2.79-.61.58-.5-.2-.59-.47-.73-.5-.18.22.7,1.54,1.34,1.79,1.41.04,2.72,1.16,1.99,3.08-1,0-2.27-1.5-2.57-1.02,1.34,1.79,3.61,2.6,6.12,2.67.38-.41,1.52-1.89,2.04-.73-3.13,2.84-6.98.93-10.09,2.47.43.48,1.52-.11,2.33-.11ZM180.68,100.31h-.01c-.16-.31-.49-.55-.82-.66l.35-.33-.75-.56.76-.64-2.1-2.23-.55.68-.56-.84-2.22,1.93.78.81-.71.5c-.5-1.11-1.74-2.1-2.96-1.46v-4.06h11.84c-2.89,1.01-3.46,4.16-3.05,6.86ZM175.48,101.06c-.05-.51-.18-.98-.35-1.46l1.54,1.65.57-.6.52.93.24-.23c.05.27.24.58.46.75-1.66,1.29-3.03,2.89-4.01,4.73-.05,0-.3.03-.34-.02-.35-2,1.22-3.82,1.37-5.75ZM177.96,100.25l-.55-.98-.73.77-.75-.8.91-.64-.84-.88.84-.73.66,1,.66-.82.84.9-.9.75.79.59-.93.86ZM179.36,100.41c.39,0,.64.27.64.57,0,.36-.25.59-.64.59-.36,0-.57-.23-.57-.59,0-.3.22-.57.57-.57ZM172.36,100.36c.21.08.42.15.62.24.52,1.7-.9,3.39-1.09,5.08v-5.55c.14.09.3.16.47.24ZM171.91,107.43c.42,1.54,2.19,2.23,3.55,1.38-1,1.01-1.23,2.59-.07,3.59-.03.7-.75,1.1-1.01,1.72-.43.78-.37,1.69-.39,2.55,2.93-.37,4.2-1.91,3.89-4.85,2.26-.77,4.89-1.78,6.12-3.95v8.95h-12.1v-9.47l.02.09ZM180.95,105.73c.25-.14.41-.41.68-.32-.03,1.09-.9,2.08-.9,2.95,1.06,0,1.9-.27,2.2-1.38.09,0,.25,0,.41.05,0,1.5-3.43,3.22-4.52,3.58.37-2,2.38-2.77,2.13-4.88ZM183.56,106.22c-.38-.1-.76-.08-1.15-.08l-.1.22c.1-.33.15-.65.17-1,.51-.24,1.01-.53,1.48-.83,0,.24.1.44.24.62h-.2v1.21l-.44-.14ZM187.33,98.73h.2c.18.43.45.95.63,1.61-.16,0-.27.07-.36.07-.65-.2-.41-1.25-.46-1.68ZM184.8,104.42c.82-.7,1.4-1.33,2.57-1.41-.43.91-1.41,1.61-2.33,1.82-.34-.29-.25-.32-.25-.41ZM188.02,103.58l.17-.34c1.95-.09,3.83-.92,5.21-2.3-.57-1.92-2.38-1.78-3.43-.33-.3-.02-.61-.05-.91-.09-.21-.91-.63-1.76-.99-2.63h-.38c-.16-.56-.56-1.05-1.03-1.39.07-.11.15-.26.17-.38l.67.14c0-.35-.03-1.27.15-1.59l-.6-.5c-.36-.29-.71-.54-1.1-.72h9.63s-.03,11.7-.03,11.7h-9.11c.65-.38,1.19-.91,1.58-1.57ZM188.25,134.3c-.53.41-1.01.53-1.4.53-.85-.2-.67-.91-.12-1.05.62-.14,1.44.34,1.53.51ZM188.5,132.33c.55-.27,1,1.58.5,1.6-.5-.32-.78-.37-.85-.55-.09-.2.07-.42.35-1.05ZM188.88,135.09c0,.71-.27,1.3-.94,1.58-.05-.35-.16-.76-.16-1.15.32-.16.75-.25,1.1-.42ZM193,139.8c.02-.11.02-.22.11-.35,3.76.35.95,5.29-2.27,5.29-.04-.06-.04-.09-.04-.09,1.41-.6,3.85-3.84,2.2-4.85ZM194.47,143.8c1.76,1.12.23,2.31-1.23,2.38-.66-.1-1.44-.28-1.76-.53,1.76-.18,2.98.25,2.98-1.85ZM192.42,144.79c.39-.32,1.14-.83,1.44-1.26.39.66.27,1.47-.64,1.47-.25.02-.57-.07-.8-.21ZM190.89,144.16c-.34.02-.67.09-.98.12-1.28-.5-3.68-1.37-3.87-2.57,1.01,0,2.33,1.1,3.43,1.1v-.16c-1.01-.36-2.15-.87-2.4-1.67.64,0,1.4.53,2.4.74v-.16c-1.56-.98-2.27-.55-2.86-2.06,1.38.34,7.76,2.13,4.28,4.65ZM180.48,137.87s-.1,0-.1.02c-.93-.44-.55-2.72-.48-3.27.82.82.57,1.92.59,3.25ZM178.78,131.41c.82,0,.66,1.38.66,2.15q-.05,0-.07.05c-.46-1.05-.5-1.46-.59-2.2ZM178.62,137.87c0-1.24-.27-3.52,0-4.42.44.71,1.23,4.24,0,4.42ZM178.73,128.57c-.05-.02-.14-.07-.14-.07-.07,1.23-.07,2.42-.11,3.66,0,0-.03.02-.05.04-1.69-1.12-2.01-6.91,1.4-5.79,1.28.67.92,4.47.87,5.91h-.18c-.78-1.1-.78-3.34-.98-3.41v2.5h-.05c-1.01-.62-.76-2.08-.76-2.84ZM177.81,137.45h-.98q-.07-.36.42-5.33c.94.36.55,4.14.55,5.33ZM182.74,126.51c-.14,0-.23.07-.39.09-.34-2.26-4.35-.36-5.25.39,0-2.22,6.06-4.65,5.64-.48ZM178.7,123.74c.25.02.55.17.75.35-.44.25-1.27.62-1.64.99-.27-.71,0-1.5.89-1.34ZM179.94,132.31c.16,0,.39.12.76.41,0,.83.05,1.63.07,2.42-.07,0-.07.05-.09.05-.69-.99-.83-1.99-.74-2.87ZM180.94,140.69c.48,0,4.44,1.01,4.78,2.1-.03,0-.1.03-.14.07-1.65-.44-3.34-.89-5.01-1.3,0-.37.18-.57.37-.87ZM184.45,139.93q-.05.05-.21.05c-1.3-.39-2.49-.62-2.72-1.63.59,0,2.49.74,2.93,1.58ZM182.36,136.6q.14-.07,1.23-.18c.09.34.18.78.34,1.1-.41.23-1.51-.14-1.56-.93ZM182.58,135.9h0c-.14-.8,1.26-1.78,1.58-1.19.3.87-.82,1.33-1.58,1.19ZM184.73,137.18h-.18c-1.47-2.82,2.02-2.31.18,0ZM185.19,134.77c-.35,0-.69-.21-.69-.6s.34-.62.69-.62c.29,0,.66.25.66.62s-.37.6-.66.6ZM185.19,132.79c-.74-.35-.27-1.58.39-1.88.27.5.83,1.88-.39,1.88ZM184.56,131.31c-.36,0-.68-.29-1.05-.48.55-.69,1.4-.66,1.72-.5,0,.2-.48.73-.67.98ZM184.07,133.13c-.83-.23-.83-1.08-.83-1.56,1.03-.16,1.99,1.39.83,1.56ZM183.08,134.28c-.64-.2-1.01-.42-1.14-.83,1.88-1.01,2.5.83,1.14.83ZM181.68,132.82c0-.87.23-1.24.93-1.6.07.2.25.71.25,1.19q-.76.34-1.17.41ZM182.39,134.83c0,.16-.39,1.05-.59,1.05-.37-.41-.55-1.21-.3-1.74.27.23.57.44.89.69ZM181.52,136.81h.03c.05.26.14.53.31.74l-.54-.04c0-.3.02-.61.02-.91l.18.21ZM181.43,139.42c1.4.54,2.67.54,3.96,1.9-.05,0-.12,0-.16.07-1.31-.48-2.65-.98-3.96-1.46,0-.34,0-.27.16-.51ZM185.55,145.56c.2-.16.41-.3.62-.39-.11-.78-.36-1.86.21-2.22,1.17.94.96.44.78,2.03.07.46.93,2.13.18,2.48-.37-1.06-.64-1.81-1.79-1.67v-.23ZM187.8,144.05c.2,0,.54,0,.91.25-.34,1.14.18,2.08.18,3.36-.05-.02-.07-.02-.16-.02-.54-1.17-1.49-2.47-.93-3.59ZM186.9,141.57h-.18c-.55-.25-1.58-.8-1.74-1.25.48,0,1.92.29,1.92,1.25ZM186.31,140.23c-1.12-.3-1.85-.96-2.31-1.63.55,0,1.47.49,2.24.71.07.35.18.62.23.92h-.16ZM184.94,137.85c.2-.36.48-.73.66-1,.41.12.91.28,1.15.53-.49.46-1.08.75-1.81.46ZM187.16,136.61h-.2c-2.97-.83.2-3.21.2,0ZM187.64,132.07c-.11.73-.41,1.31-1.19,1.37-1.19-.32.12-1.54,1.19-1.37ZM186.86,131.74c-.27-.74-.3-1.08-.16-1.12.39-.12,1.24.41,1.38.92-.41.23-.78.2-1.23.2ZM179.43,123.58c-1.9-.89-2.03.41-2.93,1.93-.09-.4-.04-1.18.26-1.82.68-1.29,2.4-2.17,2.67-.1ZM176.51,128.16v.91h-.59c-1.26-.39-1.94-1.38-2.61-2.15.73,0,2.01.98,3.2,1.24ZM173.45,130.05l.25.72-.15.41c-.07-.25-.28-1.01-.33-1.25l.23.12ZM173.42,129.08v-.16c.75-.37,2.01,1.07,3.55,1.23.1.32.39.68.39,1.3-.22,0-.36.09-.54.12-.62-.16-1.28-.57-1.6-.66-.3.25-.51.39-.8.3.44-1.15-.16-1.74-1.01-2.13ZM177.8,138.29v.64s1.21-.29,1.21-.29c.21-.09.37-.18.54-.34l.29.25.86.48c-.04.06-.08.11-.11.18-.13.26-.14.47-.14.75-.25.38-.51.72-.64,1.16-.08.36-.07.73-.08,1.11l.97.24c1.51.37,3.02.77,4.52,1.17-.02.38.01.74.06,1.11-.19.13-.37.29-.55.43v1.55l1-.1c.08,0,.15,0,.23,0,.22.05.34.4.41.59.19.48.35.98.53,1.47l.99-.56.11-.09.21.45h.5l1.03.33c.06-1.19-.17-2.48-.31-3.64,1.66,1.56,4.72,2.85,6.38.6v5.95c-8.07-.96-15.8-6.13-19.46-13.42h1.45ZM195.46,143.51c-.14-.12-.29-.24-.44-.35,1.55-2.3.51-4.54-2.32-4.6-.38.48-.56,1.03-.6,1.63.68.28.74.89.38,1.48-1.22-1.78-3.55-2.35-5.51-2.94l-.02-.09-.39-.11c.41-.21.72-.5,1.06-.81.37-.16.74-.3,1.08-.52.59-.42.89-.98.99-1.68.04-.36.03-.72.03-1.08.12-.14.19-.26.25-.44.09-.37.08-.77-.02-1.15l1,.77c.58.4,1.15.78,1.75,1.15.61.35,1.22.67,1.84.98.42.19.85.38,1.28.55v7.64c-.11-.15-.22-.29-.36-.43ZM184.81,122.39l.02-16.41h25.79v16.7c0,7.33-5.99,11.48-12.66,13.48-6.59-1.91-13.15-7.82-13.15-13.77ZM202.08,87.3c1.17-1.12,1.17-4.52,3.33-5.06-.16,1.1-.27,2.18-.27,3.43-.81.8-1.96,2.12-1.45,3.42,1.26-2.27,3.72,1.54.4,1.54-5.6-.86-5.16-6.79-3.15-10.64.24-.24,1.45,1.92,1.45,2.53-.51,1.55-.97,3.06-.31,4.78ZM225.42,91.49v27.38s-13.88,0-13.88,0v-1.23h12.69v-25.02h-24.98v12.51h-1.01v-13.64h27.18ZM210.42,76.99c1.32-.53,2.34-1.15,3.94-.64q-.06.51-.4,1.5c-1.13.78-4.21-.31-4.45,2.19,1.79-1.08,2.6,1.98-.07,1.8-4.58-1.27.31-9.1,3.35-9.1.07.42.16.86.27,1.25-.11.16-2.93,2.69-2.64,3.01ZM227.45,65.64h-.18c-1.34-1.1-1.93-.6-2.05.94-.04.04-.05.07-.07.07h0c-3.83-1.89,3.24-4.96,2.31-1.01ZM224.39,67.34c.38.06,1.12,0,1.41.62-.07.37-.22.51-.9.48-2.89.92-2.93,1.34-4.21,3.86,0,.13-.44,2.66-.68,2.47-1.12-3.42.79-7.01,4.38-7.43ZM229.37,91.13c1.88-1.25,3.44,2.84-.88,2.84-2.67-.64-2.58-1.23-2.67-3.08-.22-.04-.4-.07-.59-.07-1.23-2.54-.46-4.65.42-6.98.28,0,.95.05,1.36.44-.61,2.27-.82,5.08,1.1,7.05.04-.6.04-1.19.05-1.83.51-1.54,1.01-3.22,1.12-4.76q.57,0,1.23.07c.86,1.78-1.34,4.28-1.13,6.32ZM231.37,94.53c.75.7,1.46,1.5,2.25,2.23.77,3.02-1.37,8.26-5.07,8.26-5.88-1.17-.19-6.63-.19-2.75-.73.77.94,1.27,1.56-.28,0-3.66-3.94-4.89-4.01-8.57,1.74,0,4.69,5.49,5.46,7.14,1.92-1.81-.3-5.07,0-6.04ZM236.9,95.23v-.2c.4-.29.75-.6,1.15-.88.49.26,1.52,2.64,1.92,3.59.57,2.89-1.15,6.52-4.56,6.52-4.28-1.63-.35-5.6.35-2.33-.02.09-.11.18-.06.35,1.85-3.7-3.57-7.98-3.37-8.31,3.74,2.07,5.13,2.4,5.46,7.21,1.57-1.57.4-4.81-.9-5.95ZM241.79,104.33c-1.81-.95-2.27-.29-3.52.92-1.48,3.02-3.79,13.44-7.73,13.37-1.7-.3-3.24-1.48-2.05-3.08.4.2.72,1.04,1.63,1.04q.09-.04.2-.9c.97-1.61,2.49-.66,3.7-1.52,1.72-3.04,1.63-6.76,3.26-9.76,2.42-1.88,3.08-2.66,3.26-5.75,1.94.37,3.41,1.19,5.22,2.52-1.21.97-1.76,3.39-2.71,4.8-.2,0-1.03-1.48-1.26-1.65ZM237.21,117.35c-1.65-.14-2.23-.46-3.59.38-.09-.02-.18-.07-.22-.07,2.31-3.85,3.91-7.71,5.09-11.9.63-.99,1.23-1.54,2.44-1.54,4.45,1.72-2.25,11.19-3.72,13.13ZM229.92,105.74c.18-.14,1.43-.77,1.81-.77.59,1.39,1.17,2.69,1.36,4.34,1.25-1.15,1.43-3.09,1.43-4.59.4,0,.71.18,1.39.26.02.05.07.13.11.16-.7,3.04-1.61,8.28-5.83,8.28-4.4-.97,1.03-5.99,1.03-1.61,1.04-1.06-1.12-4.98-1.3-6.06ZM226.95,112.65q-.86.8-.97.77c0-3.46.24-2.89,1.36-5.44q.16-.68.31-2.21c.26,0,1.01,0,1.43.22-.07,2.45-.57,4.58-2.12,6.67ZM228.97,118.6c1.15.28,2.16.77,3.62-.11h.19c-.29.47-.44,1.39-.81,1.81-2.29,1.56-3.83,2.86-5.69,4.87-.07,0-.19.09-.29.11,0-3.2-.26-5.13,2.99-6.68ZM221.99,88.75c1.04-2.05,4.32,1.61-.28,1.87-5.22-.66-3.22-9.47-.42-11.48.15.15.95.97.95,1.52-1.19,1.74-2.38,4.16-1.7,6.52.04,0,.09.04.09.05.4-.4,3.35-6.87,4.42-3.68-1.06.8-3.46,3.66-3.06,5.2ZM215.93,88.75c2.18-1.78,3.08,1.78.77,1.78-8.11-.75-4.8-11.78-2.86-11.12,0,1.08.92,2.33.26,3.28-.49,1.48-.82,2.78-.09,4.54h.04c.53-1.48,1.45-3.28,3.04-3.95.33-.04.73-.04,1.21-.16,0,.55-.19,1.52-.24,2.27-1.63,1.01-2.23,1.26-2.12,3.37ZM216.83,82.78c-5.18-1.85-.68-9.96,2.18-9.3.22.48.22,1.19.33,1.92-1.69.68-1.93.7-2.75,2.38h.24c1.34-1.1,2.02-1.04,3.76-.59.05.29.33,1.23.18,1.72-1.17,0-3.84-.28-3.84,1.58,1.83-1.08,2.58,2.29-.09,2.29ZM229.02,76.68c2.23-1.59.75,1.96.57,2.86-.04,2.49.92,2.86,2.01,4.74h-.16c-3.42-1.1-4.47-5-2.42-7.6ZM229.08,75.98c-.42.75-.93,1.63-1.06,2.07-.38,2-.57,2.95.53,5,.33.42.64.84.51.84-3.41-2.18-3.9-6.65-.9-9.12.15-.14.33-.14.49-.14.84.09.75.77.42,1.35ZM228.27,74.26c-2.97,2.42-3.11,5.9-1.03,9.18-.04,0-.11,0-.14.02-4.16-2.11-3.17-9.2.69-10.49.51,0,.81.64.48,1.3ZM227.78,72.43c-3.65,2.4-4.83,5.66-2.71,9.95-.02,0-.11.02-.16.02-3.39-3.2-2.23-7.93.05-10.22,1.03-.88,3.52-1.83,2.82.26ZM227.14,70.65c-3.34,1.37-4.12,2.95-4.62,6.47-.03.73-.07,1.37-.09,2.14-1.37-3.37-.31-7.47,1.76-8.59.46-.33,3.13-1.54,2.95-.02ZM225.98,69.74c-2.11.53-2.95.82-4.3,4.07-.16.97-.37,1.87-.51,2.8q-.07.07-.11-.02c-.95-2.82-.02-6.68,2.93-7.62.18-.06.92-.31,1.52-.33.47,0,.93.14.93.59-.04.26-.24.47-.46.51ZM222.16,66.24c-2.38.84-4.1.84-5.62,2.67.88,0,2.82-.84,3.83.07-.27.49-.49,1.06-.75,1.58-1.25.09-4.38-.05-4.38,1.94,1.61-1.28,3.06,1.58-.09,1.81-2.98-.71-1.35-4.96-.16-6.46,2.56-2.27,3.92-3.37,7.18-1.69v.07ZM208.4,82.19c-.42,1.54-1.04,3.26-.31,4.98.86-1.72.88-4.54,2.95-5.24-.16,1.28-.16,2.29-.02,3.74-.57.66-1.94,2.14-1.32,3.35,1.17-2.14,3.66,1.25.55,1.5-4.91-.75-5.2-6.3-3.41-9.83,0-.07.13-.13.18-.22.33.73.4,1.08,1.37,1.72ZM219.25,153.27c-.06-.5-.1-1-.19-1.5,1.53,1.52,3.25,3.05,3.99,5.14.72,2.17.48,4.77-.84,6.67-1.14,1.68-3.25,2.39-5.22,2.22-.95-.02-2.01-.48-2.97-.4.17-.14.3-.32.44-.5l-.07-.11c.49-.22.97-.52,1.23-1.01l-.14-.14c.44-.17.87-.41,1.01-.89l-.12-.15c.38-.18.82-.28,1.17-.51v-.19s.11-.15.11-.15l-.21-.27c.4-.23.8-.42,1.25-.52v-.48c.4-.39.83-.76,1.31-1.04-.19-1.18.02-2.49-.6-3.54-.4,0-.8,0-1.2.01.41-.31.87-.57,1.28-.89-.08-.59-.16-1.17-.23-1.76ZM215.14,157.9c-.38.29-.84.33-1.13.33-.13-.04-.22-.07-.31-.13-.07-.09-.07-.11-.07-.16.24-.09,1.52-.79,1.52-.04ZM213.86,154.84c.16.29.6,1.47.16,2h-.16c-.68-.42-.53-2,0-2ZM217.7,160.21v.2c-.77.27-1.12.27-1.65.27-.29-.29-.15-.2-.15-.27.28-.28,1.27-.57,1.79-.2ZM217.45,159.13c.2-.93.59-1.86,1.39-2.14.35,1.03-.35,1.69-1.39,2.14ZM215.86,158.69s-.07-.07-.09-.07c.09-1.03.35-1.81,1.35-1.81.19.29-.86,1.76-1.26,1.88ZM216,151.76c.3-.19.47-.09.95-.06-.27.6-1.77,2.99-2.33,2.88-.23-.75,1.09-2.25,1.39-2.83ZM214.61,161.36h-.29c-.48-.6-.37-1.21-.11-1.61h.31c.22.38.31,1.01.09,1.61ZM215.49,162.54c-.14.37-.97.44-1.26.44q-.28-.07-.44-.18c.31-.42,1.17-.68,1.7-.26ZM216.11,155.75c.07-1.19,1.19-2.99,2.23-3.33.11.35.14.68.14,1.21-.55.57-1.68,1.96-2.38,2.12ZM217.34,150.61c-2.62.17-3.22.8-3.65,3.37h-.14c-.05-.88-.12-1.76-.11-2.64-1.22-.02-2.43.09-3.63.29,2.27-1.31,4.42-2.99,6.28-4.83.16,1.4.92,2.71,1.83,3.76-.19,0-.39.03-.59.05ZM207.92,169.98c-.09,0-.09,0-.11.03-.84-.57-.61-1.48.26-1.68.16.18.44.35.62.51v.15h-.57c-.29.46-.29.27-.2.99ZM202.38,163.74c-.13.09-.2.24-.29.33h-.51c0-1.1.99-1.17,1.85-1.17.75.35,7.25,5.07,6.58,7.11-.06.07-.16.09-.2.13-.48-.46-.37-.55-.44-.94-1.55-1.54-5.66-6.28-6.98-5.46ZM207.06,168.67c-.07.25-.18.21-.31.29-.65-.25-1.31-1.72-1.44-2.11,1.02-.14,1.04.74,1.75,1.83ZM203.03,164.81c.94.14,2.14.54,2.86,1.63-.11,0-.16,0-.19.03-.45-.12-3.03-1.01-2.67-1.66ZM211.96,160.52c-.15-.04-.29-.09-.4-.11,0-.57,1.21-.75,1.72-.57,0,.04,0,.05.05.14-.4.4-1.03.53-1.37.53ZM212.89,163.43c-.09,0-.19.06-.26.07-.57-.59-.42-1.55.26-1.67.2.37.27.97,0,1.59ZM208.4,166.22h-.22c-.09-.07-.2-.09-.29-.09-.02-.05-.02-.13-.02-.14,1.19-1.45,2.49-2.82,3.77-4.14.07,0,.15,0,.19.04-.02.26-.09.6-.11.86h-.59c-.94,1.1-1.81,2.38-2.73,3.48ZM209.3,166.42c-.13-.02-.22-.09-.35-.09-.03-.11-.03-.18-.03-.2.55-.57,1.02-1.45,1.79-1.78.49.75-1.01,2.07-1.41,2.07ZM207.52,160.59c0,.09,0,.16.02.24-.35.35-.86.36-1.19.46-.13-.04-.2-.11-.28-.11-.02-.09-.02-.16-.02-.24.42-.42.77-.51,1.46-.35ZM206.4,158.4h.19c.18.26.46,1.87-.31,1.67-.26-.86-.04-1.15.13-1.67ZM208.92,158.7c-.4.42-.99.42-1.32.44-.13-.02-.2-.07-.26-.09-.02-.07-.02-.13-.02-.26.46-.24.99-.59,1.6-.09ZM208.19,155.88c.2.13.86,1.83.11,1.83-.62,0-.24-1.7-.11-1.83ZM206.28,161.62c-.28.4-.86,1.19-1.34,1.19-.48-.75.66-1.72,1.34-1.19ZM207.98,160.69c-.07-.11-.09-.27-.09-.33.57-.31,1.17-.47,1.03-1.1.59-.24,1.02-.44,1.02-1.1.24-.07.42-.16.7-.18,0,.31-.13.62-.27.99-.19,0-.31.05-.44.07-.62.86-3.76,4.38-4.51,4.8-.07-.16-.16-.33-.2-.49.91-.9,1.81-1.79,2.76-2.66ZM210.45,156.99c-.46-.18-.51-.22-.51-.42.57-.26,1.1-.51,1.85,0-.24.42-1.08.42-1.34.42ZM211.9,157.09c.09-.03.14-.03.26-.03.14.42.26,1.32-.06,1.96h-.14c-.59,0-.16-1.74-.05-1.93ZM210.07,161.39c-.42-.62-.4-1.88.46-1.88.33.44.15,1.68-.46,1.88ZM209.24,161.08c0,.13,0,.22.09.39-.53.8-2.42,2.88-3.13,3.16-.99-.62,2.38-2.8,3.04-3.55ZM210.2,162.12c0,.37-2.52,3.27-2.97,3.42-.14-.09-.24-.17-.33-.24,0-.75,2.47-3.18,3.3-3.18ZM212.35,154.61c.35.66-1.22,1.31-1.74,1.33.29-.96.71-1.39,1.74-1.33ZM212.36,152.34c.39.94.03,1.64-1.14,1.76-.22-.66.46-2.06,1.14-1.76ZM209.94,154.77h-.2s-.04-.02-.04-.02c-.2-.88.14-1.54.47-2.18.19-.11.51-.29.95-.16-.11.75-.77,1.7-1.19,2.36ZM209.32,156.31c-.47-.88-.53-1.03-.26-1.8.62,0,.94,1.56.26,1.8ZM209.38,152.09c-.31.92-.78,1.78-1.11,2.7v.02c-.12,0-.24,0-.36,0l-.32.61c-.04.17-.07.34-.12.5l-.11-.05-2.81,5.38c-.15.16-.47.17-.67.19-.16.17-.35.4-.47.59-.68,0-1.45,0-1.92.56-.16-2.51-.03-5.02-.01-7.52.85-.24,1.7-.51,2.53-.79.54-.19,1.07-.39,1.6-.59.51-.21,1.03-.43,1.53-.66l.99-.47c.45-.23.9-.46,1.34-.71l-.08.27ZM210.03,167.78c.21-.26.39-.53.58-.79.24-.33.48-.68.75-.99.33,0,.66.02.99,0-.28.35-.45.78-.61,1.19-.46.31-1.18.65-1.09,1.32-.18-.27-.39-.5-.62-.73ZM211.99,165.19c-.16-.02-.26-.07-.35-.07v-.24c.26-.28,1.21-.71,1.7-.2-.42.42-.93.49-1.35.51ZM198.79,154h-.55s0-17.05,0-17.05c.27-.08.74-.23,1-.32v15.92c4.29-.33,8.91-2.82,12.57-5.2,3.85-2.89,6.34-6.08,8.82-10.2,2.47-5.4,3.75-10.64,3.54-16.32-4.16-.02-8.35-.02-12.53-.02-.07-.33-.07-.68-.07-1.01h13.84c.09,7.71-.9,15.5-5.92,21.73-4.91,6.1-12.85,12.4-20.71,12.47ZM200.34,154.84v9.18c-.59-.04-1.45,0-2.01,0-.04-3-.04-6.02-.04-8.97.69-.04,1.34-.13,2.05-.2ZM210.05,131.39l-.08,1.26h.06c.05.28.14.47.32.69v2.48c-.23-.55-.47-1.1-.79-1.6,0-.16.04-.32.08-.48l.31-1.02-1.04-.16c-.18-.02-.35-.01-.52-.01l-.11.11c-.17-.19-.33-.29-.57-.38l-.56-.07.67-.63.84-.95.19-.26v1.14l1.2-.12ZM210.94,129.76l-.08-1.28h1l-.15,1.28,1.19-.08v1c-.36-.08-.77-.13-1.14-.21v1.36s-.9,0-.9,0l.08-1.36-1.26.13v-.92l1.26.08ZM209.86,128.85l.17-.29.02.3h-.19ZM204.11,96.74c1.01,1.43,2.92,1.69,4.55,1.76.15.2.31.39.5.55-.67-.29-1.43-.22-1.92.35,0,.4.05.8.04,1.2.99.22,1.53,1,2.16,1.72l-.67.08c.57.55,1.37,1.71,2.21,1.82-.07.32-.08.62-.09.93h-10.8v-11.69h2.95c.15.57.25,1.15.5,1.68l-.51-.07,1.08,1.67ZM208.62,96.37c1.02,0,2.34.18,3.55.36.06.24.29.67.29,1.14h-.26c-.49-.07-4.08-.58-3.59-1.5ZM208.95,97.59v.07h-.56c-1.41-.13-2.95-.34-3.66-1.5,1.83.27,2.81.34,4.22,1.43ZM213.33,99.09c-.53,0-1.1,0-1.6.07-1.3-.22-1.88-.4-2.5-1.29.02-.07,3.99.13,4.1,1.22ZM214.45,100.03c-.05,0-.05.03-.05.05-.89.09-1.69.11-2.5.2-.83-.2-1.52-.6-1.72-1.09,1.54.34,2.9-.29,4.28.83ZM210.79,100.61c1.16-.05,2.38-.07,3.55-.07,0,.91-.45,1.17-1.25,1.27-1.14-.09-2.3-.42-3.17-.18-.81-.85-.76-1.18-1.83-1.6,0-.11-.02-.18-.02-.26.33-.34,1.9.6,2.72.83ZM214.64,103.7c0,.83-.76,1.77-1.01,2.75-.07,0-.09,0-.09.05-.83-1.14.41-2.14,1.1-2.81ZM212.13,105.2c-.18-.02-.33-.07-.42-.12,0-1.67,1-1.91,2.46-2.48.65.72-1.22,2.39-2.05,2.61ZM213.28,102.13c0,.05,0,.07.02.13-.83.78-1.22.94-2.16,1.14-.47-.13-.56-.29-.64-.36.85-.07,2.03-1.01,2.77-.91ZM211.45,105.87c.25.11.48.14.76.18l.23-.07c.05.62.52,1.16.84,1.65l1.04-.62v.66c.26.08.54.13.77.25.26.15.38.52.48.78.22.56.47,1.1.72,1.65l.91-.67c.44-.36.69-.8.62-1.38l.31.43h.18c-.15,1.88.32,3.85,1.99,4.94l.37-.24h.27c.38.34.79.54,1.24.77l.28-.06h.94s0,2.68,0,2.68h-11.94v-10.95ZM216.55,107.5c.38.62.74,1.09.07,1.56-.43-.94-.51-1.74-1.47-2.01,0-1.63-.83-4.31,1.39-4.22-.11,1.69-.5,2.79,0,4.68ZM217.64,106.87s-.08.07-.15.11c-1.16-1.36-.62-2.81-.46-4.24.94.24.59,2.88.62,4.13ZM218.67,107.9h-.11c-.78-1.03-.6-2.88-.55-4.1.84,0,.61,3.01.65,4.1ZM220.2,108.62c-1.18-.93-1.25-2.67-1.14-3.82.29,0,.78.18,1.19.38.02,1.12.11,2.28.2,3.39-.09,0-.2.02-.25.05ZM220.47,112.59q-.05,0-.11.04c-1.41-1.14-1.23-2.84-1.21-4.26,1.14.91.76,2.57,1.32,4.22ZM223.24,112.87c-.07-.59-.1-1.16-.09-1.75.02-.97.12-1.92.25-2.87v5.65l-.15-1.02ZM222.32,101l-.31-.17.19-.13.55-.17c-.02-.44,0-.87-.16-1.29.12-1.22-.94-2.43-2.19-2.37-.16-.99-.8-2.32-2-2.11l-.19-.18c-.6-.05-1.14.12-1.65.44h0c-.3-.55-.71-.99-1.23-1.35-.04-.02-.39-.22-.42-.23h8.49v8.67c-.28-.47-.61-.81-1.07-1.12ZM216.01,95.83c0,.38,0,1.56.18,1.88,1.5,0,2.83-.98,1.19-2.01v-.16c.16-.09.31-.11.49-.11.26.22.62.8.8.71-.09-.16-.2-.31-.27-.49.83-.47,1.36,1.58,1.18,2.16,1.03-.22,1.94-.15,2.19,1.23-.05,0-.09.05-.14.05-.14-.07-.25-.18-.42-.33v.16c.16.11.67.4.67,1-.09.02-.16.11-.25.16-.25-.33-.62-.65-.85-.93-.69.09-1.6,1.22-1.29,1.96,1.48.11,3.06.33,3.53,2.34,0,3.26-1.11,6.47-.56,9.84-.09,0-.11,0-.18.02-2.25-1.03-1.7-3.46-1.56-5.41.1-.55-.01-2.7-.36-2.92-2.41-.71-2.19-2.25-3.57-2.96-.5.8-1.68.72-2.39.49,0-1.14-.22-1.67.74-2.23,0-.29-1.79-1.52-1.79-1.52-.64-.85-.87-1.38-.96-2.1-.44-.23-2.21-.71-3.01-.73-1.64-.09-4.06-.23-4.75-.57-.42-.62-.47-.85-.6-1.34,2.3,0,4.6.36,7.36-.09,1.85,0,3.62-.34,4.62,1.91ZM211,126.11c.4-1.41.48-3,.45-4.46,3.97,0,7.94,0,11.9.02.05,4.23-.81,8.44-2.33,12.37-.5-.8-1.02-1.69-1.85-2.18,1.05-.42,1.9-1.38,2-2.53.18-2.14-2.25-2.85-3.83-3.49-.03-.06.43-1.13.45-1.2-.75-.38-1.64-.75-2.43-.28-1.13,1.3-.74,2.89.85,3.52.88.45,2.72.85,2.72,1.23-.04.34-.35.34-.54.48-1.43.9-3.52.59-4.64,1.95v-2.76l-1.09.08.14-1.21h-2.33c.19-.43.41-1.09.54-1.53ZM218.19,136.99c-.33-.09-.65-.15-.99-.18.42-.45.79-.94,1.07-1.49.08.27.16.52.27.77.12.27.28.51.43.76h.86c-.32.52-.64,1.04-.97,1.54.09-.38.16-.75.25-1.13l-.92-.29ZM214.06,140.17c0-2.18,2.22-2.95,4.08-2.33-.33,1.59-1.13,3.41-2.74,4.22-.18.03-.06-.39-.28-.34.2-1.02,1.49-1.02,1.49-2.13-.95-1.21-1.39.44-2.55.57ZM219.72,136.03h-.28c-.56-.87-.46-2.7-1.59-2-.49,2.28-3.09,3.81-5.01,4.65t.02.07c.46-.13.9-.22,1.34-.36-.26.98-1.36,3.36-2.34,3.7v-4.86c-.07-.51.13-.9.36-1.19,1.93-1.31,1.1-3.14,2.55-4.36,1.59-.67,3.28-.64,4.72-1.83,1.78-2.62-5.73-1.92-3.59-4.8.25-.1.41-.15.8.03-1.13,2.49,2.73,1.16,3.65,3.83,0,3.7-6.16,1.78-5.68,4.81.1.18.26.31.38.51,2.13,0,2.67-4.14,5.19.13,0,.53-.28,1.05-.52,1.67ZM212.61,131.46c.34.07.68.15,1.02.23-.31.46-.48.93-.64,1.46-.14.5-.25,1.02-.53,1.47v-1.47c.08-.16.13-.31.16-.49,0-.39-.01-.79-.01-1.19ZM216.16,132.76c-.2.19-.41.38-.66.51.06-.27.43-.42.66-.51ZM206.81,144.06c-.05.25-.28.89-.56,1.22h-.08c-.89-1.26-1.08-1.74-1.16-3.02.03.03.1.07.18.13.08.54.2,1.07,1.62,1.67ZM205.56,141.92c.16.05.36-.03.74-.25.13.51,2.44,1.75.28,1.75-.75-.33-1.05-1-1.01-1.51ZM205.98,147c1.15-1.49,1.69-3.96,2.06-5.62.15,0,.69.44.98.69.44-.25.62-1.01.98-1.29.53.11.61.11.93.28v2.14c-.33.29-.78.25-1.03.3.01-.38.29-1.26.25-1.52-.74,2.42-2.1,3.64-3.36,5.83-.46.08-.92.15-1.34.23-.36-.05-.71-.05-1.08-.05,0-1.19.49-.95,1.6-.98ZM211.7,144c0,1.51-1.21,1.97-2.52,1.97-.2,0-.44-.03-.64-.03,0-.42,2.72-2.24,3.16-1.93ZM211.19,143.35v-10.1l.44.03v10.07h-.44ZM211.37,132.96c-.28,0-.51-.23-.51-.46,0-.21.23-.44.51-.44.26,0,.42.23.42.44,0,.23-.16.46-.42.46ZM207.49,133.1c.23,0,.56,1,1.24.3,0,0,.05,0,.15.02-.1.31-.15.59-.15.87h-2.22c-.21-.35-.16-.74-.13-.87.42.21.75.29,1.11-.31ZM206.42,134.57c.75-.02,1.54-.02,2.36-.02.75,1.02,2.08,4.81,1.8,5.96h-.82c-.74,1.83-.69.97-1.72.39-.18.31-.54,1.37-.97,1.37-.38-.36-.56-.77-.64-1.11-.06-.02-.1-.02-.13-.02-.18.14-.33.33-.52.47-.47-.46-.3-.85-.47-1.16-.1-.08-.36-.21-.87-.24-.03-.08-.06-.08-.06-.1.98-1.86.46-4.21,2.04-5.55ZM203.99,138.81c-.11.43-.3.83-.5,1.22.04.31.27.71.39.98l.2.02c0,1.79.37,3.58,1.57,4.96l-.11.18c-1.68-.3-2.19,1.27-2.01,2.65.64,0,1.31-.03,1.95.06.61-.12,1.23-.21,1.84-.32.36-.61.72-1.2,1.12-1.79,2.12.37,4.42-.89,4.1-3.28l-.08-.04v-.73c.64-.41,1.1-1.04,1.48-1.69.21-.03.41-.06.61-.12-.19.31-.25.61-.33.97.25.41.63,1.15,1.23,1.02-4.01,4.39-9.54,7.57-15.38,8.72v-15.29c1.91-.71,3.77-1.62,5.44-2.81-.01.23,0,.46.07.69-1.2,1.23-1.18,3.03-1.59,4.59ZM195.56,154.84q1.78.16,2,.2v8.97h-1.98c-.02-3.11-.02-6.12-.02-9.18ZM203.27,172.67c-.24,0-.46.05-.61.05-1.23-.53-1.88-3.33-1.98-4.47h.19c.7,1.12,2,3.02,2.4,4.41ZM202.49,167.69c.26-.21.35-.12.54,0,.32.62,2.46,3.49,2.46,4.48l-1.29.11c-.83-.49-1.8-4.38-1.71-4.59ZM201.61,167.96h-.22c-1.12-1.12,2.71-2.18.22,0ZM200.34,165.67l-.04,6.85-1.98-.09v-6.72l2.01-.04ZM197.58,165.67v6.78l-2.02.07v-6.81l2.02-.04ZM190.62,169.66c.66.12,3.32,1.96,4.3,2.62,0,.13-.66.07-.99.13-.55-.4-3.5-2.23-3.32-2.75ZM193.26,172.42s-.02.02-.02.09c-.53,0-.99,0-1.5.05-1.12-.13-2.11-.6-2.97-.92,0-.64.88-1.35,1.47-1.41.88.68,1.88,1.47,3.02,2.18ZM194.83,171.03c-2.43-1.41-2.34-1.33-3.12-1.84-.02-.14.16-.41.16-.52.51-.55,2.4,1.23,3.26,1.85,0,.31.06.44-.3.51ZM194.94,168.8c-.14,0-.28,0-.42.02-.59-.57-1.15-.71-1.54-.93-.07-.13-.07-.22-.07-.37.35-.15,2.2.88,2.03,1.28ZM194.13,166.45c.13-.26.04-.26.39-.26.13.15.84.95.51,1.45h-.27c-.11-.29-.51-.95-.59-.95-.04-.09-.04-.16-.04-.24ZM206.18,170.58c1.14.48,1.82,1.57-.07,1.57-.53-.78-.72-1.08.07-1.57ZM201.83,165.46c1.78.16,4.25,3.57,6.32,5.17.26.03.31-.04.75.22v.31c-.38.13-.77.13-1.1.13-1.3-.86-5.83-5.08-5.97-5.83ZM208.51,171.78c.33,0,.68-.07.92.11.94.77,2.29,2.07,3.28,3.06,0,0-3.92.04-4.03,0-.22,0-.16-3.15-.16-3.17ZM208.59,170.17c-.29-.37-.31-.49-.2-.61.07,0,.2-.09.4.14,1.67,1.5,6.85,6.7,7.12,6.91-.09,0-.26.29-.42.29-.07-.11-5.37-5.02-6.9-6.74ZM211.99,170.92c-.51-.49-.46-1.34-.35-1.81.68,0,1.04.33,1.04.71s-.27,1.1-.69,1.1ZM212.75,171.23c.02.14.04.29.06.43.03.22.06.45.11.67-.16-.15-.32-.31-.49-.46.1-.22.2-.43.32-.64ZM213.46,171.01c.57-.26,1.06.11,1.28.53.09.42-.28.66-.86,1.12h0c-.53-.59-.44-1.23-.42-1.65ZM214.03,173.4l.1-.03.18-.08c.14-.09.28-.18.4-.3.22.41.47.8.69,1.21-.15.02-.3.05-.45.07-.31-.29-.62-.59-.92-.88ZM245.32,99.42c-2.87-.33-4.65-.77-5.33-3.33,1.67,0,4,2.84,6.52,1.32-.51-.04-.95-.09-1.43-.09-1.1-.46-1.28-.77-1.83-1.45.51-.13,1.04-.24,1.54-.37.9.77,2.4,1.28,3.34-.07-.86.07-1.78.59-1.6-1.54,3.13-3.13,4.78,5.53-1.21,5.53ZM234.03,84.35c2.47,0,9.45,9.05,10.18,8.26-1.7-2.51,3.13-3.52,2.25.44-.97,1.68-2.91,1.67-4.43,1.68-1.35-.18-2.56-.49-3.48-1.04,0-.73.77-1.01.38-1.98.53,0,2.53,1.61,3.33,1.23-.11-.28-.7-.47-.8-.51-2.8-2.26-4.56-5.42-7.43-7.05,0-.05.02-.13.09-.13.09-.06.22-.15.29-.15,0-.37-.37-.7-.38-.75ZM237.21,90.62v.11c-.82.09-.8.18-1.3.82-.05-.06-.16-.06-.24-.06-.26-.73-.26-1.19-.33-1.87.4,0,1.3.68,1.87.99ZM236.1,92.37c.35-3.28,4.61.73.51,1.93h-1.13c-3.74-.33-2.69-2.36-4.51-3.67-.37-.16-.66-.27-.93-.36.09-.55.27-1.05.42-1.56.05-.05.09-.05.09-.05,1.59.55,2.29,4.08,3.33,4.08.46-2.69-1.32-5.37-2.31-7.36,4.6.47,1.96,6.41,4.53,6.99ZM233.53,84.63h-.16c-3.06-1.17-4.19-4.28-2.91-6.94.68-.7,1.44.24,1.02,1.44-.36,1.28.26,2.89.42,3.24.42.69,1.63,2.21,1.63,2.25ZM239.26,75.43c-.32.82-1.16-.41-2.68.02-.34.1-.57.14-.94.26-.44.14-.79.21-1.08.13-.33-.08-.62-.34-.53-.83.08-.42.51-.96,1.35-1.07.14-.02.41-.04.66.01.3.06.54.24.73.32,1.33.57,2.81.34,2.48,1.16ZM240.87,67.76c-.33.2-.81.59-1.06.66-.71-.38-1.45-.71-2.12-1.08-.15-.14-1.01-3-1.01-3,.73.33,3.87,2.31,4.2,3.42ZM235.51,63.53c-.99.01-2.02.05-3,.05-.5-.04-1.17-.19-1.34-.53.76.1,4.89-1.18,4.35.48ZM218.84,58.15c1.37-.71,1.59.51,1.74.99.22.24.55.29.9.29,1.28,0,2.78-.06,4.21.16q1.45.42,1.58.4c-1.76-.86-4.09-.83-5.79-.82-1.72-.51-.59-2.05.13-2.05,1.36,0,.73,1.36.7,1.43,2.07.22,3.88.11,6.06.88.02,0,.13,0,.19,0-1.7-.66-3.04-.88-4.54-.9-1.48-.05-1.52-1.3-.9-1.67.57-.31,1.72,0,1.19,1.13.07.04.16,0,.19.04,2.86.33,5.11-.6,6.65,2.47.6.62,2.23.64,2.54,1.7-1.19.55-1.83.59-2.99.64-.37-.05-.64-.11-.92-.11.64,1.28,1.85,1.48,3.06,1.43,1.79-.11,3.59-.64,3.77,1.76l.6.61-.42.55s-.51-.26-.69-.31c-.16.14-.51.27-.68.29-1.39,0-1.79-.9-1.63-1.81h.37c.07,1.58,1.19,1.52,1.83,1.15l.62.37c.04-.09.18-.3.26-.35-.26-.14-.44-.26-.64-.37-.06-1.3-.75-1.74-1.81-1.26-.73-.04-1.41-.13-2.14-.13v.31l1.12.16c.11.49-.09,1.1.29,1.63.19.31.62.62,1.78.71.31-.04.53-.15.92-.15,1.1.11,2.56.62,3.65,1.45v.7c-.77,0-1.36-.35-1.96-.51-3.52,0-3.61,4.03,0,4.03,0,0,.02-.04.09-.04-3.34-.71-3.17-3.74-.2-3.74.61.14,1.65.62,2.35.62-.01-.42-.02-.77.03-1.09.08-.57.66-.66,1.11-.46.96.43.32,1.66-.68,2.63-.37,1.55-.73,2.64-1.4,3.12-.66.47-1.61.36-3.17-.45-3.26-.61-3.66,3.92.06,2.38,1.43-.31,1.9.27,1.86.94-.04.72-.68,1.55-1.37,1.55h0c-2.23-1.15-2.67-.95-4.82-.62-.31-.46-.82-.64-1.21-.94-.27-.93-.64-1.03-.92-1.19.04-.33-.51-1.41-1.01-1.5.02-.62-.16-1.34-.73-1.72.33-.84,0-1.52-.73-1.76.22-.38.04-1.08-.61-1.26,0-1.01-.42-1.01-.49-1.15-.09-.09.02-.35.02-.49,3.09-.13,4.03-2.33,3.46-3.88-.49-1.52-1.58-2.07-3.08-2.66-1.1-.44-5.77-.24-7.42-1.43-.55-.36-.73-.93-.35-1.72ZM234.6,65.64c0-.31.24-.6.58-.6.32,0,.66.25.66.59,0,.3-.26.58-.61.58s-.63-.27-.63-.57ZM218.22,59.87c.44.15,1.45.59,2.05.79.7.13,1.45.37,2.86.59,1.41.13,3.62.3,4.67.92,1.63,1.01,2.29,1.91,1.23,4.12-.79.99-1.39,1.06-2.54,1.06-2.09-.77.46-2.69.92-1.1.05,0,.07,0,.13.04,1.03-3.41-2.36-3.61-3.83-1.43-.51,0-1.17-.22-1.36-.79-1.43-.03-1.65-1.63-2.23-2.25-.77-.75-1.98-1.23-1.88-1.94ZM217.7,59.63c.51,1.39.53,1.52,1.91,2.54.66,2.05,1.34,1.81,3.15,3.08.35.11.99-.11.86.79h-.29c-2.8-.57-5.79-4.01-6.14-6.48.19,0,.35.04.51.07ZM217.01,60.58c.11.35.2.73.37,1.15-1.01.57-1.98.57-2.64,1.48,1.32.07,3.13.4,4.49,1.32-2.11,2.14-4.09-.88-5.13.62.86,0,1.19-.42,1.57,1.01-.13.66-.71.99-1.41.99-4.07-1.34-.22-6.57,2.75-6.57ZM212.01,64.03q.09.2.2,1.88c-1.01.4-2.71,1.28-2.99,2.53.49-.09,4.3-1.25,4.73-.09-.26.44-.42.88-.61,1.32-2.14,0-4.03-.27-5.31,1.63.94,0,2.14-.79,1.96,1.25-.37.62-.94.62-1.48.73-5.44-1.21.11-9.25,3.5-9.25ZM205.51,70.93c.09.42.16,1.1.57,1.68,0,.81-2.54,3.41-2.2,4.07,1.45-1.12,3.39-2.53,5.2-2.87-.49.97-1.05,1.88-1.52,2.87-1.06.71-3.7,1.63-3.52,3.41,1.69-1.15,2.58,2.11.13,2.11-5.88-.99.06-11.92,1.34-11.26ZM202.76,72.93c0,.29-1.12,2.25-1.28,2.64-1.65.79-1.61.99-1.91,2.69-.16,4.09-1.1,8.17-1.17,12.51-.16.14-1.3.09-1.3.09-.28-.24-.82-4.16-.86-4.52,3.7-4.69-1.08-12.38,6.52-13.41ZM196.06,89.21q.4,1.52.37,1.61c-.39,0-.82,0-1.14.04-1.43-.49-1.12-2.27-1.12-3.06.13,0,1.39,1.1,1.89,1.41ZM194.65,83.18c.27.71.55,1.45.88,2.16-.42.29-.88.16-1.26.16-1.74-.31-3.44-2.23-3.85-3.48q.71-.93.86-1.25h.18c.66,1.03,1.52,2.4,3.19,2.4ZM191.44,74.96s.8,1.03.68,1.39c-.55.11-1.01.02-1.41.02-2.23-.64-3.53-1.93-2.77-4.01.35,0,1.47,2.47,3.5,2.6ZM189.74,71.59q-.02.07-.02.13h-.14c-.7-.37-1.91-2.05-1.81-2.36,1.3.04,1.21.9,1.98,2.23ZM186.79,67.56c.36,0,.71-.07,1.04-.07.27.27.46.59.69.93-.33.11-.82.19-1.1.22-2.4-.16-2.95-.99-4.25-2.53,1.85-.97,1.68.8,3.61,1.45ZM184.96,62.58c.13.04.3.09.42.16-.26,2.58-2.38,2.95-4.63,3.17-1.52,2.56-2.58,2.56-5.35,2.69-1.34,1.43-2.03,1.81-3.94,1.94-.16-.04-.29-.04-.4-.04-.06-.2-.06-.35-.06-.51,2.14-.26,2.66-.51,4.09-2.16,2.6.2,3.97.09,5.13-2.47,1.47-.11,3.11-.04,4.19-1.48.16-.4.35-.84.55-1.3ZM167.07,59.23c1.93-1.96,4.4-.7,6.72.14.06.06.37.06.42.07-.35.77-.93,1.06-2.23.9-2.02-.71-1.98-1.58-3.97-.07-.15.02-.05.11-.49.02-.44-.14-.64-.57-.44-1.06ZM168.99,66.57c.66-.15,1.32-.26,1.81-.84.94-3.79-6.76-2.69-8.19-1.77,1.1,0,2.75-.48,4.25-.48.48.06,4.4.55,3.21,2.16-1.45.71-3.77-.07-5.06-.38-.53-.59,2.95.15,3.48.15.02-.07.02-.15.07-.24-.94-.99-5.08-.94-5.59.47,0,.06-.05.61-.22.77-3.15-3.79-1.06-6.41,3.64-6.41.84.97,1.5.71,2.11.29.4-.22.73-.47,1.21-.47.2,0,.35,0,.55.11,1.55.66,3.24,1.52,4.52-.7-1.17-.24-2.26-.57-3.34-1.19v-.07c3.65-.63,9.89,3,13.02,4.43,0,2.36-3.06,2.58-4.67,2-.68,2.44-1.79,3.32-4.52,2.77-.2-.09-.36-.11-.49-.18-1.04,1.81-1.87,2.25-3.83,2.38-.51-1.37-1.52-2.02-1.98-2.78ZM171,79.06c.13.63-.51,3.08,1.23,2.46.82-.44.92-1.96,1.04-2.6.29,0,.79.22,1.21.42-.51,2.11-.7,3.74-3.02,4.23-1.54-.38-1.65-4.14-.46-4.51ZM168.27,83.55c.3,1.7,1.69-.28,2.22-.39.18.28.51.55,1.03.73v.18c-1.06,1.03-2.22,1.96-3.61,1.96-1.23-.77-.51-2.23.36-2.49ZM166.94,85.33c.09.26.16.51.28.8-1.13.51-2.33.49-3.41.49-.55-.04-.95-.2-1.23-.29,1.41-.2,2.78-.75,4.36-1.01ZM145.03,163.21c-.2-.31-1.52-5.57-2.87-10.4-.47-1.37-.95-2.82-1.37-4.19-7.64-16.63-13.7-30.78-8.86-48.88,4.1-12.36,10.97-24.01,24.19-27.88,5.58-.79,10.99.22,9.56,7.42-.42,1.34-3.92,8.79-5.72,7.86,1.46-3.06,2.62-4.03,2.89-7.44-1.72-.64-2.09-.88-2.68-2.21-2.01.05-3.75.2-4.54-1.76-.82,0-1.78.64-2.62.81-1.1.02-2.27.02-3.42.05-10.16,8.52-14.45,16.81-16.59,29.74-.7,6.78-.81,12.69.84,19.56,2.95,10.18,8.19,19.83,10.84,30.38q.48,2.14.53,2.23c.59-5.35-2.89-12.69-4.4-17.51-1.13-2.78-2.23-5.59-3.37-8.39,0-.77.57-1.13.93-1.61.15.37,3.21,8.17,5.42,15.05,1.08,3.35,1.7,4.87,2.25,8.89,0,.36-.6,8.73-1.03,8.28ZM145.97,162.46c0-.16-.2-.09-.2-.24,1.63-4.87.82-9.32-.8-14.83-1.89-6.43-4.85-12.58-6.26-17.58.11-.82.22-1.7.37-2.47.22-.19,6.23,16.99,7.31,20.46.57,2.76,2.62,12.23-.4,14.67ZM147.91,147.96c-.11.24-.29.49-.39.84-.03,0-.46-.92-.46-.92.59-1.65.5-2.95.42-4.93-.61-5.82-3.02-11.88-4.89-17.51,0-.47.42-1.25.6-1.61h.15c2.78,7.97,6.08,15.37,4.56,24.12ZM148.97,153.7c-.15.54-.31,1.07-.42,1.62-.09-1.79-.34-3.57-.37-5.36,1.17-2.58,1.13-5.46,1.12-8.24,1.22-2.03,2.25-4.2,2.59-6.56,1.31-.95,2.39-2.21,2.91-3.76.74-.85,1.74-1.42,2.36-2.38.61-.81.56-1.86,1.02-2.73.44-.59,1.16-.89,1.67-1.42.15.08.29.2.4.33-.75,2.03-1.53,4.05-2.33,6.07-.36.89-.71,1.78-1.07,2.68-2.06,5.08-4.17,10.14-6.17,15.24-.58,1.5-1.15,3-1.71,4.51ZM149.6,159.75c-.55-6.01,3.24-12.11,5.27-17.13q1.76-4.85,1.83-4.94s.03.02.09.05c.2,2.07-4.67,12.53-3.52,13.7,2.58-3.11,3.9-7.95,5.15-11.63.35-.4.8-.84,1.19-1.21,0,1.67-7.2,20.44-10.02,21.15ZM153.77,165.41c-.13.07-.2.16-.24.14-.55-.53-.51-2.76-.51-3.17.84-8.09,4.08-15.49,7.05-22.89,0,0,.04.04.09.06.29,2.95-2,8.09-2.99,11.08-.28,1.13-1.01,3.32-.38,4.65h.2c2.71-3.57,3.31-8.06,4.61-12.23q.73-.75.82-.75c0,.59-.44,1.41-.64,2.16-2.03,7.6-3.3,14.58-8.02,20.95ZM158.9,171.01c-.09-.05-.14-.05-.24-.05-1.56-4.23-.49-8.42.14-12.55,1.15-5.35,2.62-10.57,4.05-15.53.07-.07.18-.09.2-.09q.05.4.44,1.45c-.44,4.19-3.79,10.27-2.36,14.65,3.83-2.49,2.36-11.12,4.87-14.8,0,.22,0,.42.04.61-1.15,8.46-1.78,19.06-7.15,26.32ZM167.85,169.4s-1.57,4.14-2.6,4.11c-2.68-4.71-.86-12.67-.29-17.47q1.72-11.68,1.77-11.83c.2.59.48,1.17.72,1.69-.11,3.06-3.02,13.29-.88,16.04,1.65,0,2.49-13.74,2.56-14.61.26-.49.51-1.01.88-1.27-.16,7.62-.31,15.73-2.16,23.35ZM173.57,173.23c-.05,0-.16,0-.2.04-5.46-5.9-3.37-15.07-2.91-22.16.04-1.91,0-4.1.29-5.62q.13.13.75,1.58c0,.37-.82,15.48,1.74,15.48,2.78-4.12-.82-11.63.51-15.53.22-.35.45-.62.73-.95h.11c.6,7.01,3.06,20.16-1.03,27.18ZM171.17,134.66c.97,0,.75,5.07,1.63,6.1.26-.37.49-1.03.82-1.21,1.67.84.09,6.87-1.1,7.46-1.78-3.85-1.36-8.46-1.36-12.35ZM180.77,171.32c-.05,0-.09,0-.16.04-2.95-3.15-3.51-4.8-4.21-8.86-.29-5.69-.73-11.3-1.28-16.74,0-.15.05-.21.05-.28.33.49.61.93,1.1,1.58.75,2.27.35,12.69,2.8,14.28,1.03-2.66.19-6.59,0-9.06-.2-1.74-1.04-5-.78-6.39.24.16.44.24.59.42,1.08,8.04,3.84,16.78,1.9,25.01ZM175.11,141.86c.38.26,4.19,4.19,2.03,4.87-1.55-.61-2.16-3.68-2.03-4.87ZM180.93,147.28c-8.65-7.95-10.66-16.35-10.86-27.4h13.91v1.1h-12.6c-.21,10.33,4.5,20.73,10.05,25.14,6.25,5.08,12.28,6.52,15.21,6.43l.02-15.94.85.28v17.12s-.56,0-.56,0c-6.39-.4-11.23-2.81-16.01-6.73ZM186.29,154.18c-.83-1.08-1.66-2.17-2.57-3.18l.25.15c.62.36,1.24.71,1.88,1.02.01.14.03.28.06.42.12.53.25,1.06.38,1.59ZM182.06,151.03c1.15,0,6.08,7.28,6.7,9.21-.04,0-.31.22-.42.24-1.63-1.49-5.33-7.78-6.28-9.45ZM184.45,157.52c.53.47,5.67,5.16,6.14,6.02-.09,0-.33.31-.4.35-2.21-1.67-4.58-4.14-5.73-6.37ZM185.03,161c.44,0,3.74,2.85,4.54,3.68-.09.07-.07.06-.11.15-.11,0-.22,0-.33.05-1.23-.57-3.67-2.95-4.1-3.88ZM186.09,164.33c.38.03,1.94.76,2.31,1.35-.19.22-.33.24-.4.25-1.79-1.47-1.84-1.43-1.9-1.6ZM191.61,163.51c.2-.07,2.45-.35,2.23.55h-.75c-.97-.97-6.24,4.21-6.87,6.02-.16.02-.28.02-.31.06.15-2.77,4.01-4.84,5.7-6.63ZM186.81,169.71c.31-.24.64-.22.75-.03.11.09.15.09-.22.51-1.28,1.59-5.07,4.93-6.59,6.04-.31.18-.51.26-.57.29-.22-.22,0-.48,0-.53,1.1-1.01,5.2-5.07,6.63-6.28ZM170.07,183.01c-5.27-.57-9.08-2.75-12.78-6.1-.02-.05-.02-.11-.07-.16.84,0,4.61,2.47,5.37,2.12-.55-.9-1.76-2.58-1.55-3.26,3.24,2.03,6.61,4.45,11.01,4.08q.7-.18.84-.18c-.59,2.56.15,3.5-2.8,3.5ZM172.93,178.71c-1.25.64-2.35.48-3.48.48-.31-.09-.68-.19-.95-.22.07-.53.16-1.02.27-1.59.26,0,.82.35,1.47.49.82-.04,3.13-.88,2.69.84ZM173.37,179.46c0-1.37.95-1.68-.49-2.31-1.58-.16-3.55.38-3.74-1.03.38-.82,6.89-.37,8.32-.37-.73.53-3.48,3.65-4.09,3.7ZM174.8,179.77c-.15-.15-.26-.26-.37-.37.68-.7,4.71-5.69,6.41-4.45-.16.16-.37.29-.46.46-2.12.24-4.41,4.36-5.58,4.36ZM176.22,179.46c0-.53,2.6-2.66,3.28-3.28.2.48.2.57.88.79-.68,1.06-1.85,1.81-2.87,2.6-.31.2-.71-.11-1.28-.11ZM176.65,181.84c-.09-.09-.26-.39-.31-.53,1.37-1.3,2.87-2.62,4.32-3.95.53-.7.27-1.19,1.13-1.48.49,1.65-5,5.82-5.15,5.97ZM180.24,179.46c.24-.77,2.23-1.74,2.14-3.7,2.6-.02,5.22-.02,7.88-.02-.33.38-.75.79-1.39,1.3-.57.13-1.06.13-1.26.38,0,.68.33.44-.48,1.08-.31.28-.8.28-1.37.4-.24.24-.31.49-.51.55-1.67-.02-3.35,0-5,0ZM188.72,180.57h-.42c-.84-.18-1.74-.64-2.38-.88v-.33c.33-.31,2.4.22,2.8,1.21ZM181,184.44c-1.03-.27,4.78-4.87,5.46-4.21-.71.66-4.61,3.77-5.46,4.21ZM181.63,186.16c-.11-.26-.04-.46-.11-.57,2.02-1.08,5.06-4.67,6.78-4.61-.28.16-5.92,5.37-6.67,5.18ZM182.65,187.02c2.11-1.8,4.28-3.52,6.43-5.24.16.16.22.06.29.55-.51.2-5.95,4.89-6.5,5.09-.31-.27-.22-.4-.22-.4ZM184.36,188.28c-.07-.02-.09-.09-.11-.09-.04-.09-.04-.19-.04-.22.73-.63,4.98-4.58,5.64-4.58.06.15.07.29.15.48.14.29-4.87,4.28-5.64,4.41ZM190.53,184.05c-.46-.79-3.54-6.63-2.23-6.63.68.94,2.62,5.09,2.62,6.45-.15.18-.38.18-.38.18ZM192.82,182.19h-.31c-.73-.22-2.4-.66-2.27-1.48.75.24,1.65.7,2.66,1.12-.02.13-.07.24-.07.37ZM192.73,181.4c-.09-.04-.09-.09-.15-.09v-.24c.51-.44,2.99-2.86,3.76-2.31-1.03.7-2.68,2.42-3.61,2.64ZM200.34,187.09c-.59,1.17-1.36,1.1-2.29,1.19-1.15-.09-1.72-.79-2-.99l2-1.83c.18-.04,1.63.97,2.29,1.63ZM208.2,183.54h-.57c-2.55-.26-5.9-1.28-7.71-2.47,0-.38-.05-.62.07-.8,2.43,1.1,5.39,2.18,8.2,3.13v.15ZM204.96,180.98c0-.09-.02-.15-.02-.16,2.18.35,3.09.82,5.11,2.69-.55.04-4.28-2.33-5.09-2.53ZM217.19,187.02c-.27.33-.68.4-.92.4-5.69-3.55-10.15-7.49-14.73-11.68,0-.11,0-.2.02-.24,1.02.09,3.53,2.71,4.52,3.65,3.22,2.82,7.34,5.22,11.1,7.88ZM215.4,179.51c-2.12,0-4.27,0-6.43.05-.29-.88-1.43-3.52-1.27-3.81,2.02,0,4.1,0,6.16.05-1.04,2.13,1.81,3.12,1.54,3.7ZM218.84,182c-1.39-1.38-5.27-4.07-4.73-5.83.35,0,.51.62.84,1.12.11.16.39.35.46.48,2.03,1.92,3.66,3.24,3.92,3.72,0,0-.35.51-.49.51ZM217.65,179.57q-2.36-2.27-2.38-2.36c.49.04,1.15-.29,1.01-1.03,0,.06,3.7,3.34,3.7,3.39h-2.33ZM220.89,179.84c-1.7-1.37-3.2-3.1-4.74-4.19-.75-.02-.68-.11-1.01-.49,1.78-1.06,4.76,3.08,6.16,4.21-.02.09-.24.26-.4.48ZM219.9,174.31c.48.19.99.37,1.5.55-1.47,0-2.91.05-4.33.09-.93-1.78,1.81-1.45,2.82-.64ZM223.42,179.46c-.4,0-.84,0-1.26.06-1.47-1.08-2.93-2.77-4.05-3.9.13-.07,5.83-.16,8.37-.11.99.04,1.55.37,1.39.8-3.04,1.47-4.92-1.55-4.45,3.15ZM226.19,177.37c.26,0,1.96-.38,1.98-.38.11.47.2.99.33,1.52-1.15.42-2.01.53-3.08.64-2.75-.22-2-2.23.77-1.78ZM232.78,179.4c1.19,0,3.6-.8,5-1.1,0,.17-.75.7-.92.84-3.19,1.92-6.78,4.21-10.49,4.21-1.76-.18-1.83-.35-1.92-1.72-.15-.66-.46-1.61-.33-2.05,3.52,0,4.96-.18,8.48-2.07.59-.22,2.31-1.47,2.62-1.63,0,.73-1.91,2.89-2.43,3.52ZM229.32,178.34h0c-.64-.57-.42-2.33-.55-2.84-.9-1.37-4.38-.05-5.07-.68,2.62-2.78,5.07-5.26,6.9-8.61,1.03-.75,3.7-1.29,4.12-2.8-.2-.02-.38-.07-.59-.07v-.18c1.08-.51,1.96-1.04,2.66-2.14-.35-.04-.62-.07-.93-.11,1.25-1.19,2.69-1.76,1.85-3.92-1.26-.97-1.96-.44-1.96,1.01-.04,0-.07.02-.07.09-1.55-1.05.49-2.8-2.66-3.65-1.43-.95-1.76-2.38-2.25-3.63,1.88,0,7.53,2.69,8.4,4.75.53,4.83,1.58,9.12-4.19,10.49-3.52,0-3.77-.47-4.73,2.75-.94.68-1.06.93-.48,2.03.06.6-.09,1.74.94,2.09.24-.35.42-.66.66-.95.97,0,.71,1.36,1.28,2.34h.64c.24-.44.49-.88.75-1.26.81,0,.68.88.99,1.81h.62c-.44.64-5.35,3.48-6.34,3.48ZM231.92,163.67c0-.26.05-.26.16-.46.51.18,1.08.29,1.63.4,0,.06.07.06.07.06-.38.59-2.05,1.69-2.56,1.52.4-.75.64-.84,1.56-1.21.05-.31-.61-.22-.86-.31ZM232.92,161.84c0-.22.07-.38.09-.49.77,0,1.96,0,2.91.16-.95.97-2.26,1.46-3.52,1.46l-.02-.07c.64-1.03,3.37-.77.53-1.06ZM234.39,159.04c-.02-.14-.02-.22-.02-.35.02-.04.02-.07.04-.09.31,0,2.2.14,2.34-.66-.14,0-.26,0-.37.04-1.35-1.5,2.26-1.76.94,1.17-.95,1.21-1.98,1.45-3.39,1.45-.13,0-.26-.02-.31-.02,0-1.17,2.03-.27,2.6-1.43-.55,0-1.6,0-1.83-.11ZM241.31,149.97c.75.66,1.61,1.23,2.31,1.85-3.68,3.2,1.61,8.26-.77,12.36-.86,1.14-1.92,1.1-2.62.33,0,.48.82.77.28,1.3-2.31,1.02-4.01,1.59-6.3,1.59-2.99.37-1.61,2.73-2.86,3.19-.59-.24-1.04-.42-1.3-.7v-.22c1.68-.59.33-3.86,3.39-3.02,2.54-.11,4.71-.95,6.32-3.08.22-2.91.62-6.3-.24-8.96-2.49-2.51-5.93-3.81-8.83-5.06-1.39-1.81.68-7.32,1.65-8.9.75-.94,3.13-2.82,4.45-2.47-.42,5.81.33,7.47,4.52,11.78ZM232.08,170.76c.24-.16.42-.24.66-.33,0-1.56-.84-2.05,1.23-2.54.51,0,1.17.07,1.78.26,1.39.82,4.25-1.93,5.62-2.51,4.45-.6,1.96-8.3,1.3-10.77.2-1.8,1.36-4.14,3.08-1.94,1.04,4.93-.13,14.16-5.9,16.04-4.08.35-4.51-1.21-5.9,2.65-.07,0-.09.04-.16.04-.92-.29-1.54-.36-1.7-.9ZM233.62,172.66c0,.42-.26.84-.53,1.21h-.16c-.26-.66-.37-1.3-.42-1.72,0-.07.05-.07.09-.07.24.09.59.24,1.03.59ZM231.07,171.25c0,.27-.26.77-.47,1.06h-.14c-.33-.6-.35-1.02-.33-1.46.2,0,.47.11.95.4ZM235.34,174.31c-.27-.47-.2-.71-.16-1.04.24,0,.73-.04,1.1.35-.11.26-.71.75-.94.69ZM244.97,150.06c.86-.57,2.18-1.39,2.73.48,0,3.35.06,6.78.06,10.07,0,1.04.46,2.73.05,4.58-.18.72-.94,1.74-1.79,1.54-.11-.16-.26-.31-.37-.4-.92,2.73-1.53,5.65-5.12,5.51-1.55.94-2.05,1.56-3.79,1.25q-1.83-.71-2.36-.94c0-3.11,2.47-3.5,4.71-1.98,0-.09.04-.28.07-.35,6.92-2.56,7.95-10.31,7.03-16.37-.37-1.5-.79-1.69-2.01-1.74-4.67-3.68-8.02-7.62-6.8-13.76.6-.46,1.26-1.23,2.07-.03-.48,4.69-.53,10.51,5.51,12.14ZM243.22,141.64c-1.91-1.78-3.02-3.35-4.23-5.37-9.05,1.5-11.46,9.41-7.88,17.32.35.48.75.97,1.15,1.45,1.52.13,2.66.84,2.07,2.8-.71,1.34-6.02,11.98-7.32,12.42,0-.13-.04-.33-.04-.44-.02-.02-.13-.05-.13-.09-1.03,1.63-2.11,3.97-4.18,4.38h0c-2.03-.19-3.26-1.41-4.82-1.03-.64-.51-1.92-1.37-2.09-1.83.82-.42.57-1.43,1.94-1.85.86,0,3.7.49,2.66,2.38.44,0,.77-.75.95-1.12,2.71-.68,4.73-1.28,6.59-3.59,1.36-2.2,4.36-7.29,3.66-9.81.4,0,.79.02,1.21.07.03-.05.05-.07.09-.14-2.93-.44-4.71-4.91-5.73-7.03.35-3.41.82-6.46-.07-9.48,0-1.98,6.14-4.52,7.23-5.37,1.96-1.39,5.48-5.04,2.38-6.96.51-1.87.51-2.62-.66-3.99.05-1.15-.04-1.96-.16-2.84.53-.6.75-1.13,1.44-1.37,2.29,4.78,2.97,10.55,5.42,15.75,3.37,5.62,8.66,8.2,14.49,3.55.35,0,2.07.9,2.33,1.5-4.8,4.78-11.21,4.65-16.32.7ZM263.8,141.46c0,.05-.2.05-.27.05-8.3-1.46-12.99-10.9-16.94-17.01-.39-.59-2.47-3.68-2.47-4.12.51.28,1.04.46,1.54.68,2.84,4.65,8.39,15.93,14.93,17.66,0-.02,0-.06.03-.11-6.12-8.09-11.37-17.65-16.13-26.14.22-.29.35-.6.77-.71,3.65,5.72,6.81,12.16,10.53,18.31,2.47,3.81,4.87,7.71,8.02,11.39ZM263.91,130.62c.47,0,1.94-.72,2.23-.63,0,1.3-1.69,2.14-2.35,3.19.39.06,1.1-.05,1.65-.11,0,.05.04.07.04.11-.95,2.02-3.1,2.35-4.03,4.45h-.13c-.49-.64-.99-1.28-1.47-1.93,2.53-8.77,1.27-14.89-2.33-23.06-1.54-3.04-3.42-6.28-4.52-9.2.42-.16,1.27-.75,1.63-.75,2.89,5.64,5.93,11.36,8.42,17.49.59.53,2.95-.36.88-1.54-1.93-1.08,2.31-3.24,1.98,1.48-.14.51-1.63,3.02-1.63,3.02.62,0,1.46-1.12,2.16-1.01,0,1.68-.71,3.48-1.81,4.92,0,.07,0,.09.04.09.61-.35,1.19-.84,2.02-1.12-.44,1.96-1.41,3.17-2.78,4.56Z"/>
      </g>
    </g>
    <g id="g2908">
      <path id="path2910" class="cls-5" d="M197.91,133.68c-6.23-2.11-11.15-6.45-11.15-12.87,1.6,0,2.71-.02,4.09-.87.07,0-.12-.02-.05-.02,1.39,1.29,3.18,1.1,4.83.02,2.12,1.25,2.36,1.17,4.71,0,1.69,1.17,2.71,1.17,4.68,0,.99.45,2.04.6,3.38.82,0,6.99-4.24,11.2-10.5,12.92h0ZM193.05,127.99s0,0,2.59-.69c1,.52,1.37.69,2.27.7.79.05,1.52-.33,2.44-.7,0,0,1.14.69,2.51.7.65,0,1.42-.5,2.14-.7.08,0,0-.57.03-.82-.57.38-1.24.87-2.17.82-.68,0-1.45-.4-2.51-.8-.87.62-1.6.8-2.44.8-.53,0-2.27-.18-2.27-.8,0,.33-1.34.8-2.59.8s-2.24-.72-2.19-.8v.8c.92.7,2.19.58,2.19.69h0ZM190.86,124.48c.85-.08,1.37-.22,2.19-.79,1.02.3,1.87.72,2.59.79,1.24.02,1.97-.48,2.27-.79.94,0,1.4.79,2.44.79.79,0,1.45-.1,2.51-.79.72.69,2.17.79,2.17.79-.03,0,1.32-.32,2.07-.79v-.72s-1.22.72-2.11.72c-1.05.08-1.42-.23-2.14-.72-.92.47-1.67.7-2.51.72-.87.08-1.72-.15-2.44-.72-.1,0-1.57.72-2.27.72-.85.07-1.65-.28-2.59-.72-.85.33-1.52.67-2.19.72-.62.08-1.25-.08-2.02-.72-.17,0-.17.72-.17.72.59.4,1.91.7,2.19.79h0ZM189.54,119.87c.27-.65.94-.85,1.64-1.2v-.05c-.7-.45-1.27-1.25-1.7-1.34-.8.62-1.89,1.3-2.71,1.74v-10.73h21.65s0,9.69,0,9.69c-2.47.4-6.82-.9-8.32-2.82-1.32-.23-2.09-.85-3.11-.6-2.29,2.47-4.43,3.74-7.44,5.31h0ZM195.29,117.51c.57-.13,1.59-1.09,2.47-1.35-.07.25-.42.59-.42.95.43,0,.87-.55,1.76-.55,0-.12,0-.23.03-.38-.97-.15-1.54-.38-1.76-1.22-.84.82-1.79,1.47-2.09,2.56h0ZM195.47,114.47c.6-.02,1.04-.15,1.72-.33.72.02,4.53.89,4.53-.9h-8.21c.23.99.79,1.15,1.96,1.24h0Z"/>
    </g>
    <path class="cls-5" d="M171.83,61.81v.26h-.76c-.22.35-.84.73-1.48.7-.64-.05-1.24-.39-1.34-.7h-.71v-.26h.89c.2.32.62.59,1.16.61.55,0,1.19-.35,1.19-.61h1.04Z"/>
    <path class="cls-5" d="M170.63,61.01c-.07-.32-.52-.62-.97-.62-.45-.03-.82.43-.84.62,0,.07-1.26.07-1.27,0v.47c.08.02,1.27-.03,1.27,0,.02.34.45.64.94.59.49,0,.8-.3.8-.59h1.28c0-.12.03-.3.03-.4l-1.24-.07ZM169.72,61.79c-.32,0-.58-.25-.58-.52s.22-.55.53-.55c.29,0,.6.23.6.54,0,.28-.24.53-.55.53Z"/>
  </g>
</svg>