<?xml version="1.0" encoding="UTF-8"?>
<svg id="Ready-Made_Companies" data-name="Ready-Made Companies" xmlns="http://www.w3.org/2000/svg" viewBox="0 0 380.44 288.44">
  <defs>
    <style>
      .cls-1 {
        stroke-miterlimit: 10;
      }

      .cls-1, .cls-2, .cls-3, .cls-4, .cls-5, .cls-6 {
        stroke: #0032b8;
        stroke-width: 2px;
      }

      .cls-1, .cls-5 {
        fill: #3fc6ff;
      }

      .cls-2 {
        fill: #0362e1;
      }

      .cls-2, .cls-3, .cls-4, .cls-5, .cls-6 {
        stroke-linejoin: round;
      }

      .cls-2, .cls-4, .cls-5 {
        stroke-linecap: round;
      }

      .cls-3 {
        fill: #fff;
      }

      .cls-4 {
        fill: #96e1fe;
      }

      .cls-6 {
        fill: #59abff;
      }
    </style>
  </defs>
  <g id="base">
    <g>
      <polygon class="cls-2" points="144.89 223.86 80.78 189.98 80.78 179.1 144.89 212.97 144.89 223.86"/>
      <polygon class="cls-5" points="144.89 212.97 80.78 179.1 146.1 145.23 210.21 179.1 144.89 212.97"/>
      <polygon class="cls-5" points="144.89 223.74 210.21 190.1 210.21 179.1 144.89 213.08 144.89 223.74"/>
    </g>
  </g>
  <g id="buil">
    <polygon class="cls-4" points="144.89 200.87 100.13 177.89 100.13 99.26 144.89 122.24 144.89 200.87"/>
    <polygon class="cls-6" points="144.89 122.24 100.13 99.26 144.89 76.27 189.65 99.26 144.89 122.24"/>
    <polygon class="cls-3" points="144.89 200.87 189.65 178.11 189.65 99.48 144.89 122.47 144.89 200.87"/>
  </g>
  <g id="Glass">
    <polygon class="cls-1" points="164.24 140.32 156.99 144.08 156.99 128.36 164.24 124.59 164.24 140.32"/>
    <polygon class="cls-1" points="181.18 131.85 173.92 135.62 173.92 119.89 181.18 116.13 181.18 131.85"/>
    <polygon class="cls-1" points="164.24 164.51 156.99 168.28 156.99 152.55 164.24 148.79 164.24 164.51"/>
    <polygon class="cls-1" points="181.18 156.05 173.92 159.81 173.92 144.08 181.18 140.32 181.18 156.05"/>
  </g>
  <g id="Glass-2" data-name="Glass">
    <polygon class="cls-1" points="126.74 141.53 134 145.29 134 129.57 126.74 125.8 126.74 141.53"/>
    <polygon class="cls-1" points="109.81 133.06 117.07 136.83 117.07 121.1 109.81 117.34 109.81 133.06"/>
    <polygon class="cls-1" points="126.74 165.72 134 169.49 134 153.76 126.74 150 126.74 165.72"/>
    <polygon class="cls-1" points="109.81 157.26 117.07 161.02 117.07 145.29 109.81 141.53 109.81 157.26"/>
  </g>
  <polygon id="Door" class="cls-6" points="173.92 186.11 164.24 190.95 164.24 174.33 173.92 169.35 173.92 186.11"/>
</svg>