<?xml version="1.0" encoding="UTF-8"?>
<svg id="Ready-Made_Companies" data-name="Ready-Made Companies" xmlns="http://www.w3.org/2000/svg" viewBox="0 0 380.44 288.44">
  <defs>
    <style>
      .cls-1 {
        fill: none;
      }

      .cls-1, .cls-2, .cls-3, .cls-4, .cls-5, .cls-6, .cls-7 {
        stroke-linejoin: round;
      }

      .cls-1, .cls-2, .cls-3, .cls-4, .cls-5, .cls-7 {
        stroke: #0032b8;
        stroke-width: 2px;
      }

      .cls-2 {
        fill: #0362e1;
      }

      .cls-2, .cls-4, .cls-5, .cls-6 {
        stroke-linecap: round;
      }

      .cls-3, .cls-6 {
        fill: #fff;
      }

      .cls-4 {
        fill: #96e1fe;
      }

      .cls-5 {
        fill: #3fc6ff;
      }

      .cls-6 {
        stroke: #00288a;
        stroke-width: 1.2px;
      }

      .cls-7 {
        fill: #59abff;
      }
    </style>
  </defs>
  <g>
    <line class="cls-6" x1="288.84" y1="255.5" x2="288.84" y2="255.22"/>
    <polygon class="cls-5" points="334.64 222.18 288.84 247.2 243.04 222.18 288.84 197.3 334.64 222.18"/>
    <polygon class="cls-5" points="334.81 222.25 334.81 236.26 334.64 236.33 288.84 261.21 288.84 247.2 334.81 222.25"/>
    <polygon class="cls-2" points="288.84 247.2 288.84 261.22 243.04 236.33 242.87 236.25 242.87 222.26 243.04 222.18 288.84 247.2"/>
    <g>
      <polygon class="cls-1" points="306.99 71.64 306.99 224.39 306.92 224.41 289 234.15 289 81.4 306.99 71.64"/>
      <polygon class="cls-1" points="288.82 81.44 288.82 234.29 270.54 224.37 270.47 224.33 270.47 71.48 270.54 71.45 288.82 81.44"/>
    </g>
    <g>
      <polyline class="cls-1" points="270.47 169.42 288.84 208.26 270.47 196.29 288.82 234.29"/>
      <polyline class="cls-1" points="270.47 113.77 288.84 152.62 270.47 141.85 288.82 179.86"/>
      <polyline class="cls-1" points="278.94 76.04 288.84 96.97 270.47 86.21 288.82 124.21"/>
      <line class="cls-1" x1="270.47" y1="169.42" x2="288.82" y2="180.31"/>
      <line class="cls-1" x1="270.47" y1="113.77" x2="288.82" y2="124.66"/>
    </g>
    <g>
      <polyline class="cls-1" points="307.21 168.51 289.44 207.35 307.21 195.37 289.46 233.38"/>
      <polyline class="cls-1" points="307.21 112.86 289.44 151.71 307.21 140.94 289.46 178.95"/>
      <polyline class="cls-1" points="298.59 76.04 289.44 96.06 307.21 85.29 289.46 123.3"/>
      <line class="cls-1" x1="307.21" y1="168.51" x2="289.46" y2="179.39"/>
      <line class="cls-1" x1="307.21" y1="112.86" x2="289.46" y2="123.75"/>
    </g>
  </g>
  <g>
    <polygon class="cls-7" points="272.82 39.64 259.81 46.66 139.34 21.32 145.49 18.81 272.82 39.64"/>
    <polygon class="cls-7" points="260.41 46.64 256.18 65.3 135.82 24.86 135.82 24.86 139.44 21.23 143.07 22.44 260.41 46.64"/>
    <g>
      <path class="cls-3" d="M318.79,28.75l-26.32,19.12-21.49-9.83,18.79-8.54c2.58-1.06,5.35-1.56,8.13-1.46l20.89.72Z"/>
      <polygon class="cls-3" points="318.93 28.81 318.93 69.22 318.79 69.28 292.47 83.45 292.47 40.61 318.93 28.81"/>
      <path class="cls-4" d="M292.47,40.61v42.84l-37.21-15.38-.14-.07v-12.57c0-3.39,1.45-6.61,3.98-8.86l10.99-8.41h0c.76-.76,1.84-1.1,2.9-.92l19.48,3.36Z"/>
      <path class="cls-2" d="M285.21,44.66v17.37l-20.34-6.65-.08-.04v-2.58c0-1.85.79-3.61,2.18-4.84l3.12-2.49,3.55-2.77,11.57,1.99Z"/>
    </g>
  </g>
</svg>